<svg id="Layer_1" data-name="Layer 1" xmlns="http://www.w3.org/2000/svg" viewBox="0 0 275.44 147.1"><defs><style>.cls-1,.cls-4{fill:#b8c6d0;}.cls-1{opacity:0.21;}.cls-2{fill:#d1dce1;}.cls-3{fill:#ecf0f2;}.cls-5{fill:#e0e1e0;fill-opacity:0.5;}.cls-6{fill:#667a80;}.cls-10,.cls-12,.cls-39,.cls-57,.cls-7{fill:#2f4c57;}.cls-7{opacity:0.24;}.cls-17,.cls-38,.cls-44,.cls-46,.cls-8{fill:#fff;}.cls-14,.cls-22,.cls-23,.cls-26,.cls-28,.cls-35,.cls-37,.cls-38,.cls-39,.cls-43,.cls-44,.cls-45,.cls-47,.cls-48,.cls-49,.cls-50,.cls-57,.cls-58,.cls-59,.cls-60,.cls-61,.cls-62,.cls-63,.cls-8,.cls-9{stroke:#2f4c57;}.cls-14,.cls-15,.cls-22,.cls-23,.cls-25,.cls-26,.cls-28,.cls-35,.cls-37,.cls-38,.cls-40,.cls-41,.cls-42,.cls-43,.cls-44,.cls-45,.cls-47,.cls-48,.cls-49,.cls-50,.cls-53,.cls-54,.cls-55,.cls-57,.cls-60,.cls-61,.cls-62,.cls-8,.cls-9{stroke-linecap:round;}.cls-37,.cls-43,.cls-44,.cls-45,.cls-49,.cls-50,.cls-53,.cls-54,.cls-8,.cls-9{stroke-linejoin:round;}.cls-8,.cls-9{stroke-width:0.39px;}.cls-49,.cls-9{fill:#f7f0ee;}.cls-10{opacity:0.16;}.cls-11{fill:#1a353d;}.cls-12,.cls-13,.cls-48{opacity:0.1;}.cls-13{fill:#640c19;}.cls-14,.cls-15,.cls-22,.cls-23,.cls-25,.cls-26,.cls-28,.cls-40,.cls-41,.cls-42,.cls-47,.cls-48,.cls-53,.cls-55,.cls-60{fill:none;}.cls-14,.cls-15,.cls-17,.cls-18,.cls-22,.cls-23,.cls-25,.cls-26,.cls-28,.cls-35,.cls-38,.cls-39,.cls-40,.cls-41,.cls-42,.cls-47,.cls-48,.cls-55,.cls-57,.cls-58,.cls-59,.cls-60,.cls-61,.cls-62,.cls-63{stroke-miterlimit:10;}.cls-14{stroke-width:0.75px;}.cls-14,.cls-22,.cls-23,.cls-26,.cls-28{opacity:0.27;}.cls-15,.cls-40,.cls-41,.cls-42{stroke:#fff;}.cls-15{stroke-width:1.29px;}.cls-16,.cls-30,.cls-59{fill:#fac312;}.cls-17,.cls-18{stroke:#aab5bb;stroke-width:0.08px;}.cls-18,.cls-19{fill:#192e35;}.cls-20{fill:#4c7f7e;}.cls-21{opacity:0.4;}.cls-22{stroke-width:0.57px;}.cls-23{stroke-width:0.82px;}.cls-24{fill:#95a4ad;}.cls-25{stroke:#e0b061;stroke-width:0.7px;opacity:0.86;}.cls-26{stroke-width:0.81px;}.cls-27{opacity:0.55;}.cls-28{stroke-width:0.75px;}.cls-29{fill:#e1e1e1;}.cls-30{opacity:0.18;}.cls-31{fill:#bacae2;}.cls-32{fill:#e2857e;}.cls-33{fill:#6b8085;}.cls-34{fill:#b0c4e1;}.cls-35{fill:#e8efef;stroke-width:0.32px;}.cls-36{fill:#a2b2bc;}.cls-37{fill:#d4dfe0;stroke-width:0.41px;}.cls-38,.cls-39,.cls-42{stroke-width:0.43px;}.cls-40{stroke-width:2.15px;}.cls-41{stroke-width:1.29px;}.cls-43{fill:#e4e6ed;stroke-width:0.76px;}.cls-44,.cls-45,.cls-49,.cls-50{stroke-width:0.4px;}.cls-45{fill:#83b7c0;}.cls-47,.cls-48,.cls-53,.cls-54,.cls-55{stroke-width:0.77px;}.cls-47,.cls-55{opacity:0.2;}.cls-50{fill:#d2d6e1;}.cls-51{fill:#8fbbc6;}.cls-52{fill:#2b3b4a;}.cls-53,.cls-54{stroke:#36566c;}.cls-54{fill:#e15a59;}.cls-55{stroke:#2a3f71;}.cls-56{opacity:0.22;}.cls-57{stroke-width:0.79px;}.cls-58,.cls-61{fill:#cee1df;}.cls-58,.cls-59,.cls-60,.cls-61,.cls-62{stroke-width:0.41px;}.cls-62{fill:#99c6c3;}.cls-63{fill:#eef3f4;stroke-width:0.21px;}.cls-64{fill:#d3dff2;}.cls-65{fill:#e8f4f3;}</style></defs><polygon class="cls-1" points="225.64 122.34 206.68 110.42 224.62 81.36 275.07 68.96 244.4 120.62 225.64 122.34"/><polygon class="cls-2" points="275.44 68.22 241.26 111.52 212.74 100.84 214.97 86.59 245.83 48.42 275.44 68.22"/><polygon class="cls-3" points="52.09 133.76 0 49.78 57.77 13.95 57.77 13.95 109.85 97.93 52.09 133.76 52.09 133.76"/><polygon class="cls-4" points="53.37 127.02 13.53 36.58 75.73 9.18 75.73 9.18 115.57 99.62 53.37 127.02 53.37 127.02"/><path class="cls-5" d="M212,138.31c2.06,7.82-63,30.73-98.31,41.75s-55.3,14.34-57.35,6.51,14.62-23.82,49.9-34.84S209.94,130.49,212,138.31Z" transform="translate(-3.85 -66.15)"/><polygon class="cls-6" points="203.16 80.92 53.41 110.82 46.72 112.16 31.8 37.44 56.31 32.54 183.97 7.05 188.23 6.2 189.13 10.67 203.16 80.92"/><path class="cls-7" d="M207,147.07l-79.38,15.86L57.26,177l-4-2.7s4.06-41.74,6.87-75.58L187.83,73.2,193,76.82Z" transform="translate(-3.85 -66.15)"/><path class="cls-8" d="M183,66.35l15.1,75.59a379.75,379.75,0,0,1-51.25,4.75A23.43,23.43,0,0,0,135.32,150a46.6,46.6,0,0,0-7.86,6.05l-.42.16L112,80.62l.42-.17a47.38,47.38,0,0,1,7.85-6,23.47,23.47,0,0,1,11.55-3.31A378.6,378.6,0,0,0,183,66.35Z" transform="translate(-3.85 -66.15)"/><path class="cls-9" d="M198.07,141.76l4,2.81-74.4,14.86L127,156l.42-.16a46.77,46.77,0,0,1,7.85-6.05,23.47,23.47,0,0,1,11.55-3.31A379.47,379.47,0,0,0,198.07,141.76Z" transform="translate(-3.85 -66.15)"/><path class="cls-8" d="M40.85,94.74l15.09,75.59A378.56,378.56,0,0,0,105.08,155,23.51,23.51,0,0,1,117,153.65a46.91,46.91,0,0,1,9.57,2.58l.45,0L112,80.62h-.46a46.53,46.53,0,0,0-9.57-2.57A23.47,23.47,0,0,0,90,79.43,380.21,380.21,0,0,1,40.85,94.74Z" transform="translate(-3.85 -66.15)"/><path class="cls-9" d="M55.91,170.15l-2.62,4.13,74.39-14.85L127,156h-.46a47.29,47.29,0,0,0-9.57-2.57A23.52,23.52,0,0,0,105,154.85,378.72,378.72,0,0,1,55.91,170.15Z" transform="translate(-3.85 -66.15)"/><path class="cls-10" d="M198.07,141.76l4,2.81-74.4,14.86L127,156l.42-.16a46.77,46.77,0,0,1,7.85-6.05,23.47,23.47,0,0,1,11.55-3.31A379.47,379.47,0,0,0,198.07,141.76Z" transform="translate(-3.85 -66.15)"/><path class="cls-10" d="M55.91,170.15l-2.62,4.13,74.39-14.85L127,156h-.46a47.29,47.29,0,0,0-9.57-2.57A23.52,23.52,0,0,0,105,154.85,378.72,378.72,0,0,1,55.91,170.15Z" transform="translate(-3.85 -66.15)"/><polygon class="cls-9" points="36.99 28.58 35.18 36.76 49.44 108.13 52.05 104 36.99 28.58"/><polygon class="cls-9" points="179.16 0.19 183.97 7.05 198.23 78.42 194.22 75.61 179.16 0.19"/><path class="cls-11" d="M132.16,158.53l-9,1.79h0a3.28,3.28,0,0,1,2.58-3.85l2.52-.51a3.28,3.28,0,0,1,3.86,2.57Z" transform="translate(-3.85 -66.15)"/><polyline class="cls-12" points="112.1 11.21 108.09 14.46 123.19 90.06 127.16 86.62"/><polyline class="cls-13" points="103.14 13 108.09 14.46 123.19 90.06 118.2 88.41"/><path class="cls-14" d="M175.58,76.82c-2.64.35-5.8.74-9.39,1.14-2.65.28-5.54.57-8.64.84q-4.17.38-8.81.68c-2.79.19-5.7.35-8.71.48q-3.33.15-6.81.25c-.64,0-1.28.05-1.91.12a23.42,23.42,0,0,0-8,2.28" transform="translate(-3.85 -66.15)"/><path class="cls-14" d="M176.21,80c-2.64.36-5.8.75-9.39,1.14-2.65.29-5.54.58-8.63.85-2.78.25-5.73.48-8.82.68-2.79.19-5.7.35-8.7.48-2.22.1-4.5.19-6.82.24-.64,0-1.28.06-1.91.13a23.63,23.63,0,0,0-8,2.27" transform="translate(-3.85 -66.15)"/><path class="cls-14" d="M176.87,83.27c-2.64.35-5.8.74-9.39,1.14-2.65.28-5.54.57-8.64.84q-4.17.38-8.81.68c-2.79.19-5.7.35-8.71.48-2.22.1-4.49.19-6.81.25-.64,0-1.28,0-1.91.12a23.42,23.42,0,0,0-8,2.28" transform="translate(-3.85 -66.15)"/><path class="cls-14" d="M148.12,89.1q-3,.18-6.2.32c-2.22.1-4.49.19-6.81.24-.64,0-1.28.06-1.91.13a23.63,23.63,0,0,0-8,2.27" transform="translate(-3.85 -66.15)"/><line class="cls-15" x1="68.26" y1="94.13" x2="57.34" y2="39.45"/><line class="cls-15" x1="57.63" y1="40.91" x2="55.41" y2="29.8"/><line class="cls-15" x1="66.02" y1="38.9" x2="63.63" y2="26.95"/><line class="cls-15" x1="84.99" y1="89.17" x2="74.01" y2="34.17"/><line class="cls-15" x1="74.22" y1="35.21" x2="72.05" y2="24.36"/><polygon class="cls-16" points="119.84 40 117.23 37.45 115.79 40.8 110.22 12.91 113.91 10.31 119.84 40"/><path class="cls-17" d="M159.43,92.79l-2.29.41a.57.57,0,0,0-.46.66l.08.4a.58.58,0,0,1-.46.67l-4.46.79a.57.57,0,0,1-.66-.47l-.07-.4a.56.56,0,0,0-.66-.46l-.8.14-2,.35A1.8,1.8,0,0,0,146.16,97l5,28.07a1.81,1.81,0,0,0,2.11,1.43l11.78-2.1a1.8,1.8,0,0,0,1.49-2.07l-5-28.06A1.81,1.81,0,0,0,159.43,92.79Z" transform="translate(-3.85 -66.15)"/><path class="cls-18" d="M159.43,92.79h.06l.18,0a1.77,1.77,0,0,1,.72.11,2,2,0,0,1,.47.25,1.94,1.94,0,0,1,.44.46,2,2,0,0,1,.26.69l.14.82c.42,2.33,1,5.71,1.77,9.87s1.63,9.13,2.61,14.64c.12.69.25,1.39.37,2.09l.1.53a1.7,1.7,0,0,1,0,.55,1.67,1.67,0,0,1-.14.53,2.09,2.09,0,0,1-.3.47,1.84,1.84,0,0,1-1,.58l-1.13.21-2.3.41-4.7.83-2.41.43-1.22.22a2,2,0,0,1-1.23-.11,1.87,1.87,0,0,1-.88-.83,1.7,1.7,0,0,1-.18-.58l-.11-.59-.41-2.34c-.28-1.55-.55-3.07-.82-4.57-.53-3-1-5.89-1.53-8.65s-1-5.37-1.39-7.82c-.22-1.23-.43-2.41-.63-3.55l-.08-.43,0-.21v-.21a1.88,1.88,0,0,1,.25-.81,2,2,0,0,1,.58-.61,2.24,2.24,0,0,1,.78-.29l1.57-.27.75-.14.37-.06a.59.59,0,0,1,.37,0,.58.58,0,0,1,.27.24.88.88,0,0,1,.1.34l0,.17a1,1,0,0,0,0,.17.61.61,0,0,0,.18.27.58.58,0,0,0,.31.11.43.43,0,0,0,.16,0l.17,0,.65-.12,2.38-.41,1-.19.25,0a.49.49,0,0,0,.2-.11.53.53,0,0,0,.19-.4.75.75,0,0,0,0-.21l0-.21a1.49,1.49,0,0,1,0-.21.69.69,0,0,1,0-.2.64.64,0,0,1,.24-.3,1.14,1.14,0,0,1,.36-.1l1.16-.2.72-.13.25,0-.25,0-.71.13-1.17.21a.88.88,0,0,0-.35.1.52.52,0,0,0-.23.29.58.58,0,0,0,0,.19,1.38,1.38,0,0,0,0,.2l0,.21a.82.82,0,0,1,0,.22.55.55,0,0,1-.19.41.48.48,0,0,1-.22.12,1,1,0,0,1-.24,0l-1.05.19-2.38.42-.64.12-.17,0a.5.5,0,0,1-.17,0,.66.66,0,0,1-.33-.12.54.54,0,0,1-.19-.28,1.36,1.36,0,0,1,0-.17l0-.17a.85.85,0,0,0-.09-.33.58.58,0,0,0-.26-.23.53.53,0,0,0-.35,0l-.37.06-.76.14-1.57.28a2,2,0,0,0-.76.28,1.93,1.93,0,0,0-.57.6,1.78,1.78,0,0,0-.24.79v.21l0,.21.08.42.63,3.55c.44,2.45.9,5.07,1.39,7.82s1,5.65,1.54,8.65c.27,1.5.54,3,.82,4.57l.41,2.34.11.59a1.65,1.65,0,0,0,.18.57,1.72,1.72,0,0,0,.86.8,1.87,1.87,0,0,0,1.19.11l1.22-.22,2.41-.43,4.7-.83,2.3-.41,1.13-.2a1.88,1.88,0,0,0,.94-.57,2,2,0,0,0,.3-.46,1.82,1.82,0,0,0,.13-.51,1.63,1.63,0,0,0,0-.54l-.1-.53-.37-2.09L163.43,105c-.74-4.17-1.33-7.54-1.75-9.87l-.14-.83a1.64,1.64,0,0,0-.26-.68,1.8,1.8,0,0,0-.89-.71,1.77,1.77,0,0,0-.72-.11l-.18,0Z" transform="translate(-3.85 -66.15)"/><path class="cls-19" d="M160.13,95.38a5.47,5.47,0,0,1-.84.18,4.64,4.64,0,0,1-.86.12,5.47,5.47,0,0,1,.84-.18A4.64,4.64,0,0,1,160.13,95.38Z" transform="translate(-3.85 -66.15)"/><path class="cls-19" d="M160,95.68a5.42,5.42,0,0,1-.84.19,5.21,5.21,0,0,1-.85.11,6.3,6.3,0,0,1,.84-.18A6.09,6.09,0,0,1,160,95.68Z" transform="translate(-3.85 -66.15)"/><path class="cls-19" d="M160.13,95.92a5.42,5.42,0,0,1-.84.19,5.21,5.21,0,0,1-.85.11,6.79,6.79,0,0,1,.84-.18A6.09,6.09,0,0,1,160.13,95.92Z" transform="translate(-3.85 -66.15)"/><path class="cls-19" d="M155.83,98.88h.06l.2,0,.31.08a2.22,2.22,0,0,1,.41.14,3.85,3.85,0,0,1,1,.6,3.71,3.71,0,0,1,.53.52,2.6,2.6,0,0,1,.25.31,2.77,2.77,0,0,1,.22.37,3.52,3.52,0,0,1,.45,1.81,4.13,4.13,0,0,1-.59,2.07,4.32,4.32,0,0,1-.75.92,4.4,4.4,0,0,1-1.05.68,4.51,4.51,0,0,1-2.58.36,4.23,4.23,0,0,1-2.3-1.17,4.19,4.19,0,0,1-1.18-2.06,3.65,3.65,0,0,1,.13-2.13,3.41,3.41,0,0,1,1.16-1.5,4.53,4.53,0,0,1,1.41-.73,7.4,7.4,0,0,1,2.19-.33h-.06l-.2,0c-.17,0-.43,0-.75.07a7.6,7.6,0,0,0-1.17.27,4.72,4.72,0,0,0-1.39.74,3.28,3.28,0,0,0-1.13,1.48,3.62,3.62,0,0,0-.12,2.1,4.25,4.25,0,0,0,3.42,3.18,4.55,4.55,0,0,0,2.54-.36,4,4,0,0,0,1.78-1.57,4.11,4.11,0,0,0,.58-2,3.57,3.57,0,0,0-.43-1.79,2.67,2.67,0,0,0-.22-.36,2.55,2.55,0,0,0-.24-.31,4.25,4.25,0,0,0-.52-.52,4.37,4.37,0,0,0-1-.61l-.41-.14-.31-.08-.19,0Z" transform="translate(-3.85 -66.15)"/><path class="cls-20" d="M160.43,109.26l-.1,0-.28,0a2.75,2.75,0,0,0-1,.12,2.68,2.68,0,0,0-.64.31,2.88,2.88,0,0,1-.34.23.75.75,0,0,1-.42.13c-.34,0-.46-.44-.77-.44a.45.45,0,0,0-.34.25c-.1.13-.18.28-.3.41a.65.65,0,0,1-.23.13.58.58,0,0,1-.26,0,1.7,1.7,0,0,1-.46-.18,3.86,3.86,0,0,0-.41-.2.61.61,0,0,0-.42,0,.63.63,0,0,0-.3.26c-.07.11-.12.23-.19.35a1,1,0,0,1-.24.29.84.84,0,0,1-.33.13.71.71,0,0,1-.58-.15.68.68,0,0,1-.25-.65.25.25,0,0,1,0-.09.64.64,0,0,0,0,.36.69.69,0,0,0,.23.36.72.72,0,0,0,.55.12.82.82,0,0,0,.31-.13.75.75,0,0,0,.22-.27c.07-.11.12-.23.19-.35a.63.63,0,0,1,.33-.29.66.66,0,0,1,.46,0,3.23,3.23,0,0,1,.42.2,1.82,1.82,0,0,0,.44.17.44.44,0,0,0,.23,0,.56.56,0,0,0,.2-.11c.11-.12.19-.26.29-.39a1,1,0,0,1,.16-.19.33.33,0,0,1,.24-.09.38.38,0,0,1,.24.07l.18.15a.59.59,0,0,0,.36.21.65.65,0,0,0,.38-.11l.34-.22a2.14,2.14,0,0,1,.65-.31,2.62,2.62,0,0,1,1.05-.11l.28,0Z" transform="translate(-3.85 -66.15)"/><path class="cls-20" d="M158.61,110.78s-.86.19-1.91.37-1.92.33-1.92.31.85-.18,1.91-.37S158.6,110.76,158.61,110.78Z" transform="translate(-3.85 -66.15)"/><path class="cls-19" d="M152.24,117.59a24.13,24.13,0,0,1-.38-2.36,9.47,9.47,0,0,1,.22,1.17A9.7,9.7,0,0,1,152.24,117.59Z" transform="translate(-3.85 -66.15)"/><path class="cls-19" d="M163.79,115.64s-2.63.46-5.89,1-5.9.94-5.91.92,2.64-.46,5.9-1S163.79,115.62,163.79,115.64Z" transform="translate(-3.85 -66.15)"/><path class="cls-19" d="M163.28,113s-2.54.53-5.67,1.13-5.68,1.08-5.68,1.07,2.53-.53,5.67-1.14S163.27,113,163.28,113Z" transform="translate(-3.85 -66.15)"/><path class="cls-19" d="M163.69,115.6a12.06,12.06,0,0,1-.27-1.29c-.13-.71-.21-1.3-.2-1.3a12.06,12.06,0,0,1,.27,1.29C163.62,115,163.7,115.6,163.69,115.6Z" transform="translate(-3.85 -66.15)"/><path class="cls-19" d="M153,123.65s-.11-.49-.24-1.1l-.22-1.1.24,1.09C152.94,123.15,153,123.64,153,123.65Z" transform="translate(-3.85 -66.15)"/><path class="cls-19" d="M155,121.08a9.83,9.83,0,0,1-1.17.25,11.24,11.24,0,0,1-1.19.17s.52-.12,1.18-.24A9.73,9.73,0,0,1,155,121.08Z" transform="translate(-3.85 -66.15)"/><path class="cls-19" d="M155.43,123.08s-.09-.42-.18-.94-.16-.94-.16-1,.08.42.18.94S155.43,123.08,155.43,123.08Z" transform="translate(-3.85 -66.15)"/><path class="cls-19" d="M155.47,123.2a10.84,10.84,0,0,1-1.19.25c-.66.11-1.2.19-1.21.18a10.72,10.72,0,0,1,1.2-.25A10,10,0,0,1,155.47,123.2Z" transform="translate(-3.85 -66.15)"/><path class="cls-19" d="M156,123.11s-.11-.48-.24-1.09-.23-1.1-.22-1.1.11.48.24,1.09Z" transform="translate(-3.85 -66.15)"/><path class="cls-19" d="M158,120.55a8.84,8.84,0,0,1-1.17.24,10,10,0,0,1-1.19.18,8.84,8.84,0,0,1,1.17-.24A10,10,0,0,1,158,120.55Z" transform="translate(-3.85 -66.15)"/><path class="cls-19" d="M158.42,122.54s-.08-.42-.17-.94-.17-.94-.16-.94.08.42.17.94S158.43,122.54,158.42,122.54Z" transform="translate(-3.85 -66.15)"/><path class="cls-19" d="M158.47,122.66a10.72,10.72,0,0,1-1.2.25,10,10,0,0,1-1.2.18,10.84,10.84,0,0,1,1.19-.25C157.92,122.73,158.46,122.65,158.47,122.66Z" transform="translate(-3.85 -66.15)"/><path class="cls-19" d="M159,122.58s-.11-.49-.24-1.09-.23-1.11-.22-1.11.11.49.23,1.09S159,122.58,159,122.58Z" transform="translate(-3.85 -66.15)"/><path class="cls-19" d="M161,120s-.52.12-1.18.24a9.44,9.44,0,0,1-1.19.18A18,18,0,0,1,161,120Z" transform="translate(-3.85 -66.15)"/><path class="cls-19" d="M161.42,122s-.08-.42-.17-.94-.17-.94-.16-.94.08.42.17.94S161.43,122,161.42,122Z" transform="translate(-3.85 -66.15)"/><path class="cls-19" d="M161.47,122.13a11.38,11.38,0,0,1-1.2.25,10,10,0,0,1-1.2.18,10.22,10.22,0,0,1,1.19-.25A9.73,9.73,0,0,1,161.47,122.13Z" transform="translate(-3.85 -66.15)"/><path class="cls-19" d="M162.2,122s-.11-.49-.24-1.1l-.22-1.1s.11.48.24,1.09Z" transform="translate(-3.85 -66.15)"/><path class="cls-19" d="M164.14,119.45a9.83,9.83,0,0,1-1.17.25,11.24,11.24,0,0,1-1.19.17,11.32,11.32,0,0,1,1.17-.24A10,10,0,0,1,164.14,119.45Z" transform="translate(-3.85 -66.15)"/><path class="cls-19" d="M164.59,121.44s-.09-.42-.18-.93-.16-1-.16-1l.18.94Z" transform="translate(-3.85 -66.15)"/><path class="cls-19" d="M164.63,121.57a9.67,9.67,0,0,1-1.19.24,10,10,0,0,1-1.21.18s.53-.12,1.19-.24A10.32,10.32,0,0,1,164.63,121.57Z" transform="translate(-3.85 -66.15)"/><path class="cls-19" d="M148.87,97.31a.91.91,0,0,1,.08.23c0,.15.09.37.16.62v0h0l-.7.21-.48.14h0v0c-.06-.31-.12-.58-.16-.77a1.62,1.62,0,0,1,0-.3,2.56,2.56,0,0,1,.08.29c0,.19.12.46.19.77l0,0,.48-.14.7-.2,0,0c-.06-.26-.11-.47-.14-.63A1,1,0,0,1,148.87,97.31Z" transform="translate(-3.85 -66.15)"/><path class="cls-19" d="M148.15,96.82a7.27,7.27,0,0,1-.48.55,6.37,6.37,0,0,1-.49.54,3.08,3.08,0,0,1,.44-.58A2.33,2.33,0,0,1,148.15,96.82Z" transform="translate(-3.85 -66.15)"/><path class="cls-19" d="M149.37,97.49a3.19,3.19,0,0,1-.63-.31,4.15,4.15,0,0,1-.59-.36,3.49,3.49,0,0,1,.63.3A3.2,3.2,0,0,1,149.37,97.49Z" transform="translate(-3.85 -66.15)"/><g class="cls-21"><path class="cls-22" d="M174.22,95.78l2.21-.16c2.08-.16,3.9-.36,5.42-.54" transform="translate(-3.85 -66.15)"/><path class="cls-22" d="M173.49,92.72l2.22-.16c2.07-.17,3.9-.36,5.41-.54" transform="translate(-3.85 -66.15)"/></g><g class="cls-21"><path class="cls-23" d="M168.42,106.77l4.6-.37c4.31-.37,8.11-.74,11.28-1.08" transform="translate(-3.85 -66.15)"/><path class="cls-23" d="M167.93,103.66l4.59-.37c4.31-.37,8.11-.74,11.28-1.08" transform="translate(-3.85 -66.15)"/><path class="cls-23" d="M169,110.08l4.59-.37c4.31-.37,8.11-.75,11.29-1.08" transform="translate(-3.85 -66.15)"/></g><path class="cls-24" d="M173.05,112.18a2.51,2.51,0,0,1,.15.6l.37,1.66c.07.35.19.72.27,1.14a4.14,4.14,0,0,1,0,1.37,2.24,2.24,0,0,1-.69,1.34,4,4,0,0,1-1.43.77c-2.1.64-4,1.18-5.38,1.58l-1.64.45a3.17,3.17,0,0,1-.61.14s.21-.08.59-.21l1.62-.51,5.36-1.63a3.62,3.62,0,0,0,1.36-.72,2.09,2.09,0,0,0,.65-1.24,4.09,4.09,0,0,0,0-1.31c-.07-.41-.19-.79-.25-1.14-.15-.71-.25-1.28-.31-1.67A5.46,5.46,0,0,1,173.05,112.18Z" transform="translate(-3.85 -66.15)"/><path class="cls-24" d="M174.09,112.62a3.14,3.14,0,0,1-1.14-.73l-.06-.06.15,0a2.32,2.32,0,0,1-.59,1.13s.23-.51.42-1.18l0-.14.12.09.06.06A12.83,12.83,0,0,1,174.09,112.62Z" transform="translate(-3.85 -66.15)"/><path class="cls-24" d="M146.6,118s1-.16,2.17-.3,2.18-.22,2.18-.2-1,.16-2.17.3S146.6,118,146.6,118Z" transform="translate(-3.85 -66.15)"/><path class="cls-24" d="M146.76,117.05s0,.1,0,.27a1.73,1.73,0,0,1-.29.61v-.05l.07.07a7.88,7.88,0,0,0,.75.74,2.25,2.25,0,0,1-.85-.68l-.07-.08,0,0,0,0A3.71,3.71,0,0,0,146.76,117.05Z" transform="translate(-3.85 -66.15)"/><path class="cls-25" d="M148,132.05c-1.64.08-3.31.14-5,.19-.57,0-1.14.06-1.7.12a19.21,19.21,0,0,0-7.09,2.28" transform="translate(-3.85 -66.15)"/><path class="cls-26" d="M148.6,135.22c-1.64.08-3.3.14-5,.19a16.19,16.19,0,0,0-1.7.12,19.27,19.27,0,0,0-7.09,2.28" transform="translate(-3.85 -66.15)"/><path class="cls-26" d="M149.18,138.5c-1.63.08-3.3.14-5,.19-.57,0-1.14.06-1.7.12a19.26,19.26,0,0,0-7.1,2.28" transform="translate(-3.85 -66.15)"/><g class="cls-27"><path class="cls-28" d="M140.77,109.22l-1.34,0c-.64,0-1.28,0-1.91.12a23.43,23.43,0,0,0-8,2.28" transform="translate(-3.85 -66.15)"/><path class="cls-28" d="M141.39,112.23l-1.36,0c-.64,0-1.28.06-1.91.13a23.64,23.64,0,0,0-8,2.27" transform="translate(-3.85 -66.15)"/><path class="cls-28" d="M142,115.49l-1.36,0c-.64,0-1.27.06-1.91.13a23.52,23.52,0,0,0-8,2.27" transform="translate(-3.85 -66.15)"/><path class="cls-28" d="M142.58,118.66l-1.34,0c-.64,0-1.28.06-1.91.12a23.59,23.59,0,0,0-8,2.28" transform="translate(-3.85 -66.15)"/></g><rect class="cls-29" x="164.96" y="93.27" width="7.19" height="4.43" transform="translate(-16.81 -38.36) rotate(-9.08)"/><rect class="cls-29" x="153.21" y="129.43" width="16.87" height="7.19" transform="matrix(0.99, -0.16, 0.16, 0.99, -22.82, -38.98)"/><path class="cls-30" d="M140.1,105.8l-.82-3.7c0-.2.25.45.05.5s.34-.42,0-.42c-.65,0-3.09.23-3.73.3a52.94,52.94,0,0,0-8.26,2.21.38.38,0,0,0-.28.45l.82,3.69c0,.18.76-.08.77-.08a27.59,27.59,0,0,1,8.63-2.46c.61-.07,2.83-.12,2.82-.33h0A.29.29,0,0,0,140.1,105.8Z" transform="translate(-3.85 -66.15)"/><path class="cls-30" d="M145,124.68l-.82-3.69c-.05-.2.24.44,0,.49s.35-.42,0-.41c-.64,0-3.08.23-3.72.29a52.27,52.27,0,0,0-8.26,2.22.38.38,0,0,0-.29.44l.83,3.7c0,.17.76-.08.77-.09a28.16,28.16,0,0,1,8.62-2.46c.62-.06,2.84-.12,2.83-.32h0A.43.43,0,0,0,145,124.68Z" transform="translate(-3.85 -66.15)"/><path class="cls-25" d="M188.06,126c-2.07.32-4.56.67-7.38,1l-3.71.42" transform="translate(-3.85 -66.15)"/><path class="cls-26" d="M188.5,129.13c-2.07.31-4.56.66-7.38,1-1.24.15-2.56.29-3.93.44" transform="translate(-3.85 -66.15)"/><path class="cls-26" d="M189,132.42c-2.08.32-4.56.67-7.38,1-1.25.15-2.56.3-3.94.44" transform="translate(-3.85 -66.15)"/><path class="cls-31" d="M58,113.15a4.63,4.63,0,1,1,4.6-4.63A4.63,4.63,0,0,1,58,113.15Zm0-8.79a4.16,4.16,0,1,0,4.13,4.16A4.15,4.15,0,0,0,58,104.36Z" transform="translate(-3.85 -66.15)"/><path class="cls-31" d="M58,117.88a9.36,9.36,0,1,1,9.36-9.36A9.37,9.37,0,0,1,58,117.88Zm0-18.25a8.9,8.9,0,1,0,8.89,8.89A8.9,8.9,0,0,0,58,99.63Z" transform="translate(-3.85 -66.15)"/><path class="cls-32" d="M62.66,110.7l-1.4-.65A3.64,3.64,0,0,0,58,104.9a3.58,3.58,0,0,0-1.72.44L55.54,104a5.14,5.14,0,0,1,7.6,4.53A5.25,5.25,0,0,1,62.66,110.7Z" transform="translate(-3.85 -66.15)"/><path class="cls-16" d="M58,118.42v-1.54a8.36,8.36,0,1,0,0-16.71V98.63a9.9,9.9,0,1,1,0,19.79Z" transform="translate(-3.85 -66.15)"/><g id="_3" data-name="3"><rect class="cls-32" x="71.71" y="129.97" width="3.32" height="5.27" transform="translate(-28.8 -48.88) rotate(-11.49)"/><rect class="cls-33" x="67.01" y="127.64" width="3.32" height="8.52" transform="translate(-28.75 -49.83) rotate(-11.49)"/><rect class="cls-33" x="62.7" y="126.35" width="3.17" height="10.68" transform="matrix(0.98, -0.2, 0.2, 0.98, -28.8, -50.71)"/><rect class="cls-32" x="58.85" y="132.57" width="3.46" height="5.27" transform="translate(-29.57 -51.37) rotate(-11.49)"/><rect class="cls-34" x="53.78" y="125.14" width="3.32" height="13.66" transform="translate(-29.03 -52.46) rotate(-11.49)"/></g><path class="cls-4" d="M181.84,187.55h0c0-.48,0-1,0-1.45a22.39,22.39,0,1,0-22.35,22.43c.47,0,.93,0,1.39-.05l-.17.09,1.77,1.48a13.66,13.66,0,0,0,18.94-1.31L183,207A13.68,13.68,0,0,0,181.84,187.55Z" transform="translate(-3.85 -66.15)"/><path class="cls-35" d="M179.38,183.1a22.39,22.39,0,0,1-22.24,22.43H157a22.39,22.39,0,1,1,22.33-23.26C179.37,182.55,179.38,182.83,179.38,183.1Z" transform="translate(-3.85 -66.15)"/><path class="cls-36" d="M179.38,183.1a22.39,22.39,0,0,1-22.24,22.43l-.71-.68-2.32-1.63-.14-2.3-8.48-10.23,19.74-20.36,14.13,11.94C179.37,182.55,179.38,182.83,179.38,183.1Z" transform="translate(-3.85 -66.15)"/><circle class="cls-37" cx="156.39" cy="181.52" r="14.15" transform="translate(-74.6 39.11) rotate(-30.69)"/><path class="cls-38" d="M156.42,200.73h0a2.45,2.45,0,0,1-2.45-2.44v-5.43h4.89v5.43A2.45,2.45,0,0,1,156.42,200.73Z" transform="translate(-3.85 -66.15)"/><circle class="cls-38" cx="156.39" cy="178.43" r="15.09" transform="translate(-36.34 -31.32) rotate(-11.52)"/><circle class="cls-39" cx="156.39" cy="178.43" r="11.61" transform="translate(-35.6 -32.29) rotate(-11.23)"/><path class="cls-40" d="M163.6,177.37a7.52,7.52,0,0,1,.54,2.81A7.76,7.76,0,0,1,156.4,188" transform="translate(-3.85 -66.15)"/><path class="cls-41" d="M151.19,174.45a11,11,0,0,1,5.18-1.23,11.84,11.84,0,0,1,3.84.62" transform="translate(-3.85 -66.15)"/><path class="cls-42" d="M166.62,169.87a13.35,13.35,0,0,1-10.21,21.91" transform="translate(-3.85 -66.15)"/><path class="cls-42" d="M156.36,165.09a13.27,13.27,0,0,1,7.47,2.26" transform="translate(-3.85 -66.15)"/><path class="cls-43" d="M156.37,169.77A11.61,11.61,0,0,1,167.9,179.9a12,12,0,0,0,.09-1.49,11.61,11.61,0,0,0-23.21,0,11.38,11.38,0,0,0,.1,1.45A11.6,11.6,0,0,1,156.37,169.77Z" transform="translate(-3.85 -66.15)"/><polygon class="cls-44" points="226.15 120.42 207.7 108.91 240.14 56.92 265.84 72.96 237.48 118.41 226.15 120.42"/><rect class="cls-45" x="240.57" y="127.65" width="30.29" height="10.5" transform="translate(105.29 -181.38) rotate(31.97)"/><path class="cls-46" d="M247.6,127.06a1.16,1.16,0,1,1-2-1.23,1.15,1.15,0,0,1,1.59-.37A1.17,1.17,0,0,1,247.6,127.06Z" transform="translate(-3.85 -66.15)"/><path class="cls-46" d="M250.75,129a1.16,1.16,0,1,1-.37-1.6A1.16,1.16,0,0,1,250.75,129Z" transform="translate(-3.85 -66.15)"/><path class="cls-46" d="M253.87,131a1.16,1.16,0,0,1-1.6.37,1.16,1.16,0,1,1,1.23-2A1.16,1.16,0,0,1,253.87,131Z" transform="translate(-3.85 -66.15)"/><path class="cls-46" d="M257,133a1.16,1.16,0,1,1-.37-1.6A1.16,1.16,0,0,1,257,133Z" transform="translate(-3.85 -66.15)"/><path class="cls-46" d="M260.19,134.92a1.16,1.16,0,1,1-.37-1.6A1.17,1.17,0,0,1,260.19,134.92Z" transform="translate(-3.85 -66.15)"/><path class="cls-46" d="M263.34,136.89a1.16,1.16,0,1,1-.37-1.6A1.16,1.16,0,0,1,263.34,136.89Z" transform="translate(-3.85 -66.15)"/><path class="cls-46" d="M266.5,138.86a1.16,1.16,0,1,1-.37-1.6A1.17,1.17,0,0,1,266.5,138.86Z" transform="translate(-3.85 -66.15)"/><line class="cls-46" x1="246.96" y1="53.55" x2="242.76" y2="60.29"/><path class="cls-46" d="M246.28,127a.63.63,0,0,1-.21-.87l4.21-6.74a.63.63,0,1,1,1.07.67l-4.2,6.74A.63.63,0,0,1,246.28,127Z" transform="translate(-3.85 -66.15)"/><line class="cls-46" x1="250.12" y1="55.52" x2="245.91" y2="62.26"/><path class="cls-46" d="M249.43,129a.62.62,0,0,1-.2-.87l4.2-6.74a.64.64,0,0,1,1.08.67l-4.21,6.74A.62.62,0,0,1,249.43,129Z" transform="translate(-3.85 -66.15)"/><line class="cls-46" x1="250.12" y1="55.52" x2="245.91" y2="62.26"/><path class="cls-46" d="M249.43,129a.62.62,0,0,1-.2-.87l4.2-6.74a.64.64,0,0,1,1.08.67l-4.21,6.74A.62.62,0,0,1,249.43,129Z" transform="translate(-3.85 -66.15)"/><line class="cls-46" x1="253.28" y1="57.49" x2="249.07" y2="64.23"/><path class="cls-46" d="M252.59,130.92a.62.62,0,0,1-.2-.87l4.2-6.74a.64.64,0,0,1,1.08.67l-4.21,6.74A.62.62,0,0,1,252.59,130.92Z" transform="translate(-3.85 -66.15)"/><line class="cls-46" x1="256.4" y1="59.44" x2="252.19" y2="66.18"/><path class="cls-46" d="M255.71,132.87a.62.62,0,0,1-.2-.87l4.2-6.74a.64.64,0,0,1,1.08.67l-4.21,6.74A.62.62,0,0,1,255.71,132.87Z" transform="translate(-3.85 -66.15)"/><line class="cls-46" x1="256.4" y1="59.44" x2="252.19" y2="66.18"/><path class="cls-46" d="M255.71,132.87a.62.62,0,0,1-.2-.87l4.2-6.74a.64.64,0,0,1,1.08.67l-4.21,6.74A.62.62,0,0,1,255.71,132.87Z" transform="translate(-3.85 -66.15)"/><line class="cls-46" x1="259.55" y1="61.41" x2="255.35" y2="68.15"/><path class="cls-46" d="M258.87,134.84a.62.62,0,0,1-.2-.87l4.2-6.74a.63.63,0,1,1,1.07.67l-4.2,6.74A.63.63,0,0,1,258.87,134.84Z" transform="translate(-3.85 -66.15)"/><line class="cls-46" x1="259.55" y1="61.41" x2="255.35" y2="68.15"/><path class="cls-46" d="M258.87,134.84a.62.62,0,0,1-.2-.87l4.2-6.74a.63.63,0,1,1,1.07.67l-4.2,6.74A.63.63,0,0,1,258.87,134.84Z" transform="translate(-3.85 -66.15)"/><line class="cls-46" x1="262.71" y1="63.38" x2="258.51" y2="70.12"/><path class="cls-46" d="M262,136.81a.64.64,0,0,1-.2-.87L266,129.2a.63.63,0,0,1,1.07.67l-4.2,6.74A.63.63,0,0,1,262,136.81Z" transform="translate(-3.85 -66.15)"/><line class="cls-46" x1="262.71" y1="63.38" x2="258.51" y2="70.12"/><path class="cls-46" d="M262,136.81a.64.64,0,0,1-.2-.87L266,129.2a.63.63,0,0,1,1.07.67l-4.2,6.74A.63.63,0,0,1,262,136.81Z" transform="translate(-3.85 -66.15)"/><line class="cls-46" x1="265.87" y1="65.35" x2="261.66" y2="72.09"/><path class="cls-46" d="M265.18,138.78a.62.62,0,0,1-.2-.87l4.2-6.74a.64.64,0,0,1,1.08.67l-4.21,6.74A.62.62,0,0,1,265.18,138.78Z" transform="translate(-3.85 -66.15)"/><line class="cls-47" x1="236.47" y1="70.36" x2="255.92" y2="82.5"/><line class="cls-47" x1="234.49" y1="73.55" x2="253.93" y2="85.68"/><path class="cls-47" d="M257.78,151.83" transform="translate(-3.85 -66.15)"/><path class="cls-48" d="M238.34,139.7" transform="translate(-3.85 -66.15)"/><line class="cls-47" x1="232.5" y1="76.73" x2="251.94" y2="88.86"/><path class="cls-47" d="M255.8,155" transform="translate(-3.85 -66.15)"/><path class="cls-48" d="M236.35,142.88" transform="translate(-3.85 -66.15)"/><line class="cls-47" x1="230.51" y1="79.91" x2="249.96" y2="92.05"/><line class="cls-47" x1="228.53" y1="83.1" x2="247.97" y2="95.23"/><path class="cls-48" d="M251.82,161.38" transform="translate(-3.85 -66.15)"/><path class="cls-48" d="M232.38,149.25" transform="translate(-3.85 -66.15)"/><line class="cls-47" x1="226.54" y1="86.28" x2="245.98" y2="98.41"/><line class="cls-47" x1="224.55" y1="89.46" x2="244" y2="101.6"/><path class="cls-48" d="M247.85,167.75" transform="translate(-3.85 -66.15)"/><path class="cls-48" d="M228.41,155.61" transform="translate(-3.85 -66.15)"/><line class="cls-47" x1="222.57" y1="92.65" x2="242.01" y2="104.78"/><line class="cls-47" x1="220.58" y1="95.83" x2="240.02" y2="107.96"/><polygon class="cls-49" points="226.19 120.4 226.19 120.4 230.27 113.87 237.52 118.39 226.19 120.4"/><polygon class="cls-2" points="233.7 103.65 195.4 94.85 197.09 88.83 245.73 41.46 248.08 44.23 233.7 103.65"/><polygon class="cls-4" points="246.16 38.72 231.71 103.18 202.93 96.38 195.29 94.57 209.74 30.11 233.91 35.82 246.16 38.72"/><polygon class="cls-7" points="245.73 41.46 232.05 101.36 199.03 93.45 196.84 90.27 243.27 38.3 245.73 41.46"/><polygon class="cls-50" points="230.32 98.01 243.53 39.08 243.68 35.32 224.07 62.1 230.28 94.04 230.32 98.01"/><rect class="cls-44" x="206.67" y="96.74" width="34.49" height="60.41" transform="translate(29.33 -112.05) rotate(12.63)"/><rect class="cls-51" x="212.14" y="97.35" width="34.49" height="10.35" transform="translate(24.13 -113.84) rotate(12.63)"/><path class="cls-52" d="M218.4,99.4a1.23,1.23,0,0,1-1.54.83,1.16,1.16,0,1,1,.5-2.24A1.24,1.24,0,0,1,218.4,99.4Z" transform="translate(-3.85 -66.15)"/><path class="cls-52" d="M222.54,100.33a1.34,1.34,0,1,1-1-1.41A1.25,1.25,0,0,1,222.54,100.33Z" transform="translate(-3.85 -66.15)"/><path class="cls-52" d="M226.63,101.24a1.34,1.34,0,1,1-1-1.4A1.24,1.24,0,0,1,226.63,101.24Z" transform="translate(-3.85 -66.15)"/><path class="cls-52" d="M230.76,102.17a1.34,1.34,0,1,1-1-1.41A1.24,1.24,0,0,1,230.76,102.17Z" transform="translate(-3.85 -66.15)"/><path class="cls-52" d="M234.89,103.1a1.34,1.34,0,1,1-1-1.41A1.25,1.25,0,0,1,234.89,103.1Z" transform="translate(-3.85 -66.15)"/><path class="cls-52" d="M239,104a1.34,1.34,0,1,1-1-1.4A1.24,1.24,0,0,1,239,104Z" transform="translate(-3.85 -66.15)"/><path class="cls-52" d="M243.16,105a1.34,1.34,0,1,1-1-1.41A1.24,1.24,0,0,1,243.16,105Z" transform="translate(-3.85 -66.15)"/><line class="cls-53" x1="214.97" y1="25.32" x2="213.26" y2="32.96"/><line class="cls-53" x1="219.11" y1="26.24" x2="217.39" y2="33.88"/><line class="cls-53" x1="219.11" y1="26.24" x2="217.39" y2="33.88"/><line class="cls-53" x1="223.24" y1="27.17" x2="221.53" y2="34.81"/><line class="cls-53" x1="227.33" y1="28.09" x2="225.62" y2="35.73"/><line class="cls-53" x1="227.33" y1="28.09" x2="225.62" y2="35.73"/><line class="cls-54" x1="231.46" y1="29.01" x2="229.75" y2="36.65"/><line class="cls-53" x1="231.46" y1="29.01" x2="229.75" y2="36.65"/><line class="cls-54" x1="235.6" y1="29.94" x2="233.88" y2="37.58"/><line class="cls-53" x1="235.6" y1="29.94" x2="233.88" y2="37.58"/><line class="cls-53" x1="239.73" y1="30.87" x2="238.02" y2="38.51"/><polygon class="cls-49" points="230.11 98.15 196.47 90.26 196.63 86.5 230.28 94.04 230.11 98.15"/><line class="cls-55" x1="210.18" y1="45.92" x2="234.94" y2="51.47"/><line class="cls-55" x1="209.29" y1="49.75" x2="234.05" y2="55.3"/><line class="cls-55" x1="208.51" y1="53.76" x2="233.26" y2="59.31"/><line class="cls-44" x1="208.32" y1="37.77" x2="240.47" y2="45.11"/><g class="cls-56"><path class="cls-57" d="M220.42,112.18l-1.59.12a1.73,1.73,0,0,0-1.6,1.87l1,12.69h.07a1,1,0,0,0,0,.38,1.25,1.25,0,0,0,.64,1h0l.1,1.29h0l2.12,26a.79.79,0,0,0,.08.31,1,1,0,0,0,0,.29,1.14,1.14,0,0,0,.83.89.76.76,0,0,0,0,.15c0,.4.57.68,1.2.63s1.13-.41,1.09-.81a.28.28,0,0,0,0-.15,1.12,1.12,0,0,0,.69-1,.9.9,0,0,0-.08-.28.85.85,0,0,0,0-.32L222.69,128a1.38,1.38,0,0,0,.63-1.16,1,1,0,0,0-.11-.37h.08l-1-12.69A1.75,1.75,0,0,0,220.42,112.18Z" transform="translate(-3.85 -66.15)"/><path class="cls-57" d="M216,115.58,216.9,127l.33-12.8A1.33,1.33,0,0,0,216,115.58Z" transform="translate(-3.85 -66.15)"/></g><path class="cls-58" d="M220.94,153l-1.79.14a1,1,0,0,1-1.06-.91l-3.21-39.41,3.76-.29,3.2,39.41A1,1,0,0,1,220.94,153Z" transform="translate(-3.85 -66.15)"/><path class="cls-59" d="M216.33,109h1.6a1.74,1.74,0,0,1,1.74,1.74v12.73a0,0,0,0,1,0,0h-5.09a0,0,0,0,1,0,0V110.7A1.74,1.74,0,0,1,216.33,109Z" transform="translate(-12.23 -48.91) rotate(-4.46)"/><path class="cls-60" d="M214.17,110.9h0a1.31,1.31,0,0,0-1.21,1.41l.88,11.39" transform="translate(-3.85 -66.15)"/><path class="cls-61" d="M221.89,152.5c.05.64-.75,1.24-1.79,1.32s-1.91-.38-2-1,.75-1.24,1.79-1.32S221.84,151.85,221.89,152.5Z" transform="translate(-3.85 -66.15)"/><path class="cls-62" d="M215.83,124.93a1.29,1.29,0,0,1-.64-1c-.07-.88,1-1.68,2.41-1.79s2.59.51,2.66,1.39a1.38,1.38,0,0,1-.66,1.18" transform="translate(-3.85 -66.15)"/><path class="cls-58" d="M219.64,125.31l-.07-.87c0-.65-.93-1.11-2-1s-1.84.67-1.79,1.32l.12,1.48" transform="translate(-3.85 -66.15)"/><path class="cls-63" d="M221.25,153.65c0,.4-.46.76-1.1.81s-1.17-.24-1.2-.63.46-.76,1.09-.81S221.21,153.25,221.25,153.65Z" transform="translate(-3.85 -66.15)"/><rect class="cls-16" x="56.76" y="142.94" width="21.65" height="2.28" transform="translate(-31.87 -49.3) rotate(-11.79)"/><rect class="cls-31" x="57.51" y="147.2" width="17.97" height="1.28" transform="translate(-32.66 -49.44) rotate(-11.79)"/><rect class="cls-31" x="58.11" y="150.57" width="9.15" height="1.28" transform="translate(-33.43 -50.15) rotate(-11.79)"/><rect class="cls-31" x="58.54" y="152.14" width="17.97" height="1.28" transform="translate(-33.65 -49.13) rotate(-11.79)"/><rect class="cls-31" x="59.08" y="154.84" width="15.77" height="1.28" transform="translate(-34.22 -49.19) rotate(-11.79)"/><rect class="cls-16" x="85.91" y="135.55" width="21.65" height="2.28" transform="translate(-29.75 -43.5) rotate(-11.79)"/><rect class="cls-31" x="86.65" y="139.81" width="17.97" height="1.28" transform="translate(-30.54 -43.64) rotate(-11.79)"/><rect class="cls-31" x="87.26" y="143.18" width="9.15" height="1.28" transform="translate(-31.31 -44.35) rotate(-11.79)"/><rect class="cls-31" x="87.69" y="144.75" width="17.97" height="1.28" transform="translate(-31.53 -43.33) rotate(-11.79)"/><rect class="cls-31" x="88.22" y="147.45" width="15.77" height="1.28" transform="translate(-32.09 -43.38) rotate(-11.79)"/><path class="cls-64" d="M73.22,98.35l-.15.08s-.06-.12-.18-.09-1.36.22-1.51.26a2.46,2.46,0,0,1-.58,0c-.06,0-.16,0-.17.07s-.14.13-.23.15-.7.2-.56.35.57.09.61.16-.42.08-.55.11-.15.29.12.24.37-.1.34,0-.52.4-.21.45.28-.11.38-.09a3.1,3.1,0,0,0,.37.07c.17,0-.79.51-.48.63s1-.47,1.1-.54,0-.33.39-.51a2.75,2.75,0,0,1,1.25-.18,1.56,1.56,0,0,1,.64.26c.13.12.29.41.37.38a.26.26,0,0,0,.12-.2s.75.25.84.56.06,1.18,1,1.36.57.84,1.17.88.64.32.86.38a6.63,6.63,0,0,0,.74.19c.26,0,.17-.09.36-.11s.32.2.48.2.31-.12.46-.06.11.27.29.33.49.25.59.2.09-.25.2-.22a.62.62,0,0,1,.34.4c0,.17-.18.37-.2.5a.63.63,0,0,0,0,.31c0,.09-.12.25,0,.4s.38.15.57.45.31.46.51.51.47.11.52.24a3.73,3.73,0,0,1,.25,1c0,.12-.17.2-.14.38s.09.22.09.34-.12.22-.08.43.13.43.15.6-.09.21-.1.33a.47.47,0,0,0,.07.25c0,.06,0,.12,0,.19a.69.69,0,0,1,.13.17.76.76,0,0,0,1,.33c.14-.09,0-.19-.1-.24s-.31-.1-.2-.3.29-.28.24-.4-.23,0-.27,0,.36-.39.33-.51-.26-.15-.22-.27.22.1.31,0-.1-.16,0-.27.47-.08.51-.24-.36-.37-.26-.52.21.29.4.14.16-.49.38-.65.05-.44.14-.64a1.09,1.09,0,0,1,.61-.44c.28-.12.4-.85.2-1.13s.41-.26.27-.69-1.24-.74-1.58-.56-.47.15-.53,0,.07-.51-.35-.56-.39.1-.5.09-.28-.15-.42-.2-.13-.28-.37-.19a2.08,2.08,0,0,1-.38.12c-.06,0-.45-.13-.58-.08s-.36.47-.44.52-.18-.07-.32,0-.2.27-.36.17-.15-.48-.3-.64-.45,0-.52,0,0,0,0-.29,0-.3-.2-.32-.22.13-.22.24-.19.23-.3.25-.5-.09-.59-.66.2-.64.64-.67.32-.36.56-.3.56.51.66.49-.24-.45-.21-.61.7-.59.54-.81-.12-.4.08-.53.37,0,.37-.24.16-.35.23-.35.52-.19.62-.22.22-.1-.1-.19-.56,0-.65,0,.26-.49.38-.36.28,0,.34,0,.08-.21.18-.17a.28.28,0,0,1,.15.25c0,.06,0,.18.21.19s.35-.16.27-.26a.93.93,0,0,0-.32-.2s0-.21,0-.26a3.81,3.81,0,0,1-1-.43c-.15-.18-.28-.07-.32,0s-.2.27-.32.1-.2-.21-.32-.22-.88-.1-.67.32.24.42.15.48.07.34-.07.48-.15.11-.36-.09-1.09-.06-1.31-.12-.48-.25-.22-.51.32-.45.55-.48.76,0,.76-.07-.54-.12-.49-.19.4-.07.41-.18-.38-.16-.06-.31.58-.2.55,0,.1.23.18.12.14-.23.2-.13a.24.24,0,0,1-.14.34c-.16,0-.36.11-.3.19s.4-.16.67-.11a1.73,1.73,0,0,0,.73,0c.12-.05-.06-.19-.15-.29s.57.1.57-.16-.65,0-.72-.12a.43.43,0,0,0-.37-.26,7,7,0,0,0-1,0,1.31,1.31,0,0,0-.71.32c-.14.1-.46,0-.52.07s.16.38,0,.42-.4-.22-.46-.14.15.37-.07.45a3.7,3.7,0,0,1-.91.21c-.19,0-.07-.24-.23-.45s-.3-.43-.71-.33a7.52,7.52,0,0,1-.87,0c-.19,0-.56.1-.59.27a.63.63,0,0,1-.12.32c-.07.11,0,.36.28.26s.56-.16.54,0-.44.3-.57.27A2.19,2.19,0,0,0,73.22,98.35Z" transform="translate(-3.85 -66.15)"/><path class="cls-64" d="M80.06,95.6s.55-.25.66-.46a.4.4,0,0,1,.36-.24c.12,0-.06-.23.24-.32s.44,0,.67-.12.1-.32.2-.4.12.15.26.08-.15-.44.85-.68.89-.11.68,0,.21,0,.58-.13.48,0,.58.17.22.32.4.19.28-.37.5-.26-.36.52-.42.7.13.15.18.37a.3.3,0,0,1-.25.38c-.16,0,.1.26,0,.37s-.35-.16-.43-.07.27.16.15.28-.79.26-1,.44-.5.27-.54.42a3.35,3.35,0,0,0-.07.37c0,.13-.09.27-.37.23a1.45,1.45,0,0,1-.89-.46c-.14-.21-.3-.42-.18-.46s.21.15.29.13.13-.37-.16-.31-.37.2-.43,0,0-.24-.17-.27a2.65,2.65,0,0,0-1,0c-.1.09,0,.25-.24.21S79.81,95.94,80.06,95.6Z" transform="translate(-3.85 -66.15)"/><path class="cls-64" d="M109,90.43c-.19-.11-.08-.09-.1-.32a.43.43,0,0,0-.49-.34c-.16.07-.47.25-.6.32s.12-.14-.34,0-.67.2-.8.21.09-.14-.45,0-.64.17-.8.08-.48,0-.69,0-.28,0-.23-.1.2,0,.24-.16-1,0-.93.09.3,0,.38.12.13.32,0,.37-.59.15-.67.21a1.67,1.67,0,0,1-.23.18s-.14,0-.15-.25-.2-.1-.54,0a3.51,3.51,0,0,1-1.31.3c-.09-.07.17-.12.13-.28s-.82.08-1,.11-.38-.13-.6.06a1.07,1.07,0,0,1-.68.21c-.21,0-1,.55-1.3.63s-.26.12-.16.31-.1,0-.39,0-.58.22-.48.35.5.21.42.29-.73.39-.66.21.32-.81,0-.75-.64.11-.67.36-.46.29-1.24.59-.82.13-1,.36-.27.48-.54.54.23-.1.12-.35a2.67,2.67,0,0,0-1.74,0,2.08,2.08,0,0,0-1.45.9c-.08.09-.82.59-.59.87a.33.33,0,0,0,.57,0c.1-.15.09.35.38.28s.39-.11.48-.32-.08-.19-.15-.39.06-.12.22-.24.18-.14.21-.29.14-.32.26-.21-.25.36-.2.54.13.15.42,0,.38-.32.46-.08-.22.27-.39.44a3.78,3.78,0,0,1-.46.51c-.18.15-.89.52-1,.36s-.41-.11-.42,0-.36.43-.64.64-.44.23-.28.43.3.26.18.37-.9,0-.84.33,0,.44.12.51a.76.76,0,0,0,.6,0c.24-.1.36-.16.41-.36s.11-.25.23-.29a.25.25,0,0,0,.16-.22s.25-.13.34-.18,0-.2.21-.15a3.86,3.86,0,0,0,.83.3c.26,0,.16-.12,0-.2s-.52-.18-.49-.29.12-.09.35,0,.61.61.93.67.3-.16.2-.24,0-.32.11-.27.09.11.22.23,1-.16,1.11,0,.1.53-.55.7-.89.08-1.09.28-.3.3-.63.17-.82.15-.63-.18c0,0,.23-.09.1-.24s-.77,0-1,.11-.66.31-.9.44a.57.57,0,0,0-.31.65c0,.38-.44.36-.49.65a.91.91,0,0,0,0,.66.51.51,0,0,1,.12.4.44.44,0,0,0,.09.55c.24.17.22,0,.64.28s.23.35.59.24a3.61,3.61,0,0,0,.85-.38c.21-.13.16-.19.32-.16s.29.17.41.17.25-.09.34,0-.06.38.19.67a6.66,6.66,0,0,1,.6.65c.14.24.13.31.08.45s-.17.28.2.76.27.26.38.59.16.24.33.54.16.38.46.36a1.21,1.21,0,0,0,.73-.23,2.07,2.07,0,0,0,.49-1c0-.26.15-.29.1-.58s.26-.47.36-.64a1.76,1.76,0,0,0-.22-1.06.86.86,0,0,1,.12-.94c.23-.36.54-.55.57-1s0-.57-.42-.34-.44,0-.5-.1a6.11,6.11,0,0,1-.69-.59c-.11-.19-.86-.66-.68-1s.67.51.77.65.24,0,.51.42.44.33.9,0,1-1.1.56-1.19-.29.19-.48.16S95,98,95.11,97.8s.6.24.78.2a.56.56,0,0,1,.49.06c.13.11.57-.07.77-.23s.38-.19.49,0,.38.33.41.27a.61.61,0,0,0,.17.45c.26.32.42.81.78.7s.18-.69.1-.82.41-.86.61-.9a1.33,1.33,0,0,1,1,.44c.28.34.18-.12.29-.13s.07.48.26.59.26-.19.22-.27.29.5.59.39.6-.36.45-.57-.77-.51-.69-.7.25-.41.32-.36-.16.57.11.51a.39.39,0,0,0,.25-.52c-.07-.08.28,0,.49-.23s.59-.61.49-.9a1.55,1.55,0,0,0-.44-.59c-.07,0,.13-.13,0-.25s-.25-.44,0-.46a.55.55,0,0,1,.53.17c.06.12,0,.36.21.37s.31-.24.14-.45a.35.35,0,0,1,.2-.58,1.11,1.11,0,0,0,.73-.54c.08-.22,0-.77.21-.76s.11.67.29.68.13-.61,0-.75-.43-.11-.63,0-.4,0-.32-.14a1.31,1.31,0,0,1,.84-.66c.54-.12.63-.06.91-.12s.28-.32.47-.48.21,0,.33,0-.29.28-.41.5-.11.53.12.59a.7.7,0,0,0,.67-.47c0-.22-.06-.62.07-.68A6.33,6.33,0,0,0,108,91c.52-.17.41-.32.57-.37S109.19,90.53,109,90.43ZM93.86,96.77a2,2,0,0,1-.76.12c-.16,0-.13.2-.49.22s-.21-.36-.17-.5a.41.41,0,0,1,.43-.21,1.9,1.9,0,0,1,.22.11.54.54,0,0,1,.19-.32c.18-.17.23.11.47.22S94,96.68,93.86,96.77ZM95,96s.29.09.39.34.2.42-.08.55-.38-.12-.29-.27-.13-.15-.25-.19-.35-.39-.11-.55.28-.43.54-.24S95.43,95.94,95,96Z" transform="translate(-3.85 -66.15)"/><path class="cls-64" d="M96.23,104a.67.67,0,0,1,0-.56,1.19,1.19,0,0,0,.08-.78c0-.07-.29-.17-.36,0s-.3.28-.32.42,0,.15.08.32a3.22,3.22,0,0,0,.07.42C95.86,103.87,95.75,104.37,96.23,104Z" transform="translate(-3.85 -66.15)"/><path class="cls-64" d="M106.78,100.69s-.56-.09-.55-.32-.42-.36-.49-.25-.18.19-.21.25-.07.32-.12.34-.37-.25-.44-.08-.34.37-.33.5.14.3.09.33-.71.1-.78.28-.25.46,0,.69a1.52,1.52,0,0,1,.46.49c0,.07-.1.27,0,.34a.89.89,0,0,0,.82-.29c.24-.3.13-.28.5-.37s.62-.1.73,0,.23.07.42,0,.15.14.46.26a.72.72,0,0,0,.9-.22c.2-.31.46-.85.22-1.21a2.53,2.53,0,0,0-.79-.74c-.24-.13-.16-.5-.56-.58S106.87,100.72,106.78,100.69Z" transform="translate(-3.85 -66.15)"/><path class="cls-64" d="M106.53,98.84a1.62,1.62,0,0,0-.71,0c-.32.09-.49-.18-.64-.08s0,.34.22.38.26-.15.5,0,.23.34.43.45.3.07.39-.1.2-.31.34-.17.43.15.44.1A2.8,2.8,0,0,0,106.53,98.84Z" transform="translate(-3.85 -66.15)"/><path class="cls-64" d="M103.75,99.07s0-.08-.13-.28-.28-.05-.37.06-.44.22-.49.41.12.52.31.55.52,0,.55-.11A2,2,0,0,0,103.75,99.07Z" transform="translate(-3.85 -66.15)"/><path class="cls-64" d="M102.28,99.78a.81.81,0,0,1-.49-.22c-.19-.2-.58-.34-.66-.27s.48.28.59.44a1,1,0,0,0,.59.48c.26.05.29-.13.24-.24S102.28,99.78,102.28,99.78Z" transform="translate(-3.85 -66.15)"/><path class="cls-64" d="M105.22,93.76s.46-.05.43-.17-.28-.21-.49-.07-.27.2-.21.41a.49.49,0,0,1-.2.63c-.26.12-.84.34-.72.6s.28.17.46-.07.64-.45.7-.62.1-.22,0-.34S105.06,93.78,105.22,93.76Z" transform="translate(-3.85 -66.15)"/><path class="cls-33" d="M110.41,109.86l2.89,14-23.9,5-1.3-.45s.92-10.75,3.82-9.26c1.86,1,2.67,1.07,3.9.92.7-.09,1.57-1.18,2.21-2.49a7.77,7.77,0,0,1,2.86-3.42c1.49-.79,4.85,5.32,6.45,4.63C110,117.56,110.41,109.86,110.41,109.86Z" transform="translate(-3.85 -66.15)"/><path class="cls-34" d="M111.57,115.25l2.31,11.16L84.6,132.47l-1.38-6.65a3.59,3.59,0,0,1,3.34-3.65c2.32-.32,4.85,2,6.25,2.15.84.11,1.94-1.14,2.79-2.34a9.63,9.63,0,0,1,3.63-3.2c1.82-.79,3.88-.2,5.88,0C108.44,119.07,111.57,115.25,111.57,115.25Z" transform="translate(-3.85 -66.15)"/><path class="cls-65" d="M113.3,126.5l-28.7,6s.86-4.57,3.12-3.37c3.61,1.91,6.11.57,5.59-4.4a2.45,2.45,0,0,1,.14-.64c.62-3.13.24-7.23,2.35-8.81,1.53-1.15,7.85,10.41,10.77,6.15C110.8,115.25,113.3,126.5,113.3,126.5Z" transform="translate(-3.85 -66.15)"/></svg>