<?xml version="1.0" encoding="utf-8"?>
<!-- Generator: Adobe Illustrator 25.3.1, SVG Export Plug-In . SVG Version: 6.00 Build 0)  -->
<svg version="1.1" id="Layer_1" xmlns="http://www.w3.org/2000/svg" xmlns:xlink="http://www.w3.org/1999/xlink" x="0px" y="0px"
	 viewBox="0 0 275.4 147.1" style="enable-background:new 0 0 275.4 147.1;" xml:space="preserve">
<style type="text/css">
	.st0{fill:#EBF0F2;}
	.st1{fill:#B8C6D1;}
	.st2{fill:#FFFFFF;}
	.st3{fill:#6FB6C1;}
	.st4{fill:#A9C4C9;}
	.st5{fill:#EDC32B;}
	.st6{fill:#231F20;}
	.st7{opacity:0.4;}
	.st8{fill:#C0E6E2;}
	.st9{fill:#A1C2C4;}
	.st10{fill:#ABB7BB;}
	.st11{fill:#FFFFFF;stroke:#C6C6C6;stroke-width:0.1232;stroke-miterlimit:10;}
	.st12{opacity:0.51;fill:#DCEFFE;}
	.st13{fill:#519DAE;}
	.st14{opacity:0.56;fill:#7BA8C6;}
	.st15{fill:#DCF0F8;}
	.st16{fill:#FFFFFF;stroke:#C6C6C6;stroke-width:9.235272e-02;stroke-miterlimit:10;}
	.st17{fill:#DCEFFE;}
	.st18{fill:#CEDFEA;}
	.st19{fill:#42838E;}
	.st20{fill:#779D98;}
	.st21{fill:#2E4B56;}
	.st22{fill:#E3624C;}
	.st23{opacity:0.5;}
	.st24{fill:none;stroke:#487574;stroke-width:0.2123;stroke-miterlimit:10;}
	.st25{clip-path:url(#SVGID_2_);}
	.st26{fill:none;stroke:#CEDFEA;stroke-width:0.1318;stroke-miterlimit:10;}
	.st27{fill:#6B9B99;}
	.st28{font-family:'Roboto-Medium';}
	.st29{font-size:2.8468px;}
	.st30{opacity:0.7;fill:#6FB6C1;}
	.st31{opacity:0.5;fill:none;stroke:#24727F;stroke-miterlimit:10;}
</style>
<g id="XMLID_14_">
	<path id="XMLID_17_" class="st0" d="M166.2,102.3l-7.4-59.8c-0.3-2.3,1.4-4.4,3.7-4.7l79.4-9.8l0,0l7.4,59.8
		c0.3,2.3-1.4,4.4-3.7,4.7L166.2,102.3L166.2,102.3z"/>
</g>
<g id="XMLID_124_">
	<g>
		<path id="XMLID_18_" class="st1" d="M180.7,46l47-22.5l23.5,47.6c1.4,3.2-0.1,7-3.3,8.5L176.5,114L180.7,46z"/>
	</g>
</g>
<g id="XMLID_1_">
	<g id="XMLID_12_">
		<polygon id="XMLID_13_" class="st0" points="25.7,124.4 37.8,37.7 95.1,46.5 95.1,46.5 82.9,133.2 25.7,124.4 		"/>
	</g>
	<g id="XMLID_8_">
		<g>
			<polygon id="XMLID_16_" class="st1" points="36.9,54.1 127.6,51.1 144.5,129.8 40.2,133.3 			"/>
		</g>
	</g>
</g>
<g>
	<polygon id="XMLID_10_" class="st0" points="104.6,97.6 93.8,16.8 150.9,3.5 150.9,1.5 171.7,79.2 116.6,94.6 	"/>
	<g>
		<g>
			<g>
				<polygon class="st2" points="165.4,65.1 100.2,83.8 82.1,20.2 145.3,4.4 				"/>
				<g>
					<g>
						<g>
							<g>
								<path class="st3" d="M142.9,2.4L82.7,17.7c-0.9,0.2-1.4,1.1-1.1,1.9l0.5,1.6l63.2-16.8l-0.4-1
									C144.6,2.7,143.7,2.2,142.9,2.4z"/>
							</g>
							<g>
								<path class="st4" d="M164.1,66l-62.2,18.3c-1.1,0.3-2.2-0.3-2.5-1.3L81.2,19.7c-0.3-1,0.3-2,1.4-2.3l60.2-15.3
									c1.1-0.3,2.2,0.3,2.5,1.3l20.2,60.3C165.8,64.7,165.2,65.7,164.1,66z M82.8,18c-0.7,0.2-1,0.8-0.9,1.4L100.2,83
									c0.2,0.6,0.9,1,1.5,0.8l62.4-18.4c0.7-0.2,1-0.8,0.9-1.4L145.3,4.4c-0.2-0.6-1.5-1.9-2.1-1.8L82.8,18z"/>
							</g>
						</g>
						<g>
							<g>
								<g>
									<g>
										<path class="st2" d="M84.2,20.2c-0.5,0.1-1-0.2-1.2-0.6c-0.1-0.5,0.2-1,0.7-1.1c0.5-0.1,1,0.2,1.2,0.6
											C85,19.5,84.7,20,84.2,20.2z M83.7,18.6c-0.4,0.1-0.7,0.5-0.6,0.9c0.1,0.4,0.6,0.6,1,0.5c0.4-0.1,0.7-0.5,0.6-0.9
											C84.6,18.7,84.1,18.5,83.7,18.6z"/>
									</g>
								</g>
								<g>
									<g>
										<path class="st2" d="M86.7,19.5c-0.5,0.1-1-0.2-1.2-0.6c-0.1-0.5,0.2-1,0.7-1.1c0.5-0.1,1,0.2,1.2,0.6
											C87.5,18.9,87.2,19.4,86.7,19.5z M86.2,17.9c-0.4,0.1-0.7,0.5-0.6,0.9s0.6,0.6,1,0.5c0.4-0.1,0.7-0.5,0.6-0.9
											C87.1,18.1,86.7,17.8,86.2,17.9z"/>
									</g>
								</g>
							</g>
							<g>
								<g>
									<g>
										<path class="st2" d="M86.7,19.5c-0.5,0.1-1-0.2-1.2-0.6c-0.1-0.5,0.2-1,0.7-1.1c0.5-0.1,1,0.2,1.2,0.6
											S87.2,19.4,86.7,19.5z M86.2,17.9c-0.4,0.1-0.7,0.5-0.6,0.9c0.1,0.4,0.6,0.6,1,0.5c0.4-0.1,0.7-0.5,0.6-0.9
											C87.1,18.1,86.7,17.8,86.2,17.9z"/>
									</g>
								</g>
								<g>
									<g>
										<path class="st2" d="M89.3,18.9c-0.5,0.1-1-0.2-1.2-0.6c-0.1-0.5,0.2-1,0.7-1.1c0.5-0.1,1,0.2,1.2,0.6
											C90.1,18.2,89.8,18.7,89.3,18.9z M88.8,17.3c-0.4,0.1-0.7,0.5-0.6,0.9c0.1,0.4,0.6,0.6,1,0.5c0.4-0.1,0.7-0.5,0.6-0.9
											C89.6,17.4,89.2,17.2,88.8,17.3z"/>
									</g>
								</g>
							</g>
						</g>
					</g>
				</g>
			</g>
			<g>
				<g>
					<g>
						
							<ellipse transform="matrix(5.734084e-02 -0.9984 0.9984 5.734084e-02 60.3309 202.5261)" class="st5" cx="137.4" cy="69.3" rx="1.3" ry="1.4"/>
					</g>
					<g>
						<path class="st6" d="M128.4,73.1c-0.8,0.2-1.6-0.2-1.8-0.9c-0.2-0.7,0.2-1.5,1-1.7c0.8-0.2,1.6,0.2,1.8,0.9
							C129.7,72.1,129.2,72.9,128.4,73.1z M127.7,70.6c-0.7,0.2-1.1,0.9-0.9,1.5c0.2,0.7,0.9,1,1.6,0.9c0.7-0.2,1.1-0.9,0.9-1.5
							C129.1,70.8,128.4,70.4,127.7,70.6z"/>
					</g>
					<g>
						<path class="st6" d="M133.1,71.9c-0.8,0.2-1.6-0.2-1.8-0.9s0.2-1.5,1-1.7c0.8-0.2,1.6,0.2,1.8,0.9
							C134.3,70.9,133.9,71.7,133.1,71.9z M132.4,69.4c-0.7,0.2-1.1,0.9-0.9,1.5s0.9,1,1.6,0.9c0.7-0.2,1.1-0.9,0.9-1.5
							C133.8,69.6,133.1,69.2,132.4,69.4z"/>
					</g>
					<g>
						<path class="st6" d="M137.8,70.6c-0.8,0.2-1.6-0.2-1.8-0.9c-0.2-0.7,0.2-1.5,1-1.7c0.8-0.2,1.6,0.2,1.8,0.9
							C139,69.7,138.6,70.4,137.8,70.6z M137.1,68.1c-0.7,0.2-1.1,0.9-0.9,1.5c0.2,0.7,0.9,1,1.6,0.9c0.7-0.2,1.1-0.9,0.9-1.5
							C138.5,68.3,137.7,68,137.1,68.1z"/>
					</g>
					<g>
						<path class="st6" d="M128.4,73.1c-0.8,0.2-1.6-0.2-1.8-0.9c-0.2-0.7,0.2-1.5,1-1.7c0.8-0.2,1.6,0.2,1.8,0.9
							C129.7,72.1,129.2,72.9,128.4,73.1z M127.7,70.6c-0.7,0.2-1.1,0.9-0.9,1.5c0.2,0.7,0.9,1,1.6,0.9c0.7-0.2,1.1-0.9,0.9-1.5
							C129.1,70.8,128.4,70.4,127.7,70.6z"/>
					</g>
					<g>
						<path class="st6" d="M133.1,71.9c-0.8,0.2-1.6-0.2-1.8-0.9s0.2-1.5,1-1.7c0.8-0.2,1.6,0.2,1.8,0.9
							C134.3,70.9,133.9,71.7,133.1,71.9z M132.4,69.4c-0.7,0.2-1.1,0.9-0.9,1.5s0.9,1,1.6,0.9c0.7-0.2,1.1-0.9,0.9-1.5
							C133.8,69.6,133.1,69.2,132.4,69.4z"/>
					</g>
				</g>
			</g>
		</g>
	</g>
	<g class="st7">
		<g>
			<polygon class="st8" points="117,45.9 103.8,49.6 107.7,62.1 121,58.4 			"/>
		</g>
		<g>
			<path class="st9" d="M121.2,58.5l-13.5,3.7l-4-12.7l13.5-3.7L121.2,58.5z M107.8,61.9l13-3.6l-3.9-12.3l-13,3.6L107.8,61.9z"/>
		</g>
		<g>
			<path class="st9" d="M134.4,54.9l-13.5,3.7l-4-12.7l13.5-3.7L134.4,54.9z M121.1,58.3l13-3.6l-3.9-12.3l-13,3.6L121.1,58.3z"/>
		</g>
		<g>
			<g>
				<polygon class="st10" points="143.6,38.7 130.3,42.3 134.3,54.8 147.5,51.2 				"/>
			</g>
			<g>
				<path class="st9" d="M147.7,51.3L134.2,55l-4-12.7l13.5-3.7L147.7,51.3z M134.4,54.7l13-3.6l-3.9-12.3l-13,3.6L134.4,54.7z"/>
			</g>
		</g>
		<g>
			<path class="st9" d="M117.2,46l-13.5,3.7l-4-12.7l13.5-3.7L117.2,46z M103.8,49.4l13-3.6L113,33.6l-13,3.6L103.8,49.4z"/>
		</g>
		<g>
			<g>
				<polygon class="st10" points="126.3,29.6 113,33.3 117,45.9 130.3,42.3 				"/>
			</g>
		</g>
		<g>
			<path class="st9" d="M143.8,38.8l-13.5,3.7l-4-12.7l13.5-3.7L143.8,38.8z M130.4,42.1l13-3.6l-3.9-12.3l-13,3.6L130.4,42.1z"/>
		</g>
		<g>
			<g>
				
					<ellipse transform="matrix(5.733682e-02 -0.9984 0.9984 5.733682e-02 74.4136 150.926)" class="st2" cx="117.1" cy="36.1" rx="0.6" ry="0.7"/>
				<path class="st6" d="M117.4,36.8c-0.4,0.1-0.9-0.1-1-0.5s0.1-0.8,0.5-0.9c0.4-0.1,0.9,0.1,1,0.5C118,36.2,117.8,36.7,117.4,36.8
					z M117,35.6c-0.3,0.1-0.4,0.3-0.4,0.6c0.1,0.3,0.4,0.4,0.7,0.3s0.4-0.3,0.4-0.6S117.3,35.5,117,35.6z"/>
			</g>
			<g>
				
					<ellipse transform="matrix(5.733682e-02 -0.9984 0.9984 5.733682e-02 72.4463 154.4607)" class="st2" cx="118" cy="38.9" rx="0.6" ry="0.7"/>
				<path class="st6" d="M118.2,39.6c-0.4,0.1-0.9-0.1-1-0.5s0.1-0.8,0.5-0.9c0.4-0.1,0.9,0.1,1,0.5
					C118.9,39.1,118.7,39.5,118.2,39.6z M117.9,38.4c-0.3,0.1-0.4,0.3-0.4,0.6s0.4,0.4,0.7,0.3c0.3-0.1,0.4-0.3,0.4-0.6
					S118.1,38.3,117.9,38.4z"/>
			</g>
			<g>
				
					<ellipse transform="matrix(5.733682e-02 -0.9984 0.9984 5.733682e-02 70.479 157.9953)" class="st2" cx="118.9" cy="41.7" rx="0.6" ry="0.7"/>
				<path class="st6" d="M119.1,42.4c-0.4,0.1-0.9-0.1-1-0.5s0.1-0.8,0.5-0.9c0.4-0.1,0.9,0.1,1,0.5
					C119.8,41.9,119.5,42.3,119.1,42.4z M118.8,41.2c-0.3,0.1-0.4,0.3-0.4,0.6c0.1,0.3,0.4,0.4,0.7,0.3c0.3-0.1,0.4-0.3,0.4-0.6
					S119,41.1,118.8,41.2z"/>
			</g>
		</g>
		<g>
			<line class="st2" x1="119.2" y1="35.5" x2="123.1" y2="34.4"/>
			<polygon class="st6" points="123.2,34.5 119.3,35.6 119.2,35.4 123.1,34.3 			"/>
		</g>
		<g>
			<line class="st2" x1="120.1" y1="38.3" x2="123.2" y2="37.4"/>
			<polygon class="st6" points="123.3,37.6 120.2,38.4 120.1,38.2 123.2,37.3 			"/>
		</g>
		<g>
			<line class="st2" x1="121" y1="41.1" x2="126.7" y2="39.5"/>
			<polygon class="st6" points="126.7,39.7 121,41.2 121,41 126.7,39.4 			"/>
		</g>
	</g>
</g>
<path class="st2" d="M244.4,76.5l-87,40.7c-1.4,0.7-3.1,0.1-3.7-1.3l-24.1-51.4c-0.7-1.4-0.1-3.1,1.3-3.7l87-40.7
	c1.4-0.7,3.1-0.1,3.7,1.3l24.1,51.4C246.4,74.2,245.8,75.9,244.4,76.5z"/>
<g>
	<g>
		
			<rect x="137.5" y="40.4" transform="matrix(0.9056 -0.4242 0.4242 0.9056 -10.4807 85.4567)" class="st11" width="98.3" height="51.8"/>
		<path class="st12" d="M221.8,33l-82.3,38.6c-0.8,0.4-1.8,0-2.2-0.8l-1.3-2.7c-0.4-0.8,0-1.8,0.8-2.2l82.3-38.6
			c0.8-0.4,1.8,0,2.2,0.8l1.3,2.7C223,31.7,222.6,32.7,221.8,33z"/>
		<path class="st12" d="M239.2,66.9l-82.3,38.6c-0.8,0.4-1.8,0-2.2-0.8l-1.3-2.7c-0.4-0.8,0-1.8,0.8-2.2l82.3-38.6
			c0.8-0.4,1.8,0,2.2,0.8l1.3,2.7C240.4,65.6,240,66.5,239.2,66.9z"/>
		<g>
			<path class="st13" d="M220.2,21.9l0.8,1.7l-89,41.7l-0.8-1.7c-0.3-0.7,0-1.6,0.7-1.9l86.3-40.5C219,20.9,219.9,21.2,220.2,21.9z"
				/>
			<g>
				<g>
					<path class="st2" d="M215.1,24.5c0.1,0.3,0,0.6-0.3,0.7c-0.3,0.1-0.6,0-0.7-0.3s0-0.6,0.3-0.7
						C214.6,24.1,214.9,24.2,215.1,24.5z"/>
				</g>
				<g>
					<path class="st2" d="M212,25.9c0.1,0.3,0,0.6-0.3,0.7s-0.6,0-0.7-0.3c-0.1-0.3,0-0.6,0.3-0.7S211.9,25.6,212,25.9z"/>
				</g>
				<g>
					<path class="st2" d="M209,27.3c0.1,0.3,0,0.6-0.3,0.7c-0.3,0.1-0.6,0-0.7-0.3c-0.1-0.3,0-0.6,0.3-0.7S208.8,27.1,209,27.3z"/>
				</g>
			</g>
		</g>
		<circle class="st14" cx="219.1" cy="30.8" r="2.1"/>
		<circle class="st14" cx="213.7" cy="33.5" r="2.1"/>
		<path class="st14" d="M235.4,66.6l-8.3,3.9c-0.7,0.3-1.6,0-1.9-0.7l0-0.1c-0.3-0.7,0-1.6,0.7-1.9l8.3-3.9c0.7-0.3,1.6,0,1.9,0.7
			l0,0.1C236.4,65.4,236.1,66.3,235.4,66.6z"/>
	</g>
	<g>
		<g>
			<g>
				<g>
					<path class="st5" d="M159.5,81.4c0.2-0.1,0.3-0.3,0.2-0.5l-0.9-1.7c-0.1-0.2-0.3-0.3-0.5-0.2c-0.2,0.1-0.3,0.3-0.2,0.5l0.9,1.7
						C159.1,81.4,159.3,81.5,159.5,81.4z"/>
				</g>
			</g>
			<g>
				<g>
					<path class="st5" d="M162.4,82.1c0.2-0.1,0.3-0.3,0.2-0.5l-2.6-5c-0.1-0.2-0.3-0.3-0.5-0.2c-0.2,0.1-0.3,0.3-0.2,0.5l2.6,5
						C162,82.1,162.3,82.2,162.4,82.1z"/>
				</g>
			</g>
			<g>
				<g>
					<path class="st5" d="M165.4,82.9c0.2-0.1,0.3-0.3,0.2-0.5l-4.5-8.7c-0.1-0.2-0.3-0.3-0.5-0.2c-0.2,0.1-0.3,0.3-0.2,0.5l4.5,8.7
						C165,82.9,165.2,83,165.4,82.9z"/>
				</g>
			</g>
			<g>
				<g>
					<path class="st5" d="M168.2,83.4c0.2-0.1,0.3-0.3,0.2-0.5l-6.2-11.9c-0.1-0.2-0.3-0.3-0.5-0.2c-0.2,0.1-0.3,0.3-0.2,0.5
						l6.2,11.9C167.8,83.4,168,83.5,168.2,83.4z"/>
				</g>
			</g>
			<g>
				<g>
					<path class="st5" d="M169.4,80.8c0.2-0.1,0.3-0.3,0.2-0.5l-4.5-8.7c-0.1-0.2-0.3-0.3-0.5-0.2c-0.2,0.1-0.3,0.3-0.2,0.5l4.5,8.7
						C169,80.8,169.2,80.9,169.4,80.8z"/>
				</g>
			</g>
			<g>
				<g>
					<path class="st5" d="M170.4,78c0.2-0.1,0.3-0.3,0.2-0.5l-2.6-5c-0.1-0.2-0.3-0.3-0.5-0.2c-0.2,0.1-0.3,0.3-0.2,0.5l2.6,5
						C170,78,170.3,78.1,170.4,78z"/>
				</g>
			</g>
			<g>
				<g>
					<path class="st5" d="M171.5,75.2c0.2-0.1,0.3-0.3,0.2-0.5l-0.9-1.7c-0.1-0.2-0.3-0.3-0.5-0.2c-0.2,0.1-0.3,0.3-0.2,0.5L171,75
						C171.1,75.2,171.3,75.3,171.5,75.2z"/>
				</g>
			</g>
			<g>
				<g>
					<path class="st5" d="M147.7,87.5c0.2-0.1,0.3-0.3,0.2-0.5l-0.9-1.7c-0.1-0.2-0.3-0.3-0.5-0.2c-0.2,0.1-0.3,0.3-0.2,0.5l0.9,1.7
						C147.3,87.5,147.5,87.6,147.7,87.5z"/>
				</g>
			</g>
			<g>
				<g>
					<path class="st5" d="M150.2,87.5c0.2-0.1,0.3-0.3,0.2-0.5l-1.9-3.6c-0.1-0.2-0.3-0.3-0.5-0.2c-0.2,0.1-0.3,0.3-0.2,0.5l1.9,3.6
						C149.8,87.5,150,87.6,150.2,87.5z"/>
				</g>
			</g>
			<g>
				<g>
					<path class="st5" d="M153.2,88.3c0.2-0.1,0.3-0.3,0.2-0.5l-3.7-7.2c-0.1-0.2-0.3-0.3-0.5-0.2c-0.2,0.1-0.3,0.3-0.2,0.5l3.7,7.2
						C152.8,88.4,153,88.4,153.2,88.3z"/>
				</g>
			</g>
			<g>
				<g>
					<path class="st5" d="M155.9,88.7c0.2-0.1,0.3-0.3,0.2-0.5l-5.3-10.1c-0.1-0.2-0.3-0.3-0.5-0.2c-0.2,0.1-0.3,0.3-0.2,0.5
						l5.3,10.1C155.5,88.8,155.8,88.8,155.9,88.7z"/>
				</g>
			</g>
			<g>
				<g>
					<path class="st5" d="M157.2,86.3c0.2-0.1,0.3-0.3,0.2-0.5l-3.7-7.2c-0.1-0.2-0.3-0.3-0.5-0.2c-0.2,0.1-0.3,0.3-0.2,0.5l3.7,7.2
						C156.8,86.3,157,86.4,157.2,86.3z"/>
				</g>
			</g>
			<g>
				<g>
					<path class="st5" d="M158.2,83.3c0.2-0.1,0.3-0.3,0.2-0.5l-1.9-3.6c-0.1-0.2-0.3-0.3-0.5-0.2c-0.2,0.1-0.3,0.3-0.2,0.5l1.9,3.6
						C157.8,83.4,158,83.4,158.2,83.3z"/>
				</g>
			</g>
		</g>
		<g>
			<g>
				<g>
					<path class="st5" d="M217.1,51.5c-0.2,0.1-0.4,0-0.5-0.2l-0.9-1.7c-0.1-0.2,0-0.4,0.2-0.5s0.4,0,0.5,0.2l0.9,1.7
						C217.4,51.2,217.3,51.4,217.1,51.5z"/>
				</g>
			</g>
			<g>
				<g>
					<path class="st5" d="M216,54.3c-0.2,0.1-0.4,0-0.5-0.2l-2.6-5c-0.1-0.2,0-0.4,0.2-0.5c0.2-0.1,0.4,0,0.5,0.2l2.6,5
						C216.3,54,216.2,54.2,216,54.3z"/>
				</g>
			</g>
			<g>
				<g>
					<path class="st5" d="M215,57.1c-0.2,0.1-0.4,0-0.5-0.2l-4.5-8.7c-0.1-0.2,0-0.4,0.2-0.5c0.2-0.1,0.4,0,0.5,0.2l4.5,8.7
						C215.2,56.8,215.1,57,215,57.1z"/>
				</g>
			</g>
			<g>
				<g>
					<path class="st5" d="M213.8,59.7c-0.2,0.1-0.4,0-0.5-0.2l-6.2-11.9c-0.1-0.2,0-0.4,0.2-0.5c0.2-0.1,0.4,0,0.5,0.2l6.2,11.9
						C214,59.4,213.9,59.6,213.8,59.7z"/>
				</g>
			</g>
			<g>
				<g>
					<path class="st5" d="M211,59.2c-0.2,0.1-0.4,0-0.5-0.2l-4.5-8.7c-0.1-0.2,0-0.4,0.2-0.5c0.2-0.1,0.4,0,0.5,0.2l4.5,8.7
						C211.2,58.9,211.1,59.1,211,59.2z"/>
				</g>
			</g>
			<g>
				<g>
					<path class="st5" d="M208,58.5c-0.2,0.1-0.4,0-0.5-0.2l-2.6-5c-0.1-0.2,0-0.4,0.2-0.5c0.2-0.1,0.4,0,0.5,0.2l2.6,5
						C208.3,58.1,208.2,58.4,208,58.5z"/>
				</g>
			</g>
			<g>
				<g>
					<path class="st5" d="M205.1,57.7c-0.2,0.1-0.4,0-0.5-0.2l-0.9-1.7c-0.1-0.2,0-0.4,0.2-0.5c0.2-0.1,0.4,0,0.5,0.2l0.9,1.7
						C205.4,57.4,205.3,57.6,205.1,57.7z"/>
				</g>
			</g>
			<g>
				<g>
					<path class="st5" d="M228.9,45.4c-0.2,0.1-0.4,0-0.5-0.2l-0.9-1.7c-0.1-0.2,0-0.4,0.2-0.5c0.2-0.1,0.4,0,0.5,0.2l0.9,1.7
						C229.2,45,229.1,45.3,228.9,45.4z"/>
				</g>
			</g>
			<g>
				<g>
					<path class="st5" d="M227.5,47.4c-0.2,0.1-0.4,0-0.5-0.2l-1.9-3.6c-0.1-0.2,0-0.4,0.2-0.5c0.2-0.1,0.4,0,0.5,0.2l1.9,3.6
						C227.7,47.1,227.6,47.3,227.5,47.4z"/>
				</g>
			</g>
			<g>
				<g>
					<path class="st5" d="M226.4,50.3c-0.2,0.1-0.4,0-0.5-0.2l-3.7-7.2c-0.1-0.2,0-0.4,0.2-0.5c0.2-0.1,0.4,0,0.5,0.2l3.7,7.2
						C226.7,50,226.6,50.2,226.4,50.3z"/>
				</g>
			</g>
			<g>
				<g>
					<path class="st5" d="M225.2,52.8c-0.2,0.1-0.4,0-0.5-0.2l-5.3-10.1c-0.1-0.2,0-0.4,0.2-0.5c0.2-0.1,0.4,0,0.5,0.2l5.3,10.1
						C225.4,52.5,225.4,52.7,225.2,52.8z"/>
				</g>
			</g>
			<g>
				<g>
					<path class="st5" d="M222.4,52.4c-0.2,0.1-0.4,0-0.5-0.2l-3.7-7.2c-0.1-0.2,0-0.4,0.2-0.5c0.2-0.1,0.4,0,0.5,0.2l3.7,7.2
						C222.7,52.1,222.6,52.3,222.4,52.4z"/>
				</g>
			</g>
			<g>
				<g>
					<path class="st5" d="M219.5,51.5c-0.2,0.1-0.4,0-0.5-0.2l-1.9-3.6c-0.1-0.2,0-0.4,0.2-0.5c0.2-0.1,0.4,0,0.5,0.2l1.9,3.6
						C219.7,51.2,219.6,51.4,219.5,51.5z"/>
				</g>
			</g>
		</g>
		<g>
			
				<ellipse transform="matrix(0.9709 -0.2393 0.2393 0.9709 -10.2996 46.61)" class="st15" cx="186.8" cy="65.7" rx="12.4" ry="12.4"/>
		</g>
		<g>
			<path class="st13" d="M192.6,76.9c-6.1,3.2-13.7,0.8-16.9-5.4c-3.2-6.1-0.8-13.7,5.4-16.9c6.1-3.2,13.7-0.8,16.9,5.4
				C201.1,66.1,198.7,73.7,192.6,76.9z M181.2,54.9c-6,3.1-8.3,10.5-5.2,16.4s10.5,8.3,16.4,5.2c6-3.1,8.3-10.5,5.2-16.4
				S187.1,51.8,181.2,54.9z"/>
		</g>
		<g>
			<g>
				<g>
					<path class="st2" d="M187.6,59.8c0,0-0.1-0.1-0.1-0.1s-0.1-0.1-0.1-0.1c-0.1-0.1-0.1-0.1-0.2-0.2c-0.1-0.1-0.3-0.2-0.4-0.3
						c0,0-0.1,0-0.1-0.1c-0.2-0.1-0.4-0.2-0.6-0.3c-0.1,0-0.3-0.1-0.4-0.1c0,0-0.1,0-0.1,0c-0.1,0-0.3,0-0.4,0c0,0-0.1,0-0.1,0
						c-0.1,0-0.2,0-0.3,0c-0.1,0-0.1,0-0.2,0c0,0-0.1,0-0.1,0c-0.3,0.1-0.6,0.2-0.9,0.3c-1.7,0.9-2.4,3-1.5,4.7l2,3.8
						c0.9,1.7,3,2.4,4.7,1.5s2.4-3,1.5-4.7l-2-3.8C187.9,60.2,187.7,60,187.6,59.8z M186,65.5l-1.8,0.9l-0.2-0.4l1.8-0.9L186,65.5z
						 M185.4,64.4l-1.8,0.9l-0.2-0.4l1.8-0.9L185.4,64.4z M184.8,63.3l-1.8,0.9l-0.2-0.4l1.8-0.9L184.8,63.3z M189,63.9l-1.8,0.9
						l-0.2-0.4l1.8-0.9L189,63.9z M188.4,62.9l-1.8,0.9l-0.2-0.4l1.8-0.9L188.4,62.9z M187.9,61.8l-1.8,0.9l-0.2-0.4l1.8-0.9
						L187.9,61.8z"/>
				</g>
				<g>
					<path class="st3" d="M187.6,59.8c0,0-0.1-0.1-0.1-0.1s-0.1-0.1-0.1-0.1c-0.1-0.1-0.1-0.1-0.2-0.2c-0.1-0.1-0.3-0.2-0.4-0.3
						c0,0-0.1,0-0.1-0.1c-0.2-0.1-0.4-0.2-0.6-0.3c-0.1,0-0.3-0.1-0.4-0.1c0,0-0.1,0-0.1,0c-0.1,0-0.3,0-0.4,0c0,0-0.1,0-0.1,0
						c-0.1,0-0.2,0-0.3,0c-0.1,0-0.1,0-0.2,0c0,0-0.1,0-0.1,0c-0.3,0.1-0.6,0.2-0.9,0.3c-1.7,0.9-2.4,3-1.5,4.7l2,3.8
						c0.9,1.7,3,2.4,4.7,1.5s2.4-3,1.5-4.7l-2-3.8C187.9,60.2,187.7,60,187.6,59.8z M186,65.5l-1.8,0.9l-0.2-0.4l1.8-0.9L186,65.5z
						 M185.4,64.4l-1.8,0.9l-0.2-0.4l1.8-0.9L185.4,64.4z M184.8,63.3l-1.8,0.9l-0.2-0.4l1.8-0.9L184.8,63.3z M189,63.9l-1.8,0.9
						l-0.2-0.4l1.8-0.9L189,63.9z M188.4,62.9l-1.8,0.9l-0.2-0.4l1.8-0.9L188.4,62.9z M187.9,61.8l-1.8,0.9l-0.2-0.4l1.8-0.9
						L187.9,61.8z"/>
				</g>
				<g>
					<path class="st13" d="M181.9,63.6l2,3.8c0.9,1.7,3,2.4,4.7,1.5l-5.2-9.9C181.7,59.8,181,61.9,181.9,63.6z M186,65.5l-1.8,0.9
						l-0.2-0.4l1.8-0.9L186,65.5z M185.4,64.4l-1.8,0.9l-0.2-0.4l1.8-0.9L185.4,64.4z M184.8,63.3l-1.8,0.9l-0.2-0.4l1.8-0.9
						L184.8,63.3z"/>
				</g>
			</g>
			<g>
				<g>
					<path class="st3" d="M189,69.9c-2.3,1.2-5.2,0.1-6.5-2.3c-0.1-0.2,0-0.4,0.2-0.5c0.2-0.1,0.4,0,0.5,0.2c1.1,2.1,3.5,3,5.4,2
						c1.9-1,2.6-3.5,1.5-5.6c-0.1-0.2,0-0.4,0.2-0.5c0.2-0.1,0.4,0,0.5,0.2C192.1,65.8,191.3,68.7,189,69.9z"/>
				</g>
			</g>
			<g>
				<path class="st3" d="M190.2,72.2c-0.2,0.1-0.4,0-0.5-0.2l-1.2-2.3c-0.1-0.2,0-0.4,0.2-0.5c0.2-0.1,0.4,0,0.5,0.2l1.2,2.3
					C190.5,71.9,190.4,72.1,190.2,72.2z"/>
			</g>
			<g>
				<path class="st3" d="M187.3,74L187.3,74c-0.3-0.6-0.1-1.3,0.5-1.6l4-2.1c0.6-0.3,1.3-0.1,1.6,0.5l0,0"/>
			</g>
		</g>
	</g>
</g>
<g>
	<g>
		
			<rect x="47.2" y="57.7" transform="matrix(0.9802 0.1978 -0.1978 0.9802 20.5188 -17.7046)" class="st16" width="103.3" height="72.3"/>
		<g>
			<g>
				<circle class="st17" cx="109.5" cy="129.7" r="0.7"/>
			</g>
			<g>
				<circle class="st17" cx="105" cy="128.8" r="0.7"/>
			</g>
			<g>
				<circle class="st17" cx="100.5" cy="127.9" r="0.7"/>
			</g>
			<g>
				<circle class="st17" cx="96" cy="127" r="0.7"/>
			</g>
			<g>
				<circle class="st17" cx="91.5" cy="126.1" r="0.7"/>
			</g>
			<g>
				<circle class="st17" cx="87" cy="125.2" r="0.7"/>
			</g>
			<g>
				<circle class="st17" cx="82.5" cy="124.3" r="0.7"/>
			</g>
			<g>
				<circle class="st17" cx="78" cy="123.4" r="0.7"/>
			</g>
			<g>
				<circle class="st17" cx="73.5" cy="122.5" r="0.7"/>
			</g>
		</g>
		<g>
			<path class="st13" d="M156.7,68.5l-0.4,2L55,50.1l0.4-1.9c0.2-0.8,1-1.4,1.8-1.2l98.2,19.8C156.3,66.9,156.8,67.7,156.7,68.5z"/>
			<g>
				<g>
					<path class="st2" d="M150.7,67.5c-0.1,0.3-0.4,0.5-0.7,0.5c-0.3-0.1-0.5-0.4-0.5-0.7c0.1-0.3,0.4-0.5,0.7-0.5
						S150.8,67.2,150.7,67.5z"/>
				</g>
				<g>
					<path class="st2" d="M147.2,66.8c-0.1,0.3-0.4,0.5-0.7,0.5s-0.5-0.4-0.5-0.7s0.4-0.5,0.7-0.5C147.1,66.2,147.3,66.5,147.2,66.8
						z"/>
				</g>
				<g>
					<path class="st2" d="M143.8,66.1c-0.1,0.3-0.4,0.5-0.7,0.5s-0.5-0.4-0.5-0.7c0.1-0.3,0.4-0.5,0.7-0.5S143.8,65.8,143.8,66.1z"
						/>
				</g>
			</g>
		</g>
	</g>
	<g>
		<g>
			<path class="st17" d="M141.5,115l-38.2-7.7c-0.4-0.1-0.7-0.4-0.6-0.7l0,0c0.1-0.3,0.4-0.5,0.9-0.4l38.2,7.7
				c0.4,0.1,0.7,0.4,0.6,0.7l0,0C142.3,114.9,141.9,115.1,141.5,115z"/>
		</g>
		<g>
			<path class="st17" d="M142.1,111.9l-38.2-7.7c-0.4-0.1-0.7-0.4-0.6-0.7l0,0c0.1-0.3,0.4-0.5,0.9-0.4l38.2,7.7
				c0.4,0.1,0.7,0.4,0.6,0.7l0,0C142.9,111.8,142.5,112,142.1,111.9z"/>
		</g>
		<g>
			<path class="st17" d="M142.8,108.8l-38.2-7.7c-0.4-0.1-0.7-0.4-0.6-0.7l0,0c0.1-0.3,0.4-0.5,0.9-0.4l38.2,7.7
				c0.4,0.1,0.7,0.4,0.6,0.7l0,0C143.6,108.7,143.2,108.9,142.8,108.8z"/>
		</g>
		<g>
			<path class="st17" d="M143.4,105.7L105.2,98c-0.4-0.1-0.7-0.4-0.6-0.7l0,0c0.1-0.3,0.4-0.5,0.9-0.4l38.2,7.7
				c0.4,0.1,0.7,0.4,0.6,0.7l0,0C144.2,105.6,143.8,105.8,143.4,105.7z"/>
		</g>
		<g>
			<path class="st17" d="M144,102.6l-38.2-7.7c-0.4-0.1-0.7-0.4-0.6-0.7l0,0c0.1-0.3,0.4-0.5,0.9-0.4l38.2,7.7
				c0.4,0.1,0.7,0.4,0.6,0.7l0,0C144.8,102.5,144.4,102.7,144,102.6z"/>
		</g>
	</g>
	<g>
		<g>
			<path class="st13" d="M102.7,62.6l-3.4,5.5l-16.4,0.7l0,0.4l16.6-0.7l3.5-5.8C102.9,62.8,102.8,62.7,102.7,62.6z"/>
		</g>
		<g>
			<path class="st13" d="M71.3,82.6l-7.8-6.9l2.1-10.3l9.9-3.3l7.8,6.9l-2.1,10.3L71.3,82.6z M63.9,75.5l7.5,6.6l9.5-3.2l2-9.8
				l-7.5-6.6l-9.5,3.2L63.9,75.5z"/>
		</g>
		<g>
			
				<rect x="51.3" y="78.8" transform="matrix(0.8523 -0.523 0.523 0.8523 -32.7776 41.9998)" class="st13" width="13.3" height="0.4"/>
		</g>
		<g>
			
				<rect x="61.1" y="52.9" transform="matrix(0.7878 -0.616 0.616 0.7878 -23.9233 50.4891)" class="st13" width="0.4" height="14.2"/>
		</g>
		<path class="st18" d="M56,68.2l3.9,0.8l0.1-0.6l-3.9-0.8C56.1,67.8,56,68,56,68.2z"/>
		<path class="st18" d="M55.7,68.2L54,67.8l0.1-0.6l1.7,0.3C55.8,67.8,55.7,68,55.7,68.2z"/>
		<path class="st18" d="M56.4,69.8l-4-0.8l0.1-0.6l3.9,0.8c0,0.1,0,0.2,0,0.3C56.5,69.7,56.5,69.8,56.4,69.8z"/>
		<path class="st18" d="M56.9,69.3l2.8,0.6l-0.1,0.6l-2.7-0.6c0-0.1,0-0.2,0-0.3C56.9,69.5,56.9,69.4,56.9,69.3z"/>
		<path class="st18" d="M54,70.2l5.4,1.1l-0.1,0.6l-5.4-1.1c0-0.1,0-0.2,0.1-0.3C54,70.4,54,70.3,54,70.2z"/>
		<path class="st18" d="M57.7,72.5l1.4,0.3L59,73.4l-1.3-0.3c0-0.1,0-0.2,0-0.3C57.7,72.7,57.7,72.6,57.7,72.5z"/>
		<path class="st18" d="M57.3,73l-4.2-0.9l0.1-0.6l4.1,0.8c0,0.1,0,0.3,0,0.4C57.3,72.9,57.3,73,57.3,73z"/>
		<polygon class="st18" points="54.1,73.9 54.2,73.3 58.8,74.2 58.7,74.8 55.8,74.2 		"/>
		<polygon class="st18" points="51.6,73.4 51.7,72.8 53.8,73.2 53.8,73.8 		"/>
		<g>
			<path class="st18" d="M68.5,54.7l3.9,0.8l0.1-0.6l-3.9-0.8C68.6,54.3,68.5,54.5,68.5,54.7z"/>
			<path class="st18" d="M68.2,54.7l-1.7-0.3l0.1-0.6l1.7,0.3C68.3,54.3,68.2,54.5,68.2,54.7z"/>
			<path class="st18" d="M68.9,56.3l-4-0.8l0.1-0.6l3.9,0.8c0,0.1,0,0.2,0,0.3C69,56.2,69,56.3,68.9,56.3z"/>
			<path class="st18" d="M69.4,55.8l2.8,0.6L72.1,57l-2.7-0.6c0-0.1,0-0.2,0-0.3C69.4,56,69.4,55.9,69.4,55.8z"/>
			<path class="st18" d="M66.5,56.7l5.4,1.1l-0.1,0.6l-5.4-1.1c0-0.1,0-0.2,0.1-0.3C66.5,56.9,66.5,56.8,66.5,56.7z"/>
			<path class="st18" d="M70.2,59l1.4,0.3l-0.1,0.6l-1.3-0.3c0-0.1,0-0.2,0-0.3C70.2,59.2,70.2,59.1,70.2,59z"/>
			<path class="st18" d="M69.8,59.5l-4.2-0.9l0.1-0.6l4.1,0.8c0,0.1,0,0.3,0,0.4C69.8,59.4,69.8,59.5,69.8,59.5z"/>
			<polygon class="st18" points="66.6,60.4 66.7,59.8 71.3,60.7 71.2,61.3 68.2,60.7 			"/>
			<polygon class="st18" points="64.1,59.9 64.2,59.3 66.3,59.7 66.3,60.3 			"/>
		</g>
		<g>
			<path class="st18" d="M91.5,65.4l6,1.2l0.1-0.6l-6-1.2C91.6,65,91.5,65.2,91.5,65.4z"/>
			<path class="st18" d="M91,65.3l-2.6-0.5l0.1-0.6l2.6,0.5C91.1,64.9,91,65.1,91,65.3z"/>
			<path class="st18" d="M93,63.9c0,0.1-0.1,0.2-0.1,0.3L86.8,63l0.1-0.6l6.2,1.2C93,63.7,93,63.8,93,63.9z"/>
			<path class="st18" d="M93.6,64c0-0.1,0.1-0.2,0.1-0.3l4.2,0.9l-0.1,0.6l-4.3-0.9C93.5,64.2,93.5,64.1,93.6,64z"/>
			<path class="st18" d="M89.8,61.8c0-0.1,0.1-0.2,0.1-0.3l8.3,1.7l-0.1,0.6l-8.3-1.7C89.8,62,89.8,61.9,89.8,61.8z"/>
			<path class="st18" d="M96.4,61.6c0.1-0.1,0.1-0.2,0.2-0.3l2,0.4l-0.1,0.6l-2.1-0.4C96.3,61.7,96.3,61.7,96.4,61.6z"/>
			<path class="st18" d="M95.8,61.4c-0.1,0.1-0.1,0.2-0.2,0.4l-6.4-1.3l0.1-0.6l6.5,1.3C95.9,61.2,95.8,61.3,95.8,61.4z"/>
			<polygon class="st18" points="94.2,59.3 98.8,60.2 98.6,60.8 91.5,59.4 91.7,58.8 			"/>
			<polygon class="st18" points="91.1,58.7 90.9,59.3 87.6,58.6 87.8,58 			"/>
		</g>
		<g>
			<path class="st13" d="M74.1,78.2l-3.7-0.7c-1.1-0.2-1.9-1.3-1.6-2.4l1-4.9l7.8,1.6l-1,4.9C76.3,77.7,75.2,78.4,74.1,78.2z"/>
			
				<rect x="69.5" y="70.9" transform="matrix(0.9802 0.1978 -0.1978 0.9802 15.6573 -13.1106)" class="st19" width="7.9" height="1.8"/>
			<g>
				<path class="st19" d="M76.6,72.4c-0.2,0-0.3-0.2-0.3-0.4l0.3-1.7c0.3-1.5-0.7-3.1-2.2-3.4c-1.5-0.3-3.1,0.7-3.4,2.2l-0.3,1.7
					c0,0.2-0.2,0.3-0.4,0.3c-0.2,0-0.3-0.2-0.3-0.4l0.3-1.7c0.4-1.9,2.3-3.2,4.2-2.8c1.9,0.4,3.2,2.3,2.8,4.2L77,72.1
					C77,72.3,76.8,72.4,76.6,72.4z"/>
			</g>
			<g>
				<path class="st13" d="M76.9,72.8c-0.2,0-0.4-0.3-0.3-0.5l0.4-1.9c0.3-1.7-0.8-3.4-2.5-3.7c-1.7-0.3-3.4,0.8-3.7,2.5l-0.4,1.9
					c0,0.2-0.3,0.4-0.5,0.3c-0.2,0-0.4-0.3-0.3-0.5L70,69c0.4-2.1,2.5-3.5,4.7-3.1c2.1,0.4,3.5,2.5,3.1,4.7l-0.4,1.9
					C77.3,72.7,77.1,72.8,76.9,72.8z"/>
			</g>
			<circle class="st2" cx="73.1" cy="73.7" r="0.7"/>
			<path class="st2" d="M72.8,75.7l-0.2,0c-0.1,0-0.1-0.1-0.1-0.2l0.3-1.6l0.5,0.1L73,75.5C72.9,75.6,72.9,75.7,72.8,75.7z"/>
		</g>
	</g>
	<g>
		<g>
			<g>
				<path class="st20" d="M108.5,113.6c-2.7-0.7-5.4,1-6.1,3.7s1,5.4,3.7,6.1c2.7,0.7,5.4-1,6.1-3.7S111.1,114.3,108.5,113.6z
					 M106.5,121.6c-1.7-0.4-2.7-2.1-2.3-3.8c0.4-1.7,2.1-2.7,3.8-2.3c1.7,0.4,2.7,2.1,2.3,3.8C109.9,120.9,108.2,122,106.5,121.6z"
					/>
			</g>
		</g>
		<g>
			<path class="st21" d="M108.5,113.6l-0.4,1.9c1.7,0.4,2.7,2.1,2.3,3.8c-0.2,0.9-0.8,1.6-1.5,2l1,1.6c1.1-0.7,2-1.8,2.4-3.2
				C112.8,117,111.1,114.3,108.5,113.6z"/>
		</g>
	</g>
	<g>
		<g>
			<g>
				<path class="st20" d="M134.5,128.8c2.3,1.5,5.4,0.8,6.9-1.5c1.5-2.3,0.8-5.4-1.5-6.9c-2.3-1.5-5.4-0.8-6.9,1.5
					S132.1,127.3,134.5,128.8z M138.8,121.9c1.5,0.9,1.9,2.8,1,4.3c-0.9,1.5-2.8,1.9-4.3,1c-1.5-0.9-1.9-2.8-1-4.3
					C135.5,121.4,137.4,121,138.8,121.9z"/>
			</g>
		</g>
		<g>
			<path class="st21" d="M134.5,128.8l1-1.6c-1.5-0.9-1.9-2.8-1-4.3c0.5-0.8,1.2-1.2,2.1-1.4l-0.4-1.9c-1.3,0.3-2.5,1-3.3,2.2
				C131.4,124.2,132.1,127.3,134.5,128.8z"/>
		</g>
	</g>
	<g>
		<g>
			<g>
				<path class="st22" d="M125.7,125.4c2.1-1.3,2.7-4,1.5-6c-1.3-2.1-4-2.7-6-1.5c-2.1,1.3-2.7,4-1.5,6
					C121,126,123.7,126.7,125.7,125.4z M122,119.4c1.3-0.8,3-0.4,3.7,0.9c0.8,1.3,0.4,3-0.9,3.7c-1.3,0.8-3,0.4-3.7-0.9
					C120.3,121.8,120.7,120.1,122,119.4z"/>
			</g>
		</g>
		<g>
			<path class="st21" d="M125.7,125.4l-0.9-1.4c-1.3,0.8-3,0.4-3.7-0.9c-0.4-0.7-0.5-1.5-0.3-2.2l-1.6-0.4c-0.3,1.1-0.2,2.4,0.5,3.4
				C121,126,123.7,126.7,125.7,125.4z"/>
		</g>
	</g>
	<g>
		<path class="st6" d="M129,123l-0.3-0.1c0.7-2.9-1.1-5.9-4-6.6c-2.9-0.7-5.9,1.1-6.6,4l-0.3-0.1c0.7-3.1,3.9-5,6.9-4.2
			C127.9,116.8,129.8,119.9,129,123z"/>
	</g>
	<g>
		<path class="st6" d="M113.6,120.1l-0.2-0.1c0.8-3.4-1.3-6.8-4.6-7.6l0.1-0.2C112.3,113,114.5,116.6,113.6,120.1z"/>
	</g>
	<g>
		<path class="st6" d="M141.1,119.2l-0.2,0.2c-2.7-2.2-6.7-1.7-8.8,1l-0.2-0.2C134.2,117.4,138.3,117,141.1,119.2z"/>
	</g>
	<g>
		<g>
			<path class="st20" d="M59.7,95.9c-5.4-1.1-10.6,2.4-11.7,7.7c-1.1,5.4,2.4,10.6,7.7,11.7c5.4,1.1,10.6-2.4,11.7-7.7
				C68.5,102.2,65,96.9,59.7,95.9z M56.9,109.5c-2.2-0.4-3.6-2.6-3.1-4.7c0.4-2.2,2.6-3.6,4.7-3.1c2.2,0.4,3.6,2.6,3.1,4.7
				C61.2,108.5,59.1,109.9,56.9,109.5z"/>
		</g>
	</g>
	<g>
		<path class="st6" d="M57.1,108.7c-1.7-0.3-2.8-2-2.5-3.8c0.3-1.7,2-2.8,3.8-2.5c1.7,0.3,2.8,2,2.5,3.8S58.8,109,57.1,108.7z
			 M58.3,102.7c-1.6-0.3-3.1,0.7-3.4,2.3c-0.3,1.6,0.7,3.1,2.3,3.4c1.6,0.3,3.1-0.7,3.4-2.3C60.9,104.6,59.9,103,58.3,102.7z"/>
	</g>
	<g>
		<polygon class="st6" points="57.8,105.7 57.7,105.5 68.5,98.3 76.9,100 76.8,100.2 68.5,98.6 		"/>
	</g>
	<g>
		<path class="st6" d="M71.9,98.1c-0.5-0.1-0.8-0.5-0.7-1c0.1-0.5,0.5-0.8,1-0.7c0.5,0.1,0.8,0.5,0.7,1S72.3,98.2,71.9,98.1z
			 M72.1,96.8c-0.3-0.1-0.6,0.1-0.7,0.4c-0.1,0.3,0.1,0.6,0.4,0.7s0.6-0.1,0.7-0.4C72.6,97.1,72.4,96.8,72.1,96.8z"/>
	</g>
	<g>
		<circle class="st6" cx="74.6" cy="97.8" r="0.7"/>
	</g>
	<g>
		<g>
			<circle class="st5" cx="89.6" cy="115.4" r="4.1"/>
		</g>
		<g>
			<polygon class="st6" points="89.5,115.4 85.4,109.1 70.3,106.1 70.3,105.9 85.5,108.9 85.5,109 89.7,115.3 			"/>
		</g>
		<g>
			<path class="st6" d="M72.6,105.2c-0.4-0.1-0.6-0.4-0.5-0.8s0.4-0.6,0.8-0.5c0.4,0.1,0.6,0.4,0.5,0.8
				C73.3,105,72.9,105.3,72.6,105.2z M72.8,104.1c-0.2-0.1-0.5,0.1-0.5,0.4s0.1,0.5,0.4,0.5c0.2,0.1,0.5-0.1,0.5-0.4
				C73.2,104.4,73,104.1,72.8,104.1z"/>
		</g>
		<g>
			<path class="st6" d="M74.7,105.6c-0.4-0.1-0.6-0.4-0.5-0.8s0.4-0.6,0.8-0.5c0.4,0.1,0.6,0.4,0.5,0.8
				C75.4,105.5,75,105.7,74.7,105.6z M74.9,104.5c-0.2-0.1-0.5,0.1-0.5,0.4s0.1,0.5,0.4,0.5c0.2,0.1,0.5-0.1,0.5-0.4
				C75.3,104.8,75.2,104.6,74.9,104.5z"/>
		</g>
	</g>
	<g>
		<g class="st23">
			<g>
				<polyline class="st24" points="93.2,74.5 90.9,73.8 90.3,76.2 				"/>
				<polyline class="st24" points="88.5,91.1 86.3,90.4 86.9,88.1 				"/>
			</g>
			<g>
				<polyline class="st24" points="103.5,78.4 105.8,79 105.1,81.4 				"/>
				<polyline class="st24" points="98.9,95 101.1,95.6 101.8,93.2 				"/>
			</g>
		</g>
		<g>
			<g>
				<g>
					<defs>
						
							<ellipse id="SVGID_1_" transform="matrix(0.9933 -0.1155 0.1155 0.9933 -9.1104 11.6596)" cx="96.1" cy="84.4" rx="7.1" ry="7.1"/>
					</defs>
					<clipPath id="SVGID_2_">
						<use xlink:href="#SVGID_1_"  style="overflow:visible;"/>
					</clipPath>
					<g class="st25">
						<g>
							<g>
								<path class="st15" d="M88.6,81.4C88.6,81.4,88.5,81.4,88.6,81.4c-0.1,0-0.1,0-0.2,0c-0.1,0-0.8,0-0.9,0s-0.3,0-0.3,0
									c0,0-0.1,0-0.1,0c0,0-0.1,0.1-0.1,0.1c-0.1,0-0.4,0.1-0.4,0.2c0.1,0.1,0.3,0.1,0.3,0.2c0,0-0.3,0-0.3,0
									c-0.1,0-0.1,0.2,0.1,0.2c0.2,0,0.2,0,0.2,0c0,0-0.3,0.2-0.2,0.3c0.2,0.1,0.2,0,0.2,0c0.1,0,0.1,0,0.2,0.1s-0.5,0.2-0.3,0.4
									c0.2,0.1,0.6-0.2,0.7-0.2c0,0,0-0.2,0.3-0.3c0.3-0.1,0.6,0,0.7,0c0.1,0.1,0.3,0.1,0.4,0.2c0.1,0.1,0.1,0.3,0.2,0.3
									c0.1,0,0.1-0.1,0.1-0.1c0,0,0.4,0.2,0.4,0.5c0,0.2-0.1,0.8,0.5,1c0.5,0.2,0.3,0.6,0.6,0.7c0.3,0.1,0.3,0.3,0.5,0.3
									c0.1,0.1,0.3,0.2,0.4,0.2c0.2,0,0.1,0,0.2,0c0.1,0,0.2,0.2,0.3,0.2c0.1,0,0.2,0,0.3,0c0.1,0,0,0.2,0.1,0.2
									c0.1,0.1,0.3,0.2,0.3,0.2c0.1,0,0.1-0.2,0.1-0.1c0.1,0,0.2,0.2,0.2,0.3c0,0.1-0.1,0.2-0.2,0.3c0,0.1,0,0.1,0,0.2
									c0,0.1-0.1,0.1,0,0.3c0.1,0.1,0.2,0.1,0.3,0.4c0.1,0.2,0.1,0.3,0.3,0.4c0.1,0.1,0.3,0.1,0.3,0.2c0,0.1,0.1,0.6,0.1,0.7
									c0,0.1-0.1,0.1-0.1,0.2c0,0.1,0,0.2,0,0.2c0,0.1-0.1,0.1-0.1,0.3c0,0.1,0,0.3,0,0.4c0,0.1-0.1,0.1-0.1,0.2
									c0,0.1,0,0.1,0,0.2c0,0,0,0.1,0,0.1c0,0,0.1,0.1,0.1,0.1c0,0,0.1,0.4,0.5,0.3c0.1,0,0-0.1,0-0.2c-0.1,0-0.2-0.1-0.1-0.2
									c0.1-0.1,0.2-0.1,0.2-0.2c0-0.1-0.1,0-0.2,0c0,0,0.2-0.2,0.2-0.3c0-0.1-0.1-0.1-0.1-0.2c0-0.1,0.1,0.1,0.2,0
									c0.1,0,0-0.1,0-0.2c0.1-0.1,0.3,0,0.3-0.1s-0.2-0.3-0.1-0.4c0.1-0.1,0.1,0.2,0.2,0.1c0.1-0.1,0.1-0.3,0.3-0.4
									c0.1-0.1,0.1-0.3,0.1-0.4c0.1-0.1,0.2-0.2,0.4-0.2s0.3-0.5,0.2-0.7C95.6,86.9,96,87,96,86.7c0-0.3-0.7-0.6-0.9-0.5
									c-0.2,0.1-0.3,0-0.3,0c0-0.1,0.1-0.3-0.2-0.4s-0.2,0-0.3,0c-0.1,0-0.1-0.1-0.2-0.2c-0.1,0-0.1-0.2-0.2-0.2
									c-0.1,0-0.2,0-0.2,0c0,0-0.2-0.1-0.3-0.1c-0.1,0-0.3,0.3-0.3,0.3c-0.1,0-0.1-0.1-0.2-0.1c-0.1,0-0.1,0.1-0.2,0.1
									c-0.1-0.1,0-0.3-0.1-0.4c-0.1-0.1-0.3,0-0.3,0c0,0,0,0,0-0.2c0-0.2,0-0.2-0.1-0.2c-0.1,0-0.1,0.1-0.1,0.1
									c0,0.1-0.1,0.1-0.2,0.1c-0.1,0-0.3-0.1-0.3-0.5c0-0.4,0.2-0.4,0.4-0.4c0.3,0,0.2-0.2,0.4-0.1c0.1,0.1,0.3,0.4,0.3,0.4
									c0.1,0-0.1-0.3-0.1-0.4c0-0.1,0.5-0.3,0.4-0.5s0-0.3,0.1-0.3c0.1-0.1,0.2,0,0.2-0.1c0-0.1,0.1-0.2,0.2-0.2
									c0,0,0.3-0.1,0.4-0.1c0.1,0,0.1,0,0-0.1c-0.2-0.1-0.3,0-0.4-0.1c-0.1,0,0.2-0.3,0.3-0.2c0.1,0.1,0.2,0,0.2,0
									c0,0,0.1-0.1,0.1-0.1c0.1,0,0.1,0.1,0.1,0.2c0,0,0,0.1,0.1,0.1c0.1,0,0.2-0.1,0.2-0.1c0-0.1-0.2-0.1-0.2-0.2
									c0,0,0-0.1,0-0.2c0,0-0.5-0.2-0.5-0.4c-0.1-0.1-0.2-0.1-0.2,0c0,0.1-0.1,0.2-0.2,0c-0.1-0.1-0.1-0.2-0.2-0.2
									c-0.1,0-0.5-0.2-0.4,0.1c0.1,0.3,0.1,0.3,0,0.3c-0.1,0,0,0.2-0.1,0.3c-0.1,0.1-0.1,0-0.2-0.1c-0.1-0.2-0.6-0.2-0.8-0.2
									c-0.1-0.1-0.3-0.2-0.1-0.4c0.2-0.1,0.2-0.3,0.4-0.2c0.1,0,0.4,0.1,0.5,0c0-0.1-0.3-0.1-0.3-0.2c0,0,0.2,0,0.3-0.1
									c0-0.1-0.2-0.1,0-0.2c0.2-0.1,0.4-0.1,0.3,0c0,0.1,0,0.2,0.1,0.1c0.1-0.1,0.1-0.1,0.1-0.1c0,0.1,0,0.2-0.1,0.2
									c-0.1,0-0.2,0-0.2,0.1c0,0.1,0.2-0.1,0.4,0c0.2,0.1,0.4,0.1,0.4,0.1c0.1,0,0-0.1-0.1-0.2c0-0.1,0.3,0.1,0.3,0
									s-0.4-0.1-0.4-0.2s-0.1-0.2-0.2-0.2c-0.1,0-0.4-0.1-0.6-0.1c-0.2,0-0.4,0.1-0.4,0.1c-0.1,0-0.3-0.1-0.3,0
									c0,0.1,0.1,0.3,0,0.3c-0.1,0-0.2-0.2-0.3-0.1c0,0,0.1,0.3-0.1,0.3c-0.1,0-0.4,0.1-0.5,0c-0.1,0,0-0.2-0.1-0.3
									c-0.1-0.1-0.1-0.3-0.4-0.3c-0.2,0-0.4-0.1-0.5-0.1c-0.1,0-0.3,0-0.4,0.1c0,0.1,0,0.1-0.1,0.2c0,0.1,0,0.2,0.1,0.2
									c0.2,0,0.3,0,0.3,0c0,0.1-0.3,0.1-0.4,0.1C89.4,81.3,88.9,81.2,88.6,81.4z"/>
								<path class="st15" d="M94,90.5c-0.4,0-0.5-0.3-0.5-0.4c0,0,0-0.1,0-0.1c0-0.1,0-0.1,0-0.1c0,0,0,0,0,0c0,0,0,0,0,0
									c0,0,0-0.1,0-0.2c0-0.1,0-0.1,0.1-0.1c0,0,0,0,0-0.1c0-0.1,0-0.1,0-0.2c0-0.1,0-0.1,0-0.2c0-0.1,0-0.2,0.1-0.2
									c0,0,0,0,0-0.1c0,0,0,0,0-0.1c0,0,0-0.1,0-0.1c0-0.1,0.1-0.2,0.1-0.2c0,0,0,0,0,0c0-0.1,0-0.6-0.1-0.7c0,0-0.1-0.1-0.2-0.1
									c0,0,0,0,0,0c-0.1-0.1-0.2-0.2-0.3-0.4c0-0.1-0.1-0.2-0.2-0.2c0,0-0.1-0.1-0.1-0.1c0-0.1,0-0.2,0-0.2c0,0,0,0,0,0
									c0-0.1,0-0.1,0-0.2c0,0,0-0.1,0.1-0.1c0,0,0.1-0.1,0.1-0.1c0-0.1-0.1-0.2-0.1-0.2c0,0,0,0.1-0.1,0.1c0,0,0,0,0,0
									c-0.1,0-0.1,0-0.3-0.1c0,0-0.1-0.1-0.1-0.1c-0.1,0-0.1-0.1-0.1-0.2c0,0,0-0.1,0-0.1c0,0,0,0,0,0c0,0,0,0-0.1,0
									c0,0-0.1,0-0.2,0c-0.1,0-0.1-0.1-0.2-0.1c0,0-0.1-0.1-0.1-0.1c0,0,0,0,0,0c0,0,0,0,0,0c0,0,0,0-0.1,0c0,0-0.1,0-0.1,0
									c-0.1,0-0.2-0.1-0.3-0.1c0,0-0.1,0-0.1-0.1c-0.1,0-0.1-0.1-0.1-0.1c-0.1-0.1-0.1-0.2-0.3-0.2c-0.2-0.1-0.2-0.2-0.3-0.3
									c0-0.1-0.1-0.3-0.3-0.4c-0.5-0.2-0.5-0.6-0.5-0.9c0-0.1,0-0.1,0-0.1c0-0.1-0.2-0.3-0.3-0.4c0,0-0.1,0.1-0.1,0.1c0,0,0,0,0,0
									c-0.1,0-0.1-0.1-0.2-0.2c0,0,0-0.1-0.1-0.1c-0.1-0.1-0.2-0.2-0.3-0.2c-0.1,0-0.3-0.1-0.5-0.1c-0.1,0-0.2,0-0.2,0
									c-0.1,0-0.2,0.1-0.2,0.2c0,0,0,0.1-0.1,0.1c0,0-0.4,0.3-0.6,0.3c-0.1,0-0.1,0-0.2,0c-0.1,0-0.1-0.1-0.1-0.1
									c0-0.1,0.1-0.2,0.3-0.3c0,0,0,0,0,0c0,0-0.1,0-0.1,0c0,0-0.1,0-0.1,0c0,0-0.1,0-0.1,0c-0.1,0-0.1-0.1-0.1-0.1
									c0-0.1,0-0.1,0.1-0.2c0,0,0,0,0,0c-0.1,0-0.2-0.1-0.2-0.2c0-0.1,0.1-0.2,0.1-0.2c0,0,0,0-0.1-0.1c0,0,0-0.1,0-0.1
									c0.1-0.1,0.4-0.2,0.4-0.2l0,0c0,0,0,0,0,0c0,0,0.1,0,0.1,0c0,0,0.1-0.1,0.1-0.1c0,0,0.1,0,0.1,0c0,0,0.2,0,0.3,0l0,0
									c0.1,0,0.3,0,0.5,0c0.2,0,0.4,0,0.4,0l0,0c0.1,0,0.1,0,0.1,0.1c0,0,0,0,0,0c0.1-0.1,0.3-0.1,0.5-0.1c0.1,0,0.2,0,0.3,0
									c0,0,0,0-0.1-0.1c0-0.1,0-0.2,0-0.2c0-0.1,0.1-0.1,0.1-0.2c0-0.1,0.3-0.2,0.4-0.2c0,0,0,0,0,0c0,0,0,0,0,0
									c0.1,0,0.1,0,0.2,0c0.1,0,0.2,0.1,0.3,0l0,0c0.3,0,0.4,0.2,0.4,0.3l0,0c0,0.1,0,0.2,0,0.2c0,0,0,0,0,0.1c0,0,0,0,0,0
									c0,0,0.1,0,0.2,0c0.1,0,0.3,0,0.3,0c0,0,0,0,0,0c0,0,0-0.1,0-0.1c0-0.1,0-0.1,0-0.2c0,0,0,0,0.1,0c0.1,0,0.1,0,0.2,0.1
									c0,0,0,0,0,0c0,0,0,0,0,0c0-0.1,0-0.1,0-0.2c0,0,0,0,0.1,0c0,0,0.1,0,0.1,0c0,0,0.1,0,0.1,0c0,0,0,0,0,0c0,0,0,0,0,0
									c0.1,0,0.2-0.1,0.4-0.1c0,0,0.1,0,0.1,0c0.1,0,0.3,0.1,0.5,0.1c0.1,0,0.1,0,0.1,0c0.2,0,0.2,0.2,0.2,0.2c0,0,0.1,0,0.1,0
									c0.1,0,0.2,0,0.3,0.1c0,0,0,0.1,0,0.1c0,0.1-0.1,0.1-0.2,0.1c0,0-0.1,0-0.1,0c0,0,0,0.1,0,0.1c0,0,0,0.1-0.1,0.1
									c0,0,0,0-0.1,0c-0.1,0-0.3,0-0.4-0.1c0,0-0.1,0-0.1,0c0,0-0.1,0-0.1,0c0.1,0,0.2,0,0.3,0.1c0.1,0,0.2,0.1,0.2,0.2
									c0,0,0,0,0,0c0,0,0,0,0,0c0-0.1,0.1-0.1,0.1-0.1c0,0,0.1,0,0.2,0.1c0,0.1,0.3,0.2,0.4,0.3c0.1,0,0.1,0.1,0.1,0.1
									c0.1,0.1,0,0.1,0,0.2c0,0,0,0,0,0c0,0,0.1,0.1,0.2,0.2c0,0,0,0.1,0,0.1c0,0.1-0.2,0.1-0.3,0.1c-0.1,0-0.1-0.1-0.1-0.1
									c0,0,0-0.1,0-0.1c0,0,0,0,0-0.1c0,0,0,0,0,0c0,0,0,0,0,0.1c0,0-0.1,0.1-0.2,0.1c-0.1,0-0.1,0-0.1-0.1c0,0-0.1,0-0.1,0.1
									c0.1,0,0.2,0,0.3,0.1c0.1,0,0.2,0.1,0.1,0.2c0,0,0,0.1-0.1,0.1c0,0-0.1,0-0.1,0c-0.1,0-0.2,0-0.3,0c0,0-0.1,0.1-0.1,0.1
									c0,0.1-0.1,0.1-0.2,0.1l0,0c0,0-0.1,0-0.1,0c-0.1,0-0.1,0.1-0.1,0.2c0.1,0.2-0.1,0.3-0.2,0.4c0,0-0.1,0.1-0.1,0.1
									c0,0,0,0.1,0,0.2c0,0.1,0.1,0.2,0,0.2c0,0,0,0-0.1,0c-0.1,0-0.1-0.1-0.2-0.2c-0.1-0.1-0.1-0.2-0.2-0.2c0,0,0,0,0,0
									c0,0,0,0,0,0c0,0-0.1,0.1-0.2,0.1c0,0,0,0-0.1,0c0,0-0.1,0-0.2,0c-0.1,0-0.2,0-0.2,0.3c0,0.3,0.2,0.4,0.2,0.4
									c0.1,0,0.1,0,0.1-0.1c0-0.1,0.1-0.2,0.2-0.2c0,0,0,0,0.1,0c0.2,0,0.2,0.2,0.1,0.3c0,0,0,0.1,0,0.1c0,0,0,0,0.1,0
									c0.1,0,0.2,0,0.2,0.1c0,0.1,0.1,0.2,0.1,0.3c0,0.1,0,0.2,0,0.2c0,0,0,0,0,0c0,0,0,0,0,0c0,0,0.1-0.1,0.1-0.1c0,0,0,0,0,0
									c0.1,0,0.1,0,0.1,0c0,0,0,0,0,0c0,0,0.1-0.1,0.1-0.1c0.1-0.1,0.2-0.2,0.2-0.2c0,0,0,0,0,0c0.1,0,0.2,0,0.3,0.1
									c0,0,0.1,0,0.1,0l0,0l0,0.1l0-0.1c0,0,0.1,0,0.2,0c0,0,0,0,0,0c0.1,0,0.2,0.1,0.2,0.1c0,0,0,0,0,0c0,0,0.1,0.1,0.1,0.1
									c0,0,0.1,0.1,0.1,0.1c0,0,0,0,0,0c0,0,0.1,0,0.1,0c0.1,0,0.1,0,0.2,0c0.2,0.1,0.2,0.3,0.2,0.4c0,0,0,0.1,0,0.1
									c0,0,0,0,0.1,0c0,0,0.1,0,0.2,0c0,0,0.1,0,0.1,0c0.3,0,0.8,0.3,0.9,0.6c0,0.2-0.1,0.3-0.2,0.3c0,0-0.1,0-0.1,0l0,0
									c0,0,0,0,0,0c0.1,0.2,0,0.4,0,0.6c0,0.1-0.1,0.2-0.2,0.2c-0.1,0-0.3,0.1-0.4,0.2c0,0,0,0.1,0,0.1c0,0.1,0,0.2-0.1,0.3
									c-0.1,0-0.1,0.1-0.1,0.2c0,0.1-0.1,0.2-0.2,0.2c0,0-0.1,0-0.1,0c0,0.1,0,0.1,0,0.2c0,0.1-0.2,0.1-0.2,0.1l0,0
									c0,0-0.1,0-0.1,0c0,0,0,0,0,0c0,0,0,0.1,0,0.2c0,0,0,0-0.1,0c0,0,0,0,0,0.1c0,0.1-0.1,0.1-0.1,0.2c0,0,0,0,0.1,0.1
									c0,0.1,0,0.2-0.1,0.2c0,0-0.1,0.1-0.1,0.1c0,0,0,0,0,0.1c0,0,0,0,0,0c0.1,0,0.1,0.1,0.1,0.2c0,0,0,0.1-0.1,0.1
									C94.1,90.5,94.1,90.5,94,90.5C94,90.5,94,90.5,94,90.5z M93,85.7c0.1,0.1,0.1,0.2,0.1,0.3c0,0.1-0.1,0.2-0.1,0.2
									c0,0-0.1,0.1-0.1,0.1c0,0.1,0,0.1,0,0.2c0,0,0,0.1,0,0.1c0,0.1,0,0.1,0,0.1c0,0,0,0.1,0.1,0.1c0.1,0.1,0.2,0.1,0.2,0.3
									c0.1,0.2,0.1,0.3,0.2,0.3c0,0,0,0,0,0c0.1,0.1,0.3,0.1,0.3,0.2c0,0,0.1,0.6,0.1,0.8c0,0,0,0.1-0.1,0.1c0,0-0.1,0.1-0.1,0.1
									c0,0,0,0.1,0,0.1c0,0,0,0.1,0,0.1c0,0,0,0.1,0,0.1c0,0,0,0.1,0,0.2c0,0.1,0,0.1,0,0.2c0,0.1,0,0.1,0,0.2
									c0,0.1,0,0.1-0.1,0.2c0,0,0,0,0,0c0,0,0,0.1,0,0.1c0,0,0,0,0,0.1c0,0,0,0,0,0.1c0,0,0,0,0,0c0,0,0.1,0.1,0.1,0.1
									c0,0,0.1,0.3,0.4,0.3c0,0,0,0,0,0c0,0,0,0,0,0c0,0,0,0,0,0c-0.1,0-0.2-0.1-0.1-0.3c0-0.1,0.1-0.1,0.1-0.1c0,0,0,0,0,0
									c0,0,0,0,0,0c0,0-0.1,0-0.1,0c0,0,0,0,0-0.1c0,0,0-0.1,0.1-0.1c0,0,0.1-0.1,0.1-0.2c0,0,0,0,0,0c0,0-0.1-0.1-0.1-0.2
									c0,0,0-0.1,0.1-0.1c0,0,0.1,0,0.1,0c0,0,0-0.1,0-0.1c0,0,0.1,0,0.2-0.1l0,0c0,0,0.1,0,0.1,0c0,0,0-0.1-0.1-0.1
									c-0.1-0.1-0.1-0.2,0-0.3c0,0,0.1,0,0.1,0c0.1,0,0.1,0.1,0.1,0.1c0,0,0,0,0,0.1c0,0,0.1-0.1,0.1-0.1c0-0.1,0.1-0.2,0.2-0.2
									c0,0,0.1-0.1,0.1-0.2c0-0.1,0-0.1,0-0.2c0.1-0.1,0.3-0.2,0.4-0.3c0,0,0.1,0,0.1-0.1c0.1-0.2,0.1-0.4,0-0.5
									c-0.1-0.2,0-0.2,0.1-0.3c0.1,0,0.1-0.1,0.1-0.2c0-0.2-0.5-0.5-0.7-0.5c0,0,0,0,0,0c-0.1,0-0.1,0-0.2,0
									c-0.2,0-0.2-0.1-0.2-0.1c0,0,0-0.1,0-0.1c0-0.1,0-0.2-0.1-0.2c-0.1,0-0.1,0-0.1,0c0,0,0,0,0,0c0,0,0,0-0.1,0c0,0,0,0,0,0
									c-0.1,0-0.1-0.1-0.2-0.1c0,0-0.1-0.1-0.1-0.1c0,0-0.1-0.1-0.1-0.1c0,0,0,0,0,0c0,0,0,0,0,0c-0.1,0-0.2,0-0.2,0l0,0
									c0,0,0,0,0,0c0,0-0.1,0-0.1,0c0,0-0.1-0.1-0.2-0.1c0,0-0.1,0.1-0.1,0.1C93.1,85.6,93.1,85.7,93,85.7
									C93,85.7,93,85.7,93,85.7z M92.1,85.2c0.1,0,0.1,0,0.1,0c0.1,0,0.1,0.1,0.1,0.2c0,0,0,0.1,0,0.1c0,0,0.1,0,0.1,0.1
									c0-0.1,0-0.1,0-0.2c0-0.1,0-0.1,0-0.2c0,0,0,0-0.1,0c0,0-0.1,0-0.1,0C92.2,85.2,92.2,85.2,92.1,85.2
									C92.2,85.2,92.2,85.2,92.1,85.2C92.1,85.2,92.1,85.2,92.1,85.2c-0.1-0.1-0.1-0.1,0-0.2c0,0,0-0.1,0-0.1c0-0.1,0-0.1,0-0.1
									c0,0,0,0,0,0c0,0,0,0,0,0c0,0,0,0,0,0.1c0,0.1-0.2,0.2-0.3,0.2l0,0c-0.1,0-0.1,0-0.2-0.1c-0.1-0.1-0.2-0.2-0.2-0.5
									c0-0.3,0.1-0.4,0.3-0.5c0.1,0,0.1,0,0.2,0c0,0,0,0,0,0c0.1,0,0.1,0,0.1-0.1c0,0,0.1-0.1,0.1-0.1c0,0,0.1,0,0.1,0
									c0.1,0,0.1,0.1,0.2,0.2c0-0.1,0-0.1,0-0.2c0-0.1,0.1-0.1,0.2-0.2c0.1-0.1,0.2-0.2,0.2-0.2c-0.1-0.3,0-0.4,0.1-0.4
									c0.1,0,0.1,0,0.1,0l0,0c0,0,0,0,0,0c0,0,0,0,0,0c0-0.1,0.1-0.3,0.2-0.3c0,0,0,0,0,0c0,0,0.1,0,0.2,0c0,0,0.1,0,0.1,0
									c0,0,0,0,0,0c-0.1,0-0.2-0.1-0.2-0.1c-0.1,0-0.1,0-0.1,0c0,0,0-0.1,0-0.1c0-0.1,0.2-0.2,0.3-0.2c0,0,0.1,0,0.1,0.1
									c0,0,0,0,0,0c0,0,0,0,0.1,0c0,0,0,0,0,0c0,0,0.1-0.1,0.1-0.1c0,0,0.1,0,0.1,0c0,0,0,0,0.1,0.1c0,0,0,0,0,0c0,0,0,0,0-0.1
									c0,0-0.1,0-0.1,0c-0.2-0.1-0.4-0.2-0.5-0.3c0,0,0,0,0,0c0,0,0,0,0,0c0,0.1-0.1,0.1-0.2,0.1c0,0-0.1,0-0.2-0.1
									c0-0.1-0.1-0.1-0.1-0.1c-0.1,0-0.2,0-0.3,0c0,0-0.1,0-0.1,0c0,0,0,0,0,0.1c0,0.1,0,0.1,0.1,0.2c0,0.1,0.1,0.2,0,0.2
									c0,0,0,0,0,0.1c0,0.1,0,0.2-0.1,0.2c0,0-0.1,0.1-0.1,0.1c-0.1,0-0.1-0.1-0.2-0.2l0,0c0-0.1-0.3-0.1-0.5-0.1
									c-0.1,0-0.2,0-0.3-0.1c-0.1,0-0.2-0.1-0.2-0.3c0-0.1,0-0.1,0.1-0.2c0,0,0.1-0.1,0.1-0.1c0.1-0.1,0.2-0.2,0.3-0.2
									c0,0,0.1,0,0.1,0c0,0,0,0,0-0.1c0,0,0-0.1,0-0.1c0,0,0.1,0,0.1-0.1l0,0c0,0,0,0,0,0c0,0-0.1-0.1-0.1-0.1
									c0-0.1,0.1-0.1,0.1-0.1c0.2-0.1,0.3-0.1,0.4,0c0,0,0,0.1,0,0.1c0,0,0.1-0.1,0.1-0.1c0,0,0.1,0,0.1,0.1c0,0.1,0,0.1,0,0.2
									c0,0,0,0,0,0c0,0,0.1,0,0.1,0c0.1,0,0.3,0.1,0.3,0.1c0,0,0,0,0-0.1c0,0,0,0,0,0c0,0,0-0.1,0-0.1c0,0,0,0,0.1,0
									c-0.1,0-0.1,0-0.1-0.1c0-0.1-0.1-0.1-0.1-0.2c0,0-0.1,0-0.2,0c-0.1,0-0.3-0.1-0.4-0.1c0,0,0,0-0.1,0c-0.1,0-0.2,0.1-0.3,0.1
									c0,0,0,0,0,0c0,0,0,0-0.1,0c-0.1,0-0.1,0-0.1,0c0,0,0,0-0.1,0c0,0,0,0,0,0.1c0,0.1,0,0.2-0.1,0.2c0,0,0,0,0,0
									c-0.1,0-0.1,0-0.2-0.1c0,0.1,0,0.2-0.1,0.2c-0.1,0-0.2,0-0.4,0c-0.1,0-0.2,0-0.2,0c-0.1,0-0.1-0.1-0.1-0.2c0,0,0-0.1,0-0.2
									l0,0c-0.1-0.2-0.1-0.2-0.3-0.2l0,0c-0.2,0-0.3,0-0.4,0c-0.1,0-0.1,0-0.1,0c0,0,0,0,0,0c-0.2,0-0.3,0-0.3,0.1
									c0,0.1-0.1,0.2-0.1,0.2c0,0,0,0,0,0.1c0,0,0,0,0,0c0,0,0,0,0,0c0.2,0,0.3,0,0.4,0c0,0,0,0.1,0,0.1c0,0.1-0.3,0.2-0.3,0.2
									c0,0-0.1,0-0.1,0c0,0-0.2-0.1-0.4,0c-0.2,0-0.3,0.1-0.4,0.1c0,0,0,0,0,0c0,0-0.1,0-0.1,0c0,0,0,0,0,0c-0.1,0-0.1,0-0.1-0.1
									c0,0,0,0,0,0l0,0c0,0-0.2,0-0.4,0c-0.2,0-0.4,0-0.5,0l0,0c-0.1,0-0.3,0-0.4,0c0,0,0,0,0,0c0,0.1-0.1,0.1-0.2,0.1
									c0,0,0,0,0,0c-0.1,0-0.2,0-0.3,0.1c0,0,0.1,0.1,0.2,0.1c0.1,0,0.1,0,0.2,0.1c0,0,0,0.1,0,0.1c0,0-0.1,0-0.1,0c0,0,0,0,0,0
									c0,0,0,0,0.1,0c0,0,0,0.1,0,0.1c0,0,0,0-0.1,0.1c0,0-0.1,0.1-0.1,0.1c0,0,0.1,0,0.1,0c0,0,0,0,0,0c0,0,0,0,0.1,0
									c0,0,0,0,0.1,0c0,0,0.1,0,0.1,0c0,0,0.1,0,0.1,0c0,0,0.1,0,0.1,0.1c0,0.1-0.1,0.1-0.2,0.2c0,0-0.1,0.1-0.2,0.1c0,0,0,0,0,0
									c0.2,0,0.5-0.2,0.5-0.2c0,0,0,0,0,0c0-0.1,0.1-0.2,0.3-0.3c0.1,0,0.2,0,0.3,0c0.2,0,0.4,0,0.5,0.1c0.1,0,0.3,0.1,0.4,0.3
									c0,0,0.1,0.1,0.1,0.2c0,0,0,0.1,0,0.1c0,0,0,0,0,0c0,0,0,0,0,0c0,0,0,0,0.1,0c0.1,0,0.5,0.3,0.5,0.5c0,0,0,0.1,0,0.1
									c0,0.2,0,0.6,0.4,0.8c0.3,0.1,0.4,0.3,0.4,0.5c0,0.1,0.1,0.2,0.2,0.2c0.2,0.1,0.3,0.2,0.4,0.3c0,0,0.1,0.1,0.1,0.1
									c0,0,0.1,0,0.1,0.1c0.1,0,0.2,0.1,0.3,0.1c0,0,0,0,0.1,0c0,0,0,0,0,0c0,0,0,0,0.1,0c0,0,0,0,0,0c0.1,0,0.1,0.1,0.2,0.1
									c0,0,0.1,0.1,0.1,0.1C92,85.3,92,85.3,92.1,85.2C92.1,85.3,92.1,85.3,92.1,85.2z M94.1,82.4c0,0,0,0.1,0,0.1c0,0,0,0,0,0
									c0,0,0,0,0,0c0,0,0,0,0,0c0,0,0.1,0,0.1,0C94.2,82.5,94.1,82.4,94.1,82.4C94.1,82.4,94.1,82.4,94.1,82.4z M91.9,81.5
									c-0.1,0-0.1,0-0.2,0.1c0,0-0.1,0.1-0.1,0.1c0,0-0.1,0.1-0.1,0.1c0,0,0.1,0.1,0.1,0.1c0,0,0.1,0,0.2,0c0.3,0,0.5,0.1,0.6,0.2
									l0,0c0,0,0,0.1,0.1,0.1c0,0,0,0,0,0c0,0,0-0.1,0-0.1c0-0.1,0-0.1,0.1-0.2c0,0,0,0,0-0.1c0,0,0-0.1-0.1-0.2
									c0-0.1,0-0.2,0-0.2c0,0,0,0,0.1-0.1c0,0,0,0,0,0c-0.1,0-0.1,0-0.1-0.1c0,0,0-0.1,0-0.1c0,0,0-0.1,0.1-0.1c0,0,0,0,0,0
									c0,0,0-0.1,0-0.2c0,0,0,0,0,0c0,0-0.1,0-0.2,0c0,0,0,0,0,0c0,0,0,0,0,0c0,0,0.1,0.1,0.1,0.1c0,0.1-0.1,0.1-0.1,0.1
									c0.1,0,0.1,0.1,0.1,0.1c0,0,0,0.1-0.1,0.1c-0.1,0-0.1,0-0.2,0C92,81.5,91.9,81.5,91.9,81.5C91.9,81.5,91.9,81.5,91.9,81.5z
									 M86.6,81.8C86.6,81.8,86.6,81.8,86.6,81.8C86.6,81.8,86.6,81.8,86.6,81.8c0.1,0,0.1,0,0.1,0c0,0,0,0,0,0c0,0,0,0,0,0
									c0,0,0,0-0.1,0C86.6,81.8,86.6,81.8,86.6,81.8L86.6,81.8z M93.4,81.2C93.4,81.2,93.4,81.2,93.4,81.2c0.1,0,0.2,0,0.2,0
									c0,0,0,0,0,0c0,0,0,0,0,0c0,0,0,0,0,0C93.6,81.2,93.5,81.2,93.4,81.2C93.4,81.2,93.4,81.2,93.4,81.2z M89.5,81.2
									C89.5,81.2,89.5,81.2,89.5,81.2c0.1,0,0.1,0,0.2,0C89.6,81.2,89.6,81.2,89.5,81.2C89.5,81.2,89.5,81.2,89.5,81.2
									C89.5,81.2,89.5,81.2,89.5,81.2L89.5,81.2z"/>
							</g>
						</g>
						<g>
							<g>
								<path class="st15" d="M92.8,80.3c0,0,0.3-0.1,0.4-0.2c0.1-0.1,0.2-0.1,0.2-0.1c0.1,0,0-0.2,0.2-0.2c0.2,0,0.3,0,0.4,0
									c0.1,0,0.1-0.2,0.2-0.2c0.1,0,0.1,0.1,0.1,0.1c0.1,0-0.1-0.3,0.6-0.3c0.6,0,0.5,0,0.4,0.1c-0.1,0.1,0.1,0,0.4,0
									c0.2-0.1,0.3,0,0.3,0.2c0,0.1,0.1,0.2,0.2,0.2c0.1-0.1,0.2-0.2,0.3-0.1c0.1,0.1-0.3,0.3-0.3,0.4c-0.1,0.1,0.1,0.1,0.1,0.3
									c0,0.1-0.1,0.2-0.2,0.2c-0.1,0,0,0.2,0,0.2s-0.2-0.1-0.2-0.1c-0.1,0,0.1,0.1,0.1,0.2c-0.1,0.1-0.5,0.1-0.6,0.2
									c-0.1,0.1-0.3,0.1-0.4,0.2c0,0.1-0.1,0.2-0.1,0.2c0,0.1-0.1,0.2-0.2,0.1c-0.2-0.1-0.4-0.2-0.5-0.4c-0.1-0.2-0.1-0.3-0.1-0.3
									s0.1,0.1,0.2,0.1c0.1,0,0.1-0.2-0.1-0.2c-0.2,0-0.2,0.1-0.3,0c0-0.1,0.1-0.1-0.1-0.2c-0.1,0-0.5-0.2-0.6-0.1
									c-0.1,0.1,0,0.2-0.2,0.1S92.6,80.5,92.8,80.3z"/>
								<path class="st15" d="M94.7,81.6c0,0-0.1,0-0.1,0c-0.2-0.1-0.4-0.2-0.5-0.4c0,0,0,0,0-0.1C94,81,93.9,80.9,94,80.8
									c0,0-0.1,0-0.1-0.1c0-0.1,0-0.1,0-0.1c0,0,0,0,0,0c0,0,0,0,0,0c-0.1,0-0.4-0.1-0.5-0.1c0,0,0,0,0,0c0,0,0,0,0,0
									c0,0,0,0.1-0.1,0.1c0,0-0.1,0-0.1,0c0,0-0.1,0-0.1,0c-0.1,0-0.2,0-0.2-0.1c0-0.1,0-0.1,0.1-0.2c0,0,0,0,0,0
									c0.1,0,0.3-0.1,0.4-0.2c0.1-0.1,0.2-0.1,0.3-0.2c0-0.1,0-0.2,0.2-0.2c0,0,0.1,0,0.1,0c0.1,0,0.1,0,0.2,0c0.1,0,0.1,0,0.2,0
									c0,0,0,0,0.1-0.1c0,0,0-0.1,0.1-0.1c0,0,0,0,0.1,0c0.1,0,0.1,0,0.1,0.1c0-0.1,0.2-0.3,0.6-0.3c0.1,0,0.1,0,0.1,0
									c0.3,0,0.4,0,0.4,0.1c0,0,0,0,0,0c0,0,0.1,0,0.2,0c0,0,0.1,0,0.1,0c0.2,0,0.3,0.1,0.3,0.2c0,0.1,0.1,0.1,0.1,0.1
									c0,0,0,0,0,0c0,0,0.1,0,0.1-0.1c0.1,0,0.1-0.1,0.2-0.1c0,0,0.1,0,0.1,0c0,0,0.1,0.1,0.1,0.1c0,0.1-0.1,0.2-0.2,0.3
									c0,0-0.1,0.1-0.1,0.1c0,0,0,0,0,0c0,0,0,0,0,0c0,0,0.1,0.1,0.1,0.2c0,0.1,0,0.2-0.1,0.2c0,0-0.1,0.1-0.1,0.1c0,0,0,0,0,0
									c0,0.1,0,0.2,0,0.2c0,0-0.1,0-0.1,0c0,0,0,0,0,0c0,0,0,0.1,0,0.1c0,0-0.1,0.1-0.3,0.1c-0.1,0-0.3,0.1-0.3,0.1
									c-0.1,0.1-0.1,0.1-0.2,0.1c0,0-0.1,0-0.1,0.1c0,0.1-0.1,0.1-0.1,0.2C94.9,81.5,94.8,81.6,94.7,81.6z M94.1,81
									C94.2,81,94.2,81,94.1,81c0,0.1,0,0.1,0.1,0.1c0.1,0.1,0.3,0.3,0.4,0.3c0,0,0.1,0,0.1,0c0,0,0.1,0,0.1-0.1
									c0-0.1,0-0.1,0.1-0.2c0-0.1,0.1-0.1,0.2-0.2c0.1,0,0.1-0.1,0.2-0.1c0.1-0.1,0.2-0.1,0.4-0.1c0.1,0,0.1,0,0.2,0c0,0,0,0,0,0
									c0,0-0.1-0.1-0.1-0.1c0,0,0-0.1,0-0.1c0,0,0,0,0.1,0c0.1,0,0.1,0,0.1,0.1c0,0,0,0,0,0c0,0,0,0,0,0c0,0,0-0.1,0-0.2
									c0,0,0,0,0.1,0l0,0c0,0,0.1,0,0.1,0c0,0,0-0.1,0-0.1c0,0,0-0.1,0-0.1c0,0-0.1-0.1,0-0.2c0-0.1,0.1-0.1,0.2-0.2
									c0,0,0.1-0.1,0.2-0.1c0,0,0,0,0,0c0,0-0.1,0-0.1,0.1c0,0-0.1,0.1-0.1,0.1c0,0-0.1,0-0.1,0c-0.1,0-0.2-0.2-0.2-0.2
									c0-0.1-0.1-0.1-0.1-0.1c0,0-0.1,0-0.1,0c-0.1,0-0.3,0.1-0.3,0.1c0,0-0.1,0-0.2-0.1c0,0,0,0,0-0.1c-0.1,0-0.2,0-0.3,0
									c-0.4,0-0.4,0.1-0.5,0.2c0,0,0,0.1-0.1,0.1c0,0,0,0,0,0c0,0-0.1,0-0.1,0c0,0.1,0,0.2-0.2,0.2c0,0,0,0-0.1,0c0,0-0.1,0-0.1,0
									c0,0-0.1,0-0.1,0c0,0,0,0-0.1,0c-0.1,0-0.1,0-0.1,0.1c0,0,0,0.1-0.1,0.1c0,0,0,0,0,0c-0.1,0-0.1,0-0.2,0.1
									c-0.1,0.1-0.4,0.2-0.4,0.3c0,0,0,0,0,0c0,0,0.1,0,0.1,0c0.1,0,0.1,0,0.2,0c0,0,0,0,0,0c0,0,0,0,0,0c0,0,0-0.1,0.1-0.1
									c0,0,0.1,0,0.1,0c0.2,0,0.5,0.1,0.6,0.1c0.1,0,0.1,0.1,0.1,0.2c0,0,0,0,0,0.1c0,0,0,0,0,0c0,0,0.1,0,0.2,0l0,0
									c0.1,0,0.2,0.1,0.2,0.2C94.4,80.9,94.3,81,94.1,81L94.1,81C94.2,81,94.2,81,94.1,81z M94.2,80.8
									C94.2,80.8,94.2,80.8,94.2,80.8C94.2,80.8,94.2,80.8,94.2,80.8C94.2,80.8,94.2,80.8,94.2,80.8z"/>
							</g>
						</g>
						<g>
							<g>
								<path class="st15" d="M110.2,80c-0.1-0.1,0-0.1,0-0.2c0-0.2-0.2-0.3-0.3-0.3c-0.1,0-0.3,0.1-0.4,0.1c-0.1,0,0.1-0.1-0.2-0.1
									c-0.3,0-0.4,0.1-0.5,0c-0.1,0,0.1-0.1-0.3-0.1c-0.3,0-0.4,0-0.5,0c-0.1-0.1-0.3,0-0.4-0.1c-0.1,0-0.2,0-0.1-0.1
									c0,0,0.1,0,0.2-0.1c0-0.1-0.6-0.1-0.6,0c0,0.1,0.2,0.1,0.2,0.1c0,0.1,0,0.2,0,0.2c-0.1,0-0.4,0-0.4,0.1
									c-0.1,0-0.1,0.1-0.2,0.1c0,0-0.1,0-0.1-0.2c0-0.2-0.1-0.1-0.3,0c-0.2,0.1-0.7,0.1-0.8,0.1c0-0.1,0.1-0.1,0.1-0.2
									c0-0.1-0.5,0-0.6,0c-0.1,0-0.2-0.1-0.4,0c-0.1,0.1-0.3,0.1-0.4,0.1c-0.1,0-0.6,0.2-0.8,0.3c-0.2,0-0.2,0.1-0.1,0.2
									c0,0.1-0.1,0-0.2,0c-0.2,0-0.4,0.1-0.3,0.2c0.1,0.1,0.3,0.2,0.2,0.2c-0.1,0-0.5,0.2-0.4,0.1c0.1-0.1,0.3-0.5,0-0.5
									c-0.2,0-0.4,0-0.4,0.2s-0.3,0.1-0.8,0.3c-0.5,0.1-0.5,0-0.6,0.1c-0.1,0.1-0.2,0.3-0.4,0.3c-0.2,0,0.1,0,0.1-0.2
									c0,0-0.3-0.3-1-0.2c-0.7,0.1-0.9,0.4-0.9,0.4c-0.1,0-0.5,0.3-0.4,0.5c0.1,0.2,0.3,0.1,0.3,0c0.1-0.1,0,0.2,0.2,0.2
									c0.2,0,0.2,0,0.3-0.2c0.1-0.1,0-0.1-0.1-0.3c0-0.1,0-0.1,0.1-0.1c0.1-0.1,0.1-0.1,0.1-0.2c0-0.1,0.1-0.2,0.2-0.1
									c0.1,0.1-0.2,0.2-0.2,0.3c0,0.1,0.1,0.1,0.2,0.1c0.2,0,0.3-0.2,0.3,0c0,0.2-0.1,0.2-0.3,0.2c-0.1,0.1-0.2,0.2-0.3,0.3
									c-0.1,0.1-0.6,0.2-0.6,0.1c-0.1-0.1-0.2-0.1-0.2,0c0,0.1-0.3,0.2-0.4,0.3c-0.2,0.1-0.3,0.1-0.2,0.2c0.1,0.1,0.2,0.2,0.1,0.3
									c-0.1,0.1-0.5-0.1-0.5,0.1c0,0.2,0,0.3,0,0.3c0.1,0.1,0.2,0.1,0.4,0c0.2,0,0.2-0.1,0.3-0.2c0-0.1,0.1-0.2,0.2-0.2
									c0.1,0,0.1-0.1,0.1-0.1c0,0,0.2-0.1,0.2-0.1c0.1,0,0-0.1,0.1-0.1c0.1,0.1,0.3,0.3,0.5,0.3c0.2,0,0.1-0.1,0-0.1
									c-0.1-0.1-0.3-0.2-0.3-0.2c0-0.1,0.1,0,0.2,0c0.1,0.1,0.3,0.5,0.5,0.5c0.2,0.1,0.2-0.1,0.1-0.1c-0.1-0.1,0-0.2,0.1-0.2
									c0.1,0,0,0.1,0.1,0.2c0.1,0.1,0.6,0,0.6,0.1c0,0.1,0,0.4-0.4,0.4c-0.4,0-0.5,0-0.7,0.1c-0.1,0.1-0.2,0.2-0.4,0
									c-0.2-0.1-0.5,0-0.4-0.2c0,0,0.1,0,0.1-0.1c-0.1-0.1-0.4-0.1-0.6,0c-0.1,0-0.4,0.1-0.6,0.2c-0.2,0.1-0.2,0.1-0.2,0.4
									c0,0.2-0.3,0.2-0.3,0.4c-0.1,0.2-0.1,0.3,0,0.4c0,0.1,0.1,0.2,0,0.3c0,0-0.1,0.2,0,0.4c0.1,0.1,0.1,0,0.4,0.3
									c0.2,0.2,0.1,0.3,0.3,0.2c0.2,0,0.4-0.1,0.5-0.2c0.1-0.1,0.1-0.1,0.2-0.1c0.1,0,0.2,0.1,0.2,0.2c0.1,0,0.2,0,0.2,0.1
									c0,0.1-0.1,0.2,0.1,0.5c0.1,0.2,0.2,0.3,0.3,0.5c0.1,0.2,0.1,0.2,0,0.3c0,0.1-0.1,0.2,0.1,0.5s0.1,0.2,0.2,0.4
									c0,0.2,0.1,0.2,0.1,0.4c0.1,0.2,0.1,0.3,0.2,0.3c0.2,0,0.4,0,0.4-0.1c0.1-0.1,0.4-0.4,0.4-0.6c0-0.2,0.1-0.2,0.1-0.4
									c0-0.2,0.2-0.3,0.3-0.4c0.1-0.1,0-0.5,0-0.7c-0.1-0.2,0-0.4,0.2-0.6c0.2-0.2,0.4-0.3,0.4-0.6c0.1-0.3,0-0.4-0.2-0.3
									s-0.3-0.1-0.3-0.1c0-0.1-0.3-0.3-0.4-0.5c-0.1-0.1-0.5-0.5-0.3-0.7c0.1-0.2,0.3,0.4,0.4,0.5c0,0.1,0.1,0,0.3,0.3
									c0.1,0.3,0.2,0.3,0.5,0.1c0.3-0.2,0.6-0.6,0.4-0.7s-0.2,0.1-0.3,0.1c-0.1,0-0.4-0.3-0.3-0.4c0.1-0.1,0.3,0.2,0.4,0.2
									c0.1,0,0.2,0,0.3,0.1c0.1,0.1,0.3,0,0.5-0.1c0.1-0.1,0.2-0.1,0.3,0.1c0,0.2,0.2,0.3,0.2,0.2c0,0-0.1,0.1,0.1,0.3
									c0.1,0.2,0.2,0.6,0.4,0.5c0.2,0,0.2-0.4,0.1-0.5c0-0.1,0.3-0.5,0.4-0.5c0.1,0,0.4,0.1,0.5,0.4c0.1,0.2,0.1-0.1,0.2-0.1
									c0.1,0,0,0.3,0.1,0.4s0.2-0.1,0.2-0.2c0-0.1,0.1,0.4,0.3,0.3c0.2,0,0.4-0.2,0.3-0.3c-0.1-0.2-0.4-0.4-0.3-0.5
									c0.1-0.1,0.2-0.2,0.2-0.2c0,0-0.1,0.4,0,0.3c0.2,0,0.2-0.2,0.2-0.3c0-0.1,0.2,0,0.3-0.1c0.1-0.1,0.4-0.3,0.4-0.5
									c0-0.2-0.2-0.4-0.2-0.4c0,0,0.1-0.1,0-0.2c-0.1-0.1-0.1-0.3,0-0.3c0.1,0,0.3,0.1,0.3,0.2c0,0.1,0,0.2,0.1,0.3
									c0.1,0,0.2-0.1,0.1-0.3c-0.1-0.2,0-0.3,0.2-0.4c0.2,0,0.4-0.1,0.5-0.3c0.1-0.1,0.1-0.5,0.2-0.5c0.1,0,0,0.4,0.1,0.5
									c0.1,0,0.1-0.4,0.1-0.5c-0.1-0.1-0.2-0.1-0.4-0.1c-0.1,0-0.2-0.1-0.2-0.1c0.1-0.1,0.2-0.3,0.6-0.3c0.3,0,0.4,0,0.5,0
									c0.2,0,0.2-0.2,0.3-0.3c0.1-0.1,0.1,0,0.2,0c0.1,0-0.2,0.1-0.3,0.3c-0.1,0.1-0.1,0.3,0,0.4c0.1,0.1,0.4-0.1,0.4-0.2
									s0-0.4,0.1-0.4c0.1,0,0.1,0,0.4,0c0.3-0.1,0.3-0.2,0.4-0.2C110,80.1,110.3,80.1,110.2,80z M100.8,82.5c-0.1,0-0.4,0-0.5,0
									c-0.1,0-0.1,0.1-0.3,0.1c-0.2,0-0.1-0.3-0.1-0.3c0-0.1,0.2-0.1,0.3-0.1c0.1,0,0.1,0.1,0.1,0.1s0-0.1,0.1-0.2
									c0.1-0.1,0.1,0.1,0.3,0.2C100.9,82.4,100.9,82.5,100.8,82.5z M101.5,82.2c0,0,0.2,0.1,0.2,0.3c0,0.2,0.1,0.3-0.1,0.3
									c-0.2,0.1-0.2-0.1-0.1-0.2c0.1-0.1-0.1-0.1-0.1-0.1c-0.1,0-0.2-0.3,0-0.4c0.2-0.1,0.2-0.3,0.3-0.1
									C101.8,82.1,101.8,82.2,101.5,82.2z"/>
								<path class="st15" d="M100.1,88.4c-0.1,0-0.1,0-0.2,0c-0.2,0-0.2-0.1-0.3-0.3c0,0,0,0,0-0.1c0-0.1,0-0.1-0.1-0.1
									c0-0.1-0.1-0.1-0.1-0.2c0,0,0-0.1,0-0.1c0-0.1,0-0.1,0-0.1c0,0-0.1-0.1-0.1-0.2c-0.2-0.3-0.1-0.5-0.1-0.6c0,0,0,0,0,0
									c0-0.1,0-0.1,0-0.2c0-0.1-0.1-0.2-0.1-0.2c0-0.1-0.1-0.1-0.1-0.2c-0.1-0.2-0.1-0.3-0.1-0.4c0,0,0-0.1,0-0.1c0,0,0,0,0,0l0,0
									c0,0,0,0-0.1,0c-0.1,0-0.1-0.1-0.1-0.1c0,0-0.1-0.1-0.1-0.1c0,0,0,0,0,0c0,0,0,0,0,0c0,0-0.1,0-0.1,0.1
									c-0.2,0.1-0.4,0.1-0.6,0.2c0,0-0.1,0-0.1,0c-0.1,0-0.1,0-0.2-0.1c0,0-0.1-0.1-0.1-0.2c-0.1-0.1-0.2-0.1-0.2-0.1
									c0,0-0.1,0-0.2-0.1c-0.1-0.1-0.1-0.3,0-0.4l0,0c0,0,0-0.1,0-0.2c-0.1-0.1,0-0.3,0-0.5c0-0.1,0.1-0.2,0.2-0.2
									c0.1,0,0.1-0.1,0.1-0.2c0-0.3,0.1-0.4,0.3-0.5c0,0,0,0,0.1,0c0,0,0,0-0.1,0c-0.1,0-0.2,0-0.3-0.1c-0.1-0.1-0.1-0.1-0.1-0.2
									c0,0,0-0.1,0-0.2c0-0.1,0-0.2,0.2-0.2c0.1,0,0.1,0,0.2,0c0,0,0.1,0,0.1,0c0,0,0,0,0,0c0,0,0,0,0-0.1c0,0,0-0.1-0.1-0.1
									c0,0,0-0.1,0-0.2c0-0.1,0.1-0.1,0.2-0.1c0,0,0.1,0,0.1-0.1c0.3-0.2,0.4-0.2,0.4-0.3c0-0.1,0.1-0.1,0.2-0.1
									c0.1,0,0.2,0,0.2,0.1c0,0,0,0,0.1,0c0.1,0,0.4-0.1,0.5-0.2c0.1,0,0.1-0.1,0.2-0.1c0,0,0.1-0.1,0.1-0.1c0,0,0.1-0.1,0.1-0.1
									c0.1,0,0.1-0.1,0.1-0.1c0,0,0,0,0,0c0,0,0,0,0,0c0,0-0.1,0-0.2,0.1c-0.1,0-0.1,0-0.2,0c-0.2,0-0.2-0.1-0.2-0.2c0,0,0,0,0,0
									c0,0,0,0,0,0c0,0-0.1,0-0.1,0c0,0,0,0,0,0c0,0,0,0.1,0,0.1c0,0.1,0.1,0.1,0,0.2c-0.1,0.2-0.2,0.2-0.4,0.2c0,0,0,0,0,0
									c-0.1,0-0.2-0.1-0.2-0.2c0,0-0.1,0.1-0.1,0.1c-0.1,0-0.2,0-0.2-0.2c-0.1-0.2,0.2-0.5,0.4-0.6c0,0,0,0,0.1,0c0,0,0,0,0,0
									c0.1-0.1,0.3-0.4,1-0.4c0.7-0.1,1.1,0.2,1.1,0.2c0,0,0,0,0,0c0,0,0,0,0,0c0,0,0,0,0,0c0,0,0.1-0.1,0.1-0.1
									c0.1-0.1,0.1-0.1,0.2-0.1c0,0,0,0,0.1,0c0,0,0.1,0,0.1,0c0.1,0,0.2,0,0.3-0.1c0.1,0,0.3-0.1,0.4-0.1c0.2,0,0.3-0.1,0.4-0.1
									c0.1-0.2,0.3-0.2,0.3-0.2c0,0,0.1,0,0.2,0c0.1,0,0.1,0,0.1,0.1c0,0,0,0,0,0c0.1,0,0.2-0.1,0.3-0.1c0,0,0,0,0,0
									c0.1,0,0.1,0,0.1,0c0,0,0-0.1,0-0.1c0-0.1,0.1-0.1,0.2-0.1c0.1,0,0.2-0.1,0.4-0.1c0.2-0.1,0.4-0.1,0.5-0.1c0,0,0.1,0,0.1,0
									c0,0,0.1,0,0.1,0c0.1,0,0.1,0,0.2-0.1c0,0,0.1-0.1,0.1-0.1c0.1,0,0.1,0,0.2,0c0,0,0.1,0,0.1,0c0,0,0.1,0,0.1,0
									c0,0,0.1,0,0.1,0c0.2,0,0.4,0,0.4,0.1c0,0.1,0,0.1,0,0.1c0,0,0.1,0,0.1,0c0.2,0,0.4,0,0.5-0.1c0,0,0.1,0,0.1,0
									c0.1,0,0.1,0,0.2,0c0,0,0.1,0,0.1,0c0,0,0,0.1,0,0.1c0,0,0,0.1,0,0.1c0,0,0.1,0,0.1-0.1c0,0,0.1,0,0.3-0.1
									c0.1,0,0.1,0,0.1,0c0,0,0,0,0,0c0,0,0-0.1,0-0.1c0,0,0,0-0.1,0c-0.1,0-0.1,0-0.2-0.1c0,0,0-0.1,0-0.1c0,0,0.1-0.1,0.2-0.1
									c0,0,0.4,0,0.5,0.1c0,0,0,0.1,0,0.1c0,0,0,0.1-0.1,0.1c0,0,0.1,0,0.1,0c0.1,0,0.2,0,0.3,0.1c0,0,0.1,0,0.2,0
									c0.1,0,0.1,0,0.2,0c0.2,0,0.3,0,0.3,0.1c0,0,0.1,0,0.1,0c0.1,0,0.2,0,0.3,0l0,0c0.1,0,0.2,0,0.2,0c0.1,0,0.2-0.1,0.3-0.1
									c0.1,0,0.2,0,0.2,0.1c0.1,0.1,0.1,0.2,0.1,0.3c0,0.1,0,0.1,0,0.1c0,0,0,0,0,0c0,0,0,0,0,0c0.1,0,0.1,0.1,0,0.1
									c0,0.1-0.1,0.1-0.3,0.1c0,0-0.1,0-0.1,0c0,0,0,0,0,0c-0.1,0.1-0.1,0.1-0.3,0.2c-0.1,0-0.2,0-0.3,0c0,0,0,0-0.1,0
									c0,0,0,0,0,0c0,0,0,0.2,0,0.2c0,0.1,0,0.1,0,0.1c0,0.2-0.3,0.3-0.4,0.3c0,0-0.1,0-0.1,0c-0.1,0-0.1-0.1-0.1-0.2
									c0-0.1,0-0.2,0.1-0.3c0,0,0,0,0,0c0,0-0.1,0.1-0.2,0.1c-0.1,0-0.1,0-0.2,0c-0.1,0-0.2,0-0.4,0c-0.3,0-0.4,0.2-0.5,0.3
									c0,0,0,0,0,0c0,0,0.1,0,0.1,0c0,0,0,0,0.1,0c0.1,0,0.3,0,0.4,0.1c0.1,0.1,0,0.4,0,0.5c0,0.1-0.1,0.1-0.1,0.1c0,0,0,0,0,0
									c-0.1,0-0.1-0.2-0.1-0.3c0,0,0,0,0-0.1c0,0,0,0.1,0,0.1c0,0.1,0,0.2-0.1,0.2c-0.1,0.2-0.3,0.3-0.5,0.3c-0.1,0-0.1,0-0.1,0.1
									c0,0,0,0.1,0,0.2c0.1,0.1,0.1,0.2,0,0.3c0,0.1-0.1,0.1-0.2,0.1c-0.1,0-0.1-0.2-0.1-0.2c0,0,0-0.1,0-0.1c0,0-0.1-0.1-0.2-0.1
									c0,0,0,0.1,0,0.2c0.1,0.1,0,0.2,0,0.2c0.1,0.1,0.2,0.3,0.2,0.4c0,0.2-0.1,0.4-0.3,0.5c0,0-0.1,0.1-0.1,0.1
									c-0.1,0.1-0.1,0.1-0.2,0.1c0,0,0,0,0,0c0,0.1,0,0.1-0.1,0.2c-0.1,0.1-0.1,0.1-0.2,0.2c0,0,0,0,0,0c0,0,0,0,0,0
									c0.1,0.1,0.1,0.2,0.2,0.2c0,0.1,0,0.1,0,0.2c-0.1,0.1-0.2,0.2-0.4,0.2c-0.1,0-0.2-0.1-0.3-0.2c0,0-0.1,0.1-0.1,0.1
									c0,0-0.1,0-0.1,0c-0.1-0.1-0.1-0.2-0.1-0.3c0,0,0,0-0.1,0c-0.1,0-0.1-0.1-0.2-0.1c-0.1-0.2-0.4-0.4-0.5-0.4
									c-0.1,0-0.3,0.3-0.4,0.4c0,0.1,0.1,0.3,0,0.5c0,0.1-0.1,0.1-0.2,0.1c0,0,0,0,0,0c-0.2,0-0.3-0.2-0.4-0.4
									c0-0.1-0.1-0.1-0.1-0.2c-0.1-0.1-0.1-0.2-0.1-0.3c-0.1,0-0.2-0.1-0.2-0.3c0-0.1,0-0.1-0.1-0.1c0,0-0.1,0-0.1,0
									c-0.1,0-0.2,0.1-0.4,0.1c0,0-0.1,0-0.1,0c0,0,0,0,0,0.1c0,0.2-0.3,0.5-0.5,0.7c-0.1,0.1-0.2,0.1-0.3,0.1
									c-0.2,0-0.2-0.1-0.3-0.3c-0.1-0.2-0.1-0.2-0.2-0.2c0,0-0.1,0-0.1-0.1c0,0,0,0,0-0.1c-0.1-0.3-0.2-0.4-0.2-0.4
									c-0.1,0.1,0.1,0.3,0.2,0.4c0.1,0.1,0.1,0.1,0.1,0.2c0,0.1,0.1,0.2,0.2,0.3c0.1,0.1,0.1,0.1,0.1,0.2c0,0,0,0,0,0
									c0,0.1,0,0.1,0.1,0.1c0,0,0.1,0,0.1,0c0.1,0,0.1,0,0.2,0c0.1,0,0.1,0,0.1,0c0.1,0.1,0,0.2,0,0.3c0,0.2-0.2,0.3-0.3,0.5
									c-0.1,0.1-0.1,0.1-0.2,0.2c-0.2,0.2-0.2,0.4-0.1,0.5c0.1,0.2,0.1,0.6,0,0.8c0,0-0.1,0.1-0.1,0.1c-0.1,0.1-0.2,0.1-0.1,0.2
									c0,0.1,0,0.2-0.1,0.2c0,0,0,0.1,0,0.1c0,0.2-0.3,0.6-0.4,0.7C100.3,88.4,100.2,88.4,100.1,88.4z M98.8,85.4
									c0,0,0.1,0,0.2,0.1c0,0.1,0,0.1,0,0.2c0,0.1,0,0.2,0,0.3c0,0.1,0.1,0.2,0.1,0.2c0.1,0.1,0.1,0.2,0.2,0.3
									c0.1,0.2,0.1,0.3,0,0.4c0,0,0,0,0,0c0,0.1-0.1,0.1,0.1,0.4c0.1,0.1,0.1,0.2,0.1,0.2c0,0.1,0,0.1,0.1,0.2c0,0,0,0,0,0.1
									c0,0.1,0,0.1,0.1,0.2c0,0,0.1,0.1,0.1,0.2c0,0,0,0.1,0,0.1c0,0.1,0,0.1,0.2,0.2c0.1,0,0.1,0,0.2,0c0.1,0,0.2,0,0.2-0.1
									c0.1-0.1,0.3-0.4,0.3-0.6c0-0.1,0-0.2,0.1-0.2c0,0,0-0.1,0-0.2c0-0.2,0.1-0.3,0.2-0.3c0,0,0.1-0.1,0.1-0.1
									c0-0.1,0-0.4,0-0.6c-0.1-0.2,0-0.4,0.2-0.7c0.1-0.1,0.1-0.1,0.2-0.2c0.1-0.1,0.2-0.2,0.2-0.4c0-0.1,0-0.2,0-0.2c0,0,0,0,0,0
									c0,0-0.1,0-0.1,0c-0.1,0-0.1,0-0.2,0c-0.2,0-0.2-0.1-0.2-0.2c0,0,0,0,0,0c0,0-0.1-0.1-0.1-0.1c-0.1-0.1-0.2-0.2-0.2-0.3
									c0,0-0.1-0.1-0.1-0.2c-0.1-0.2-0.3-0.4-0.2-0.6c0,0,0.1-0.1,0.1-0.1c0.1,0,0.3,0.2,0.4,0.5c0,0,0,0,0,0.1c0,0,0,0,0,0
									c0.1,0,0.1,0.1,0.2,0.3c0.1,0.2,0.1,0.2,0.2,0.2c0.1,0,0.2-0.1,0.3-0.1c0.2-0.1,0.5-0.4,0.5-0.5c0,0,0,0,0,0
									c0,0-0.1,0-0.1,0c0,0,0,0,0,0c0,0-0.1,0.1-0.1,0.1c0,0,0,0-0.1,0c-0.1,0-0.3-0.2-0.4-0.4c0-0.1,0-0.1,0-0.1
									c0,0,0.1-0.1,0.1-0.1c0.1,0,0.2,0.1,0.2,0.1c0,0,0.1,0.1,0.2,0.1l0,0c0.1,0,0.2,0,0.3,0.1c0,0,0,0,0.1,0
									c0.1,0,0.2-0.1,0.3-0.1c0.1,0,0.1-0.1,0.2-0.1c0.1,0,0.2,0,0.2,0.2c0,0.1,0.1,0.1,0.1,0.2c0,0,0,0,0,0c0,0,0,0,0.1,0
									c0,0,0,0,0,0.1c0,0.1,0,0.2,0.1,0.3c0,0.1,0.1,0.1,0.1,0.2c0.1,0.2,0.1,0.3,0.2,0.3c0,0,0,0,0,0c0,0,0,0,0.1,0
									c0.1-0.1,0-0.3,0-0.4c0,0,0-0.1,0.1-0.2c0.1-0.1,0.3-0.4,0.4-0.4c0.2,0,0.5,0.2,0.6,0.4c0,0,0,0,0,0c0,0,0-0.1,0.1-0.1
									c0,0,0,0,0,0c0.1,0,0.1,0.1,0.1,0.2c0,0.1,0,0.2,0,0.2c0,0,0,0,0,0c0,0,0-0.1,0-0.1c0,0,0,0,0-0.1c0,0,0,0,0.1,0
									c0.1,0,0.1,0,0.1,0.1c0.1,0.2,0.2,0.3,0.2,0.3c0,0,0,0,0,0c0.1,0,0.2-0.1,0.3-0.1c0,0,0,0,0-0.1c0,0-0.1-0.1-0.1-0.2
									c-0.1-0.1-0.3-0.3-0.2-0.4c0,0,0.1-0.2,0.3-0.2c0,0,0.1,0,0.1,0c0,0,0,0.1,0,0.2c0,0,0,0.1,0,0.1c0,0,0.1,0,0.1-0.1
									c0-0.1,0-0.1,0-0.1c0,0,0-0.1,0-0.1c0,0,0,0,0.1,0c0,0,0,0,0,0c0,0,0,0,0.1,0c0.1,0,0.1,0,0.1-0.1c0,0,0.1-0.1,0.1-0.1
									c0.1-0.1,0.3-0.3,0.3-0.4c0-0.2-0.2-0.4-0.2-0.4c0,0,0-0.1,0-0.1c0,0,0,0,0,0c0,0,0,0,0,0c0-0.1-0.1-0.2,0-0.3
									c0-0.1,0.1-0.1,0.1-0.1c0.1,0,0.3,0.1,0.4,0.2c0,0,0,0.1,0,0.1c0,0.1,0,0.1,0,0.1c0,0,0,0,0,0c0,0,0-0.1,0-0.1
									c-0.1-0.1-0.1-0.2,0-0.3c0-0.1,0.1-0.1,0.2-0.1c0.2,0,0.4-0.1,0.4-0.2c0,0,0-0.1,0.1-0.2c0-0.1,0.1-0.2,0.1-0.3
									c0,0-0.1,0-0.1,0c-0.1,0-0.2,0-0.3-0.1c0,0,0-0.1,0-0.1c0,0,0,0,0,0c0.1-0.1,0.3-0.3,0.6-0.3c0.2,0,0.3,0,0.4,0
									c0.1,0,0.1,0,0.2,0c0.1,0,0.1,0,0.1-0.1c0,0,0.1-0.1,0.1-0.1c0,0,0.1,0,0.1,0c0.1,0,0.1,0,0.1,0.1c0,0,0,0,0,0
									c0,0,0.1,0,0.1,0.1c0,0.1,0,0.1-0.1,0.2c-0.1,0-0.1,0.1-0.2,0.2c0,0.1-0.1,0.2-0.1,0.2c0,0,0,0,0,0.1c0,0,0,0,0,0
									c0.1,0,0.3-0.1,0.3-0.2c0,0,0-0.1,0-0.1c0-0.2,0-0.3,0.1-0.4c0,0,0.1,0,0.1,0c0,0,0,0,0.1,0c0.1,0,0.1,0,0.2,0
									c0.2,0,0.2-0.1,0.3-0.1c0,0,0.1-0.1,0.1-0.1c0,0,0.1,0,0.1,0c0,0,0.1,0,0.1,0c0,0,0-0.1,0-0.1c0,0,0,0,0-0.1
									c0,0,0-0.1-0.1-0.1c0,0-0.1,0-0.1,0c-0.1,0-0.3,0.1-0.4,0.1c0,0,0,0,0,0c0,0,0,0-0.1,0c0,0,0,0,0,0c0,0,0,0-0.1,0l0,0
									c-0.1,0-0.2,0-0.3,0c-0.1,0-0.1,0-0.2,0c0,0-0.1,0-0.1-0.1c0,0-0.1,0-0.2,0c-0.1,0-0.1,0-0.2,0c-0.2,0-0.2,0-0.3-0.1
									c0,0-0.1,0-0.2,0c-0.1,0-0.1,0-0.2,0c0,0-0.1,0-0.1,0c0,0-0.1,0-0.1-0.1c0,0,0-0.1,0-0.1c0,0,0,0,0,0c0,0-0.1,0-0.1,0
									c0,0,0,0,0,0c0,0.1,0.1,0.2,0,0.3c0,0.1-0.1,0.1-0.1,0.1c0,0-0.1,0-0.2,0c-0.1,0-0.2,0-0.2,0c0,0-0.1,0.1-0.2,0.1
									c0,0,0,0,0,0c0,0-0.1,0-0.1,0c0,0-0.1-0.1-0.1-0.2c0,0,0,0,0,0c0,0-0.1,0-0.1,0c0,0-0.1,0-0.1,0c-0.1,0-0.4,0.1-0.5,0.1
									c-0.3,0-0.3,0-0.3,0c0,0,0-0.1,0-0.1c0,0,0-0.1,0.1-0.1c0,0,0,0,0,0c0,0-0.1,0-0.2,0c0,0-0.1,0-0.1,0c-0.1,0-0.1,0-0.1,0
									c0,0-0.1,0-0.1,0c0,0-0.1,0-0.1,0c0,0,0,0-0.1,0c-0.1,0.1-0.2,0.1-0.2,0.1c-0.1,0-0.1,0-0.2,0c0,0,0,0-0.1,0c0,0,0,0,0,0
									c-0.1,0-0.2,0.1-0.4,0.1c-0.2,0.1-0.3,0.1-0.4,0.1c0,0-0.1,0-0.1,0c0,0,0,0,0,0.1c0,0,0,0.1,0,0.1c0,0,0,0-0.1,0
									c0,0-0.1,0-0.1,0c0,0-0.1,0-0.2,0c0,0,0,0,0,0c-0.1,0-0.2,0-0.2,0.1c0,0,0.1,0.1,0.1,0.1c0.1,0.1,0.1,0.1,0.1,0.2
									c0,0,0,0.1,0,0.1c-0.1,0-0.3,0.1-0.4,0.1c0,0-0.1,0-0.1,0c0,0,0-0.1,0-0.1c0.2-0.3,0.1-0.4,0.1-0.4c0,0,0,0,0,0
									c-0.1,0-0.1,0-0.1,0c-0.2,0-0.2,0-0.2,0.1c0,0.2-0.2,0.2-0.5,0.2c-0.1,0-0.2,0-0.4,0.1c-0.1,0-0.2,0-0.4,0.1
									c0,0-0.1,0-0.1,0c0,0,0,0,0,0c0,0-0.1,0-0.1,0c0,0-0.1,0.1-0.1,0.1c-0.1,0.1-0.2,0.2-0.3,0.2l0,0c0,0-0.1,0-0.1-0.1
									c0-0.1,0-0.1,0.1-0.1c0.1,0,0.1-0.1,0.1-0.1c-0.1-0.1-0.4-0.2-0.9-0.2c-0.6,0-0.8,0.3-0.8,0.4c0,0,0,0,0,0c0,0,0,0-0.1,0
									c-0.3,0.2-0.4,0.3-0.3,0.4c0,0.1,0.1,0.1,0.1,0.1c0,0,0.1,0,0.1-0.1c0,0,0,0,0.1,0c0.1,0,0.1,0.1,0.1,0.1
									c0,0.1,0,0.1,0.1,0.1c0.2,0,0.2,0,0.2-0.1c0,0,0,0,0-0.1c0,0,0-0.1-0.1-0.1c0-0.1,0-0.2,0.1-0.2c0,0,0,0,0.1,0
									c0.1,0,0.1,0,0.1-0.1c0-0.1,0.1-0.2,0.2-0.2c0,0,0.1,0,0.1,0.1c0.1,0.1,0,0.2-0.1,0.2c0,0-0.1,0.1-0.1,0.1c0,0,0,0,0,0
									c0,0,0,0,0,0c0,0,0.1,0,0.1,0c0.1,0,0.1,0,0.1-0.1c0,0,0.1,0,0.1,0c0.1,0,0.1,0,0.1,0.1c0,0.2-0.1,0.2-0.2,0.3
									c0,0-0.1,0-0.1,0.1c0,0-0.1,0.1-0.1,0.1c-0.1,0.1-0.1,0.1-0.2,0.2c-0.1,0.1-0.4,0.2-0.5,0.2c-0.1,0-0.2,0-0.2-0.1
									c0-0.1-0.1,0-0.1,0c0,0.1-0.2,0.2-0.5,0.4c0,0-0.1,0-0.1,0.1c0,0-0.1,0-0.1,0c0,0,0,0,0,0c0,0,0,0.1,0.1,0.1
									c0,0.1,0.1,0.2,0,0.3c0,0-0.1,0-0.1,0c0,0-0.1,0-0.1,0c-0.1,0-0.1,0-0.2,0c-0.1,0-0.1,0-0.1,0c0,0.1,0,0.2,0,0.2
									c0,0.1,0,0.1,0,0.1c0,0,0.1,0,0.2,0c0,0,0.1,0,0.1,0c0.2,0,0.2-0.1,0.2-0.1c0-0.1,0.1-0.2,0.2-0.2c0,0,0,0,0.1-0.1
									c0-0.1,0.1-0.1,0.2-0.1c0,0,0,0,0.1,0c0,0,0,0,0,0c0,0,0-0.1,0.1-0.1c0,0,0.1,0,0.1,0c0,0,0.1,0,0.1,0.1c0,0,0-0.1,0-0.1
									c0-0.1,0.1-0.1,0.1-0.1c0.1,0,0.1,0,0.2,0.1c0.1,0,0.1,0.1,0.2,0.2c0.1,0.1,0.2,0.3,0.3,0.3c0,0,0.1,0,0.1,0c0,0,0,0,0,0
									c0,0-0.1-0.1,0-0.2c0-0.1,0.1-0.1,0.1-0.1c0,0,0.1,0,0.1,0c0,0,0,0,0,0c0-0.1,0-0.2,0.1-0.3l0,0c0-0.1,0.2-0.1,0.3-0.2
									c0.1,0,0.1,0,0.1,0c0,0,0,0,0,0c0,0,0.1-0.1,0.1-0.1c0,0,0.1,0,0.1,0c0.1,0,0.1,0.1,0.2,0.1c0,0,0.1,0.1,0.1,0.1
									c0.1,0.1,0.1,0.2,0.1,0.2c0,0.1,0,0.1-0.1,0.1c0,0-0.1,0-0.2,0c-0.1,0-0.3,0-0.4,0c0,0,0,0,0,0c0,0-0.1,0.1-0.2,0.1
									c0,0-0.1,0-0.1,0c0,0-0.1,0-0.1,0c0,0,0,0,0,0c0,0,0,0,0,0.1c0,0,0.2,0,0.2,0c0.2,0,0.4,0,0.4,0.1c0,0.1,0,0.2,0,0.3
									c-0.1,0.1-0.2,0.2-0.4,0.2c-0.2,0-0.3,0-0.4,0c0,0-0.1,0-0.1,0c-0.1,0-0.1,0-0.1,0c-0.1,0.1-0.1,0.1-0.2,0.1
									c-0.1,0-0.1,0-0.2-0.1c-0.1,0-0.1,0-0.2,0c-0.1,0-0.2,0-0.2-0.1c0-0.1,0-0.1,0-0.2c0,0,0,0,0,0c0,0,0,0,0,0c0,0,0,0,0,0
									c0,0-0.1,0-0.3,0c-0.1,0-0.2,0-0.2,0c-0.1,0-0.2,0.1-0.2,0.1c-0.1,0-0.2,0.1-0.3,0.1c-0.1,0-0.2,0.1-0.2,0.3
									c0,0.2-0.1,0.2-0.2,0.3c-0.1,0-0.1,0.1-0.1,0.1c0,0.2-0.1,0.3,0,0.4c0.1,0.1,0.1,0.3,0,0.3l0,0c0,0.1-0.1,0.2,0,0.3
									c0,0,0.1,0.1,0.1,0.1c0.1,0,0.1,0,0.2,0.2c0.1,0.1,0.1,0.1,0.1,0.2c0,0,0,0,0,0c0,0,0,0,0.1,0c0.3,0,0.4-0.1,0.5-0.2
									c0,0,0.1,0,0.1,0c0,0,0.1,0,0.1,0c0,0,0.1,0,0.1,0c0.1,0,0.1,0.1,0.1,0.1C98.7,85.4,98.7,85.4,98.8,85.4
									C98.8,85.4,98.8,85.4,98.8,85.4L98.8,85.4z M105.5,83.8C105.5,83.8,105.5,83.8,105.5,83.8C105.5,83.8,105.5,83.8,105.5,83.8
									C105.5,83.7,105.5,83.8,105.5,83.8z M101.5,83.4c0,0.1,0.2,0.3,0.3,0.3c0,0,0,0,0,0c0,0,0.1-0.1,0.1-0.1c0,0,0,0,0,0l0,0h0
									c-0.1,0-0.2-0.1-0.3-0.1C101.6,83.5,101.5,83.4,101.5,83.4z M98.8,83.3C98.8,83.3,98.9,83.3,98.8,83.3c0.1,0,0.2,0,0.3,0.1
									c0.1,0,0.1,0.1,0.1,0.1c0,0,0.1,0,0.2-0.1c0.1,0,0.1-0.1,0.2-0.1c0,0,0.1,0,0.1,0c0.1,0,0.2,0,0.4,0c0.1,0,0.2-0.1,0.3-0.1
									c0-0.1,0-0.1,0-0.2c0,0-0.2,0-0.3,0c-0.2,0-0.3,0-0.4-0.1c0,0,0-0.1-0.1-0.1c0,0,0,0,0,0c0,0,0,0,0,0c0,0.1,0.1,0.1,0,0.2
									c0,0.1-0.1,0.1-0.1,0.1c0,0-0.1,0-0.1,0c-0.1,0-0.2-0.1-0.2-0.2c0,0-0.1,0.1-0.2,0c-0.1,0-0.2-0.1-0.3-0.2
									c-0.1,0-0.1-0.1-0.2-0.1c0,0,0,0,0,0c0,0,0,0.1-0.1,0.1c0,0-0.1,0-0.1,0c0,0-0.1,0-0.1,0c0,0.1-0.1,0.1-0.2,0.2
									c0,0-0.1,0-0.1,0.1c0,0.1-0.1,0.1-0.1,0.2c0,0,0,0,0,0c0.1,0,0.2-0.1,0.2-0.1c0.1,0,0.2,0,0.3,0c0.2,0,0.3,0,0.4,0.1
									C98.9,83.1,98.9,83.2,98.8,83.3C98.9,83.2,98.9,83.3,98.8,83.3z M100.2,82.3c-0.1,0-0.1,0-0.1,0.1l0,0c0,0-0.1,0.2,0,0.2
									c0,0,0,0,0.1,0c0,0,0,0,0.1,0c0.1,0,0.1,0,0.1,0c0,0,0.1,0,0.1-0.1c0,0,0,0,0.1,0c0.1,0,0.2,0,0.3,0c0.1,0,0.1,0,0.1,0
									c0,0,0,0,0,0c0,0,0,0-0.1-0.1c-0.1,0-0.1-0.1-0.1-0.2c0,0,0,0,0,0c0,0,0,0,0,0c-0.1,0.1-0.1,0.1-0.1,0.1c0,0,0,0-0.1,0.1
									c0,0-0.1,0-0.1,0C100.3,82.3,100.3,82.3,100.2,82.3C100.2,82.3,100.2,82.3,100.2,82.3z M107.8,81.1c0,0.1,0,0.1,0,0.2
									c0,0,0,0,0,0C107.8,81.3,107.8,81.2,107.8,81.1C107.8,81.1,107.8,81.1,107.8,81.1z M108.8,80.4
									C108.8,80.4,108.8,80.4,108.8,80.4c-0.1,0-0.1,0.1-0.1,0.1c0,0,0,0,0,0C108.7,80.5,108.7,80.4,108.8,80.4
									C108.8,80.4,108.8,80.4,108.8,80.4C108.8,80.4,108.8,80.4,108.8,80.4C108.8,80.4,108.8,80.4,108.8,80.4z M102.9,80.2
									c0,0,0,0.1-0.1,0.2c0.1,0,0.1,0,0.2-0.1c0,0,0,0,0,0C102.9,80.3,102.9,80.2,102.9,80.2z M101.6,82.9c-0.1,0-0.1,0-0.2-0.1
									c0-0.1,0-0.2,0-0.2c0,0,0,0,0,0c0,0,0,0-0.1,0c-0.1,0-0.1-0.2-0.1-0.3c0-0.1,0-0.2,0.1-0.2c0,0,0.1-0.1,0.1-0.1
									c0,0,0.1-0.1,0.2-0.1c0.1,0,0.1,0,0.2,0.1c0.1,0.1,0.1,0.2,0.1,0.2c0,0.1-0.1,0.1-0.1,0.1c0,0,0.1,0.1,0.1,0.2
									c0,0,0,0,0,0.1C101.8,82.6,101.9,82.8,101.6,82.9C101.6,82.8,101.6,82.8,101.6,82.9z M101.6,82C101.6,82,101.5,82,101.6,82
									c-0.1,0.1-0.1,0.1-0.2,0.2c0,0,0,0,0,0.1c0,0.1,0,0.2,0.1,0.2c0,0,0,0,0,0c0.1,0,0.1,0.1,0.1,0.1c0,0,0,0.1,0,0.1
									c0,0,0,0.1,0,0.1c0,0,0,0,0,0c0,0,0,0,0,0c0.1,0,0.1,0,0.1-0.2c0,0,0,0,0-0.1c0-0.1-0.1-0.2-0.2-0.2c0,0-0.1,0,0-0.1
									c0,0,0-0.1,0.1-0.1c0,0,0.1,0,0.1,0c0,0,0,0,0.1,0C101.7,82.1,101.7,82,101.6,82C101.6,82,101.6,82,101.6,82z"/>
							</g>
						</g>
						<g>
							<g>
								<path class="st15" d="M101.6,87.5c0,0-0.1-0.2,0.1-0.4s0.1-0.4,0.1-0.5c0,0-0.2-0.1-0.2,0c-0.1,0.1-0.2,0.1-0.2,0.2
									c0,0.1,0,0.1,0,0.2c0,0.1,0,0.2,0,0.3C101.4,87.4,101.3,87.7,101.6,87.5z"/>
								<path class="st15" d="M101.5,87.7C101.5,87.7,101.5,87.7,101.5,87.7c-0.1,0-0.1,0-0.1,0c-0.1-0.1,0-0.1,0-0.2c0,0,0,0,0,0
									c0,0,0-0.1,0-0.2c0,0,0-0.1,0-0.1c0,0,0-0.1,0-0.1c0,0,0-0.1,0-0.2c0-0.1,0.1-0.1,0.1-0.2c0,0,0.1-0.1,0.1-0.1
									c0-0.1,0.1-0.1,0.1-0.1c0.1,0,0.2,0.1,0.2,0.1c0,0.1,0,0.4-0.1,0.6c-0.1,0.1-0.1,0.3-0.1,0.3c0,0,0,0.1,0,0.1
									C101.6,87.6,101.5,87.7,101.5,87.7z M101.7,86.7C101.7,86.7,101.7,86.7,101.7,86.7c0,0.1-0.1,0.1-0.2,0.2
									c0,0-0.1,0.1-0.1,0.1c0,0,0,0.1,0,0.1c0,0,0,0.1,0,0.1c0,0.1,0,0.1,0,0.2c0,0,0,0.1,0,0.1c0,0,0,0.1,0,0.1c0,0,0,0.1,0,0.1
									c0,0,0,0,0.1,0c0-0.1,0-0.2,0.1-0.4C101.7,87,101.8,86.7,101.7,86.7C101.7,86.7,101.7,86.7,101.7,86.7z"/>
							</g>
						</g>
						<g>
							<g>
								<path class="st15" d="M108,86.4c0,0-0.3-0.1-0.3-0.3c0-0.1-0.2-0.3-0.3-0.2c0,0.1-0.1,0.1-0.1,0.1c0,0-0.1,0.2-0.1,0.2
									c0,0-0.2-0.2-0.3-0.1c-0.1,0.1-0.2,0.2-0.2,0.3c0,0.1,0.1,0.2,0,0.2c0,0-0.4,0-0.5,0.1c-0.1,0.1-0.2,0.3,0,0.4
									c0.1,0.2,0.2,0.3,0.2,0.4c0,0-0.1,0.2,0,0.2s0.3,0.1,0.5-0.1s0.1-0.2,0.3-0.2c0.2,0,0.4,0,0.4,0.1c0.1,0.1,0.1,0.1,0.2,0.1
									c0.1,0,0.1,0.1,0.2,0.2c0.2,0.1,0.4,0.1,0.5,0c0.1-0.2,0.3-0.5,0.2-0.8c-0.1-0.3-0.3-0.4-0.4-0.6c-0.1-0.1,0-0.3-0.3-0.4
									C108.1,86,108.1,86.5,108,86.4z"/>
								<path class="st15" d="M108.5,88.1L108.5,88.1c-0.1,0-0.2,0-0.3-0.1c-0.1-0.1-0.1-0.1-0.2-0.2c0,0,0,0,0,0c0,0,0,0-0.1,0
									c-0.1,0-0.2,0-0.2-0.1c0-0.1-0.2-0.1-0.4-0.1c-0.1,0-0.1,0-0.2,0.1c0,0,0,0.1-0.1,0.1c-0.1,0.1-0.3,0.2-0.4,0.2
									c0,0-0.2,0-0.2-0.1c-0.1-0.1,0-0.2,0-0.2c0,0,0,0,0,0c0,0-0.1-0.2-0.2-0.3c-0.2-0.2-0.1-0.4,0-0.5c0,0,0,0,0,0
									c0-0.1,0.1-0.1,0.4-0.1c0,0,0.1,0,0.1,0c0,0,0,0,0,0c0,0,0-0.1,0-0.2c0-0.1,0.1-0.1,0.1-0.2c0,0,0.1-0.1,0.1-0.1
									c0,0,0.1-0.1,0.1-0.1c0.1,0,0.1,0.1,0.2,0.1c0,0,0,0,0,0c0-0.1,0-0.1,0-0.1c0,0,0,0,0.1-0.1c0,0,0.1,0,0.1-0.1
									c0,0,0.1,0,0.1,0c0.1,0,0.2,0,0.2,0.1c0.1,0.1,0.1,0.1,0.1,0.2c0,0,0.1,0.1,0.2,0.2c0,0,0,0,0,0c0-0.1,0.1-0.3,0.2-0.3
									c0,0,0.1,0,0.1,0c0.2,0.1,0.2,0.2,0.2,0.3c0,0.1,0,0.1,0.1,0.1c0.1,0.1,0.3,0.3,0.4,0.6c0.1,0.3-0.1,0.6-0.2,0.8
									C108.7,88,108.6,88.1,108.5,88.1z M107.3,87.5c0.2,0,0.4,0,0.4,0.1c0,0,0,0,0.1,0c0,0,0,0,0.1,0c0.1,0,0.1,0.1,0.2,0.1
									c0,0,0.1,0.1,0.1,0.1c0.1,0.1,0.2,0.1,0.3,0.1c0,0,0,0,0,0c0.1,0,0.1,0,0.2-0.1c0.1-0.2,0.3-0.5,0.2-0.7
									c-0.1-0.3-0.3-0.4-0.4-0.5c-0.1-0.1-0.1-0.1-0.1-0.2c0-0.1,0-0.2-0.1-0.2c0,0,0,0,0,0c0,0-0.1,0.1-0.1,0.2
									c0,0.1,0,0.1-0.1,0.1c0,0,0,0,0,0c-0.1,0-0.4-0.2-0.3-0.3c0,0,0-0.1,0-0.1c0,0-0.1-0.1-0.1-0.1c0,0-0.1,0.1-0.1,0.1
									c0,0,0,0,0,0c0,0,0,0,0,0.1c0,0.1-0.1,0.1-0.1,0.2c0,0,0,0,0,0c0,0-0.1,0-0.1-0.1c0,0-0.1,0-0.1-0.1c0,0-0.1,0.1-0.1,0.1
									c0,0-0.1,0.1-0.1,0.1c0,0,0,0.1,0,0.1c0,0.1,0,0.1,0,0.2c0,0-0.1,0-0.1,0c0,0-0.1,0-0.1,0c-0.2,0-0.2,0-0.2,0c0,0,0,0,0,0
									c-0.1,0.1-0.1,0.2,0,0.3c0.1,0.2,0.2,0.3,0.2,0.4c0,0,0,0.1,0,0.1c0,0,0,0.1,0,0.1c0,0,0.1,0,0.1,0c0.1,0,0.2,0,0.3-0.1
									c0,0,0.1-0.1,0.1-0.1C107.1,87.5,107.1,87.5,107.3,87.5C107.3,87.5,107.3,87.5,107.3,87.5z"/>
							</g>
						</g>
						<g>
							<g>
								<path class="st15" d="M108.1,85.3c0,0-0.2-0.1-0.4-0.1c-0.2,0-0.3-0.2-0.4-0.1c-0.1,0.1,0,0.2,0.1,0.3
									c0.1,0.1,0.2-0.1,0.3,0.1c0.1,0.2,0.1,0.2,0.2,0.3c0.1,0.1,0.2,0.1,0.2,0c0.1-0.1,0.1-0.2,0.2-0.1c0.1,0.1,0.2,0.1,0.3,0.1
									C108.6,85.7,108.3,85.4,108.1,85.3z"/>
								<path class="st15" d="M108.1,85.9c-0.1,0-0.1,0-0.2-0.1c-0.1-0.1-0.1-0.1-0.1-0.2c0,0,0-0.1-0.1-0.2c0-0.1-0.1-0.1-0.1-0.1
									c0,0,0,0,0,0c0,0,0,0,0,0c0,0-0.1,0-0.1,0c-0.1,0-0.2-0.2-0.2-0.3c0-0.1,0-0.1,0.1-0.1c0,0,0,0,0.1,0c0.1,0,0.1,0,0.2,0.1
									c0.1,0,0.1,0.1,0.2,0.1c0.2,0,0.4,0.1,0.5,0.1c0.1,0,0.3,0.2,0.3,0.3c0.2,0.2,0.2,0.3,0.2,0.3c0,0,0,0.1-0.1,0.1l0,0
									c-0.1,0-0.2,0-0.3-0.2c0,0,0,0,0,0c0,0,0,0-0.1,0.1C108.2,85.8,108.1,85.9,108.1,85.9z M107.6,85.3c0.1,0,0.1,0,0.2,0.1
									c0.1,0.1,0.1,0.1,0.1,0.2c0,0.1,0,0.1,0.1,0.1c0.1,0,0.1,0,0.1,0c0,0,0,0,0,0c0.1-0.1,0.1-0.2,0.2-0.2c0,0,0,0,0,0
									c-0.1-0.1-0.2-0.2-0.2-0.2c0,0,0,0,0,0c0,0-0.2-0.1-0.4-0.1c-0.1,0-0.2,0-0.3-0.1c0,0,0,0-0.1,0c0,0,0,0.1,0.1,0.1
									C107.5,85.3,107.5,85.3,107.6,85.3C107.5,85.3,107.5,85.3,107.6,85.3C107.5,85.3,107.6,85.3,107.6,85.3z"/>
							</g>
						</g>
						<g>
							<g>
								<path class="st15" d="M106.4,85.1c0,0,0,0,0-0.2c-0.1-0.1-0.2-0.1-0.2,0s-0.3,0.1-0.3,0.2c0,0.1,0,0.3,0.1,0.4
									c0.1,0,0.3,0.1,0.3,0C106.3,85.4,106.4,85.2,106.4,85.1z"/>
								<path class="st15" d="M106.2,85.6L106.2,85.6c-0.1,0-0.2,0-0.3,0c-0.1,0-0.1-0.1-0.1-0.1c0-0.1-0.1-0.2,0-0.3
									c0-0.1,0.2-0.2,0.2-0.2c0,0,0.1,0,0.1,0c0.1-0.1,0.1-0.1,0.2-0.1c0,0,0.1,0,0.2,0.1c0.1,0.1,0.1,0.2,0.1,0.2
									c0,0.1,0,0.2-0.1,0.3c0,0,0,0.1,0,0.1C106.3,85.5,106.3,85.6,106.2,85.6z M106.2,84.9C106.2,84.9,106.2,84.9,106.2,84.9
									c-0.1,0.1-0.2,0.1-0.2,0.1c-0.1,0-0.1,0.1-0.2,0.1c0,0.1,0,0.1,0,0.2c0,0,0,0.1,0.1,0.1c0.1,0,0.1,0,0.2,0l0,0c0,0,0,0,0,0
									c0,0,0-0.1,0-0.1c0-0.1,0.1-0.2,0.1-0.3c0,0,0,0,0,0C106.3,85,106.3,85,106.2,84.9C106.2,84.9,106.2,84.9,106.2,84.9z"/>
							</g>
						</g>
						<g>
							<g>
								<path class="st15" d="M105.5,85.4c0,0-0.2,0-0.3-0.2c-0.1-0.1-0.3-0.3-0.4-0.2c0,0,0.3,0.2,0.3,0.4c0.1,0.1,0.2,0.3,0.3,0.4
									c0.1,0.1,0.2-0.1,0.2-0.1C105.6,85.4,105.5,85.4,105.5,85.4z"/>
								<path class="st15" d="M105.5,85.7C105.5,85.7,105.5,85.7,105.5,85.7c0,0-0.1,0-0.1,0c-0.2-0.1-0.3-0.3-0.3-0.4
									c0,0-0.1-0.1-0.2-0.2c-0.1-0.1-0.2-0.1-0.2-0.2c0,0,0-0.1,0-0.1c0,0,0,0,0.1,0c0.1,0,0.3,0.1,0.4,0.3
									c0.1,0.1,0.2,0.2,0.2,0.2c0,0,0,0,0,0c0,0,0.1,0.1,0.2,0.2c0,0.1,0,0.1,0,0.2C105.6,85.7,105.6,85.7,105.5,85.7z
									 M105.3,85.4c0,0.1,0.1,0.2,0.2,0.2c0,0,0,0,0,0l0,0c0,0,0,0,0,0c0,0,0,0,0,0c0,0-0.1-0.1-0.1-0.1
									C105.4,85.4,105.3,85.4,105.3,85.4z"/>
							</g>
						</g>
						<g>
							<g>
								<path class="st15" d="M107.8,81.9c0,0,0.3,0,0.3-0.1c0-0.1-0.1-0.2-0.3-0.1c-0.1,0.1-0.2,0.1-0.2,0.2c0,0.1,0,0.3-0.2,0.4
									c-0.2,0-0.5,0.1-0.5,0.3c0.1,0.2,0.1,0.1,0.3,0c0.1-0.1,0.4-0.2,0.5-0.3c0-0.1,0.1-0.1,0.1-0.2
									C107.7,82,107.7,81.9,107.8,81.9z"/>
								<path class="st15" d="M107.1,82.8L107.1,82.8c-0.1,0-0.1,0-0.2-0.2c0-0.1,0-0.1,0-0.1c0.1-0.1,0.3-0.2,0.5-0.2l0,0
									c0.1,0,0.1-0.2,0.1-0.3c0-0.2,0.1-0.2,0.2-0.3c0,0,0.1,0,0.1,0c0.1,0,0.3,0.1,0.3,0.2c0,0,0,0.1,0,0.1c0,0-0.1,0.1-0.2,0.1
									c0,0-0.1,0-0.1,0c0,0,0,0.1,0,0.1c0,0.1,0,0.2,0,0.2c0,0,0,0,0,0c0,0.1-0.1,0.1-0.2,0.2c-0.1,0-0.2,0.1-0.2,0.2
									C107.2,82.8,107.1,82.8,107.1,82.8z M107.5,82.4C107.5,82.4,107.5,82.4,107.5,82.4L107.5,82.4c-0.2,0-0.4,0.1-0.4,0.2
									c0,0,0,0,0,0c0,0,0,0.1,0,0.1c0,0,0,0,0.1-0.1C107.3,82.5,107.4,82.5,107.5,82.4C107.5,82.4,107.5,82.4,107.5,82.4z
									 M107.7,82.1c0,0.1,0,0.1-0.1,0.2c0,0,0,0,0,0c0,0,0,0,0-0.1C107.7,82.2,107.7,82.2,107.7,82.1z M107.8,81.8
									C107.8,81.8,107.8,81.8,107.8,81.8c0,0,0.1,0,0.1,0c0,0,0,0,0,0C107.9,81.8,107.9,81.8,107.8,81.8
									C107.8,81.8,107.8,81.8,107.8,81.8C107.8,81.8,107.8,81.8,107.8,81.8z"/>
							</g>
						</g>
					</g>
				</g>
			</g>
			<g>
				<g>
					<path class="st15" d="M96.5,91.6c-1.9,0.1-3.7-0.5-5.1-1.7c-1.4-1.2-2.3-3-2.4-4.8c-0.2-1.9,0.4-3.8,1.7-5.2
						c1.2-1.5,3-2.3,4.9-2.5c0,0,0.1,0,0.1,0c1.9-0.1,3.7,0.5,5.1,1.7c1.4,1.2,2.3,3,2.4,4.8c0.3,3.9-2.6,7.4-6.6,7.7
						C96.6,91.6,96.5,91.6,96.5,91.6z M95.6,77.5c0,0-0.1,0-0.1,0c-1.9,0.2-3.6,1-4.8,2.4c-1.2,1.4-1.8,3.2-1.6,5.1
						c0.3,3.8,3.6,6.7,7.4,6.4c0,0,0.1,0,0.1,0c3.9-0.3,6.7-3.7,6.4-7.6C102.7,80.1,99.4,77.2,95.6,77.5z"/>
				</g>
			</g>
		</g>
	</g>
	<g>
		<path class="st26" d="M140.4,83.3l-25.1-4.8c-1.2-0.2-2-1.4-1.8-2.6l0.3-1.6c0.2-1.2,1.4-2,2.6-1.8l25.1,4.8
			c1.2,0.2,2,1.4,1.8,2.6l-0.3,1.6C142.8,82.8,141.6,83.5,140.4,83.3z"/>
		<g>
			<g>
				<path class="st27" d="M122.9,76.8l0.6,0.5l-0.4,0.5l-0.6-0.5l-0.1,0.8l-0.6-0.1l0.1-0.8l-0.7,0.3l-0.2-0.6l0.7-0.3l-0.6-0.5
					l0.4-0.5l0.6,0.5l0.1-0.8l0.6,0.1l-0.1,0.8l0.7-0.3l0.2,0.6L122.9,76.8z"/>
			</g>
			<g>
				<path class="st27" d="M119.2,76.1l0.6,0.5l-0.4,0.5l-0.6-0.5l-0.1,0.8l-0.6-0.1l0.1-0.8l-0.7,0.3l-0.2-0.6l0.7-0.3l-0.6-0.5
					l0.4-0.5l0.6,0.5l0.1-0.8l0.6,0.1l-0.1,0.8l0.7-0.3l0.2,0.6L119.2,76.1z"/>
			</g>
			<g>
				<path class="st27" d="M126.9,77.6l0.6,0.5l-0.4,0.5l-0.6-0.5l-0.1,0.8l-0.6-0.1l0.1-0.8l-0.7,0.3l-0.2-0.6l0.7-0.3l-0.6-0.5
					l0.4-0.5l0.6,0.5l0.1-0.8l0.6,0.1l-0.1,0.8l0.7-0.3l0.2,0.6L126.9,77.6z"/>
			</g>
			<g>
				<path class="st27" d="M130.9,78.3l0.6,0.5l-0.4,0.5l-0.6-0.5l-0.1,0.8l-0.6-0.1l0.1-0.8l-0.7,0.3l-0.2-0.6l0.7-0.3l-0.6-0.5
					l0.4-0.5l0.6,0.5l0.1-0.8l0.6,0.1l-0.1,0.8l0.7-0.3l0.2,0.6L130.9,78.3z"/>
			</g>
			<g>
				<path class="st27" d="M134.9,79.1l0.6,0.5l-0.4,0.5l-0.6-0.5l-0.1,0.8l-0.6-0.1l0.1-0.8l-0.7,0.3l-0.2-0.6l0.7-0.3l-0.6-0.5
					l0.4-0.5l0.6,0.5l0.1-0.8l0.6,0.1l-0.1,0.8l0.7-0.3l0.2,0.6L134.9,79.1z"/>
			</g>
			<g>
				<path class="st27" d="M138.8,79.9l0.6,0.5l-0.4,0.5l-0.6-0.5l-0.1,0.8l-0.6-0.1l0.1-0.8l-0.7,0.3l-0.2-0.6l0.7-0.3l-0.6-0.5
					l0.4-0.5l0.6,0.5l0.1-0.8l0.6,0.1l-0.1,0.8l0.7-0.3l0.2,0.6L138.8,79.9z"/>
			</g>
		</g>
	</g>
	<g>
		<path class="st26" d="M141.9,76.2l-25.1-4.8c-1.2-0.2-2-1.4-1.8-2.6l0.3-1.6c0.2-1.2,1.4-2,2.6-1.8l25.1,4.8
			c1.2,0.2,2,1.4,1.8,2.6l-0.3,1.6C144.3,75.6,143.1,76.4,141.9,76.2z"/>
		<g>
			<circle class="st27" cx="118.6" cy="67.8" r="0.8"/>
			<path class="st27" d="M119.5,70.2c-0.1,0.7-2.7,0.2-2.5-0.5s0.8-1.1,1.5-1C119.1,68.9,119.6,69.5,119.5,70.2z"/>
		</g>
		<text transform="matrix(0.9819 0.1894 -0.1894 0.9819 124.5328 70.8012)" class="st18 st28 st29">USER ID</text>
	</g>
	<g>
		<g>
			<g>
				<path class="st27" d="M138.7,90.6l-24.8-4.8c-1-0.2-1.6-1.1-1.4-2.1l0.2-0.8c0.2-1,1.1-1.6,2.1-1.4l24.8,4.8
					c1,0.2,1.6,1.1,1.4,2.1l-0.2,0.8C140.6,90.1,139.7,90.7,138.7,90.6z"/>
			</g>
		</g>
		<g>
			<path class="st2" d="M124,84.7l0.7,0.1c0.5,0.1,0.8,0.5,0.7,0.9c-0.1,0.5-0.5,0.7-1,0.6l-0.7-0.1L124,84.7z M124.4,86
				c0.3,0.1,0.5-0.1,0.6-0.4c0.1-0.3-0.1-0.5-0.4-0.6l-0.3-0.1l-0.2,0.9L124.4,86z"/>
			<path class="st2" d="M125.5,85.9c0.1-0.4,0.4-0.5,0.8-0.5s0.6,0.4,0.5,0.7c-0.1,0.4-0.4,0.5-0.8,0.5
				C125.6,86.6,125.4,86.3,125.5,85.9z M126.4,86.1c0-0.2-0.1-0.3-0.2-0.4c-0.2,0-0.3,0.1-0.4,0.3s0.1,0.3,0.2,0.4
				S126.4,86.3,126.4,86.1z"/>
			<path class="st2" d="M128.2,86.4l-0.1,0.7l-0.3-0.1l0.1-0.6c0-0.2,0-0.3-0.2-0.3c-0.2,0-0.3,0-0.3,0.3l-0.1,0.6l-0.3-0.1l0.2-1.2
				l0.3,0.1l0,0.1c0.1-0.1,0.3-0.1,0.4-0.1C128.1,85.8,128.3,86,128.2,86.4z"/>
			<path class="st2" d="M129.6,86.8l-0.9-0.2c0,0.2,0.1,0.3,0.3,0.3c0.1,0,0.2,0,0.3-0.1l0.1,0.2c-0.1,0.1-0.3,0.1-0.5,0.1
				c-0.4-0.1-0.6-0.4-0.5-0.7c0.1-0.3,0.4-0.5,0.7-0.5C129.5,86.1,129.7,86.4,129.6,86.8C129.6,86.8,129.6,86.8,129.6,86.8z
				 M128.8,86.5l0.6,0.1c0-0.2-0.1-0.3-0.2-0.3C128.9,86.2,128.8,86.3,128.8,86.5z"/>
		</g>
	</g>
</g>
<g>
	<g>
		<path class="st30" d="M103.3,30c-2.4,0.6-4.8-0.7-5.5-2.9c-0.7-2.2,0.7-4.5,3-5.2c2.4-0.6,4.8,0.7,5.5,2.9
			C107,27.1,105.6,29.4,103.3,30z"/>
	</g>
	<line class="st31" x1="108.9" y1="20.2" x2="126.9" y2="15.8"/>
	<line class="st31" x1="110.9" y1="24" x2="119.7" y2="21.8"/>
</g>
</svg>
