<svg xmlns="http://www.w3.org/2000/svg" xmlns:xlink="http://www.w3.org/1999/xlink" viewBox="0 0 751.16 587.68"><defs><style>.cls-1{fill:url(#linear-gradient);}.cls-2{isolation:isolate;}.cls-3{fill:#ebf0f2;}.cls-4{fill:#dcdfe0;}.cls-5{fill:#b6d2de;}.cls-6{fill:#d1e7f0;}.cls-7{fill:#e6eaeb;}.cls-8{fill:#f5f9fa;}.cls-9{fill:#303b59;}.cls-10{fill:#262e48;}.cls-11,.cls-19{opacity:0.7;}.cls-12{fill:#363536;}.cls-13{fill:#5a5d5c;}.cls-14{fill:#95b2ba;}.cls-15{fill:#799199;}.cls-16{fill:#a5a5a5;}.cls-17{fill:#f6f6f6;}.cls-18{mask:url(#mask);}.cls-183,.cls-19,.cls-196{mix-blend-mode:multiply;}.cls-20{fill:#3a3132;}.cls-21{fill:#3b3233;opacity:0.99;}.cls-22{fill:#3c3334;opacity:0.99;}.cls-23{fill:#3d3435;opacity:0.98;}.cls-24{fill:#3d3536;opacity:0.98;}.cls-25{fill:#3e3636;opacity:0.97;}.cls-26{fill:#3f3637;opacity:0.97;}.cls-27{fill:#403738;opacity:0.96;}.cls-28{fill:#413839;opacity:0.96;}.cls-29{fill:#42393a;opacity:0.95;}.cls-30{fill:#423a3b;opacity:0.95;}.cls-31{fill:#433b3c;opacity:0.94;}.cls-32{fill:#443c3d;opacity:0.94;}.cls-33{fill:#453d3e;opacity:0.93;}.cls-34{fill:#463e3f;opacity:0.93;}.cls-35{fill:#473f3f;opacity:0.92;}.cls-36{fill:#473f40;opacity:0.92;}.cls-37{fill:#484041;opacity:0.91;}.cls-38{fill:#494142;opacity:0.9;}.cls-39{fill:#4a4243;opacity:0.9;}.cls-40{fill:#4b4344;opacity:0.89;}.cls-41{fill:#4c4445;opacity:0.89;}.cls-42{fill:#4d4546;opacity:0.88;}.cls-43{fill:#4d4647;opacity:0.88;}.cls-44{fill:#4e4747;opacity:0.87;}.cls-45{fill:#4f4848;opacity:0.87;}.cls-46{fill:#504849;opacity:0.86;}.cls-47{fill:#51494a;opacity:0.86;}.cls-48{fill:#524a4b;opacity:0.85;}.cls-49{fill:#524b4c;opacity:0.85;}.cls-50{fill:#534c4d;opacity:0.84;}.cls-51{fill:#544d4e;opacity:0.84;}.cls-52{fill:#554e4f;opacity:0.83;}.cls-53{fill:#564f50;opacity:0.83;}.cls-54{fill:#575050;opacity:0.82;}.cls-55{fill:#575151;opacity:0.81;}.cls-56{fill:#585152;opacity:0.81;}.cls-57{fill:#595253;opacity:0.8;}.cls-58{fill:#5a5354;opacity:0.8;}.cls-59{fill:#5b5455;opacity:0.79;}.cls-60{fill:#5c5556;opacity:0.79;}.cls-61{fill:#5c5657;opacity:0.78;}.cls-62{fill:#5d5758;opacity:0.78;}.cls-63{fill:#5e5858;opacity:0.77;}.cls-64{fill:#5f5959;opacity:0.77;}.cls-65{fill:#605a5a;opacity:0.76;}.cls-66{fill:#615a5b;opacity:0.76;}.cls-67{fill:#625b5c;opacity:0.75;}.cls-68{fill:#625c5d;opacity:0.75;}.cls-69{fill:#635d5e;opacity:0.74;}.cls-70{fill:#645e5f;opacity:0.74;}.cls-71{fill:#655f60;opacity:0.73;}.cls-72{fill:#666060;opacity:0.72;}.cls-73{fill:#676161;opacity:0.72;}.cls-74{fill:#676262;opacity:0.71;}.cls-75{fill:#686363;opacity:0.71;}.cls-76{fill:#696364;opacity:0.7;}.cls-77{fill:#6a6465;opacity:0.7;}.cls-78{fill:#6b6566;opacity:0.69;}.cls-79{fill:#6c6667;opacity:0.69;}.cls-80{fill:#6c6768;opacity:0.68;}.cls-81{fill:#6d6869;opacity:0.68;}.cls-82{fill:#6e6969;opacity:0.67;}.cls-83{fill:#6f6a6a;opacity:0.67;}.cls-84{fill:#706b6b;opacity:0.66;}.cls-85{fill:#716c6c;opacity:0.66;}.cls-86{fill:#726c6d;opacity:0.65;}.cls-87{fill:#726d6e;opacity:0.65;}.cls-88{fill:#736e6f;opacity:0.64;}.cls-89{fill:#746f70;opacity:0.63;}.cls-90{fill:#757071;opacity:0.63;}.cls-91{fill:#767171;opacity:0.62;}.cls-92{fill:#777272;opacity:0.62;}.cls-93{fill:#777373;opacity:0.61;}.cls-94{fill:#787474;opacity:0.61;}.cls-95{fill:#797575;opacity:0.6;}.cls-96{fill:#7a7576;opacity:0.6;}.cls-97{fill:#7b7677;opacity:0.59;}.cls-98{fill:#7c7778;opacity:0.59;}.cls-99{fill:#7c7879;opacity:0.58;}.cls-100{fill:#7d797a;opacity:0.58;}.cls-101{fill:#7e7a7a;opacity:0.57;}.cls-102{fill:#7f7b7b;opacity:0.57;}.cls-103{fill:#807c7c;opacity:0.56;}.cls-104{fill:#817d7d;opacity:0.55;}.cls-105{fill:#817e7e;opacity:0.55;}.cls-106{fill:#827e7f;opacity:0.54;}.cls-107{fill:#837f80;opacity:0.54;}.cls-108{fill:#848081;opacity:0.53;}.cls-109{fill:#858182;opacity:0.53;}.cls-110{fill:#868282;opacity:0.52;}.cls-111{fill:#878383;opacity:0.52;}.cls-112{fill:#878484;opacity:0.51;}.cls-113{fill:#888585;opacity:0.51;}.cls-114{fill:#898686;opacity:0.5;}.cls-115{fill:#8a8787;opacity:0.5;}.cls-116{fill:#8b8788;opacity:0.49;}.cls-117{fill:#8c8889;opacity:0.49;}.cls-118{fill:#8c898a;opacity:0.48;}.cls-119{fill:#8d8a8b;opacity:0.48;}.cls-120{fill:#8e8b8b;opacity:0.47;}.cls-121{fill:#8f8c8c;opacity:0.46;}.cls-122{fill:#908d8d;opacity:0.46;}.cls-123{fill:#918e8e;opacity:0.45;}.cls-124{fill:#918f8f;opacity:0.45;}.cls-125{fill:#929090;opacity:0.44;}.cls-126{fill:#939091;opacity:0.44;}.cls-127{fill:#949192;opacity:0.43;}.cls-128{fill:#959293;opacity:0.43;}.cls-129{fill:#969393;opacity:0.42;}.cls-130{fill:#979494;opacity:0.42;}.cls-131{fill:#979595;opacity:0.41;}.cls-132{fill:#989696;opacity:0.41;}.cls-133{fill:#999797;opacity:0.4;}.cls-134{fill:#9a9898;opacity:0.4;}.cls-135{fill:#9b9999;opacity:0.39;}.cls-136{fill:#9c999a;opacity:0.39;}.cls-137{fill:#9c9a9b;opacity:0.38;}.cls-138{fill:#9d9b9b;opacity:0.37;}.cls-139{fill:#9e9c9c;opacity:0.37;}.cls-140{fill:#9f9d9d;opacity:0.36;}.cls-141{fill:#a09e9e;opacity:0.36;}.cls-142{fill:#a19f9f;opacity:0.35;}.cls-143{fill:#a1a0a0;opacity:0.35;}.cls-144{fill:#a2a1a1;opacity:0.34;}.cls-145,.cls-182{fill:#a3a2a2;}.cls-145{opacity:0.34;}.cls-146{fill:#a4a2a3;opacity:0.33;}.cls-147{fill:#a5a3a4;opacity:0.33;}.cls-148{fill:#a6a4a4;opacity:0.32;}.cls-149{fill:#a6a5a5;opacity:0.32;}.cls-150{fill:#a7a6a6;opacity:0.31;}.cls-151{fill:#a8a7a7;opacity:0.31;}.cls-152{fill:#a9a8a8;opacity:0.3;}.cls-153{fill:#aaa9a9;opacity:0.3;}.cls-154{fill:#abaaaa;opacity:0.29;}.cls-155{fill:#acabab;opacity:0.28;}.cls-156{fill:#acabac;opacity:0.28;}.cls-157{fill:#adacac;opacity:0.27;}.cls-158{fill:#aeadad;opacity:0.27;}.cls-159{fill:#afaeae;opacity:0.26;}.cls-160{fill:#b0afaf;opacity:0.26;}.cls-161{fill:#b1b0b0;opacity:0.25;}.cls-162{fill:#b1b1b1;opacity:0.25;}.cls-163{fill:#b2b2b2;opacity:0.24;}.cls-164{fill:#b3b3b3;opacity:0.24;}.cls-165{fill:#b4b4b4;opacity:0.23;}.cls-166{fill:#b5b4b5;opacity:0.23;}.cls-167{fill:#b6b5b5;opacity:0.22;}.cls-168{fill:#b6b6b6;opacity:0.22;}.cls-169{fill:#b7b7b7;opacity:0.21;}.cls-170{fill:#b8b8b8;opacity:0.21;}.cls-171{fill:#b9b9b9;}.cls-171,.cls-196{opacity:0.2;}.cls-172{fill:#090604;}.cls-173{fill:#494a4d;}.cls-174{fill:url(#linear-gradient-2);}.cls-175{fill:#313938;}.cls-176{fill:url(#linear-gradient-3);}.cls-177{fill:url(#linear-gradient-4);}.cls-178{fill:#fdfdfd;}.cls-179{fill:#1e1e1e;}.cls-180{fill:#515352;}.cls-181{fill:#444545;}.cls-183{opacity:0.5;fill:url(#linear-gradient-5);}.cls-184{fill:#1e1d15;}.cls-185{fill:#323132;}.cls-186{fill:#424143;}.cls-187{fill:#111314;}.cls-188{fill:#474747;}.cls-189{fill:#5b5b5b;}.cls-190{fill:#17191a;}.cls-191{fill:#d4b7b1;}.cls-192,.cls-196{fill:#583b5a;}.cls-193{fill:#6f5472;}.cls-194,.cls-198,.cls-200,.cls-202,.cls-203,.cls-204{fill:none;stroke-linecap:round;stroke-linejoin:round;}.cls-194{stroke:#fff;stroke-width:1.24px;}.cls-195{fill:#e5b587;}.cls-197{fill:#b4ac15;}.cls-198,.cls-200,.cls-204{stroke:#242638;}.cls-198{stroke-width:0.49px;}.cls-199{fill:#d1c63b;}.cls-200{stroke-width:0.27px;}.cls-201{fill:#8c8310;}.cls-202,.cls-203{stroke:#d6dde5;}.cls-202{stroke-width:0.4px;}.cls-203{stroke-width:0.48px;}.cls-204{stroke-width:0.1px;}.cls-205{fill:#37374f;}</style><linearGradient id="linear-gradient" x1="128.38" y1="171.96" x2="165.33" y2="202.96" gradientUnits="userSpaceOnUse"><stop offset="0" stop-color="#fff"/><stop offset="0.37" stop-color="#fdfdfd"/><stop offset="0.51" stop-color="#f6f6f6"/><stop offset="0.6" stop-color="#ebebeb"/><stop offset="0.68" stop-color="#dadada"/><stop offset="0.75" stop-color="#c4c4c4"/><stop offset="0.8" stop-color="#a8a8a8"/><stop offset="0.86" stop-color="#888"/><stop offset="0.91" stop-color="#626262"/><stop offset="0.95" stop-color="#373737"/><stop offset="0.99" stop-color="#090909"/><stop offset="1"/></linearGradient><mask id="mask" x="75.18" y="32.87" width="121.57" height="72.58" maskUnits="userSpaceOnUse"><g transform="translate(-10.84 -117)"><polygon class="cls-1" points="207.59 152.39 207.29 152.96 148.37 222.45 86.02 222.45 147.3 149.87 207.59 152.39"/></g></mask><linearGradient id="linear-gradient-2" x1="142.43" y1="29.56" x2="196.15" y2="29.56" gradientUnits="userSpaceOnUse"><stop offset="0" stop-color="#191d1c"/><stop offset="1" stop-color="#3e3d3e"/></linearGradient><linearGradient id="linear-gradient-3" x1="109.84" y1="653.07" x2="109.84" y2="130.41" gradientUnits="userSpaceOnUse"><stop offset="0" stop-color="#5b5a5b"/><stop offset="1" stop-color="#a1a09d"/></linearGradient><linearGradient id="linear-gradient-4" x1="89.16" y1="653.07" x2="89.16" y2="130.41" gradientUnits="userSpaceOnUse"><stop offset="0" stop-color="#b5b4b0"/><stop offset="0.39" stop-color="#b7b5b3"/><stop offset="0.94" stop-color="#c8c7c7"/><stop offset="1" stop-color="#b3b3b3"/></linearGradient><linearGradient id="linear-gradient-5" x1="142.43" y1="32.36" x2="190.66" y2="32.36" gradientUnits="userSpaceOnUse"><stop offset="0" stop-color="#fff"/><stop offset="0.08" stop-color="#e1e1e1"/><stop offset="0.28" stop-color="#9e9e9e"/><stop offset="0.46" stop-color="#666"/><stop offset="0.63" stop-color="#3a3a3a"/><stop offset="0.78" stop-color="#1a1a1a"/><stop offset="0.91" stop-color="#070707"/><stop offset="1"/></linearGradient></defs><g class="cls-2"><g id="Layer_1" data-name="Layer 1"><rect class="cls-3" x="3.3" y="500.45" width="684.74" height="85.21" rx="18.93"/><path class="cls-4" d="M695.84,636.38c-13.17,0-189,1.44-196.65,0C459.77,628.94,481,569.77,450.37,577a159.39,159.39,0,0,0-21.24,6.71c-3.82,1.5-6.45,5.92-6.22,10.75a13.81,13.81,0,0,0-3.51,6.5,15.42,15.42,0,0,0-.38,2.39q-4.95.3-9.88.71c-11.22.95-22.24,1.42-31.45,10.25-3.34,3.21-3.19,8.47-1.26,12.46-5.06-.85-10.12-1.75-15.21-2.65-13.55-2.39-27.18-4.33-40.9-3.56a8.9,8.9,0,0,0-7.65,6q-9.8-3-19.56-6.25c-4.42-1.45-9.21,1.83-10.43,7.29a12.59,12.59,0,0,0,.82,7.84c-19.86-2.24-39.86-2.06-59.92-1.14-16,.74-32,1.76-48,1.84-13.64.07-26.06.22-38.4-4.57a37.79,37.79,0,0,1-13.56-9.17c-3.4-3.77-76.66,18-80,22.16-3.13,3.84-32.9,7.86-29.49,11.66,11.07,12.37,70.49,15,85.06,16.81,15.18,1.9,79.19-6.87,94.41-7.52,32.42-1.37,69.12-13.7,101.33-7.58,58.35,11.1,103.08,23,161.57,33.32,33.05,5.85,67.65-4,100.18-12.25,14.93-3.8,36.21,22.78,49,12.23,6-5,11.49-10.88,17.73-15.45q2.12-1.54,4.33-2.86l1.54-.88.52-.3.57-.25c3-1.35,5.92-2.59,8.94-3.64,12.18-4.23,72,9.52,83.73,3.46C736,664.64,700.71,636.38,695.84,636.38Z" transform="translate(-10.84 -117)"/><rect class="cls-5" x="103.1" width="547.18" height="527.41" rx="11.29"/><path class="cls-6" d="M661.12,154.89v-26.6A11.3,11.3,0,0,0,649.82,117H125.23a11.3,11.3,0,0,0-11.3,11.29V633.11a11.3,11.3,0,0,0,11.3,11.3h84.38q13.33-7.62,26.41-15.76a846.13,846.13,0,0,0,111.59-83.51,795.35,795.35,0,0,0,92.08-96.41c28.23-35,53.95-71.9,79.18-109.1,26.3-38.79,52.24-77.86,80.75-115.07C618.68,200.09,639,176.56,661.12,154.89Z" transform="translate(-10.84 -117)"/><rect class="cls-7" x="187.19" y="58.99" width="423.48" height="238.48" rx="11.24"/><path class="cls-8" d="M356.33,176.41a595,595,0,0,0-45.72,65c-6.2,10.14-12,20.55-18.4,30.57-1.27,2-2.56,4-3.89,6l-.9,1.4c-.63.89-1.3,1.75-1.95,2.61-3.66,4.9-7.6,9.55-11.68,14-15.23,16.76-31.77,31.87-46.21,49.51A422.85,422.85,0,0,0,197,387.91v15.68c0,6.24,5.09,6.36,10.78,6.36L340,413.18c.92-.84,0,0,.92-.83,1.33-1.2,2.65-2.39,4-3.56l2-1.75.6-.52c11.61-9.56,23.75-18,36.1-26.31,13.07-8.83,25.76-18.5,36.64-30.45,9.81-10.78,18.31-23.07,26-35.7,14.52-23.8,26-49.62,40.09-73.72,2-3.38,4-6.73,6.09-10,1-1.59,2-3.17,3.08-4.74.49-.75,1-1.49,1.5-2.24.24-.35.75-1.21,1.08-1.81,4.13-6.64,9.88-12.74,14.89-18.44a240.44,240.44,0,0,1,17.07-17.59q2.17-2,4.39-4c.81-.72,1.64-1.43,2.45-2.16q1.82-1.48,3.66-2.94Z" transform="translate(-10.84 -117)"/><path class="cls-9" d="M610.3,183.25a4,4,0,0,1,4,4V403.17a4,4,0,0,1-4,4H208.24a4,4,0,0,1-4-4V187.29a4,4,0,0,1,4-4Zm0-7.26H208.24A11.25,11.25,0,0,0,197,187.29V403.17a11.25,11.25,0,0,0,11.21,11.3H610.3a11.26,11.26,0,0,0,11.21-11.3V187.29A11.26,11.26,0,0,0,610.3,176Z" transform="translate(-10.84 -117)"/><rect class="cls-10" x="400.11" y="13.41" width="159.74" height="28.94" rx="5.71"/><rect class="cls-10" x="400.11" y="323.25" width="136.34" height="20.06" rx="5.71"/><g class="cls-11"><path class="cls-12" d="M733.1,671.94l24.62-10.27a1.24,1.24,0,0,0,.76-1.15v-2.45a1.25,1.25,0,0,0-.42-1,.72.72,0,0,0-.21-.12,1.46,1.46,0,0,1-.43.84c-.32.21-24.08,9.9-24.08,9.9s-.54,0-.51-.9-2.87.91-2.87.91l1.92,3.44Z" transform="translate(-10.84 -117)"/></g><polygon class="cls-13" points="747.01 537.59 721.74 533.6 721.74 549.51 746.24 540.08 747.01 538.95 747.01 537.59"/><path class="cls-12" d="M633.21,452.09c-.15-28.91,9.35-47.61,9.35-47.61S659.6,363,663.38,355s11.09-4.61,11.09-4.61L757,351.6c7.11,1.41,4.55,7.62,4.55,7.62l-16.78,42.31s-4,7.27-7.85,23S733,460.87,733,460.87l0,57.56H633.33C633.3,488.14,633.25,461.93,633.21,452.09Z" transform="translate(-10.84 -117)"/><path class="cls-12" d="M733,518.43l0,139.05s.27,8.68.43,9.44a6,6,0,0,0,1.37,2s-98.54-12-99.69-12.44-1.66-5.11-1.66-5.11,0-74.14-.09-132.9Z" transform="translate(-10.84 -117)"/><path class="cls-12" d="M733.1,669.55l24.62-10.28a1.22,1.22,0,0,0,.76-1.13v-2.46a1.23,1.23,0,0,0-.42-1,.74.74,0,0,0-.21-.13,1.46,1.46,0,0,1-.43.84c-.32.22-24.08,9.9-24.08,9.9s-.54,0-.51-.9-2.87.92-2.87.92l1.92,3.43Z" transform="translate(-10.84 -117)"/><path class="cls-14" d="M631.54,452.77c-.15-28.92,9.34-47.62,9.34-47.62s17-41.43,20.83-49.52,11.33-7,11.33-7l82.28,2.51c7.26.65,4.39,6.91,4.39,6.91l-16.62,44.17s-4,7.25-7.84,23-3.88,36.32-3.88,36.32l0,61.25-99.69-3.68C631.63,488.81,631.58,462.61,631.54,452.77Z" transform="translate(-10.84 -117)"/><path class="cls-15" d="M731.34,519.11l0,139s.26,8.68.43,9.44a6.06,6.06,0,0,0,1.37,1.95s-98.55-12-99.7-12.44-1.65-5.1-1.65-5.1,0-74.15-.1-132.9Z" transform="translate(-10.84 -117)"/><path class="cls-15" d="M632.81,434c3.57-16.52,10.53-34.82,10.53-34.82s51.31-22.69,56.55-25.37c9-4.61,58.59-21.79,58.59-21.79l1.23,6a263.37,263.37,0,0,1-18.93,53.24c-4.19,8.64-6,24.4-6,24.4l-3.43,30.22-99.68,61.55C631.52,383.84,632.11,437.27,632.81,434Z" transform="translate(-10.84 -117)"/><polygon class="cls-16" points="729.95 252 731.24 255.03 720.77 281.24 647.91 278.76 646.87 276.34 729.95 252"/><polygon class="cls-17" points="729.95 252 719.63 279.52 646.87 276.34 657.98 249.09 729.95 252"/><g class="cls-18"><g class="cls-19"><polygon class="cls-20" points="196.75 35.39 135 35.39 141.18 36.4 196.45 35.89 196.75 35.39"/><polygon class="cls-21" points="196.36 35.85 134.62 35.85 140.79 36.86 196.06 36.35 196.36 35.85"/><polygon class="cls-22" points="195.97 36.3 134.23 36.3 140.4 37.32 195.67 36.81 195.97 36.3"/><polygon class="cls-23" points="195.58 36.76 133.84 36.76 140.01 37.77 195.28 37.27 195.58 36.76"/><polygon class="cls-24" points="195.19 37.22 133.45 37.22 139.62 38.23 194.89 37.72 195.19 37.22"/><polygon class="cls-25" points="194.8 37.67 133.06 37.67 139.23 38.69 194.5 38.18 194.8 37.67"/><polygon class="cls-26" points="194.41 38.13 132.67 38.13 138.84 39.15 194.11 38.64 194.41 38.13"/><polygon class="cls-27" points="194.03 38.59 132.28 38.59 138.45 39.6 193.72 39.09 194.03 38.59"/><polygon class="cls-28" points="193.63 39.05 131.89 39.05 138.06 40.06 193.34 39.55 193.63 39.05"/><polygon class="cls-29" points="193.25 39.5 131.5 39.5 137.67 40.52 192.94 40.01 193.25 39.5"/><polygon class="cls-30" points="192.86 39.96 131.11 39.96 137.28 40.97 192.56 40.47 192.86 39.96"/><polygon class="cls-31" points="192.47 40.42 130.72 40.42 136.9 41.43 192.17 40.92 192.47 40.42"/><polygon class="cls-32" points="192.08 40.88 130.33 40.88 136.5 41.89 191.78 41.38 192.08 40.88"/><polygon class="cls-33" points="191.69 41.33 129.94 41.33 136.12 42.35 191.39 41.84 191.69 41.33"/><polygon class="cls-34" points="191.3 41.79 129.55 41.79 135.73 42.8 191 42.3 191.3 41.79"/><polygon class="cls-35" points="190.91 42.25 129.16 42.25 135.34 43.26 190.61 42.75 190.91 42.25"/><polygon class="cls-36" points="190.52 42.7 128.77 42.7 134.95 43.72 190.22 43.21 190.52 42.7"/><polygon class="cls-37" points="190.13 43.16 128.38 43.16 134.56 44.17 189.83 43.67 190.13 43.16"/><polygon class="cls-38" points="189.74 43.62 127.99 43.62 134.17 44.63 189.44 44.13 189.74 43.62"/><polygon class="cls-39" points="189.35 44.08 127.6 44.08 133.78 45.09 189.05 44.58 189.35 44.08"/><polygon class="cls-40" points="188.96 44.53 127.21 44.53 133.39 45.55 188.66 45.04 188.96 44.53"/><polygon class="cls-41" points="188.57 44.99 126.82 44.99 133 46 188.27 45.5 188.57 44.99"/><polygon class="cls-42" points="188.18 45.45 126.43 45.45 132.61 46.46 187.88 45.95 188.18 45.45"/><polygon class="cls-43" points="187.79 45.91 126.04 45.91 132.22 46.92 187.49 46.41 187.79 45.91"/><polygon class="cls-44" points="187.4 46.36 125.65 46.36 131.83 47.38 187.1 46.87 187.4 46.36"/><polygon class="cls-45" points="187.01 46.82 125.26 46.82 131.44 47.83 186.71 47.33 187.01 46.82"/><polygon class="cls-46" points="186.62 47.28 124.87 47.28 131.05 48.29 186.32 47.78 186.62 47.28"/><polygon class="cls-47" points="186.23 47.73 124.48 47.73 130.66 48.75 185.93 48.24 186.23 47.73"/><polygon class="cls-48" points="185.84 48.19 124.09 48.19 130.27 49.2 185.54 48.7 185.84 48.19"/><polygon class="cls-49" points="185.45 48.65 123.7 48.65 129.88 49.66 185.15 49.16 185.45 48.65"/><polygon class="cls-50" points="185.06 49.11 123.32 49.11 129.49 50.12 184.76 49.61 185.06 49.11"/><polygon class="cls-51" points="184.67 49.56 122.93 49.56 129.1 50.58 184.37 50.07 184.67 49.56"/><polygon class="cls-52" points="184.28 50.02 122.54 50.02 128.71 51.03 183.98 50.53 184.28 50.02"/><polygon class="cls-53" points="183.89 50.48 122.15 50.48 128.32 51.49 183.59 50.98 183.89 50.48"/><polygon class="cls-54" points="183.5 50.94 121.76 50.94 127.93 51.95 183.2 51.44 183.5 50.94"/><polygon class="cls-55" points="183.11 51.39 121.37 51.39 127.54 52.41 182.81 51.9 183.11 51.39"/><polygon class="cls-56" points="182.72 51.85 120.98 51.85 127.15 52.86 182.43 52.36 182.72 51.85"/><polygon class="cls-57" points="182.34 52.31 120.59 52.31 126.76 53.32 182.03 52.81 182.34 52.31"/><polygon class="cls-58" points="181.94 52.77 120.2 52.77 126.37 53.78 181.65 53.27 181.94 52.77"/><polygon class="cls-59" points="181.56 53.22 119.81 53.22 125.98 54.23 181.26 53.73 181.56 53.22"/><polygon class="cls-60" points="181.17 53.68 119.42 53.68 125.59 54.69 180.87 54.19 181.17 53.68"/><polygon class="cls-61" points="180.78 54.14 119.03 54.14 125.2 55.15 180.48 54.64 180.78 54.14"/><polygon class="cls-62" points="180.39 54.59 118.64 54.59 124.82 55.61 180.09 55.1 180.39 54.59"/><polygon class="cls-63" points="180 55.05 118.25 55.05 124.43 56.06 179.7 55.56 180 55.05"/><polygon class="cls-64" points="179.61 55.51 117.86 55.51 124.04 56.52 179.31 56.01 179.61 55.51"/><polygon class="cls-65" points="179.22 55.97 117.47 55.97 123.65 56.98 178.92 56.47 179.22 55.97"/><polygon class="cls-66" points="178.83 56.42 117.08 56.42 123.26 57.44 178.53 56.93 178.83 56.42"/><polygon class="cls-67" points="178.44 56.88 116.69 56.88 122.87 57.89 178.14 57.39 178.44 56.88"/><polygon class="cls-68" points="178.05 57.34 116.3 57.34 122.48 58.35 177.75 57.84 178.05 57.34"/><polygon class="cls-69" points="177.66 57.8 115.91 57.8 122.09 58.81 177.36 58.3 177.66 57.8"/><polygon class="cls-70" points="177.27 58.25 115.52 58.25 121.7 59.27 176.97 58.76 177.27 58.25"/><polygon class="cls-71" points="176.88 58.71 115.13 58.71 121.31 59.72 176.58 59.22 176.88 58.71"/><polygon class="cls-72" points="176.49 59.17 114.74 59.17 120.92 60.18 176.19 59.67 176.49 59.17"/><polygon class="cls-73" points="176.1 59.62 114.35 59.62 120.53 60.64 175.8 60.13 176.1 59.62"/><polygon class="cls-74" points="175.71 60.08 113.96 60.08 120.14 61.09 175.41 60.59 175.71 60.08"/><polygon class="cls-75" points="175.32 60.54 113.57 60.54 119.75 61.55 175.02 61.05 175.32 60.54"/><polygon class="cls-76" points="174.93 61 113.19 61 119.36 62.01 174.63 61.5 174.93 61"/><polygon class="cls-77" points="174.54 61.45 112.8 61.45 118.97 62.47 174.24 61.96 174.54 61.45"/><polygon class="cls-78" points="174.15 61.91 112.41 61.91 118.58 62.92 173.85 62.42 174.15 61.91"/><polygon class="cls-79" points="173.76 62.37 112.02 62.37 118.19 63.38 173.46 62.87 173.76 62.37"/><polygon class="cls-80" points="173.37 62.83 111.63 62.83 117.8 63.84 173.07 63.33 173.37 62.83"/><polygon class="cls-81" points="172.98 63.28 111.24 63.28 117.41 64.3 172.68 63.79 172.98 63.28"/><polygon class="cls-82" points="172.59 63.74 110.85 63.74 117.02 64.75 172.29 64.25 172.59 63.74"/><polygon class="cls-83" points="172.2 64.2 110.46 64.2 116.63 65.21 171.9 64.7 172.2 64.2"/><polygon class="cls-84" points="171.81 64.65 110.07 64.65 116.24 65.67 171.51 65.16 171.81 64.65"/><polygon class="cls-85" points="171.43 65.11 109.68 65.11 115.85 66.12 171.13 65.62 171.43 65.11"/><polygon class="cls-86" points="171.03 65.57 109.29 65.57 115.46 66.58 170.74 66.08 171.03 65.57"/><polygon class="cls-87" points="170.65 66.03 108.9 66.03 115.07 67.04 170.35 66.53 170.65 66.03"/><polygon class="cls-88" points="170.26 66.48 108.51 66.48 114.69 67.5 169.96 66.99 170.26 66.48"/><polygon class="cls-89" points="169.87 66.94 108.12 66.94 114.3 67.95 169.57 67.45 169.87 66.94"/><polygon class="cls-90" points="169.48 67.4 107.73 67.4 113.91 68.41 169.18 67.9 169.48 67.4"/><polygon class="cls-91" points="169.09 67.86 107.34 67.86 113.52 68.87 168.79 68.36 169.09 67.86"/><polygon class="cls-92" points="168.7 68.31 106.95 68.31 113.13 69.33 168.4 68.82 168.7 68.31"/><polygon class="cls-93" points="168.31 68.77 106.56 68.77 112.74 69.78 168.01 69.28 168.31 68.77"/><polygon class="cls-94" points="167.92 69.23 106.17 69.23 112.35 70.24 167.62 69.73 167.92 69.23"/><polygon class="cls-95" points="167.53 69.68 105.78 69.68 111.96 70.7 167.23 70.19 167.53 69.68"/><polygon class="cls-96" points="167.14 70.14 105.39 70.14 111.57 71.15 166.84 70.65 167.14 70.14"/><polygon class="cls-97" points="166.75 70.6 105 70.6 111.18 71.61 166.45 71.11 166.75 70.6"/><polygon class="cls-98" points="166.36 71.06 104.61 71.06 110.79 72.07 166.06 71.56 166.36 71.06"/><polygon class="cls-99" points="165.97 71.51 104.22 71.51 110.4 72.53 165.67 72.02 165.97 71.51"/><polygon class="cls-100" points="165.58 71.97 103.83 71.97 110.01 72.98 165.28 72.48 165.58 71.97"/><polygon class="cls-101" points="165.19 72.43 103.44 72.43 109.62 73.44 164.89 72.93 165.19 72.43"/><polygon class="cls-102" points="164.8 72.89 103.05 72.89 109.23 73.9 164.5 73.39 164.8 72.89"/><polygon class="cls-103" points="164.41 73.34 102.66 73.34 108.84 74.36 164.11 73.85 164.41 73.34"/><polygon class="cls-104" points="164.02 73.8 102.27 73.8 108.45 74.81 163.72 74.31 164.02 73.8"/><polygon class="cls-105" points="163.63 74.26 101.89 74.26 108.06 75.27 163.33 74.76 163.63 74.26"/><polygon class="cls-106" points="163.24 74.71 101.5 74.71 107.67 75.73 162.94 75.22 163.24 74.71"/><polygon class="cls-107" points="162.85 75.17 101.11 75.17 107.28 76.18 162.55 75.68 162.85 75.17"/><polygon class="cls-108" points="162.46 75.63 100.72 75.63 106.89 76.64 162.16 76.14 162.46 75.63"/><polygon class="cls-109" points="162.07 76.09 100.33 76.09 106.5 77.1 161.77 76.59 162.07 76.09"/><polygon class="cls-110" points="161.68 76.54 99.94 76.54 106.11 77.56 161.38 77.05 161.68 76.54"/><polygon class="cls-111" points="161.29 77 99.55 77 105.72 78.01 161 77.51 161.29 77"/><polygon class="cls-112" points="160.9 77.46 99.16 77.46 105.33 78.47 160.6 77.96 160.9 77.46"/><polygon class="cls-113" points="160.51 77.92 98.77 77.92 104.94 78.93 160.22 78.42 160.51 77.92"/><polygon class="cls-114" points="160.13 78.37 98.38 78.37 104.55 79.39 159.83 78.88 160.13 78.37"/><polygon class="cls-115" points="159.74 78.83 97.99 78.83 104.16 79.84 159.44 79.34 159.74 78.83"/><polygon class="cls-116" points="159.35 79.29 97.6 79.29 103.77 80.3 159.05 79.79 159.35 79.29"/><polygon class="cls-117" points="158.96 79.74 97.21 79.74 103.39 80.76 158.66 80.25 158.96 79.74"/><polygon class="cls-118" points="158.57 80.2 96.82 80.2 103 81.21 158.27 80.71 158.57 80.2"/><polygon class="cls-119" points="158.18 80.66 96.43 80.66 102.61 81.67 157.88 81.17 158.18 80.66"/><polygon class="cls-120" points="157.79 81.12 96.04 81.12 102.22 82.13 157.49 81.62 157.79 81.12"/><polygon class="cls-121" points="157.4 81.57 95.65 81.57 101.83 82.59 157.1 82.08 157.4 81.57"/><polygon class="cls-122" points="157.01 82.03 95.26 82.03 101.44 83.04 156.71 82.54 157.01 82.03"/><polygon class="cls-123" points="156.62 82.49 94.87 82.49 101.05 83.5 156.32 82.99 156.62 82.49"/><polygon class="cls-124" points="156.23 82.94 94.48 82.94 100.66 83.96 155.93 83.45 156.23 82.94"/><polygon class="cls-125" points="155.84 83.4 94.09 83.4 100.27 84.42 155.54 83.91 155.84 83.4"/><polygon class="cls-126" points="155.45 83.86 93.7 83.86 99.88 84.87 155.15 84.37 155.45 83.86"/><polygon class="cls-127" points="155.06 84.32 93.31 84.32 99.49 85.33 154.76 84.82 155.06 84.32"/><polygon class="cls-128" points="154.67 84.77 92.92 84.77 99.1 85.79 154.37 85.28 154.67 84.77"/><polygon class="cls-129" points="154.28 85.23 92.53 85.23 98.71 86.24 153.98 85.74 154.28 85.23"/><polygon class="cls-130" points="153.89 85.69 92.14 85.69 98.32 86.7 153.59 86.19 153.89 85.69"/><polygon class="cls-131" points="153.5 86.15 91.75 86.15 97.93 87.16 153.2 86.65 153.5 86.15"/><polygon class="cls-132" points="153.11 86.6 91.36 86.6 97.54 87.62 152.81 87.11 153.11 86.6"/><polygon class="cls-133" points="152.72 87.06 90.97 87.06 97.15 88.07 152.42 87.57 152.72 87.06"/><polygon class="cls-134" points="152.33 87.52 90.58 87.52 96.76 88.53 152.03 88.02 152.33 87.52"/><polygon class="cls-135" points="151.94 87.97 90.19 87.97 96.37 88.99 151.64 88.48 151.94 87.97"/><polygon class="cls-136" points="151.55 88.43 89.81 88.43 95.98 89.44 151.25 88.94 151.55 88.43"/><polygon class="cls-137" points="151.16 88.89 89.42 88.89 95.59 89.9 150.86 89.4 151.16 88.89"/><polygon class="cls-138" points="150.77 89.35 89.03 89.35 95.2 90.36 150.47 89.85 150.77 89.35"/><polygon class="cls-139" points="150.38 89.8 88.64 89.8 94.81 90.82 150.09 90.31 150.38 89.8"/><polygon class="cls-140" points="149.99 90.26 88.25 90.26 94.42 91.27 149.69 90.77 149.99 90.26"/><polygon class="cls-141" points="149.6 90.72 87.86 90.72 94.03 91.73 149.31 91.22 149.6 90.72"/><polygon class="cls-142" points="149.22 91.18 87.47 91.18 93.64 92.19 148.92 91.68 149.22 91.18"/><polygon class="cls-143" points="148.82 91.63 87.08 91.63 93.25 92.65 148.53 92.14 148.82 91.63"/><polygon class="cls-144" points="148.44 92.09 86.69 92.09 92.86 93.1 148.14 92.6 148.44 92.09"/><polygon class="cls-145" points="148.05 92.55 86.3 92.55 92.47 93.56 147.75 93.06 148.05 92.55"/><polygon class="cls-146" points="147.66 93 85.91 93 92.08 94.02 147.36 93.51 147.66 93"/><polygon class="cls-147" points="147.27 93.46 85.52 93.46 91.69 94.47 146.97 93.97 147.27 93.46"/><polygon class="cls-148" points="146.88 93.92 85.13 93.92 91.31 94.93 146.58 94.43 146.88 93.92"/><polygon class="cls-149" points="146.49 94.38 84.74 94.38 90.92 95.39 146.19 94.88 146.49 94.38"/><polygon class="cls-150" points="146.1 94.83 84.35 94.83 90.53 95.85 145.8 95.34 146.1 94.83"/><polygon class="cls-151" points="145.71 95.29 83.96 95.29 90.14 96.3 145.41 95.8 145.71 95.29"/><polygon class="cls-152" points="145.32 95.75 83.57 95.75 89.75 96.76 145.02 96.26 145.32 95.75"/><polygon class="cls-153" points="144.93 96.21 83.18 96.21 89.36 97.22 144.63 96.71 144.93 96.21"/><polygon class="cls-154" points="144.54 96.66 82.79 96.66 88.97 97.68 144.24 97.17 144.54 96.66"/><polygon class="cls-155" points="144.15 97.12 82.4 97.12 88.58 98.13 143.85 97.63 144.15 97.12"/><polygon class="cls-156" points="143.76 97.58 82.01 97.58 88.19 98.59 143.46 98.08 143.76 97.58"/><polygon class="cls-157" points="143.37 98.03 81.62 98.03 87.8 99.05 143.07 98.54 143.37 98.03"/><polygon class="cls-158" points="142.98 98.49 81.23 98.49 87.41 99.5 142.68 99 142.98 98.49"/><polygon class="cls-159" points="142.59 98.95 80.84 98.95 87.02 99.96 142.29 99.46 142.59 98.95"/><polygon class="cls-160" points="142.2 99.41 80.45 99.41 86.63 100.42 141.9 99.91 142.2 99.41"/><polygon class="cls-161" points="141.81 99.86 80.06 99.86 86.24 100.88 141.51 100.37 141.81 99.86"/><polygon class="cls-162" points="141.42 100.32 79.67 100.32 85.85 101.33 141.12 100.83 141.42 100.32"/><polygon class="cls-163" points="141.03 100.78 79.28 100.78 85.46 101.79 140.73 101.29 141.03 100.78"/><polygon class="cls-164" points="140.64 101.24 78.89 101.24 85.07 102.25 140.34 101.74 140.64 101.24"/><polygon class="cls-165" points="140.25 101.69 78.51 101.69 84.68 102.71 139.95 102.2 140.25 101.69"/><polygon class="cls-166" points="139.86 102.15 78.12 102.15 84.29 103.16 139.56 102.66 139.86 102.15"/><polygon class="cls-167" points="139.47 102.61 77.73 102.61 83.9 103.62 139.18 103.11 139.47 102.61"/><polygon class="cls-168" points="139.08 103.06 77.34 103.06 83.51 104.08 138.78 103.57 139.08 103.06"/><polygon class="cls-169" points="138.69 103.52 76.95 103.52 83.12 104.53 138.4 104.03 138.69 103.52"/><polygon class="cls-170" points="138.3 103.98 76.56 103.98 82.73 104.99 138.01 104.49 138.3 103.98"/><polygon class="cls-171" points="137.91 104.44 76.17 104.44 82.34 105.45 137.62 104.94 137.91 104.44"/></g></g><polygon class="cls-172" points="196.75 35.39 140.29 35.39 142.43 32.87 196.15 34.56 196.75 35.39"/><polygon class="cls-173" points="196.15 24.56 196.75 24.01 178.9 24.01 181.49 24.56 196.15 24.56"/><polygon class="cls-174" points="196.15 24.56 177.31 24.56 142.79 28.37 142.43 33.77 196.15 34.56 196.15 24.56"/><polygon class="cls-175" points="190.66 31.42 142.79 30.45 144.53 21.4 151.16 15.64 189.65 28.96 190.66 31.42"/><path class="cls-176" d="M201.29,145,162.8,130.41l-.36.07a1.38,1.38,0,0,1,.36-.07H36.62C19.51,135.49,18.19,185,18.19,185V653.07H148.08l1.33-.72s.33-468.23.33-470.21v-.52c0-1.07,1.27-38.92,10.32-46.42,0,0,1.94-1.16,5.7.37s35.74,12.85,35.74,12.85Z" transform="translate(-10.84 -117)"/><path class="cls-177" d="M148.08,653.07H16.86V185s1.32-49.46,18.43-54.54H161.47s-8.29.49-11.57,29.25a198.64,198.64,0,0,0-1.49,22.48C148.41,184.12,148.08,653.07,148.08,653.07Z" transform="translate(-10.84 -117)"/><rect class="cls-178" x="12.67" y="109.76" width="115.85" height="169.24"/><rect class="cls-179" x="15.93" y="113.97" width="52.8" height="28.43"/><rect class="cls-180" x="15.18" y="113.97" width="52.8" height="28.43"/><rect class="cls-179" x="72.45" y="113.97" width="52.8" height="28.43"/><rect class="cls-180" x="71.71" y="113.97" width="52.8" height="28.43"/><rect class="cls-181" x="16.3" y="148.51" width="109.32" height="94.34"/><rect class="cls-180" x="15.56" y="148.51" width="109.33" height="94.34"/><polygon class="cls-182" points="128.52 279 130.15 277.79 130.15 110.67 128.52 109.76 128.52 279"/><polygon class="cls-183" points="190.66 31.42 176.07 34.27 142.43 33.77 143.23 30.46 190.66 31.42"/><polygon class="cls-184" points="196.15 24.56 196.15 34.56 196.75 35.39 196.75 24.01 196.15 24.56"/><polygon class="cls-185" points="141.62 536.73 138.53 536.73 138.57 535.35 138.57 534.1 145.5 534.1 141.62 536.73"/><polygon class="cls-186" points="141.62 536.73 142.09 537.91 145.98 535.04 145.5 534.1 141.62 536.73"/><polygon class="cls-187" points="142.09 537.91 142.09 543.4 145.98 539.95 145.98 535.04 142.09 537.91"/><polygon class="cls-188" points="137.24 536.07 137.24 536.73 138.53 536.73 138.57 535.35 137.24 536.07"/><rect class="cls-189" x="6.02" y="536.07" width="131.22" height="0.66"/><polygon class="cls-186" points="142.09 537.91 0 537.91 1.18 536.73 141.62 536.73 142.09 537.91"/><polygon class="cls-185" points="1.18 536.73 6.02 534.16 6.02 536.73 1.18 536.73"/><rect class="cls-190" y="537.91" width="142.1" height="5.49"/><ellipse class="cls-191" cx="331.36" cy="569.11" rx="326.72" ry="18.57"/><path class="cls-192" d="M505.44,486h-167a58.61,58.61,0,0,0-57.54,69.72L291.6,611H504.09a58.61,58.61,0,0,0,57.75-48.6l1.35-7.82A58.61,58.61,0,0,0,505.44,486Z" transform="translate(-10.84 -117)"/><path class="cls-193" d="M583.16,516.79h0A15.47,15.47,0,0,0,563,525.16l-36.25,87.5,28.6,11.84L591.54,537A15.47,15.47,0,0,0,583.16,516.79Z" transform="translate(-10.84 -117)"/><path class="cls-193" d="M260.82,516.79h0A15.48,15.48,0,0,1,281,525.16l36.24,87.5L288.69,624.5,252.45,537A15.48,15.48,0,0,1,260.82,516.79Z" transform="translate(-10.84 -117)"/><rect class="cls-193" x="277.66" y="488.44" width="266.15" height="18.57"/><line class="cls-194" x1="530.82" y1="458.11" x2="290.97" y2="458.11"/><polygon class="cls-195" points="186.91 481.72 199.95 572.01 196.52 572.01 177.98 483.78 186.91 481.72"/><polygon class="cls-195" points="136.34 481.72 123.29 572.01 126.72 572.01 145.26 483.78 136.34 481.72"/><polygon class="cls-195" points="70.86 481.72 57.81 572.01 61.24 572.01 79.78 483.78 70.86 481.72"/><path class="cls-192" d="M148.47,612.28C54.75,610.76,63,603,39.81,538.12S46,459.64,97.24,455.44c50.34-4.12,114,49.09,123.18,92.85C227.84,583.57,243.75,613.82,148.47,612.28Z" transform="translate(-10.84 -117)"/><path class="cls-196" d="M185.59,610.68C184.16,585.92,170,475.91,31.34,495.56c-.89,10.92,1.51,24.82,7.85,42.56,23.17,64.89,15,72.64,108.67,74.16A270.71,270.71,0,0,0,185.59,610.68Z" transform="translate(-10.84 -117)"/><rect class="cls-195" x="277.35" y="506.7" width="266.77" height="8.05"/><polygon class="cls-195" points="540.72 512.89 543.2 569.01 539.17 569.01 527.1 514.45 540.72 512.89"/><polygon class="cls-195" points="280.76 512.89 278.28 569.01 282.31 569.01 294.37 514.45 280.76 512.89"/><path class="cls-197" d="M624.63,495.93c-2.83-.92-5.32,2.2-6.21,5-2.29,7.24-1.14,16.09-6.51,21.46-1,1.05-2.31,1.91-3.27,3.06a11.29,11.29,0,0,0-2.24,7c-.12,5,1.66,9.9,2.49,14.87s.49,10.64-3.06,14.22c-1.71,1.73-4,2.82-5.52,4.75-3.09,4-1.37,9.77.35,14.54s3.1,10.72-.38,14.41c-.94,1-2.16,1.71-3,2.77-2.08,2.56-1.54,6.27-.86,9.5q3.76,17.72,8.85,35.11a3.61,3.61,0,0,0,4.87,3.08l9.28-.89a9.12,9.12,0,0,0,4.77-1.37c1.44-1.1,2.08-2.93,2.64-4.65q3.65-11.43,6.21-23.16c1.05-4.82,1.91-10.1-.33-14.5-1.17-2.3-3.12-4.16-4.12-6.55-3.73-8.86,7.09-17.77,6.44-27.37-.42-6.19-5.58-11.31-5.92-17.5-.39-7.13,5.68-14.44,2.49-20.84-1.06-2.11-3-3.66-4.21-5.68-3.78-6.26.21-14.19.22-21.5C627.6,499.4,626.84,496.65,624.63,495.93Z" transform="translate(-10.84 -117)"/><path class="cls-198" d="M622.56,501.63c-3.13,9.5-6.28,19.59-4,29.35a34.25,34.25,0,0,1,1.12,5.47c.3,5.59-3.85,10.49-4.54,16-.72,5.8,2.4,11.5,1.95,17.32-.42,5.49-3.91,10.17-6.38,15.09s-3.82,11.32-.34,15.58c1.62,2,4.06,3.18,5.58,5.24,2.92,3.94,1.55,9.48,0,14.13-2.71,7.91-5.71,16.48-3.06,24.4" transform="translate(-10.84 -117)"/><path class="cls-198" d="M617,565.43a8,8,0,0,1,.53-4.62c1.16-2.06,3.94-2.79,5.1-4.85,1.06-1.89.42-4.24.45-6.41a10.29,10.29,0,0,1,4.1-8" transform="translate(-10.84 -117)"/><path class="cls-198" d="M624.36,524.27c-.34,1.64-1.72,2.81-3,3.89s-2.58,2.38-2.71,4" transform="translate(-10.84 -117)"/><path class="cls-198" d="M611.42,534.56c2.4,4.68,1.25,10.69,4.05,15.15" transform="translate(-10.84 -117)"/><path class="cls-198" d="M613,580.54a10.94,10.94,0,0,1,6.88-5c.81-.18,1.64-.27,2.44-.51a7.54,7.54,0,0,0,5-5.24c.17-.64.46-1.47,1.12-1.45" transform="translate(-10.84 -117)"/><path class="cls-198" d="M605.17,567.31c2.23,2.24,3,5.54,3.32,8.68s.37,6.38,1.55,9.31" transform="translate(-10.84 -117)"/><path class="cls-199" d="M656.59,534.37c-1.79-1.42-4.19.54-5.42,2.65-3.13,5.39-4.2,12.89-9.09,16-1,.62-2,1-2.94,1.74a10,10,0,0,0-3,5.21c-1.15,4.09-.94,8.49-1.41,12.74s-1.91,8.82-5.15,10.91c-1.57,1-3.43,1.36-4.88,2.6-3,2.56-3,7.66-2.83,12s-.11,9.49-3.32,11.69c-.87.59-1.87.89-2.7,1.56-2,1.6-2.4,4.77-2.61,7.56q-1.12,15.36-1.26,30.78a4.68,4.68,0,0,0,.4,2.35,3.3,3.3,0,0,0,2.36,1.31l6.67,1.45a5.78,5.78,0,0,0,3.63,0,7.3,7.3,0,0,0,2.83-3.18q5-8.49,9.25-17.48c1.76-3.7,3.48-7.81,2.85-11.93-.34-2.16-1.3-4.14-1.5-6.32-.73-8.13,8.73-12.88,10.31-20.88,1-5.16-1.51-10.55-.43-15.69,1.24-5.93,7-10.49,6.15-16.46-.29-2-1.31-3.69-1.73-5.63-1.32-6,3.15-11.55,4.71-17.53C657.93,537.9,658,535.47,656.59,534.37Z" transform="translate(-10.84 -117)"/><path class="cls-200" d="M651.19,547.13c-2.86,4.52-5.84,9.5-5.26,14.82.14,1.32.51,2.62.54,3.95.18,6.51-7.22,11.19-7.58,17.69-.1,2,.47,4,.29,5.94-.34,3.92-3.45,6.94-6.25,9.7s-5.68,6.15-5.36,10.08a25.51,25.51,0,0,0,1.15,4.51,16.2,16.2,0,0,1-2,12.8c-1,1.53-2.23,2.9-3.06,4.52-1.2,2.35-1.42,5.06-1.63,7.69l-.92,11.63" transform="translate(-10.84 -117)"/><path class="cls-200" d="M630.73,589a8.66,8.66,0,0,1,1.37,3.43c.35,2.62-1.06,5.3-.43,7.87" transform="translate(-10.84 -117)"/><path class="cls-200" d="M639.83,559.2c-.52,3.18,1.09,6.26,1.75,9.41a16.29,16.29,0,0,1-.52,8.48" transform="translate(-10.84 -117)"/><path class="cls-200" d="M652.31,562.31c-1.44,2.72-4.91,3.92-6.22,6.7" transform="translate(-10.84 -117)"/><path class="cls-200" d="M645,594c-1.59,3.54-4.87,6-8.16,8.07s-6.78,4-9.25,7c-.07.09-.16.22-.1.33s.28,0,.2-.08" transform="translate(-10.84 -117)"/><path class="cls-200" d="M619.8,612.8c1,2.48,2.75,4.6,4.19,6.87s2.62,4.88,2.33,7.55" transform="translate(-10.84 -117)"/><path class="cls-200" d="M636.18,628.28a4.54,4.54,0,0,1-1.09,1.56c-3,3.1-7.24,4.67-11,6.86-1.1.64-2.29,1.58-2.21,2.85" transform="translate(-10.84 -117)"/><path class="cls-201" d="M620.05,558.12c-1.53-.76-3,1.06-3.55,2.8-1.45,4.43-1.06,10.09-4.15,13.16a25.5,25.5,0,0,0-1.88,1.73,7.49,7.49,0,0,0-1.42,4.29c-.2,3.18.64,6.37,1,9.56s0,6.75-2.06,8.79c-1,1-2.3,1.54-3.17,2.67-1.8,2.35-1,6.09-.2,9.21s1.41,7-.6,9.08c-.54.57-1.23,1-1.73,1.57-1.21,1.49-1,3.87-.72,5.95q1.58,11.43,3.9,22.74a3.45,3.45,0,0,0,.66,1.66,2.5,2.5,0,0,0,1.93.59h5.12a4.32,4.32,0,0,0,2.65-.57,5.47,5.47,0,0,0,1.58-2.78q2.31-7,4-14.25c.7-3,1.32-6.27.21-9.19-.59-1.52-1.6-2.82-2.09-4.39-1.81-5.84,4.37-10.8,4.27-16.91-.06-3.93-2.75-7.49-2.77-11.42,0-4.54,3.51-8.78,1.93-13-.52-1.4-1.54-2.5-2.16-3.85-1.91-4.19.5-9,.71-13.58C621.58,560.5,621.24,558.71,620.05,558.12Z" transform="translate(-10.84 -117)"/><path class="cls-202" d="M618.1,568.32c-1.39,3.76-2.79,7.87-1.53,11.68.31.94.78,1.83,1,2.8,1.16,4.74-3.53,9.33-2.77,14.15.23,1.47,1,2.83,1.14,4.3.36,2.93-1.44,5.62-3.06,8.09s-3.19,5.4-2.35,8.22a19.34,19.34,0,0,0,1.56,3.12,12.16,12.16,0,0,1,.55,9.69c-.49,1.28-1.18,2.47-1.54,3.79a15.16,15.16,0,0,0,0,5.89l1.15,8.66" transform="translate(-10.84 -117)"/><path class="cls-202" d="M609.67,602.16a6.38,6.38,0,0,1,1.54,2.3c.67,1.86.06,4,.92,5.83" transform="translate(-10.84 -117)"/><path class="cls-202" d="M611.67,578.94c.12,2.41,1.78,4.41,2.75,6.62a12.12,12.12,0,0,1,1,6.29" transform="translate(-10.84 -117)"/><path class="cls-202" d="M621.3,579.26c-.63,2.21-3,3.64-3.51,5.88" transform="translate(-10.84 -117)"/><path class="cls-202" d="M620.93,603.61c-.61,2.85-2.63,5.16-4.71,7.19s-4.35,4-5.68,6.57c0,.09-.08.19,0,.26s.2,0,.13-.08" transform="translate(-10.84 -117)"/><path class="cls-202" d="M605.4,621.33a35,35,0,0,0,4.15,4.38,9.1,9.1,0,0,1,2.89,5.16" transform="translate(-10.84 -117)"/><path class="cls-202" d="M619.83,630.11a3.34,3.34,0,0,1-.56,1.3c-1.72,2.75-4.57,4.56-7,6.75-.7.64-1.42,1.52-1.16,2.43" transform="translate(-10.84 -117)"/><path class="cls-197" d="M571.09,543.84c1.58-1.29,3.76.44,4.89,2.31,2.88,4.79,3.94,11.5,8.37,14.25.87.54,1.83.89,2.66,1.52a9,9,0,0,1,2.8,4.63c1.09,3.66,1,7.6,1.44,11.41s1.83,7.88,4.77,9.72c1.41.89,3.09,1.17,4.4,2.26,2.74,2.26,2.82,6.84,2.71,10.7s.22,8.51,3.13,10.44c.79.52,1.69.77,2.44,1.36,1.81,1.41,2.22,4.25,2.44,6.75q1.23,13.77,1.54,27.6a4.11,4.11,0,0,1-.32,2.11,2.94,2.94,0,0,1-2.1,1.2l-6,1.39a5.17,5.17,0,0,1-3.25,0,6.57,6.57,0,0,1-2.58-2.82q-4.58-7.54-8.54-15.56c-1.62-3.29-3.22-7-2.7-10.66.27-1.94,1.1-3.73,1.25-5.69.55-7.3-8-11.43-9.52-18.59-1-4.61,1.21-9.48.18-14.08-1.2-5.3-6.45-9.31-5.75-14.68.24-1.78,1.13-3.33,1.48-5.08,1.11-5.4-3-10.32-4.46-15.66C569.93,547,569.85,544.85,571.09,543.84Z" transform="translate(-10.84 -117)"/><path class="cls-203" d="M576.1,555.22c2.63,4,5.36,8.44,4.91,13.22-.11,1.19-.41,2.36-.43,3.55-.08,5.84,6.62,9.94,7,15.77.13,1.77-.36,3.56-.18,5.33.36,3.51,3.19,6.17,5.74,8.62s5.18,5.44,5,9a23.19,23.19,0,0,1-1,4.07,14.51,14.51,0,0,0,2,11.45c.9,1.36,2,2.57,2.8,4a18.11,18.11,0,0,1,1.57,6.88c.33,3.47.65,6.94,1,10.42" transform="translate(-10.84 -117)"/><path class="cls-203" d="M595,592.46a7.62,7.62,0,0,0-1.18,3.1c-.28,2.36,1,4.74.49,7.05" transform="translate(-10.84 -117)"/><path class="cls-203" d="M586.45,565.9c.5,2.84-.9,5.62-1.44,8.46a14.46,14.46,0,0,0,.58,7.6" transform="translate(-10.84 -117)"/><path class="cls-203" d="M575.3,568.85c1.32,2.42,4.45,3.45,5.66,5.92" transform="translate(-10.84 -117)"/><path class="cls-203" d="M582.26,597.17c1.47,3.16,4.45,5.32,7.42,7.14s6.14,3.48,8.39,6.15c.07.08.15.19.1.29s-.25,0-.18-.07" transform="translate(-10.84 -117)"/><path class="cls-203" d="M605.13,613.7a41.53,41.53,0,0,1-3.66,6.22c-1.26,2.05-2.29,4.41-2,6.8" transform="translate(-10.84 -117)"/><path class="cls-203" d="M590.65,627.81a4.18,4.18,0,0,0,1,1.38c2.75,2.74,6.56,4.09,10,6,1,.56,2.07,1.39,2,2.53" transform="translate(-10.84 -117)"/><path class="cls-199" d="M594.93,602.57c.68-.52,1.56.24,2,1,1.13,2,1.47,4.86,3.28,6.07a11.05,11.05,0,0,1,1.09.68,3.78,3.78,0,0,1,1.11,2,30.46,30.46,0,0,1,.43,4.79c.14,1.6.65,3.32,1.85,4.13a15.09,15.09,0,0,1,1.8,1c1.11,1,1.08,2.9,1,4.51s0,3.56,1.15,4.41c.32.23.7.35,1,.6a4,4,0,0,1,.92,2.86c.21,3.84.29,7.7.24,11.55a1.85,1.85,0,0,1-.17.88,1.23,1.23,0,0,1-.89.47l-2.52.49a2.15,2.15,0,0,1-1.35,0,2.7,2.7,0,0,1-1-1.21c-1.2-2.15-2.32-4.36-3.34-6.63a7.91,7.91,0,0,1-1-4.49c.14-.81.52-1.54.61-2.36.33-3-3.18-4.89-3.71-7.91-.34-1.94.65-3.94.28-5.88-.42-2.23-2.56-4-2.18-6.21.12-.74.52-1.38.69-2.1.54-2.24-1.09-4.36-1.63-6.61C594.4,603.88,594.4,603,594.93,602.57Z" transform="translate(-10.84 -117)"/><path class="cls-204" d="M596.85,607.4c1,1.71,2.12,3.6,1.86,5.59-.06.5-.21,1-.23,1.48-.12,2.44,2.62,4.25,2.7,6.69,0,.74-.2,1.48-.15,2.22.1,1.48,1.24,2.63,2.27,3.69s2.08,2.35,1.94,3.82a10,10,0,0,1-.47,1.68,6,6,0,0,0,.65,4.81c.35.59.81,1.11,1.11,1.72a7.48,7.48,0,0,1,.55,2.9c.09,1.45.17,2.91.26,4.36" transform="translate(-10.84 -117)"/><path class="cls-204" d="M604.21,623.23a3.39,3.39,0,0,0-.55,1.28c-.14,1,.36,2,.11,3" transform="translate(-10.84 -117)"/><path class="cls-204" d="M601,612c.17,1.19-.46,2.34-.73,3.51a6.17,6.17,0,0,0,.13,3.19" transform="translate(-10.84 -117)"/><path class="cls-204" d="M596.32,613.08c.51,1,1.81,1.51,2.28,2.56" transform="translate(-10.84 -117)"/><path class="cls-204" d="M598.81,625a7.44,7.44,0,0,0,3,3.09,13.82,13.82,0,0,1,3.41,2.7s.06.08,0,.12-.11,0-.08,0" transform="translate(-10.84 -117)"/><path class="cls-204" d="M608.12,632.26a17,17,0,0,1-1.62,2.54,4.5,4.5,0,0,0-.93,2.81" transform="translate(-10.84 -117)"/><path class="cls-204" d="M601.86,637.94a1.76,1.76,0,0,0,.4.59,18.56,18.56,0,0,0,4.06,2.65c.41.25.85.61.81,1.09" transform="translate(-10.84 -117)"/><path class="cls-205" d="M635.94,645.21h-43.7L594.48,675a10,10,0,0,0,9.92,9.21h19.38a10,10,0,0,0,9.93-9.21Z" transform="translate(-10.84 -117)"/></g></g></svg>