<svg id="Layer_1" data-name="Layer 1" xmlns="http://www.w3.org/2000/svg" xmlns:xlink="http://www.w3.org/1999/xlink" viewBox="0 0 675.7 698"><defs><style>.cls-1,.cls-21,.cls-23{fill:none;}.cls-2{fill:#eaeaea;}.cls-3{fill:#cedddd;}.cls-4{fill:#f9f9f9;}.cls-5{fill:#cfdce5;opacity:0.51;}.cls-25,.cls-5,.cls-8{isolation:isolate;}.cls-6{fill:#519dae;}.cls-12,.cls-7{fill:#fff;}.cls-8{fill:#7ba8c6;opacity:0.56;}.cls-9{fill:#edc32b;}.cls-10{fill:#dcf0f8;}.cls-11{fill:#6fb6c1;}.cls-12{stroke:#c6c6c6;stroke-miterlimit:10;stroke-width:0.31px;}.cls-13{fill:#dceffe;}.cls-14,.cls-25{fill:#cedfea;}.cls-15{fill:#42838e;}.cls-16{fill:#779d98;}.cls-17{fill:#2e4b56;}.cls-18{fill:#e3624c;}.cls-19{fill:#231f20;}.cls-20{opacity:0.5;}.cls-21{stroke:#487574;stroke-width:0.72px;}.cls-21,.cls-23{stroke-miterlimit:10;}.cls-22{clip-path:url(#clip-path);}.cls-23{stroke:#cedfea;stroke-width:0.44px;}.cls-24{fill:#6b9b99;}.cls-25{font-size:9.61px;font-family:Roboto-Medium, Roboto;font-weight:500;}</style><clipPath id="clip-path"><circle class="cls-1" cx="260.02" cy="401.1" r="23.9"/></clipPath></defs><rect class="cls-2" x="93.82" y="315.21" width="377.1" height="261.97" rx="9.89" transform="translate(216.56 -77.73) rotate(25.17)"/><rect class="cls-3" x="229.24" y="166.75" width="370.29" height="210.43" rx="8.8" transform="translate(-77.83 213.61) rotate(-26.52)"/><polygon class="cls-4" points="233.17 181.67 561.37 80.44 609.25 279.86 278.18 369.62 233.17 181.67"/><path class="cls-5" d="M556.8,124.53,252.93,207.15a5.74,5.74,0,0,1-7-4l-2.64-9.86a5.74,5.74,0,0,1,4-7l303.87-82.62a5.74,5.74,0,0,1,7,4l2.64,9.86A5.7,5.7,0,0,1,556.8,124.53Z"/><path class="cls-5" d="M597.76,270.55,293.89,353.17a5.74,5.74,0,0,1-7-4l-2.64-9.86a5.75,5.75,0,0,1,4-7l303.87-82.62a5.74,5.74,0,0,1,7,4l2.64,9.86A5.61,5.61,0,0,1,597.76,270.55Z"/><path class="cls-6" d="M557.91,85.63l1.72,6.3L231.07,181.24l-1.63-6.13a5.11,5.11,0,0,1,3.66-6.21L551.7,82.06A5.11,5.11,0,0,1,557.91,85.63Z"/><path class="cls-7" d="M538.83,91.33a2,2,0,0,1-1.36,2.37,1.88,1.88,0,0,1-2.37-1.36A2,2,0,0,1,536.46,90,2,2,0,0,1,538.83,91.33Z"/><path class="cls-7" d="M527.55,94.46a2,2,0,0,1-1.35,2.37,1.88,1.88,0,0,1-2.37-1.36,2,2,0,0,1,1.35-2.37A1.84,1.84,0,0,1,527.55,94.46Z"/><path class="cls-7" d="M516.37,97.5A2,2,0,0,1,515,99.87a1.88,1.88,0,0,1-2.37-1.36A2,2,0,0,1,514,96.14,1.93,1.93,0,0,1,516.37,97.5Z"/><circle class="cls-8" cx="548.9" cy="115.46" r="7.34" transform="translate(-3.35 17.28) rotate(-1.8)"/><circle class="cls-8" cx="528.93" cy="121.19" r="7.34" transform="translate(-3.54 16.66) rotate(-1.8)"/><path class="cls-8" d="M584.85,267.11l-30.64,8.3a4.9,4.9,0,0,1-6-3.48l-.1-.36a4.91,4.91,0,0,1,3.48-6l30.64-8.3a4.91,4.91,0,0,1,6,3.48l.1.36A5,5,0,0,1,584.85,267.11Z"/><path class="cls-9" d="M316.89,267.65a1.29,1.29,0,0,0,.85-1.64l-2-6.38a1.3,1.3,0,1,0-2.48.79l2,6.39A1.36,1.36,0,0,0,316.89,267.65Z"/><path class="cls-9" d="M326.43,271.92a1.27,1.27,0,0,0,.84-1.64l-6-18.8a1.3,1.3,0,1,0-2.48.8l6,18.79A1.35,1.35,0,0,0,326.43,271.92Z"/><path class="cls-9" d="M336,276.19a1.28,1.28,0,0,0,.84-1.64l-10.24-32.46a1.3,1.3,0,1,0-2.48.8l10.24,32.36A1.34,1.34,0,0,0,336,276.19Z"/><path class="cls-9" d="M345.21,279.57a1.28,1.28,0,0,0,.84-1.64l-14-44.34a1.3,1.3,0,1,0-2.48.8l14,44.33A1.29,1.29,0,0,0,345.21,279.57Z"/><path class="cls-9" d="M350.77,271.42a1.29,1.29,0,0,0,.85-1.64l-10.24-32.36a1.31,1.31,0,0,0-2.49.79l10.25,32.37A1.35,1.35,0,0,0,350.77,271.42Z"/><path class="cls-9" d="M356.13,262.48a1.29,1.29,0,0,0,.85-1.64L351,242a1.31,1.31,0,0,0-2.49.8l6,18.79A1.35,1.35,0,0,0,356.13,262.48Z"/><path class="cls-9" d="M361.5,253.53a1.28,1.28,0,0,0,.84-1.64l-2-6.38a1.3,1.3,0,1,0-2.48.79l2,6.39A1.28,1.28,0,0,0,361.5,253.53Z"/><path class="cls-9" d="M272.91,281.57a1.28,1.28,0,0,0,.84-1.64l-2-6.38a1.3,1.3,0,1,0-2.48.79l2,6.39A1.36,1.36,0,0,0,272.91,281.57Z"/><path class="cls-9" d="M281.55,282.91a1.28,1.28,0,0,0,.84-1.64l-4.27-13.39a1.3,1.3,0,0,0-2.48.8l4.27,13.39A1.28,1.28,0,0,0,281.55,282.91Z"/><path class="cls-9" d="M291.19,287.53a1.27,1.27,0,0,0,.84-1.63l-8.45-26.61a1.3,1.3,0,0,0-2.48.8l8.45,26.6A1.22,1.22,0,0,0,291.19,287.53Z"/><path class="cls-9" d="M300.33,290.56a1.28,1.28,0,0,0,.84-1.64l-11.93-37.77a1.3,1.3,0,1,0-2.48.79l11.93,37.78A1.22,1.22,0,0,0,300.33,290.56Z"/><path class="cls-9" d="M306,282.86a1.28,1.28,0,0,0,.84-1.64l-8.45-26.6a1.3,1.3,0,1,0-2.48.79L304.36,282A1.37,1.37,0,0,0,306,282.86Z"/><path class="cls-9" d="M311.25,273.47a1.29,1.29,0,0,0,.85-1.64l-4.27-13.39a1.31,1.31,0,0,0-2.49.8l4.28,13.39A1.21,1.21,0,0,0,311.25,273.47Z"/><path class="cls-9" d="M531.14,199.93a1.27,1.27,0,0,1-1.64-.84l-2-6.38a1.3,1.3,0,1,1,2.48-.8l2,6.39A1.31,1.31,0,0,1,531.14,199.93Z"/><path class="cls-9" d="M525.77,208.88a1.27,1.27,0,0,1-1.63-.84l-6-18.8a1.29,1.29,0,0,1,.85-1.64,1.27,1.27,0,0,1,1.63.84l6,18.8A1.29,1.29,0,0,1,525.77,208.88Z"/><path class="cls-9" d="M520.41,217.82a1.28,1.28,0,0,1-1.64-.84l-10.24-32.37a1.31,1.31,0,0,1,2.49-.79l10.24,32.37A1.28,1.28,0,0,1,520.41,217.82Z"/><path class="cls-9" d="M514.85,226a1.28,1.28,0,0,1-1.64-.84l-14-44.34a1.3,1.3,0,0,1,2.48-.8l14,44.34A1.36,1.36,0,0,1,514.85,226Z"/><path class="cls-9" d="M505.6,222.5a1.27,1.27,0,0,1-1.63-.85l-10.25-32.36a1.31,1.31,0,0,1,2.49-.8l10.24,32.37A1.36,1.36,0,0,1,505.6,222.5Z"/><path class="cls-9" d="M496.07,218.23a1.28,1.28,0,0,1-1.64-.84l-6-18.8a1.31,1.31,0,0,1,2.49-.8l6,18.8A1.36,1.36,0,0,1,496.07,218.23Z"/><path class="cls-9" d="M486.53,214.05a1.28,1.28,0,0,1-1.64-.84l-2-6.39a1.29,1.29,0,0,1,.85-1.64,1.28,1.28,0,0,1,1.63.85l2,6.38A1.37,1.37,0,0,1,486.53,214.05Z"/><path class="cls-9" d="M575.12,186a1.29,1.29,0,0,1-1.64-.85l-2-6.38A1.3,1.3,0,1,1,574,178l2,6.39A1.28,1.28,0,0,1,575.12,186Z"/><path class="cls-9" d="M568.86,192a1.27,1.27,0,0,1-1.64-.84L563,177.8a1.3,1.3,0,1,1,2.48-.79l4.27,13.39A1.26,1.26,0,0,1,568.86,192Z"/><path class="cls-9" d="M563.6,201.42a1.28,1.28,0,0,1-1.64-.84L553.52,174a1.3,1.3,0,1,1,2.48-.8l8.45,26.6A1.22,1.22,0,0,1,563.6,201.42Z"/><path class="cls-9" d="M557.93,209.12a1.28,1.28,0,0,1-1.64-.84L544.36,170.5a1.29,1.29,0,0,1,.85-1.64,1.28,1.28,0,0,1,1.63.85l11.94,37.78A1.34,1.34,0,0,1,557.93,209.12Z"/><path class="cls-9" d="M548.79,206.1a1.29,1.29,0,0,1-1.64-.85l-8.44-26.6a1.3,1.3,0,1,1,2.48-.79l8.45,26.6A1.36,1.36,0,0,1,548.79,206.1Z"/><path class="cls-9" d="M539.15,201.47a1.26,1.26,0,0,1-1.63-.84l-4.28-13.39a1.31,1.31,0,1,1,2.49-.79L540,199.84A1.34,1.34,0,0,1,539.15,201.47Z"/><circle class="cls-10" cx="419.25" cy="230.41" r="42.79"/><path class="cls-6" d="M437.46,287.86a60.27,60.27,0,1,1,39.25-75.66A60.35,60.35,0,0,1,437.46,287.86ZM401.59,174.67A58.47,58.47,0,1,0,475,212.75,58.42,58.42,0,0,0,401.59,174.67Z"/><path class="cls-7" d="M427.83,202.92l-.39-.73a2.82,2.82,0,0,0-.52-.73c-.26-.37-.52-.61-.78-1a10.68,10.68,0,0,0-1.67-1.69c-.13-.12-.38-.23-.51-.35a12.92,12.92,0,0,0-2.79-1.78,11.57,11.57,0,0,0-1.76-.82c-.25-.11-.38-.11-.63-.22a10.37,10.37,0,0,0-2.13-.56,6.21,6.21,0,0,1-.62-.1c-.51-.11-.88-.1-1.38-.21l-.87,0-.74,0a16,16,0,0,0-4.7.77,16.59,16.59,0,0,0-10.78,20.84l6.21,19.69a16.59,16.59,0,0,0,31.62-10.06l-6.21-19.69A8.91,8.91,0,0,0,427.83,202.92Zm-12.36,25.86-9.23,2.9-.55-1.84,9.23-2.9Zm-1.79-5.53-9.23,2.9-.55-1.85,9.23-2.9Zm-1.79-5.66-9.23,2.9-.55-1.85,9.22-2.9Zm19.33,6.23-9.23,2.9-.55-1.85,9.23-2.9Zm-1.79-5.66-9.23,2.9-.56-1.85,9.23-2.9Zm-1.79-5.54-9.23,2.9-.55-1.85,9.22-2.9Z"/><path class="cls-11" d="M427.83,202.92l-.39-.73a2.82,2.82,0,0,0-.52-.73c-.26-.37-.52-.61-.78-1a10.68,10.68,0,0,0-1.67-1.69c-.13-.12-.38-.23-.51-.35a12.92,12.92,0,0,0-2.79-1.78,11.57,11.57,0,0,0-1.76-.82c-.25-.11-.38-.11-.63-.22a10.37,10.37,0,0,0-2.13-.56,6.21,6.21,0,0,1-.62-.1c-.51-.11-.88-.1-1.38-.21l-.87,0-.74,0a16,16,0,0,0-4.7.77,16.59,16.59,0,0,0-10.78,20.84l6.21,19.69a16.59,16.59,0,0,0,31.62-10.06l-6.21-19.69A8.91,8.91,0,0,0,427.83,202.92Zm-12.36,25.86-9.23,2.9-.55-1.84,9.23-2.9Zm-1.79-5.53-9.23,2.9-.55-1.85,9.23-2.9Zm-1.79-5.66-9.23,2.9-.55-1.85,9.22-2.9Zm19.33,6.23-9.23,2.9-.55-1.85,9.23-2.9Zm-1.79-5.66-9.23,2.9-.56-1.85,9.23-2.9Zm-1.79-5.54-9.23,2.9-.55-1.85,9.22-2.9Z"/><path class="cls-6" d="M397.69,216.42l6.21,19.69a16.59,16.59,0,0,0,20.84,10.77l-16.15-51.31A16.67,16.67,0,0,0,397.69,216.42Zm17.78,12.36-9.23,2.9-.55-1.84,9.23-2.9Zm-1.79-5.53-9.23,2.9-.55-1.85,9.23-2.9Zm-1.79-5.66-9.23,2.9-.55-1.85,9.22-2.9Z"/><path class="cls-11" d="M426.4,252.18c-11.82,3.72-24.6-3.58-28.6-16.38a1.81,1.81,0,0,1,3.44-1.1c3.45,10.83,14.21,17.2,24.18,14s15.07-14.52,11.63-25.35a1.81,1.81,0,0,1,3.44-1.1C444.5,235.08,438.21,248.45,426.4,252.18Z"/><path class="cls-11" d="M430.12,263.86a1.78,1.78,0,0,1-2.28-1.17L424.12,251a1.81,1.81,0,0,1,3.45-1.1l3.72,11.69A1.77,1.77,0,0,1,430.12,263.86Z"/><path class="cls-11" d="M414.66,270.07h0a5.73,5.73,0,0,1,3.75-7.21l20.79-6.61a5.72,5.72,0,0,1,7.2,3.75h0"/><rect class="cls-12" x="147.52" y="258.41" width="244.09" height="348.64" transform="translate(-207.94 611.37) rotate(-78.59)"/><circle class="cls-13" cx="305.58" cy="553.99" r="2.24"/><circle class="cls-13" cx="290.36" cy="550.95" r="2.24"/><circle class="cls-13" cx="275.15" cy="547.82" r="2.24"/><circle class="cls-13" cx="259.93" cy="544.77" r="2.24"/><circle class="cls-13" cx="244.71" cy="541.73" r="2.24"/><circle class="cls-13" cx="229.49" cy="538.6" r="2.24"/><circle class="cls-13" cx="214.28" cy="535.55" r="2.24"/><circle class="cls-13" cx="199.06" cy="532.51" r="2.24"/><circle class="cls-13" cx="183.84" cy="529.38" r="2.24"/><path class="cls-6" d="M464.64,347.4l-1.34,6.71-341.76-69,1.34-6.54a5.25,5.25,0,0,1,6.18-4.12l331.47,66.78A5.23,5.23,0,0,1,464.64,347.4Z"/><path class="cls-7" d="M444.5,343.91a1.89,1.89,0,0,1-2.32,1.52,2,2,0,0,1-1.53-2.33,1.91,1.91,0,0,1,2.33-1.52A2,2,0,0,1,444.5,343.91Z"/><path class="cls-7" d="M432.78,341.49a1.91,1.91,0,0,1-2.33,1.52,2,2,0,0,1,.81-3.85A2,2,0,0,1,432.78,341.49Z"/><path class="cls-7" d="M421.05,339.16a2,2,0,0,1-3.85-.8,2,2,0,1,1,3.85.8Z"/><path class="cls-13" d="M413.44,504.22l-128.9-26c-1.43-.27-2.32-1.35-2.14-2.33h0c.18-1,1.52-1.61,2.86-1.26l128.9,26.05c1.43.27,2.33,1.35,2.15,2.33h0C416.13,503.87,414.88,504.49,413.44,504.22Z"/><path class="cls-13" d="M415.59,493.75,286.69,467.7c-1.43-.27-2.32-1.34-2.15-2.32h0c.18-1,1.53-1.62,2.87-1.26l128.9,26.05c1.43.27,2.32,1.34,2.15,2.33h0C418.28,493.48,416.93,494,415.59,493.75Z"/><path class="cls-13" d="M417.65,483.28l-128.9-26c-1.43-.27-2.33-1.34-2.15-2.33h0c.18-1,1.52-1.61,2.87-1.25l128.9,26.05c1.43.27,2.32,1.34,2.14,2.32h0C420.43,483,419.08,483.64,417.65,483.28Z"/><path class="cls-13" d="M419.8,472.89l-128.9-26c-1.43-.27-2.33-1.35-2.15-2.33h0c.18-1,1.52-1.61,2.87-1.25l128.89,26c1.44.27,2.33,1.35,2.15,2.33h0C422.48,472.63,421.23,473.16,419.8,472.89Z"/><path class="cls-13" d="M421.86,462.42,293,436.37c-1.43-.27-2.33-1.34-2.15-2.32h0c.18-1,1.52-1.62,2.86-1.26l128.9,26c1.44.27,2.33,1.34,2.15,2.33h0C424.63,462.15,423.29,462.69,421.86,462.42Z"/><path class="cls-6" d="M282.31,327.53,271,346.23l-55.32,2.33.09,1.34,56-2.41,11.91-19.61A3.86,3.86,0,0,1,282.31,327.53Z"/><path class="cls-6" d="M176.41,394.75l-26.49-23.36,7-34.64,33.48-11.28,26.49,23.36-7,34.64Zm-25-23.9,25.33,22.29,32-10.74,6.71-33-25.33-22.29-32,10.74Z"/><rect class="cls-6" x="109.07" y="382.14" width="44.84" height="1.34" transform="translate(-180.8 125.31) rotate(-31.53)"/><rect class="cls-6" x="142.04" y="294.53" width="1.34" height="47.8" transform="translate(-165.86 155.49) rotate(-38.02)"/><path class="cls-14" d="M124.85,346.41l13.07,2.6.45-2.06-13-2.6A7.81,7.81,0,0,0,124.85,346.41Z"/><path class="cls-14" d="M123.78,346.14,118.05,345l.45-2.06,5.73,1.17C124.05,344.8,123.87,345.52,123.78,346.14Z"/><path class="cls-14" d="M126.38,351.78,113,349.1l.45-2.06,13.33,2.68c-.09.36-.09.81-.18,1.17A2.66,2.66,0,0,0,126.38,351.78Z"/><path class="cls-14" d="M128,349.9l9.4,1.88-.45,2.06L127.72,352a4.3,4.3,0,0,0,.09-1.07A4.64,4.64,0,0,1,128,349.9Z"/><path class="cls-14" d="M118.23,353l18.17,3.67-.45,2.06-18.08-3.67c.09-.36.09-.72.18-1.08S118.14,353.39,118.23,353Z"/><path class="cls-14" d="M130.67,360.65l4.66,1-.45,2.06-4.3-.9v-1.07A4,4,0,0,0,130.67,360.65Z"/><path class="cls-14" d="M129.33,362.52l-14.23-2.86.44-2.06,14,2.78c0,.44-.09.89-.09,1.34C129.42,362,129.33,362.26,129.33,362.52Z"/><polygon class="cls-14" points="118.59 365.48 118.86 363.33 134.43 366.46 133.98 368.61 124.05 366.55 118.59 365.48"/><polygon class="cls-14" points="109.99 363.69 110.35 361.63 117.51 363.06 117.33 365.21 109.99 363.69"/><path class="cls-14" d="M167,300.85l13.07,2.6.45-2.06-13-2.6A7.71,7.71,0,0,0,167,300.85Z"/><path class="cls-14" d="M165.94,300.58l-5.73-1.16.45-2.06,5.73,1.16C166.21,299.24,166.12,300,165.94,300.58Z"/><path class="cls-14" d="M168.54,306.22l-13.43-2.68.45-2.06,13.33,2.68c-.09.36-.09.81-.18,1.17A3.42,3.42,0,0,0,168.54,306.22Z"/><path class="cls-14" d="M170.15,304.34l9.4,1.88-.45,2.06-9.22-1.88a4.34,4.34,0,0,0,.09-1.07C170.06,305.06,170.06,304.7,170.15,304.34Z"/><path class="cls-14" d="M160.39,307.47l18.17,3.67-.45,2.06L160,309.53c.09-.35.09-.71.18-1.07S160.3,307.83,160.39,307.47Z"/><path class="cls-14" d="M172.83,315.08l4.66,1-.45,2.06-4.3-.9v-1.07A4,4,0,0,0,172.83,315.08Z"/><path class="cls-14" d="M171.49,317l-14.23-2.86.44-2.06,14,2.77c0,.45-.09.9-.09,1.35A2.18,2.18,0,0,1,171.49,317Z"/><polygon class="cls-14" points="160.75 319.92 161.02 317.77 176.59 320.9 176.14 323.05 166.21 320.99 160.75 319.92"/><polygon class="cls-14" points="152.16 318.13 152.51 316.07 159.67 317.5 159.5 319.65 152.16 318.13"/><path class="cls-14" d="M244.71,336.83l20.14,4,.45-2.06-20.23-4.11A21.25,21.25,0,0,0,244.71,336.83Z"/><path class="cls-14" d="M243,336.48l-8.86-1.79.45-2.06,8.77,1.79C243.28,335.13,243.1,335.85,243,336.48Z"/><path class="cls-14" d="M249.63,331.55c-.09.36-.26.72-.35,1.17l-20.59-4.12.45-2.06,20.76,4.21A8.21,8.21,0,0,0,249.63,331.55Z"/><path class="cls-14" d="M251.6,332.09a4.15,4.15,0,0,1,.36-1L266.28,334l-.44,2.06-14.5-2.95C251.42,332.72,251.51,332.45,251.6,332.09Z"/><path class="cls-14" d="M239.07,324.48l.27-1.07,27.93,5.64-.45,2.06-28-5.64C238.89,325.11,239,324.84,239.07,324.48Z"/><path class="cls-14" d="M261.09,323.77a9.82,9.82,0,0,0,.54-1l6.62,1.34-.44,2.06-7.25-1.43C260.73,324.48,260.91,324.12,261.09,323.77Z"/><path class="cls-14" d="M259.21,323.14c-.18.45-.36.8-.53,1.25L237.1,320l.45-2.06,22,4.47A5.34,5.34,0,0,1,259.21,323.14Z"/><polygon class="cls-14" points="253.84 316.16 269.24 319.29 268.79 321.35 244.8 316.51 245.43 314.46 253.84 316.16"/><polygon class="cls-14" points="243.46 314.1 242.74 316.07 231.64 313.83 232.09 311.77 243.46 314.1"/><path class="cls-6" d="M185.9,380l-12.53-2.51a7,7,0,0,1-5.46-8.23l3.31-16.38,26.32,5.28-3.31,16.38A7.1,7.1,0,0,1,185.9,380Z"/><rect class="cls-15" x="180.73" y="344.96" width="6" height="26.76" transform="translate(-203.88 467.55) rotate(-78.59)"/><path class="cls-15" d="M194.4,360.47a1.3,1.3,0,0,1-1-1.44l1.16-5.73a9.63,9.63,0,1,0-18.88-3.84l-1.17,5.72a1.22,1.22,0,1,1-2.41-.44l1.16-5.73a12.06,12.06,0,0,1,23.63,4.83l-1.16,5.73A1.14,1.14,0,0,1,194.4,360.47Z"/><path class="cls-6" d="M195.39,361.72a1.47,1.47,0,0,1-1.07-1.61l1.25-6.36a10.73,10.73,0,1,0-21-4.2l-1.25,6.35a1.37,1.37,0,0,1-2.69-.54l1.26-6.35a13.37,13.37,0,1,1,26.22,5.28l-1.25,6.36A1.1,1.1,0,0,1,195.39,361.72Z"/><circle class="cls-7" cx="182.41" cy="364.76" r="2.42"/><path class="cls-7" d="M181.52,371.39l-.81-.18c-.27-.09-.45-.27-.36-.54l1.08-5.37,1.7.36L182.05,371A.39.39,0,0,1,181.52,371.39Z"/><path class="cls-16" d="M301.91,499.66a17,17,0,1,0,12.53,20.5A17,17,0,0,0,301.91,499.66Zm-6.44,26.67a10.54,10.54,0,1,1,12.71-7.78A10.57,10.57,0,0,1,295.47,526.33Z"/><path class="cls-17" d="M301.91,499.66l-1.52,6.26a10.52,10.52,0,0,1,2.68,19.43l3.41,5.55a16.73,16.73,0,0,0,8-10.74A17.06,17.06,0,0,0,301.91,499.66Z"/><path class="cls-16" d="M389.72,550.77a17,17,0,1,0-5.19-23.45A17.05,17.05,0,0,0,389.72,550.77Zm14.77-23.18a10.5,10.5,0,1,1-14.5,3.22A10.62,10.62,0,0,1,404.49,527.59Z"/><path class="cls-17" d="M389.72,550.77l3.49-5.46A10.56,10.56,0,0,1,397,526.06l-1.43-6.26a17,17,0,0,0-5.82,31Z"/><path class="cls-18" d="M360.18,539.4a14.84,14.84,0,1,0-20.41-4.92A14.85,14.85,0,0,0,360.18,539.4Zm-12.44-20.5a9.18,9.18,0,1,1-3,12.63A9.17,9.17,0,0,1,347.74,518.9Z"/><path class="cls-17" d="M360.18,539.4l-2.95-4.83a9.17,9.17,0,0,1-12.62-3,8.79,8.79,0,0,1-1-7.26l-5.46-1.34a14.83,14.83,0,0,0,22,16.47Z"/><path class="cls-19" d="M371.28,531.26l-.89-.18a18.47,18.47,0,0,0-35.9-8.69l-.89-.17a19.37,19.37,0,1,1,37.68,9Z"/><path class="cls-19" d="M319.28,521.32l-.81-.18a21.25,21.25,0,0,0-15.66-25.6l.17-.8A22,22,0,0,1,319.28,521.32Z"/><path class="cls-19" d="M412.19,518.46l-.54.62a21.19,21.19,0,0,0-29.8,3.31l-.63-.53A22,22,0,0,1,412.19,518.46Z"/><path class="cls-16" d="M137.3,439.6A33.42,33.42,0,1,0,163.43,479,33.43,33.43,0,0,0,137.3,439.6ZM128,485.69A13.55,13.55,0,1,1,143.92,475,13.61,13.61,0,0,1,128,485.69Z"/><path class="cls-19" d="M128.52,482.92a10.78,10.78,0,1,1,12.71-8.41A10.81,10.81,0,0,1,128.52,482.92Zm4.12-20.14a9.81,9.81,0,1,0,7.7,11.55A9.86,9.86,0,0,0,132.64,462.78Z"/><polygon class="cls-19" points="130.94 472.81 130.4 472 167.01 447.65 195.39 453.38 195.21 454.37 167.19 448.73 130.94 472.81"/><path class="cls-19" d="M178.38,447.29a2.9,2.9,0,0,1-2.24-3.4,2.84,2.84,0,0,1,3.41-2.24,2.89,2.89,0,0,1,2.23,3.41A2.86,2.86,0,0,1,178.38,447.29Zm1-4.65a1.91,1.91,0,1,0,1.52,2.24A1.94,1.94,0,0,0,179.37,442.64Z"/><circle class="cls-19" cx="187.78" cy="446.22" r="2.42"/><circle class="cls-9" cx="238.36" cy="505.39" r="13.96" transform="translate(-48.64 25.95) rotate(-5.65)"/><polygon class="cls-19" points="238 505.66 223.94 484.44 173.1 474.15 173.19 473.43 224.39 483.73 224.48 483.9 238.71 505.21 238 505.66"/><path class="cls-19" d="M180.71,471.1a2.33,2.33,0,1,1,2.77-1.79A2.34,2.34,0,0,1,180.71,471.1Zm.81-3.76a1.55,1.55,0,1,0,1.25,1.79A1.61,1.61,0,0,0,181.52,467.34Z"/><path class="cls-19" d="M187.87,472.63a2.34,2.34,0,1,1,2.78-1.79A2.52,2.52,0,0,1,187.87,472.63Zm.81-3.85a1.54,1.54,0,1,0,1.25,1.79A1.66,1.66,0,0,0,188.68,468.78Z"/><g class="cls-20"><polyline class="cls-21" points="250.26 367.45 242.65 365.3 240.41 373.27"/><polyline class="cls-21" points="234.6 423.39 226.99 421.33 229.22 413.37"/><polyline class="cls-21" points="285.26 380.61 292.87 382.75 290.63 390.72"/><polyline class="cls-21" points="269.6 436.64 277.2 438.7 279.44 430.73"/></g><g class="cls-22"><path class="cls-10" d="M234.86,390.72a.82.82,0,0,1-.26.09c-.09,0-.09-.27-.36-.27h-3.05c-.35,0-1-.09-1.16-.09s-.36,0-.36.09-.27.27-.53.27-1.44.18-1.17.63,1.08.36,1.17.53-.9,0-1.17.09-.36.54.18.54.72-.09.72.09-1.17.72-.54.9.54-.18.81-.09a2.49,2.49,0,0,0,.71.26c.36.18-1.7.81-1.16,1.17s2.15-.63,2.33-.81,0-.71.89-1a4.53,4.53,0,0,1,2.51.09,2.35,2.35,0,0,1,1.16.8c.27.36.45,1,.63,1s.27-.36.27-.45,1.43.81,1.52,1.52-.18,2.6,1.52,3.31.89,2.06,2.06,2.33,1.16.9,1.61,1.17.89.53,1.43.71.36-.18.72-.09.53.54.89.63.63-.18.9,0,.18.62.45.8.89.72,1.16.63.27-.54.45-.36a1.51,1.51,0,0,1,.53,1c0,.36-.44.71-.53,1a2,2,0,0,0-.09.72c0,.18-.36.53-.18.89s.71.45,1,1.17a2.24,2.24,0,0,0,.9,1.34c.36.18.89.45,1,.72a7.26,7.26,0,0,1,.18,2.41c-.09.27-.36.36-.36.81s.09.53.09.8-.27.45-.27.9.09,1,.09,1.34-.26.45-.26.72.09.44.09.53-.09.27,0,.45a1.75,1.75,0,0,1,.17.45,1.56,1.56,0,0,0,1.88,1.07c.27-.18.09-.44-.09-.53s-.62-.36-.35-.72.62-.54.62-.8-.44-.09-.53-.09.8-.72.8-1-.45-.45-.36-.63.45.27.63.18-.18-.35.09-.62,1,0,1.07-.36-.62-1-.35-1.25.35.71.71.44.45-1,.9-1.25.27-1,.44-1.34a2,2,0,0,1,1.35-.72,2.28,2.28,0,0,0,.71-2.42c-.35-.71.9-.44.72-1.43s-2.24-2.06-2.95-1.79-1,.18-1.08-.09.27-1.07-.54-1.34-.8.09-1,0a4.51,4.51,0,0,1-.72-.63c-.26-.18-.18-.62-.71-.53a4,4,0,0,1-.81.09c-.09,0-.8-.45-1.07-.36s-.81.89-1.08,1-.35-.18-.62-.18-.45.54-.81.27-.18-1.07-.45-1.52-.89-.09-1.07-.09,0-.09,0-.63.09-.62-.27-.8-.45.18-.54.45-.44.44-.71.44-1-.35-1-1.61.63-1.34,1.44-1.25.71-.63,1.16-.45,1,1.25,1.16,1.34-.36-1.07-.27-1.43,1.53-1.07,1.26-1.61a.82.82,0,0,1,.27-1.16c.44-.27.71.09.8-.36a1,1,0,0,1,.54-.72c.09,0,1.07-.27,1.25-.27s.45-.09-.09-.44-1.16-.09-1.25-.27.63-1,.89-.63.54.09.72,0,.18-.45.45-.27a.6.6,0,0,1,.18.63.51.51,0,0,0,.35.54c.36.09.72-.18.63-.45s-.54-.54-.54-.54.09-.45,0-.54a6.44,6.44,0,0,1-1.79-1.25c-.26-.45-.53-.27-.62-.09s-.45.54-.63.09a.92.92,0,0,0-.54-.62c-.26-.09-1.7-.54-1.43.44s.36,1,.18,1.08,0,.8-.27,1.07-.36.18-.71-.36-2.15-.53-2.6-.71-.89-.72-.27-1.17.81-.89,1.25-.8,1.53.36,1.53.09-1.08-.45-.9-.63.81,0,.9-.27-.72-.54,0-.71,1.16-.27,1.07.17.09.54.36.36.36-.44.45-.18a.54.54,0,0,1-.36.72c-.36,0-.72.09-.63.36s.81-.18,1.34,0a5.52,5.52,0,0,0,1.44.27c.27,0-.09-.45-.18-.72s1.07.45,1.16-.18-1.25-.27-1.34-.54a1,1,0,0,0-.63-.71,8,8,0,0,0-2-.45,2.37,2.37,0,0,0-1.52.45c-.27.18-.89-.27-1.07,0s.18.89,0,.89-.72-.62-.9-.44.18.89-.27,1a4.42,4.42,0,0,1-1.88.09c-.35-.09-.09-.54-.35-1.07s-.45-1.08-1.35-1a6.08,6.08,0,0,1-1.7-.27c-.36,0-1.16,0-1.25.36a1.07,1.07,0,0,1-.36.63c-.18.18-.09.8.45.62s1.16-.18,1.07.09-1,.45-1.16.36A2.83,2.83,0,0,0,234.86,390.72Z"/><path class="cls-10" d="M253,421.6a1.75,1.75,0,0,1-1.88-1.34l-.18-.36a1,1,0,0,1-.09-.45v-.17a1,1,0,0,1,0-.54.47.47,0,0,1,.18-.36.33.33,0,0,0,.09-.27,1.68,1.68,0,0,0-.09-.62c0-.27-.09-.45-.09-.72a1.8,1.8,0,0,1,.18-.81.31.31,0,0,1,.09-.18v-.26a3.9,3.9,0,0,1-.09-.45,1.43,1.43,0,0,1,.26-.72c.09-.09.09-.09.09-.18a10.27,10.27,0,0,0-.17-2.23c0-.18-.45-.36-.63-.45s-.09-.09-.18-.09a2.58,2.58,0,0,1-1-1.43,2.31,2.31,0,0,0-.53-.72,1.08,1.08,0,0,1-.45-.45.79.79,0,0,1,.09-.8.31.31,0,0,0,.09-.18,2.78,2.78,0,0,1,.09-.81.71.71,0,0,1,.27-.44c.09-.18.27-.36.27-.45a1.36,1.36,0,0,0-.36-.72c-.09.09-.18.27-.36.36h-.09a1.62,1.62,0,0,1-.89-.45.68.68,0,0,0-.36-.18.76.76,0,0,1-.36-.62c0-.09-.09-.18-.09-.27h-.36c-.18,0-.36.09-.54,0a2,2,0,0,1-.53-.36c-.09-.09-.27-.27-.36-.27h-.18c-.09,0-.18.09-.36.09a.68.68,0,0,1-.36-.09,3.39,3.39,0,0,1-1-.45c-.18-.09-.27-.18-.45-.26a2,2,0,0,1-.45-.36,1.68,1.68,0,0,0-1.07-.72,1.46,1.46,0,0,1-1-1.07,1.61,1.61,0,0,0-1.17-1.26c-1.61-.62-1.61-2.14-1.7-3V396a2.46,2.46,0,0,0-1.16-1.16c-.09.18-.18.27-.36.27h-.09c-.27,0-.45-.27-.63-.63a2,2,0,0,0-.27-.45,2.41,2.41,0,0,0-1.07-.71,6.61,6.61,0,0,0-1.61-.18c-.27,0-.54.09-.72.09a.88.88,0,0,0-.62.62.68.68,0,0,1-.18.36,4.94,4.94,0,0,1-2.15.9A1.14,1.14,0,0,1,228,395a.36.36,0,0,1-.18-.36c0-.36.36-.54.9-.9,0,0,.09,0,.09-.08s-.18-.09-.27-.09-.18.09-.36.09a.81.81,0,0,1-.45-.09c-.26-.09-.35-.27-.35-.36a.56.56,0,0,1,.35-.54h0a.54.54,0,0,1-.62-.54.5.5,0,0,1,.44-.53c-.08-.09-.17-.09-.17-.18a.4.4,0,0,1,0-.45c.26-.45,1.43-.54,1.43-.54h0a.91.91,0,0,0,.27-.09.41.41,0,0,1,.44-.27.33.33,0,0,1,.27.09c.09,0,.72.09,1,.09h3a.53.53,0,0,1,.45.18.09.09,0,0,0,.09-.09,3.07,3.07,0,0,1,1.61-.44A3.64,3.64,0,0,1,237,390c-.09-.09-.18-.18-.18-.27a.68.68,0,0,1,.09-.72,1,1,0,0,0,.27-.54c.18-.44.9-.53,1.34-.53h.18a1.76,1.76,0,0,1,.63.09,3.34,3.34,0,0,0,1.07.18h0c1-.09,1.26.53,1.53,1.07v.09a1.2,1.2,0,0,1,.18.71v.18h.53a4.56,4.56,0,0,0,1.17-.18h0v-.35a1.14,1.14,0,0,1,.09-.54c.09-.09.09-.09.17-.09a.78.78,0,0,1,.54.27l.09.09h0a1,1,0,0,1,0-.72.47.47,0,0,1,.36-.18,1,1,0,0,1,.45.09c.09,0,.27.09.35.09H246a.09.09,0,0,0,.09-.09,3.22,3.22,0,0,1,1.26-.44h.27a4.23,4.23,0,0,1,1.52.35c.18.09.36.09.53.18a1.05,1.05,0,0,1,.81.81h.36a1.27,1.27,0,0,1,1,.27c.09.09.18.18.09.35a.5.5,0,0,1-.53.45H251a.54.54,0,0,1,.09.36q0,.13-.27.27h-.18a4.37,4.37,0,0,1-1.43-.27c-.09,0-.18-.09-.36,0h-.27a2.67,2.67,0,0,1,1,.18c.36.09.54.27.72.72V392l.18-.17a.61.61,0,0,1,.54-.36c.18,0,.36.09.62.45a9.47,9.47,0,0,0,1.35,1c.18.09.35.18.35.27a.85.85,0,0,1,.18.62h0a1.05,1.05,0,0,1,.54.54.57.57,0,0,1,0,.54.85.85,0,0,1-.89.36c-.27-.09-.45-.27-.45-.36a1,1,0,0,1-.09-.45.44.44,0,0,0-.09-.27h0c0,.09-.09.09-.09.18a1,1,0,0,1-.54.27.74.74,0,0,1-.53-.27c-.09,0-.18.18-.36.27a1.86,1.86,0,0,1,1.07.27c.27.18.54.36.54.63,0,.09-.09.26-.45.35a3.9,3.9,0,0,1-.45.09c-.44.09-.71.18-.8.18s-.27.18-.27.45a.51.51,0,0,1-.54.45H250a.33.33,0,0,0-.27.09c-.26.18-.44.35-.18.8s-.35,1-.8,1.35a2.15,2.15,0,0,0-.45.35,2.78,2.78,0,0,0,.18.72c.09.36.18.63.09.8a.33.33,0,0,1-.27.09c-.18,0-.36-.17-.62-.62a2.57,2.57,0,0,0-.63-.72h0a.09.09,0,0,1-.09.09,1.13,1.13,0,0,1-.81.45h-.8c-.36,0-.63.09-.63,1,0,1.08.63,1.44.72,1.44a1,1,0,0,0,.44-.18.78.78,0,0,1,.54-.72h.27c.54.18.54.54.54,1.07v.27h.27a.7.7,0,0,1,.71.36,1.48,1.48,0,0,1,.18.9,1.26,1.26,0,0,0,.18.62h0l.09-.09a.69.69,0,0,1,.45-.18h0a.64.64,0,0,1,.44.18h.09l.27-.27c.36-.35.54-.62.81-.62h.09a1.94,1.94,0,0,1,.89.27c.09,0,.18.09.27.09h0v0a3.37,3.37,0,0,0,.72-.09h.18a.71.71,0,0,1,.62.44.31.31,0,0,0,.09.18c.09.09.27.18.36.27s.27.18.27.27h0c.09,0,.18-.09.36-.09a2.44,2.44,0,0,1,.71.09c.81.27.72,1,.72,1.34v.18c0,.09,0,.09.18.09a3.54,3.54,0,0,0,.54-.18c.09,0,.18-.09.26-.09.9-.09,2.87,1,3,2.06a.92.92,0,0,1-.63,1.08.19.19,0,0,0-.18.18h0v.08a2.52,2.52,0,0,1-.18,2c-.18.27-.35.72-.71.81a1.67,1.67,0,0,0-1.17.63.64.64,0,0,0-.09.44,1.16,1.16,0,0,1-.44,1c-.18.09-.27.36-.36.54a1.42,1.42,0,0,1-.54.71.54.54,0,0,1-.36.09.74.74,0,0,1,.09.63c-.09.36-.53.36-.71.36h-.36v.09c0,.08.09.35-.09.53a.33.33,0,0,1-.27.09c0,.09.09.18.09.27,0,.27-.18.45-.45.81.09.09.18.18.18.26.09.36-.18.54-.36.72a1.08,1.08,0,0,0-.26.36c-.09.09-.09.09.17.27l.09.09a.89.89,0,0,1,.36.62.48.48,0,0,1-.27.36h-.09C253.3,421.51,253.13,421.6,253,421.6Zm-3.41-16.29a1.9,1.9,0,0,1,.36.9,1.59,1.59,0,0,1-.36.8,1.11,1.11,0,0,0-.17.27,1.34,1.34,0,0,0-.09.54.81.81,0,0,1-.09.45.63.63,0,0,0-.09.35l.27.27a2.72,2.72,0,0,1,.71.9c.27.71.45,1,.72,1.16.09,0,.09.09.18.09a2.23,2.23,0,0,1,1,.81,10.91,10.91,0,0,1,.18,2.59c-.09.09-.09.18-.18.27a.47.47,0,0,0-.18.36c0,.18,0,.27.09.36s.09.27,0,.44a.47.47,0,0,1-.18.36,1,1,0,0,0-.18.54,2,2,0,0,0,.09.72c0,.26.09.44.09.71a1.3,1.3,0,0,1-.18.63c-.09.09-.09.09-.09.18v.71a3,3,0,0,1,.27.54,1.27,1.27,0,0,0,1.35.9h.17l-.09-.09a.08.08,0,0,1-.08-.09.61.61,0,0,1-.27-1c.09-.18.27-.27.35-.45a.31.31,0,0,1,.18-.09H253a.18.18,0,0,1-.18-.17c0-.18.09-.27.27-.45l.53-.54a.31.31,0,0,1-.09-.18c-.09-.09-.36-.36-.18-.62.09-.09.18-.18.27-.18s.18.09.27.09a.58.58,0,0,1,.18-.45.76.76,0,0,1,.63-.18h.09c.18,0,.26,0,.26-.09a.66.66,0,0,0-.17-.36,1,1,0,0,1-.18-1c.09-.09.18-.18.27-.18.26,0,.35.18.44.36a.31.31,0,0,0,.09.18,1.38,1.38,0,0,0,.36-.54,1.35,1.35,0,0,1,.63-.81c.18-.09.18-.27.18-.53a1.27,1.27,0,0,1,.17-.72c.27-.54,1-.72,1.53-.9.09,0,.27-.17.35-.44a2.41,2.41,0,0,0,.18-1.52.64.64,0,0,1,.36-.9c.27-.18.45-.27.36-.54-.09-.71-1.7-1.7-2.51-1.61h-.09a2,2,0,0,1-.71.18.66.66,0,0,1-.72-.45v-.35c0-.45,0-.63-.36-.81a.94.94,0,0,0-.44-.09c-.09,0-.09,0-.18.09s-.09.09-.18.09h-.18a1.88,1.88,0,0,1-.54-.36l-.27-.27a.48.48,0,0,1-.27-.36l-.08-.17H253a3.9,3.9,0,0,1-.81.08h-.09c-.09,0-.18,0-.45-.17a3.22,3.22,0,0,0-.62-.27c-.09,0-.36.36-.54.53s-.36.45-.54.45Zm-2.86-1.52a.67.67,0,0,1,.45.09c.18.09.27.36.36.54s.09.27.17.27.18.08.27.17a1.27,1.27,0,0,1-.09-.62,1,1,0,0,0-.18-.63.35.35,0,0,0-.26-.09.54.54,0,0,0-.36.09H247a.39.39,0,0,1-.27-.09.27.27,0,0,1,0-.36,3.65,3.65,0,0,0,.09-.44v-.45l-.09-.09h-.09c-.09,0-.09.18-.09.27,0,.45-.63.62-.89.62h0a1,1,0,0,1-.63-.26,2.5,2.5,0,0,1-.63-1.62c0-1,.36-1.52,1.17-1.52h.8c.18,0,.27-.09.36-.27a.56.56,0,0,1,.45-.26.33.33,0,0,1,.27.09,2.92,2.92,0,0,1,.62.53.55.55,0,0,1,0-.53,2,2,0,0,1,.63-.63c.27-.18.81-.63.72-.72-.36-.89.09-1.25.44-1.43a1.14,1.14,0,0,1,.54-.09h.18v-.09a1,1,0,0,1,.81-.89h.08a4,4,0,0,0,.72-.18c.09,0,.27-.09.36-.09h0a1.64,1.64,0,0,0-.81-.18,1.1,1.1,0,0,1-.53-.09c-.09-.09-.18-.27-.09-.36a1.3,1.3,0,0,1,1-.8.46.46,0,0,1,.36.17.09.09,0,0,0,.09.09.31.31,0,0,0,.18-.09.09.09,0,0,1,.09-.09c.09-.08.18-.26.44-.26a.33.33,0,0,1,.27.09c.09.09.18.17.18.26v-.35c-.09,0-.18-.09-.27-.18a3.76,3.76,0,0,1-1.52-1.17.28.28,0,0,1-.09-.18l-.09.09a.82.82,0,0,1-.62.45.56.56,0,0,1-.54-.36c-.18-.35-.27-.44-.45-.44a3.13,3.13,0,0,0-.89-.18c-.09,0-.18,0-.18.09v.26a2.29,2.29,0,0,1,.18.63c.09.36.18.54-.09.72v.18a.89.89,0,0,1-.27.8.68.68,0,0,1-.36.18c-.27,0-.36-.18-.63-.54l-.09-.09c-.17-.26-1-.35-1.52-.44a5.11,5.11,0,0,1-.89-.18,1.59,1.59,0,0,1-.72-.81,1,1,0,0,1,.36-.8c.18-.09.27-.27.36-.36.36-.36.53-.54,1-.54a1,1,0,0,1,.45.09c-.09-.09-.09-.09-.09-.18a.33.33,0,0,1,.09-.27c.09-.18.27-.18.54-.18h.18c-.09-.08-.27-.26-.18-.44s.27-.36.44-.36q1.08-.27,1.35,0c.09.09.09.18.09.36a1.33,1.33,0,0,1,.35-.27.34.34,0,0,1,.36.27.69.69,0,0,1-.09.71v.09a.33.33,0,0,1,.27.09,3.11,3.11,0,0,0,1.17.27c0-.09-.09-.09-.09-.18s-.09-.09-.09-.18-.09-.27,0-.27a.18.18,0,0,1,.18-.17.49.49,0,0,1-.45-.27c-.09-.27-.18-.45-.45-.54a1.28,1.28,0,0,1-.54-.18c-.44-.09-1-.27-1.43-.36h-.27a1.43,1.43,0,0,0-1,.36.09.09,0,0,0-.09.09c-.09,0-.18.09-.27.09a1.14,1.14,0,0,1-.54-.09h-.18v.18c.09.27.09.72-.26.72h-.09a1.14,1.14,0,0,1-.63-.36c0,.27,0,.71-.45.8-.27.09-.8.09-1.25.18h-.72a.67.67,0,0,1-.45-.71,1.27,1.27,0,0,0-.08-.54v-.09c-.27-.54-.45-.81-1-.72h0a4.61,4.61,0,0,1-1.25-.18,1,1,0,0,0-.45-.09h-.18c-.72,0-.8.09-.89.18a1.36,1.36,0,0,1-.36.72v.18s0,.09.18.09h.09c.71-.18,1.16-.09,1.34.09s.09.18.09.36c-.09.44-.9.62-1.17.62h-.35a7.93,7.93,0,0,0-1.35-.18,2.2,2.2,0,0,0-1.34.45h0a.68.68,0,0,0-.36.18H235c-.18,0-.26-.18-.35-.18h-3.05a4.61,4.61,0,0,1-1.25-.18h0a1.11,1.11,0,0,1-.72.36h0a3.13,3.13,0,0,0-1,.27,2.19,2.19,0,0,0,.62.27c.27.09.45.09.54.35v.27a.36.36,0,0,1-.36.18h-.09a.31.31,0,0,1,.18.09c0,.09.09.18,0,.36l-.27.27c-.08.09-.26.18-.35.27h.18a.09.09,0,0,0,.09-.09c.08,0,.08-.09.26-.09h.18c.09.09.18.09.36.18s.18.09.36.09.18.18.18.27c0,.26-.18.35-.63.62-.18.09-.45.27-.63.36h.18a3.64,3.64,0,0,0,1.79-.81v-.09a1.26,1.26,0,0,1,1-.89c.27-.09.54-.09.89-.18a4.68,4.68,0,0,1,1.79.18,4.44,4.44,0,0,1,1.35.89l.27.54c0,.09.09.18.09.27v-.09c0-.09,0-.09.08-.18s.09-.09.18-.09c.27,0,1.7,1,1.79,1.79v.54a2.52,2.52,0,0,0,1.35,2.6,2.19,2.19,0,0,1,1.43,1.61c.09.44.18.62.63.71a2.06,2.06,0,0,1,1.34.9l.27.27c.18.09.27.18.44.26a4.2,4.2,0,0,0,.9.45h.18c.09-.09.18-.09.36-.09h.09a.84.84,0,0,1,.62.45c.09.09.18.18.27.18H247C246.68,403.79,246.68,403.79,246.77,403.79ZM253.3,394v.54c0,.09.09.09.18.09h.09c.18,0,.18-.09.18-.09l-.36-.36C253.39,394.12,253.39,394.12,253.3,394Zm-7.43-2.86c-.17,0-.35.18-.62.36a1.72,1.72,0,0,1-.45.35.47.47,0,0,0-.18.36c0,.18.18.36.45.45a3.73,3.73,0,0,0,.8.18c.9.18,1.62.27,1.88.63l.09.09c.09.09.18.17.18.26l.09-.09c.09-.08.09-.26.09-.44a.76.76,0,0,1,.18-.63c0-.09,0-.09-.09-.18a5.74,5.74,0,0,1-.18-.63.67.67,0,0,1,.09-.71c.09-.09.18-.18.27-.18h-.09a.53.53,0,0,1-.45-.18.27.27,0,0,1,0-.36c0-.09.09-.18.45-.27l-.09-.09a.57.57,0,0,1-.09-.53h-.09a2.15,2.15,0,0,0-.62.18h0c.09.09.26.27.18.44s-.18.27-.36.27a.56.56,0,0,1,.44.54c0,.09-.08.27-.35.27a2.78,2.78,0,0,1-.81-.09,1.94,1.94,0,0,1-.72,0ZM228,392.24h0s0,.09.18.09h.27a1,1,0,0,0-.45-.09Zm23-2.15h.18c.18,0,.35.09.53.09h.09c-.09-.09-.44-.09-.53-.09Zm-13.07.09h.18a3.27,3.27,0,0,0,.44-.09,1.73,1.73,0,0,0-.62.09Z"/><path class="cls-10" d="M249.1,387.14s1.16-.36,1.43-.8.54-.36.81-.45-.09-.54.53-.63.9.09,1.34,0,.27-.63.54-.8.18.35.45.26-.18-1,1.88-1.16,1.79.09,1.34.27.36.18,1.17-.09,1,.18,1.07.54.36.8.72.53.62-.71,1.07-.35-.89,1-1.07,1.34.18.36.26.89-.26.72-.62.72.09.63-.18.8-.63-.44-.81-.26.45.44.18.62-1.61.27-2,.63-1.07.45-1.16.72-.18.53-.27.8-.27.54-.8.36a3,3,0,0,1-1.62-1.34c-.18-.54-.44-1.08-.26-1.08s.35.36.53.36.36-.81-.27-.72-.8.36-.89-.09.18-.53-.27-.62-1.79-.54-2-.36,0,.54-.54.36C249.46,387.68,248.56,387.86,249.1,387.14Z"/><path class="cls-10" d="M255.54,391.53a.81.81,0,0,1-.45-.09A3.55,3.55,0,0,1,253.3,390a.31.31,0,0,0-.09-.18,2.52,2.52,0,0,1-.26-.9c-.18,0-.36,0-.45-.36v-.36h-.09a7.42,7.42,0,0,0-1.79-.35h0V388a.4.4,0,0,1-.45.35.68.68,0,0,1-.36-.09c-.09,0-.27-.08-.44-.08-.36,0-.63-.09-.72-.36s.09-.45.27-.63l.09-.09a3.94,3.94,0,0,0,1.25-.63,1,1,0,0,1,.9-.53.64.64,0,0,1,.62-.63h1.35c.08,0,.08-.09.17-.27a.49.49,0,0,1,.27-.45c.09,0,.09-.08.18-.08a.46.46,0,0,1,.36.17c.18-.53.54-1,2-1.07h.45c1.07-.09,1.34,0,1.43.27v.09c.18,0,.36-.09.54-.09s.26-.09.44-.09a1,1,0,0,1,1,.8c.18.45.27.45.27.45h.09c.09-.09.18-.09.27-.18a1.26,1.26,0,0,1,.62-.35.51.51,0,0,1,.45.17.47.47,0,0,1,.18.36c0,.36-.36.63-.72.9l-.45.45v.08a.09.09,0,0,0,.09.09,1.39,1.39,0,0,1,.27.63,1.16,1.16,0,0,1-.18.72.53.53,0,0,1-.53.27v.08c0,.18.09.54-.18.72a.4.4,0,0,1-.45,0h0c0,.09,0,.18-.18.27a3.68,3.68,0,0,1-.89.27,3,3,0,0,0-1.08.36,5.51,5.51,0,0,1-.71.44,2,2,0,0,0-.45.27,3,3,0,0,1-.27.72C256.17,391.26,255.9,391.53,255.54,391.53Zm-2-2.15a.31.31,0,0,0,.09.18c0,.09.09.18.09.27a3.16,3.16,0,0,0,1.43,1.16c.09,0,.18.09.27.09s.18,0,.18-.18a4.24,4.24,0,0,1,.27-.81c.09-.26.36-.35.72-.53a2.87,2.87,0,0,0,.53-.27,2.66,2.66,0,0,1,1.35-.45,1.62,1.62,0,0,0,.62-.18h0c-.09-.09-.27-.27-.18-.45s.09-.17.09-.26a.28.28,0,0,1,.18-.09.49.49,0,0,1,.45.27l.09.08v-.08c0-.18-.09-.36,0-.54s.09-.18.27-.18h0a.33.33,0,0,0,.27-.09c.09-.09.09-.18.09-.36a.47.47,0,0,0-.18-.36c-.09-.18-.27-.35-.09-.71.09-.18.36-.36.53-.63a1.55,1.55,0,0,0,.54-.54h-.09c-.09,0-.18.09-.27.18s-.26.18-.35.27a.33.33,0,0,1-.27.09c-.54,0-.72-.54-.81-.8s-.18-.45-.45-.45a.3.3,0,0,0-.26.09,8.68,8.68,0,0,1-1.08.18c-.18,0-.45,0-.54-.27v-.18a4.76,4.76,0,0,0-1,.09c-1.34.09-1.43.54-1.52.71s-.09.36-.27.36h-.18c-.18,0-.27-.09-.36-.09-.09.18-.18.54-.54.63h-1.34c-.18,0-.18.09-.27.18a.38.38,0,0,1-.35.36h-.09a.54.54,0,0,0-.54.27c-.27.44-1.16.71-1.52.89h.27a1.12,1.12,0,0,1,.53.09H250a.68.68,0,0,1,.18-.36.33.33,0,0,1,.27-.09,6.34,6.34,0,0,1,2,.45c.36.18.45.36.45.63v.18H253a3,3,0,0,1,.53-.09h0c.36,0,.63.17.63.53s-.09.63-.36.72h0C253.75,389.47,253.66,389.47,253.57,389.38Zm.09-.63Z"/><path class="cls-10" d="M307.73,386.16c-.36-.27-.09-.18-.09-.72s-.54-1-.9-.9-1,.36-1.25.45.27-.27-.72-.18-1.34.18-1.61.18.18-.27-.89-.27-1.34.09-1.61-.09-1-.09-1.35-.26-.53-.09-.44-.27.35,0,.53-.27-2-.36-1.88-.09.54.18.72.36.18.71-.18.8-1.25.09-1.34.18a3,3,0,0,1-.54.27s-.27,0-.27-.63-.36-.26-1.07-.09a7.38,7.38,0,0,1-2.69.18c-.18-.18.36-.18.36-.53s-1.61-.09-2-.09-.71-.45-1.16-.09-1,.18-1.43.18-2.15.8-2.78.89-.54.18-.36.63-.18-.09-.8-.09-1.17.27-1.08.63.9.62.72.8-1.52.63-1.34.18.89-1.61.18-1.61-1.26,0-1.44.54-1,.44-2.59.89-1.7,0-2.06.45-.72,1-1.25,1,.44-.18.35-.71a4.88,4.88,0,0,0-3.4-.72,3.85,3.85,0,0,0-3.13,1.43c-.18.18-1.79,1-1.43,1.7s.89.45,1.16.09.09.81.72.72.8-.09,1.07-.54-.09-.45-.18-.89.18-.27.54-.45.36-.27.54-.54.35-.62.62-.36-.62.72-.53,1.08.17.36.8.27.81-.54.9,0-.54.53-.9.8a5.91,5.91,0,0,1-1.07,1c-.45.27-1.88.8-2.06.45s-.81-.36-.81-.09-.8.8-1.43,1.16-.89.36-.72.8.54.72.27.9-1.79-.36-1.79.45-.09,1,.09,1.16a1.25,1.25,0,0,0,1.17.09c.44-.18.8-.18.89-.63s.27-.53.54-.53a.54.54,0,0,0,.36-.45c0-.09.53-.18.71-.27s.09-.45.45-.27,1.07.9,1.52,1,.36-.18,0-.45-1-.54-.89-.81.26-.18.71.09,1,1.53,1.61,1.79.63-.26.45-.44,0-.72.27-.54.18.27.36.63,2.06,0,2.15.44,0,1.17-1.26,1.35-1.79-.09-2.23.26-.72.54-1.35.18-1.61,0-1.16-.62c0,0,.45-.09.27-.45s-1.52-.27-1.88-.09-1.43.45-1.88.63-.72.44-.81,1.34-1,.63-1.16,1.25-.36,1.08-.18,1.43a1.11,1.11,0,0,1,.09.9,1,1,0,0,0,0,1.25c.45.45.45.09,1.16.9s.36.8,1.08.71a7.23,7.23,0,0,0,1.79-.53c.44-.18.35-.36.71-.27s.54.45.72.54.54-.09.63.17-.27.81.17,1.53a8.37,8.37,0,0,1,1,1.61c.18.62.18.71,0,1s-.45.54.18,1.7.45.63.54,1.44.26.53.53,1.25.18.89.81,1a2,2,0,0,0,1.52-.27,4.66,4.66,0,0,0,1.25-2.05c0-.54.36-.54.36-1.26s.63-.89.9-1.25a4.6,4.6,0,0,0-.09-2.42,1.77,1.77,0,0,1,.53-2c.54-.71,1.26-1,1.44-2s.18-1.25-.72-.89-.9-.18-1-.36a13,13,0,0,1-1.17-1.52c-.18-.45-1.52-1.79-1.07-2.33s1.16,1.34,1.34,1.7.45.18.9,1.08.8.89,1.79.26,2.14-2.05,1.43-2.41-.63.36-1,.18-1.34-1.08-1.16-1.52,1.07.71,1.52.71.72,0,1,.27,1.16,0,1.61-.27.8-.27.89.27.63.9.72.72a2,2,0,0,0,.18,1.07c.44.81.62,2,1.34,1.79s.54-1.43.45-1.7,1.07-1.7,1.43-1.79a3,3,0,0,1,1.88,1.34c.45.81.45-.18.63-.18s0,1.08.35,1.35.54-.27.54-.54.45,1.16,1.08,1.07,1.25-.53,1.07-1.07-1.34-1.43-1.16-1.79.62-.81.71-.63-.45,1.17.09,1.17.81-.81.63-1.08.54.18,1-.36,1.35-1.07,1.26-1.79a2.64,2.64,0,0,0-.72-1.43c-.09-.09.27-.27.09-.54s-.36-1.07.09-1a1.08,1.08,0,0,1,1,.54c.09.26-.09.8.27.89s.72-.45.45-1-.09-1.17.54-1.17a2.41,2.41,0,0,0,1.61-.89c.18-.45.27-1.7.62-1.61s0,1.52.36,1.61.45-1.26.27-1.61-.8-.36-1.25-.36-.81-.18-.63-.45a2.62,2.62,0,0,1,1.88-1.16,8.72,8.72,0,0,1,1.79.09c.54,0,.63-.54,1.08-.9s.35.09.62.18-.62.54-1,1-.36,1.07.09,1.34a1.28,1.28,0,0,0,1.43-.81c.09-.53.09-1.34.36-1.43s.27,0,1.34-.18.9-.54,1.25-.63C307.28,386.51,308.09,386.51,307.73,386.16ZM276,394.66a2.9,2.9,0,0,1-1.52,0c-.27-.09-.27.36-1,.27s-.26-.9-.17-1.17a.69.69,0,0,1,.89-.26,3.79,3.79,0,0,1,.36.26,1.88,1.88,0,0,1,.45-.62c.35-.27.44.36.89.62S276.31,394.48,276,394.66Zm2.51-1.34c-.09,0,.53.27.62.89s.27,1-.26,1.17-.72-.36-.54-.72-.18-.36-.45-.54-.54-1-.09-1.25.63-.9,1.16-.36S279.35,393.41,278.55,393.32Z"/><path class="cls-10" d="M273.62,414.53H273a.9.9,0,0,1-.9-.89c0-.09-.09-.18-.09-.27a3,3,0,0,0-.27-.54,2.81,2.81,0,0,1-.26-.8v-.27a.54.54,0,0,0-.09-.36,5,5,0,0,1-.36-.72c-.54-1.16-.45-1.52-.18-1.88v-.09c.09-.18.18-.27,0-.8a3.65,3.65,0,0,0-.45-.81,3.24,3.24,0,0,1-.54-.8,1.74,1.74,0,0,1-.17-1.26v-.27s0-.08-.18,0h-.36c-.18,0-.36-.17-.54-.26l-.27-.27h-.18c-.09.09-.18.09-.35.18a5.83,5.83,0,0,1-1.88.53h-.36a.52.52,0,0,1-.54-.35,6.63,6.63,0,0,0-.45-.54,6.07,6.07,0,0,0-.62-.54,1.37,1.37,0,0,1-.54-.36,1.3,1.3,0,0,1-.09-1.52h0a2.79,2.79,0,0,0-.09-.71,2.13,2.13,0,0,1,.18-1.62,1,1,0,0,1,.72-.62c.26-.18.44-.27.44-.54.09-.89.27-1.25,1-1.52a.31.31,0,0,0,.18-.09h-.27a1.45,1.45,0,0,1-1-.27c-.26-.18-.18-.45-.18-.71v-.63c0-.27.09-.63.81-.72h1.07c0-.09-.09-.09-.09-.18a.49.49,0,0,1-.17-.35.6.6,0,0,1-.09-.54c.09-.18.26-.27.53-.45.09-.09.27-.09.36-.18.9-.54,1.34-.8,1.34-1a.57.57,0,0,1,.54-.45.71.71,0,0,1,.72.45h.18A3.86,3.86,0,0,0,271,391a2.39,2.39,0,0,0,.54-.45l.44-.45a1.67,1.67,0,0,0,.45-.26c.36-.18.36-.18.36-.36h-.09a1,1,0,0,1-.54.18,1.34,1.34,0,0,1-.54.09.58.58,0,0,1-.62-.54v-.09a.31.31,0,0,1-.18.09.68.68,0,0,1-.36.09v.09c0,.09.09.18.09.27a.82.82,0,0,1,0,.8c-.27.54-.63.63-1.25.63h0a.77.77,0,0,1-.72-.63.69.69,0,0,1-.45.18.89.89,0,0,1-.8-.54c-.45-.8.71-1.52,1.25-1.87a.28.28,0,0,1,.18-.09l.09-.09a4.13,4.13,0,0,1,3.22-1.44c2.42-.18,3.58.72,3.58.81l.09.09v.09c0-.09.09-.09.18-.18a1.24,1.24,0,0,0,.27-.36,1.45,1.45,0,0,1,.63-.36h.44a4.52,4.52,0,0,0,1.08-.18c.45-.09.89-.17,1.25-.26.81-.18,1.16-.18,1.16-.45a1.17,1.17,0,0,1,1.17-.72h.54c.26,0,.44.18.44.27h0a1.45,1.45,0,0,1,.81-.27h.18a.67.67,0,0,1,.45.09c0-.18,0-.27.08-.36a.7.7,0,0,1,.63-.26,5.2,5.2,0,0,0,1.25-.45,7.35,7.35,0,0,1,1.53-.45h.71a1.28,1.28,0,0,0,.54-.18,1.28,1.28,0,0,1,.54-.18c.27,0,.44.09.62.09s.18.09.27.09h.81c.62,0,1.34,0,1.34.45a.67.67,0,0,1-.09.45h.54a6.68,6.68,0,0,0,1.61-.27c.18,0,.27-.09.36-.09a1.29,1.29,0,0,1,.53-.18c.18,0,.27,0,.36.09s.18.36.09.45v.26a.74.74,0,0,1,.36-.17,2.08,2.08,0,0,1,1-.18.67.67,0,0,0,.45-.09v-.45a.28.28,0,0,1-.18-.09c-.18-.09-.44-.09-.53-.36a.17.17,0,0,1,0-.27c.09-.18.26-.18.53-.18,0,0,1.44-.09,1.7.36a.17.17,0,0,1,0,.27c-.09.09-.09.18-.18.27a1.34,1.34,0,0,1,.54.09c.36,0,.72,0,.9.27.09.09.18.09.71.09H302c.54,0,.89,0,1,.27h.36c.27,0,.63-.09,1.08-.09h.09c.44,0,.62,0,.8.17a7,7,0,0,1,1.17-.44.76.76,0,0,1,.8.27,1.12,1.12,0,0,1,.36.89,3.9,3.9,0,0,1-.09.45h0a.09.09,0,0,1,.09.09.58.58,0,0,1,.18.45c-.09.26-.45.26-.9.35h-.27l-.09.09a2.2,2.2,0,0,1-1.16.54,3.34,3.34,0,0,1-.89.09h-.36a2,2,0,0,0-.09.81.66.66,0,0,1-.09.44c-.09.54-.81,1-1.43,1.08a.81.81,0,0,1-.45-.09.92.92,0,0,1-.45-.54,1.4,1.4,0,0,1,.27-1.16.09.09,0,0,1,.09-.09l-.54.27h-.62a4.82,4.82,0,0,0-1.17,0,2.28,2.28,0,0,0-1.61,1h0c.09,0,.18.09.36,0h.27c.27,0,1,0,1.25.45a2.49,2.49,0,0,1-.09,1.79.48.48,0,0,1-.36.27h-.09c-.35-.09-.35-.54-.35-1.08v-.27c0,.18-.09.27-.09.45s-.09.54-.18.72a2.67,2.67,0,0,1-1.79,1.07c-.18,0-.36.09-.36.27a.57.57,0,0,0,0,.54,1,1,0,0,1,0,1,.66.66,0,0,1-.72.36c-.45-.09-.45-.54-.45-.81v-.26a.77.77,0,0,0-.71-.36.93.93,0,0,0,.18.62.52.52,0,0,1,0,.63,4.35,4.35,0,0,1,.62,1.43c.09.72-.53,1.26-1,1.7l-.27.27a1.14,1.14,0,0,1-.8.36h-.09a1.67,1.67,0,0,1-.18.63.83.83,0,0,1-.72.53h-.18l.18.18a5,5,0,0,1,.63.81.77.77,0,0,1,0,.63,1.77,1.77,0,0,1-1.26.8c-.44.09-.8-.27-1.07-.63a.45.45,0,0,1-.72,0c-.26-.17-.26-.53-.26-.89-.09,0-.09.09-.18.09-.27,0-.36-.18-.54-.45a2.4,2.4,0,0,0-1.61-1.16,4.65,4.65,0,0,0-1.25,1.43,2.67,2.67,0,0,1-.09,1.61.74.74,0,0,1-.54.36h-.09c-.63,0-1-.63-1.16-1.25-.09-.18-.18-.45-.27-.63a2,2,0,0,1-.27-.9,1.23,1.23,0,0,1-.72-.89c-.09-.27-.18-.27-.18-.27s-.18,0-.35.18a2.6,2.6,0,0,1-1.26.36h-.27c0,.09.09.18.09.27a3.68,3.68,0,0,1-1.79,2.32,2.33,2.33,0,0,1-1.16.45c-.54,0-.81-.45-1-.89a5.17,5.17,0,0,0-.53-.81c-.09-.09-.27-.18-.36-.36a.31.31,0,0,1-.09-.18,4.18,4.18,0,0,0-.81-1.43c-.17.27.45,1,.72,1.34s.36.45.45.63a5.72,5.72,0,0,0,.71,1,5.52,5.52,0,0,1,.45.53c0,.09,0,.09.09.18s.09.18.18.18a.68.68,0,0,0,.36-.09,2.34,2.34,0,0,1,.62-.18c.18,0,.36,0,.45.18a1.28,1.28,0,0,1,0,1.16,2.68,2.68,0,0,1-1,1.53l-.54.53a1.79,1.79,0,0,0-.45,1.79,4,4,0,0,1,.09,2.69c-.09.09-.18.27-.36.36-.26.27-.53.44-.53.71a1.52,1.52,0,0,1-.18.81c-.09.18-.18.27-.09.45a5.37,5.37,0,0,1-1.34,2.32A3.09,3.09,0,0,1,273.62,414.53Zm-4.2-10.29a.59.59,0,0,1,.62.36.55.55,0,0,1,0,.53,2,2,0,0,0,.09,1,8.36,8.36,0,0,1,.45.71,2.58,2.58,0,0,1,.54,1,1.22,1.22,0,0,1,0,1.25v.09c-.09.18-.27.45.27,1.43a5.36,5.36,0,0,0,.35.72c.09.27.18.27.18.54v.26a2.79,2.79,0,0,0,.18.63,1.39,1.39,0,0,1,.27.63c0,.09.09.18.09.27.18.44.18.44.54.53h.53a1.3,1.3,0,0,0,.81-.18,4.38,4.38,0,0,0,1.16-1.88,1.38,1.38,0,0,1,.18-.71,1,1,0,0,0,.18-.54,1.36,1.36,0,0,1,.72-1.16l.27-.27a3.75,3.75,0,0,0-.18-2.15,2.24,2.24,0,0,1,.53-2.24,3.81,3.81,0,0,1,.54-.62,2.37,2.37,0,0,0,.81-1.26,2.79,2.79,0,0,0,.09-.71h0a3.9,3.9,0,0,1-.45.09,1.14,1.14,0,0,1-.54.09c-.54,0-.71-.36-.71-.54V402c0-.09-.18-.27-.36-.45a3,3,0,0,1-.81-1.16,1.37,1.37,0,0,0-.36-.54c-.53-.62-1.07-1.52-.62-2.06a.36.36,0,0,1,.36-.18c.44,0,.89.63,1.34,1.7a.31.31,0,0,0,.09.18c0,.09.09.09.18.18s.44.27.71,1c.27.53.45.53.54.53a2,2,0,0,0,.9-.44c.8-.45,1.61-1.44,1.52-1.79,0-.09,0-.09-.09-.09a.7.7,0,0,0-.27-.09.09.09,0,0,0-.09.09.47.47,0,0,1-.36.18h-.18a3.84,3.84,0,0,1-1.34-1.35.55.55,0,0,1,0-.53c.09-.18.18-.18.36-.27a1.22,1.22,0,0,1,.8.45c.18.08.45.35.54.35h.09a1.07,1.07,0,0,1,1.07.45h.27a1.64,1.64,0,0,0,1-.36,2.24,2.24,0,0,1,.62-.18c.18,0,.54.09.72.63.09.27.27.54.36.54H284c.09,0,.18,0,.18.09s.09.09,0,.27a1,1,0,0,0,.18.8,6.35,6.35,0,0,1,.26.72c.27.62.45,1,.72,1h.09a.19.19,0,0,0,.18-.18,2,2,0,0,0,0-1.25,1,1,0,0,1,.27-.81c.18-.35.89-1.25,1.43-1.25a2.79,2.79,0,0,1,2.06,1.43h0c.09-.18.18-.35.36-.35h0c.35,0,.35.35.35.71a1.55,1.55,0,0,0,.09.72h0a.33.33,0,0,0,.09-.27v-.27c.09-.09.09-.09.18-.09a.33.33,0,0,1,.27.18c.36.81.63.89.72.89h0a1.45,1.45,0,0,0,.89-.53v-.27a1.74,1.74,0,0,0-.53-.63c-.45-.53-.9-1-.63-1.34,0,0,.45-.81.89-.81a.33.33,0,0,1,.27.09.76.76,0,0,1,0,.63c0,.09-.09.36-.09.45s.18-.09.27-.18a4.24,4.24,0,0,0,.18-.45c-.09-.09,0-.27,0-.27s.09-.18.27-.18h.36a.66.66,0,0,0,.44-.18l.27-.26c.45-.36.9-.9.81-1.26a3.78,3.78,0,0,0-.63-1.34.39.39,0,0,1,0-.54.09.09,0,0,1,.09-.09h0c-.09-.18-.36-.8-.18-1.16a.49.49,0,0,1,.45-.27,1.32,1.32,0,0,1,1.25.72v.36c0,.26,0,.26.09.35a.31.31,0,0,0,.18-.09.39.39,0,0,0,0-.44,1.15,1.15,0,0,1,0-1.08,1.3,1.3,0,0,1,.81-.53,2.05,2.05,0,0,0,1.43-.81,5.74,5.74,0,0,0,.18-.63,2.07,2.07,0,0,1,.36-1h-.27a.8.8,0,0,1-.9-.36.42.42,0,0,1,.09-.54l.09-.09a3.14,3.14,0,0,1,2-1.16,5.52,5.52,0,0,1,1.25,0h.54c.27,0,.36-.09.54-.36a1.08,1.08,0,0,1,.45-.45c.18-.08.26-.17.35-.17.27,0,.36.17.45.17l.09.09c.09.09.18.18.18.27s-.18.36-.45.54-.44.36-.62.54-.27.53-.18.71a.19.19,0,0,0,.18.18h.18c.35,0,.89-.36.89-.62a1,1,0,0,1,.09-.45c.09-.63.09-1.08.45-1.26h.53c.18,0,.45-.08.81-.08.63-.09.72-.27.81-.36a1.18,1.18,0,0,1,.35-.27h.54a.4.4,0,0,1-.09-.45.33.33,0,0,1,.09-.27.74.74,0,0,0-.27-.53,1.29,1.29,0,0,0-.27-.18c-.35.09-1,.35-1.25.44h-.18c-.09,0-.18,0-.18-.09l-.09-.09h-.44c-.45,0-.81.09-1,.09s-.45.09-.63,0-.26-.09-.26-.17h-1.17c-.54,0-.8.08-1.16-.18-.09-.09-.36-.09-.54-.09a1.68,1.68,0,0,1-.71-.09c-.09,0-.18-.09-.27-.09s-.27-.09-.36-.27.09-.27.09-.36l.09-.09h-.45l.09.09a1,1,0,0,1,.09.9.68.68,0,0,1-.36.35,1.58,1.58,0,0,0-.54.09c-.26,0-.71.09-.8.09s-.45.36-.63.36h0a.54.54,0,0,1-.36-.09c-.18-.18-.18-.36-.18-.71v-.09c-.08,0-.17.09-.35.09s-.27.09-.36.09a6,6,0,0,1-1.79.26c-1,.09-1.08-.09-1.17-.18a.33.33,0,0,1-.08-.26.28.28,0,0,1,.26-.27l.09-.09h-1.61c-.18,0-.27-.09-.45-.09a.63.63,0,0,0-.35-.09.33.33,0,0,0-.27.09,1.45,1.45,0,0,1-.81.27h-.8a12.85,12.85,0,0,0-1.35.44,7.4,7.4,0,0,1-1.34.45c-.18,0-.18,0-.27.09a.33.33,0,0,0,.09.27c0,.18.09.27,0,.45s-.09.09-.18.09a.33.33,0,0,1-.27-.09.71.71,0,0,0-.53-.18h-.09a1.09,1.09,0,0,0-.72.27l.36.36c.27.17.45.26.45.53,0,.09-.09.18-.18.27a7.93,7.93,0,0,1-1.34.45.58.58,0,0,1-.45-.18c0-.09-.09-.18,0-.36.54-1,.45-1.25.45-1.25H282c-.54,0-.63.18-.72.36-.18.53-.71.62-1.61.8a7,7,0,0,0-1.16.27,6.19,6.19,0,0,1-1.17.18h-.44c-.09,0-.18,0-.27.18l-.27.27a1.47,1.47,0,0,1-1.07.71h-.09a.36.36,0,0,1-.36-.18c-.09-.17.09-.26.18-.35s.27-.18.27-.27a5.51,5.51,0,0,0-3.14-.63,3.91,3.91,0,0,0-2.86,1.25l-.09.09a1.11,1.11,0,0,1-.27.18c-.9.54-1.25,1-1.16,1.17a.47.47,0,0,0,.35.27.68.68,0,0,0,.36-.18,1.11,1.11,0,0,1,.27-.18c.27,0,.36.27.36.44.09.36.09.36.18.36.53-.09.62-.09.8-.44.09-.09.09-.09,0-.27a.69.69,0,0,1-.18-.45.48.48,0,0,1,.36-.63.33.33,0,0,0,.27-.09c.27-.18.27-.18.36-.44s.27-.63.63-.63a.56.56,0,0,1,.44.18c.27.36-.09.62-.27.8s-.26.27-.26.36v.09h.09a3.65,3.65,0,0,1,.44-.09.69.69,0,0,0,.45-.18.54.54,0,0,1,.36-.09c.18,0,.36.09.45.54s-.36.72-.63.9c-.09.08-.27.08-.36.17s-.27.27-.45.36a1.71,1.71,0,0,1-.62.54,5.92,5.92,0,0,1-1.79.63.89.89,0,0,1-.72-.27c-.09-.18-.36-.18-.36-.09-.09.36-.62.8-1.61,1.34-.18.09-.27.18-.36.18s-.18.09-.26.18a.3.3,0,0,0,.08.18c.09.09.09.27.18.36.18.26.36.62,0,.89a.32.32,0,0,1-.26.09h-1c-.27,0-.27.09-.27.18v1c.09.09.27.18.63.09a.54.54,0,0,0,.36-.09c.53-.18.62-.18.71-.44.18-.45.36-.63.72-.72a.19.19,0,0,0,.18-.18c0-.27.27-.36.62-.45.09,0,.18,0,.18-.09h0c0-.09.09-.26.36-.26a.33.33,0,0,1,.27.09c.09.08.18.08.36.17a.26.26,0,0,1,0-.35.34.34,0,0,1,.36-.27,1.77,1.77,0,0,1,.71.27,3.2,3.2,0,0,1,.72.8c.27.36.63.9.89,1a.31.31,0,0,1,.18.09v-.09a.55.55,0,0,1-.09-.63.6.6,0,0,1,.45-.36.33.33,0,0,1,.27.09.09.09,0,0,1,.09.09,1.73,1.73,0,0,1,.18-1v-.09a1,1,0,0,1,.8-.54.67.67,0,0,1,.45.09c.09,0,.09.09.18.09s.18-.27.36-.45.18-.09.36-.18a.57.57,0,0,1,.53.45,1.24,1.24,0,0,0,.27.36.83.83,0,0,1,.45.8.6.6,0,0,1-.36.45c-.09.09-.27.09-.54.09a4.71,4.71,0,0,1-1.16-.09.09.09,0,0,0-.09.09.82.82,0,0,1-.63.27h-.26c-.18,0-.27-.09-.36-.09v.09c0,.09.09.18.09.27a1.94,1.94,0,0,0,.8.09c.72,0,1.26,0,1.44.44a1.33,1.33,0,0,1-.09,1,2,2,0,0,1-1.35.72,6.46,6.46,0,0,1-1.25,0h-.45a.93.93,0,0,0-.45.17c-.26.18-.53.45-.8.45a1.71,1.71,0,0,1-.81-.27,2.07,2.07,0,0,0-.71-.18c-.27,0-.54,0-.63-.26s.09-.45.09-.54.09-.09.18-.09a.09.09,0,0,0,.09-.09v-.09c0-.09-.36-.18-.9-.09a4.85,4.85,0,0,0-.71.09,8.5,8.5,0,0,1-.81.27c-.36.09-.8.27-1.07.36-.45.18-.63.35-.63,1.07s-.45.81-.71,1a.6.6,0,0,0-.45.35,2.33,2.33,0,0,0-.18,1.26,1.35,1.35,0,0,1,.09,1.16h0a.68.68,0,0,0,0,.9c.18.17.27.17.36.26a2.71,2.71,0,0,1,.8.63,2.87,2.87,0,0,1,.54.63.09.09,0,0,0,.09.09h.36a3.72,3.72,0,0,0,1.7-.54c.09-.09.18-.09.27-.18s.17-.09.26-.18a.33.33,0,0,1,.27.09,2,2,0,0,1,.45.36l.18.18a1,1,0,0,0,.45.09Zm22.46-5.46a.28.28,0,0,0,.09.18v-.36A.28.28,0,0,0,291.88,398.78Zm-13.42-1.17a3.43,3.43,0,0,0,1,1h0a1.24,1.24,0,0,1,.36-.27h-.18a1.62,1.62,0,0,1-.89-.45A.41.41,0,0,0,278.46,397.61Zm-9-.44h0a2.51,2.51,0,0,1,1.07.26,1.52,1.52,0,0,0,.45.18c.18,0,.27-.09.54-.26a1,1,0,0,1,.71-.27h1.61c.54-.09.81-.18,1-.45a1.14,1.14,0,0,0,.09-.54,2.51,2.51,0,0,0-.9-.09c-.71,0-1.07,0-1.25-.27s-.18-.26-.18-.35,0-.09-.09-.09v.09a.54.54,0,0,1,.09.62.49.49,0,0,1-.45.27,1,1,0,0,1-.45-.09c-.26-.09-.53-.45-.8-.71a.53.53,0,0,1-.54.09,3.33,3.33,0,0,1-1.07-.63,1.88,1.88,0,0,0-.54-.36h0q0,.14-.27.27c-.09,0-.18.09-.36.09a.31.31,0,0,0-.26.09.81.81,0,0,1-.54.54c-.09,0-.27,0-.36.35a.92.92,0,0,1-.45.54h0a4.18,4.18,0,0,0,.81-.27,8,8,0,0,1,.89-.18c.54,0,1.17,0,1.35.36a.57.57,0,0,1,0,.54C269.6,397,269.51,397.08,269.42,397.17Zm4.47-3.49a.68.68,0,0,0-.45.17v.09c-.08.09-.26.54-.17.63s.09.09.17.09h.18a.47.47,0,0,0,.36-.18.47.47,0,0,1,.36-.18h.18a3,3,0,0,0,1,.09c.18,0,.27-.09.36-.09a.09.09,0,0,0,.09-.09s0-.18-.27-.27a2.06,2.06,0,0,1-.44-.53c0-.09-.09-.09-.09-.18h0a2,2,0,0,0-.36.45.19.19,0,0,1-.18.17.33.33,0,0,1-.27-.09,1.81,1.81,0,0,0-.36-.26C274,393.68,274,393.68,273.89,393.68Zm25.78-3.85a1.7,1.7,0,0,1,.09.71v.09a2.18,2.18,0,0,0-.09-.8Zm3.4-2.6a.09.09,0,0,0-.09.09,1.34,1.34,0,0,0-.35.36l-.09.09a1.7,1.7,0,0,1,.44-.36c.09,0,.09-.09.09-.18ZM283,386.78l-.27.54a1.67,1.67,0,0,0,.63-.18h-.09C283.29,387,283.2,386.87,283,386.78Zm-4.29,8.86a.67.67,0,0,1-.63-.35.87.87,0,0,1,.09-.81.09.09,0,0,1-.09-.09.31.31,0,0,1-.18-.09,1.27,1.27,0,0,1-.45-1,.92.92,0,0,1,.45-.72,1.24,1.24,0,0,0,.36-.27.64.64,0,0,1,.54-.27.77.77,0,0,1,.53.27c.18.27.45.54.27.81a.48.48,0,0,1-.36.27,1.31,1.31,0,0,1,.27.62v.18c.09.45.27,1.08-.54,1.26A.24.24,0,0,1,278.73,395.64Zm0-2.95s-.18.09-.18.18a2,2,0,0,1-.45.36c-.09,0-.09.09-.09.18a1.08,1.08,0,0,0,.18.53.31.31,0,0,0,.18.09c.18.09.45.18.45.36a1,1,0,0,1-.09.45.17.17,0,0,0,0,.27.09.09,0,0,0,.09.09h.09c.26-.09.26-.18.17-.72v-.18a.92.92,0,0,0-.53-.62.47.47,0,0,1-.18-.36c0-.09.18-.18.27-.18h.44a1,1,0,0,1-.17-.27Z"/><path class="cls-10" d="M278.91,411.49a1.55,1.55,0,0,1,.26-1.25,2.75,2.75,0,0,0,.36-1.71c0-.17-.54-.44-.71-.09s-.72.54-.72.81,0,.36.09.72-.09.71,0,.89S277.83,412.2,278.91,411.49Z"/><path class="cls-10" d="M278.37,411.94h0c-.18,0-.27-.09-.36-.09a1,1,0,0,1-.18-.72V411a.57.57,0,0,1,0-.54v-.44a.33.33,0,0,0-.09-.27c0-.18-.09-.27,0-.54s.27-.36.45-.54.27-.18.36-.35a.49.49,0,0,1,.44-.27c.36,0,.72.27.72.44a3.63,3.63,0,0,1-.45,1.88,1.57,1.57,0,0,0-.18,1,.33.33,0,0,1-.09.27A.93.93,0,0,1,278.37,411.94Zm.71-3.41h0a2.72,2.72,0,0,1-.53.54c-.09.09-.27.18-.27.27v.27a.68.68,0,0,0,.09.36v1.52a.7.7,0,0,0,.27-.09,2.39,2.39,0,0,1,.27-1.25,2.48,2.48,0,0,0,.35-1.44A.19.19,0,0,0,279.08,408.53Z"/><path class="cls-10" d="M300.39,407.82s-1.08-.45-1-.9-.71-.89-.89-.71-.45.36-.54.44-.18.63-.36.72-.62-.72-.89-.36-.81.72-.81,1,.18.71.09.71-1.43,0-1.61.36-.63.9-.09,1.52a5,5,0,0,1,.81,1.26c0,.18-.27.53-.09.71a1.48,1.48,0,0,0,1.7-.36c.54-.53.36-.53,1.07-.62s1.26,0,1.43.36.45.17.81.26.27.36.81.72a1.39,1.39,0,0,0,1.88-.18c.44-.63,1.16-1.7.8-2.59a4.53,4.53,0,0,0-1.34-1.88c-.45-.36-.18-1.17-.9-1.44S300.57,407.91,300.39,407.82Z"/><path class="cls-10" d="M302,413.37h0a1.93,1.93,0,0,1-1.16-.36,1.46,1.46,0,0,1-.54-.54c-.09-.09-.09-.09-.18-.09h-.18c-.27,0-.63,0-.8-.35-.09-.18-.54-.27-1.17-.18-.45.09-.45.09-.63.26a1.46,1.46,0,0,0-.26.36,1.83,1.83,0,0,1-1.26.54,1.31,1.31,0,0,1-.8-.18c-.27-.27-.09-.63,0-.8v-.09a4,4,0,0,0-.72-1.08c-.54-.62-.18-1.25,0-1.7,0-.09.09-.09.09-.18.09-.27.54-.36,1.25-.45H296c0-.17-.09-.35-.09-.53s.27-.45.45-.72c.18-.09.27-.27.36-.36a.47.47,0,0,1,.36-.18.91.91,0,0,1,.62.36c0-.09,0-.09.09-.18s.09-.27.18-.35.09-.18.18-.18l.27-.27c.09-.09.18-.18.27-.18a1.59,1.59,0,0,1,.8.36,1,1,0,0,1,.27.71c0,.09.27.36.63.54h0c.09-.36.27-.9.8-1a.59.59,0,0,1,.36.08,1.53,1.53,0,0,1,.81,1.08c.09.18.09.36.18.45a6.21,6.21,0,0,1,1.43,2c.45,1-.18,2.05-.81,2.86A3.32,3.32,0,0,1,302,413.37Zm-3.94-2.06c.72-.09,1.25.09,1.43.45.09.09.09.09.36.09h.27a.52.52,0,0,1,.54.35,2.16,2.16,0,0,0,.44.45,1.74,1.74,0,0,0,.9.27h0a.68.68,0,0,0,.63-.36c.44-.53,1.07-1.52.71-2.32a5.14,5.14,0,0,0-1.25-1.8c-.27-.17-.27-.44-.36-.71a1.24,1.24,0,0,0-.45-.72h-.09c-.18,0-.26.36-.26.54s-.09.45-.36.45h-.09c-.18-.09-1.26-.54-1.17-1.17,0-.09-.09-.18-.09-.26a.62.62,0,0,0-.35-.18,1.08,1.08,0,0,1-.36.26c-.09,0-.09.09-.18.09a.91.91,0,0,0-.09.27c-.09.36-.18.54-.36.54h-.09c-.18,0-.27-.09-.45-.18s-.17-.18-.26-.18c-.09.18-.27.27-.36.45s-.36.27-.36.36a.54.54,0,0,0,.09.36c.09.17.18.53-.09.62h-.72c-.71,0-.8.18-.8.18a.31.31,0,0,0-.09.18.82.82,0,0,0-.09,1.07,3.4,3.4,0,0,1,.81,1.44.63.63,0,0,1-.09.35c0,.09-.09.18-.09.27a.68.68,0,0,0,.44,0,1.45,1.45,0,0,0,.9-.36l.27-.26c.27-.36.36-.36,1-.36C298,411.31,298.06,411.31,298.06,411.31Z"/><path class="cls-10" d="M300.75,404a3.62,3.62,0,0,0-1.35-.36c-.62.09-.89-.54-1.25-.36s0,.72.36.9.54-.27,1,.27.36.8.72,1.16.54.27.8-.09.45-.63.72-.27a.86.86,0,0,0,.9.36A9.28,9.28,0,0,0,300.75,404Z"/><path class="cls-10" d="M300.57,406a.82.82,0,0,1-.63-.27,1,1,0,0,1-.45-.63,1.87,1.87,0,0,0-.35-.53c-.18-.18-.27-.18-.27-.18h-.27a.54.54,0,0,1-.36-.09,1.08,1.08,0,0,1-.63-.9.49.49,0,0,1,.27-.45c.09,0,.09-.08.18-.08a1.26,1.26,0,0,1,.54.17c.18.09.36.27.62.18a2.45,2.45,0,0,1,1.53.36,6,6,0,0,1,1.16.9c.81.8.72.89.72,1.07s-.09.18-.36.18h0a1.24,1.24,0,0,1-1-.54h0l-.27.27A.56.56,0,0,1,300.57,406Zm-1.7-2.15a.91.91,0,0,1,.71.36,1.75,1.75,0,0,1,.36.71,1.2,1.2,0,0,0,.27.45c.18.18.27.18.27.18s.09,0,.18-.18.35-.54.62-.54h.09a4.25,4.25,0,0,0-.8-.62h0a2.26,2.26,0,0,0-1.26-.27c-.44.09-.71-.18-1-.27a.28.28,0,0,0-.18-.09.54.54,0,0,0,.36.45h.18C298.78,403.88,298.87,403.88,298.87,403.88Z"/><path class="cls-10" d="M294.93,403.16a2,2,0,0,0-.18-.62c-.18-.54-.54-.18-.72,0s-.89.36-1.07.71a1.24,1.24,0,0,0,.45,1.35c.35.09,1,.26,1.16,0C294.57,404.24,294.93,403.52,294.93,403.16Z"/><path class="cls-10" d="M294.12,405h0a1.89,1.89,0,0,1-.89-.18.87.87,0,0,1-.45-.53,1.32,1.32,0,0,1-.09-1.17c.09-.35.54-.53.81-.71.09-.09.26-.09.26-.18a.91.91,0,0,1,.63-.36c.18,0,.45,0,.54.45a1.8,1.8,0,0,1,.18.71,2.15,2.15,0,0,1-.36,1.08.44.44,0,0,0-.09.27C294.66,404.69,294.48,405,294.12,405Zm.27-2.5s-.09,0-.27.18a2,2,0,0,1-.45.27c-.26.08-.53.17-.53.35a1,1,0,0,0,.09.72c.09.18.18.18.18.27a.93.93,0,0,0,.71.09h.09c0-.09.09-.18.18-.36a4.85,4.85,0,0,0,.27-.9V403a1.38,1.38,0,0,0-.18-.53C294.48,402.54,294.39,402.45,294.39,402.45Z"/><path class="cls-10" d="M291.8,404.15a1.73,1.73,0,0,1-.9-.63c-.27-.54-1.07-.89-1.16-.8s.89.8,1.07,1.16.54,1.07,1,1.25.62-.18.53-.44A2.85,2.85,0,0,0,291.8,404.15Z"/><path class="cls-10" d="M292,405.49h0a.51.51,0,0,1-.35-.09,2.54,2.54,0,0,1-1.17-1.43c-.09-.18-.36-.36-.53-.63-.36-.27-.54-.44-.54-.71,0-.09.09-.18.09-.27s.09-.09.18-.09a2,2,0,0,1,1.34,1,1.1,1.1,0,0,0,.81.54h.08a2,2,0,0,1,.54.63.77.77,0,0,1-.09.62C292.33,405.4,292.15,405.49,292,405.49Zm-.89-1.34a3.06,3.06,0,0,0,.72.8H292v-.18c0-.08-.17-.26-.35-.35A2.55,2.55,0,0,1,291.08,404.15Z"/><path class="cls-10" d="M299.58,392.33s.9.09.9-.18-.54-.53-1-.35-.53.35-.53.8,0,1.16-.54,1.34-1.79.45-1.61,1.08.53.45.89,0,1.44-.81,1.52-1.08.27-.44.18-.71S299.31,392.33,299.58,392.33Z"/><path class="cls-10" d="M297.26,395.64h0c-.18,0-.45-.08-.63-.62a.6.6,0,0,1,.09-.54,2.44,2.44,0,0,1,1.61-.8h.18c.45-.09.45-.72.36-1-.09-.63.18-.81.62-1.07a.67.67,0,0,1,.45-.09c.45,0,.9.27.9.62a.33.33,0,0,1-.09.27.86.86,0,0,1-.63.18h-.36a1.93,1.93,0,0,0,.09.54.86.86,0,0,1-.09.71c0,.09-.09.09-.09.18-.09.27-.45.45-.8.63a6.32,6.32,0,0,0-.81.54A1.19,1.19,0,0,1,297.26,395.64Zm1.34-1.43h0l-.18.09c-.36.09-1.16.36-1.25.63V395l.09.18s.17,0,.35-.27a2.82,2.82,0,0,1,1-.72Zm.71-.89a2.1,2.1,0,0,1-.26.62l.17-.18c0-.08.09-.08.09-.17Zm.27-1.17h.63a.33.33,0,0,0-.27-.09.68.68,0,0,0-.36.09Z"/></g><path class="cls-10" d="M261.54,425.18a24.35,24.35,0,0,1-17.28-5.81,23.69,23.69,0,0,1-8.23-16.3,24.07,24.07,0,0,1,22.11-26h.54A24.33,24.33,0,0,1,276,382.84a23.71,23.71,0,0,1,8.24,16.3,24.23,24.23,0,0,1-22.11,26Zm-2.86-47.71h-.45a23.58,23.58,0,0,0-16.11,8.24A23.3,23.3,0,0,0,236.57,403a23.77,23.77,0,0,0,25,21.67H262a23.65,23.65,0,0,0-3.31-47.18Z"/><path class="cls-23" d="M409.68,397.26,325.09,381a7.54,7.54,0,0,1-6-8.86l1.07-5.37a7.55,7.55,0,0,1,8.86-6L413.62,377a7.54,7.54,0,0,1,6,8.86l-1.07,5.37A7.56,7.56,0,0,1,409.68,397.26Z"/><path class="cls-24" d="M350.78,375.33l2.06,1.61-1.25,1.61-2.06-1.7-.36,2.5-2-.27.36-2.59-2.5,1.07-.72-1.88,2.42-.89-2.06-1.61,1.25-1.61,2.06,1.7.36-2.6,2,.27-.45,2.59,2.51-1.07.8,1.88Z"/><path class="cls-24" d="M338.25,372.91l2.06,1.61-1.25,1.61-2.06-1.7-.36,2.51-2-.27.36-2.6-2.51,1.08-.71-1.88,2.41-.9-2.05-1.61,1.25-1.61,2.06,1.7.36-2.6,2,.27-.44,2.6,2.5-1.08.81,1.88Z"/><path class="cls-24" d="M364.21,377.92l2.06,1.61L365,381.14l-2.06-1.7L362.6,382l-2-.27.36-2.6-2.51,1.08-.71-1.88,2.41-.9-2.06-1.61,1.26-1.61,2.06,1.7.35-2.59,2,.26-.35,2.6,2.5-1.07.81,1.88Z"/><path class="cls-24" d="M377.64,380.52l2.06,1.61-1.26,1.61-2.06-1.7-.35,2.5-2-.26.36-2.6-2.51,1.07-.72-1.88,2.42-.89-2.06-1.61,1.25-1.61,2.06,1.7.36-2.6,2,.27-.45,2.6,2.51-1.08.8,1.88Z"/><path class="cls-24" d="M391.06,383.11l2.06,1.61-1.25,1.62-2.06-1.71-.36,2.51-2-.27.36-2.59-2.5,1.07-.72-1.88,2.42-.89L385,381l1.25-1.61,2.06,1.7.36-2.59,2,.27-.45,2.59,2.51-1.07.8,1.88Z"/><path class="cls-24" d="M404.49,385.71l2.06,1.61-1.25,1.61-2.06-1.7-.36,2.51-2-.27.36-2.6L398.76,388l-.71-1.88,2.41-.9-2.06-1.61,1.26-1.61,2.06,1.7.35-2.6,2,.27-.44,2.6,2.5-1.08.81,1.88Z"/><path class="cls-23" d="M414.88,373.09,330.29,356.8a7.55,7.55,0,0,1-6-8.87l1.07-5.37a7.55,7.55,0,0,1,8.86-6l84.59,16.29a7.54,7.54,0,0,1,6,8.86l-1.07,5.37A7.55,7.55,0,0,1,414.88,373.09Z"/><circle class="cls-24" cx="336.1" cy="344.89" r="2.6"/><path class="cls-24" d="M339.06,353c-.45,2.23-9,.62-8.6-1.61a4.38,4.38,0,0,1,8.6,1.61Z"/><text class="cls-25" transform="matrix(0.98, 0.19, -0.19, 0.98, 356.19, 355.05)">USER ID</text><path class="cls-24" d="M404.13,421.69l-83.69-16.11a6,6,0,0,1-4.75-7.07l.54-2.69a6,6,0,0,1,7.07-4.74L407,407.19a6,6,0,0,1,4.74,7.07l-.53,2.69A6.13,6.13,0,0,1,404.13,421.69Z"/><path class="cls-7" d="M354.28,401.91l2.32.45a2.62,2.62,0,0,1,2.33,3.13,2.54,2.54,0,0,1-3.31,2l-2.33-.45Zm1.52,4.57a1.56,1.56,0,0,0,2-1.26,1.53,1.53,0,0,0-1.35-1.88l-1.07-.18-.63,3.14Z"/><path class="cls-7" d="M359.38,406.12a2.06,2.06,0,0,1,2.5-1.61,2.09,2.09,0,0,1,1.79,2.41,2,2,0,0,1-2.5,1.61A2,2,0,0,1,359.38,406.12Zm3.13.62c.09-.71-.18-1.16-.81-1.25a1.07,1.07,0,0,0-1.25.9,1,1,0,0,0,.81,1.25A1.05,1.05,0,0,0,362.51,406.74Z"/><path class="cls-7" d="M368.51,407.55l-.45,2.24-1.16-.18.35-2.06c.09-.63-.09-1-.62-1.07s-1,.17-1.17.89l-.26,1.88-1.17-.18.72-3.94,1.07.18-.09.45a1.9,1.9,0,0,1,1.43-.27A1.62,1.62,0,0,1,368.51,407.55Z"/><path class="cls-7" d="M373.25,409.16l-2.95-.54a1,1,0,0,0,1,1,1.47,1.47,0,0,0,1.08-.18l.44.81a2.22,2.22,0,0,1-1.7.35,2.11,2.11,0,0,1-1.88-2.41,2,2,0,0,1,2.51-1.61,1.9,1.9,0,0,1,1.61,2.41C373.34,408.89,373.34,409.07,373.25,409.16Zm-2.86-1.25,2,.36a.91.91,0,0,0-.81-1A.94.94,0,0,0,370.39,407.91Z"/></svg>