<?xml version="1.0" encoding="utf-8"?>
<!-- Generator: Adobe Illustrator 25.2.0, SVG Export Plug-In . SVG Version: 6.00 Build 0)  -->
<svg version="1.1" id="Layer_1" xmlns="http://www.w3.org/2000/svg" xmlns:xlink="http://www.w3.org/1999/xlink" x="0px" y="0px"
	 viewBox="0 0 2273.5 1968" style="enable-background:new 0 0 2273.5 1968;" xml:space="preserve">
<style type="text/css">
	.st0{fill:#C1CAD1;}
	.st1{fill:#EBF0F2;}
	.st2{fill:#9C91ED;}
	.st3{fill:#3391C4;}
	.st4{fill:#026D8E;}
	.st5{fill:#A4EBEB;}
	.st6{fill:#8DC6C4;}
	.st7{fill:#D3D5DD;}
	.st8{fill:#D4DBDD;}
	.st9{fill:#A6C8FF;}
	.st10{fill:#CAE4FF;}
	.st11{fill:#DCDFF0;}
	.st12{fill:#B8D3FF;}
	.st13{fill:#95A4AD;}
	.st14{fill:#4C6093;}
	.st15{fill:#FCC302;}
	.st16{fill:#FFFFFF;}
	.st17{opacity:0.39;fill:#FFFFFF;enable-background:new    ;}
	.st18{fill:#9CA3B3;}
	.st19{fill:#A28EAF;}
	.st20{fill:#383838;}
	.st21{fill:#5C5263;}
	.st22{fill:#48434C;}
	.st23{fill:#81708E;}
	.st24{fill:#FFC1A7;}
	.st25{fill:#2C1D3B;}
	.st26{fill:#DDE6ED;}
	.st27{fill:#8D9DAA;}
	.st28{opacity:0.45;fill:#FFFFFF;enable-background:new    ;}
	.st29{fill:#C9D8E2;}
	.st30{fill:#E0E1E2;}
	.st31{fill:none;stroke:#AFAFAF;stroke-width:5;stroke-miterlimit:10;}
	.st32{opacity:0.52;fill:#DE9111;enable-background:new    ;}
	.st33{fill:#666666;}
	.st34{fill:#EAAD96;}
	.st35{fill:#E3D4EB;}
	.st36{fill:#342145;}
	.st37{fill:#B3A3C1;}
	.st38{fill:#C6C0CE;}
	.st39{fill:#252228;}
</style>
<path class="st0" d="M778.4,915.2c4.4,29.8,13.7,49.7,23.5,33.2c9.8-16.6,20.7-28.3,32.4-9.8c11.8,18.6-6.2-40.5-23.3-49.5
	C794,880.2,775.4,876.6,778.4,915.2"/>
<path class="st1" d="M50.7,1850.9h2172.1c18.2,0,33,16.5,33,36.9v20.9c0,20.4-14.8,36.9-33,36.9H50.7c-18.2,0-33-16.5-33-36.9v-20.9
	C17.8,1867.4,32.5,1850.9,50.7,1850.9z"/>
<path class="st2" d="M666.9,291c3.8-7.9,6.4-12.3,6.5-12.5l3.5,1.7c0,0-2.5,4.5-6.3,12.2L666.9,291z"/>
<path class="st2" d="M707,592.8l2.9-3.7c6,4.7,12.3,9.3,18.7,13.6l-2.7,3.8C719.5,602.2,713.1,597.6,707,592.8z M689.3,577.6
	c-5.8-5.5-11.3-11.1-16.3-16.8l3.3-3.3c5,5.6,10.4,11.2,16.1,16.6L689.3,577.6z M746,618.7l2.5-4c6.8,3.8,13.8,7.3,20.8,10.5
	l-2.2,4.1C759.9,626,752.9,622.5,746,618.7L746,618.7z M658.4,542.2c-2.9-4.2-5.5-8.4-7.8-12.5c-1.5-2.7-3-5.4-4.3-8.2l3.8-2.5
	c1.3,2.7,2.7,5.4,4.2,8c2.3,4,4.9,8.2,7.7,12.2L658.4,542.2z M789,638.1l2-4.2c7.5,2.6,15.1,4.9,22.6,6.8l-1.7,4.3
	C804.3,643.1,796.7,640.7,789,638.1z M637.2,498.9c-2.5-8-4.4-16.1-5.8-24.4l4.1-1.5c1.3,8.1,3.2,16,5.7,23.8L637.2,498.9z
	 M835.8,649.7l1.3-4.4c8,1.2,16.1,1.9,24.2,2.2l-0.9,4.4C852.1,651.6,843.9,650.9,835.8,649.7z M628.9,448.9
	c-0.3-8.8-0.1-17.5,0.5-26.3l4.2-0.5c-0.6,8.6-0.8,17.2-0.5,25.8L628.9,448.9z M885.5,651.3l0.5-4.4c8.4-0.7,16.8-2,25-3.8l0.1,4.3
	C902.7,649.3,894.2,650.6,885.5,651.3L885.5,651.3z M632.6,396c1.4-8.8,3.3-17.7,5.6-26.6l4,0.3c-2.2,8.8-4.1,17.7-5.5,26.3
	L632.6,396z M936.7,639.9l-0.7-4.1c8.3-3.1,16.4-6.8,24.2-11l1.3,3.8C953.5,632.9,945.2,636.7,936.7,639.9L936.7,639.9z
	 M645.9,342.8c2.9-8.7,6.1-17.5,9.6-26.2l3.8,1c-3.4,8.5-6.6,17.2-9.5,25.8L645.9,342.8z M985.2,613.6l-1.9-3.4
	c7.4-5.5,14.5-11.4,21.3-17.7l2.5,3C1000.1,601.9,992.8,608,985.2,613.6L985.2,613.6z M1026.5,574.7l-2.9-2.5
	c1.6-1.9,3.2-3.8,4.7-5.7c4.2-5.2,8.4-10.8,12.3-16.5l3.3,2.1c-4.1,5.8-8.3,11.5-12.6,16.8C1029.8,570.8,1028.2,572.8,1026.5,574.7z
	 M1055.7,526.3c3.6-6.1,7.1-12.6,10.4-19.2c0.9-1.8,1.9-3.7,2.8-5.5l3.6,1.5c-0.9,1.8-1.9,3.6-2.8,5.4c-3.4,6.7-7,13.2-10.6,19.5
	L1055.7,526.3z M1082.6,476.8c4.8-8.3,9.8-16.4,14.9-24.2l3.3,2c-5,7.7-10,15.7-14.8,23.9L1082.6,476.8z M1113.7,429.3
	c3.9-5.3,8-10.6,12-15.6c1.8-2.3,3.7-4.6,5.6-6.8l2.9,2.5c-1.8,2.2-3.7,4.4-5.5,6.7c-4,5-8,10.2-11.9,15.5L1113.7,429.3z
	 M1153,388.4l-2.7-2.8c6.7-6.9,13.5-13.6,20.5-19.8l2.3,3.1C1166.4,375,1159.6,381.6,1153,388.4L1153,388.4z M1194.6,351.3l-2-3.4
	c7.7-5.7,15.4-11,23.2-15.7l1.6,3.7C1209.8,340.4,1202.2,345.6,1194.6,351.3L1194.6,351.3z M1241.2,323l-1.1-3.9
	c8.2-3.8,16.6-7.1,25.2-9.8l0.5,4.2C1257.4,316.1,1249.2,319.3,1241.2,323L1241.2,323z M1290.8,307.4l0.2-4.3
	c8.4-1.4,16.9-2,25.5-1.9l-0.8,4.4C1307.3,305.4,1299,306.1,1290.8,307.4L1290.8,307.4z M1424.9,379.7c-3.2-7.2-7-14-11.3-20.6
	l3.6-2.9c4.4,6.7,8.3,13.8,11.6,21.1L1424.9,379.7z M1339.6,308l1.5-4.3c7.9,1.6,15.6,4,23,7.1l-2.2,4.1
	C1354.7,311.9,1347.2,309.5,1339.6,308L1339.6,308z M1399.3,341c-3.6-3.7-7.4-7.2-11.4-10.5l0,0c-1.9-1.5-3.9-3-5.9-4.5l2.8-3.8
	c2.1,1.4,4.1,3,6.1,4.6l0,0c4.1,3.3,8,6.9,11.7,10.7L1399.3,341z"/>
<path class="st2" d="M1436.7,414.3c-1-4-2-7.9-3.2-11.7l4-2c1.2,3.9,2.2,7.9,3.2,11.9L1436.7,414.3z"/>
<path class="st3" d="M1157,585.5c0-5.6-0.3-11.2-0.9-16.7l30.3-16.8c-1.8-9.7-4.3-19.3-7.7-28.6L1144,524
	c-4.5-10.2-10.1-19.9-16.7-28.9l17.8-29.7c-6.4-7.5-13.4-14.5-20.9-20.9l-29.6,17.8c-9-6.6-18.7-12.2-29-16.7l0.6-34.6
	c-9.3-3.3-18.8-5.9-28.5-7.7l-16.8,30.2c-11.1-1.2-22.3-1.2-33.5,0l-16.8-30.2c-9.7,1.8-19.3,4.3-28.5,7.7l0.6,34.6
	c-10.2,4.5-19.9,10.1-29,16.7L884,444.5c-7.5,6.4-14.5,13.4-20.9,20.9l17.8,29.7c-6.6,9-12.2,18.7-16.7,29l-34.6-0.6
	c-3.3,9.3-5.9,18.8-7.7,28.6l30.3,16.8c-1.2,11.1-1.2,22.3,0,33.4L821.9,619c1.8,9.7,4.3,19.3,7.7,28.6l34.6-0.6
	c4.5,10.2,10.1,19.9,16.7,29l-17.8,29.6c6.4,7.5,13.4,14.5,20.9,20.9l29.6-17.8c9,6.6,18.7,12.2,29,16.7L942,760
	c9.3,3.3,18.8,5.9,28.5,7.7l16.8-30.3c11.1,1.2,22.3,1.2,33.5,0l16.8,30.3c9.7-1.8,19.2-4.3,28.5-7.7l-0.6-34.6
	c10.2-4.5,19.9-10.1,29-16.7l29.6,17.8c7.5-6.4,14.5-13.4,20.9-20.9l-17.8-29.6c6.6-9,12.2-18.7,16.7-29l34.6,0.6
	c3.3-9.3,5.9-18.8,7.7-28.6l-30.3-16.8C1156.7,596.6,1157,591.1,1157,585.5z M915.5,585.5c0-49,39.7-88.6,88.6-88.6
	c49,0,88.6,39.7,88.6,88.6s-39.7,88.6-88.6,88.6l0,0C955.2,674.1,915.5,634.5,915.5,585.5L915.5,585.5z"/>
<path class="st4" d="M1000.4,469.3c-64.2,0-116.3,52.1-116.2,116.3c0,64.2,52.1,116.3,116.3,116.2c64.2,0,116.2-52,116.2-116.2
	C1116.6,521.3,1064.6,469.3,1000.4,469.3z M1000.4,674.1c-49,0-88.6-39.7-88.6-88.6s39.7-88.6,88.6-88.6c49,0,88.6,39.7,88.6,88.6
	S1049.3,674.1,1000.4,674.1C1000.4,674.1,1000.4,674.1,1000.4,674.1L1000.4,674.1z"/>
<path class="st5" d="M1151.6,790.8c14.7,1.3,29.4,2.3,44.2,3c-0.3-1.6-0.5-3.2-0.7-4.8c-3-33,21.3-62.3,54.3-65.3
	c33-3,62.3,21.3,65.3,54.3c0.5,5,0.3,10.1-0.5,15.1c17.9-0.9,35.8-2.2,53.6-3.8l-9.3-4.1c0.1-3.8-0.1-7.6-0.4-11.3
	c-0.4-3.8-0.9-7.5-1.7-11.2l19.4-13.2c-1.8-6.4-4.1-12.7-6.9-18.8l-23.3,2.5c-3.7-6.6-8.1-12.8-13.1-18.5l10.1-21.1
	c-4.8-4.7-10-8.9-15.4-12.8l-18.9,13.9c-6.5-3.9-13.4-7.1-20.6-9.5l-1.8-23.4c-6.5-1.7-13.1-2.8-19.7-3.4l-9.4,21.5
	c-7.6-0.1-15.1,0.6-22.6,2.1l-13.2-19.4c-6.4,1.8-12.7,4.1-18.8,6.9l2.6,23.3c-6.6,3.7-12.8,8.1-18.5,13.1l-21.2-10.1
	c-4.7,4.8-8.9,9.9-12.8,15.4l13.9,18.9c-3.9,6.5-7.1,13.4-9.5,20.6l-23.4,1.8c-1.6,6.5-2.8,13.1-3.4,19.7l21.5,9.4
	C1151.3,784.7,1151.4,787.8,1151.6,790.8z"/>
<path class="st6" d="M1193.3,793.7c-0.2-1.5-0.5-3-0.6-4.5c-3-33,21.3-62.2,54.3-65.3c33-3,62.2,21.3,65.3,54.3
	c0.5,5,0.3,10-0.5,14.9c6.4-0.3,12.7-0.7,19.1-1.1c0.5-5.2,0.6-10.5,0.1-15.7c-4.8-43.3-43.7-74.5-87-69.7
	c-42.2,4.7-73.2,41.9-69.9,84.3c0,0.5,0.1,1.1,0.2,1.6C1180.5,793,1186.9,793.4,1193.3,793.7z"/>
<ellipse transform="matrix(0.1135 -0.9935 0.9935 0.1135 -812.095 2893.5557)" class="st7" cx="1215.5" cy="1901.9" rx="31.6" ry="247.4"/>
<ellipse transform="matrix(0.1135 -0.9935 0.9935 0.1135 -647.0879 3025.3682)" class="st8" cx="1371.9" cy="1875.3" rx="74.9" ry="252.2"/>
<polygon class="st9" points="695.6,415.7 509.9,276.4 688.9,384.6 "/>
<polygon class="st10" points="771.8,341.7 503.5,272 618,410.1 "/>
<polygon class="st11" points="720.6,364 695.6,415.7 670.5,386 "/>
<polygon class="st12" points="720.6,364 503.5,272 670.5,386 695.6,415.7 "/>
<ellipse class="st8" cx="1960" cy="1861.8" rx="280.7" ry="14.3"/>
<ellipse class="st7" cx="400.9" cy="1870.5" rx="360.4" ry="16.9"/>
<g>
	<path class="st13" d="M676.2,1870.5c0.5,0,1-0.1,1.5-0.2c2.4-0.8,3.7-3.4,2.9-5.8l0,0l-123.8-366.1c-0.8-2.4-3.4-3.7-5.8-2.9
		c-1.4,0.5-2.4,1.5-2.9,2.9l-123.8,366.1c-0.8,2.4,0.5,5,2.9,5.8c2.4,0.8,5-0.5,5.8-2.9l119.5-353.2l119.5,353.2
		C672.5,1869.2,674.3,1870.5,676.2,1870.5z"/>
	<path class="st13" d="M447.2,1870.5c0.5,0,1-0.1,1.5-0.2c2.4-0.8,3.7-3.4,2.9-5.8l0,0l-123.8-366.1c-0.8-2.4-3.4-3.7-5.8-2.9
		c-1.4,0.5-2.4,1.5-2.9,2.9l-123.8,366.1c-0.8,2.4,0.5,5,2.9,5.8c2.4,0.8,5-0.5,5.8-2.9l119.5-353.2l119.5,353.2
		C443.5,1869.2,445.2,1870.5,447.2,1870.5z"/>
	<path class="st13" d="M286.3,1615.1h229.2c2.7,0,4.9-0.9,4.9-2.1c0-1.1-2.2-2.1-4.9-2.1H286.3c-2.7,0-4.9,0.9-4.9,2.1
		C281.4,1614.1,283.6,1615.1,286.3,1615.1z"/>
	<path class="st13" d="M244,1748.8h225.8c2.5,0.2,4.7-1.7,4.9-4.3c0.2-2.5-1.7-4.7-4.3-4.9c-0.2,0-0.4,0-0.6,0H244
		c-2.5-0.2-4.7,1.7-4.9,4.3s1.7,4.7,4.3,4.9C243.6,1748.8,243.8,1748.8,244,1748.8z"/>
</g>
<circle class="st14" cx="648.3" cy="929.6" r="33.1"/>
<path class="st15" d="M738.2,760.6c0,24.6-10,48.1-27.9,65.1c-17.4,16.8-27.2,40-27,64.2v14h-70v-14c-0.1-24.4-10-47.8-27.6-64.7
	c-35.6-34.6-36.5-91.5-1.9-127.1c34.6-35.6,91.5-36.5,127.1-1.9C728.4,713,738.2,736.2,738.2,760.6L738.2,760.6z"/>
<path class="st16" d="M688.1,750.9c-7.4-3.3-19.2,1.7-27.3,17.4c-1.6,3.3-2.8,6.8-3.5,10.4c-5.1-0.6-10.2-1.7-15.1-3
	c-1.1-15.7-3.8-33.9-10.7-41.2c-5.8-6.4-15.5-7.1-22.1-1.7c-6.2,5-9.1,15-1.6,26.2c5.5,8.1,18,14.8,31.7,18.8
	c0.8,13.1,0.4,24,0.4,24.3v112.6h2.7V802.1c0-1,0.4-11.2-0.3-23.5c4.7,1.2,9.5,2.2,14.3,2.8c-2.2,10.2-3.6,23.9-4.5,38.6
	c-2.7,41.5-1.4,91.1-1.4,94.6l0,0h1.4h1.3c0-0.8-1.3-52.9,1.4-95.4c0.9-14.4,2.3-27.7,4.4-37.6c5.3,0.6,10.6,0.6,15.8,0
	c9.6-1.2,15.8-4.8,17.9-10.3C697.3,759.7,693,753.1,688.1,750.9z M610,757.5c-7-10.4-3.8-18.6,1-22.5c2.4-1.9,5.4-3,8.5-3
	c3.8,0,7.4,1.6,9.9,4.4c6.2,6.5,8.8,23.4,9.8,38.5C626.6,771,615,764.8,610,757.5z M690.5,770.4c-2.1,5.8-9.7,7.9-15.6,8.6
	c-4.9,0.5-9.9,0.5-14.9,0c0.7-3.3,1.8-6.4,3.3-9.5c7.3-14.2,17.5-18.9,23.8-16.1C692.1,755.6,693.4,762.3,690.5,770.4z"/>
<path class="st17" d="M714,740c0,36.9-24.4,69.3-59.8,79.6c-0.8,0.2-1.6,0.5-2.5,0.7c-2.8,0.7-5.5,1.3-8.4,1.7
	c-0.8,0.1-1.6,0.2-2.4,0.3c-31.3,3.7-62-10.6-79.2-37c-13.6-47.8,14.1-97.5,61.9-111.1c21.6-6.1,44.7-4,64.7,6
	C704.8,695.7,714.1,717.4,714,740z"/>
<ellipse transform="matrix(0.1312 -0.9914 0.9914 0.1312 -122.0589 1261.4792)" class="st17" cx="658.7" cy="700.4" rx="19.6" ry="34.4"/>
<path class="st18" d="M688.9,920.5c0-2.4-1.4-4.5-3.6-5.4c3-1.2,4.4-4.6,3.2-7.6c-0.9-2.2-3-3.6-5.4-3.6h-69.5
	c-3.2,0-5.8,2.6-5.8,5.9c0,2.4,1.4,4.5,3.6,5.4c-3,1.2-4.4,4.6-3.2,7.6c0.6,1.5,1.8,2.7,3.4,3.3c-3,1.1-4.6,4.5-3.5,7.5
	c0.8,2.3,3,3.8,5.5,3.8h69.5c3.2,0,5.8-2.6,5.8-5.8c0-2.4-1.5-4.6-3.8-5.5C687.4,925.1,688.9,922.9,688.9,920.5z"/>
<path class="st19" d="M537.4,1064.3l-27.5,54.4c-9.2-12.6-23.3-47.3-17.1-124.4c0.6,2.6,0.9,5.2,0.9,7.8
	C493.8,1029.9,518.9,1049.4,537.4,1064.3z"/>
<path class="st20" d="M298,1592.8c2.4,7.2-4.7,22.6-4.7,22.6h66.1c-7.8-13.9-22.6-17.2-38.3-16c-15.7,1.2-2.4-9.6-2.4-9.6
	L298,1592.8z"/>
<path class="st21" d="M403.1,1430.8c-26.6,103.8-83.2,162.9-83.2,162.9c-6,6-28.6,5.3-28.6,5.3c-10.6-20.6-9.3-53.2,12-121
	c21.3-67.8,1.3-110.4,1.3-110.4L403.1,1430.8z"/>
<path class="st22" d="M331.7,1385l-17.6-2.9c8,37.9,38.6,47.2,43.9,77.8c4.8,27.4-31.7,112.7-49.2,138.1c4.7-0.8,9.1-2.1,11.3-4.2
	c0,0,56.5-59.2,83.2-162.9L331.7,1385z"/>
<path class="st20" d="M506.7,1597c2.4,7.2,2.1,18.4,2.1,18.4h66.1c-7.8-13.9-22.6-17.2-38.3-16c-15.7,1.2-17.2-10.9-17.2-10.9
	L506.7,1597z"/>
<path class="st21" d="M533.4,1426.5c9,98.3-5.2,170.3-5.2,170.3c-6,8-23.9,10.7-23.9,10.7c-30.9-23-63.6-128.2-60.6-172.6
	C446.6,1390.6,533.4,1426.5,533.4,1426.5z"/>
<path class="st22" d="M528.2,1596.8c0,0,14.2-72.1,5.2-170.3c0,0-4.8-2-12.2-4.4l-77.8,19.3c0,1.7,0,3.4,0.1,5.2
	c17.2,26.6,58.6-2.6,70,35.9c10.1,34.1,7.4,100.2,6.3,120.4C523.1,1601.6,526,1599.5,528.2,1596.8z"/>
<path class="st19" d="M469.1,968.1c38.9,65.8,35.1,191.4,56.4,315.1s34.6,139.7,34.6,139.7c-43.9,34.6-207.5,39.9-292.6-66.5
	c63.8-77.1,65.2-206.2,86.5-297.9c21.3-91.8,75.8-121,75.8-121L469.1,968.1z"/>
<path class="st23" d="M501,1443c25.9-3.4,60.2-13.3,72.2-22.7c0,0-20-15.9-41.3-139.5C510.6,1157,508,1034,469.1,968.1
	C486.3,1046.9,422.8,1362.2,501,1443z"/>
<path class="st24" d="M623.6,926.2c-8.8-9.1-11.1-7.7-13.6-18.6c-2.5-10.9-10.6-8.6-6.8-12.2c3.9-3.7,15.7,10,15.7,5.1
	c0.1-4.9,1.4-13.7,5.9-12.2c4.5,1.5,11.1,8.5,20.1,15.5s10.6,27.6,1.5,36.4C637.3,949,623.6,926.2,623.6,926.2z"/>
<path class="st21" d="M421.4,936.2c-8.9,3-14,13-16.7,20.9c5.7,14,51.6,25.2,66.3,11.2c-5.2-16.7-10.9-19.2-10.9-19.2
	S422.2,935.9,421.4,936.2z"/>
<path class="st24" d="M426,905.4c3,23.6-9,35.3-9,35.3c16.6,25.3,46.9,8,46.9,5c0-1-13.6-36.2-14.3-37.6
	C449,906.8,426,905.4,426,905.4z"/>
<path class="st24" d="M490.5,840.9c-0.7,8.6-2.3,15,3.3,28.3c5.6,13.3,5,20.3,5,20.3s-4.4,13.3-5.3,14c-0.9,0.7-18.3,9-18.3,9
	s-7.3,1.7-8-2c-0.7-3.7-10.9-17.6-11.3-22.6s-5.3-17.3-3.3-23C454.7,859.1,490.5,840.9,490.5,840.9z"/>
<path class="st25" d="M413.2,799.8c-13-13.7-24.7-2.2-21.2,5.2c-7-2.7-9.7,3.3-9.7,3.3c-25.9,3.3-32.9,42.1-13.7,70.3
	c19.2,28.2,53.9,30.2,72.1,36.9c18.2,6.7,9.2,29.7,23.7,33.9c14.5,4.2,3.7-47.4,2.2-58.4c-1.6-11,5.7-10,2.2-24.2
	c8.8-5.2,31.7-27.7,29.4-47.9s-14.7-23.9-14.7-23.9c2.2-20-24.7-22.4-37.2-7.7S413.2,799.8,413.2,799.8z"/>
<path class="st25" d="M464.1,893.8c0,5-4,9-9,9s-9-4-9-9c0-5,4-9,9-9c0,0,0,0,0,0C460.1,884.8,464.1,888.8,464.1,893.8
	C464.1,893.8,464.1,893.8,464.1,893.8z"/>
<path class="st25" d="M457,892.5c-0.6-1-1.5-1.7-2.6-2.3c4.1-0.1,5.9,3.7,3.5,7.2c0.3-1.2,0.2-2.4-0.2-3.6c-1.7,0.3-2.9,2-2.6,3.7
	c-0.9-1.9-0.1-4.1,1.7-5C456.9,892.5,457,892.5,457,892.5z"/>
<path class="st25" d="M464.3,949.4c10.2,3,0.4-25.4-24.4-45.6c-27.6-22.6-24.9-52.2-20.6-59.5c-5.3,1-10-3-4.4-13.3
	c-19.6,2-20.9-24.9-1.8-31.2c-13-13.7-24.7-2.2-21.2,5.2c-7-2.7-9.7,3.3-9.7,3.3c-25.9,3.3-32.9,42.1-13.7,70.3
	c19.2,28.2,53.9,30.2,72.1,36.9C458.8,922.3,449.9,945.2,464.3,949.4z"/>
<path class="st19" d="M412.1,1023.1c5.9-29.1,45.4-45,92.3-36.1s104.3-16,117.8-62.7c13.9,2.7,25.3,16,26.9,20.9
	c3.1,17.9-26.3,107.1-98.1,141.1S403.3,1066.1,412.1,1023.1z"/>
<path class="st24" d="M624.9,888.2c-2.8-0.9-4.4,2-5.1,5.5c12.9,3.1,25.9,19.3,32.8,29.1c-0.1-7.7-2.7-15.4-7.6-19.1
	C636,896.8,629.4,889.7,624.9,888.2z"/>
<path class="st23" d="M648.9,945.3c-0.7-2.2-3.4-6.1-7.4-10c-3.5,45.5-95.3,147-184.3,151.3c29.7,14,64.1,13.9,93.7-0.2
	C622.7,1052.4,652.1,963.2,648.9,945.3z"/>
<path class="st13" d="M1407.4,803.3c-41.2-0.5-82.5-1.2-123.7-1.3c-9.8,0-19.6,0-29.4,0.1c12.7,5.5,123,119,123.4,120
	c8.1,23.7-0.6,34.2-0.7,35c0,0.2-0.1,0.5-0.2,0.7c0,0,0,0.1,0,0.1c-0.1,0.2-0.3,0.4-0.4,0.6l-0.1,0.1c-0.2,0.2-0.4,0.3-0.6,0.4
	l-0.5,0.1l-29.9,5.5h-0.1c-0.2,0-0.3,0-0.5,0c-0.3,0-0.5,0-0.8-0.1c-0.1,0-0.2-0.1-0.3-0.1c-0.2-0.1-0.3-0.2-0.4-0.3
	c-0.1-0.1-0.2-0.2-0.2-0.2c-0.1-0.1-0.2-0.2-0.3-0.4c-0.1-0.1-0.1-0.2-0.1-0.3c-0.1-0.1-0.1-0.3-0.2-0.4
	c-2.1-9.9-5.8-19.5-10.8-28.2c0-0.1,0-0.1-0.1-0.2c-0.1-0.1-0.1-0.2-0.2-0.3c-0.6-1.2-0.1-2.6,1.1-3.2c0,0,0,0,0,0l25.2-12.8
	c0.9-0.5,2.1-0.3,2.8,0.5c4.9,5,8.6,12.6,11.3,19.6c-0.8-5.6,8.7-8.5,6.1-15.9c-0.4-1.1-107.3-113.9-123.4-120
	c-28.5,0.3-69.4,0.8-97.9,0.4c-33.2-0.4-66.4-2.5-99.4-6.3c13.9,33.5,27.9,68.1,34.3,86.6l0.9,2.6c8.6,24.6,18.1,52.2,13.1,80.8
	c-5.2,29.7-26,60.5-80,90.2c4.9,11.9,30.6,75.8,51.7,135.4c0.9,3.5,2.1,6.8,3.6,10.1c9.6,27.5,17.8,53.5,22.1,72
	c3.5,14.9-6.7,33.4-33.6,59v43.8l46.6,10.5c26.8-47.6,56.4-93.5,88.8-137.5c0.3-0.4,0.7-0.7,1.2-0.8c1.8-7.6,3.6-14.9,5.4-21.8
	c0.3-1.1,0.6-2.2,0.9-3.3c2.5-2.4,4.8-5,7-7.8c-1.1,3.9-2.2,8-3.3,12.2c-18.9,73.2-38.1,187.2-39.6,220.3l5.3,1.9l70,24.4
	c9.8-16.4,82.7-137.1,119-169.2c6.7-12,14-24,21.7-36.7c13.9-22.9,29.7-48.8,45.5-80.7c3.9-7.9,7.7-16,11.4-24.3
	C1497,1055.9,1520.7,915.4,1407.4,803.3z M1271.2,886.3c0-0.1,0-0.2,0-0.2s0-0.2,0.1-0.3c0.1-0.1,0-0.1,0-0.1c0,0,0-0.1,0-0.1
	c0,0,0-0.1,0-0.1l11.8-28.4c0.5-1.1,1.7-1.7,2.9-1.4c24.6,7.7,46.4,22.3,62.8,42.1c0.4,0.5,0.6,1.1,0.5,1.7
	c-0.1,0.6-0.4,1.2-0.9,1.6l-23.6,19.4c-0.1,0.1-0.3,0.2-0.5,0.3c-0.1,0-0.1,0.1-0.2,0.1c-0.3,0.1-0.5,0.1-0.8,0.1
	c-0.2,0-0.3,0-0.5-0.1l-0.2-0.1c-0.1,0-0.2-0.1-0.3-0.1c-0.1,0-0.1,0-0.2-0.1l-0.3-0.2c-0.1,0-0.1-0.1-0.1-0.1l-0.2-0.2
	c-12.7-15.2-29.7-26.2-48.8-31.6c0,0-0.1,0-0.1,0h-0.1l-0.1-0.1c-0.1,0-0.1-0.1-0.2-0.1c-0.1,0-0.1-0.1-0.2-0.1l-0.2-0.1l-0.2-0.2
	c-0.1-0.1-0.1-0.1-0.1-0.2l-0.1-0.2c0-0.1-0.1-0.1-0.1-0.2l-0.1-0.2c0-0.1,0-0.2-0.1-0.2c0-0.1,0-0.1,0-0.2c0-0.1,0-0.1,0-0.2
	L1271.2,886.3z M1172.2,1048.8c0,0.7-0.3,1.5-0.9,1.9l-24.1,18.4c-0.4,0.3-0.9,0.5-1.4,0.5c-0.7,0-1.4-0.3-1.8-0.9
	c-20.1-24-31-54.3-31-85.6c0-1.3,1.1-2.4,2.4-2.4c0,0,0,0,0,0h30.5c1.3,0,2.4,1.1,2.4,2.4c-0.2,23.5,8.1,46.2,23.5,63.9
	c0.4,0.4,0.6,1,0.6,1.6L1172.2,1048.8z M1157.8,940.5c-0.4,0.8-1.3,1.4-2.2,1.4c-0.3,0-0.7-0.1-1-0.2l-27.7-12.8
	c-0.6-0.3-1-0.8-1.2-1.3c-0.2-0.6-0.2-1.3,0.1-1.8c20-41.6,60-69.9,105.9-75.1c0.6-0.1,1.3,0.1,1.8,0.5c0.5,0.4,0.8,1,0.9,1.7
	l2.3,29.7c0,0.2,0,0.4,0,0.5c0,0,0,0.1,0,0.1c0.2,1.3-0.8,2.5-2.1,2.6c0,0,0,0,0,0C1201.3,889.5,1172.3,910.2,1157.8,940.5
	L1157.8,940.5z M1195.9,1106.7c-1.1-0.5-1.7-1.7-1.4-2.9l9.4-29.1c0.4-1.2,1.7-1.9,3-1.5c0,0,0,0,0,0c0.1,0,0.2,0.1,0.3,0.1
	c0,0,0.1,0,0.1,0c12.3,5.3,25.5,8,38.9,8c1.3,0,2.4,1.1,2.4,2.4c0,0,0,0,0,0v30.5c0,1.3-1.1,2.4-2.4,2.4c0,0,0,0,0,0
	C1229,1116.6,1211.9,1113.2,1195.9,1106.7L1195.9,1106.7z M1345.4,1072.4c-15,16.6-33.9,29.2-55,36.6c-2.4,1.4-31.4,19.1-51.7,55
	c-1.9,3.4-3.8,7-5.5,10.7c-0.1-3-0.3-6.1-0.8-9.1c0.7-1.4,1.4-2.7,2.2-4c18.8-33.3,44.9-51.4,51.9-55.8l-10.3-26.5c0,0,0,0,0-0.1
	c0-0.1,0-0.1,0-0.2c0-0.1,0-0.2,0-0.2c0-0.1,0-0.2,0-0.2c0-0.1,0-0.2,0-0.2c0-0.1,0-0.2,0-0.2c0-0.1,0-0.1,0-0.2
	c0-0.1,0-0.2,0.1-0.2c0,0,0.1-0.1,0.1-0.2l0.1-0.2c0-0.1,0.1-0.1,0.1-0.2c0.1-0.1,0.1-0.1,0.1-0.2c0.1,0,0.1-0.1,0.2-0.2
	c0-0.1,0.1-0.1,0.2-0.1l0.2-0.1l0.2-0.1c0.1-0.1,0.2-0.1,0.3-0.1c16.1-5.4,30.5-14.9,41.7-27.6c0.1-0.1,0.2-0.2,0.4-0.3
	c0.1-0.1,0.2-0.2,0.4-0.3c0.2-0.1,0.3-0.1,0.5-0.1c0.1,0,0.2-0.1,0.4-0.1c0.2,0,0.4,0,0.5,0.1c0.1,0,0.3,0,0.4,0.1
	c0.2,0.1,0.3,0.1,0.5,0.3c0.1,0.1,0.2,0.1,0.4,0.2l22.6,20.6C1346.3,1070,1346.3,1071.5,1345.4,1072.4
	C1345.4,1072.4,1345.4,1072.4,1345.4,1072.4L1345.4,1072.4z M1358.5,1055.4c-0.4,0.7-1.2,1.1-2,1.1c-0.4,0-0.8-0.1-1.1-0.3l-27-14.5
	c0,0-0.1,0-0.1-0.1c0,0,0,0-0.1,0l-0.1-0.1c-0.1-0.1-0.1-0.1-0.2-0.2l-0.2-0.2c-0.1-0.1-0.1-0.1-0.1-0.2c-0.1-0.1-0.1-0.1-0.1-0.2
	c0-0.1-0.1-0.1-0.1-0.2l-0.1-0.2c0-0.1,0-0.2,0-0.2c0-0.1,0-0.1,0-0.2c0-0.1,0-0.1,0-0.2v-0.3c0-0.1,0-0.1,0-0.2c0-0.1,0-0.2,0-0.2
	s0-0.1,0-0.2l0.1-0.2v-0.1c0,0,0-0.1,0.1-0.1c0,0,0-0.1,0.1-0.1c10.9-16.3,16.8-35.5,17-55.2c0-1.3,1.1-2.4,2.4-2.4c0,0,0,0,0,0h0.1
	h0.1h30.2c1.3,0,2.4,1.1,2.4,2.4c0,0,0,0,0,0C1379.7,1008.7,1372.4,1033.8,1358.5,1055.4L1358.5,1055.4z M1434,911.1
	c-1.3,0.3-2.6-0.4-2.9-1.7c-13.5-51.4-45.4-79.7-45.7-80c-0.9-0.9-1-2.4,0-3.4c0.8-0.9,2.2-1,3.2-0.2c1.3,1.2,33.3,29.5,47.2,82.4
	C1436,909.4,1435.3,910.7,1434,911.1C1434,911.1,1434,911.1,1434,911.1L1434,911.1z"/>
<path class="st26" d="M1181.2,1107.6l4.6,1.8C1183.2,1108.3,1180.7,1107.4,1181.2,1107.6z"/>
<path class="st26" d="M1086.9,884.3c-6.6-18.9-21-54.6-35.2-88.9c-9.4-1.2-24.2-3.5-33.5-5.1c15.2,39.6,15.3,39.8,0,0
	c-2.6-0.5-5.1-0.9-7.7-1.4c-21.3-4-42.2-9.8-62.5-17.4c-12.5-4.7-24.8-10-36.8-16c-34.8,21-70,50.3-91.8,90.2
	c-21.1,38.8-34.1,70.5-42,95.7c-6.6,20.9-9.6,37.3-10.9,49.6c-0.2,1.5-0.3,2.9-0.4,4.3c0.8,18.5,16.6,22.2,29.3,25.2
	c3,0.6,6,1.4,8.9,2.4c22.3,8.1,44.6,28.8,45.6,29.6c0.6,0.6,0.9,1.4,0.7,2.3c-0.2,0.8-0.8,1.5-1.6,1.7c-12.5,4-26.5,9.4-31.9,12.8
	c-0.2,0.2-0.5,0.4-0.8,0.5c-0.5,0.3-1,0.8-1.4,1.3c-0.1,0.9,1.7,4.4,3.2,7.2c4.6,8.9,0,10.4-4.2,2.2c-2.5-4.9-4.2-8.1-3.5-10.7
	c0.3-0.9,0.9-1.7,1.7-2.4c-14-16.5-6.3-35.2-4.9-38.3c-1.5-0.6-3-1.3-4.5-1.8c-2.7-0.9-5.5-1.6-8.4-2.2c-9.3-2.2-22-5.1-28.6-15.1
	c0.7,18.9,6.7,32.6,19.5,46.6c11.4,12.4-10.9,47.1-34.6,83.6c-14.2,22-30.1,46.6-31.1,57.3c-0.2,1.1,0,2.3,0.4,3.4
	c4.5,10.4,14.7,15.3,24.6,20.2c11.2,5.5,22.9,11,21.4,24.8c-0.5,4.6-1.1,9.1-1.8,13.5c-2.4,16.7-4.3,29.9,4.2,34.2
	c9.6,4.8,36.3-9.9,48.8-14.2c0.3-0.1,2.7,0.5,3,1.4c0.4,1.2-0.2,2.6-1.4,3c-14.8,5.7-43.5,27.3-46.9,42.8c-0.3,1.2-0.3,2.5-0.1,3.8
	c1.3,8.5,5.7,14.2,10.4,20.2c6.7,8.8,14.3,18.6,13.3,38.2c-1.1,19-0.6,42.6,12.6,57c7.7,8.4,19.3,13,34.5,13.6
	c47.7,1.7,103-37.5,139.5-63.6c85.7-61,121.6-98.3,116.3-121c-14.9-64.1-77.4-217.2-78-218.7c-0.5-1.1,0-2.4,1.1-3
	c46.7-25.3,72.6-53.3,79.1-85.6c0.1-0.7,0.3-1.5,0.4-2.2c4.8-27.4-4.6-54.5-13-78.5L1086.9,884.3z M759.6,1218.7
	c-0.1,0.1-0.3,0.2-0.5,0.3c-0.7,0.3-1.5,0-1.8-0.8c-4.8-10.9-12.9-9.2-13-9.2c-0.8,0.2-1.5-0.3-1.7-1.1c-0.2-0.7,0.3-1.5,1-1.7
	c0,0,0,0,0.1,0c0.1,0,10.5-2.2,16.3,10.8C760.1,1217.7,760,1218.3,759.6,1218.7L759.6,1218.7z M892.2,1133.3
	c-26.1-47.6-28.5-99.9-7.1-155.4c10.9-28.1,8.1-40.8,3.8-46.4c-2.6-3.3-6.5-5.4-10.8-5.6c-0.9,4.3-4.7,7.5-9.1,7.5c-0.3,0-0.7,0-1,0
	c-5.2-0.5-8.9-5.2-8.4-10.4c0.5-5.2,5.2-8.9,10.4-8.4c3.7,0.4,6.8,2.9,8,6.5c5.8,0.2,11.2,3,14.8,7.5c7.2,9.6,6.2,26.8-3.2,51
	c-20.9,54.1-18.6,104.8,6.6,151C894.8,1131.5,893.4,1132.3,892.2,1133.3L892.2,1133.3z M912.2,1121.1c-2.8-4.5-5.6-9.2-8.3-14.1
	c-11.8-21.4-14.5-42.6-12.6-63c1.9-20.9,8.5-41.1,14.7-60c8-24.4,15.6-47.4,11.7-67.7c-4.2-22.2-32.4-21.6-39.8-21.1
	c-1,4.2-4.8,7.3-9.1,7.3c-0.3,0-0.7,0-1,0c-5.2-0.6-8.9-5.2-8.3-10.4c0.6-5.2,5.2-8.9,10.4-8.3c3.8,0.4,7,3.1,8,6.7
	c8.7-0.6,39.7-0.8,44.6,25c4,21.5-3.7,45.1-11.9,70c-6.3,19.3-12.7,38.9-14.6,58.9c-1.8,19.6,0.8,39.7,12.1,60.3
	c2.8,5,5.6,9.7,8.4,14.2C915,1119.6,913.6,1120.3,912.2,1121.1L912.2,1121.1z M924.9,1074.7c3.9,12.2,9.4,23.8,16.3,34.5
	c-1.5,0.5-3.1,1-4.7,1.5c-6.9-10.8-12.3-22.4-16.2-34.6c-11.7-37.4,0-73.5,10.4-105.4c9.7-29.8,18.1-55.6,5.5-75.4
	c-15.8-24.7-46.3-26-54-26c-1.1,4.1-4.8,7-9,7c-0.4,0-0.7,0-1.1-0.1c-5.2-0.6-8.9-5.2-8.3-10.4c0.6-5.2,5.2-8.9,10.4-8.3
	c3.9,0.4,7.1,3.2,8.1,7c8.8-0.1,40.7,1.3,58,28.2c13.9,21.7,5.2,48.5-4.9,79.4C925.1,1003.3,913.6,1038.7,924.9,1074.7L924.9,1074.7
	z M1025.1,1256.6c-0.5,4.8-4.5,8.4-9.3,8.4c-0.3,0-0.7,0-1-0.1c-4.8-0.5-8.4-4.5-8.4-9.3c0-0.3,0-0.7,0.1-1c0.1-1,0.4-2,0.8-2.9
	c-3.7-2.9-13.3-10.5-25.7-21c1.2-1.1,2.5-2.1,3.7-3.2c12.1,10.4,21.6,17.9,25,20.6c4.2-3.1,10.1-2.2,13.1,2
	C1024.7,1252,1025.3,1254.3,1025.1,1256.6z M1043.6,1224.1c-0.5,4.8-4.5,8.4-9.3,8.4c-0.3,0-0.7,0-1-0.1c-4.8-0.5-8.4-4.5-8.4-9.3
	c0-0.3,0-0.7,0-1c0.1-0.6,0.2-1.1,0.4-1.6c-7.4-4.4-14.4-8.7-21.1-12.9c1-1.3,2-2.5,2.9-3.8c6.6,4.1,13.5,8.3,20.7,12.6
	c0.2-0.2,0.4-0.4,0.6-0.6c4.1-3.2,10-2.6,13.2,1.5C1043.1,1219.2,1043.8,1221.6,1043.6,1224.1L1043.6,1224.1z M1021.4,1179.6
	c4.5,2.4,9.1,4.8,13.9,7c3-4.2,8.8-5.3,13.1-2.3c2.8,2,4.3,5.3,3.9,8.7c-0.3,2.5-1.5,4.8-3.4,6.3c-1.7,1.3-3.7,2.1-5.9,2.1
	c-0.3,0-0.7,0-1-0.1c-5.1-0.6-8.8-5.1-8.4-10.3c-4.9-2.3-9.6-4.7-14.2-7.2C1020.1,1182.5,1020.8,1181.1,1021.4,1179.6z"/>
<path class="st27" d="M838.9,1055.9c0,0-3.8-14.7-23.5-23.8c-11.3-5.3-19.7-7.3-24.7-8.1c-0.7-0.1,0-1.7,0.8-1.8
	c13-1.8,42.5-1.8,58.4,30.4L838.9,1055.9z"/>
<path class="st0" d="M793.8,969.3c-7.4,13.4,5.2,21.3,20.7,21.5c15.5,0.2,32.3,12.8,36.2,26.9c3.9,14,9.8-18.4-2.8-32.3
	c-12.5-13.9-36.3-31.9-52.2-19.3"/>
<path class="st0" d="M804,1409.2c-0.5-7.5-1-15.1-1.3-22.5c-1.6-33-14.2-45.2-26.1-56.7c11.7,3.7,31,5.6,37.1,19
	C820.7,1364.2,803.4,1374.5,804,1409.2z"/>
<path class="st28" d="M955.9,1109.9c-10.1,40.1-39.3,62.2-84.5,79.9c-36.2,14.1-43.9,29.8-44,38.9c-0.3,15.1,34.1,19.1,53.9,17.1
	c41.5-4.1,108.3-27.8,123.4-71.6C1022,1123.5,970.5,1051.7,955.9,1109.9z"/>
<path class="st26" d="M1511.2,962.8c0.3,18.4-0.3,49.3-0.5,56.7c0,0.3,0,0.5,0,0.7l-18.7,19.2c4.9-33.4,5.4-67.6-1-101.5
	c6.2,1.3,18.9,5.4,19.7,12.7C1510.9,953,1511.1,957.3,1511.2,962.8z"/>
<path class="st29" d="M1363.4,1938.7c-7.4-25.3-15.9-55.4-25.3-88.5c-6-21.2-12.3-43.3-18.8-65.8c-1.6-5.5-3.3-11.5-5-17.9
	c-20.4-75-49.5-201.7-51.6-210.9c18-65.9,32-135.6,33.4-142.3c20-30.4,42.5-62.7,60.1-82.3c-22.5,44.1-35.6,90.8-29.5,171.5
	c4.7,62,34.6,121.6,73.4,186.4c8.1,13.5,16.5,27.1,25.2,41.1c2.6,4.2,5.2,8.4,7.8,12.6c18,28.9,36.9,59.2,55.2,91.3
	C1517.8,1885.7,1366.8,1950.2,1363.4,1938.7z"/>
<path class="st13" d="M1156.1,1913.7c3.5-23.2,7.2-44.1,10.9-63c13.3-67.5,27.8-110.1,41.8-145.7c48.1,51.5,87.8,93.5,118.6,125.3
	c2,7.1,4.1,14.2,6,21.2c9.4,33.1,18,63.2,25.3,88.5C1361.9,1950.5,1156.1,1913.7,1156.1,1913.7z"/>
<path class="st13" d="M1257.5,1583.2c6,25.8,48,162.2,64.1,225c-21.5-22.2-75.3-83.1-101-110.4
	C1220.8,1697.6,1251,1606.4,1257.5,1583.2z"/>
<path class="st30" d="M1260.2,1469.8c7.3-11.9,17.4-28.1,28.8-45.6c-7.4,35.7-30.3,141.3-53.9,203.2c-2.8,7.4-26.4,65.1-30,74.1
	c-4.5-4.7-13.6-11.4-12.7-14.1C1218.9,1610.3,1258.8,1476,1260.2,1469.8z"/>
<path class="st13" d="M1248.2,1489.6c0.1-0.2,1.5-2.6,4-6.7c-6.4,26.4-21.5,85.1-41.9,144.6c-0.6,1.9-20.8,54.3-21.5,56.1
	c-6.1-6.6-46.9-50.5-58-62.6c2.7-4,31.9-51.2,34.6-55c32.2-44.9,62.8-73.9,68.7-79.3l11.2,3.9
	C1246.5,1490.9,1247.6,1490.5,1248.2,1489.6L1248.2,1489.6z"/>
<path class="st30" d="M1205.3,1701.2c-0.1,0.1-0.1,0.2-0.2,0.3c-14.2,36.1-29.1,79.3-42.7,148.3c-3.8,19-7.5,40-11,63.2h-20
	c2-13,4-25.2,6.1-36.8c17-94.2,36.9-144.5,54.9-188.9L1205.3,1701.2z"/>
<path class="st30" d="M1213.8,1479.5l15.3,5.4c-24.9,24-47.6,50.3-67.6,78.5c-20.5,28.6-41.6,63.6-57.5,103.1
	c-2.8,6.9-5.5,13.9-8,20.8c-20.8,55.6-34.2,108.4-42.1,144.5c-5,23-8.4,41.9-10.3,53.6c-1.3,8.1-2.1,13.1-2.5,16.2l-11.2-8.3
	c1.6-12,14.2-100.8,49.1-199.8c4.3-12.2,8.9-24.5,13.9-36.8c17.8-44.3,41.4-82.1,63.2-111.4
	C1183.8,1507.8,1208.5,1484.4,1213.8,1479.5z"/>
<path class="st13" d="M1173.5,1465.5l35.2,12.3c-7.9,7.5-31,30.2-56.6,64.8c-18.8,25.2-35.2,51.9-49.2,80
	C1141.1,1515.5,1168.2,1473.3,1173.5,1465.5z"/>
<path class="st29" d="M1197,1270.1c-16.5,72.7-31.3,164.2-32,190.7c0,1,0.6,2,1.6,2.3l2.3,0.8c-5,7.4-40.4,80.7-61.9,131.3
	c-22-24.1-45.6-31.7-60.6-48.3C1090.4,1448.6,1178.7,1295.1,1197,1270.1z"/>
<path class="st29" d="M1107,1595.2c0.2,0.2,0.4,0.3,0.6,0.5c-9.7,25.8-20.2,56-31.4,91.3c-0.6,1.7-1.2,3.4-1.8,5.1
	c-14.6,42-26.7,84.8-36.1,128.3c-5,23-8.4,41.9-10.3,53.6c-2,12.1-2.8,17.3-2.9,19.7c0,0-32.3-151.7-5.1-256.9
	c7.7-29.4,16.4-59.4,26.4-89.9c1.4-4.2,2.9-8.5,4.4-12.8C1067.2,1552,1086.3,1572.8,1107,1595.2z"/>
<path class="st13" d="M1188.8,1683.6c-18.3,45.2-38.7,95.7-55.9,191.9c-2.1,11.8-4.2,24.2-6.2,37.4l-81.1-8.9
	c2.2-16.2,16.5-112.2,54.8-215c2.5-6.9,5.2-13.7,8-20.6c6.6-16.2,14-32,22.4-47.3C1151.2,1643.1,1170.6,1663.9,1188.8,1683.6z"/>
<path class="st13" d="M1541.6,983.9c9,33.1,12.4,92.5-22.2,187.1c-54.2,148.1-75.4,272.3-66.6,391c1.2,16.1,2.9,31.7,5.1,47.3
	c10.2,72.4,31.1,140.1,59.1,212.1c-4.8-8.8-9.6-17.5-14.5-26.1s-9.8-17-14.7-25.3c-88.8-207.2-85.5-341.7,15-599.6
	c29.1-74.8,31.7-131.7,28.8-166.2c-3.1-36.3-12.6-55.8-13.6-57.9c0-2.5,0.1-5.1,0.1-7.7C1523.9,944.6,1534.8,958.6,1541.6,983.9z"/>
<path class="st13" d="M1517.8,959.3c8.6,26,23.7,98-19.7,209.3c-96.1,246.6-103.8,381.1-27.4,573.1c-8.7-14.2-17.2-28-25.7-41.5
	c-2.7-4.4-5.5-8.8-8.2-13.1c-0.9-1.5-18.5-31.2-30.4-86.4c-8.3-38.2-13.9-88.5-9.4-150.1c7-97.2,33.6-161,59.3-222.8
	c14.9-35.8,30.3-72.8,41.3-115.4c27.8-107.8,21.1-139.4,20-143.6c0-0.3,0-0.7,0-1.3C1517.7,965.7,1517.7,962.9,1517.8,959.3z"/>
<path class="st31" d="M1467.8,52.7L1360.3,20c-7.4-2.3-15.2,1.9-17.5,9.3c0,0,0,0,0,0L1306,150.3l35-18.7l94.1,28.6
	c7.4,2.2,15.2-2,17.5-9.4l24.5-80.6C1479.3,62.8,1475.1,55,1467.8,52.7z"/>
<path class="st13" d="M1385.6,128.8l-4.2-6.8c-15.1-24-25-39.7-20.9-54.6c3.2-11.8,15.3-18.8,27.2-15.7c0.1,0,0.3,0.1,0.4,0.1
	c6.8,2,12.4,6.7,15.3,13.1c5.9-3.9,13.1-5.1,19.9-3.3c11.8,3.2,18.8,15.3,15.7,27.1c0,0.1-0.1,0.3-0.1,0.4
	c-4.1,14.8-20.8,23.2-46.2,35.9L1385.6,128.8z"/>
<path class="st13" d="M1571.9,768l-12.9-145.6c14.9-7.7,24-22.7,21.9-39.4c-2.1-17.5-16.6-31.2-34.4-35.2l4.6,37.7l-29.3,2.9
	l-5.1-38.1c-17,7-27.4,23.5-25.2,41.1c2,16.7,14.5,29.6,30.9,34.3l12.9,145.6c0.4,3.5,3.7,5.9,7.6,5.5l22.5-2.2
	C1569.8,774.4,1572.8,771,1571.9,768z"/>
<path class="st13" d="M1524.5,664l16.2,145.3c-14.7,7.9-23.4,23.2-21,39.8c2.5,17.5,17.3,30.9,35.2,34.6l-5.5-37.6l29.3-3.4l6,38
	c16.8-7.3,26.8-24,24.3-41.5c-2.4-16.6-15.1-29.4-31.6-33.7l-16.2-145.3c-0.5-3.5-3.8-5.8-7.7-5.3l-22.4,2.6
	C1526.5,657.6,1523.6,661,1524.5,664z"/>
<path class="st15" d="M1397.2,524.3c0-2.9-0.2-5.8-0.5-8.7l15.7-8.8c-0.9-5-2.2-10-4-14.8l-18,0.3c-2.4-5.3-5.3-10.4-8.8-15
	l9.2-15.4c-3.3-3.9-7-7.5-10.9-10.9l-15.4,9.2c-4.7-3.5-9.7-6.4-15-8.8l0.3-18c-4.8-1.7-9.8-3.1-14.8-4l-8.8,15.7
	c-5.8-0.6-11.6-0.6-17.4,0l-8.8-15.7c-5,0.9-10,2.2-14.8,4l0.3,18c-5.3,2.4-10.4,5.3-15.1,8.8l-15.4-9.2c-3.9,3.3-7.5,7-10.9,10.9
	l9.2,15.4c-3.4,4.7-6.4,9.7-8.7,15l-18-0.3c-1.7,4.8-3,9.8-4,14.8l15.7,8.8c-0.6,5.8-0.6,11.6,0,17.4l-15.7,8.8c0.9,5,2.3,10,4,14.8
	l18-0.3c2.3,5.3,5.3,10.4,8.7,15l-9.2,15.4c3.3,3.9,7,7.5,10.9,10.9l15.4-9.2c4.7,3.5,9.7,6.4,15.1,8.8l-0.3,18
	c4.8,1.7,9.8,3,14.8,4l8.8-15.7c5.8,0.6,11.6,0.6,17.4,0l8.8,15.7c5-0.9,10-2.2,14.8-4l-0.3-18c5.3-2.4,10.4-5.3,15-8.8l15.4,9.2
	c3.9-3.3,7.5-7,10.9-10.9l-9.2-15.4c3.5-4.7,6.4-9.7,8.8-15l18,0.3c1.7-4.8,3.1-9.8,4-14.8l-15.7-8.8
	C1397,530.2,1397.2,527.2,1397.2,524.3z M1271.7,524.3c0-25.4,20.6-46,46.1-46s46,20.6,46,46.1c0,25.4-20.6,46-46.1,46
	C1292.3,570.4,1271.7,549.8,1271.7,524.3C1271.7,524.4,1271.7,524.3,1271.7,524.3L1271.7,524.3z"/>
<path class="st32" d="M1317.7,463.9c-33.4,0-60.4,27.1-60.4,60.4c0,33.4,27.1,60.4,60.4,60.4c33.4,0,60.4-27.1,60.4-60.4l0,0
	C1378.2,491,1351.1,463.9,1317.7,463.9z M1317.7,570.4c-25.4,0-46.1-20.6-46.1-46.1c0-25.4,20.6-46.1,46.1-46.1s46.1,20.6,46.1,46.1
	c0,0,0,0,0,0C1363.8,549.8,1343.2,570.4,1317.7,570.4C1317.7,570.4,1317.7,570.4,1317.7,570.4L1317.7,570.4z"/>
<path class="st2" d="M1163,315.3l-7.3,22c-0.6,1.9-2,3.1-3.1,2.7s-1.4-2.2-0.8-4l7.3-22c0.6-1.8,2-3.1,3.1-2.7
	C1163.2,311.6,1163.6,313.4,1163,315.3z M1146.7,363.8l-7.2,21.5c-0.6,1.8-2.1,3-3.3,2.5s-1.7-2.2-1.1-4l7.2-21.5
	c0.6-1.8,2.1-3,3.3-2.5S1147.3,362.1,1146.7,363.8z M1127.5,421.5l-7.2,21.6c-0.6,1.8-2.1,3-3.3,2.6c-1.2-0.4-1.7-2.2-1.1-4
	l7.2-21.6c0.6-1.8,2.1-3,3.3-2.6C1127.5,417.8,1128.1,419.6,1127.5,421.5z"/>
<path class="st2" d="M1052.9,329.1l3,22.4c0.3,1.9-0.4,3.5-1.5,3.7s-2.2-1.3-2.4-3.2l-3-22.3c-0.3-1.9,0.4-3.5,1.5-3.7
	S1052.7,327.2,1052.9,329.1z M1059.6,378.5l3,21.9c0.3,1.8-0.6,3.5-1.8,3.6c-1.2,0.2-2.5-1.2-2.7-3l-3-21.9
	c-0.3-1.8,0.5-3.5,1.8-3.6S1059.3,376.7,1059.6,378.5L1059.6,378.5z M1067.6,437.2l3,22c0.3,1.9-0.6,3.5-1.8,3.7s-2.5-1.2-2.7-3.1
	l-3-22c-0.3-1.9,0.5-3.5,1.8-3.7S1067.3,435.4,1067.6,437.2L1067.6,437.2z"/>
<path class="st13" d="M1078.5,292.4l-110-12c-1.4-0.1-2.4-1.4-2.3-2.8c0,0,0,0,0,0l8.2-75.5c0.2-1.4,1.4-2.4,2.9-2.3l110,12
	c1.4,0.2,2.5,1.4,2.3,2.9l-8.2,75.5C1081.1,291.6,1079.9,292.6,1078.5,292.4z M971.6,275.6l104.9,11.4l7.7-70.4l-104.9-11.4
	L971.6,275.6z"/>
<path class="st13" d="M970.5,263.1c-1.4-0.1-2.4-1.4-2.3-2.8c0.1-0.7,0.4-1.3,0.9-1.7l36-31.3c0.5-0.5,1.3-0.7,2-0.6l0,0
	c0.7,0.1,1.4,0.5,1.8,1l25.6,34.4l25.9-12.5c0.9-0.4,1.9-0.3,2.7,0.3l19.7,15.4c1.1,0.9,1.3,2.5,0.4,3.6c-0.9,1.1-2.5,1.3-3.6,0.4
	l-18.4-14.4l-26.3,12.8c-1.1,0.5-2.5,0.2-3.2-0.8l-25.2-33.8l-33.9,29.5C971.9,262.9,971.2,263.2,970.5,263.1z"/>
<path class="st13" d="M1042.5,241.9c-6-0.5-10.4-5.7-10-11.6c0.5-6,5.7-10.4,11.6-10c6,0.5,10.4,5.7,10,11.6c0,0.1,0,0.2,0,0.3
	C1053.6,238.1,1048.4,242.4,1042.5,241.9z M1044.3,225.5c-3.1-0.5-6,1.6-6.5,4.6c-0.5,3.1,1.6,6,4.6,6.5c3.1,0.5,6-1.6,6.5-4.6
	c0-0.1,0-0.2,0-0.3C1049.4,228.7,1047.3,225.9,1044.3,225.5C1044.3,225.5,1044.3,225.5,1044.3,225.5z"/>
<rect x="1409.4" y="306.3" class="st16" width="183.1" height="117.1"/>
<path class="st13" d="M1580,427.2h-158.2c-9,0-16.3-7.3-16.3-16.3c0,0,0,0,0,0v-92.1c0-9,7.3-16.3,16.3-16.4c0,0,0,0,0,0H1580
	c9,0,16.4,7.3,16.4,16.4v92.1C1596.4,419.9,1589,427.2,1580,427.2z M1422.4,419.5h157.1c5,0,9.1-4.1,9.1-9.1c0,0,0,0,0,0v-91.1
	c0-5-4.1-9.1-9.1-9.1c0,0,0,0,0,0h-157.2c-5,0-9.1,4.1-9.1,9.1v91.1C1413.2,415.4,1417.3,419.5,1422.4,419.5L1422.4,419.5z"/>
<path class="st13" d="M1576.3,321.1H1558c-2.1,0.1-4-1.5-4.1-3.7c-0.1-2.1,1.5-4,3.7-4.1c0.1,0,0.3,0,0.4,0h18.3
	c2.1,0.1,3.8,1.9,3.7,4.1C1579.8,319.5,1578.2,321,1576.3,321.1z"/>
<circle class="st16" cx="1500.9" cy="364.8" r="44.9"/>
<path class="st13" d="M1500.9,413.6c-26.9,0-48.8-21.8-48.8-48.8c0-26.9,21.8-48.8,48.8-48.8c26.9,0,48.8,21.8,48.8,48.8
	c0,0,0,0,0,0C1549.7,391.7,1527.9,413.5,1500.9,413.6z M1500.9,323.7c-22.7,0-41.1,18.4-41.1,41s18.4,41.1,41,41.1
	s41.1-18.4,41.1-41c0,0,0,0,0,0C1541.9,342.1,1523.6,323.8,1500.9,323.7L1500.9,323.7z"/>
<ellipse transform="matrix(0.9729 -0.2314 0.2314 0.9729 -43.6775 357.2294)" class="st16" cx="1500.9" cy="364.8" rx="32.4" ry="32.4"/>
<path class="st13" d="M1500.9,401.1c-20.1,0-36.3-16.3-36.3-36.3s16.3-36.3,36.3-36.3c20.1,0,36.3,16.3,36.3,36.3c0,0,0,0,0,0
	C1537.2,384.8,1521,401.1,1500.9,401.1z M1500.9,336.2c-15.8,0-28.6,12.8-28.6,28.6c0,15.8,12.8,28.6,28.6,28.6
	c15.8,0,28.6-12.8,28.6-28.6c0,0,0,0,0,0C1529.5,349,1516.7,336.2,1500.9,336.2z"/>
<path class="st33" d="M1480.3,362.3c-0.4,0-0.7-0.1-1.1-0.2c-2-0.6-3.2-2.8-2.6-4.8c0,0,0,0,0,0c2.6-8.4,9.3-14.9,17.8-17.1
	c2.1-0.5,4.2,0.7,4.7,2.8c0.5,2.1-0.7,4.2-2.8,4.7c-5.9,1.6-10.6,6.1-12.4,11.9C1483.5,361.2,1482,362.3,1480.3,362.3z"/>
<rect x="1141.8" y="85.3" transform="matrix(0.9318 -0.3631 0.3631 0.9318 15.2065 447.9286)" class="st16" width="114.7" height="196.4"/>
<path class="st13" d="M1172.9,284.8l-61.6-158.1c-3.5-9,0.3-18.9,8.6-22.1l84.1-32.8c8.2-3.2,17.8,1.5,21.3,10.5l61.6,158.1
	c3.5,9-0.3,18.9-8.6,22.2l-84.1,32.8C1186,298.5,1176.4,293.8,1172.9,284.8z M1118.6,124.5l55.7,145.4c2,5,7.3,7.7,11.9,5.9
	l83.2-32.4c4.6-1.8,6.7-7.3,4.8-12.4l-55.7-145.4c-2-5-7.3-7.7-11.9-5.9l-83.2,32.4C1118.8,113.9,1116.6,119.4,1118.6,124.5z"/>
<ellipse transform="matrix(0.9318 -0.3631 0.3631 0.9318 11.034 436.2505)" class="st26" cx="1166" cy="188.8" rx="6.9" ry="7.2"/>
<ellipse transform="matrix(0.9318 -0.3631 0.3631 0.9318 1.9945 441.838)" class="st26" cx="1176.4" cy="215.6" rx="6.8" ry="7.1"/>
<ellipse transform="matrix(0.9318 -0.3631 0.3631 0.9318 -7.1438 447.5785)" class="st26" cx="1187.1" cy="242.8" rx="6.9" ry="7.2"/>
<path class="st26" d="M1176.2,179.6l62.7-24.4c0.5-0.2,1.1,0.1,1.3,0.6l0.3,0.7c0.2,0.5-0.1,1.1-0.6,1.3l-62.7,24.4
	c-0.5,0.2-1.1-0.1-1.3-0.6l-0.3-0.7C1175.4,180.4,1175.7,179.8,1176.2,179.6z"/>
<path class="st26" d="M1175.6,190l24.8-9.6c0.5-0.2,1.1,0.1,1.3,0.6l0.3,0.7c0.2,0.5-0.1,1.1-0.6,1.3l-24.8,9.6
	c-0.5,0.2-1.1-0.1-1.3-0.6l-0.3-0.7C1174.8,190.8,1175.1,190.2,1175.6,190z"/>
<path class="st26" d="M1185.1,206.8l62.7-24.4c0.5-0.2,1.1,0.1,1.3,0.6l0.3,0.7c0.2,0.5-0.1,1.1-0.6,1.3l-62.7,24.4
	c-0.5,0.2-1.1-0.1-1.3-0.6l-0.3-0.7C1184.3,207.6,1184.6,207,1185.1,206.8z"/>
<path class="st26" d="M1188.1,212.8l24.9-9.7c0.5-0.2,1.1,0.1,1.3,0.6l0.3,0.7c0.2,0.5-0.1,1.1-0.6,1.3l-24.9,9.7
	c-0.5,0.2-1.1-0.1-1.3-0.6l-0.3-0.7C1187.3,213.6,1187.6,213,1188.1,212.8z"/>
<path class="st26" d="M1197.1,234.9l62.7-24.4c0.5-0.2,1.1,0.1,1.3,0.6l0.3,0.7c0.2,0.5-0.1,1.1-0.6,1.3l-62.7,24.4
	c-0.5,0.2-1.1-0.1-1.3-0.6l-0.3-0.7C1196.3,235.7,1196.5,235.1,1197.1,234.9z"/>
<path class="st26" d="M1200,240.9l24.9-9.7c0.5-0.2,1.1,0.1,1.3,0.6l0.3,0.7c0.2,0.5-0.1,1.1-0.6,1.3l-24.9,9.7
	c-0.5,0.2-1.1-0.1-1.3-0.6l-0.3-0.7C1199.2,241.7,1199.5,241.1,1200,240.9z"/>
<path class="st26" d="M1229.9,261.1l3.7-1.3c2.9-1,6,0.5,7,3.3l1.3,3.7c1,2.9-0.5,6-3.3,7l-3.7,1.3c-2.9,1-6-0.5-7-3.3l-1.3-3.7
	C1225.6,265.3,1227.1,262.2,1229.9,261.1z"/>
<path class="st26" d="M1137.8,119.1l63.9-24.9c2.3-0.9,4.9,0.2,5.8,2.6l15.2,39c0.9,2.3-0.2,4.9-2.6,5.8l-63.9,24.9
	c-2.3,0.9-4.9-0.2-5.8-2.6l-15.2-39C1134.3,122.6,1135.5,120,1137.8,119.1z"/>
<path class="st13" d="M1036.4,1905.6c-178.7-1.3-296.7-9-382.9-14.7l-31.7-2.1c-17.9,14.9-38.8,25.8-61.3,31.9
	c-92.9,26.3-164.9,18.9-188.1-2.1c-4.1-3.7-6.8-8-7.5-12c-2.3-13.1,16.2-22.7,50.8-26.3c66.6-6.9,123.2-4.6,200.5,0.3
	c98.8-84.4,86.2-286.7,53.8-454.4c-41.2-213.4-36-423-36.8-425.1l6.1-12.6c0.8,2-3.5,226.2,37.8,440.5
	c24.3,126,30.3,230.3,17.6,309.9c-10,63.1-31.7,110.7-65,142.5l19.8,1.3c86.1,5.6,204,13.4,382.6,14.6c279.8,2,597.8-11.9,651-56.8
	c6.4-5.4,7.7-11.2,4-17.2c-17.7-29.4-134.4-72.7-265.6-98.7l-3-7.9c118.8,23.5,251.1,67.2,274.2,105.6c6.1,10,4.9,18.6-3.4,25.6
	c-28.9,24.4-134.4,39.8-269.5,48.4C1304,1904,1166.1,1906.5,1036.4,1905.6z M420.3,1888.4c-40.3,4.2-49.2,15.5-48.2,21.5
	c0.2,1,0.6,2.1,2.5,3.8c13.8,12.5,76.2,28.8,180.7-0.8c18.6-5.2,36.1-13.6,51.8-24.9C536.6,1883.6,482.8,1881.9,420.3,1888.4
	L420.3,1888.4z"/>
<g>
	<rect x="1740" y="1080.8" class="st13" width="212.9" height="9.5"/>
	<rect x="1767.3" y="1222.1" class="st13" width="212.9" height="9.5"/>
	<rect x="1790.1" y="1363.5" class="st13" width="226.3" height="9.5"/>
	<rect x="1803.8" y="1504.9" class="st13" width="248.8" height="9.5"/>
	<rect x="1831.2" y="1646.2" class="st13" width="248.8" height="9.5"/>
	<polygon class="st13" points="1702.3,858.8 1850,1865.5 1872.8,1865.5 1711.5,858.8 	"/>
	<polygon class="st13" points="1889.3,858.8 2128.2,1865.5 2151,1865.5 1898.4,858.8 	"/>
	<rect x="1721.7" y="939.4" class="st13" width="193.8" height="9.5"/>
</g>
<g>
	<path class="st24" d="M1569.9,713.4c-1.4-11.3-1.7-24.9-3.6-30.8s-9.1-7.3-15.2-6.2s-8-13.1-12.2-10.5c-4.2,2.6-6.6,6.4-6.8,12.8
		c-0.2,6.4-2.9,19.5-0.1,29.9c2.8,10.4,15.7,10.6,18.3,16.3C1552.9,730.4,1569.9,713.4,1569.9,713.4z"/>
	<path class="st24" d="M1888.9,1103.3c-2.3,127.7,51.4,245.6,34.5,248.7c-16.9,3.2-38,11.7-41.7,18.5c-0.7,1.2,79.5,5.6,79.5,5.6
		c1.8-14.6-10.2-13.3-9.3-24.1c0.8-10.8,35.1-114.8,30.3-176.6s-13.4-81.7-13.4-81.7L1888.9,1103.3z"/>
	<path class="st24" d="M1785.7,1095.2c-2.3,127.8,51.4,245.6,34.5,248.8c-16.9,3.2-38,11.7-41.8,18.5c-0.7,1.2,79.5,5.6,79.5,5.6
		c1.8-14.6-10.2-13.3-9.3-24.1c0.8-10.8,35.1-114.8,30.4-176.6c-4.7-61.8-13.4-81.6-13.4-81.6L1785.7,1095.2z"/>
	<path class="st34" d="M1785.6,1106.6c9,28.1,47,39.7,67.1,51.6c20.7,12.2,17.5,77.3,8.4,110.7s-30.4,78.4-9.8,87.6
		c2,0.9,3.8,1.6,5.5,2.3c-2.8-5.6-8.7-7.1-8.1-14.9c0.9-10.8,35.1-114.8,30.4-176.6c-2.3-30.2-5.6-50.3-8.3-63.1l-85,0.1
		C1785.6,1105.1,1785.6,1105.8,1785.6,1106.6z"/>
	<path class="st34" d="M1889,1120.7c22.6,13.4,53.9,3.4,70.7,15.1c18.4,12.8,11.5,95.4-0.7,145.3c-12.3,49.9-21.6,81.8-7,84.4
		c2.8,0.5,5.6,1.3,8.4,2.2c-2.6-6.3-9.1-7.6-8.5-15.7c0.8-10.8,35.1-114.8,30.3-176.6s-13.4-81.7-13.4-81.7l-47.2,5.6
		c-13.7,6.2-25.9,11.6-32.7,14.6C1888.9,1116.2,1888.9,1118.5,1889,1120.7z"/>
	<path class="st20" d="M1853.3,1354.2c-21.1,2.9-46.7,3.6-44.9-7.4l0,0c-13.7,4-27.1,10.4-30,15.6c-0.7,1.2,79.5,5.6,79.5,5.6
		C1858.8,1360.4,1856.1,1357.1,1853.3,1354.2z"/>
	<path class="st19" d="M1709.5,685.6c-9,61.9-7.5,178,32.4,288.2c39.9,110.2,23.4,170.8,23.4,170.8
		c80.7,16.4,235.7-40.1,278.7-118.7c-94.3-270.1-286.9-386.2-286.9-386.2L1709.5,685.6z"/>
	<path class="st23" d="M1808.6,1029.2c13.4,48.5,16.1,87.8,15,116.6c-21.5,2.5-41.6,2.2-58.4-1.2c0,0,16.4-60.6-23.4-170.8
		c-39.8-110.2-41.4-226.3-32.4-288.2l9.1-8.8l6.2,2C1720.7,806.5,1778,918,1808.6,1029.2z"/>
	<path class="st23" d="M1710.4,661.9c-8.4,14.4-2.1,22.9-0.9,23.7c23,0.6,55.6-34.3,47.6-45.9c-15.9-7.1-29,2.7-29,2.7L1710.4,661.9
		z"/>
	<path class="st25" d="M1613.2,589.8c-19-1.8-26.1-25.4-21.1-42.2c-8.3,3.4-2.4-12.3,15.1-21.3c17.5-9,34.5-3.3,48.3,2.9
		c13.8,6.2,26.3-19.2,64.5,3.5c38.2,22.7,43.8,80.9,4.6,97.4c1.7,13.5,1.9,14.7-0.6,15c-2.4,0.3-29.7,10.5-33.6,8
		c-3.9-2.5-17.1-7-20.3-10.1c-3.1-3.2-28.3-21.7-31.2-24.6c-2.9-2.9-18.9-15.8-18.9-15.8L1613.2,589.8z"/>
	<path class="st25" d="M1709.1,555.8c21.8,15,19.6,56.2-18.5,61.5l-14.9,2.5c0,0,1.9,8.5,3.5,10.4c1.6,1.9,11.7,8.8,19.9,17.7
		c1.4,1.5,2.5,2.7,3.5,3.6c9-2.4,19.8-6.3,21.3-6.4c2.4-0.3,2.3-1.5,0.6-15c39.2-16.5,33.6-74.7-4.6-97.4c-1.2-0.7-2.4-1.4-3.5-2
		C1705.3,537.5,1697,547.5,1709.1,555.8z"/>
	<path class="st24" d="M1724.5,630c0,0,3.2,4.5,17.4,9.2c6.2,7.9-13.4,30-29,30.6c0,0-8.8-23-13.3-12s-21.2,13.8-36.9,0.3
		c-15.7-13.5-13.4-22.1-24.7-34c-11.3-11.9-23.9-23.9-26.7-41.3c2.4,3.9,5,4.8,5,4.8c3.8,15.6,29.3,30.2,45.8,21.6
		c7.4,7.7,14.4,7.5,13.5,1.6c-2.7-5.8,3.9-11.2,10.4-7.2c6.5,4.1,10.9,14.3-1.1,19.2C1683.5,641,1716.9,648.2,1724.5,630z"/>
	<path class="st35" d="M1682.7,611.3c0.2-1.4,0.8-2.8,1.7-4c-4.7,2.1-4.7,7.4-0.1,10c-1-1.2-1.6-2.6-1.7-4.2
		c2.1-0.5,4.3,0.7,4.9,2.8C1687.5,613.4,1685.4,611.3,1682.7,611.3C1682.8,611.3,1682.8,611.3,1682.7,611.3z"/>
	
		<ellipse transform="matrix(0.9847 -0.1742 0.1742 0.9847 -65.3182 308.2654)" class="st36" cx="1723.8" cy="526.3" rx="39.7" ry="39.7"/>
	<path class="st25" d="M1694.8,553.2c14.9,16,40,16.9,56,2c16-14.9,16.9-40,2-56c-14.5-15.5-38.6-16.9-54.7-3.1
		c-1.8,1.6-3.5,3.3-5,5.2c0.3-0.1,0.5-0.1,0.8-0.2c15.5-8,32.2,4.5,31.1,9.8c-10-1.9-14.8,4.6,0.7,13
		C1741,532.1,1716.9,567.9,1694.8,553.2z"/>
	<path class="st37" d="M1546,723.4c16.6-14.9,27.1-12.2,27.1-12.2c25.1,39.1,58.5,94.9,105.6,69c47.1-25.9,30.9-84.8,67.4-84.4
		c36.5,0.4,82,89,6.4,142.6C1676.9,892,1583.3,843.7,1546,723.4z"/>
	<path class="st38" d="M1732.3,699.8c-19,13.6-13.9,58.7-53.5,80.4c-47.1,25.9-80.6-29.9-105.6-69c0,0-3.4-0.9-9.4,1.1
		c27.5,72.6,80.3,110.2,128.2,80C1736.1,764.5,1712.8,725.7,1732.3,699.8z"/>
	<path class="st39" d="M1955.6,1361.3c-20.4,3.2-47.5,4.8-49-4.8c-11.8,4-22.4,9.4-24.9,14c-0.7,1.2,79.5,5.6,79.5,5.6
		C1962.2,1367.6,1958.6,1364.6,1955.6,1361.3z"/>
</g>
</svg>
