<svg id="Layer_1" data-name="Layer 1" xmlns="http://www.w3.org/2000/svg" viewBox="0 0 675.7 698"><defs><style>.cls-1{fill:#eaeaea;}.cls-14,.cls-2{fill:#fff;}.cls-2{stroke:#aab5ba;stroke-width:0.48px;}.cls-15,.cls-2{stroke-miterlimit:10;}.cls-3{fill:#cecece;}.cls-4{fill:#1a2e35;}.cls-5,.cls-9{fill:#ffc800;}.cls-6{fill:#dcdcdc;}.cls-7{fill:#ececec;}.cls-11,.cls-8,.cls-9{opacity:0.1;}.cls-10{fill:#a8a8a8;}.cls-12{fill:#c8c8c8;}.cls-13{fill:#e5e9ea;}.cls-15{fill:#cedadd;stroke:#fff;stroke-width:2.44px;}.cls-16{fill:#636466;}.cls-17{fill:#e6ecef;}.cls-18{fill:#70858c;}.cls-19{fill:#afd1dd;}.cls-20{fill:#515768;}.cls-21{fill:#f7f7f7;}.cls-22{fill:#e2e2e2;}</style></defs><rect class="cls-1" x="43.73" y="272.14" width="450.83" height="234.35" rx="21.21" transform="translate(561.55 17.15) rotate(72.81)"/><path class="cls-2" d="M412.3,105l-38.19,0a9,9,0,0,0-9.28,8.75V120a9,9,0,0,1-9.28,8.75l-74.45,0a9,9,0,0,1-9.28-8.76v-6.26a9,9,0,0,0-9.27-8.76H215.68c-16.6,0-30.07,12.14-30.07,27.13l-.09,435.37c0,15,13.44,27.14,30,27.15l196.62.1c16.61,0,30.07-12.14,30.08-27.13l.09-435.37C442.34,117.13,428.9,105,412.3,105Z"/><path class="cls-2" d="M412.3,105s.35,0,1,0a24.3,24.3,0,0,1,3.05.21,30.65,30.65,0,0,1,11.28,3.52,28.33,28.33,0,0,1,6.85,5,26.92,26.92,0,0,1,5.73,8.1,25.73,25.73,0,0,1,2.25,11q0,6,0,12.8c0,36.16.06,88.49.11,153.14s0,141.65,0,227.13v40.68a26,26,0,0,1-5,15.93,31.3,31.3,0,0,1-6.26,6.28A32.35,32.35,0,0,1,414,594.91c-6.3.17-12.56,0-18.89.08l-38.28,0-78.56,0-40.18,0H217.84A34.34,34.34,0,0,1,198.26,590a28.09,28.09,0,0,1-11.91-14.86,27.14,27.14,0,0,1-1.26-9.18v-9.15q0-18.27,0-36.3,0-36,0-71c0-46.53,0-91.4.06-134.15s0-83.37.06-121.39q0-28.51,0-55v-6.59c0-1.09.11-2.2.17-3.29.22-1.08.31-2.18.62-3.24a26.89,26.89,0,0,1,6.32-11.5,31.41,31.41,0,0,1,11.15-7.52,34.42,34.42,0,0,1,13.36-2.28l26.2,0,12.61,0h6.17a10.38,10.38,0,0,1,5.92,1.5,9.18,9.18,0,0,1,3.68,4.36c.77,1.74.58,3.62.61,5.36,0,.88,0,1.76,0,2.64a17.06,17.06,0,0,0,.1,2.59,8.13,8.13,0,0,0,2.24,4.54,9.1,9.1,0,0,0,4.59,2.58,11.64,11.64,0,0,0,2.71.24h13.62l39.63.06,17.48,0c1.38,0,2.78.06,4.09,0a9.58,9.58,0,0,0,3.68-1.17,8.65,8.65,0,0,0,4.21-5.47,13.53,13.53,0,0,0,.24-3.3v-3.24a17.64,17.64,0,0,1,.16-3.17,8.91,8.91,0,0,1,1.13-2.91,9.36,9.36,0,0,1,4.8-3.83c2-.77,4.08-.54,6-.57l19.5,0,12,0c2.7,0,4.08,0,4.08,0s-1.38,0-4.08,0l-12,0-19.5,0c-1.91,0-4-.18-5.87.57a9,9,0,0,0-4.64,3.73,8.41,8.41,0,0,0-1.09,2.83,16.87,16.87,0,0,0-.15,3.12c0,1.06,0,2.15,0,3.24a13.7,13.7,0,0,1-.24,3.36,8.93,8.93,0,0,1-4.35,5.68,9.86,9.86,0,0,1-3.82,1.22c-1.39.11-2.74,0-4.13.06H281.72a12.37,12.37,0,0,1-2.83-.25,9.61,9.61,0,0,1-4.85-2.72,8.68,8.68,0,0,1-2.38-4.78,19.69,19.69,0,0,1-.1-2.65v-2.64c0-1.77.15-3.56-.59-5.2a8.61,8.61,0,0,0-3.48-4.12,9.79,9.79,0,0,0-5.61-1.4h-45a33.77,33.77,0,0,0-13.11,2.25,30.65,30.65,0,0,0-10.92,7.38A26.28,26.28,0,0,0,186.7,126a31.06,31.06,0,0,0-.6,3.17c-.06,1.07-.15,2.14-.17,3.23,0,2.19,0,4.38,0,6.59q0,26.46,0,55c0,38,0,78.64,0,121.39V449.57q0,34.89,0,71,0,18,0,36.3V566a26.47,26.47,0,0,0,1.22,9,27.34,27.34,0,0,0,11.59,14.44,33.43,33.43,0,0,0,19.09,4.75h20.29l40.18,0,78.56.05,38.28,0c6.31,0,12.64.09,18.84-.07a31.48,31.48,0,0,0,16.89-5.91,29.93,29.93,0,0,0,6.1-6.11,25.39,25.39,0,0,0,3.74-7.44,25.86,25.86,0,0,0,1.13-8.09v-8.23q0-16.41,0-32.45c.05-85.48.1-162.47.14-227.13s.12-117,.16-153.14q0-6.78,0-12.8a25.43,25.43,0,0,0-2.2-10.93,26.64,26.64,0,0,0-5.64-8.06,28.34,28.34,0,0,0-6.79-5,30.65,30.65,0,0,0-11.2-3.57,26,26,0,0,0-3-.25Z"/><path class="cls-3" d="M235.32,375.21c-.27,0-.37-31.67-.22-70.7s.5-70.65.77-70.64.36,31.67.21,70.71S235.59,375.23,235.32,375.21Z"/><path class="cls-3" d="M397.11,223.64c0,1.12-162.07,1.13-162.08,0S397.1,222.53,397.11,223.64Z"/><path class="cls-3" d="M396.43,378.05c-.27,0-.49-34.81-.49-77.73s.22-77.74.49-77.74.49,34.8.49,77.74S396.7,378.05,396.43,378.05Z"/><path class="cls-4" d="M267.75,447.67c-.07,0-.39-9.37-.71-21s-.51-21.15-.44-21.2.39,9.37.71,21S267.82,447.62,267.75,447.67Z"/><path class="cls-4" d="M308.16,406.59c0,.35-9.2.64-20.54.64s-20.55-.29-20.55-.64,9.2-.64,20.55-.64S308.16,406.23,308.16,406.59Z"/><path class="cls-4" d="M309.62,445c-.08,0-.14-8-.14-18s.06-18,.14-18,.13,8.05.13,18S309.69,445,309.62,445Z"/><path class="cls-4" d="M310,447.37c0,.35-9.33.64-20.82.64s-20.82-.29-20.82-.64,9.32-.64,20.82-.64S310,447,310,447.37Z"/><rect class="cls-5" x="246.77" y="538.34" width="134.81" height="19.78" rx="9.89"/><path class="cls-6" d="M384.73,572.51c0,.27-29.37.5-65.58.5s-65.58-.23-65.58-.5,29.36-.5,65.58-.5S384.73,572.23,384.73,572.51Z"/><polygon class="cls-6" points="398.02 487.47 241.06 487.47 240.27 483.03 397.24 483.03 398.02 487.47"/><polygon class="cls-6" points="377.52 503.87 242.52 503.87 241.74 499.43 376.73 499.43 377.52 503.87"/><polygon class="cls-7" points="308.12 446.19 268.76 446.19 268.05 406.83 307.41 406.83 308.12 446.19"/><path class="cls-5" d="M298.18,441.65H278.53c-5.31,0-4.53-4.25-3.34-8.71s3-11.22,7.71-11.22h10.2c4.75,0,6.76,6.76,8.11,11.22S303.5,441.65,298.18,441.65Z"/><g class="cls-8"><path class="cls-5" d="M282.34,421.94a.19.19,0,0,1-.19.2.21.21,0,1,1,.19-.2Z"/><path class="cls-5" d="M285.69,421.94a.19.19,0,0,1-.19.2.21.21,0,1,1,.19-.2Z"/><path class="cls-5" d="M289,421.94a.19.19,0,0,1-.19.2.21.21,0,1,1,.19-.2Z"/><path class="cls-5" d="M292.39,421.94a.19.19,0,0,1-.2.2.2.2,0,0,1-.2-.2.2.2,0,1,1,.4,0Z"/><path class="cls-5" d="M279.07,426.24a.19.19,0,0,1-.2.2.2.2,0,0,1-.2-.2.19.19,0,0,1,.2-.2A.2.2,0,0,1,279.07,426.24Z"/><path class="cls-5" d="M282.42,426.24a.19.19,0,0,1-.2.2.2.2,0,0,1-.2-.2.19.19,0,0,1,.2-.2A.2.2,0,0,1,282.42,426.24Z"/><path class="cls-5" d="M285.77,426.24a.2.2,0,1,1-.4,0,.19.19,0,0,1,.2-.2A.2.2,0,0,1,285.77,426.24Z"/><path class="cls-5" d="M289.12,426.24a.2.2,0,1,1-.4,0,.19.19,0,0,1,.2-.2A.2.2,0,0,1,289.12,426.24Z"/><path class="cls-5" d="M292.47,426.24a.2.2,0,0,1-.4,0,.19.19,0,0,1,.19-.2A.2.2,0,0,1,292.47,426.24Z"/><path class="cls-5" d="M295.82,426.24a.2.2,0,0,1-.4,0,.19.19,0,0,1,.19-.2A.2.2,0,0,1,295.82,426.24Z"/><path class="cls-5" d="M280.71,424a.2.2,0,0,1-.2.21.21.21,0,0,1-.21-.21.2.2,0,0,1,.2-.2A.21.21,0,0,1,280.71,424Z"/><path class="cls-5" d="M284.06,424a.2.2,0,0,1-.2.21.21.21,0,0,1-.21-.21.2.2,0,0,1,.2-.2A.21.21,0,0,1,284.06,424Z"/><path class="cls-5" d="M287.41,424a.2.2,0,0,1-.2.21A.21.21,0,0,1,287,424a.2.2,0,0,1,.2-.2A.21.21,0,0,1,287.41,424Z"/><path class="cls-5" d="M290.76,424a.2.2,0,0,1-.2.21.21.21,0,0,1-.21-.21.2.2,0,0,1,.2-.2A.22.22,0,0,1,290.76,424Z"/><path class="cls-5" d="M294.11,424a.2.2,0,0,1-.2.21.21.21,0,0,1-.21-.21.2.2,0,0,1,.2-.2A.22.22,0,0,1,294.11,424Z"/><path class="cls-5" d="M297.43,424.14a.19.19,0,0,1-.17.1.2.2,0,0,1-.21-.2.21.21,0,0,1,.14-.2C297.27,423.94,297.35,424,297.43,424.14Z"/><path class="cls-5" d="M279.15,430.55a.2.2,0,0,1-.2.2.22.22,0,0,1-.21-.2.21.21,0,1,1,.41,0Z"/><path class="cls-5" d="M282.5,430.55a.2.2,0,0,1-.2.2.22.22,0,0,1-.21-.2.21.21,0,0,1,.2-.21A.22.22,0,0,1,282.5,430.55Z"/><path class="cls-5" d="M285.85,430.55a.2.2,0,0,1-.2.2.22.22,0,0,1-.21-.2.21.21,0,0,1,.2-.21A.22.22,0,0,1,285.85,430.55Z"/><path class="cls-5" d="M289.2,430.55a.2.2,0,0,1-.2.2.21.21,0,0,1,0-.41A.22.22,0,0,1,289.2,430.55Z"/><path class="cls-5" d="M292.55,430.55a.2.2,0,0,1-.2.2.21.21,0,1,1,0-.41A.22.22,0,0,1,292.55,430.55Z"/><path class="cls-5" d="M295.9,430.55a.2.2,0,0,1-.2.2.21.21,0,0,1,0-.41A.22.22,0,0,1,295.9,430.55Z"/><path class="cls-5" d="M299.25,430.55a.2.2,0,0,1-.2.2.21.21,0,1,1,0-.41A.22.22,0,0,1,299.25,430.55Z"/><circle class="cls-5" cx="277.23" cy="428.34" r="0.2" transform="translate(-222.16 323.73) rotate(-45.26)"/><path class="cls-5" d="M280.79,428.34a.2.2,0,0,1-.2.2.2.2,0,0,1-.21-.2.2.2,0,0,1,.2-.2A.22.22,0,0,1,280.79,428.34Z"/><path class="cls-5" d="M284.13,428.34a.19.19,0,0,1-.19.2.2.2,0,0,1-.21-.2.2.2,0,0,1,.4,0Z"/><path class="cls-5" d="M287.48,428.34a.19.19,0,0,1-.19.2.2.2,0,0,1-.21-.2.2.2,0,0,1,.4,0Z"/><path class="cls-5" d="M290.83,428.34a.19.19,0,0,1-.2.2.2.2,0,1,1,.2-.2Z"/><path class="cls-5" d="M294.18,428.34a.19.19,0,0,1-.2.2.2.2,0,1,1,.2-.2Z"/><path class="cls-5" d="M297.53,428.34a.19.19,0,0,1-.2.2.2.2,0,0,1-.2-.2.19.19,0,0,1,.2-.2A.2.2,0,0,1,297.53,428.34Z"/><path class="cls-5" d="M275.88,434.85a.2.2,0,0,1-.2.21.21.21,0,0,1-.21-.21.2.2,0,0,1,.2-.2A.21.21,0,0,1,275.88,434.85Z"/><path class="cls-5" d="M279.23,434.85a.2.2,0,0,1-.2.21.21.21,0,0,1-.21-.21.2.2,0,0,1,.2-.2A.22.22,0,0,1,279.23,434.85Z"/><path class="cls-5" d="M282.58,434.85a.2.2,0,0,1-.2.21.21.21,0,0,1-.21-.21.2.2,0,0,1,.2-.2A.22.22,0,0,1,282.58,434.85Z"/><path class="cls-5" d="M285.93,434.85a.2.2,0,0,1-.2.21.21.21,0,0,1-.21-.21.2.2,0,0,1,.2-.2A.22.22,0,0,1,285.93,434.85Z"/><path class="cls-5" d="M289.28,434.85a.2.2,0,0,1-.2.21.21.21,0,0,1-.21-.21.2.2,0,0,1,.2-.2A.22.22,0,0,1,289.28,434.85Z"/><path class="cls-5" d="M292.63,434.85a.2.2,0,0,1-.2.21.21.21,0,0,1-.21-.21.2.2,0,0,1,.2-.2A.22.22,0,0,1,292.63,434.85Z"/><path class="cls-5" d="M296,434.85a.2.2,0,0,1-.2.21.21.21,0,0,1-.21-.21.2.2,0,0,1,.2-.2A.22.22,0,0,1,296,434.85Z"/><path class="cls-5" d="M299.33,434.85a.2.2,0,0,1-.2.21.21.21,0,0,1-.21-.21.2.2,0,0,1,.2-.2A.22.22,0,0,1,299.33,434.85Z"/><circle class="cls-5" cx="277.31" cy="432.65" r="0.2" transform="translate(-225.19 325.06) rotate(-45.26)"/><path class="cls-5" d="M280.86,432.65a.2.2,0,1,1-.4,0,.19.19,0,0,1,.2-.21A.2.2,0,0,1,280.86,432.65Z"/><path class="cls-5" d="M284.21,432.65a.2.2,0,1,1-.4,0,.19.19,0,0,1,.2-.21A.2.2,0,0,1,284.21,432.65Z"/><path class="cls-5" d="M287.56,432.65a.2.2,0,0,1-.4,0,.19.19,0,0,1,.19-.21A.21.21,0,0,1,287.56,432.65Z"/><path class="cls-5" d="M290.91,432.65a.2.2,0,0,1-.4,0,.19.19,0,0,1,.19-.21A.21.21,0,0,1,290.91,432.65Z"/><path class="cls-5" d="M294.26,432.65a.2.2,0,1,1-.4,0,.19.19,0,0,1,.19-.21A.21.21,0,0,1,294.26,432.65Z"/><path class="cls-5" d="M297.61,432.65a.2.2,0,0,1-.2.2.22.22,0,0,1-.21-.2.2.2,0,0,1,.2-.21A.21.21,0,0,1,297.61,432.65Z"/><path class="cls-5" d="M301,432.65a.2.2,0,0,1-.2.2.22.22,0,0,1-.21-.2.2.2,0,0,1,.2-.21A.21.21,0,0,1,301,432.65Z"/><path class="cls-5" d="M276,439.16a.19.19,0,0,1-.19.2.2.2,0,0,1-.21-.2.2.2,0,1,1,.4,0Z"/><circle class="cls-5" cx="279.1" cy="439.16" r="0.2" transform="translate(-229.29 328.26) rotate(-45.26)"/><circle class="cls-5" cx="282.45" cy="439.16" r="0.2" transform="translate(-228.3 330.64) rotate(-45.26)"/><circle class="cls-5" cx="285.8" cy="439.16" r="0.2" transform="translate(-227.3 333.02) rotate(-45.26)"/><circle class="cls-5" cx="289.15" cy="439.16" r="0.2" transform="translate(-226.31 335.4) rotate(-45.26)"/><path class="cls-5" d="M292.7,439.16a.19.19,0,0,1-.2.2.2.2,0,0,1-.2-.2.19.19,0,0,1,.2-.2A.2.2,0,0,1,292.7,439.16Z"/><circle class="cls-5" cx="295.85" cy="439.16" r="0.2" transform="translate(-224.33 340.16) rotate(-45.26)"/><circle class="cls-5" cx="299.2" cy="439.16" r="0.2" transform="translate(-223.34 342.54) rotate(-45.26)"/><circle class="cls-5" cx="277.39" cy="436.95" r="0.2" transform="translate(-228.23 326.39) rotate(-45.26)"/><path class="cls-5" d="M280.94,437a.2.2,0,0,1-.2.2.22.22,0,0,1-.21-.2.2.2,0,0,1,.2-.2A.21.21,0,0,1,280.94,437Z"/><path class="cls-5" d="M284.29,437a.2.2,0,0,1-.2.2.22.22,0,0,1-.21-.2.2.2,0,0,1,.2-.2A.21.21,0,0,1,284.29,437Z"/><path class="cls-5" d="M287.64,437a.2.2,0,0,1-.2.2.21.21,0,0,1-.21-.2.2.2,0,0,1,.2-.2A.21.21,0,0,1,287.64,437Z"/><path class="cls-5" d="M291,437a.2.2,0,0,1-.2.2.21.21,0,0,1-.21-.2.2.2,0,0,1,.2-.2A.21.21,0,0,1,291,437Z"/><path class="cls-5" d="M294.34,437a.2.2,0,0,1-.2.2.21.21,0,0,1-.21-.2.2.2,0,0,1,.2-.2A.21.21,0,0,1,294.34,437Z"/><path class="cls-5" d="M297.69,437a.2.2,0,0,1-.2.2.21.21,0,0,1-.21-.2.2.2,0,0,1,.2-.2A.21.21,0,0,1,297.69,437Z"/><path class="cls-5" d="M301,437a.2.2,0,0,1-.2.2.21.21,0,0,1-.21-.2.2.2,0,0,1,.2-.2A.21.21,0,0,1,301,437Z"/><circle class="cls-5" cx="277.46" cy="441.26" r="0.2" transform="translate(-231.26 327.72) rotate(-45.26)"/><path class="cls-5" d="M281,441.26a.2.2,0,0,1-.2.2.21.21,0,0,1-.21-.2.2.2,0,0,1,.2-.21A.22.22,0,0,1,281,441.26Z"/><path class="cls-5" d="M284.37,441.26a.2.2,0,0,1-.2.2.21.21,0,0,1-.21-.2.2.2,0,0,1,.2-.21A.22.22,0,0,1,284.37,441.26Z"/><path class="cls-5" d="M287.72,441.26a.2.2,0,0,1-.2.2.21.21,0,0,1,0-.41A.22.22,0,0,1,287.72,441.26Z"/><path class="cls-5" d="M291.07,441.26a.2.2,0,0,1-.2.2.21.21,0,0,1,0-.41A.22.22,0,0,1,291.07,441.26Z"/><path class="cls-5" d="M294.42,441.26a.2.2,0,0,1-.2.2.21.21,0,1,1,0-.41A.22.22,0,0,1,294.42,441.26Z"/><path class="cls-5" d="M297.77,441.26a.2.2,0,0,1-.2.2.21.21,0,0,1,0-.41A.22.22,0,0,1,297.77,441.26Z"/><path class="cls-5" d="M300.87,441.06l-.11.06A.2.2,0,0,1,300.87,441.06Z"/></g><path class="cls-9" d="M284.24,424.07a1.59,1.59,0,0,1-1.6,1.63,1.67,1.67,0,0,1-1.66-1.63,1.6,1.6,0,0,1,1.6-1.63A1.67,1.67,0,0,1,284.24,424.07Z"/><path class="cls-9" d="M295.1,424.07a1.59,1.59,0,0,1-1.6,1.63,1.67,1.67,0,0,1-1.66-1.63,1.6,1.6,0,0,1,1.6-1.63A1.67,1.67,0,0,1,295.1,424.07Z"/><ellipse class="cls-5" cx="282.61" cy="424.07" rx="1.09" ry="1.11" transform="translate(-217.53 326.28) rotate(-45.26)"/><ellipse class="cls-5" cx="293.47" cy="424.07" rx="1.09" ry="1.11" transform="translate(-214.31 334) rotate(-45.26)"/><path class="cls-5" d="M293.48,424.31a.64.64,0,0,1-.64-.63,30.79,30.79,0,0,0-1-5.85c-.67-2.33-1.87-5.1-3.82-5.1-3.61,0-4.8,9.1-4.76,10.95a.62.62,0,0,1-.62.63.64.64,0,0,1-.63-.63c0-.12.54-12.2,6-12.2,5.28,0,6.12,12.08,6.13,12.2A.62.62,0,0,1,293.48,424.31Z"/><path class="cls-4" d="M317.57,447.67c-.07,0-.39-9.37-.7-21s-.52-21.15-.44-21.2.38,9.37.7,21S317.64,447.62,317.57,447.67Z"/><path class="cls-4" d="M358,406.59c0,.35-9.2.64-20.54.64s-20.55-.29-20.55-.64,9.2-.64,20.55-.64S358,406.23,358,406.59Z"/><path class="cls-4" d="M359.44,445c-.07,0-.13-8-.13-18s.06-18,.13-18,.13,8.05.13,18S359.51,445,359.44,445Z"/><path class="cls-4" d="M359.81,447.37c0,.35-9.32.64-20.82.64s-20.82-.29-20.82-.64,9.32-.64,20.82-.64S359.81,447,359.81,447.37Z"/><path class="cls-10" d="M348,441.65H328.35c-5.31,0-4.53-4.25-3.34-8.71s3-11.22,7.71-11.22h10.21c4.74,0,6.75,6.76,8.11,11.22S353.32,441.65,348,441.65Z"/><g class="cls-8"><path d="M332.17,421.94a.2.2,0,0,1-.2.2.21.21,0,0,1-.21-.2.2.2,0,0,1,.2-.21A.21.21,0,0,1,332.17,421.94Z"/><path d="M335.52,421.94a.2.2,0,0,1-.2.2.21.21,0,0,1-.21-.2.2.2,0,0,1,.2-.21A.21.21,0,0,1,335.52,421.94Z"/><path d="M338.87,421.94a.2.2,0,0,1-.2.2.21.21,0,0,1-.21-.2.2.2,0,0,1,.2-.21A.21.21,0,0,1,338.87,421.94Z"/><path d="M342.22,421.94a.2.2,0,0,1-.2.2.21.21,0,0,1-.21-.2.2.2,0,0,1,.2-.21A.21.21,0,0,1,342.22,421.94Z"/><path d="M328.9,426.24a.2.2,0,0,1-.2.2.2.2,0,0,1-.21-.2.2.2,0,0,1,.2-.2A.22.22,0,0,1,328.9,426.24Z"/><path d="M332.25,426.24a.2.2,0,0,1-.2.2.2.2,0,0,1-.21-.2.2.2,0,0,1,.2-.2A.22.22,0,0,1,332.25,426.24Z"/><path d="M335.6,426.24a.2.2,0,0,1-.2.2.2.2,0,0,1-.21-.2.2.2,0,0,1,.2-.2A.22.22,0,0,1,335.6,426.24Z"/><path d="M338.94,426.24a.19.19,0,0,1-.19.2.2.2,0,0,1-.21-.2.2.2,0,0,1,.4,0Z"/><path d="M342.29,426.24a.19.19,0,0,1-.19.2.2.2,0,0,1-.21-.2.2.2,0,0,1,.4,0Z"/><path d="M345.64,426.24a.19.19,0,0,1-.2.2.2.2,0,1,1,.2-.2Z"/><path d="M330.53,424a.2.2,0,0,1-.2.21.22.22,0,0,1-.21-.21.2.2,0,0,1,.2-.2A.2.2,0,0,1,330.53,424Z"/><path d="M333.88,424a.2.2,0,0,1-.2.21.22.22,0,0,1-.21-.21.2.2,0,0,1,.2-.2A.2.2,0,0,1,333.88,424Z"/><path d="M337.23,424a.2.2,0,0,1-.2.21.22.22,0,0,1-.21-.21.2.2,0,0,1,.2-.2A.2.2,0,0,1,337.23,424Z"/><path d="M340.58,424a.2.2,0,0,1-.2.21.22.22,0,0,1-.21-.21.2.2,0,0,1,.2-.2A.2.2,0,0,1,340.58,424Z"/><path d="M343.93,424a.2.2,0,0,1-.2.21.22.22,0,0,1-.21-.21.2.2,0,0,1,.2-.2A.2.2,0,0,1,343.93,424Z"/><path d="M347.25,424.14a.19.19,0,0,1-.17.1.22.22,0,0,1-.21-.2.21.21,0,0,1,.14-.2C347.09,423.94,347.17,424,347.25,424.14Z"/><path d="M329,430.55a.19.19,0,0,1-.2.2.2.2,0,0,1-.2-.2.2.2,0,0,1,.2-.21A.21.21,0,0,1,329,430.55Z"/><path d="M332.32,430.55a.19.19,0,0,1-.2.2.2.2,0,0,1-.2-.2.2.2,0,0,1,.2-.21A.21.21,0,0,1,332.32,430.55Z"/><path d="M335.67,430.55a.19.19,0,0,1-.2.2.2.2,0,0,1-.2-.2.2.2,0,0,1,.2-.21A.21.21,0,0,1,335.67,430.55Z"/><path d="M339,430.55a.2.2,0,0,1-.4,0,.2.2,0,0,1,.2-.21A.21.21,0,0,1,339,430.55Z"/><path d="M342.37,430.55a.2.2,0,0,1-.4,0,.2.2,0,0,1,.2-.21A.21.21,0,0,1,342.37,430.55Z"/><path d="M345.72,430.55a.2.2,0,0,1-.4,0,.19.19,0,0,1,.19-.21A.21.21,0,0,1,345.72,430.55Z"/><path d="M349.07,430.55a.2.2,0,0,1-.4,0,.19.19,0,0,1,.19-.21A.21.21,0,0,1,349.07,430.55Z"/><circle cx="327.06" cy="428.34" r="0.2" transform="translate(-207.41 359.12) rotate(-45.26)"/><path d="M330.61,428.34a.2.2,0,0,1-.2.2.21.21,0,0,1-.21-.2.2.2,0,0,1,.2-.2A.21.21,0,0,1,330.61,428.34Z"/><path d="M334,428.34a.2.2,0,0,1-.2.2.21.21,0,0,1-.21-.2.2.2,0,0,1,.2-.2A.21.21,0,0,1,334,428.34Z"/><path d="M337.31,428.34a.2.2,0,0,1-.2.2.21.21,0,0,1-.21-.2.2.2,0,0,1,.2-.2A.21.21,0,0,1,337.31,428.34Z"/><path d="M340.66,428.34a.2.2,0,0,1-.2.2.21.21,0,0,1-.21-.2.2.2,0,0,1,.2-.2A.21.21,0,0,1,340.66,428.34Z"/><path d="M344,428.34a.2.2,0,0,1-.2.2.21.21,0,0,1-.21-.2.2.2,0,0,1,.2-.2A.21.21,0,0,1,344,428.34Z"/><path d="M347.36,428.34a.2.2,0,0,1-.2.2.21.21,0,0,1-.21-.2.2.2,0,0,1,.2-.2A.22.22,0,0,1,347.36,428.34Z"/><path d="M325.7,434.85a.2.2,0,0,1-.2.21.22.22,0,0,1-.21-.21.2.2,0,0,1,.2-.2A.2.2,0,0,1,325.7,434.85Z"/><path d="M329.05,434.85a.2.2,0,0,1-.2.21.22.22,0,0,1-.21-.21.2.2,0,0,1,.2-.2A.2.2,0,0,1,329.05,434.85Z"/><path d="M332.4,434.85a.2.2,0,0,1-.2.21.22.22,0,0,1-.21-.21.2.2,0,0,1,.2-.2A.2.2,0,0,1,332.4,434.85Z"/><path d="M335.75,434.85a.2.2,0,0,1-.2.21.22.22,0,0,1-.21-.21.2.2,0,0,1,.2-.2A.2.2,0,0,1,335.75,434.85Z"/><path d="M339.1,434.85a.2.2,0,0,1-.2.21.22.22,0,0,1-.21-.21.2.2,0,0,1,.2-.2A.21.21,0,0,1,339.1,434.85Z"/><path d="M342.45,434.85a.2.2,0,0,1-.2.21.22.22,0,0,1-.21-.21.2.2,0,0,1,.2-.2A.21.21,0,0,1,342.45,434.85Z"/><path d="M345.8,434.85a.2.2,0,0,1-.2.21.21.21,0,0,1-.21-.21.2.2,0,0,1,.2-.2A.21.21,0,0,1,345.8,434.85Z"/><path d="M349.15,434.85a.2.2,0,0,1-.2.21.21.21,0,0,1-.21-.21.2.2,0,0,1,.2-.2A.21.21,0,0,1,349.15,434.85Z"/><circle cx="327.13" cy="432.65" r="0.2" transform="translate(-210.44 360.45) rotate(-45.26)"/><path d="M330.69,432.65a.2.2,0,0,1-.2.2.21.21,0,1,1,0-.41A.22.22,0,0,1,330.69,432.65Z"/><path d="M334,432.65a.2.2,0,0,1-.2.2.21.21,0,0,1,0-.41A.22.22,0,0,1,334,432.65Z"/><path d="M337.38,432.65a.19.19,0,0,1-.19.2.21.21,0,1,1,.19-.2Z"/><path d="M340.73,432.65a.19.19,0,0,1-.19.2.21.21,0,1,1,.19-.2Z"/><path d="M344.08,432.65a.19.19,0,0,1-.19.2.21.21,0,1,1,.19-.2Z"/><path d="M347.43,432.65a.19.19,0,0,1-.2.2.2.2,0,0,1-.2-.2.2.2,0,1,1,.4,0Z"/><path d="M350.78,432.65a.19.19,0,0,1-.2.2.2.2,0,0,1-.2-.2.2.2,0,1,1,.4,0Z"/><path d="M325.78,439.16a.2.2,0,0,1-.2.2.21.21,0,0,1-.21-.2.2.2,0,0,1,.2-.2A.21.21,0,0,1,325.78,439.16Z"/><circle cx="328.92" cy="439.16" r="0.2" transform="translate(-214.54 363.65) rotate(-45.26)"/><circle cx="332.27" cy="439.16" r="0.2" transform="translate(-213.54 366.03) rotate(-45.26)"/><circle cx="335.62" cy="439.16" r="0.2" transform="translate(-212.55 368.41) rotate(-45.26)"/><circle cx="338.97" cy="439.16" r="0.2" transform="translate(-211.56 370.79) rotate(-45.26)"/><path d="M342.53,439.16a.2.2,0,0,1-.2.2.2.2,0,0,1-.21-.2.2.2,0,0,1,.2-.2A.22.22,0,0,1,342.53,439.16Z"/><circle cx="345.67" cy="439.16" r="0.2" transform="translate(-209.58 375.54) rotate(-45.26)"/><circle cx="349.02" cy="439.16" r="0.2" transform="translate(-208.59 377.92) rotate(-45.26)"/><circle cx="327.21" cy="436.95" r="0.2" transform="translate(-213.48 361.78) rotate(-45.26)"/><path d="M330.76,437a.19.19,0,0,1-.2.2.2.2,0,0,1-.2-.2.19.19,0,0,1,.2-.2A.2.2,0,0,1,330.76,437Z"/><path d="M334.11,437a.19.19,0,0,1-.2.2.2.2,0,0,1-.2-.2.19.19,0,0,1,.2-.2A.2.2,0,0,1,334.11,437Z"/><path d="M337.46,437a.2.2,0,0,1-.4,0,.19.19,0,0,1,.2-.2A.2.2,0,0,1,337.46,437Z"/><path d="M340.81,437a.2.2,0,0,1-.4,0,.19.19,0,0,1,.2-.2A.2.2,0,0,1,340.81,437Z"/><path d="M344.16,437a.2.2,0,0,1-.4,0,.19.19,0,0,1,.2-.2A.2.2,0,0,1,344.16,437Z"/><path d="M347.51,437a.2.2,0,0,1-.4,0,.19.19,0,0,1,.19-.2A.2.2,0,0,1,347.51,437Z"/><path d="M350.86,437a.2.2,0,0,1-.4,0,.19.19,0,0,1,.19-.2A.2.2,0,0,1,350.86,437Z"/><circle cx="327.29" cy="441.26" r="0.2" transform="translate(-216.51 363.11) rotate(-45.26)"/><path d="M330.84,441.26a.2.2,0,0,1-.2.2.22.22,0,0,1-.21-.2.2.2,0,0,1,.2-.21A.21.21,0,0,1,330.84,441.26Z"/><path d="M334.19,441.26a.2.2,0,0,1-.2.2.22.22,0,0,1-.21-.2.2.2,0,0,1,.2-.21A.21.21,0,0,1,334.19,441.26Z"/><path d="M337.54,441.26a.2.2,0,0,1-.2.2.22.22,0,0,1-.21-.2.2.2,0,0,1,.2-.21A.21.21,0,0,1,337.54,441.26Z"/><path d="M340.89,441.26a.2.2,0,0,1-.2.2.22.22,0,0,1-.21-.2.2.2,0,0,1,.2-.21A.21.21,0,0,1,340.89,441.26Z"/><path d="M344.24,441.26a.2.2,0,0,1-.2.2.21.21,0,0,1-.21-.2.2.2,0,0,1,.2-.21A.21.21,0,0,1,344.24,441.26Z"/><path d="M347.59,441.26a.2.2,0,0,1-.2.2.21.21,0,0,1-.21-.2.2.2,0,0,1,.2-.21A.21.21,0,0,1,347.59,441.26Z"/><path d="M350.69,441.06l-.11.06A.24.24,0,0,1,350.69,441.06Z"/></g><path class="cls-11" d="M334.06,424.07a1.59,1.59,0,0,1-1.6,1.63,1.65,1.65,0,0,1-1.65-1.63,1.59,1.59,0,0,1,1.59-1.63A1.66,1.66,0,0,1,334.06,424.07Z"/><path class="cls-11" d="M344.92,424.07a1.59,1.59,0,0,1-1.6,1.63,1.66,1.66,0,0,1-1.65-1.63,1.59,1.59,0,0,1,1.6-1.63A1.65,1.65,0,0,1,344.92,424.07Z"/><ellipse class="cls-4" cx="332.43" cy="424.07" rx="1.09" ry="1.11" transform="translate(-202.78 361.67) rotate(-45.26)"/><ellipse class="cls-4" cx="343.3" cy="424.07" rx="1.09" ry="1.11" transform="translate(-199.56 369.39) rotate(-45.26)"/><path class="cls-10" d="M343.3,424.31a.63.63,0,0,1-.63-.63,31.19,31.19,0,0,0-1-5.85c-.66-2.33-1.87-5.1-3.82-5.1-3.61,0-4.79,9.1-4.76,10.95a.62.62,0,0,1-.61.63.63.63,0,0,1-.63-.63c0-.12.53-12.2,6-12.2,5.28,0,6.12,12.08,6.12,12.2A.61.61,0,0,1,343.3,424.31Z"/><rect class="cls-7" x="238.69" y="226.49" width="156.11" height="156.11"/><ellipse class="cls-6" cx="316.75" cy="365.1" rx="64.2" ry="8.91"/><path class="cls-5" d="M355.72,364.56H277.78c-21.07,0-17.69-16.85-12.64-34.54s12.54-44.48,31.37-44.48H337c18.82,0,26.31,26.8,31.36,44.48S376.79,364.56,355.72,364.56Z"/><g class="cls-8"><path d="M294.3,286.39a.81.81,0,1,1-.8-.81A.8.8,0,0,1,294.3,286.39Z"/><path d="M307.59,286.39a.81.81,0,1,1-.81-.81A.8.8,0,0,1,307.59,286.39Z"/><path d="M320.87,286.39a.81.81,0,1,1-.8-.81A.8.8,0,0,1,320.87,286.39Z"/><path d="M334.16,286.39a.81.81,0,1,1-.8-.81A.8.8,0,0,1,334.16,286.39Z"/><path d="M281,303.46a.81.81,0,1,1-.81-.8A.81.81,0,0,1,281,303.46Z"/><circle cx="293.5" cy="303.46" r="0.81"/><path d="M307.59,303.46a.81.81,0,1,1-.81-.8A.81.81,0,0,1,307.59,303.46Z"/><path d="M320.87,303.46a.81.81,0,1,1-.8-.8A.8.8,0,0,1,320.87,303.46Z"/><path d="M333.77,303.46c0,.45-.25.81-.48.81s-.39-.36-.35-.81.25-.8.48-.8S333.81,303,333.77,303.46Z"/><path d="M347.45,303.46a.81.81,0,1,1-.81-.8A.81.81,0,0,1,347.45,303.46Z"/><path d="M287.66,294.71a.81.81,0,1,1-.8-.81A.8.8,0,0,1,287.66,294.71Z"/><path d="M301,294.71a.81.81,0,1,1-.81-.81A.8.8,0,0,1,301,294.71Z"/><path d="M314.23,294.71a.81.81,0,1,1-.8-.81A.8.8,0,0,1,314.23,294.71Z"/><path d="M327.52,294.71a.81.81,0,1,1-.81-.81A.8.8,0,0,1,327.52,294.71Z"/><path d="M340.8,294.71a.81.81,0,1,1-.8-.81A.8.8,0,0,1,340.8,294.71Z"/><path d="M354,295.11a.77.77,0,0,1-.69.4.8.8,0,0,1-.8-.8.81.81,0,0,1,.56-.77C353.36,294.32,353.66,294.7,354,295.11Z"/><path d="M281,320.54a.81.81,0,1,1-.81-.8A.81.81,0,0,1,281,320.54Z"/><circle cx="293.5" cy="320.54" r="0.81"/><path d="M307.59,320.54a.81.81,0,1,1-.81-.8A.81.81,0,0,1,307.59,320.54Z"/><path d="M320.87,320.54a.81.81,0,1,1-.8-.8A.8.8,0,0,1,320.87,320.54Z"/><path d="M334.16,320.54a.81.81,0,1,1-.8-.8A.8.8,0,0,1,334.16,320.54Z"/><path d="M347.45,320.54a.81.81,0,1,1-.81-.8A.81.81,0,0,1,347.45,320.54Z"/><circle cx="359.93" cy="320.54" r="0.81"/><path d="M274.37,311.78a.81.81,0,1,1-.8-.8A.8.8,0,0,1,274.37,311.78Z"/><path d="M287.66,311.78a.81.81,0,1,1-.8-.8A.8.8,0,0,1,287.66,311.78Z"/><path d="M301,311.78a.81.81,0,1,1-.81-.8A.81.81,0,0,1,301,311.78Z"/><path d="M314.23,311.78a.81.81,0,1,1-.8-.8A.8.8,0,0,1,314.23,311.78Z"/><path d="M327.52,311.78a.81.81,0,1,1-.81-.8A.81.81,0,0,1,327.52,311.78Z"/><path d="M340.8,311.78a.81.81,0,1,1-.8-.8A.8.8,0,0,1,340.8,311.78Z"/><path d="M354.09,311.78a.81.81,0,1,1-.81-.8A.81.81,0,0,1,354.09,311.78Z"/><path d="M267.73,337.62a.81.81,0,1,1-.8-.81A.8.8,0,0,1,267.73,337.62Z"/><path d="M281,337.62a.81.81,0,1,1-.81-.81A.8.8,0,0,1,281,337.62Z"/><circle cx="293.5" cy="337.62" r="0.81"/><path d="M307.59,337.62a.81.81,0,1,1-.81-.81A.8.8,0,0,1,307.59,337.62Z"/><path d="M320.87,337.62a.81.81,0,1,1-.8-.81A.8.8,0,0,1,320.87,337.62Z"/><path d="M334.16,337.62a.81.81,0,1,1-.8-.81A.8.8,0,0,1,334.16,337.62Z"/><path d="M347.45,337.62a.81.81,0,1,1-.81-.81A.8.8,0,0,1,347.45,337.62Z"/><circle cx="359.93" cy="337.62" r="0.81"/><path d="M274.37,328.86a.81.81,0,1,1-.8-.8A.8.8,0,0,1,274.37,328.86Z"/><path d="M287.66,328.86a.81.81,0,1,1-.8-.8A.8.8,0,0,1,287.66,328.86Z"/><path d="M301,328.86a.81.81,0,1,1-.81-.8A.81.81,0,0,1,301,328.86Z"/><path d="M314.23,328.86a.81.81,0,1,1-.8-.8A.8.8,0,0,1,314.23,328.86Z"/><path d="M327.52,328.86a.81.81,0,1,1-.81-.8A.81.81,0,0,1,327.52,328.86Z"/><path d="M340.8,328.86a.81.81,0,1,1-.8-.8A.8.8,0,0,1,340.8,328.86Z"/><path d="M354.09,328.86a.81.81,0,1,1-.81-.8A.81.81,0,0,1,354.09,328.86Z"/><path d="M367.37,328.86a.81.81,0,1,1-.8-.8A.8.8,0,0,1,367.37,328.86Z"/><path d="M267.73,354.69a.81.81,0,1,1-.8-.8A.8.8,0,0,1,267.73,354.69Z"/><path d="M281,354.69a.81.81,0,1,1-.81-.8A.81.81,0,0,1,281,354.69Z"/><circle cx="293.5" cy="354.69" r="0.81"/><path d="M307.59,354.69a.81.81,0,1,1-.81-.8A.81.81,0,0,1,307.59,354.69Z"/><path d="M320.87,354.69a.81.81,0,1,1-.8-.8A.8.8,0,0,1,320.87,354.69Z"/><path d="M334.16,354.69a.81.81,0,1,1-.8-.8A.8.8,0,0,1,334.16,354.69Z"/><path d="M347.45,354.69a.81.81,0,1,1-.81-.8A.81.81,0,0,1,347.45,354.69Z"/><circle cx="359.93" cy="354.69" r="0.81"/><path d="M274.37,345.94a.81.81,0,1,1-.8-.81A.8.8,0,0,1,274.37,345.94Z"/><path d="M287.66,345.94a.81.81,0,1,1-.8-.81A.8.8,0,0,1,287.66,345.94Z"/><path d="M301,345.94a.81.81,0,1,1-.81-.81A.8.8,0,0,1,301,345.94Z"/><path d="M314.23,345.94a.81.81,0,1,1-.8-.81A.8.8,0,0,1,314.23,345.94Z"/><path d="M327.52,345.94a.81.81,0,1,1-.81-.81A.8.8,0,0,1,327.52,345.94Z"/><path d="M340.8,345.94a.81.81,0,1,1-.8-.81A.8.8,0,0,1,340.8,345.94Z"/><path d="M354.09,345.94a.81.81,0,1,1-.81-.81A.8.8,0,0,1,354.09,345.94Z"/><path d="M367.37,345.94a.81.81,0,1,1-.8-.81A.8.8,0,0,1,367.37,345.94Z"/><circle cx="273.57" cy="363.01" r="0.81"/><path d="M287.66,363a.81.81,0,1,1-.8-.8A.8.8,0,0,1,287.66,363Z"/><path d="M301,363a.81.81,0,1,1-.81-.8A.81.81,0,0,1,301,363Z"/><path d="M314.23,363a.81.81,0,1,1-.8-.8A.8.8,0,0,1,314.23,363Z"/><circle cx="326.71" cy="363.01" r="0.81"/><circle cx="340" cy="363.01" r="0.81"/><path d="M354.09,363a.81.81,0,1,1-.81-.8A.81.81,0,0,1,354.09,363Z"/><path d="M366.41,362.22a2.39,2.39,0,0,1-.43.25A.85.85,0,0,1,366.41,362.22Z"/></g><circle class="cls-11" cx="295.21" cy="294.84" r="6.46"/><circle class="cls-11" cx="338.29" cy="294.84" r="6.46"/><circle class="cls-4" cx="295.21" cy="294.84" r="4.38"/><circle class="cls-4" cx="338.29" cy="294.84" r="4.38"/><path class="cls-5" d="M338.29,295.79a2.47,2.47,0,0,1-2.47-2.47,123.17,123.17,0,0,0-3.68-23.22c-2.48-9.24-7.06-20.25-14.81-20.25-14.31,0-19.66,36.1-19.66,43.47a2.47,2.47,0,1,1-4.93,0c0-.48,3-48.39,24.59-48.39,20.94,0,23.42,47.91,23.42,48.39A2.47,2.47,0,0,1,338.29,295.79Z"/><polygon class="cls-12" points="221.77 304.32 215.47 298.41 221.77 292.51 222.75 293.55 217.56 298.41 222.75 303.28 221.77 304.32"/><path class="cls-12" d="M220.49,308.94A10.53,10.53,0,1,1,231,298.41,10.54,10.54,0,0,1,220.49,308.94Zm0-19.15a8.62,8.62,0,1,0,8.63,8.62A8.63,8.63,0,0,0,220.49,289.79Z"/><polygon class="cls-12" points="408.95 304.32 407.97 303.28 413.16 298.41 407.97 293.55 408.95 292.51 415.25 298.41 408.95 304.32"/><path class="cls-12" d="M410.23,308.94a10.53,10.53,0,1,1,10.52-10.53A10.54,10.54,0,0,1,410.23,308.94Zm0-19.15a8.62,8.62,0,1,0,8.62,8.62A8.63,8.63,0,0,0,410.23,289.79Z"/><rect class="cls-6" x="212.24" y="142.82" width="28.56" height="4.7"/><rect class="cls-6" x="212.24" y="152.22" width="28.56" height="4.7"/><rect class="cls-6" x="212.24" y="161.61" width="28.56" height="4.7"/><rect class="cls-6" x="333.58" y="150.83" width="3.93" height="15.91" transform="translate(-27.79 234.85) rotate(-37.15)"/><path class="cls-6" d="M335.75,145.88a8.56,8.56,0,1,1-12-1.58A8.57,8.57,0,0,1,335.75,145.88Z"/><path class="cls-13" d="M333,148a5.12,5.12,0,1,1-7.18-.95A5.13,5.13,0,0,1,333,148Z"/><path class="cls-6" d="M379,155.71c-3.08,5.63-10.45,10.6-10.45,10.6s-7.37-5-10.43-10.6c-3.47-6.37-1.56-12.89,3.43-12.89,5.56,0,7,6.93,7,6.93s1.46-6.93,7-6.93C380.54,142.82,382.48,149.34,379,155.71Z"/><path class="cls-6" d="M412.1,161.6H394.85l-4.33-17.47h-1.73v-1.48h2.88l.86,3.45,23.84,0ZM396,160.12h15l3.46-12.52-21.53,0Z"/><polygon class="cls-6" points="409.31 164.41 408.11 161.58 398.33 161.58 397.37 164.36 395.98 163.88 397.28 160.1 409.1 160.1 410.67 163.83 409.31 164.41"/><rect class="cls-6" x="392.8" y="149.53" width="21.53" height="1.48"/><rect class="cls-6" x="402.96" y="144.2" width="1.48" height="19.48" transform="translate(247.97 556.94) rotate(-89.75)"/><rect class="cls-6" x="394.76" y="156.95" width="17.65" height="1.48"/><rect class="cls-6" x="402.62" y="146.93" width="1.48" height="13.93"/><rect class="cls-6" x="399.61" y="153.15" width="13.98" height="1.48" transform="translate(220.94 547) rotate(-85.45)"/><rect class="cls-6" x="403" y="153.15" width="14.16" height="1.48" transform="translate(184.57 529.38) rotate(-79.58)"/><rect class="cls-6" x="399.44" y="146.9" width="1.48" height="13.98" transform="translate(-11.02 32.46) rotate(-4.58)"/><rect class="cls-6" x="395.95" y="146.81" width="1.48" height="14.16" transform="translate(-21.29 74.29) rotate(-10.42)"/><path class="cls-6" d="M410,166.48a2.36,2.36,0,1,1,2.36-2.36A2.36,2.36,0,0,1,410,166.48Zm0-3.24a.88.88,0,1,0,.88.88A.88.88,0,0,0,410,163.24Z"/><path class="cls-6" d="M396.72,166.48a2.36,2.36,0,1,1,2.36-2.36A2.36,2.36,0,0,1,396.72,166.48Zm0-3.24a.88.88,0,1,0,0,1.76.88.88,0,0,0,0-1.76Z"/><circle class="cls-5" cx="415.4" cy="142.3" r="6.31"/><path class="cls-14" d="M416.28,138.69v7a.66.66,0,0,1-.66.65.64.64,0,0,1-.65-.65v-5.82l-.48.28a.57.57,0,0,1-.33.09.66.66,0,0,1-.34-1.22l1.45-.86.05,0s0,0,.06,0h.38a.12.12,0,0,1,.07,0h.05s0,0,.07,0l.05,0,0,0s0,0,0,.05l0,0,0,.05v0l0,0a.14.14,0,0,1,0,.06s0,.05,0,.06,0,.05,0,.06a.11.11,0,0,0,0,.08Z"/><path class="cls-15" d="M458,343.94,587,304a9.11,9.11,0,0,0,6-11.4l-22.49-72.7a9.1,9.1,0,0,0-11.4-6l-129,39.9a9.1,9.1,0,0,0-6,11.4l22.48,72.7A9.12,9.12,0,0,0,458,343.94Z"/><rect class="cls-16" x="426.99" y="253.61" width="150.32" height="12.01" transform="translate(1058.6 359.26) rotate(162.81)"/><path class="cls-17" d="M531.57,296.09l50.11-15.5a1.21,1.21,0,0,0,.8-1.51l-.11-.35a1.2,1.2,0,0,0-1.51-.79l-50.11,15.5A1.2,1.2,0,0,0,530,295l.1.34A1.21,1.21,0,0,0,531.57,296.09Z"/><path class="cls-17" d="M542.36,299.9l41.34-12.78a1.21,1.21,0,0,0,.8-1.52l-.11-.34a1.21,1.21,0,0,0-1.51-.8l-41.34,12.79a1.21,1.21,0,0,0-.8,1.51l.1.35A1.22,1.22,0,0,0,542.36,299.9Z"/><path class="cls-17" d="M535.6,309.14l50.12-15.5a1.2,1.2,0,0,0,.8-1.51l-.11-.34a1.2,1.2,0,0,0-1.51-.8l-50.12,15.5A1.22,1.22,0,0,0,534,308l.1.34A1.21,1.21,0,0,0,535.6,309.14Z"/><rect class="cls-17" x="458.01" y="312.12" width="27.12" height="16.44" rx="5.31" transform="translate(-73.6 153.64) rotate(-17.19)"/><path class="cls-18" d="M510.68,205.08l-10.23,82.08a8.38,8.38,0,0,1-9.34,7.28L360.93,278.21a8.38,8.38,0,0,1-7.27-9.35l10.24-82.08a7.79,7.79,0,0,1,8.69-6.77l131.33,16.38A7.79,7.79,0,0,1,510.68,205.08Z"/><path class="cls-19" d="M480.73,273a7.7,7.7,0,1,1-6.69-8.6A7.7,7.7,0,0,1,480.73,273Z"/><path class="cls-20" d="M490.14,274.13a7.7,7.7,0,1,1-6.69-8.59A7.7,7.7,0,0,1,490.14,274.13Z"/><rect class="cls-20" x="374.14" y="196.33" width="27.77" height="19.19" rx="1.71" transform="translate(28.46 -46.43) rotate(7.11)"/><path class="cls-14" d="M491.62,219.78l-12.47-1.56a5.26,5.26,0,0,1-4.57-5.87h0a5.26,5.26,0,0,1,5.87-4.57l12.47,1.55a5.27,5.27,0,0,1,4.57,5.88h0A5.26,5.26,0,0,1,491.62,219.78Z"/><path class="cls-21" d="M369.89,231l-1.22.52a.21.21,0,0,1-.14,0,.26.26,0,0,1-.22-.17.26.26,0,0,1,.15-.36l1.66-.75a.29.29,0,0,1,.36.15.31.31,0,0,1,0,.21l-.92,7.35a.26.26,0,0,1-.3.24.28.28,0,0,1-.24-.31Z"/><path class="cls-21" d="M371.56,238l4.16-2.9a2.06,2.06,0,0,0,.51-2.88,2.11,2.11,0,0,0-2.9-.51l-.43.3a.26.26,0,0,1-.39-.06.26.26,0,0,1,.06-.38l.44-.32a2.69,2.69,0,0,1,1.85-.45,2.64,2.64,0,0,1,2.28,2.93,2.64,2.64,0,0,1-1.1,1.83L372.48,238l3.78.47a.28.28,0,0,1,.24.32.28.28,0,0,1-.31.24l-4.45-.55h0a.26.26,0,0,1-.2-.11A.3.3,0,0,1,371.56,238Z"/><path class="cls-21" d="M384,232.41l-2.33,1.86a2.74,2.74,0,0,1-1.23,5.3,2.64,2.64,0,0,1-1.81-1,.28.28,0,0,1,.05-.4.29.29,0,0,1,.4.05,2.14,2.14,0,0,0,1.43.81,2.19,2.19,0,0,0,1.6-.43,2.12,2.12,0,0,0,.81-1.44,2,2,0,0,0-.44-1.58,2.08,2.08,0,0,0-1.42-.82.31.31,0,0,1-.22-.14h0a.3.3,0,0,1,.05-.42l2.24-1.79-3.06-.38a.29.29,0,1,1,.07-.57l3.74.46a.28.28,0,0,1,.25.32.46.46,0,0,1-.12.21Z"/><path class="cls-21" d="M390,239.09l-4.33-.54h0a.27.27,0,0,1-.17-.08.26.26,0,0,1,0-.39l5.34-5.18h0a.28.28,0,0,1,.4,0,.41.41,0,0,1,.07.15.43.43,0,0,0,0,0v0l-.68,5.48.53.07a.3.3,0,0,1,.26.31.28.28,0,0,1-.32.24l-.54-.07-.17,1.37a.28.28,0,0,1-.32.24.28.28,0,0,1-.24-.31Zm.07-.55.58-4.68-4.36,4.21Z"/><path class="cls-21" d="M399.9,241.2a.28.28,0,0,1,.05-.4.29.29,0,0,1,.41,0,2.17,2.17,0,0,0,1.43.8,2.16,2.16,0,0,0,2-3.46,2.16,2.16,0,0,0-1.43-.81,2.11,2.11,0,0,0-1.59.44.28.28,0,0,1-.4,0,.17.17,0,0,1-.06-.1h0a0,0,0,0,1,0,0v-.1a.08.08,0,0,0,0-.05l.79-3.18a.25.25,0,0,1,.14-.19.26.26,0,0,1,.19,0l3.73.46a.28.28,0,0,1,.25.32.29.29,0,0,1-.32.25l-3.49-.43L401,237a2.7,2.7,0,0,1,1.4-.2,2.74,2.74,0,0,1,1.34,4.86,2.78,2.78,0,0,1-2,.55A2.69,2.69,0,0,1,399.9,241.2Z"/><path class="cls-21" d="M408.19,236.69a3.27,3.27,0,0,1,3-1.39.28.28,0,1,1-.05.56,2.73,2.73,0,0,0-2.51,1.16,5,5,0,0,0-.77,1.53,2.62,2.62,0,0,1,2.08-.66,2.66,2.66,0,1,1-3,2.4,3.12,3.12,0,0,1,0-.52A6.53,6.53,0,0,1,408.19,236.69Zm-.65,3.63a.38.38,0,0,0,0,.15s0,.06,0,.08a2.2,2.2,0,1,0,0-.28Z"/><path class="cls-21" d="M414.9,243.47l3.83-6.64-3.86-.48a.28.28,0,0,1,.07-.55l4.23.53a.27.27,0,0,1,.17,0,.3.3,0,0,1,.12.19.37.37,0,0,1,0,.09.26.26,0,0,1-.07.15l-4,7a.31.31,0,0,1-.27.14.21.21,0,0,1-.11,0A.31.31,0,0,1,414.9,243.47Z"/><path class="cls-21" d="M423.75,236.85a1.67,1.67,0,0,1,.6,3.13,2.61,2.61,0,1,1-3.87,2,2.63,2.63,0,0,1,1.9-2.2,1.71,1.71,0,0,1-.5-1.43A1.68,1.68,0,0,1,423.75,236.85Zm-.93,7.45A2.06,2.06,0,1,0,421,242,2.05,2.05,0,0,0,422.82,244.3Zm.58-4.66a1.16,1.16,0,0,0,1.26-1,1.12,1.12,0,0,0-1-1.25,1.11,1.11,0,0,0-1.25,1A1.14,1.14,0,0,0,423.4,239.64Z"/><path class="cls-21" d="M438,238.62a2.67,2.67,0,0,1,2.34,2.66.15.15,0,0,1,0,.06q0,.33-.06.69a6.7,6.7,0,0,1-1.16,3.09,3.35,3.35,0,0,1-3,1.39h0a.27.27,0,0,1-.25-.3.3.3,0,0,1,.31-.27,2.69,2.69,0,0,0,2.51-1.16,4.74,4.74,0,0,0,.77-1.52,2.61,2.61,0,0,1-2.09.63,2.65,2.65,0,1,1,.65-5.27Zm1.77,2.89a2.1,2.1,0,1,0-2.35,1.82A2.1,2.1,0,0,0,439.72,241.51Z"/><path class="cls-21" d="M442.13,243.2a5.06,5.06,0,0,1,1.12-2.7,2.28,2.28,0,0,1,4,.5,5.23,5.23,0,0,1,.43,2.89,5.11,5.11,0,0,1-1.12,2.69,2.27,2.27,0,0,1-4-.49A5.13,5.13,0,0,1,442.13,243.2Zm.56.07a4.56,4.56,0,0,0,.37,2.57,1.71,1.71,0,0,0,3.06.38,4.63,4.63,0,0,0,1-2.39,4.55,4.55,0,0,0-.38-2.57,1.71,1.71,0,0,0-3.06-.38A4.62,4.62,0,0,0,442.69,243.27Z"/><path class="cls-21" d="M451.76,241.17l-1.21.52a.25.25,0,0,1-.15,0,.28.28,0,0,1-.22-.17.27.27,0,0,1,.15-.36l1.66-.75a.29.29,0,0,1,.36.15.31.31,0,0,1,0,.21l-.91,7.35a.27.27,0,0,1-.31.24.28.28,0,0,1-.24-.31Z"/><path class="cls-21" d="M453.44,248.17l4.15-2.9a2.09,2.09,0,0,0,.88-1.44,2.08,2.08,0,0,0-1.8-2.3,2,2,0,0,0-1.46.35l-.44.3a.27.27,0,0,1-.32-.44l.43-.32a2.72,2.72,0,0,1,1.86-.45,2.56,2.56,0,0,1,1.81,1.09,2.59,2.59,0,0,1,.46,1.84,2.63,2.63,0,0,1-1.09,1.83l-3.56,2.49,3.78.47a.28.28,0,0,1,.24.32.28.28,0,0,1-.31.24l-4.46-.56h0a.26.26,0,0,1-.2-.11A.31.31,0,0,1,453.44,248.17Z"/><path class="cls-21" d="M472.73,243.47l-2.33,1.87a2.65,2.65,0,0,1,1.28.9,2.76,2.76,0,0,1,.55,2,2.69,2.69,0,0,1-1,1.81,2.72,2.72,0,0,1-2,.56,2.66,2.66,0,0,1-1.81-1,.29.29,0,0,1,.45-.35,2.19,2.19,0,0,0,3,.37,2.1,2.1,0,0,0,.81-1.44,2.06,2.06,0,0,0-.44-1.58,2.11,2.11,0,0,0-1.42-.82.28.28,0,0,1-.22-.14h0a.29.29,0,0,1,.05-.41l2.24-1.8-3.06-.38a.29.29,0,1,1,.07-.57l3.74.47a.28.28,0,0,1,.25.32.26.26,0,0,1-.05.12A.27.27,0,0,1,472.73,243.47Z"/><path class="cls-21" d="M478.71,250.15l-4.33-.54h0a.27.27,0,0,1-.17-.08.26.26,0,0,1,0-.39l5.34-5.18h0a.28.28,0,0,1,.4,0,.46.46,0,0,1,.07.14.2.2,0,0,0,0,0v0l-.68,5.48.53.06a.3.3,0,0,1,.26.31.28.28,0,0,1-.32.24l-.54-.07-.17,1.37a.28.28,0,0,1-.32.24.28.28,0,0,1-.24-.3Zm.07-.54.58-4.69L475,249.13Z"/><path class="cls-21" d="M481.77,251.41a.28.28,0,0,1,.05-.4.29.29,0,0,1,.41.05,2.19,2.19,0,0,0,1.43.8,2.13,2.13,0,0,0,1.59-.44,2.1,2.1,0,0,0,.81-1.43,2.14,2.14,0,0,0-3.45-2,.28.28,0,0,1-.4-.05.21.21,0,0,1-.06-.1h0s0,0,0,0a.2.2,0,0,1,0-.15l.79-3.18a.23.23,0,0,1,.14-.19.25.25,0,0,1,.19,0l3.72.46a.28.28,0,0,1,.25.32.28.28,0,0,1-.32.25l-3.48-.43-.59,2.34a2.73,2.73,0,0,1,2.74,4.66,2.77,2.77,0,0,1-2,.55A2.71,2.71,0,0,1,481.77,251.41Z"/><path class="cls-21" d="M490.06,246.9a3.29,3.29,0,0,1,3-1.39.28.28,0,0,1,.25.3.3.3,0,0,1-.31.26,2.75,2.75,0,0,0-2.51,1.16,5.36,5.36,0,0,0-.77,1.53,2.64,2.64,0,0,1,2.09-.66,2.66,2.66,0,1,1-3,2.4,4.73,4.73,0,0,1,0-.52A6.75,6.75,0,0,1,490.06,246.9Zm-.65,3.63a.76.76,0,0,0,0,.15s0,.06,0,.08a2.12,2.12,0,1,0,0-.28Z"/><rect class="cls-22" x="367.81" y="256.31" width="70.25" height="3.45" transform="translate(35.03 -47.88) rotate(7.11)"/><rect class="cls-22" x="366.94" y="262.65" width="49.73" height="3.45" transform="translate(35.73 -46.45) rotate(7.11)"/><rect class="cls-22" x="367.43" y="237.77" width="130.06" height="8.51" transform="translate(34.04 -52.69) rotate(7.26)"/></svg>