<?xml version="1.0" encoding="utf-8"?>
<!-- Generator: Adobe Illustrator 25.2.0, SVG Export Plug-In . SVG Version: 6.00 Build 0)  -->
<svg version="1.1" id="Layer_1" xmlns="http://www.w3.org/2000/svg" xmlns:xlink="http://www.w3.org/1999/xlink" x="0px" y="0px"
	 viewBox="0 0 2610.9 1554.1" style="enable-background:new 0 0 2610.9 1554.1;" xml:space="preserve">
<style type="text/css">
	.st0{fill:#8D9DAA;}
	.st1{fill:#EBF0F2;}
	.st2{fill:#DFE7EA;}
	.st3{fill:#DDE6ED;stroke:#DDE6ED;stroke-width:30;stroke-miterlimit:10;}
	.st4{fill:#8592D1;}
	.st5{fill:#EDF2F4;}
	.st6{fill:#4F3569;}
	.st7{fill:#FFFFFF;stroke:#CCCCCC;stroke-miterlimit:10;}
	.st8{fill:#E3D4EB;}
	.st9{fill:#FFAF3D;}
	.st10{fill:#FFFFFF;}
	.st11{fill:#EAEAD6;}
	.st12{fill:#E29B47;}
	.st13{fill:#A3BFCE;}
	.st14{fill:#678191;}
	.st15{fill:#8D9DAA;fill-opacity:0.2;}
	.st16{fill:#BDD2E0;}
	.st17{fill:#ECEDDD;stroke:#FFFEE6;stroke-miterlimit:10;}
	.st18{fill:#F9C85D;}
	.st19{fill:#FFC1A7;}
	.st20{fill:#EAAD96;}
	.st21{fill:#383838;}
	.st22{fill:#A28EAF;}
	.st23{fill:#81708E;}
	.st24{fill:#2C1D3B;}
	.st25{fill:#342145;}
	.st26{fill:#B3A3C1;}
	.st27{fill:#C6C0CE;}
	.st28{fill:#252228;}
	.st29{fill:#5C5263;}
	.st30{fill:#48434C;}
</style>
<rect x="768.5" y="1319.7" class="st0" width="201.9" height="117.3"/>
<circle class="st0" cx="869.1" cy="1237.1" r="151.5"/>
<path class="st0" d="M2122.9,1214.1l-345.7-444.1c-0.3-0.4-0.8-0.7-1.3-0.7l0,0c-0.5,0-1,0.2-1.3,0.7l-342.4,444
	c-3.1,4-7.8,6.3-12.9,6.3h-63.5c-13.6,0-21.2-15.6-12.8-26.3l369.4-473.5c4.6-5.9,4.6-14.1,0-20l-353-456.2
	c-8.3-10.7-0.7-26.2,12.9-26.2h63.7c5,0,9.8,2.3,12.8,6.3l327.5,421.1c0.3,0.4,0.8,0.7,1.3,0.7h0c0.5,0,1-0.2,1.3-0.6L2113,224.4
	c3.1-3.9,7.8-6.2,12.8-6.2h62.9c13.7,0,21.3,15.8,12.7,26.5L1838,694.9c-4.8,5.9-4.8,14.3-0.1,20.3l375.7,478.9
	c8.4,10.7,0.8,26.3-12.8,26.3h-65.1C2130.7,1220.4,2126,1218.1,2122.9,1214.1z"/>
<path class="st1" d="M53.7,1462h2368.6c18.6,0,33.8,15.1,33.8,33.8v24.6c0,18.6-15.1,33.8-33.8,33.8H53.7
	c-18.6,0-33.8-15.1-33.8-33.8v-24.6C20,1477.1,35.1,1462,53.7,1462z"/>
<ellipse class="st2" cx="1655.3" cy="1478.1" rx="742.7" ry="18.4"/>
<ellipse class="st2" cx="246.4" cy="1489.7" rx="226.5" ry="24.9"/>
<path class="st3" d="M2077.3,1215.3l-345.7-444.1c-0.3-0.4-0.8-0.7-1.3-0.7l0,0c-0.5,0-1,0.2-1.3,0.7l-342.4,444
	c-3.1,4-7.8,6.3-12.9,6.3h-63.5c-13.6,0-21.2-15.6-12.8-26.3l369.4-473.5c4.6-5.9,4.6-14.1,0-20l-353-456.2
	c-8.3-10.7-0.7-26.2,12.9-26.2h63.7c5,0,9.8,2.3,12.8,6.3l327.5,421.1c0.3,0.4,0.8,0.7,1.3,0.7h0c0.5,0,1-0.2,1.3-0.6l334.1-421.3
	c3.1-3.9,7.8-6.2,12.8-6.2h62.9c13.7,0,21.3,15.8,12.7,26.5l-363.2,450.2c-4.8,5.9-4.8,14.3-0.1,20.3l375.7,478.9
	c8.4,10.7,0.8,26.3-12.8,26.3h-65.1C2085.1,1221.6,2080.4,1219.3,2077.3,1215.3z"/>
<rect x="794.5" y="1045.5" class="st4" width="242.7" height="103.8"/>
<g id="BOOKS">
	<ellipse class="st5" cx="1951.8" cy="1236.8" rx="659.1" ry="26.3"/>
	<path class="st6" d="M2276.8,1456.1h-984.5v-18.5l126.7-100.3l-126.7-104.6v-19h984.5c66.9,0,121.2,54.3,121.2,121.2l0,0
		C2398,1401.9,2343.7,1456.1,2276.8,1456.1z"/>
	<path class="st7" d="M2276.8,1437.1c56.5-0.1,102.2-45.9,102.1-102.4c0-1.6,0-3.3-0.1-4.9c-2.7-54.9-50.1-97-105-97h-981.5
		c38.8,57.5,41.5,132.1,6.9,192.3l-6.9,12.1L2276.8,1437.1z"/>
	<rect x="1352.4" y="1282.4" class="st8" width="577.4" height="7.4"/>
	<rect x="1352.4" y="1383.8" class="st8" width="422.4" height="7.4"/>
	<rect x="1336.6" y="1333.4" class="st8" width="827.9" height="7.2"/>
	<path class="st9" d="M1839.9,1207.7h669.2v-14.8l-86.1-80.3l86.1-83.7v-15.2h-669.2c-45.5,0-82.4,43.4-82.4,97l0,0
		C1757.6,1164.2,1794.4,1207.7,1839.9,1207.7z"/>
	<path class="st10" d="M1839.9,1192.4c-39.5,0-71.3-39-69.4-85.9c1.8-44,34-77.7,71.4-77.7h667.2c-26.4,46.1-28.2,105.8-4.7,154
		l4.7,9.7L1839.9,1192.4z"/>
	<rect x="2181.1" y="1068.5" class="st11" width="287.1" height="5.9"/>
	<rect x="2181.1" y="1149.7" class="st11" width="287.1" height="5.9"/>
	<rect x="1916.2" y="1109.4" class="st11" width="562.8" height="5.7"/>
	<polygon class="st8" points="2070.4,1311.1 2030.2,1372 1991.4,1311.1 1991.4,1077.7 2060.6,1069.7 	"/>
	<polygon class="st12" points="2059.8,1282.5 2019.6,1338.3 1980.8,1282.5 1980.8,1068.5 2059.8,1068.5 	"/>
</g>
<g>
	<polygon class="st13" points="843.3,731.5 749.2,742.8 773.3,806.6 841.9,798.6 	"/>
	<polygon class="st13" points="721.8,745.9 679.1,750.9 696.5,815.6 727.7,812.1 	"/>
	<polygon class="st13" points="913.5,723.1 870.8,728.1 888.2,792.7 919.4,789.3 	"/>
	<path class="st13" d="M736.5,262.7l-51.9,6.6l-7.2-55.5c-1.7-13.4,7.6-25.7,20.7-27.3h0c12.8-1.6,24.6,7,27.1,19.8L736.5,262.7z"/>
	<path class="st13" d="M731.9,256.9l-44.7,4.8c-11.3,1.2-19.4,11.7-18,23.2l51.9,411.8l130.9-14.2l-98.5-410.1
		C751.2,262.4,742,255.8,731.9,256.9z"/>
	<path class="st14" d="M910.7,723.2l-231.5,28.1c-12.2,1.5-23.5-6.7-26-18.8l-0.3-1.6c-2.7-13.5,6.6-26.4,20.3-28.1l231.5-28.4
		c12.4-1.5,23.8,6.8,26.1,19.1l0.3,1.9C933.5,708.8,924.2,721.5,910.7,723.2z"/>
</g>
<rect x="726.9" y="1000.8" class="st4" width="310.3" height="44.7"/>
<path class="st0" d="M560,225.4c11.6,0,21.1,9.4,21.1,21.1v571.8c0,260.1,157.6,327.2,306.1,327.2c175.6,0,306.1-68.5,306.1-327.2
	V246.4c0-11.6,9.4-21.1,21.1-21.1h40.4c11.6,0,21.1,9.4,21.1,21.1v567.6c0,306.2-174.1,401.3-391.7,401.3
	c-207.1,0-387.2-104.9-387.2-388.7V246.4c0-11.6,9.4-21.1,21.1-21.1H560z"/>
<ellipse class="st15" cx="860.6" cy="1475.3" rx="345.9" ry="49.7"/>
<path class="st3" d="M588.1,1425.5H1138c11.2,0,20.4,9.1,20.4,20.4l0,0c0,11.2-9.1,20.4-20.4,20.4H588.1c-11.2,0-20.4-9.1-20.4-20.4
	l0,0C567.7,1434.6,576.8,1425.5,588.1,1425.5z"/>
<rect x="735.1" y="1348.9" class="st3" width="201.9" height="117.3"/>
<circle class="st3" cx="832.7" cy="1234.1" r="151.5"/>
<path class="st3" d="M565,213.4c21.2,0,38.3,17.2,38.3,38.3v554.5c0,260.1,93.8,223.4,242.4,223.4c175.6,0,239.7,35.3,239.7-223.4
	V251.7c0-21.2,17.2-38.3,38.3-38.3h72.3c21.2,0,38.3,17.2,38.3,38.3v550.3c0,306.2-174.1,401.3-391.7,401.3
	c-207.1,0-387.2-104.9-387.2-388.7V251.7c0-21.2,17.2-38.3,38.3-38.3H565z"/>
<rect x="681.6" y="1043.2" class="st3" width="310.3" height="101.4"/>
<path class="st8" d="M1436.8,622.9c0.5-0.8,1.3-1.5,2.2-1.9c-3.5-0.1-5,3.2-3,6.1c-0.3-1-0.2-2.1,0.2-3c1.5,0.3,2.4,1.7,2.2,3.2
	c0.8-1.6,0.1-3.5-1.5-4.2C1436.9,622.9,1436.9,622.9,1436.8,622.9z"/>
<g>
	<path class="st16" d="M926.5,1106.2c6.7,11.9,2.6,26.9-9.2,33.7c-1.9,1.1-15.1,5.8-17.1,6.3l-9.8,46.8c1.5,1.4,7.3,12.4,8.4,14.3
		c6.7,11.9,2.6,26.9-9.2,33.7c-11.8,6.7-28.7,1.9-35.4-9.9c-1.1-1.9-0.3-17.2-0.7-19.2l-35.6-7.1c-1.4,1.5-8.6,10.9-10.5,12
		c-1.9,1.1-12.8,4.1-14.8,4.6l-20,68.5c3.5,3.8,6.8,7.9,9.7,12.1c6.8,11.8,2.6,26.9-9.2,33.7c-11.8,6.8-26.9,2.6-33.7-9.2
		c-6.8-11.8-2.6-26.9,9.2-33.7c0,0,0,0,0,0c1.9-1.1,13-4.6,15-5.1l20.7-68.6c-1.5-1.4-11.5-8.6-12.6-10.5c-6.6-11.9-2.3-27,9.7-33.6
		c11.7-6.5,26.5-2.4,33.3,9.1c2.1,4.6,3.8,9.4,5.3,14.3l35.8,8c1.4-1.5,7.4-7.3,9.4-8.4c1.9-1.1,17.4-7.9,19.4-8.3l9.4-46.1
		c-3.7-4.1-7.2-8.4-10.3-12.9c-6.7-11.9-2.6-26.9,9.3-33.7C904.8,1090.3,919.8,1094.4,926.5,1106.2L926.5,1106.2z"/>
	<circle class="st16" cx="877.8" cy="1218.7" r="28"/>
	<circle class="st16" cx="797" cy="1196.2" r="28"/>
	<circle class="st16" cx="905.3" cy="1118.3" r="28"/>
	<circle class="st16" cx="760" cy="1314.9" r="28"/>
</g>
<rect x="606.8" y="964.4" class="st14" width="435" height="48.7"/>
<rect x="667.1" y="1013.1" class="st16" width="314.5" height="36.6"/>
<g>
	<path class="st0" d="M942.9,822.1c-33.2-7.2-50.5,26.6-26,48.6c33.2,29.8,63.4-31,47.1-60.4C964.1,810.3,960.8,826,942.9,822.1z"/>
	<g>
		<path class="st0" d="M1518.7,371.7l-40.6-48l-435,367.7c-9,7.6-13,19.6-10.3,31.1c-0.7,0.4-1.3,0.8-1.9,1.3
			c-0.2,0.1-0.3,0.3-0.5,0.4c-6,5.3-6.6,14.5-1.3,20.6c5.3,6,14.5,6.6,20.6,1.3c0.6-0.5,1.1-1.1,1.6-1.7c10.9,4.6,23.4,2.6,32.4-5
			L1518.7,371.7z"/>
		<g>
			<path class="st0" d="M1471.2,417.6l284.3-240.3c7.8-6.6,8.7-18.2,2.2-26l-23.3-27.7c0,0,0,0,0,0c-6.6-7.8-18.2-8.7-25.9-2.2
				l-284.3,240.3L1471.2,417.6z"/>
			<path class="st0" d="M1477.5,432.3l-3.4,2.8c-4.6,3.8-11.4,3.2-15.2-1.4l-53.4-64.4c-3.8-4.6-3.2-11.4,1.4-15.2l3.4-2.8
				c4.6-3.8,11.4-3.2,15.2,1.4l53.4,64.4C1482.7,421.6,1482.1,428.5,1477.5,432.3z"/>
		</g>
	</g>
	<path class="st17" d="M1514.7,362.7l-40.6-48l-435,367.7c-9,7.6-13,19.6-10.3,31.1c-0.7,0.4-1.3,0.8-1.9,1.3
		c-0.2,0.1-0.3,0.3-0.5,0.4c-6,5.3-6.6,14.5-1.3,20.6c5.3,6,14.5,6.6,20.6,1.3c0.6-0.5,1.1-1.1,1.6-1.7c10.9,4.6,23.4,2.6,32.4-5
		L1514.7,362.7z"/>
	<path class="st18" d="M1033.6,694.8c1.7-4.1,4.3-7.8,7.8-10.7l230.3-194.7L1174,644.9l-96.7,81.7c-8,6.8-19.1,8.5-28.7,4.4
		c-1.4-0.6-3.1-0.2-4.1,1c-0.4,0.5-0.8,0.9-1.2,1.3c-3.1,2.6-7.4,3.3-11.2,1.8c-5.6-2.3-8.3-8.7-6-14.3c0.7-1.6,1.7-3,3-4.2
		c0.5-0.4,1-0.7,1.5-1c0.7-0.4,1.2-1,1.5-1.7c0.3-0.7,0.3-1.5,0.2-2.2C1031,706.1,1031.5,700.2,1033.6,694.8L1033.6,694.8z"/>
	<g>
		<path class="st9" d="M1467.2,408.6l284.3-240.3c7.8-6.6,8.7-18.2,2.2-26l-23.3-27.7c0,0,0,0,0,0c-6.6-7.8-18.2-8.7-25.9-2.2
			l-284.3,240.3L1467.2,408.6z"/>
		<path class="st9" d="M1469.8,422.9l-3.4,2.8c-4.6,3.8-11.4,3.2-15.2-1.4l-47.5-57.2c-3.8-4.6-3.2-11.4,1.4-15.2l3.4-2.8
			c4.6-3.8,11.4-3.2,15.2,1.4l47.5,57.2C1475,412.3,1474.3,419.1,1469.8,422.9z"/>
	</g>
	<path class="st18" d="M941.9,816.1c-33.2-7.2-50.5,26.6-26,48.6c33.2,29.8,63.4-31,47.1-60.4C963.1,804.3,959.8,820,941.9,816.1z"
		/>
</g>
<g>
	<rect x="402.9" y="399.3" class="st0" width="210.1" height="11.2"/>
	<rect x="362.5" y="565.5" class="st0" width="230.8" height="11.2"/>
	<rect x="332.8" y="731.7" class="st0" width="230.8" height="11.2"/>
	<rect x="293.6" y="897.9" class="st0" width="245.3" height="11.2"/>
	<rect x="254.3" y="1064.1" class="st0" width="269.7" height="11.2"/>
	<rect x="224.7" y="1230.2" class="st0" width="269.7" height="11.2"/>
	<polygon class="st0" points="634,304.6 474,1488 449.3,1488 624.1,304.6 	"/>
	<polygon class="st0" points="431.4,304.6 172.5,1488 147.7,1488 421.5,304.6 	"/>
</g>
<g>
	<path class="st19" d="M771.1,263.9c2.8-5.5,15.7-5.2,19-15.4c3.3-10.2,1.1-23.5,1.3-29.8c0.1-6.4-2.1-10.3-6.2-13.1
		c-4.1-2.8-6.7,11.3-12.7,10c-6-1.4-13.2-0.3-15.4,5.5s-3.1,19.4-5,30.6C752.1,251.6,768.4,269.4,771.1,263.9z"/>
	
		<rect x="488.5" y="374.1" transform="matrix(4.482673e-02 -0.999 0.999 4.482673e-02 0.6266 942.6601)" class="st6" width="9.5" height="193.8"/>
	<path class="st19" d="M336.6,613.7c0,0-9.6,19.5-17.1,81c-7.5,61.5,22,167,22.4,177.8c0.4,10.8-11.5,9-10.4,23.6
		c0,0,80.4-0.8,79.7-2c-3.4-6.9-24.2-16.4-40.9-20.3c-16.7-3.9,42.2-119.2,45.6-246.9L336.6,613.7z"/>
	<path class="st19" d="M440.1,610.3c0,0-9.6,19.5-17.1,81c-7.5,61.5,22.1,167,22.4,177.8c0.4,10.8-11.5,9-10.4,23.6
		c0,0,80.4-0.8,79.7-2c-3.4-6.9-24.2-16.4-40.9-20.3c-16.7-3.9,42.2-119.2,45.6-247L440.1,610.3z"/>
	<path class="st20" d="M519,632.5l-84.9-3.9c-3.3,12.6-7.5,32.6-11.1,62.7c-7.5,61.5,22,167,22.4,177.8c0.3,7.7-5.7,9-8.7,14.5
		c1.7-0.6,3.5-1.2,5.6-2c21-8.3,1.7-54.2-5.9-88c-7.6-33.8-7.8-98.9,13.4-110.2c20.6-11,59.2-20.9,69.4-48.5
		C519,634,519,633.2,519,632.5z"/>
	<path class="st20" d="M415.5,637.5c-6.7-3.3-18.6-9.3-32-16.1l-46.9-7.7c0,0-9.6,19.5-17.1,81c-7.5,61.5,22,167,22.4,177.8
		c0.3,8.1-6.3,9.1-9.2,15.3c2.8-0.8,5.6-1.4,8.5-1.8c14.7-2,6.8-34.3-3.2-84.7c-10-50.4-13.1-133.2,5.8-145.2
		c17.3-11,48.1,0.4,71.3-11.9C415.2,642,415.3,639.8,415.5,637.5z"/>
	<path class="st21" d="M435,892.7c0,0,80.4-0.8,79.7-2c-2.7-5.4-15.7-12.3-29.3-16.9l0,0c1.4,11.1-24.2,9.2-45.2,5.4
		C437.3,881.9,434.4,885.1,435,892.7z"/>
	<path class="st22" d="M568.4,169.6c0,0-197.6,107.3-303.9,372.9c39.4,80.5,191.7,143.8,273.1,131.1c0,0-13.7-61.3,31.1-169.6
		s51.5-224.3,45.3-286.5L568.4,169.6z"/>
	<path class="st23" d="M598.9,210.1l6.3-1.7l8.7,9.2c6.3,62.2-0.5,178.1-45.3,286.5c-44.7,108.3-31.1,169.6-31.1,169.6
		c-16.9,2.6-36.9,2-58.3-1.5c0.2-28.8,4.7-67.9,20.2-115.8C535,446.7,597.3,337.9,598.9,210.1z"/>
	<path class="st23" d="M597.3,173.7c0,0-12.7-10.4-28.9-4c-8.6,11.2,22.5,47.6,45.5,48c1.2-0.8,7.9-9,0.1-23.7L597.3,173.7z"/>
	<path class="st24" d="M707.1,138.6c0,0-16.5,12.2-19.5,15c-3,2.8-29,20.1-32.3,23.2c-3.3,3-16.7,6.9-20.7,9.2
		c-4,2.3-30.8-9.1-33.2-9.5c-2.4-0.4-2.2-1.6,0.1-15c-38.5-18.3-30.2-76.1,9-97.1c39.2-21,50.5,5,64.6-0.6s31.3-10.5,48.3-0.8
		s22.2,25.8,14.1,22c4.2,17-3.9,40.3-23,41.2L707.1,138.6z"/>
	<path class="st24" d="M614,62.5c-1.2,0.6-2.4,1.2-3.6,1.8c-39.2,21-47.4,78.9-9,97.1c-2.3,13.4-2.5,14.6-0.1,15
		c1.5,0.2,12.1,4.6,21,7.4c1-0.9,2.2-2,3.7-3.4c8.6-8.6,19-15,20.6-16.8c1.7-1.8,4-10.2,4-10.2l-14.8-3.2
		c-37.8-7-38.2-48.3-15.7-62.3C632.5,80.2,624.7,69.9,614,62.5z"/>
	<path class="st19" d="M641.4,156c-11.8-5.4-6.9-15.4-0.2-19.2s13,2,10,7.6c-1.2,5.8,5.8,6.4,13.5-1c16.1,9.3,42.2-4.2,46.7-19.6
		c0,0,2.6-0.8,5.2-4.6c-3.6,17.2-16.7,28.7-28.6,40c-11.8,11.4-9.9,20-26.2,32.9c-16.3,12.8-32.9,9.2-36.8-1.9
		c-3.9-11.1-13.8,11.4-13.8,11.4c-15.5-1.4-34.1-24.3-27.6-31.9c14.4-4.1,17.8-8.4,17.8-8.4C608.2,179.9,641.9,174.2,641.4,156z"/>
	<path class="st8" d="M643.9,144.6c-2.6-0.1-4.8,1.9-4.9,4.5c0.8-2,3-3.1,5.1-2.6c-0.2,1.5-0.8,3-1.9,4.1c4.7-2.4,4.9-7.8,0.3-10
		C643.3,141.7,643.8,143.1,643.9,144.6C643.9,144.6,643.9,144.6,643.9,144.6z"/>
	
		<ellipse transform="matrix(0.9851 -0.1719 0.1719 0.9851 -0.9085 105.1862)" class="st25" cx="606.7" cy="57.8" rx="39.7" ry="39.7"/>
	<path class="st24" d="M605,55.3c15.9-7.7,11.3-14.4,1.3-13c-0.8-5.4,16.4-17.2,31.6-8.4c0.3,0.1,0.5,0.2,0.8,0.3
		c-1.4-1.9-3-3.8-4.8-5.4c-15.5-14.5-39.6-14.2-54.8,0.7c-15.6,15.3-15.9,40.4-0.5,56c15.3,15.6,40.4,15.9,56,0.5
		C611.7,99.7,589.3,62.8,605,55.3z"/>
	<path class="st26" d="M564.1,368.3c-73.2-56.9-23.8-143.4,12.7-142.2c36.5,1.3,17.6,59.4,63.5,87.3c45.9,27.9,81.9-26.3,108.6-64.2
		c0,0,10.7-2.2,26.6,13.4C732.8,381.2,637.2,425.3,564.1,368.3z"/>
	<path class="st27" d="M626.6,325c46.5,32.3,101-2.9,131.7-74.2c-5.9-2.2-9.4-1.5-9.4-1.5c-26.8,37.9-62.8,92.1-108.6,64.2
		c-38.6-23.5-31.4-68.3-49.8-82.7C608.7,257.5,583.7,295.2,626.6,325z"/>
	<path class="st28" d="M331.5,896.1c0,0,80.4-0.8,79.7-2c-2.3-4.7-12.6-10.6-24.3-15.1c-2,9.5-29,6.7-49.2,2.6
		C334.6,884.7,330.8,887.6,331.5,896.1z"/>
</g>
<g>
	<path class="st22" d="M1378.4,598.6c0-2.6,0.3-5.2,0.9-7.8c6.2,77.1-7.9,111.8-17.1,124.4l-27.5-54.4
		C1353.3,646,1378.4,626.5,1378.4,598.6z"/>
	<path class="st21" d="M1553.6,1186.4c0,0,13.3,10.8-2.4,9.6c-15.7-1.2-30.5,2.1-38.3,16h66.1c0,0-7.1-15.4-4.7-22.6L1553.6,1186.4z
		"/>
	<path class="st29" d="M1567.6,964.2c0,0-19.9,42.6,1.3,110.4c21.3,67.8,22.6,100.4,12,121c0,0-22.6,0.7-28.6-5.3
		c0,0-56.6-59.2-83.2-162.9L1567.6,964.2z"/>
	<path class="st30" d="M1469,1027.4c26.6,103.8,83.2,162.9,83.2,162.9c2.2,2.2,6.6,3.5,11.3,4.2c-17.6-25.4-54-110.6-49.2-138.1
		c5.3-30.6,35.9-39.9,43.9-77.8l-17.6,2.9L1469,1027.4z"/>
	<path class="st21" d="M1352.9,1185.1c0,0-1.5,12.1-17.2,10.9c-15.7-1.2-30.5,2.1-38.3,16h66.1c0,0-0.3-11.2,2.1-18.4L1352.9,1185.1
		z"/>
	<path class="st29" d="M1428.6,1031.6c3,44.4-29.7,149.6-60.6,172.6c0,0-18-2.7-23.9-10.7c0,0-14.2-72.1-5.2-170.3
		C1338.8,1023.1,1425.6,987.2,1428.6,1031.6z"/>
	<path class="st30" d="M1352.3,1199.6c-1.1-20.2-3.7-86.3,6.3-120.4c11.4-38.5,52.8-9.3,70-35.9c0.1-1.8,0.1-3.5,0.1-5.2l-77.8-19.3
		c-7.4,2.4-12.2,4.4-12.2,4.4c-9,98.3,5.2,170.3,5.2,170.3C1346.2,1196.1,1349.1,1198.2,1352.3,1199.6z"/>
	<path class="st22" d="M1442.5,533.9c0,0,54.5,29.3,75.8,121c21.3,91.8,22.6,220.8,86.5,297.9c-85.1,106.4-248.7,101.1-292.6,66.5
		c0,0,13.3-16,34.6-139.7c21.3-123.7,17.5-249.2,56.4-315.1L1442.5,533.9z"/>
	<path class="st23" d="M1403.1,564.7c-38.9,65.8-41.5,188.9-62.7,312.6s-41.3,139.5-41.3,139.5c12,9.5,46.3,19.4,72.2,22.7
		C1449.4,958.8,1385.9,643.5,1403.1,564.7z"/>
	<path class="st19" d="M1225.8,536.8c-9.1-8.8-7.4-29.4,1.5-36.4c9-7,15.6-14,20.1-15.5c4.5-1.5,5.9,7.3,5.9,12.2s11.9-8.8,15.7-5.1
		s-4.3,1.3-6.8,12.2c-2.5,10.9-4.8,9.5-13.6,18.6C1248.6,522.8,1234.9,545.5,1225.8,536.8z"/>
	<path class="st29" d="M1412.1,545.8c0,0-5.7,2.5-10.9,19.2c14.7,14,60.6,2.7,66.3-11.2c-2.7-8-7.8-18-16.7-20.9
		C1450,532.5,1412.1,545.8,1412.1,545.8z"/>
	<path class="st19" d="M1422.6,504.7c-0.7,1.3-14.3,36.6-14.3,37.6c0,3,30.3,20.3,46.9-5c0,0-12-11.6-9-35.3
		C1446.2,502,1423.2,503.3,1422.6,504.7z"/>
	<path class="st19" d="M1419.6,461.4c2,5.7-2.9,18-3.3,23c-0.4,5-10.6,19-11.3,22.6c-0.7,3.7-8,2-8,2s-17.3-8.3-18.3-9
		c-0.9-0.7-5.3-14-5.3-14s-0.6-7,5-20.3c5.6-13.3,3.9-19.6,3.3-28.3C1381.7,437.5,1417.5,455.7,1419.6,461.4z"/>
	<path class="st24" d="M1425.9,384c-12.5-14.7-39.4-12.2-37.2,7.7c0,0-12.5,3.7-14.7,23.9c-2.2,20.2,20.7,42.6,29.4,47.9
		c-3.5,14.2,3.8,13.2,2.2,24.2c-1.6,11-12.3,62.6,2.2,58.4c14.5-4.2,5.5-27.2,23.7-33.9s52.9-8.7,72.1-36.9
		c19.2-28.2,12.2-67-13.7-70.3c0,0-2.7-6-9.7-3.3c3.5-7.5-8.2-19-21.2-5.2C1459,396.4,1438.4,398.7,1425.9,384z"/>
	<path class="st24" d="M1408.1,490.4c0-5,4-9,9-9c0,0,0,0,0,0c5,0,9,4,9,9c0,5-4,9-9,9C1412.1,499.4,1408.1,495.3,1408.1,490.4
		C1408.1,490.4,1408.1,490.4,1408.1,490.4z"/>
	<path class="st24" d="M1415.3,489.1c1.9,0.9,2.6,3.1,1.7,5c0.3-1.7-0.9-3.4-2.6-3.7c-0.5,1.1-0.5,2.4-0.2,3.6
		c-2.4-3.4-0.6-7.3,3.5-7.2c-1,0.5-1.9,1.3-2.6,2.3C1415.2,489.1,1415.3,489.1,1415.3,489.1z"/>
	<path class="st24" d="M1431.6,512.2c18.2-6.7,52.9-8.7,72.1-36.9c19.2-28.2,12.2-67-13.7-70.3c0,0-2.7-6-9.7-3.3
		c3.5-7.5-8.2-19-21.2-5.2c19.1,6.2,17.8,33.2-1.8,31.2c5.6,10.3,0.9,14.3-4.4,13.3c4.3,7.3,7,36.9-20.6,59.5
		c-24.8,20.2-34.6,48.6-24.4,45.6C1422.3,541.8,1413.4,518.9,1431.6,512.2z"/>
	<path class="st22" d="M1321.3,682.9c-71.8-33.9-101.2-123.2-98.1-141.1c1.6-4.9,13-18.3,26.9-20.9c13.5,46.7,70.9,71.6,117.8,62.7
		s86.4,7,92.3,36.1C1468.9,662.7,1393.2,716.8,1321.3,682.9z"/>
	<path class="st23" d="M1321.3,682.9c29.6,14.1,64,14.2,93.7,0.2c-89-4.3-180.8-105.8-184.3-151.3c-4,3.9-6.7,7.8-7.4,10
		C1220.1,559.7,1249.5,649,1321.3,682.9z"/>
</g>
</svg>
