<?xml version="1.0" encoding="utf-8"?>
<!-- Generator: Adobe Illustrator 25.2.1, SVG Export Plug-In . SVG Version: 6.00 Build 0)  -->
<svg version="1.1" id="Layer_1" xmlns="http://www.w3.org/2000/svg" xmlns:xlink="http://www.w3.org/1999/xlink" x="0px" y="0px"
	 viewBox="0 0 675.7 698" style="enable-background:new 0 0 675.7 698;" xml:space="preserve">
<style type="text/css">
	.st0{fill:#EBF0F2;}
	.st1{fill:#B8C6D1;fill-opacity:0.5;}
	.st2{fill:#FFFFFF;stroke:#D1D1D1;stroke-miterlimit:10;}
	.st3{fill:#FFC800;}
	.st4{fill:#DCDCDC;}
	.st5{fill:#E5E9EA;}
	.st6{fill:#FFFFFF;}
	.st7{fill:#C8C8C8;}
	.st8{display:none;}
	.st9{display:inline;fill:#FFFFFF;}
	.st10{opacity:0.1;}
	.st11{fill:#1A2E35;}
	.st12{fill:#ECECEC;}
	.st13{fill:#375A64;}
	.st14{fill:#A8A8A8;}
	.st15{fill:#7B9EAA;stroke:#FFFFFF;stroke-width:3.0205;stroke-miterlimit:10;}
	.st16{fill:#333333;}
	.st17{fill:#E6ECEF;}
	.st18{fill:#3391C4;stroke:#FFFFFF;stroke-width:3.0205;stroke-miterlimit:10;}
	.st19{fill:#F7F7F7;}
	.st20{fill:#597F89;}
	.st21{fill:#7B9EAA;}
	.st22{opacity:0.86;fill:#FFFFFF;}
	.st23{font-family:'Parisienne-Regular';}
	.st24{font-size:26.8455px;}
	.st25{fill:#F4F2EF;}
	.st26{fill:#D8DEE8;}
</style>
<path class="st0" d="M632.2,693.2H44.3c-15.9,0-28.8-12.9-28.8-28.8V513.3c0-15.9,12.9-28.8,28.8-28.8h587.9
	c15.9,0,28.8,12.9,28.8,28.8v151.1C661,680.3,648.1,693.2,632.2,693.2z"/>
<path class="st1" d="M606,610.6c1.1,13.6-209.1,24.6-319.8,37S68,645.7,66.9,632.1c-1.1-13.6,104.7-21.2,215.5-33.6
	S605,597,606,610.6z"/>
<g>
	<g>
		<g>
			<path class="st2" d="M365.7,24.1l67.7,563c1,8.5-4.8,16.1-13.1,16.9l-295.2,28.7c-9.1,0.9-17.5-5.8-18.6-14.8L35.7,21.4
				c-1.1-9,5.6-16.2,14.9-16.1l298.2,3.2C357.1,8.6,364.7,15.6,365.7,24.1z"/>
		</g>
	</g>
	<g>
		<path class="st3" d="M383.8,376.7c-2.1,5.7-8.7,10.8-8.7,10.8s-8.4-5.1-12.5-10.8c-4.7-6.5-3.9-13.1,1.2-13.1
			c5.7,0,8.4,7.1,8.4,7.1s0.2-7.1,5.9-7.1C383.1,363.5,386.2,370.2,383.8,376.7z"/>
		<g>
			<g>
				<polygon class="st4" points="99.3,31.8 70.2,31.8 69.4,27 98.5,27 				"/>
				<polygon class="st4" points="101,41.4 71.9,41.4 71.1,36.6 100.2,36.6 				"/>
				<polygon class="st4" points="102.7,51 73.6,51 72.8,46.2 101.9,46.2 				"/>
			</g>
			<g>
				<g>
					<polygon class="st4" points="252.8,48.6 250.1,51 238,38.1 240.8,35.6 					"/>
					<path class="st4" d="M243.3,30.2c3.6,3.8,3.8,9.3,0.5,12.2c-3.3,2.9-8.9,2.2-12.5-1.6c-3.6-3.8-3.8-9.3-0.5-12.2
						C234.1,25.6,239.7,26.3,243.3,30.2z"/>
					<path class="st5" d="M240.9,32.3c2.2,2.3,2.3,5.6,0.3,7.3c-2,1.8-5.3,1.3-7.5-1c-2.2-2.3-2.3-5.6-0.3-7.3
						C235.4,29.6,238.7,30,240.9,32.3z"/>
				</g>
			</g>
			<path class="st4" d="M289.2,40.2c-2.1,5.7-8.7,10.8-8.7,10.8s-8.4-5.1-12.5-10.8c-4.7-6.5-3.9-13.1,1.2-13.1
				c5.7,0,8.4,7.1,8.4,7.1s0.2-7.1,5.9-7.1C288.4,27,291.6,33.7,289.2,40.2z"/>
			<g>
				<path class="st4" d="M324,46.2h-17.6l-7.6-17.8h-1.8l-0.3-1.5h2.9l1.5,3.5l24.3,0L324,46.2z M307.3,44.7h15.3l1.3-12.8l-22,0
					L307.3,44.7z"/>
				<polygon class="st4" points="321.6,49.1 319.9,46.2 309.9,46.2 309.4,49 307.9,48.5 308.6,44.7 320.6,44.7 322.9,48.5 				"/>
				<polygon class="st4" points="324.3,35.4 302.4,35.4 302.1,33.9 324.1,33.9 				"/>
				<polygon class="st4" points="324.1,39.2 304.2,39.1 304,37.6 323.8,37.7 				"/>
				<polygon class="st4" points="323.7,43 305.7,43 305.5,41.5 323.4,41.5 				"/>
				<polygon class="st4" points="315.7,45.4 314.2,45.4 311.7,31.2 313.2,31.2 				"/>
				<polygon class="st4" points="318.4,45.5 316.9,45.4 315.5,31.2 317,31.3 				"/>
				<polygon class="st4" points="321.2,45.6 319.7,45.3 319.8,31.1 321.3,31.4 				"/>
				<polygon class="st4" points="311.5,45.5 307.9,31.3 309.3,31.2 313,45.4 				"/>
				<polygon class="st4" points="308.7,45.6 303.6,31.4 305,31.1 310.1,45.3 				"/>
				<path class="st4" d="M322.7,51.2c-1.3,0-2.6-1.1-2.8-2.4c-0.2-1.3,0.7-2.4,2-2.4c1.3,0,2.6,1.1,2.8,2.4
					C324.9,50.1,324,51.2,322.7,51.2z M322.1,47.9c-0.5,0-0.8,0.4-0.7,0.9c0.1,0.5,0.6,0.9,1.1,0.9c0.5,0,0.8-0.4,0.7-0.9
					C323.1,48.3,322.6,47.9,322.1,47.9z"/>
				<path class="st4" d="M309.2,51.2c-1.3,0-2.6-1.1-2.8-2.4c-0.2-1.3,0.7-2.4,2-2.4c1.3,0,2.6,1.1,2.8,2.4
					C311.4,50.1,310.5,51.2,309.2,51.2z M308.6,47.9c-0.5,0-0.8,0.4-0.7,0.9c0.1,0.5,0.6,0.9,1.1,0.9c0.5,0,0.8-0.4,0.7-0.9
					C309.5,48.3,309.1,47.9,308.6,47.9z"/>
			</g>
			<g>
				<ellipse transform="matrix(0.6753 -0.7375 0.7375 0.6753 85.59 247.4503)" class="st3" cx="323.9" cy="26.5" rx="5.9" ry="7"/>
				<g>
					<path class="st6" d="M324.1,22.8l1.3,7.1c0.1,0.4-0.2,0.7-0.6,0.7c-0.4,0-0.7-0.3-0.8-0.7l-1-5.9l-0.4,0.3
						c-0.1,0.1-0.2,0.1-0.3,0.1c-0.2,0-0.5-0.1-0.6-0.3c-0.3-0.3-0.2-0.7,0.1-0.9l1.3-0.9c0,0,0,0,0,0c0,0,0,0,0.1,0c0,0,0,0,0.1,0
						c0,0,0,0,0,0c0,0,0.1,0,0.1,0c0,0,0,0,0,0h0c0,0,0.1,0,0.1,0c0,0,0,0,0,0c0,0,0.1,0,0.1,0c0,0,0,0,0.1,0c0,0,0.1,0,0.1,0
						c0,0,0,0,0.1,0c0,0,0,0,0.1,0c0,0,0,0,0.1,0c0,0,0,0,0,0c0,0,0,0,0.1,0l0,0c0,0,0,0,0,0c0,0,0,0,0,0.1c0,0,0,0,0,0.1
						c0,0,0,0,0,0.1C324.1,22.7,324.1,22.8,324.1,22.8C324.1,22.8,324.1,22.8,324.1,22.8z"/>
				</g>
			</g>
		</g>
		<polygon class="st4" points="290.4,372.8 130.3,372.8 129.5,368.3 289.6,368.3 		"/>
		<polygon class="st4" points="269.5,381.3 131.8,381.3 131,376.7 268.7,376.7 		"/>
		<g>
			<g>
				<polygon class="st7" points="89.4,231.4 81.9,225.4 87.2,219.3 88.4,220.4 84,225.4 90.2,230.3 				"/>
				<path class="st7" d="M88.9,236.1c-5.9,0-11.6-4.8-12.6-10.7c-1-5.9,2.9-10.7,8.8-10.7c5.9,0,11.6,4.8,12.6,10.7
					C98.8,231.3,94.8,236.1,88.9,236.1z M85.4,216.6c-4.8,0-8.1,3.9-7.2,8.8c0.9,4.8,5.5,8.8,10.3,8.8c4.8,0,8.1-3.9,7.2-8.8
					C94.9,220.5,90.3,216.6,85.4,216.6z"/>
			</g>
			<g>
				<polygon class="st7" points="376,231.4 374.9,230.3 379.3,225.4 373.1,220.4 373.9,219.3 381.4,225.4 				"/>
				<path class="st7" d="M378.2,236.1c-5.9,0-11.6-4.8-12.6-10.7c-1-5.9,2.9-10.7,8.8-10.7c5.9,0,11.6,4.8,12.6,10.7
					C388.1,231.3,384.1,236.1,378.2,236.1z M374.7,216.6c-4.8,0-8.1,3.9-7.2,8.8c0.9,4.8,5.5,8.8,10.3,8.8s8.1-3.9,7.2-8.8
					S379.6,216.6,374.7,216.6z"/>
			</g>
		</g>
		<g>
			<path class="st3" d="M380.9,569.2L201,579.8c-8,0.4-15.1-7.3-16.8-14.3l-2.6-10.6c-2.2-9,5.2-17.7,15.5-18.2l179.9-7.9
				c8-0.4,15.1,4.5,16.8,11.6l2.6,10.6C398.6,560,391.2,568.7,380.9,569.2z"/>
			<g class="st8">
				<path class="st9" d="M219.9,558.7L214,559l-0.5,3.2c-0.1,0.5-0.5,0.9-1.1,0.9c-0.2,0-0.3,0-0.5-0.1c-0.8-0.2-1.3-1-1.2-1.7
					L213,547c0.1-0.5,0.6-0.9,1.1-0.9c0.5,0,1.1,0.3,1.5,0.8l8.5,13.8c0.4,0.7,0.2,1.5-0.4,1.8c-0.1,0.1-0.3,0.1-0.4,0.1
					c-0.5,0-1.1-0.3-1.4-0.8L219.9,558.7z M218.3,556.2l-3.1-5.1l-0.8,5.2L218.3,556.2z"/>
				<path class="st9" d="M227.4,561.1l-3.1-14.1c-0.2-0.7,0.3-1.3,1-1.4l2.8-0.1c4.7-0.2,9.2,3.4,10.3,8c1,4.6-1.9,8.6-6.5,8.8
					l-2.8,0.1C228.3,562.4,227.6,561.8,227.4,561.1z M229.8,559.6l1.5-0.1c3.2-0.2,5.2-2.8,4.5-6c-0.7-3.1-3.8-5.6-7-5.4l-1.5,0.1
					L229.8,559.6z"/>
				<path class="st9" d="M244,560.3l-3.1-14.1c-0.2-0.7,0.3-1.3,1-1.4l2.8-0.1c4.7-0.2,9.2,3.4,10.3,8c1,4.6-1.9,8.6-6.5,8.8
					l-2.8,0.1C244.9,561.6,244.2,561.1,244,560.3z M246.4,558.9l1.5-0.1c3.2-0.2,5.2-2.8,4.5-6c-0.7-3.1-3.8-5.6-7-5.4l-1.5,0.1
					L246.4,558.9z"/>
				<path class="st9" d="M276.1,546l-3.8,0.2l2.8,12.8c0.2,0.7-0.3,1.3-1,1.4c-0.7,0-1.5-0.5-1.6-1.3l-2.8-12.8l-3.8,0.2
					c-0.7,0-1.5-0.6-1.6-1.3c-0.2-0.7,0.3-1.3,1-1.4l10.3-0.5c0.7,0,1.5,0.5,1.6,1.3C277.2,545.4,276.8,546,276.1,546z"/>
				<path class="st9" d="M293.2,544.7c1.8,1.5,3.3,3.6,3.8,5.9c0.5,2.4,0.1,4.5-1.1,6.2c-1.1,1.6-3,2.7-5.2,2.8
					c-2.3,0.1-4.7-0.8-6.5-2.3c-1.8-1.5-3.2-3.6-3.7-5.9c-0.5-2.4-0.1-4.5,1-6.2c1.1-1.6,3-2.7,5.3-2.8
					C289.1,542.3,291.4,543.2,293.2,544.7z M294.2,550.8c-0.4-1.6-1.3-3.1-2.6-4.1c-1.3-1-2.7-1.6-4.2-1.5c-1.5,0.1-2.8,0.7-3.5,1.9
					c-0.8,1.1-1.1,2.6-0.7,4.3c0.4,1.6,1.3,3.1,2.6,4.1c1.3,1,2.7,1.6,4.3,1.6c1.4-0.1,2.7-0.8,3.4-1.9
					C294.3,553.9,294.6,552.4,294.2,550.8z"/>
				<path class="st9" d="M308.2,550.2c-1-4.7,2.1-8.8,6.9-9c2.1-0.1,4.2,0.5,6,1.6c0.7,0.5,1,1.3,0.7,1.9c-0.3,0.6-1.2,0.8-1.9,0.3
					c-1.3-0.8-2.7-1.2-4.2-1.1c-1.7,0.1-3.1,0.8-4,1.9c-0.8,1.1-1.2,2.6-0.8,4.2c0.4,1.6,1.4,3.1,2.7,4.1c1.4,1,3.1,1.6,4.7,1.5
					c1.5-0.1,2.7-0.6,3.6-1.5c0.5-0.4,1.4-0.4,2,0.2c0.6,0.6,0.7,1.4,0.2,1.9c-1.3,1.2-3,2-5.2,2.1
					C314.1,558.6,309.3,554.9,308.2,550.2z"/>
				<path class="st9" d="M336.8,553.6l-5.9,0.3l-0.5,3.2c-0.1,0.5-0.5,0.9-1.1,0.9c-0.2,0-0.3,0-0.5-0.1c-0.8-0.2-1.3-1-1.2-1.7
					l2.2-14.3c0.1-0.5,0.6-0.9,1.1-0.9c0.5,0,1.1,0.3,1.5,0.8l8.5,13.8c0.4,0.7,0.2,1.5-0.4,1.8c-0.1,0.1-0.3,0.1-0.4,0.1
					c-0.5,0-1.1-0.3-1.4-0.8L336.8,553.6z M335.2,551l-3.1-5.1l-0.8,5.2L335.2,551z"/>
				<path class="st9" d="M355.4,554.8c0.4,0.7,0.2,1.4-0.5,1.7c-0.1,0-0.3,0.1-0.5,0.1c0,0,0,0,0,0c-0.2,0-0.6,0-1-0.2
					c-0.4-0.2-0.7-0.5-1-0.8c-0.5-0.7-0.9-1.5-1.1-2.8c-0.1-0.5-0.3-0.8-0.5-1c-0.2-0.3-0.5-0.5-0.9-0.7c-0.6-0.3-1.2-0.5-1.5-0.5
					l-2.8,0.1l1.2,5.2c0.2,0.7-0.3,1.3-1.1,1.4c-0.7,0-1.5-0.5-1.6-1.3l-3.1-14.1c-0.2-0.7,0.3-1.3,1-1.4c0,0,0,0,0,0l4.3-0.2
					c2.9-0.1,5.7,2.1,6.3,4.9c0.4,1.6-0.1,3-1,4c0.4,0.2,0.7,0.5,1,0.8c0.6,0.7,1.1,1.5,1.4,2.5c0.1,0.7,0.3,1.2,0.4,1.4
					C354.7,554.1,355.1,554.4,355.4,554.8z M349.9,545.3c-0.3-1.4-1.7-2.4-3-2.4l-3,0.1l1.1,4.9l3-0.1
					C349.3,547.8,350.2,546.6,349.9,545.3z"/>
				<path class="st9" d="M366.4,542.1l-3.8,0.2l2.8,12.8c0.2,0.7-0.3,1.3-1,1.4c-0.7,0-1.5-0.5-1.6-1.3l-2.8-12.8l-3.8,0.2
					c-0.7,0-1.5-0.6-1.6-1.3c-0.2-0.7,0.3-1.3,1-1.4l10.3-0.5c0.7,0,1.5,0.5,1.6,1.3C367.6,541.4,367.1,542,366.4,542.1z"/>
			</g>
		</g>
		<g>
			<path class="st6" d="M351.7,352.6H147.7c-12.1,0-22.4-8.7-24.5-20.6L87.1,127.3c-2.7-15.3,9-29.3,24.5-29.3h203.9
				c12.1,0,22.4,8.7,24.5,20.6l36.1,204.7C378.9,338.7,367.2,352.6,351.7,352.6z"/>
			
				<ellipse transform="matrix(3.463374e-03 -1 1 3.463374e-03 -75.9328 572.0438)" class="st4" cx="249" cy="324.1" rx="14.5" ry="104.7"/>
			<g>
				<g>
					<path class="st3" d="M312.4,323.2H185.3c-34.4,0-33.7-27.5-30.5-56.3c3.2-28.8,7.7-72.5,38.4-72.5c30.7,0,33,0,33,0s2.4,0,33,0
						c30.7,0,50.6,43.7,63.9,72.5C336.4,295.8,346.8,323.2,312.4,323.2z"/>
					<g class="st10">
						<path d="M189.8,195.8c0.1,0.7-0.4,1.3-1.1,1.3c-0.7,0-1.4-0.6-1.5-1.3c-0.1-0.7,0.4-1.3,1.1-1.3
							C189,194.4,189.7,195,189.8,195.8z"/>
						<path d="M211.5,195.8c0.1,0.7-0.4,1.3-1.1,1.3c-0.7,0-1.4-0.6-1.5-1.3c-0.1-0.7,0.4-1.3,1.1-1.3
							C210.7,194.4,211.4,195,211.5,195.8z"/>
						<path d="M233.1,195.8c0.1,0.7-0.4,1.3-1.1,1.3c-0.7,0-1.4-0.6-1.5-1.3c-0.1-0.7,0.4-1.3,1.1-1.3
							C232.3,194.4,233,195,233.1,195.8z"/>
						<path d="M254.8,195.8c0.1,0.7-0.4,1.3-1.1,1.3c-0.7,0-1.4-0.6-1.5-1.3c-0.1-0.7,0.4-1.3,1.1-1.3
							C254,194.4,254.7,195,254.8,195.8z"/>
						<path d="M173.1,223.6c0.1,0.7-0.4,1.3-1.1,1.3c-0.7,0-1.4-0.6-1.5-1.3c-0.1-0.7,0.4-1.3,1.1-1.3
							C172.2,222.3,172.9,222.9,173.1,223.6z"/>
						<ellipse transform="matrix(0.6753 -0.7375 0.7375 0.6753 -102.1182 215.2364)" cx="193.4" cy="223.6" rx="1.2" ry="1.4"/>
						<path d="M216.4,223.6c0.1,0.7-0.4,1.3-1.1,1.3c-0.7,0-1.4-0.6-1.5-1.3c-0.1-0.7,0.4-1.3,1.1-1.3
							C215.6,222.3,216.3,222.9,216.4,223.6z"/>
						<path d="M238.1,223.6c0.1,0.7-0.4,1.3-1.1,1.3c-0.7,0-1.4-0.6-1.5-1.3c-0.1-0.7,0.4-1.3,1.1-1.3
							C237.2,222.3,237.9,222.9,238.1,223.6z"/>
						<path d="M259.1,223.6c0.1,0.7-0.2,1.3-0.6,1.3c-0.4,0-0.7-0.6-0.8-1.3c-0.1-0.7,0.2-1.3,0.6-1.3
							C258.7,222.3,259,222.9,259.1,223.6z"/>
						<path d="M281.4,223.6c0.1,0.7-0.4,1.3-1.1,1.3c-0.7,0-1.4-0.6-1.5-1.3c-0.1-0.7,0.4-1.3,1.1-1.3
							C280.6,222.3,281.3,222.9,281.4,223.6z"/>
						<path d="M181.4,209.3c0.1,0.7-0.4,1.3-1.1,1.3c-0.7,0-1.4-0.6-1.5-1.3c-0.1-0.7,0.4-1.3,1.1-1.3
							C180.6,208,181.2,208.6,181.4,209.3z"/>
						<path d="M203,209.3c0.1,0.7-0.4,1.3-1.1,1.3c-0.7,0-1.4-0.6-1.5-1.3c-0.1-0.7,0.4-1.3,1.1-1.3
							C202.2,208,202.9,208.6,203,209.3z"/>
						<path d="M224.7,209.3c0.1,0.7-0.4,1.3-1.1,1.3c-0.7,0-1.4-0.6-1.5-1.3c-0.1-0.7,0.4-1.3,1.1-1.3
							C223.9,208,224.6,208.6,224.7,209.3z"/>
						<path d="M246.4,209.3c0.1,0.7-0.4,1.3-1.1,1.3c-0.7,0-1.4-0.6-1.5-1.3c-0.1-0.7,0.4-1.3,1.1-1.3
							C245.5,208,246.2,208.6,246.4,209.3z"/>
						<path d="M268,209.3c0.1,0.7-0.4,1.3-1.1,1.3c-0.7,0-1.4-0.6-1.5-1.3c-0.1-0.7,0.4-1.3,1.1-1.3S267.9,208.6,268,209.3z"/>
						<path d="M289.6,210c-0.1,0.4-0.5,0.7-1,0.7c-0.7,0-1.4-0.6-1.5-1.3c-0.1-0.6,0.2-1.1,0.7-1.3C288.4,208.7,289,209.3,289.6,210
							z"/>
						<path d="M178,251.5c0.1,0.7-0.4,1.3-1.1,1.3c-0.7,0-1.4-0.6-1.5-1.3c-0.1-0.7,0.4-1.3,1.1-1.3
							C177.1,250.1,177.8,250.7,178,251.5z"/>
						<ellipse transform="matrix(0.6753 -0.7375 0.7375 0.6753 -121.0614 227.8984)" cx="198.3" cy="251.5" rx="1.2" ry="1.4"/>
						<path d="M221.3,251.5c0.1,0.7-0.4,1.3-1.1,1.3c-0.7,0-1.4-0.6-1.5-1.3c-0.1-0.7,0.4-1.3,1.1-1.3
							C220.5,250.1,221.2,250.7,221.3,251.5z"/>
						<path d="M243,251.5c0.1,0.7-0.4,1.3-1.1,1.3c-0.7,0-1.4-0.6-1.5-1.3c-0.1-0.7,0.4-1.3,1.1-1.3
							C242.1,250.1,242.8,250.7,243,251.5z"/>
						<path d="M264.6,251.5c0.1,0.7-0.4,1.3-1.1,1.3c-0.7,0-1.4-0.6-1.5-1.3c-0.1-0.7,0.4-1.3,1.1-1.3
							C263.8,250.1,264.5,250.7,264.6,251.5z"/>
						<path d="M286.3,251.5c0.1,0.7-0.4,1.3-1.1,1.3c-0.7,0-1.4-0.6-1.5-1.3c-0.1-0.7,0.4-1.3,1.1-1.3
							C285.5,250.1,286.2,250.7,286.3,251.5z"/>
						<ellipse transform="matrix(0.6753 -0.7375 0.7375 0.6753 -85.893 307.7884)" cx="306.6" cy="251.5" rx="1.2" ry="1.4"/>
						<path d="M164.6,237.2c0.1,0.7-0.4,1.3-1.1,1.3c-0.7,0-1.4-0.6-1.5-1.3c-0.1-0.7,0.4-1.3,1.1-1.3
							C163.8,235.9,164.5,236.4,164.6,237.2z"/>
						<path d="M186.3,237.2c0.1,0.7-0.4,1.3-1.1,1.3c-0.7,0-1.4-0.6-1.5-1.3c-0.1-0.7,0.4-1.3,1.1-1.3
							C185.5,235.9,186.2,236.4,186.3,237.2z"/>
						<path d="M207.9,237.2c0.1,0.7-0.4,1.3-1.1,1.3c-0.7,0-1.4-0.6-1.5-1.3c-0.1-0.7,0.4-1.3,1.1-1.3
							C207.1,235.9,207.8,236.4,207.9,237.2z"/>
						<path d="M229.6,237.2c0.1,0.7-0.4,1.3-1.1,1.3c-0.7,0-1.4-0.6-1.5-1.3c-0.1-0.7,0.4-1.3,1.1-1.3
							C228.8,235.9,229.5,236.4,229.6,237.2z"/>
						<path d="M251.3,237.2c0.1,0.7-0.4,1.3-1.1,1.3c-0.7,0-1.4-0.6-1.5-1.3c-0.1-0.7,0.4-1.3,1.1-1.3
							C250.5,235.9,251.2,236.4,251.3,237.2z"/>
						<path d="M272.9,237.2c0.1,0.7-0.4,1.3-1.1,1.3s-1.4-0.6-1.5-1.3c-0.1-0.7,0.4-1.3,1.1-1.3
							C272.1,235.9,272.8,236.4,272.9,237.2z"/>
						<path d="M294.6,237.2c0.1,0.7-0.4,1.3-1.1,1.3c-0.7,0-1.4-0.6-1.5-1.3c-0.1-0.7,0.4-1.3,1.1-1.3
							C293.8,235.9,294.5,236.4,294.6,237.2z"/>
						<path d="M161.2,279.3c0.1,0.7-0.4,1.3-1.1,1.3c-0.7,0-1.4-0.6-1.5-1.3c-0.1-0.7,0.4-1.3,1.1-1.3
							C160.4,278,161.1,278.6,161.2,279.3z"/>
						<path d="M182.9,279.3c0.1,0.7-0.4,1.3-1.1,1.3c-0.7,0-1.4-0.6-1.5-1.3c-0.1-0.7,0.4-1.3,1.1-1.3
							C182.1,278,182.8,278.6,182.9,279.3z"/>
						<ellipse transform="matrix(0.6753 -0.7375 0.7375 0.6753 -140.0046 240.5605)" cx="203.2" cy="279.3" rx="1.2" ry="1.4"/>
						<path d="M226.2,279.3c0.1,0.7-0.4,1.3-1.1,1.3c-0.7,0-1.4-0.6-1.5-1.3c-0.1-0.7,0.4-1.3,1.1-1.3
							C225.4,278,226.1,278.6,226.2,279.3z"/>
						<path d="M247.9,279.3c0.1,0.7-0.4,1.3-1.1,1.3c-0.7,0-1.4-0.6-1.5-1.3c-0.1-0.7,0.4-1.3,1.1-1.3
							C247.1,278,247.7,278.6,247.9,279.3z"/>
						<path d="M269.5,279.3c0.1,0.7-0.4,1.3-1.1,1.3c-0.7,0-1.4-0.6-1.5-1.3c-0.1-0.7,0.4-1.3,1.1-1.3
							C268.7,278,269.4,278.6,269.5,279.3z"/>
						<path d="M291.2,279.3c0.1,0.7-0.4,1.3-1.1,1.3c-0.7,0-1.4-0.6-1.5-1.3c-0.1-0.7,0.4-1.3,1.1-1.3
							C290.4,278,291.1,278.6,291.2,279.3z"/>
						<ellipse transform="matrix(0.6753 -0.7375 0.7375 0.6753 -104.8362 320.4505)" cx="311.6" cy="279.3" rx="1.2" ry="1.4"/>
						<path d="M169.5,265c0.1,0.7-0.4,1.3-1.1,1.3c-0.7,0-1.4-0.6-1.5-1.3c-0.1-0.7,0.4-1.3,1.1-1.3
							C168.7,263.7,169.4,264.3,169.5,265z"/>
						<path d="M191.2,265c0.1,0.7-0.4,1.3-1.1,1.3c-0.7,0-1.4-0.6-1.5-1.3c-0.1-0.7,0.4-1.3,1.1-1.3
							C190.4,263.7,191.1,264.3,191.2,265z"/>
						<path d="M212.9,265c0.1,0.7-0.4,1.3-1.1,1.3c-0.7,0-1.4-0.6-1.5-1.3c-0.1-0.7,0.4-1.3,1.1-1.3
							C212,263.7,212.7,264.3,212.9,265z"/>
						<path d="M234.5,265c0.1,0.7-0.4,1.3-1.1,1.3c-0.7,0-1.4-0.6-1.5-1.3c-0.1-0.7,0.4-1.3,1.1-1.3
							C233.7,263.7,234.4,264.3,234.5,265z"/>
						<path d="M256.2,265c0.1,0.7-0.4,1.3-1.1,1.3c-0.7,0-1.4-0.6-1.5-1.3c-0.1-0.7,0.4-1.3,1.1-1.3
							C255.4,263.7,256.1,264.3,256.2,265z"/>
						<path d="M277.9,265c0.1,0.7-0.4,1.3-1.1,1.3c-0.7,0-1.4-0.6-1.5-1.3c-0.1-0.7,0.4-1.3,1.1-1.3S277.7,264.3,277.9,265z"/>
						<path d="M299.5,265c0.1,0.7-0.4,1.3-1.1,1.3c-0.7,0-1.4-0.6-1.5-1.3c-0.1-0.7,0.4-1.3,1.1-1.3
							C298.7,263.7,299.4,264.3,299.5,265z"/>
						<path d="M321.2,265c0.1,0.7-0.4,1.3-1.1,1.3c-0.7,0-1.4-0.6-1.5-1.3c-0.1-0.7,0.4-1.3,1.1-1.3
							C320.4,263.7,321.1,264.3,321.2,265z"/>
						<path d="M166.1,307.1c0.1,0.7-0.4,1.3-1.1,1.3c-0.7,0-1.4-0.6-1.5-1.3c-0.1-0.7,0.4-1.3,1.1-1.3
							C165.3,305.8,166,306.4,166.1,307.1z"/>
						<path d="M187.8,307.1c0.1,0.7-0.4,1.3-1.1,1.3c-0.7,0-1.4-0.6-1.5-1.3c-0.1-0.7,0.4-1.3,1.1-1.3
							C187,305.8,187.7,306.4,187.8,307.1z"/>
						<ellipse transform="matrix(0.6753 -0.7375 0.7375 0.6753 -158.9479 253.2225)" cx="208.1" cy="307.1" rx="1.2" ry="1.4"/>
						<path d="M231.1,307.1c0.1,0.7-0.4,1.3-1.1,1.3c-0.7,0-1.4-0.6-1.5-1.3c-0.1-0.7,0.4-1.3,1.1-1.3
							C230.3,305.8,231,306.4,231.1,307.1z"/>
						<path d="M252.8,307.1c0.1,0.7-0.4,1.3-1.1,1.3c-0.7,0-1.4-0.6-1.5-1.3c-0.1-0.7,0.4-1.3,1.1-1.3
							C252,305.8,252.7,306.4,252.8,307.1z"/>
						<path d="M274.4,307.1c0.1,0.7-0.4,1.3-1.1,1.3c-0.7,0-1.4-0.6-1.5-1.3c-0.1-0.7,0.4-1.3,1.1-1.3
							C273.6,305.8,274.3,306.4,274.4,307.1z"/>
						<path d="M296.1,307.1c0.1,0.7-0.4,1.3-1.1,1.3c-0.7,0-1.4-0.6-1.5-1.3s0.4-1.3,1.1-1.3C295.3,305.8,296,306.4,296.1,307.1z"/>
						<ellipse transform="matrix(0.6753 -0.7375 0.7375 0.6753 -123.7795 333.1125)" cx="316.5" cy="307.1" rx="1.2" ry="1.4"/>
						<path d="M174.4,292.9c0.1,0.7-0.4,1.3-1.1,1.3c-0.7,0-1.4-0.6-1.5-1.3c-0.1-0.7,0.4-1.3,1.1-1.3
							C173.6,291.6,174.3,292.1,174.4,292.9z"/>
						<path d="M196.1,292.9c0.1,0.7-0.4,1.3-1.1,1.3c-0.7,0-1.4-0.6-1.5-1.3c-0.1-0.7,0.4-1.3,1.1-1.3
							C195.3,291.6,196,292.1,196.1,292.9z"/>
						<path d="M217.8,292.9c0.1,0.7-0.4,1.3-1.1,1.3c-0.7,0-1.4-0.6-1.5-1.3c-0.1-0.7,0.4-1.3,1.1-1.3
							C216.9,291.6,217.6,292.1,217.8,292.9z"/>
						<path d="M239.4,292.9c0.1,0.7-0.4,1.3-1.1,1.3c-0.7,0-1.4-0.6-1.5-1.3c-0.1-0.7,0.4-1.3,1.1-1.3
							C238.6,291.6,239.3,292.1,239.4,292.9z"/>
						<path d="M261.1,292.9c0.1,0.7-0.4,1.3-1.1,1.3s-1.4-0.6-1.5-1.3c-0.1-0.7,0.4-1.3,1.1-1.3C260.3,291.6,261,292.1,261.1,292.9z
							"/>
						<path d="M282.8,292.9c0.1,0.7-0.4,1.3-1.1,1.3s-1.4-0.6-1.5-1.3c-0.1-0.7,0.4-1.3,1.1-1.3
							C281.9,291.6,282.6,292.1,282.8,292.9z"/>
						<path d="M304.4,292.9c0.1,0.7-0.4,1.3-1.1,1.3c-0.7,0-1.4-0.6-1.5-1.3c-0.1-0.7,0.4-1.3,1.1-1.3
							C303.6,291.6,304.3,292.1,304.4,292.9z"/>
						<path d="M326.1,292.9c0.1,0.7-0.4,1.3-1.1,1.3c-0.7,0-1.4-0.6-1.5-1.3c-0.1-0.7,0.4-1.3,1.1-1.3
							C325.3,291.6,326,292.1,326.1,292.9z"/>
						<ellipse transform="matrix(0.6753 -0.7375 0.7375 0.6753 -178.7282 235.4249)" cx="178" cy="320.7" rx="1.2" ry="1.4"/>
						<path d="M201,320.7c0.1,0.7-0.4,1.3-1.1,1.3c-0.7,0-1.4-0.6-1.5-1.3c-0.1-0.7,0.4-1.3,1.1-1.3
							C200.2,319.4,200.9,320,201,320.7z"/>
						<path d="M222.7,320.7c0.1,0.7-0.4,1.3-1.1,1.3c-0.7,0-1.4-0.6-1.5-1.3c-0.1-0.7,0.4-1.3,1.1-1.3
							C221.9,319.4,222.6,320,222.7,320.7z"/>
						<path d="M244.3,320.7c0.1,0.7-0.4,1.3-1.1,1.3c-0.7,0-1.4-0.6-1.5-1.3c-0.1-0.7,0.4-1.3,1.1-1.3
							C243.5,319.4,244.2,320,244.3,320.7z"/>
						<ellipse transform="matrix(0.6753 -0.7375 0.7375 0.6753 -150.5934 299.3369)" cx="264.7" cy="320.7" rx="1.2" ry="1.4"/>
						<ellipse transform="matrix(0.6753 -0.7375 0.7375 0.6753 -143.5598 315.3148)" cx="286.4" cy="320.7" rx="1.2" ry="1.4"/>
						<path d="M309.3,320.7c0.1,0.7-0.4,1.3-1.1,1.3c-0.7,0-1.4-0.6-1.5-1.3c-0.1-0.7,0.4-1.3,1.1-1.3
							C308.5,319.4,309.2,320,309.3,320.7z"/>
						<path d="M329.2,319.4c-0.2,0.2-0.4,0.3-0.6,0.4C328.7,319.6,328.9,319.5,329.2,319.4z"/>
					</g>
				</g>
				<g>
					
						<ellipse transform="matrix(0.6753 -0.7375 0.7375 0.6753 -91.6458 210.8945)" class="st10" cx="193.7" cy="209.5" rx="9.6" ry="11.5"/>
					
						<ellipse transform="matrix(0.6753 -0.7375 0.7375 0.6753 -68.8385 262.7051)" class="st10" cx="264" cy="209.5" rx="9.6" ry="11.5"/>
					
						<ellipse transform="matrix(0.6753 -0.7375 0.7375 0.6753 -91.6458 210.8945)" class="st11" cx="193.7" cy="209.5" rx="6.5" ry="7.8"/>
					
						<ellipse transform="matrix(0.6753 -0.7375 0.7375 0.6753 -68.8385 262.7056)" class="st11" cx="264" cy="209.5" rx="6.5" ry="7.8"/>
					<path class="st3" d="M264.2,211.1c-2.2,0-4.3-1.8-4.7-4c-0.3-1.8-4.8-20.2-12.7-37.9c-6.7-15.1-17.3-33-30-33
						c-23.3,0-21.7,58.9-19.6,70.9c0.4,2.2-1.1,4-3.3,4c-2.2,0-4.3-1.8-4.7-4c-0.1-0.8-9-78.9,26.2-78.9c34.1,0,52,78.1,52.1,78.9
						C267.9,209.3,266.5,211.1,264.2,211.1z"/>
				</g>
			</g>
		</g>
		<g>
			<polygon class="st12" points="245.7,479.3 200.4,479.3 192.4,434 237.7,434 			"/>
			<g>
				<g>
					<path class="st13" d="M233.5,474.1h-22.7c-6.1,0-6-4.9-5.4-10c0.6-5.1,1.4-12.9,6.8-12.9c5.5,0,5.9,0,5.9,0s0.4,0,5.9,0
						c5.5,0,9,7.8,11.4,12.9C237.7,469.2,239.6,474.1,233.5,474.1z"/>
					<g class="st10">
						<path d="M211.6,451.4c0,0.1-0.1,0.2-0.2,0.2c-0.1,0-0.3-0.1-0.3-0.2c0-0.1,0.1-0.2,0.2-0.2
							C211.5,451.2,211.6,451.3,211.6,451.4z"/>
						<path d="M215.5,451.4c0,0.1-0.1,0.2-0.2,0.2c-0.1,0-0.3-0.1-0.3-0.2c0-0.1,0.1-0.2,0.2-0.2
							C215.3,451.2,215.4,451.3,215.5,451.4z"/>
						<path d="M219.3,451.4c0,0.1-0.1,0.2-0.2,0.2c-0.1,0-0.3-0.1-0.3-0.2c0-0.1,0.1-0.2,0.2-0.2
							C219.2,451.2,219.3,451.3,219.3,451.4z"/>
						<path d="M223.2,451.4c0,0.1-0.1,0.2-0.2,0.2s-0.3-0.1-0.3-0.2c0-0.1,0.1-0.2,0.2-0.2S223.2,451.3,223.2,451.4z"/>
						<path d="M208.6,456.4c0,0.1-0.1,0.2-0.2,0.2c-0.1,0-0.3-0.1-0.3-0.2c0-0.1,0.1-0.2,0.2-0.2
							C208.5,456.1,208.6,456.2,208.6,456.4z"/>
						<path d="M212.5,456.4c0,0.1-0.1,0.2-0.2,0.2c-0.1,0-0.3-0.1-0.3-0.2c0-0.1,0.1-0.2,0.2-0.2
							C212.3,456.1,212.5,456.2,212.5,456.4z"/>
						<path d="M216.3,456.4c0,0.1-0.1,0.2-0.2,0.2c-0.1,0-0.3-0.1-0.3-0.2c0-0.1,0.1-0.2,0.2-0.2
							C216.2,456.1,216.3,456.2,216.3,456.4z"/>
						<path d="M220.2,456.4c0,0.1-0.1,0.2-0.2,0.2c-0.1,0-0.3-0.1-0.3-0.2c0-0.1,0.1-0.2,0.2-0.2
							C220.1,456.1,220.2,456.2,220.2,456.4z"/>
						<path d="M224.1,456.4c0,0.1-0.1,0.2-0.2,0.2s-0.3-0.1-0.3-0.2c0-0.1,0.1-0.2,0.2-0.2S224,456.2,224.1,456.4z"/>
						<path d="M227.9,456.4c0,0.1-0.1,0.2-0.2,0.2c-0.1,0-0.3-0.1-0.3-0.2c0-0.1,0.1-0.2,0.2-0.2
							C227.8,456.1,227.9,456.2,227.9,456.4z"/>
						<ellipse transform="matrix(0.6753 -0.7375 0.7375 0.6753 -266.5486 302.108)" cx="209.9" cy="453.8" rx="0.2" ry="0.3"/>
						<ellipse transform="matrix(0.6753 -0.7375 0.7375 0.6753 -265.295 304.9556)" cx="213.7" cy="453.8" rx="0.2" ry="0.3"/>
						<ellipse transform="matrix(0.6753 -0.7375 0.7375 0.6753 -264.0415 307.8031)" cx="217.6" cy="453.8" rx="0.2" ry="0.3"/>
						<path d="M221.7,453.8c0,0.1-0.1,0.2-0.2,0.2c-0.1,0-0.3-0.1-0.3-0.2c0-0.1,0.1-0.2,0.2-0.2
							C221.5,453.6,221.7,453.7,221.7,453.8z"/>
						<path d="M225.5,453.8c0,0.1-0.1,0.2-0.2,0.2c-0.1,0-0.3-0.1-0.3-0.2c0-0.1,0.1-0.2,0.2-0.2
							C225.4,453.6,225.5,453.7,225.5,453.8z"/>
						<path d="M229.4,453.9c0,0.1-0.1,0.1-0.2,0.1c-0.1,0-0.3-0.1-0.3-0.2c0-0.1,0-0.2,0.1-0.2C229.2,453.7,229.3,453.8,229.4,453.9
							z"/>
						<path d="M209.5,461.3c0,0.1-0.1,0.2-0.2,0.2c-0.1,0-0.3-0.1-0.3-0.2c0-0.1,0.1-0.2,0.2-0.2
							C209.3,461.1,209.5,461.2,209.5,461.3z"/>
						<path d="M213.4,461.3c0,0.1-0.1,0.2-0.2,0.2c-0.1,0-0.3-0.1-0.3-0.2c0-0.1,0.1-0.2,0.2-0.2
							C213.2,461.1,213.3,461.2,213.4,461.3z"/>
						<path d="M217.2,461.3c0,0.1-0.1,0.2-0.2,0.2c-0.1,0-0.3-0.1-0.3-0.2c0-0.1,0.1-0.2,0.2-0.2
							C217.1,461.1,217.2,461.2,217.2,461.3z"/>
						<path d="M221.1,461.3c0,0.1-0.1,0.2-0.2,0.2c-0.1,0-0.3-0.1-0.3-0.2c0-0.1,0.1-0.2,0.2-0.2
							C220.9,461.1,221.1,461.2,221.1,461.3z"/>
						<path d="M224.9,461.3c0,0.1-0.1,0.2-0.2,0.2s-0.3-0.1-0.3-0.2c0-0.1,0.1-0.2,0.2-0.2S224.9,461.2,224.9,461.3z"/>
						<path d="M228.8,461.3c0,0.1-0.1,0.2-0.2,0.2c-0.1,0-0.3-0.1-0.3-0.2c0-0.1,0.1-0.2,0.2-0.2
							C228.7,461.1,228.8,461.2,228.8,461.3z"/>
						<path d="M232.7,461.3c0,0.1-0.1,0.2-0.2,0.2c-0.1,0-0.3-0.1-0.3-0.2c0-0.1,0.1-0.2,0.2-0.2
							C232.5,461.1,232.6,461.2,232.7,461.3z"/>
						<ellipse transform="matrix(0.6753 -0.7375 0.7375 0.6753 -271.1781 301.5171)" cx="206.9" cy="458.8" rx="0.2" ry="0.3"/>
						<ellipse transform="matrix(0.6753 -0.7375 0.7375 0.6753 -269.9246 304.3646)" cx="210.7" cy="458.8" rx="0.2" ry="0.3"/>
						<ellipse transform="matrix(0.6753 -0.7375 0.7375 0.6753 -268.6711 307.2122)" cx="214.6" cy="458.8" rx="0.2" ry="0.3"/>
						<ellipse transform="matrix(0.6753 -0.7375 0.7375 0.6753 -267.4175 310.0597)" cx="218.5" cy="458.8" rx="0.2" ry="0.3"/>
						<path d="M222.6,458.8c0,0.1-0.1,0.2-0.2,0.2c-0.1,0-0.3-0.1-0.3-0.2c0-0.1,0.1-0.2,0.2-0.2
							C222.4,458.5,222.5,458.6,222.6,458.8z"/>
						<path d="M226.4,458.8c0,0.1-0.1,0.2-0.2,0.2c-0.1,0-0.3-0.1-0.3-0.2c0-0.1,0.1-0.2,0.2-0.2
							C226.3,458.5,226.4,458.6,226.4,458.8z"/>
						<path d="M230.3,458.8c0,0.1-0.1,0.2-0.2,0.2c-0.1,0-0.3-0.1-0.3-0.2c0-0.1,0.1-0.2,0.2-0.2
							C230.1,458.5,230.3,458.6,230.3,458.8z"/>
						<path d="M206.5,466.3c0,0.1-0.1,0.2-0.2,0.2s-0.3-0.1-0.3-0.2c0-0.1,0.1-0.2,0.2-0.2S206.5,466.1,206.5,466.3z"/>
						<path d="M210.4,466.3c0,0.1-0.1,0.2-0.2,0.2c-0.1,0-0.3-0.1-0.3-0.2c0-0.1,0.1-0.2,0.2-0.2C210.2,466,210.3,466.1,210.4,466.3
							z"/>
						<path d="M214.2,466.3c0,0.1-0.1,0.2-0.2,0.2c-0.1,0-0.3-0.1-0.3-0.2c0-0.1,0.1-0.2,0.2-0.2C214.1,466,214.2,466.1,214.2,466.3
							z"/>
						<path d="M218.1,466.3c0,0.1-0.1,0.2-0.2,0.2c-0.1,0-0.3-0.1-0.3-0.2c0-0.1,0.1-0.2,0.2-0.2C217.9,466,218.1,466.1,218.1,466.3
							z"/>
						<path d="M222,466.3c0,0.1-0.1,0.2-0.2,0.2c-0.1,0-0.3-0.1-0.3-0.2c0-0.1,0.1-0.2,0.2-0.2C221.8,466,221.9,466.1,222,466.3z"/>
						<path d="M225.8,466.3c0,0.1-0.1,0.2-0.2,0.2s-0.3-0.1-0.3-0.2c0-0.1,0.1-0.2,0.2-0.2S225.8,466.1,225.8,466.3z"/>
						<path d="M229.7,466.3c0,0.1-0.1,0.2-0.2,0.2c-0.1,0-0.3-0.1-0.3-0.2c0-0.1,0.1-0.2,0.2-0.2C229.5,466,229.7,466.1,229.7,466.3
							z"/>
						<path d="M233.5,466.3c0,0.1-0.1,0.2-0.2,0.2c-0.1,0-0.3-0.1-0.3-0.2c0-0.1,0.1-0.2,0.2-0.2C233.4,466,233.5,466.1,233.5,466.3
							z"/>
						<ellipse transform="matrix(0.6753 -0.7375 0.7375 0.6753 -274.5541 303.7736)" cx="207.8" cy="463.7" rx="0.2" ry="0.3"/>
						<ellipse transform="matrix(0.6753 -0.7375 0.7375 0.6753 -273.3005 306.6212)" cx="211.6" cy="463.7" rx="0.2" ry="0.3"/>
						<ellipse transform="matrix(0.6753 -0.7375 0.7375 0.6753 -272.047 309.4688)" cx="215.5" cy="463.7" rx="0.2" ry="0.3"/>
						<ellipse transform="matrix(0.6753 -0.7375 0.7375 0.6753 -270.7935 312.3163)" cx="219.3" cy="463.7" rx="0.2" ry="0.3"/>
						<path d="M223.4,463.7c0,0.1-0.1,0.2-0.2,0.2c-0.1,0-0.3-0.1-0.3-0.2c0-0.1,0.1-0.2,0.2-0.2
							C223.3,463.5,223.4,463.6,223.4,463.7z"/>
						<path d="M227.3,463.7c0,0.1-0.1,0.2-0.2,0.2c-0.1,0-0.3-0.1-0.3-0.2c0-0.1,0.1-0.2,0.2-0.2
							C227.1,463.5,227.3,463.6,227.3,463.7z"/>
						<path d="M231.2,463.7c0,0.1-0.1,0.2-0.2,0.2c-0.1,0-0.3-0.1-0.3-0.2c0-0.1,0.1-0.2,0.2-0.2C231,463.5,231.1,463.6,231.2,463.7
							z"/>
						<path d="M235,463.7c0,0.1-0.1,0.2-0.2,0.2c-0.1,0-0.3-0.1-0.3-0.2c0-0.1,0.1-0.2,0.2-0.2C234.9,463.5,235,463.6,235,463.7z"/>
						<ellipse transform="matrix(0.6753 -0.7375 0.7375 0.6753 -280.2879 305.7636)" cx="207.1" cy="471.2" rx="0.2" ry="0.3"/>
						<ellipse transform="matrix(0.6753 -0.7375 0.7375 0.6753 -279.0344 308.6112)" cx="211" cy="471.2" rx="0.2" ry="0.3"/>
						<path d="M215.1,471.2c0,0.1-0.1,0.2-0.2,0.2c-0.1,0-0.3-0.1-0.3-0.2c0-0.1,0.1-0.2,0.2-0.2C215,471,215.1,471.1,215.1,471.2z"
							/>
						<path d="M219,471.2c0,0.1-0.1,0.2-0.2,0.2c-0.1,0-0.3-0.1-0.3-0.2c0-0.1,0.1-0.2,0.2-0.2C218.8,471,218.9,471.1,219,471.2z"/>
						<ellipse transform="matrix(0.6753 -0.7375 0.7375 0.6753 -275.2739 317.1537)" cx="222.6" cy="471.2" rx="0.2" ry="0.3"/>
						<ellipse transform="matrix(0.6753 -0.7375 0.7375 0.6753 -274.0204 320.0013)" cx="226.5" cy="471.2" rx="0.2" ry="0.3"/>
						<ellipse transform="matrix(0.6753 -0.7375 0.7375 0.6753 -272.7668 322.8488)" cx="230.3" cy="471.2" rx="0.2" ry="0.3"/>
						<ellipse transform="matrix(0.6753 -0.7375 0.7375 0.6753 -271.5133 325.6964)" cx="234.2" cy="471.2" rx="0.2" ry="0.3"/>
						<ellipse transform="matrix(0.6753 -0.7375 0.7375 0.6753 -277.9301 306.0302)" cx="208.6" cy="468.7" rx="0.2" ry="0.3"/>
						<ellipse transform="matrix(0.6753 -0.7375 0.7375 0.6753 -276.6765 308.8777)" cx="212.5" cy="468.7" rx="0.2" ry="0.3"/>
						<ellipse transform="matrix(0.6753 -0.7375 0.7375 0.6753 -275.423 311.7253)" cx="216.4" cy="468.7" rx="0.2" ry="0.3"/>
						<ellipse transform="matrix(0.6753 -0.7375 0.7375 0.6753 -274.1695 314.5729)" cx="220.2" cy="468.7" rx="0.2" ry="0.3"/>
						<path d="M224.3,468.7c0,0.1-0.1,0.2-0.2,0.2c-0.1,0-0.3-0.1-0.3-0.2c0-0.1,0.1-0.2,0.2-0.2
							C224.2,468.5,224.3,468.6,224.3,468.7z"/>
						<path d="M228.2,468.7c0,0.1-0.1,0.2-0.2,0.2c-0.1,0-0.3-0.1-0.3-0.2c0-0.1,0.1-0.2,0.2-0.2C228,468.5,228.1,468.6,228.2,468.7
							z"/>
						<path d="M232,468.7c0,0.1-0.1,0.2-0.2,0.2c-0.1,0-0.3-0.1-0.3-0.2c0-0.1,0.1-0.2,0.2-0.2C231.9,468.5,232,468.6,232,468.7z"/>
						<path d="M235.9,468.7c0,0.1-0.1,0.2-0.2,0.2c-0.1,0-0.3-0.1-0.3-0.2c0-0.1,0.1-0.2,0.2-0.2
							C235.7,468.5,235.9,468.6,235.9,468.7z"/>
						<ellipse transform="matrix(0.6753 -0.7375 0.7375 0.6753 -281.306 308.2868)" cx="209.5" cy="473.7" rx="0.2" ry="0.3"/>
						<ellipse transform="matrix(0.6753 -0.7375 0.7375 0.6753 -280.0525 311.1343)" cx="213.4" cy="473.7" rx="0.2" ry="0.3"/>
						<ellipse transform="matrix(0.6753 -0.7375 0.7375 0.6753 -278.799 313.9819)" cx="217.2" cy="473.7" rx="0.2" ry="0.3"/>
						<ellipse transform="matrix(0.6753 -0.7375 0.7375 0.6753 -277.5455 316.8294)" cx="221.1" cy="473.7" rx="0.2" ry="0.3"/>
						<path d="M225.2,473.7c0,0.1-0.1,0.2-0.2,0.2c-0.1,0-0.3-0.1-0.3-0.2c0-0.1,0.1-0.2,0.2-0.2C225,473.4,225.2,473.5,225.2,473.7
							z"/>
						<path d="M229,473.7c0,0.1-0.1,0.2-0.2,0.2c-0.1,0-0.3-0.1-0.3-0.2c0-0.1,0.1-0.2,0.2-0.2C228.9,473.4,229,473.5,229,473.7z"/>
						<path d="M232.9,473.7c0,0.1-0.1,0.2-0.2,0.2c-0.1,0-0.3-0.1-0.3-0.2c0-0.1,0.1-0.2,0.2-0.2
							C232.8,473.4,232.9,473.5,232.9,473.7z"/>
						<path d="M236.4,473.4c0,0-0.1,0.1-0.1,0.1C236.4,473.5,236.4,473.4,236.4,473.4z"/>
					</g>
				</g>
				<g>
					<path class="st10" d="M214.2,453.8c0.2,1-0.5,1.9-1.5,1.9c-1,0-2-0.8-2.2-1.9c-0.2-1,0.5-1.9,1.5-1.9
						C213,452,214,452.8,214.2,453.8z"/>
					<path class="st10" d="M226.7,453.8c0.2,1-0.5,1.9-1.5,1.9c-1,0-2-0.8-2.2-1.9c-0.2-1,0.5-1.9,1.5-1.9
						C225.5,452,226.5,452.8,226.7,453.8z"/>
					<path class="st11" d="M213.6,453.8c0.1,0.7-0.3,1.3-1,1.3c-0.7,0-1.4-0.6-1.5-1.3c-0.1-0.7,0.3-1.3,1-1.3
						C212.8,452.6,213.4,453.1,213.6,453.8z"/>
					
						<ellipse transform="matrix(0.6753 -0.7375 0.7375 0.6753 -261.722 313.1484)" class="st11" cx="224.8" cy="453.8" rx="1.2" ry="1.4"/>
					<path class="st13" d="M224.9,454.1c-0.4,0-0.8-0.3-0.8-0.7c-0.1-0.3-0.9-3.6-2.3-6.7c-1.2-2.7-3.1-5.9-5.3-5.9
						c-4.2,0-3.9,10.5-3.5,12.6c0.1,0.4-0.2,0.7-0.6,0.7s-0.8-0.3-0.8-0.7c0-0.1-1.6-14.1,4.7-14.1c6.1,0,9.3,13.9,9.3,14.1
						C225.5,453.8,225.3,454.1,224.9,454.1z"/>
				</g>
			</g>
		</g>
		<g>
			<g>
				<polygon class="st12" points="301.8,479.3 256.4,479.3 248.4,434 293.8,434 				"/>
				<path class="st11" d="M302.9,480.3h-47.3l-8.3-47.3h47.3L302.9,480.3z M257.2,478.4h43.4L293,435h-43.4L257.2,478.4z"/>
			</g>
			<g>
				<g>
					<path class="st3" d="M289.5,474.1h-22.7c-6.1,0-6-4.9-5.4-10c0.6-5.1,1.4-12.9,6.8-12.9c5.5,0,5.9,0,5.9,0s0.4,0,5.9,0
						c5.5,0,9,7.8,11.4,12.9C293.8,469.2,295.6,474.1,289.5,474.1z"/>
					<g class="st10">
						<path d="M267.7,451.4c0,0.1-0.1,0.2-0.2,0.2c-0.1,0-0.3-0.1-0.3-0.2c0-0.1,0.1-0.2,0.2-0.2
							C267.5,451.2,267.6,451.3,267.7,451.4z"/>
						<path d="M271.5,451.4c0,0.1-0.1,0.2-0.2,0.2c-0.1,0-0.3-0.1-0.3-0.2c0-0.1,0.1-0.2,0.2-0.2
							C271.4,451.2,271.5,451.3,271.5,451.4z"/>
						<path d="M275.4,451.4c0,0.1-0.1,0.2-0.2,0.2c-0.1,0-0.3-0.1-0.3-0.2c0-0.1,0.1-0.2,0.2-0.2
							C275.2,451.2,275.4,451.3,275.4,451.4z"/>
						<path d="M279.2,451.4c0,0.1-0.1,0.2-0.2,0.2c-0.1,0-0.3-0.1-0.3-0.2c0-0.1,0.1-0.2,0.2-0.2
							C279.1,451.2,279.2,451.3,279.2,451.4z"/>
						<path d="M264.7,456.4c0,0.1-0.1,0.2-0.2,0.2s-0.3-0.1-0.3-0.2c0-0.1,0.1-0.2,0.2-0.2S264.6,456.2,264.7,456.4z"/>
						<path d="M268.5,456.4c0,0.1-0.1,0.2-0.2,0.2c-0.1,0-0.3-0.1-0.3-0.2c0-0.1,0.1-0.2,0.2-0.2
							C268.4,456.1,268.5,456.2,268.5,456.4z"/>
						<path d="M272.4,456.4c0,0.1-0.1,0.2-0.2,0.2c-0.1,0-0.3-0.1-0.3-0.2c0-0.1,0.1-0.2,0.2-0.2
							C272.2,456.1,272.4,456.2,272.4,456.4z"/>
						<path d="M276.3,456.4c0,0.1-0.1,0.2-0.2,0.2c-0.1,0-0.3-0.1-0.3-0.2c0-0.1,0.1-0.2,0.2-0.2
							C276.1,456.1,276.2,456.2,276.3,456.4z"/>
						<path d="M280.1,456.4c0,0.1-0.1,0.2-0.2,0.2c-0.1,0-0.3-0.1-0.3-0.2c0-0.1,0.1-0.2,0.2-0.2C280,456.1,280.1,456.2,280.1,456.4
							z"/>
						<path d="M284,456.4c0,0.1-0.1,0.2-0.2,0.2c-0.1,0-0.3-0.1-0.3-0.2c0-0.1,0.1-0.2,0.2-0.2C283.8,456.1,284,456.2,284,456.4z"/>
						<path d="M266.2,453.8c0,0.1-0.1,0.2-0.2,0.2c-0.1,0-0.3-0.1-0.3-0.2c0-0.1,0.1-0.2,0.2-0.2C266,453.6,266.1,453.7,266.2,453.8
							z"/>
						<ellipse transform="matrix(0.6753 -0.7375 0.7375 0.6753 -247.0975 346.2938)" cx="269.8" cy="453.8" rx="0.2" ry="0.3"/>
						<ellipse transform="matrix(0.6753 -0.7375 0.7375 0.6753 -245.844 349.1413)" cx="273.6" cy="453.8" rx="0.2" ry="0.3"/>
						<ellipse transform="matrix(0.6753 -0.7375 0.7375 0.6753 -244.5905 351.9889)" cx="277.5" cy="453.8" rx="0.2" ry="0.3"/>
						<ellipse transform="matrix(0.6753 -0.7375 0.7375 0.6753 -243.337 354.8365)" cx="281.4" cy="453.8" rx="0.2" ry="0.3"/>
						<path d="M285.4,453.9c0,0.1-0.1,0.1-0.2,0.1c-0.1,0-0.3-0.1-0.3-0.2c0-0.1,0-0.2,0.1-0.2C285.2,453.7,285.3,453.8,285.4,453.9
							z"/>
						<path d="M265.5,461.3c0,0.1-0.1,0.2-0.2,0.2c-0.1,0-0.3-0.1-0.3-0.2c0-0.1,0.1-0.2,0.2-0.2
							C265.4,461.1,265.5,461.2,265.5,461.3z"/>
						<path d="M269.4,461.3c0,0.1-0.1,0.2-0.2,0.2c-0.1,0-0.3-0.1-0.3-0.2c0-0.1,0.1-0.2,0.2-0.2
							C269.3,461.1,269.4,461.2,269.4,461.3z"/>
						<path d="M273.3,461.3c0,0.1-0.1,0.2-0.2,0.2c-0.1,0-0.3-0.1-0.3-0.2c0-0.1,0.1-0.2,0.2-0.2
							C273.1,461.1,273.2,461.2,273.3,461.3z"/>
						<path d="M277.1,461.3c0,0.1-0.1,0.2-0.2,0.2c-0.1,0-0.3-0.1-0.3-0.2c0-0.1,0.1-0.2,0.2-0.2C277,461.1,277.1,461.2,277.1,461.3
							z"/>
						<path d="M281,461.3c0,0.1-0.1,0.2-0.2,0.2c-0.1,0-0.3-0.1-0.3-0.2c0-0.1,0.1-0.2,0.2-0.2C280.8,461.1,281,461.2,281,461.3z"/>
						<path d="M284.9,461.3c0,0.1-0.1,0.2-0.2,0.2c-0.1,0-0.3-0.1-0.3-0.2c0-0.1,0.1-0.2,0.2-0.2
							C284.7,461.1,284.8,461.2,284.9,461.3z"/>
						<path d="M288.7,461.3c0,0.1-0.1,0.2-0.2,0.2c-0.1,0-0.3-0.1-0.3-0.2c0-0.1,0.1-0.2,0.2-0.2
							C288.6,461.1,288.7,461.2,288.7,461.3z"/>
						<path d="M263.2,458.8c0,0.1-0.1,0.2-0.2,0.2c-0.1,0-0.3-0.1-0.3-0.2c0-0.1,0.1-0.2,0.2-0.2C263,458.5,263.1,458.6,263.2,458.8
							z"/>
						<path d="M267,458.8c0,0.1-0.1,0.2-0.2,0.2c-0.1,0-0.3-0.1-0.3-0.2c0-0.1,0.1-0.2,0.2-0.2C266.9,458.5,267,458.6,267,458.8z"/>
						<ellipse transform="matrix(0.6753 -0.7375 0.7375 0.6753 -250.4735 348.5504)" cx="270.7" cy="458.8" rx="0.2" ry="0.3"/>
						<ellipse transform="matrix(0.6753 -0.7375 0.7375 0.6753 -249.22 351.3979)" cx="274.5" cy="458.8" rx="0.2" ry="0.3"/>
						<ellipse transform="matrix(0.6753 -0.7375 0.7375 0.6753 -247.9665 354.2455)" cx="278.4" cy="458.8" rx="0.2" ry="0.3"/>
						<ellipse transform="matrix(0.6753 -0.7375 0.7375 0.6753 -246.713 357.093)" cx="282.2" cy="458.8" rx="0.2" ry="0.3"/>
						<path d="M286.3,458.8c0,0.1-0.1,0.2-0.2,0.2c-0.1,0-0.3-0.1-0.3-0.2c0-0.1,0.1-0.2,0.2-0.2
							C286.2,458.5,286.3,458.6,286.3,458.8z"/>
						<path d="M262.6,466.3c0,0.1-0.1,0.2-0.2,0.2c-0.1,0-0.3-0.1-0.3-0.2c0-0.1,0.1-0.2,0.2-0.2C262.4,466,262.5,466.1,262.6,466.3
							z"/>
						<path d="M266.4,466.3c0,0.1-0.1,0.2-0.2,0.2s-0.3-0.1-0.3-0.2c0-0.1,0.1-0.2,0.2-0.2S266.4,466.1,266.4,466.3z"/>
						<path d="M270.3,466.3c0,0.1-0.1,0.2-0.2,0.2c-0.1,0-0.3-0.1-0.3-0.2c0-0.1,0.1-0.2,0.2-0.2C270.1,466,270.3,466.1,270.3,466.3
							z"/>
						<path d="M274.1,466.3c0,0.1-0.1,0.2-0.2,0.2c-0.1,0-0.3-0.1-0.3-0.2c0-0.1,0.1-0.2,0.2-0.2C274,466,274.1,466.1,274.1,466.3z"
							/>
						<path d="M278,466.3c0,0.1-0.1,0.2-0.2,0.2c-0.1,0-0.3-0.1-0.3-0.2c0-0.1,0.1-0.2,0.2-0.2C277.9,466,278,466.1,278,466.3z"/>
						<path d="M281.9,466.3c0,0.1-0.1,0.2-0.2,0.2c-0.1,0-0.3-0.1-0.3-0.2c0-0.1,0.1-0.2,0.2-0.2C281.7,466,281.8,466.1,281.9,466.3
							z"/>
						<path d="M285.7,466.3c0,0.1-0.1,0.2-0.2,0.2c-0.1,0-0.3-0.1-0.3-0.2c0-0.1,0.1-0.2,0.2-0.2C285.6,466,285.7,466.1,285.7,466.3
							z"/>
						<path d="M289.6,466.3c0,0.1-0.1,0.2-0.2,0.2c-0.1,0-0.3-0.1-0.3-0.2c0-0.1,0.1-0.2,0.2-0.2C289.4,466,289.6,466.1,289.6,466.3
							z"/>
						<path d="M264,463.7c0,0.1-0.1,0.2-0.2,0.2c-0.1,0-0.3-0.1-0.3-0.2c0-0.1,0.1-0.2,0.2-0.2C263.9,463.5,264,463.6,264,463.7z"/>
						<path d="M267.9,463.7c0,0.1-0.1,0.2-0.2,0.2c-0.1,0-0.3-0.1-0.3-0.2c0-0.1,0.1-0.2,0.2-0.2
							C267.8,463.5,267.9,463.6,267.9,463.7z"/>
						<ellipse transform="matrix(0.6753 -0.7375 0.7375 0.6753 -253.8495 350.8069)" cx="271.5" cy="463.7" rx="0.2" ry="0.3"/>
						<ellipse transform="matrix(0.6753 -0.7375 0.7375 0.6753 -252.596 353.6545)" cx="275.4" cy="463.7" rx="0.2" ry="0.3"/>
						<ellipse transform="matrix(0.6753 -0.7375 0.7375 0.6753 -251.3425 356.502)" cx="279.3" cy="463.7" rx="0.2" ry="0.3"/>
						<ellipse transform="matrix(0.6753 -0.7375 0.7375 0.6753 -250.0889 359.3496)" cx="283.1" cy="463.7" rx="0.2" ry="0.3"/>
						<path d="M287.2,463.7c0,0.1-0.1,0.2-0.2,0.2c-0.1,0-0.3-0.1-0.3-0.2c0-0.1,0.1-0.2,0.2-0.2
							C287.1,463.5,287.2,463.6,287.2,463.7z"/>
						<ellipse transform="matrix(0.6753 -0.7375 0.7375 0.6753 -247.582 365.0446)" cx="290.8" cy="463.7" rx="0.2" ry="0.3"/>
						<ellipse transform="matrix(0.6753 -0.7375 0.7375 0.6753 -262.0904 347.1018)" cx="263.2" cy="471.2" rx="0.2" ry="0.3"/>
						<ellipse transform="matrix(0.6753 -0.7375 0.7375 0.6753 -260.8369 349.9494)" cx="267.1" cy="471.2" rx="0.2" ry="0.3"/>
						<ellipse transform="matrix(0.6753 -0.7375 0.7375 0.6753 -259.5833 352.7969)" cx="270.9" cy="471.2" rx="0.2" ry="0.3"/>
						<path d="M275,471.2c0,0.1-0.1,0.2-0.2,0.2c-0.1,0-0.3-0.1-0.3-0.2c0-0.1,0.1-0.2,0.2-0.2C274.9,471,275,471.1,275,471.2z"/>
						<path d="M278.9,471.2c0,0.1-0.1,0.2-0.2,0.2c-0.1,0-0.3-0.1-0.3-0.2c0-0.1,0.1-0.2,0.2-0.2C278.7,471,278.9,471.1,278.9,471.2
							z"/>
						<path d="M282.7,471.2c0,0.1-0.1,0.2-0.2,0.2c-0.1,0-0.3-0.1-0.3-0.2c0-0.1,0.1-0.2,0.2-0.2C282.6,471,282.7,471.1,282.7,471.2
							z"/>
						<path d="M286.6,471.2c0,0.1-0.1,0.2-0.2,0.2c-0.1,0-0.3-0.1-0.3-0.2c0-0.1,0.1-0.2,0.2-0.2C286.5,471,286.6,471.1,286.6,471.2
							z"/>
						<path d="M290.5,471.2c0,0.1-0.1,0.2-0.2,0.2c-0.1,0-0.3-0.1-0.3-0.2c0-0.1,0.1-0.2,0.2-0.2C290.3,471,290.4,471.1,290.5,471.2
							z"/>
						<path d="M264.9,468.7c0,0.1-0.1,0.2-0.2,0.2c-0.1,0-0.3-0.1-0.3-0.2c0-0.1,0.1-0.2,0.2-0.2
							C264.8,468.5,264.9,468.6,264.9,468.7z"/>
						<path d="M268.8,468.7c0,0.1-0.1,0.2-0.2,0.2c-0.1,0-0.3-0.1-0.3-0.2c0-0.1,0.1-0.2,0.2-0.2
							C268.6,468.5,268.8,468.6,268.8,468.7z"/>
						<ellipse transform="matrix(0.6753 -0.7375 0.7375 0.6753 -257.2255 353.0635)" cx="272.4" cy="468.7" rx="0.2" ry="0.3"/>
						<ellipse transform="matrix(0.6753 -0.7375 0.7375 0.6753 -255.972 355.9111)" cx="276.3" cy="468.7" rx="0.2" ry="0.3"/>
						<ellipse transform="matrix(0.6753 -0.7375 0.7375 0.6753 -254.7185 358.7586)" cx="280.1" cy="468.7" rx="0.2" ry="0.3"/>
						<ellipse transform="matrix(0.6753 -0.7375 0.7375 0.6753 -253.4649 361.6062)" cx="284" cy="468.7" rx="0.2" ry="0.3"/>
						<path d="M288.1,468.7c0,0.1-0.1,0.2-0.2,0.2c-0.1,0-0.3-0.1-0.3-0.2c0-0.1,0.1-0.2,0.2-0.2
							C287.9,468.5,288.1,468.6,288.1,468.7z"/>
						<ellipse transform="matrix(0.6753 -0.7375 0.7375 0.6753 -250.9579 367.3011)" cx="291.7" cy="468.7" rx="0.2" ry="0.3"/>
						<path d="M265.8,473.7c0,0.1-0.1,0.2-0.2,0.2c-0.1,0-0.3-0.1-0.3-0.2c0-0.1,0.1-0.2,0.2-0.2
							C265.6,473.4,265.8,473.5,265.8,473.7z"/>
						<path d="M269.7,473.7c0,0.1-0.1,0.2-0.2,0.2c-0.1,0-0.3-0.1-0.3-0.2c0-0.1,0.1-0.2,0.2-0.2
							C269.5,473.4,269.6,473.5,269.7,473.7z"/>
						<ellipse transform="matrix(0.6753 -0.7375 0.7375 0.6753 -260.6015 355.3201)" cx="273.3" cy="473.7" rx="0.2" ry="0.3"/>
						<ellipse transform="matrix(0.6753 -0.7375 0.7375 0.6753 -259.348 358.1676)" cx="277.1" cy="473.7" rx="0.2" ry="0.3"/>
						<ellipse transform="matrix(0.6753 -0.7375 0.7375 0.6753 -258.0944 361.0152)" cx="281" cy="473.7" rx="0.2" ry="0.3"/>
						<ellipse transform="matrix(0.6753 -0.7375 0.7375 0.6753 -256.8409 363.8628)" cx="284.9" cy="473.7" rx="0.2" ry="0.3"/>
						<path d="M289,473.7c0,0.1-0.1,0.2-0.2,0.2c-0.1,0-0.3-0.1-0.3-0.2c0-0.1,0.1-0.2,0.2-0.2C288.8,473.4,288.9,473.5,289,473.7z"
							/>
						<path d="M292.5,473.4c0,0-0.1,0.1-0.1,0.1C292.4,473.5,292.4,473.4,292.5,473.4z"/>
					</g>
				</g>
				<g>
					<path class="st10" d="M270.2,453.8c0.2,1-0.5,1.9-1.5,1.9s-2-0.8-2.2-1.9c-0.2-1,0.5-1.9,1.5-1.9
						C269.1,452,270,452.8,270.2,453.8z"/>
					<path class="st10" d="M282.7,453.8c0.2,1-0.5,1.9-1.5,1.9c-1,0-2-0.8-2.2-1.9c-0.2-1,0.5-1.9,1.5-1.9
						C281.6,452,282.6,452.8,282.7,453.8z"/>
					
						<ellipse transform="matrix(0.6753 -0.7375 0.7375 0.6753 -247.5891 345.2534)" class="st11" cx="268.4" cy="453.8" rx="1.2" ry="1.4"/>
					
						<ellipse transform="matrix(0.6753 -0.7375 0.7375 0.6753 -243.5245 354.4866)" class="st11" cx="280.9" cy="453.8" rx="1.2" ry="1.4"/>
					<path class="st3" d="M280.9,454.1c-0.4,0-0.8-0.3-0.8-0.7c-0.1-0.3-0.9-3.6-2.3-6.7c-1.2-2.7-3.1-5.9-5.3-5.9
						c-4.2,0-3.9,10.5-3.5,12.6c0.1,0.4-0.2,0.7-0.6,0.7c-0.4,0-0.8-0.3-0.8-0.7c0-0.1-1.6-14.1,4.7-14.1c6.1,0,9.3,13.9,9.3,14.1
						C281.6,453.8,281.3,454.1,280.9,454.1z"/>
				</g>
			</g>
		</g>
		<g>
			<polygon class="st12" points="357.8,479.3 312.5,479.3 304.5,434 349.8,434 			"/>
			<g>
				<g>
					<path class="st14" d="M345.6,474.1h-22.7c-6.1,0-6-4.9-5.4-10c0.6-5.1,1.4-12.9,6.8-12.9c5.5,0,5.9,0,5.9,0s0.4,0,5.9,0
						c5.5,0,9,7.8,11.4,12.9C349.8,469.2,351.7,474.1,345.6,474.1z"/>
					<g class="st10">
						<path d="M323.7,451.4c0,0.1-0.1,0.2-0.2,0.2c-0.1,0-0.3-0.1-0.3-0.2c0-0.1,0.1-0.2,0.2-0.2
							C323.6,451.2,323.7,451.3,323.7,451.4z"/>
						<path d="M327.6,451.4c0,0.1-0.1,0.2-0.2,0.2c-0.1,0-0.3-0.1-0.3-0.2c0-0.1,0.1-0.2,0.2-0.2
							C327.4,451.2,327.5,451.3,327.6,451.4z"/>
						<path d="M331.4,451.4c0,0.1-0.1,0.2-0.2,0.2c-0.1,0-0.3-0.1-0.3-0.2c0-0.1,0.1-0.2,0.2-0.2
							C331.3,451.2,331.4,451.3,331.4,451.4z"/>
						<path d="M335.3,451.4c0,0.1-0.1,0.2-0.2,0.2c-0.1,0-0.3-0.1-0.3-0.2c0-0.1,0.1-0.2,0.2-0.2
							C335.1,451.2,335.3,451.3,335.3,451.4z"/>
						<path d="M320.7,456.4c0,0.1-0.1,0.2-0.2,0.2c-0.1,0-0.3-0.1-0.3-0.2c0-0.1,0.1-0.2,0.2-0.2
							C320.6,456.1,320.7,456.2,320.7,456.4z"/>
						<path d="M324.6,456.4c0,0.1-0.1,0.2-0.2,0.2c-0.1,0-0.3-0.1-0.3-0.2c0-0.1,0.1-0.2,0.2-0.2
							C324.4,456.1,324.6,456.2,324.6,456.4z"/>
						<path d="M328.4,456.4c0,0.1-0.1,0.2-0.2,0.2c-0.1,0-0.3-0.1-0.3-0.2c0-0.1,0.1-0.2,0.2-0.2
							C328.3,456.1,328.4,456.2,328.4,456.4z"/>
						<path d="M332.3,456.4c0,0.1-0.1,0.2-0.2,0.2c-0.1,0-0.3-0.1-0.3-0.2c0-0.1,0.1-0.2,0.2-0.2
							C332.2,456.1,332.3,456.2,332.3,456.4z"/>
						<path d="M336.2,456.4c0,0.1-0.1,0.2-0.2,0.2c-0.1,0-0.3-0.1-0.3-0.2c0-0.1,0.1-0.2,0.2-0.2C336,456.1,336.1,456.2,336.2,456.4
							z"/>
						<path d="M340,456.4c0,0.1-0.1,0.2-0.2,0.2c-0.1,0-0.3-0.1-0.3-0.2c0-0.1,0.1-0.2,0.2-0.2C339.9,456.1,340,456.2,340,456.4z"/>
						<path d="M322.2,453.8c0,0.1-0.1,0.2-0.2,0.2c-0.1,0-0.3-0.1-0.3-0.2c0-0.1,0.1-0.2,0.2-0.2
							C322.1,453.6,322.2,453.7,322.2,453.8z"/>
						<path d="M326.1,453.8c0,0.1-0.1,0.2-0.2,0.2c-0.1,0-0.3-0.1-0.3-0.2c0-0.1,0.1-0.2,0.2-0.2C325.9,453.6,326,453.7,326.1,453.8
							z"/>
						<path d="M329.9,453.8c0,0.1-0.1,0.2-0.2,0.2c-0.1,0-0.3-0.1-0.3-0.2c0-0.1,0.1-0.2,0.2-0.2
							C329.8,453.6,329.9,453.7,329.9,453.8z"/>
						<path d="M333.8,453.8c0,0.1-0.1,0.2-0.2,0.2c-0.1,0-0.3-0.1-0.3-0.2c0-0.1,0.1-0.2,0.2-0.2
							C333.6,453.6,333.8,453.7,333.8,453.8z"/>
						<path d="M337.6,453.8c0,0.1-0.1,0.2-0.2,0.2c-0.1,0-0.3-0.1-0.3-0.2c0-0.1,0.1-0.2,0.2-0.2
							C337.5,453.6,337.6,453.7,337.6,453.8z"/>
						<path d="M341.5,453.9c0,0.1-0.1,0.1-0.2,0.1c-0.1,0-0.3-0.1-0.3-0.2c0-0.1,0-0.2,0.1-0.2C341.3,453.7,341.4,453.8,341.5,453.9
							z"/>
						<path d="M321.6,461.3c0,0.1-0.1,0.2-0.2,0.2c-0.1,0-0.3-0.1-0.3-0.2c0-0.1,0.1-0.2,0.2-0.2
							C321.5,461.1,321.6,461.2,321.6,461.3z"/>
						<path d="M325.5,461.3c0,0.1-0.1,0.2-0.2,0.2c-0.1,0-0.3-0.1-0.3-0.2c0-0.1,0.1-0.2,0.2-0.2
							C325.3,461.1,325.4,461.2,325.5,461.3z"/>
						<path d="M329.3,461.3c0,0.1-0.1,0.2-0.2,0.2c-0.1,0-0.3-0.1-0.3-0.2c0-0.1,0.1-0.2,0.2-0.2
							C329.2,461.1,329.3,461.2,329.3,461.3z"/>
						<path d="M333.2,461.3c0,0.1-0.1,0.2-0.2,0.2c-0.1,0-0.3-0.1-0.3-0.2c0-0.1,0.1-0.2,0.2-0.2C333,461.1,333.2,461.2,333.2,461.3
							z"/>
						<path d="M337,461.3c0,0.1-0.1,0.2-0.2,0.2c-0.1,0-0.3-0.1-0.3-0.2c0-0.1,0.1-0.2,0.2-0.2C336.9,461.1,337,461.2,337,461.3z"/>
						<path d="M340.9,461.3c0,0.1-0.1,0.2-0.2,0.2c-0.1,0-0.3-0.1-0.3-0.2c0-0.1,0.1-0.2,0.2-0.2
							C340.8,461.1,340.9,461.2,340.9,461.3z"/>
						<path d="M344.8,461.3c0,0.1-0.1,0.2-0.2,0.2c-0.1,0-0.3-0.1-0.3-0.2c0-0.1,0.1-0.2,0.2-0.2
							C344.6,461.1,344.7,461.2,344.8,461.3z"/>
						<ellipse transform="matrix(0.6753 -0.7375 0.7375 0.6753 -234.783 384.1936)" cx="319" cy="458.8" rx="0.2" ry="0.3"/>
						<path d="M323.1,458.8c0,0.1-0.1,0.2-0.2,0.2c-0.1,0-0.3-0.1-0.3-0.2c0-0.1,0.1-0.2,0.2-0.2
							C322.9,458.5,323.1,458.6,323.1,458.8z"/>
						<path d="M326.9,458.8c0,0.1-0.1,0.2-0.2,0.2c-0.1,0-0.3-0.1-0.3-0.2c0-0.1,0.1-0.2,0.2-0.2
							C326.8,458.5,326.9,458.6,326.9,458.8z"/>
						<path d="M330.8,458.8c0,0.1-0.1,0.2-0.2,0.2c-0.1,0-0.3-0.1-0.3-0.2c0-0.1,0.1-0.2,0.2-0.2
							C330.7,458.5,330.8,458.6,330.8,458.8z"/>
						<path d="M334.7,458.8c0,0.1-0.1,0.2-0.2,0.2c-0.1,0-0.3-0.1-0.3-0.2c0-0.1,0.1-0.2,0.2-0.2
							C334.5,458.5,334.6,458.6,334.7,458.8z"/>
						<path d="M338.5,458.8c0,0.1-0.1,0.2-0.2,0.2c-0.1,0-0.3-0.1-0.3-0.2c0-0.1,0.1-0.2,0.2-0.2
							C338.4,458.5,338.5,458.6,338.5,458.8z"/>
						<path d="M342.4,458.8c0,0.1-0.1,0.2-0.2,0.2c-0.1,0-0.3-0.1-0.3-0.2c0-0.1,0.1-0.2,0.2-0.2
							C342.2,458.5,342.4,458.6,342.4,458.8z"/>
						<path d="M318.6,466.3c0,0.1-0.1,0.2-0.2,0.2c-0.1,0-0.3-0.1-0.3-0.2c0-0.1,0.1-0.2,0.2-0.2C318.5,466,318.6,466.1,318.6,466.3
							z"/>
						<path d="M322.5,466.3c0,0.1-0.1,0.2-0.2,0.2c-0.1,0-0.3-0.1-0.3-0.2c0-0.1,0.1-0.2,0.2-0.2C322.3,466,322.4,466.1,322.5,466.3
							z"/>
						<path d="M326.3,466.3c0,0.1-0.1,0.2-0.2,0.2c-0.1,0-0.3-0.1-0.3-0.2c0-0.1,0.1-0.2,0.2-0.2C326.2,466,326.3,466.1,326.3,466.3
							z"/>
						<path d="M330.2,466.3c0,0.1-0.1,0.2-0.2,0.2c-0.1,0-0.3-0.1-0.3-0.2c0-0.1,0.1-0.2,0.2-0.2C330,466,330.2,466.1,330.2,466.3z"
							/>
						<path d="M334.1,466.3c0,0.1-0.1,0.2-0.2,0.2c-0.1,0-0.3-0.1-0.3-0.2c0-0.1,0.1-0.2,0.2-0.2C333.9,466,334,466.1,334.1,466.3z"
							/>
						<path d="M337.9,466.3c0,0.1-0.1,0.2-0.2,0.2c-0.1,0-0.3-0.1-0.3-0.2c0-0.1,0.1-0.2,0.2-0.2C337.8,466,337.9,466.1,337.9,466.3
							z"/>
						<path d="M341.8,466.3c0,0.1-0.1,0.2-0.2,0.2c-0.1,0-0.3-0.1-0.3-0.2c0-0.1,0.1-0.2,0.2-0.2C341.6,466,341.8,466.1,341.8,466.3
							z"/>
						<path d="M345.6,466.3c0,0.1-0.1,0.2-0.2,0.2c-0.1,0-0.3-0.1-0.3-0.2c0-0.1,0.1-0.2,0.2-0.2C345.5,466,345.6,466.1,345.6,466.3
							z"/>
						<ellipse transform="matrix(0.6753 -0.7375 0.7375 0.6753 -238.159 386.4502)" cx="319.9" cy="463.7" rx="0.2" ry="0.3"/>
						<path d="M324,463.7c0,0.1-0.1,0.2-0.2,0.2c-0.1,0-0.3-0.1-0.3-0.2c0-0.1,0.1-0.2,0.2-0.2C323.8,463.5,323.9,463.6,324,463.7z"
							/>
						<path d="M327.8,463.7c0,0.1-0.1,0.2-0.2,0.2c-0.1,0-0.3-0.1-0.3-0.2c0-0.1,0.1-0.2,0.2-0.2
							C327.7,463.5,327.8,463.6,327.8,463.7z"/>
						<path d="M331.7,463.7c0,0.1-0.1,0.2-0.2,0.2c-0.1,0-0.3-0.1-0.3-0.2c0-0.1,0.1-0.2,0.2-0.2
							C331.5,463.5,331.7,463.6,331.7,463.7z"/>
						<path d="M335.5,463.7c0,0.1-0.1,0.2-0.2,0.2c-0.1,0-0.3-0.1-0.3-0.2c0-0.1,0.1-0.2,0.2-0.2
							C335.4,463.5,335.5,463.6,335.5,463.7z"/>
						<path d="M339.4,463.7c0,0.1-0.1,0.2-0.2,0.2c-0.1,0-0.3-0.1-0.3-0.2c0-0.1,0.1-0.2,0.2-0.2
							C339.3,463.5,339.4,463.6,339.4,463.7z"/>
						<path d="M343.3,463.7c0,0.1-0.1,0.2-0.2,0.2c-0.1,0-0.3-0.1-0.3-0.2c0-0.1,0.1-0.2,0.2-0.2
							C343.1,463.5,343.2,463.6,343.3,463.7z"/>
						<path d="M347.1,463.7c0,0.1-0.1,0.2-0.2,0.2c-0.1,0-0.3-0.1-0.3-0.2c0-0.1,0.1-0.2,0.2-0.2C347,463.5,347.1,463.6,347.1,463.7
							z"/>
						<path d="M319.5,471.2c0,0.1-0.1,0.2-0.2,0.2c-0.1,0-0.3-0.1-0.3-0.2c0-0.1,0.1-0.2,0.2-0.2C319.3,471,319.5,471.1,319.5,471.2
							z"/>
						<ellipse transform="matrix(0.6753 -0.7375 0.7375 0.6753 -242.6394 391.2876)" cx="323.1" cy="471.2" rx="0.2" ry="0.3"/>
						<ellipse transform="matrix(0.6753 -0.7375 0.7375 0.6753 -241.3858 394.1351)" cx="327" cy="471.2" rx="0.2" ry="0.3"/>
						<ellipse transform="matrix(0.6753 -0.7375 0.7375 0.6753 -240.1323 396.9827)" cx="330.8" cy="471.2" rx="0.2" ry="0.3"/>
						<ellipse transform="matrix(0.6753 -0.7375 0.7375 0.6753 -238.8788 399.8302)" cx="334.7" cy="471.2" rx="0.2" ry="0.3"/>
						<path d="M338.8,471.2c0,0.1-0.1,0.2-0.2,0.2c-0.1,0-0.3-0.1-0.3-0.2c0-0.1,0.1-0.2,0.2-0.2C338.6,471,338.8,471.1,338.8,471.2
							z"/>
						<ellipse transform="matrix(0.6753 -0.7375 0.7375 0.6753 -236.3718 405.5252)" cx="342.4" cy="471.2" rx="0.2" ry="0.3"/>
						<ellipse transform="matrix(0.6753 -0.7375 0.7375 0.6753 -235.1183 408.3728)" cx="346.3" cy="471.2" rx="0.2" ry="0.3"/>
						<ellipse transform="matrix(0.6753 -0.7375 0.7375 0.6753 -241.535 388.7067)" cx="320.7" cy="468.7" rx="0.2" ry="0.3"/>
						<path d="M324.8,468.7c0,0.1-0.1,0.2-0.2,0.2c-0.1,0-0.3-0.1-0.3-0.2c0-0.1,0.1-0.2,0.2-0.2
							C324.7,468.5,324.8,468.6,324.8,468.7z"/>
						<path d="M328.7,468.7c0,0.1-0.1,0.2-0.2,0.2c-0.1,0-0.3-0.1-0.3-0.2c0-0.1,0.1-0.2,0.2-0.2
							C328.5,468.5,328.7,468.6,328.7,468.7z"/>
						<path d="M332.6,468.7c0,0.1-0.1,0.2-0.2,0.2c-0.1,0-0.3-0.1-0.3-0.2c0-0.1,0.1-0.2,0.2-0.2
							C332.4,468.5,332.5,468.6,332.6,468.7z"/>
						<path d="M336.4,468.7c0,0.1-0.1,0.2-0.2,0.2c-0.1,0-0.3-0.1-0.3-0.2c0-0.1,0.1-0.2,0.2-0.2
							C336.3,468.5,336.4,468.6,336.4,468.7z"/>
						<path d="M340.3,468.7c0,0.1-0.1,0.2-0.2,0.2c-0.1,0-0.3-0.1-0.3-0.2c0-0.1,0.1-0.2,0.2-0.2
							C340.1,468.5,340.3,468.6,340.3,468.7z"/>
						<path d="M344.1,468.7c0,0.1-0.1,0.2-0.2,0.2c-0.1,0-0.3-0.1-0.3-0.2c0-0.1,0.1-0.2,0.2-0.2C344,468.5,344.1,468.6,344.1,468.7
							z"/>
						<path d="M348,468.7c0,0.1-0.1,0.2-0.2,0.2c-0.1,0-0.3-0.1-0.3-0.2c0-0.1,0.1-0.2,0.2-0.2C347.8,468.5,348,468.6,348,468.7z"/>
						<ellipse transform="matrix(0.6753 -0.7375 0.7375 0.6753 -244.911 390.9633)" cx="321.6" cy="473.7" rx="0.2" ry="0.3"/>
						<path d="M325.7,473.7c0,0.1-0.1,0.2-0.2,0.2c-0.1,0-0.3-0.1-0.3-0.2c0-0.1,0.1-0.2,0.2-0.2
							C325.6,473.4,325.7,473.5,325.7,473.7z"/>
						<path d="M329.6,473.7c0,0.1-0.1,0.2-0.2,0.2c-0.1,0-0.3-0.1-0.3-0.2c0-0.1,0.1-0.2,0.2-0.2
							C329.4,473.4,329.5,473.5,329.6,473.7z"/>
						<path d="M333.4,473.7c0,0.1-0.1,0.2-0.2,0.2c-0.1,0-0.3-0.1-0.3-0.2c0-0.1,0.1-0.2,0.2-0.2
							C333.3,473.4,333.4,473.5,333.4,473.7z"/>
						<path d="M337.3,473.7c0,0.1-0.1,0.2-0.2,0.2c-0.1,0-0.3-0.1-0.3-0.2c0-0.1,0.1-0.2,0.2-0.2
							C337.1,473.4,337.3,473.5,337.3,473.7z"/>
						<path d="M341.1,473.7c0,0.1-0.1,0.2-0.2,0.2c-0.1,0-0.3-0.1-0.3-0.2c0-0.1,0.1-0.2,0.2-0.2C341,473.4,341.1,473.5,341.1,473.7
							z"/>
						<path d="M345,473.7c0,0.1-0.1,0.2-0.2,0.2c-0.1,0-0.3-0.1-0.3-0.2c0-0.1,0.1-0.2,0.2-0.2C344.9,473.4,345,473.5,345,473.7z"/>
						<path d="M348.5,473.4c0,0-0.1,0.1-0.1,0.1C348.5,473.5,348.5,473.4,348.5,473.4z"/>
					</g>
				</g>
				<g>
					<path class="st10" d="M326.3,453.8c0.2,1-0.5,1.9-1.5,1.9s-2-0.8-2.2-1.9c-0.2-1,0.5-1.9,1.5-1.9
						C325.1,452,326.1,452.8,326.3,453.8z"/>
					<path class="st10" d="M338.8,453.8c0.2,1-0.5,1.9-1.5,1.9c-1,0-2-0.8-2.2-1.9c-0.2-1,0.5-1.9,1.5-1.9
						C337.6,452,338.6,452.8,338.8,453.8z"/>
					
						<ellipse transform="matrix(0.6753 -0.7375 0.7375 0.6753 -229.3915 386.5916)" class="st11" cx="324.4" cy="453.8" rx="1.2" ry="1.4"/>
					
						<ellipse transform="matrix(0.6753 -0.7375 0.7375 0.6753 -225.3269 395.8249)" class="st11" cx="336.9" cy="453.8" rx="1.2" ry="1.4"/>
					<path class="st14" d="M337,454.1c-0.4,0-0.8-0.3-0.8-0.7c-0.1-0.3-0.9-3.6-2.3-6.7c-1.2-2.7-3.1-5.9-5.3-5.9
						c-4.2,0-3.9,10.5-3.5,12.6c0.1,0.4-0.2,0.7-0.6,0.7c-0.4,0-0.8-0.3-0.8-0.7c0-0.1-1.6-14.1,4.7-14.1c6.1,0,9.3,13.9,9.3,14.1
						C337.6,453.8,337.4,454.1,337,454.1z"/>
				</g>
			</g>
		</g>
	</g>
</g>
<g>
	<g>
		<path class="st15" d="M444.8,261.8l152.3-69.2c5.7-2.6,8.2-9.3,5.6-14.9l-39-85.8c-2.6-5.7-9.3-8.2-15-5.6l-152.3,69.2
			c-5.7,2.6-8.2,9.3-5.6,15l39,85.8C432.4,261.9,439.1,264.4,444.8,261.8z"/>
		
			<rect x="395.9" y="143.2" transform="matrix(-0.9104 0.4138 -0.4138 -0.9104 999.5331 99.5853)" class="st16" width="186.2" height="29.8"/>
		<path class="st17" d="M527.7,191.5l59.2-26.9c0.8-0.3,1.1-1.2,0.7-2l-0.2-0.4c-0.3-0.8-1.2-1.1-2-0.7l-59.2,26.9
			c-0.8,0.3-1.1,1.2-0.7,2l0.2,0.4C526.1,191.5,527,191.8,527.7,191.5z"/>
		<path class="st17" d="M541.6,194.5l48.8-22.2c0.8-0.3,1.1-1.2,0.7-2l-0.2-0.4c-0.3-0.8-1.2-1.1-2-0.7l-48.8,22.2
			c-0.8,0.3-1.1,1.2-0.7,2l0.2,0.4C540,194.5,540.9,194.8,541.6,194.5z"/>
		<path class="st17" d="M534.8,206.9l59.2-26.9c0.8-0.3,1.1-1.2,0.7-2l-0.2-0.4c-0.3-0.8-1.2-1.1-2-0.7l-59.2,26.9
			c-0.8,0.3-1.1,1.2-0.7,2l0.2,0.4C533.1,206.9,534,207.2,534.8,206.9z"/>
		<path class="st17" d="M452.7,244.2l18.6-8.5c3.3-1.5,4.8-5.4,3.3-8.7l-3-6.6c-1.5-3.3-5.4-4.8-8.7-3.3l-18.6,8.5
			c-3.3,1.5-4.8,5.4-3.3,8.7l3,6.6C445.5,244.2,449.4,245.7,452.7,244.2z"/>
	</g>
	<g>
		<path class="st18" d="M488.1,69.4l0.3,102.5c0,5.7-4.6,10.4-10.3,10.4l-162.5,0.4c-5.7,0-10.4-4.6-10.4-10.3l-0.3-102.5
			c0-5.3,4.3-9.7,9.6-9.7l163.9-0.4C483.8,59.8,488.1,64.1,488.1,69.4z"/>
		<g>
			<path class="st14" d="M461.9,157.5c0,5.3-4.2,9.5-9.5,9.6c-5.3,0-9.5-4.2-9.6-9.5c0-5.3,4.2-9.5,9.5-9.6
				C457.6,148,461.9,152.2,461.9,157.5z"/>
			<path class="st3" d="M473.7,157.5c0,5.3-4.2,9.5-9.5,9.6c-5.3,0-9.5-4.2-9.6-9.5c0-5.3,4.2-9.5,9.5-9.6
				C469.4,147.9,473.7,152.2,473.7,157.5z"/>
			<path class="st3" d="M352.7,101.5l-30.2,0.1c-1.2,0-2.1-0.9-2.1-2.1l-0.1-19.5c0-1.2,0.9-2.1,2.1-2.1l30.2-0.1
				c1.2,0,2.1,0.9,2.1,2.1l0.1,19.5C354.8,100.5,353.8,101.5,352.7,101.5z"/>
			<path class="st6" d="M467,90.5l-15.6,0c-3.6,0-6.5-2.9-6.5-6.5l0,0c0-3.6,2.9-6.5,6.5-6.5l15.6,0c3.6,0,6.5,2.9,6.5,6.5l0,0
				C473.5,87.5,470.6,90.4,467,90.5z"/>
			<g>
				<path class="st19" d="M319.2,123.2l-1.4,0.8c0,0-0.1,0.1-0.2,0.1c-0.1,0-0.2-0.1-0.3-0.2c-0.1-0.2,0-0.4,0.1-0.5l1.9-1.2
					c0.2-0.1,0.4,0,0.5,0.1c0,0.1,0.1,0.2,0,0.3l0,9.2c0,0.2-0.1,0.3-0.3,0.3c-0.2,0-0.3-0.2-0.3-0.3L319.2,123.2z"/>
				<path class="st19" d="M322.3,131.6l4.6-4.2c0.6-0.5,0.9-1.2,0.9-1.9c0-0.6-0.2-1.2-0.7-1.7c-0.5-0.6-1.2-0.8-1.9-0.8
					c-0.6,0-1.2,0.2-1.7,0.7L323,124c-0.1,0.1-0.4,0.1-0.5,0c-0.1-0.1-0.1-0.4,0-0.5l0.5-0.5c0.6-0.6,1.4-0.8,2.2-0.8
					c0.9,0,1.8,0.3,2.4,1.1c0.6,0.6,0.9,1.4,0.9,2.2c0,0.9-0.4,1.8-1.1,2.4l-4,3.6l4.7,0c0.2,0,0.3,0.2,0.3,0.4
					c0,0.2-0.2,0.3-0.3,0.3l-5.6,0h-0.1c-0.1,0-0.2,0-0.3-0.1C322.2,131.9,322.2,131.7,322.3,131.6z"/>
				<path class="st19" d="M336.7,122.8l-2.6,2.7c0.6,0.1,1.2,0.4,1.7,0.9c0.7,0.7,1,1.5,1,2.4c0,0.9-0.3,1.7-1,2.4
					c-0.7,0.7-1.5,1-2.4,1c-0.9,0-1.7-0.3-2.4-1c-0.1-0.1-0.1-0.4,0-0.5c0.1-0.1,0.4-0.1,0.5,0c0.5,0.5,1.2,0.8,1.9,0.8
					c0.7,0,1.4-0.3,1.9-0.8c0.5-0.5,0.8-1.2,0.8-1.9c0-0.7-0.3-1.4-0.8-1.9c-0.5-0.5-1.2-0.8-1.9-0.8c-0.1,0-0.2-0.1-0.3-0.1h0
					c-0.1-0.1-0.1-0.4,0-0.5l2.5-2.6l-3.8,0c-0.2,0-0.4-0.2-0.4-0.4c0-0.2,0.2-0.4,0.4-0.4l4.7,0c0.2,0,0.4,0.2,0.4,0.4
					c0,0.1,0,0.1,0,0.2C336.8,122.7,336.8,122.8,336.7,122.8z"/>
				<path class="st19" d="M345.1,130.1l-5.4,0h0h0c-0.1,0-0.2,0-0.2-0.1c-0.2-0.1-0.2-0.3,0-0.5l5.8-7.2l0,0c0.1-0.2,0.3-0.2,0.5,0
					c0.1,0,0.1,0.1,0.1,0.2c0,0,0,0,0,0.1v0l0,6.8l0.7,0c0.2,0,0.4,0.2,0.4,0.3c0,0.2-0.2,0.3-0.4,0.3l-0.7,0l0,1.7
					c0,0.2-0.2,0.3-0.4,0.3c-0.2,0-0.3-0.2-0.3-0.3L345.1,130.1z M345.1,129.4l0-5.8l-4.7,5.9L345.1,129.4z"/>
				<path class="st19" d="M357.6,131.1c-0.1-0.1-0.1-0.4,0-0.5c0.1-0.1,0.4-0.1,0.5,0c0.5,0.5,1.2,0.8,1.9,0.8
					c0.7,0,1.4-0.3,1.9-0.8c0.5-0.5,0.8-1.2,0.8-1.9c0-0.7-0.3-1.4-0.8-1.9c-0.5-0.5-1.2-0.8-1.9-0.8c-0.7,0-1.4,0.3-1.9,0.8
					c-0.1,0.1-0.4,0.1-0.5,0c0,0-0.1-0.1-0.1-0.1v0c0,0,0,0,0,0c0,0,0-0.1,0-0.1c0,0,0,0,0-0.1l0.5-4c0-0.1,0.1-0.2,0.1-0.3
					c0.1-0.1,0.1-0.1,0.2-0.1l4.6,0c0.2,0,0.4,0.2,0.4,0.4c0,0.2-0.2,0.4-0.4,0.4l-4.3,0l-0.3,3c0.5-0.3,1.1-0.5,1.7-0.5
					c0.9,0,1.7,0.3,2.4,1c0.7,0.7,1,1.5,1,2.4c0,0.9-0.3,1.7-1,2.4c-0.7,0.6-1.5,1-2.4,1C359.2,132.1,358.3,131.8,357.6,131.1z"/>
				<path class="st19" d="M367.1,124.3c0.7-1.2,1.8-2.1,3.5-2.2c0.2,0,0.3,0.1,0.4,0.3c0,0.2-0.2,0.4-0.3,0.4
					c-1.4,0.1-2.3,0.8-2.9,1.8c-0.3,0.6-0.6,1.3-0.7,2c0.6-0.7,1.5-1.1,2.5-1.1c1.8,0,3.3,1.5,3.3,3.3c0,1.8-1.5,3.3-3.3,3.3
					c-1.8,0-3.2-1.4-3.3-3.2c0-0.2,0-0.4,0-0.7C366.2,126.9,366.4,125.5,367.1,124.3z M366.9,128.8c0,0.1,0,0.1,0,0.2
					c0,0,0,0.1,0,0.1c0.2,1.3,1.3,2.2,2.6,2.2c1.5,0,2.6-1.2,2.6-2.6c0-1.4-1.2-2.6-2.6-2.6C368.1,126.2,366.9,127.4,366.9,128.8
					L366.9,128.8z"/>
				<path class="st19" d="M376.4,131.6l3.7-8.8l-4.8,0c-0.2,0-0.3-0.2-0.3-0.3c0-0.2,0.2-0.3,0.3-0.3l5.3,0c0.1,0,0.1,0,0.2,0
					c0.1,0,0.2,0.1,0.2,0.2c0,0,0,0.1,0,0.1c0,0.1,0,0.1-0.1,0.2l-3.8,9.2c-0.1,0.1-0.2,0.2-0.3,0.2c-0.1,0-0.1,0-0.1,0
					C376.5,132,376.4,131.7,376.4,131.6z"/>
				<path class="st19" d="M386.3,122.1c1.1,0,2.1,0.9,2.1,2.1c0,0.7-0.3,1.3-0.9,1.7c1.2,0.5,2,1.6,2,3c0,1.8-1.4,3.2-3.2,3.2
					c-1.8,0-3.2-1.4-3.2-3.2c0-1.3,0.8-2.5,2-3c-0.5-0.4-0.8-1-0.8-1.7C384.2,123,385.1,122.1,386.3,122.1z M386.3,131.3
					c1.4,0,2.5-1.1,2.5-2.6c0-1.4-1.1-2.5-2.6-2.5c-1.4,0-2.5,1.2-2.5,2.6C383.7,130.2,384.9,131.4,386.3,131.3z M386.3,125.5
					c0.8,0,1.4-0.6,1.4-1.4c0-0.8-0.6-1.4-1.4-1.4c-0.8,0-1.4,0.6-1.4,1.4C384.9,124.9,385.5,125.5,386.3,125.5z"/>
				<path class="st19" d="M404,122c1.7,0,3.1,1.3,3.3,2.9c0,0,0,0,0,0.1c0,0.3,0,0.6,0,0.9c0,1.3-0.3,2.8-0.9,4
					c-0.7,1.2-1.8,2.1-3.5,2.2h0c-0.2,0-0.4-0.1-0.4-0.3c0-0.2,0.1-0.4,0.3-0.4c1.4-0.1,2.3-0.8,2.9-1.8c0.3-0.6,0.6-1.3,0.7-2
					c-0.6,0.7-1.5,1.1-2.5,1.1c-1.8,0-3.3-1.4-3.3-3.3C400.7,123.5,402.2,122,404,122z M406.6,125.3c0-1.4-1.2-2.6-2.6-2.6
					c-1.4,0-2.6,1.2-2.6,2.6c0,1.5,1.2,2.6,2.6,2.6C405.5,127.9,406.6,126.7,406.6,125.3z"/>
				<path class="st19" d="M409.9,127c0-1.3,0.3-2.6,0.9-3.5c0.6-0.9,1.5-1.5,2.5-1.5c1,0,1.9,0.6,2.5,1.5c0.6,0.9,1,2.2,1,3.5
					c0,1.3-0.4,2.6-1,3.5c-0.6,0.9-1.5,1.5-2.5,1.5c-1,0-1.9-0.6-2.5-1.5C410.2,129.5,409.9,128.3,409.9,127z M410.6,127
					c0,1.2,0.3,2.3,0.8,3.1c0.5,0.8,1.2,1.2,1.9,1.2c0.7,0,1.4-0.4,1.9-1.2c0.5-0.8,0.9-1.9,0.8-3.1c0-1.2-0.3-2.3-0.9-3.1
					c-0.5-0.8-1.2-1.2-1.9-1.2c-0.7,0-1.4,0.4-1.9,1.2C410.9,124.7,410.5,125.8,410.6,127z"/>
				<path class="st19" d="M421.4,123l-1.4,0.8c0,0-0.1,0.1-0.2,0.1c-0.1,0-0.2-0.1-0.3-0.2c-0.1-0.2,0-0.4,0.1-0.5l1.9-1.2
					c0.2-0.1,0.4,0,0.5,0.1c0,0.1,0.1,0.2,0,0.3l0,9.2c0,0.2-0.1,0.3-0.3,0.3c-0.2,0-0.3-0.2-0.3-0.3L421.4,123z"/>
				<path class="st19" d="M424.5,131.3l4.6-4.2c0.6-0.5,0.9-1.2,0.9-1.9c0-0.6-0.2-1.2-0.7-1.7c-0.5-0.6-1.2-0.8-1.9-0.8
					c-0.6,0-1.2,0.2-1.7,0.7l-0.5,0.4c-0.1,0.1-0.4,0.1-0.5,0c-0.1-0.1-0.1-0.4,0-0.5l0.5-0.5c0.6-0.6,1.4-0.8,2.2-0.8
					c0.9,0,1.8,0.3,2.4,1.1c0.6,0.6,0.9,1.4,0.9,2.2c0,0.9-0.4,1.8-1.1,2.4l-4,3.6l4.7,0c0.2,0,0.3,0.2,0.3,0.4
					c0,0.2-0.2,0.3-0.3,0.3l-5.6,0l-0.1,0c-0.1,0-0.2,0-0.3-0.1C424.4,131.7,424.4,131.5,424.5,131.3z"/>
				<path class="st19" d="M447.5,122.5l-2.6,2.7c0.6,0.1,1.2,0.4,1.7,0.9c0.7,0.7,1,1.5,1,2.4c0,0.9-0.3,1.7-1,2.4
					c-0.7,0.7-1.5,1-2.4,1c-0.9,0-1.7-0.3-2.4-1c-0.1-0.1-0.1-0.4,0-0.5c0.1-0.1,0.4-0.1,0.5,0c0.5,0.5,1.2,0.8,1.9,0.8
					c0.7,0,1.4-0.3,1.9-0.8c0.5-0.5,0.8-1.2,0.8-1.9c0-0.7-0.3-1.4-0.8-1.9c-0.5-0.5-1.2-0.8-1.9-0.8c-0.1,0-0.2-0.1-0.3-0.1h0
					c-0.1-0.1-0.1-0.4,0-0.5l2.5-2.6l-3.8,0c-0.2,0-0.4-0.2-0.4-0.4c0-0.2,0.2-0.4,0.4-0.4l4.7,0c0.2,0,0.4,0.2,0.4,0.4
					c0,0.1,0,0.1,0,0.2C447.5,122.5,447.5,122.5,447.5,122.5z"/>
				<path class="st19" d="M455.9,129.8l-5.4,0h0h0c-0.1,0-0.2,0-0.2-0.1c-0.2-0.1-0.2-0.3,0-0.5l5.8-7.2l0,0c0.1-0.2,0.3-0.2,0.5,0
					c0.1,0,0.1,0.1,0.1,0.2c0,0,0,0,0,0.1v0l0,6.8l0.7,0c0.2,0,0.4,0.2,0.4,0.3c0,0.2-0.2,0.3-0.4,0.3l-0.7,0l0,1.7
					c0,0.2-0.2,0.3-0.4,0.3c-0.2,0-0.3-0.2-0.3-0.3L455.9,129.8z M455.9,129.1l0-5.8l-4.7,5.9L455.9,129.1z"/>
				<path class="st19" d="M459.8,130.9c-0.1-0.1-0.1-0.4,0-0.5c0.1-0.1,0.4-0.1,0.5,0c0.5,0.5,1.2,0.8,1.9,0.8
					c0.7,0,1.4-0.3,1.9-0.8c0.5-0.5,0.8-1.2,0.8-1.9c0-0.7-0.3-1.4-0.8-1.9c-0.5-0.5-1.2-0.8-1.9-0.8c-0.7,0-1.4,0.3-1.9,0.8
					c-0.1,0.1-0.4,0.1-0.5,0c0,0-0.1-0.1-0.1-0.1v0c0,0,0,0,0,0c0,0,0-0.1,0-0.1c0,0,0,0,0-0.1l0.5-4c0-0.1,0.1-0.2,0.1-0.3
					c0.1-0.1,0.1-0.1,0.2-0.1l4.6,0c0.2,0,0.4,0.2,0.4,0.4c0,0.2-0.2,0.4-0.4,0.4l-4.3,0l-0.3,3c0.5-0.3,1.1-0.5,1.7-0.5
					c0.9,0,1.7,0.3,2.4,1c0.7,0.7,1,1.5,1,2.4c0,0.9-0.3,1.7-1,2.4c-0.7,0.6-1.5,1-2.4,1C461.4,131.8,460.5,131.5,459.8,130.9z"/>
				<path class="st19" d="M469.3,124c0.7-1.2,1.8-2.1,3.5-2.2c0.2,0,0.3,0.1,0.4,0.3c0,0.2-0.2,0.4-0.3,0.4
					c-1.4,0.1-2.3,0.8-2.9,1.8c-0.3,0.6-0.6,1.3-0.7,2c0.6-0.7,1.5-1.1,2.5-1.1c1.8,0,3.3,1.5,3.3,3.3c0,1.8-1.5,3.3-3.3,3.3
					c-1.8,0-3.2-1.4-3.3-3.2c0-0.2,0-0.4,0-0.7C468.4,126.7,468.6,125.2,469.3,124z M469.1,128.6c0,0.1,0,0.1,0,0.2c0,0,0,0.1,0,0.1
					c0.2,1.3,1.3,2.2,2.6,2.2c1.5,0,2.6-1.2,2.6-2.6c0-1.4-1.2-2.6-2.6-2.6C470.3,125.9,469.1,127.1,469.1,128.6L469.1,128.6z"/>
			</g>
			
				<rect x="320.5" y="149.2" transform="matrix(1 -2.596282e-03 2.596282e-03 1 -0.3917 0.9456)" class="st17" width="87" height="4.3"/>
			
				<rect x="320.5" y="158.7" transform="matrix(1 -2.595579e-03 2.595579e-03 1 -0.4164 0.9124)" class="st17" width="61.6" height="4.3"/>
			<rect x="317.2" y="121.8" class="st19" width="161.1" height="10.5"/>
		</g>
	</g>
</g>
<g>
	<g>
		<g>
			<g>
				<polygon class="st20" points="571.8,421.8 598.6,612.3 580.3,627.4 429,421.8 				"/>
			</g>
		</g>
		<g>
			<g>
				<polygon class="st21" points="553.5,424.4 580.3,627.4 381.8,627.4 410.7,424.4 				"/>
			</g>
		</g>
	</g>
	<text transform="matrix(1 0 0 1 440.1699 550.2305)" class="st22 st23 st24">A&amp;Z</text>
</g>
<g>
	<path class="st25" d="M443.1,498.8l7.1-70.5c0.4-3.9,3.3-6.9,6.5-6.9l23.7,0.3l51.2,0.6c-4.5,0.7-5,5.1-5,5.1s-7.6,74.9-7.8,77.4
		l-4.8-6.8l-3.2,3.4l-1.3,1.4l-3.7-5.3l-4.5,4.8l-3.7-5.3l-4.5,4.8l-3.7-5.3l-4.5,4.8l-3.7-5.3l-4.5,4.8l-3.7-5.3l-4.5,4.8l-3.7-5.3
		l-4.5,4.8l-3.7-5.3l-4.5,4.8l-3.8-5.3L443.1,498.8z"/>
	<g>
		<path class="st26" d="M455.8,458.7l9.2,0.4c0.6,0,1.2-0.5,1.2-1.3l0.5-5.2c0.1-0.8-0.4-1.5-1.1-1.5l-9.2-0.3
			c-0.6,0-1.2,0.6-1.2,1.3l-0.5,5.1C454.6,458,455.1,458.7,455.8,458.7z"/>
		<path class="st26" d="M456.8,448.7l9.2,0.3c0.6,0,1.2-0.6,1.2-1.3l0.5-5.4c0.1-0.8-0.4-1.5-1.1-1.5l-9.2-0.2
			c-0.6,0-1.1,0.6-1.2,1.3l-0.5,5.3C455.6,448,456.1,448.7,456.8,448.7z"/>
		<path class="st26" d="M453.1,473l-0.9,9.3c-0.1,0.8,0.4,1.5,1.1,1.5l9.2,0.5c0.6,0,1.2-0.5,1.3-1.3l0.9-9.4
			c0.1-0.8-0.4-1.5-1.1-1.5l-9.2-0.4C453.7,471.7,453.2,472.2,453.1,473z"/>
	</g>
	<g>
		<path class="st26" d="M474.9,459.6l37.5,1.7c0.6,0,1.2-0.5,1.2-1.3l0.6-5.8c0.1-0.8-0.4-1.5-1.1-1.5l-37.6-1.2
			c-0.6,0-1.2,0.6-1.2,1.3l-0.5,5.3C473.8,458.9,474.2,459.6,474.9,459.6z"/>
		<path class="st26" d="M476,449.3l37.6,1.2c0.6,0,1.2-0.6,1.2-1.3l0.6-5.8c0.1-0.8-0.4-1.5-1.1-1.5l-37.6-0.8
			c-0.6,0-1.1,0.6-1.2,1.3l-0.6,5.5C474.8,448.6,475.3,449.3,476,449.3z"/>
		<path class="st26" d="M472.3,473.9l-1,9.5c-0.1,0.8,0.4,1.5,1.1,1.5l37.5,2.1c0.6,0,1.2-0.5,1.3-1.3l1-9.9
			c0.1-0.8-0.4-1.5-1.1-1.5l-37.5-1.7C472.9,472.5,472.3,473.1,472.3,473.9z"/>
	</g>
	<path class="st6" d="M480.4,421.7l51.2,0.6c-4.5,0.7-5,5.1-5,5.1s-7.6,74.9-7.8,77.4l-4.8-6.8l-3.2,3.4c-2.1-2.9-3.6-7.4-3.4-14.2
		c0.5-22.7-8.2-22.1-18.2-24c-10-1.9-13.2-16.8-8-27.5C483.4,430.8,483.1,425.7,480.4,421.7z"/>
</g>
</svg>
