<?xml version="1.0" encoding="utf-8"?>
<!-- Generator: Adobe Illustrator 25.2.1, SVG Export Plug-In . SVG Version: 6.00 Build 0)  -->
<svg version="1.1" id="Layer_1" xmlns="http://www.w3.org/2000/svg" xmlns:xlink="http://www.w3.org/1999/xlink" x="0px" y="0px"
	 viewBox="0 0 675.7 698" style="enable-background:new 0 0 675.7 698;" xml:space="preserve">
<style type="text/css">
	.st0{fill:#EBF0F2;}
	.st1{fill:#DCE3E5;}
	.st2{fill:url(#SVGID_1_);}
	.st3{fill:url(#SVGID_2_);}
	.st4{fill:#FFFFFF;}
	.st5{opacity:0.48;fill:#DEDFE0;}
	.st6{fill:#95A4AD;}
	.st7{opacity:0.45;}
	.st8{fill:none;stroke:#AFAFAF;stroke-width:2.6336;stroke-miterlimit:10;}
	.st9{fill:#666666;}
	.st10{fill:#FFFFFF;stroke:#AAB5BA;stroke-width:1.1871;stroke-miterlimit:10;}
	.st11{fill:#1A2E35;stroke:#AAB5BA;stroke-width:1.1871;stroke-miterlimit:10;}
	.st12{fill:#1A2E35;}
	.st13{fill:#4B7F7D;}
	.st14{fill:#FF4F5B;}
	.st15{fill:#ACC1C6;}
	.st16{fill:#FCC302;}
	.st17{fill:#558489;}
	.st18{fill:#E1E1E1;}
	.st19{fill:#80BFBE;}
	.st20{fill:#78B0AF;}
	.st21{fill:#FBC9CC;}
	.st22{fill:#DDE6ED;}
	.st23{fill:#C2C9CE;}
	.st24{fill:#D3EAE9;}
	.st25{opacity:0.9;}
	.st26{opacity:0.5;}
	.st27{fill:#C6CECD;}
	.st28{fill:#D5DBDA;}
</style>
<path class="st0" d="M609.2,691.9H40.4c-15.4,0-27.8-12.5-27.8-27.8V517.9c0-15.4,12.5-27.8,27.8-27.8h568.8
	c15.4,0,27.8,12.5,27.8,27.8v146.2C637,679.5,624.5,691.9,609.2,691.9z"/>
<path class="st1" d="M387.7,678.9c-7.2,0-355.6-46.5-355.6-53.8c0,0,168.8-119.9,155.6-121.1l314,5.1
	C508.9,509.1,387.7,678.9,387.7,678.9z"/>
<g>
	<g>
		
			<linearGradient id="SVGID_1_" gradientUnits="userSpaceOnUse" x1="-452.5292" y1="160.7605" x2="-469.9807" y2="2.6713" gradientTransform="matrix(-0.9943 0.1065 0.1065 0.9943 -236.9927 528.1607)">
			<stop  offset="0" style="stop-color:#FFFFFF"/>
			<stop  offset="1" style="stop-color:#E0E0E0"/>
		</linearGradient>
		<polygon class="st2" points="376.4,670.2 21.2,609.3 219.2,503 439.3,557.4 		"/>
	</g>
	<g>
		<g>
			
				<linearGradient id="SVGID_2_" gradientUnits="userSpaceOnUse" x1="-786.1849" y1="421.2788" x2="-750.6522" y2="151.0422" gradientTransform="matrix(-0.9922 0.1247 0.1247 0.9922 -526.8217 430.3947)">
				<stop  offset="0" style="stop-color:#FFFFFF"/>
				<stop  offset="1" style="stop-color:#E0E0E0"/>
			</linearGradient>
			<path class="st3" d="M42.3,596.6c56.3-28.1,205.9-89.1,205.9-89.1l219.1,6.3c0,0-27.3,61.8-68.1,105.1
				c-10.3,10.9-19.6,15.8-28,15.5c-23.8-0.9-65.7-20.3-68.2-62.3L42.3,596.6z"/>
		</g>
	</g>
	<path class="st4" d="M339.8,606.5c-6.2-26.6,3.1-50.3,3.1-50.3L39.6,570.3c0,0-8.4,5.9-8.3,18.5c0.1,12,11.2,13.9,11.2,13.9
		L365,636.8C365,636.8,347.3,638.6,339.8,606.5z"/>
	<path class="st5" d="M323.3,610.8C27.7,600.2,28.7,579.7,28.8,592.3c0.1,12,10.8,13.9,10.8,13.9l320.6,36.4c2,0.2,3.2-2.3,1.7-3.7
		C352.6,630.1,331.7,611.1,323.3,610.8z"/>
</g>
<g>
	<path class="st6" d="M209.3,222c1.1-4.1,1.8-6.4,1.9-6.5l1.8,0.5c0,0-0.8,2.4-1.8,6.3L209.3,222z"/>
	<path class="st6" d="M256.5,360.7l1-2c3.3,1.7,6.7,3.2,10.1,4.6l-0.9,2.1C263.3,364,259.8,362.4,256.5,360.7z M246.7,355.2
		c-3.3-2-6.4-4.2-9.3-6.4l1.3-1.9c2.9,2.2,5.9,4.3,9.2,6.3L246.7,355.2z M277.3,369.3l0.8-2.1c3.6,1.1,7.2,2.1,10.8,3l-0.7,2.1
		C284.6,371.4,280.9,370.4,277.3,369.3z M228.8,341.4c-1.7-1.7-3.4-3.4-4.9-5.2c-1-1.1-1.9-2.3-2.8-3.4l1.6-1.6
		c0.9,1.1,1.8,2.3,2.7,3.4c1.5,1.7,3.1,3.4,4.8,5L228.8,341.4z M299.5,374.4l0.5-2.2c3.8,0.5,7.6,0.9,11.3,1.1l-0.4,2.2
		C307.2,375.3,303.3,375,299.5,374.4z M214.8,322.9c-1.9-3.4-3.6-7.1-5-11l1.8-1.1c1.4,3.8,3.1,7.4,4.9,10.7L214.8,322.9z
		 M322.6,375.5l0.2-2.2c3.9-0.2,7.8-0.6,11.6-1.2l0,2.1C330.6,374.9,326.6,375.3,322.6,375.5z M206.2,300.1c-0.9-4-1.7-8.2-2.2-12.5
		l1.9-0.6c0.5,4.2,1.3,8.3,2.2,12.2L206.2,300.1z M346.3,371.6l-0.2-2.1c3.9-1.1,7.8-2.5,11.5-4.2l0.4,2
		C354.2,369,350.3,370.5,346.3,371.6z M203,274.8c-0.1-4.2-0.1-8.7,0.1-13.1l1.9-0.2c-0.2,4.4-0.3,8.7-0.1,12.9L203,274.8z
		 M369.3,361.4l-0.7-1.9c3.6-2.2,7.1-4.7,10.4-7.5l1,1.7C376.6,356.6,373,359.1,369.3,361.4z M204.2,248.5c0.5-4.4,1.2-8.8,2.1-13.2
		l1.9,0.1c-0.8,4.4-1.5,8.8-2,13.1L204.2,248.5z M389.8,344.5l-1.2-1.4c2.9-3.2,5.8-6.7,8.4-10.4l1.4,1.2
		C395.7,337.6,392.8,341.2,389.8,344.5z M405.7,322.2l-1.6-0.9c0.6-1,1.1-2.1,1.7-3.2c1.5-2.9,2.9-5.9,4.3-8.9l1.7,0.7
		c-1.4,3.1-2.8,6.2-4.4,9.1C406.8,320.1,406.2,321.2,405.7,322.2z M414.9,296.6c1.1-3.2,2.2-6.6,3.1-10c0.3-1,0.5-1.9,0.8-2.8
		l1.8,0.4c-0.3,0.9-0.5,1.9-0.8,2.8c-1,3.5-2,6.9-3.2,10.2L414.9,296.6z M423,270.8c1.5-4.3,3.1-8.7,4.8-12.8l1.7,0.6
		c-1.7,4.1-3.2,8.4-4.7,12.7L423,270.8z M433.2,245.4c1.3-2.9,2.8-5.7,4.2-8.5c0.7-1.3,1.3-2.5,2-3.7l1.6,0.9
		c-0.7,1.2-1.3,2.4-2,3.7c-1.4,2.7-2.8,5.6-4.2,8.4L433.2,245.4z M447.9,222.4l-1.5-1.1c2.5-3.9,5.1-7.7,7.8-11.3l1.4,1.2
		C453,214.8,450.4,218.6,447.9,222.4z M464.1,201l-1.3-1.4c3.1-3.4,6.2-6.6,9.5-9.6l1.1,1.6C470.2,194.5,467.1,197.6,464.1,201z
		 M483.4,183.3l-0.9-1.8c3.6-2.6,7.3-5,11-7l0.6,1.9C490.5,178.4,486.9,180.7,483.4,183.3z M505.4,171.3l-0.3-2.1
		c3.9-1.5,7.9-2.6,11.8-3.3l0,2.1C513.1,168.7,509.2,169.8,505.4,171.3z M575.5,192.8c-2.3-3.1-4.7-6.1-7.3-8.7l1.4-1.7
		c2.6,2.7,5.1,5.6,7.5,8.9L575.5,192.8z M528.4,167l0.3-2.2c3.9,0,7.8,0.4,11.5,1.2l-0.6,2.1C536,167.4,532.2,167,528.4,167z
		 M559.7,177c-2-1.4-4.2-2.7-6.4-3.9c0,0,0,0,0,0c-1.1-0.5-2.1-1.1-3.2-1.5l1-2c1.1,0.5,2.2,1,3.3,1.6c0,0,0,0,0,0
		c2.2,1.2,4.4,2.5,6.5,4L559.7,177z"/>
	<path class="st6" d="M584.2,208c-0.8-1.8-1.7-3.5-2.6-5.2l1.7-1.3c0.9,1.7,1.8,3.5,2.6,5.3L584.2,208z"/>
</g>
<g>
	<path class="st6" d="M251.3,121.5c1.5-4,2.5-6.2,2.5-6.3l1.8,0.6c0,0-1,2.3-2.5,6.1L251.3,121.5z"/>
	<path class="st6" d="M268.2,248.7l-1.4,1.7c2.7,2.5,5.6,5,8.6,7.3l1.3-1.8C273.7,253.6,270.8,251.2,268.2,248.7z"/>
	<path class="st6" d="M253.8,231.5l-1.7,1.4c0.8,1.3,1.6,2.5,2.4,3.7c1.3,1.9,2.8,3.8,4.3,5.6l1.6-1.6c-1.5-1.8-3-3.7-4.2-5.5
		C255.4,234,254.6,232.7,253.8,231.5z"/>
	<path class="st6" d="M325.9,282.1c3.8,0.9,7.6,1.7,11.3,2.3l0.6-2.1c-3.7-0.6-7.4-1.3-11.2-2.2L325.9,282.1z"/>
	<path class="st6" d="M304.4,274.8c3.5,1.5,7,2.9,10.6,4.1l0.9-2.1c-3.5-1.2-7-2.6-10.4-4L304.4,274.8z"/>
	<path class="st6" d="M284.5,264.2c3.1,2,6.4,3.9,9.7,5.7l1.1-2c-3.3-1.7-6.5-3.6-9.6-5.6L284.5,264.2z"/>
	<path class="st6" d="M242.9,211c1,4,2.4,7.8,3.9,11.4l1.8-1.2c-1.5-3.5-2.8-7.3-3.8-11.2L242.9,211z"/>
	<path class="st6" d="M241.5,185.8l-2,0.4c0.1,4.3,0.4,8.6,1,12.6l2-0.7C241.9,194.2,241.6,190.1,241.5,185.8z"/>
	<path class="st6" d="M249,134.6l-1.9-0.3c-1.3,4.3-2.4,8.7-3.4,13l1.9,0.1C246.6,143.2,247.7,138.9,249,134.6z"/>
	<path class="st6" d="M239.8,173.4l2-0.2c0.3-4.2,0.8-8.5,1.4-12.8l-2,0C240.6,164.8,240.1,169.1,239.8,173.4z"/>
	<path class="st6" d="M437.3,236.8c-0.7,1-1.3,2-2,3l1.5,1.1c0.7-1,1.4-2,2.1-3c1.8-2.8,3.6-5.7,5.2-8.6l-1.6-0.9
		C440.8,231.2,439,234.1,437.3,236.8z"/>
	<path class="st6" d="M476.9,159.1c-1.7,2.6-3.4,5.3-5,8l1.6,0.9c1.6-2.7,3.3-5.4,5-8c0.8-1.2,1.5-2.3,2.3-3.5l-1.5-1.1
		C478.4,156.7,477.7,157.9,476.9,159.1z"/>
	<path class="st6" d="M487.4,144.5l1.4,1.2c2.8-3.6,5.8-7,8.7-10.3l-1.3-1.4C493.2,137.4,490.2,140.9,487.4,144.5z"/>
	<path class="st6" d="M459.1,191.3l1.7,0.7c1.9-4.1,3.9-8.2,6-12.1l-1.7-0.8C463.1,183,461,187.2,459.1,191.3z"/>
	<path class="st6" d="M505.9,124.5l1.1,1.5c3.3-3,6.7-5.9,10.2-8.5l-0.9-1.7C512.7,118.5,509.3,121.4,505.9,124.5z"/>
	<path class="st6" d="M372.8,281.9l0,2.1c4.1-0.8,8.2-1.8,12.1-3.1l-0.2-2C380.8,280.2,376.8,281.2,372.8,281.9z"/>
	<path class="st6" d="M396.2,274.3l0.5,1.9c3.9-1.9,7.7-4.1,11.4-6.6l-0.8-1.8C403.7,270.3,400,272.4,396.2,274.3z"/>
	<path class="st6" d="M348.8,285.6c4,0.2,8,0.2,11.9-0.1l0.2-2.1c-3.8,0.2-7.8,0.3-11.7,0.1L348.8,285.6z"/>
	<path class="st6" d="M417.6,259.8l1.1,1.5c3.3-3,6.6-6.2,9.6-9.7l-1.3-1.3C424,253.7,420.9,256.9,417.6,259.8z"/>
	<path class="st6" d="M452.6,206.6c-1.3,3.3-2.7,6.6-4.1,9.7l1.7,0.7c1.4-3.1,2.8-6.4,4.2-9.8c0.4-0.9,0.7-1.8,1.1-2.7l-1.8-0.5
		C453.3,204.7,453,205.7,452.6,206.6z"/>
	<path class="st6" d="M625.8,145c-0.6-1.9-1.3-3.7-2.1-5.5l1.8-1.1c0.7,1.8,1.4,3.7,2.1,5.6L625.8,145z"/>
</g>
<g class="st7">
	<path class="st8" d="M655.9,196l-51.7-15.7c-3.6-1.1-7.3,1-8.4,4.5L578,243l16.9-9l45.3,13.8c3.6,1.1,7.4-0.9,8.4-4.5l11.8-38.8
		C661.5,200.9,659.5,197.1,655.9,196z"/>
	<path class="st6" d="M616.4,232.6l-2-3.3c-7.3-11.5-12-19.1-10.1-26.3c1.6-5.8,7.5-9.1,13.3-7.5c3.3,0.9,6,3.3,7.4,6.3
		c2.7-1.8,6.3-2.5,9.6-1.6c5.8,1.6,9.1,7.5,7.5,13.3c-2,7.1-10,11.2-22.2,17.3L616.4,232.6z"/>
</g>
<g class="st7">
	<g>
		
			<rect x="524.5" y="52.1" transform="matrix(0.8568 0.5156 -0.5156 0.8568 122.7947 -281.6499)" class="st4" width="88.1" height="56.3"/>
		<path class="st6" d="M585.7,125.6l-65.2-39.2c-3.7-2.2-4.9-7.1-2.7-10.8l22.9-38c2.2-3.7,7.1-4.9,10.8-2.7l65.2,39.2
			c3.7,2.2,4.9,7.1,2.7,10.8l-22.9,38C594.3,126.7,589.4,127.9,585.7,125.6z M522.6,83.3l64.8,39c2.1,1.2,4.8,0.6,6-1.5L616,83.3
			c1.2-2.1,0.6-4.8-1.5-6l-64.8-39c-2.1-1.2-4.8-0.6-6,1.5l-22.6,37.6C519.9,79.4,520.5,82.1,522.6,83.3z"/>
	</g>
	<g>
		<path class="st6" d="M610.5,81l-7.5-4.5c-0.9-0.5-1.2-1.7-0.6-2.6c0.5-0.9,1.7-1.2,2.6-0.6l7.5,4.5c0.9,0.5,1.2,1.7,0.6,2.6
			S611.3,81.5,610.5,81z"/>
	</g>
	<g>
		
			<ellipse transform="matrix(0.5156 -0.8568 0.8568 0.5156 206.6273 526.072)" class="st4" cx="568.6" cy="80.3" rx="21.6" ry="21.6"/>
		<path class="st6" d="M556.5,100.4c-11.1-6.7-14.7-21.1-8-32.2s21.1-14.7,32.2-8s14.7,21.1,8,32.2
			C582,103.5,567.6,107.1,556.5,100.4z M578.8,63.4c-9.3-5.6-21.5-2.6-27.1,6.7c-5.6,9.3-2.6,21.5,6.7,27.1
			c9.3,5.6,21.5,2.6,27.1-6.7C591.1,81.1,588.1,69,578.8,63.4z"/>
	</g>
	<g>
		
			<ellipse transform="matrix(0.3033 -0.9529 0.9529 0.3033 319.6108 597.7304)" class="st4" cx="568.6" cy="80.3" rx="15.6" ry="15.6"/>
		<path class="st6" d="M559.6,95.3c-8.3-5-10.9-15.7-6-24c5-8.3,15.7-10.9,24-6c8.3,5,10.9,15.7,6,24
			C578.6,97.6,567.8,100.2,559.6,95.3z M575.7,68.5c-6.5-3.9-15-1.8-18.9,4.7c-3.9,6.5-1.8,15,4.7,18.9c6.5,3.9,15,1.8,18.9-4.7
			C584.3,80.9,582.2,72.4,575.7,68.5z"/>
	</g>
	<g>
		<path class="st9" d="M560.7,74.2c-0.2-0.1-0.3-0.2-0.4-0.4c-0.7-0.8-0.6-1.9,0.1-2.6c3.1-2.8,7.6-3.8,11.6-2.6
			c1,0.3,1.5,1.3,1.3,2.3c-0.3,1-1.3,1.5-2.3,1.3c-2.8-0.8-5.9-0.1-8.1,1.8C562.3,74.5,561.4,74.6,560.7,74.2z"/>
	</g>
</g>
<g>
	<g>
		<g>
			<g>
				<g>
					<g>
						<g>
							<g>
								<g>
									<g>
										<g>
											<path class="st10" d="M395,77.8l-32.6,0c-4.4,0-7.9,3.7-7.9,8.3l0,5.9c0,4.6-3.5,8.3-7.9,8.3l-63.6,0
												c-4.4,0-7.9-3.7-7.9-8.3l0-5.9c0-4.6-3.5-8.3-7.9-8.3l-11.5,0l-28.6,0c-14.2,0-25.7,11.5-25.7,25.7l-0.1,411.8
												c0,14.2,11.5,25.7,25.7,25.7l167.9,0.1c14.2,0,25.7-11.5,25.7-25.7l0.1-411.8C420.7,89.3,409.2,77.8,395,77.8z"/>
										</g>
									</g>
								</g>
								<g>
									<g>
										<g>
											<g>
												<path class="st11" d="M395,77.8c0,0,0.3,0,0.9,0c0.6,0.1,1.5,0,2.6,0.2c2.3,0.3,5.7,1,9.6,3.3c2,1.1,4,2.7,5.9,4.7
													c1.9,2,3.6,4.6,4.9,7.7c1.3,3.1,2,6.6,1.9,10.4c0,3.8,0,7.8,0,12.1c0,34.2,0.1,83.7,0.1,144.9c0,61.2,0,134,0,214.8
													c0,10.1,0,20.3,0,30.7c0,2.6,0,5.2,0,7.8c0,2.6-0.2,5.3-1,7.8c-0.7,2.5-1.8,5-3.3,7.2c-1.5,2.2-3.3,4.2-5.3,5.9
													c-4.2,3.4-9.4,5.5-14.8,5.8c-5.4,0.2-10.7,0-16.1,0.1c-10.8,0-21.7,0-32.7,0c-22,0-44.4,0-67.1,0c-11.4,0-22.8,0-34.3,0
													c-5.8,0-11.5,0-17.3,0c-5.8,0.3-11.9-1.2-16.7-4.6c-4.9-3.4-8.5-8.4-10.2-14.1c-0.9-2.8-1.1-5.8-1.1-8.7
													c0-2.9,0-5.8,0-8.7c0-11.5,0-23,0-34.3c0-22.7,0-45.1,0-67.1c0-44,0-86.5,0-126.9c0-40.4,0-78.9,0.1-114.8
													c0-18,0-35.3,0-52c0-2.1,0-4.2,0-6.2c0-1,0.1-2.1,0.1-3.1c0.2-1,0.3-2.1,0.5-3.1c0.9-4,2.8-7.8,5.4-10.9
													c2.6-3.1,5.9-5.5,9.5-7.1c3.6-1.6,7.6-2.2,11.4-2.2c7.6,0,15.1,0,22.4,0c3.6,0,7.2,0,10.8,0c1.8,0,3.5,0,5.3,0
													c1.8-0.1,3.6,0.4,5.1,1.4c1.5,1,2.6,2.5,3.1,4.1c0.7,1.6,0.5,3.4,0.5,5.1c0,0.8,0,1.7,0,2.5c0,0.8,0,1.7,0.1,2.4
													c0.2,1.6,0.9,3.1,1.9,4.3c1,1.2,2.4,2.1,3.9,2.4c0.8,0.2,1.5,0.2,2.3,0.2c0.8,0,1.6,0,2.4,0c3.1,0,6.2,0,9.3,0
													c12.1,0,23.4,0,33.9,0c5.2,0,10.2,0,14.9,0c1.2,0,2.4,0.1,3.5,0c1.1-0.1,2.2-0.5,3.1-1.1c1.9-1.2,3.2-3.1,3.6-5.2
													c0.2-1,0.2-2.1,0.2-3.1c0-1,0-2.1,0-3.1c0-1,0-2,0.1-3c0.2-1,0.5-1.9,1-2.8c0.9-1.7,2.4-3,4.1-3.6
													c1.7-0.7,3.5-0.5,5.1-0.5c6.6,0,12.1,0,16.7,0c4.5,0,7.9,0,10.2,0C393.8,77.8,395,77.8,395,77.8s-1.2,0-3.5,0
													c-2.3,0-5.7,0-10.2,0c-4.5,0-10.1,0-16.7,0c-1.6,0-3.4-0.2-5,0.5c-1.6,0.6-3.1,1.9-4,3.5c-0.5,0.8-0.8,1.7-0.9,2.7
													c-0.2,0.9-0.1,1.9-0.1,3c0,1,0,2,0,3.1c0,1,0,2.1-0.2,3.2c-0.4,2.1-1.8,4.1-3.7,5.4c-1,0.6-2.1,1-3.3,1.2
													c-1.2,0.1-2.3,0-3.5,0.1c-4.7,0-9.7,0-14.9,0c-10.4,0-21.7,0-33.9,0c-3,0-6.1,0-9.3,0c-0.8,0-1.6,0-2.4,0
													c-0.8,0-1.6,0-2.4-0.2c-1.6-0.4-3.1-1.3-4.1-2.6c-1.1-1.2-1.8-2.9-2-4.5c-0.1-0.8-0.1-1.7-0.1-2.5c0-0.8,0-1.7,0-2.5
													c0-1.7,0.1-3.4-0.5-4.9c-0.5-1.6-1.6-2.9-3-3.9c-1.4-1-3.1-1.4-4.8-1.3c-1.7,0-3.5,0-5.3,0c-3.5,0-7.1,0-10.8,0
													c-7.3,0-14.7,0-22.4,0c-3.8,0-7.7,0.5-11.2,2.1c-3.5,1.6-6.8,4-9.3,7c-2.5,3-4.4,6.7-5.3,10.7c-0.3,1-0.3,2-0.5,3
													c-0.1,1-0.1,2-0.1,3.1c0,2.1,0,4.1,0,6.2c0,16.7,0,34.1,0,52c0,36,0,74.4,0,114.8c0,40.4,0,82.9,0,126.9
													c0,22,0,44.4,0,67.1c0,11.4,0,22.8,0,34.3c0,2.9,0,5.8,0,8.7c0,2.9,0.2,5.7,1,8.5c1.6,5.5,5.1,10.4,9.9,13.7
													c4.8,3.3,10.5,4.8,16.3,4.5c5.8,0,11.6,0,17.3,0c11.5,0,23,0,34.3,0c22.7,0,45.1,0,67.1,0c11,0,21.9,0,32.7,0
													c5.4,0,10.8,0.1,16.1-0.1c5.3-0.3,10.4-2.3,14.4-5.6c2-1.7,3.8-3.6,5.2-5.8c1.5-2.2,2.5-4.6,3.2-7
													c0.8-2.5,0.9-5.1,1-7.6c0-2.6,0-5.2,0-7.8c0-10.4,0-20.6,0-30.7c0-80.9,0.1-153.7,0.1-214.8
													c0.1-61.2,0.1-110.6,0.1-144.9c0-4.3,0-8.3,0-12.1c0-3.8-0.6-7.3-1.9-10.3c-1.2-3-3-5.6-4.8-7.6c-1.9-2-3.8-3.6-5.8-4.7
													c-3.9-2.3-7.3-3.1-9.6-3.4c-1.1-0.2-2-0.2-2.6-0.2C395.3,77.8,395,77.8,395,77.8z"/>
											</g>
										</g>
									</g>
								</g>
							</g>
						</g>
					</g>
				</g>
			</g>
		</g>
		<g>
			<g>
				<g>
					<g>
						<path class="st12" d="M398.3,116.4c0,0.3-5.4,0.5-12.1,0.5c-6.7,0-12.1-0.2-12.1-0.5c0-0.3,5.4-0.5,12.1-0.5
							C392.9,115.9,398.3,116.1,398.3,116.4z"/>
					</g>
				</g>
			</g>
			<g>
				<g>
					<g>
						<path class="st12" d="M395.8,120.4c0,0.3-5.4,0.5-12.1,0.5c-6.7,0-12.1-0.2-12.1-0.5c0-0.3,5.4-0.5,12.1-0.5
							C390.4,119.9,395.8,120.1,395.8,120.4z"/>
					</g>
				</g>
			</g>
			<g>
				<g>
					<g>
						<path class="st12" d="M397.1,124.1c0,0.3-5.4,0.5-12.1,0.5c-6.7,0-12.1-0.2-12.1-0.5c0-0.3,5.4-0.5,12.1-0.5
							C391.7,123.6,397.1,123.8,397.1,124.1z"/>
					</g>
				</g>
			</g>
		</g>
		<g>
			<g>
				<g>
					<g>
						<path class="st12" d="M330.3,155.2c0,0,0.3,0.1,0.9,0.3c0.6,0.2,1.5,0.5,2.6,0.9c1.1,0.5,2.5,1.1,4.1,1.8
							c1.6,0.8,3.4,1.8,5.3,3.1c3.9,2.5,8.4,6.1,12.6,11.2c2.1,2.6,4.2,5.4,6.1,8.7c1,1.6,1.8,3.4,2.7,5.1c0.7,1.8,1.6,3.7,2.2,5.7
							c2.7,7.9,3.5,17.3,1.7,26.9c-1.8,9.6-6.1,19.5-13.2,28c-3.6,4.2-7.8,8-12.7,11.1c-4.9,3.1-10.3,5.5-16.1,7.1
							c-11.6,3.1-24.6,2.9-36.6-1.4c-12-4.3-22.1-12.6-28.9-22.5c-6.8-9.9-10.7-21.2-11.2-32.3c-0.5-11,2-21.6,7-30.1
							c5-8.5,12.4-14.5,19.7-18.4c7.4-3.9,14.8-5.9,21.3-6.8c6.5-0.9,12.2-0.9,16.9-0.7c9.3,0.5,14.3,1.6,14.3,1.6s-0.3,0-0.9-0.1
							c-0.7-0.1-1.6-0.2-2.8-0.3c-2.4-0.3-6-0.7-10.6-0.8c-4.6-0.1-10.3-0.1-16.8,0.9c-6.5,1-13.8,3-21,6.9
							c-7.2,3.9-14.4,9.8-19.3,18.2c-4.9,8.3-7.4,18.8-6.8,29.6c0.5,10.8,4.3,22.1,11.1,31.8c6.7,9.7,16.6,17.9,28.4,22.1
							c11.8,4.2,24.6,4.5,36,1.4c11.4-3,21.4-9.5,28.4-17.9c7-8.3,11.4-18.1,13.1-27.5c1.8-9.5,1-18.8-1.6-26.6
							c-0.6-2-1.4-3.8-2.1-5.6c-0.9-1.8-1.6-3.5-2.6-5.1c-1.8-3.3-3.9-6.1-5.9-8.6c-4.2-5-8.6-8.6-12.4-11.2
							c-1.9-1.3-3.7-2.3-5.3-3.1c-1.6-0.8-3-1.4-4.1-1.9c-1.1-0.4-2-0.8-2.6-1C330.6,155.4,330.3,155.2,330.3,155.2z"/>
					</g>
				</g>
			</g>
		</g>
		<g>
			<g>
				<g>
					<g>
						<path class="st13" d="M370.3,302.9c0,0-0.5-0.1-1.3-0.5c-0.9-0.3-2.1-0.8-3.8-1.2c-3.3-0.9-8.4-1.7-14.5-0.8
							c-3,0.4-6.3,1.3-9.6,2.8c-1.6,0.7-3.3,1.7-5.2,2.4c-1.8,0.7-4,1.3-6.1,0.7c-4.7-1.2-5.3-7.3-9.5-8.1c-2-0.4-3.9,1.1-5.4,2.7
							c-1.6,1.6-3,3.5-5.1,5c-1,0.7-2.3,1.1-3.5,1.3c-1.3,0.1-2.5-0.1-3.6-0.5c-2.3-0.9-4.1-2.3-5.9-3.7c-1.8-1.4-3.4-2.8-5.2-3.9
							c-1.8-1.1-3.8-1.7-5.7-1.4c-1.9,0.2-3.5,1.5-4.7,3c-1.3,1.4-2.3,3-3.5,4.4c-1.2,1.4-2.5,2.7-4.1,3.5c-1.6,0.8-3.3,1.1-4.9,1.1
							c-3.2-0.1-6-1.6-7.6-3.5c-1.6-2-2.2-4.2-2.4-5.9c-0.2-1.8,0.2-3.1,0.5-4c0.3-0.9,0.6-1.3,0.6-1.3c0.2,0-1,1.8-0.7,5.2
							c0.2,1.7,0.8,3.8,2.4,5.6c1.5,1.8,4.2,3.2,7.2,3.2c1.5,0,3.1-0.3,4.5-1c1.5-0.7,2.7-1.9,3.8-3.3c1.1-1.4,2.2-3,3.5-4.5
							c1.3-1.5,3-3,5.2-3.3c2.2-0.4,4.4,0.3,6.3,1.4c1.9,1.1,3.6,2.5,5.4,3.9c1.7,1.4,3.5,2.8,5.6,3.6c1,0.4,2.1,0.5,3.2,0.5
							c1.1-0.2,2.1-0.5,3-1.2c1.9-1.3,3.3-3.2,4.9-4.8c0.8-0.8,1.7-1.7,2.7-2.3c1-0.6,2.4-0.9,3.6-0.7c1.2,0.2,2.3,0.9,3.1,1.7
							c0.8,0.8,1.5,1.7,2.1,2.6c1.2,1.7,2.5,3.4,4.4,3.9c1.9,0.5,3.8,0,5.6-0.6c1.8-0.7,3.5-1.6,5.1-2.3c3.4-1.5,6.8-2.4,9.9-2.8
							c6.3-0.8,11.4,0.2,14.7,1.2c1.7,0.5,2.9,1,3.8,1.4C369.9,302.6,370.3,302.8,370.3,302.9z"/>
					</g>
				</g>
			</g>
			<g>
				<g>
					<g>
						<path class="st13" d="M341.4,319.9c0,0.3-12.2,0.5-27.3,0.5c-15.1,0-27.3-0.2-27.3-0.5c0-0.3,12.2-0.5,27.3-0.5
							C329.2,319.4,341.4,319.6,341.4,319.9z"/>
					</g>
				</g>
			</g>
		</g>
		<g>
			<g>
				<g>
					<g>
						<g>
							<path class="st12" d="M227.3,386.8c-0.3,0-0.4-7.7-0.2-17.3c0.2-9.5,0.5-17.3,0.8-17.3c0.3,0,0.4,7.7,0.2,17.3
								C228,379.1,227.6,386.8,227.3,386.8z"/>
						</g>
					</g>
				</g>
				<g>
					<g>
						<g>
							<path class="st12" d="M391.8,388.4c0,0.3-37.6-0.1-83.9-0.8c-46.3-0.7-83.9-1.6-83.9-1.8c0-0.3,37.6,0.1,83.9,0.8
								C354.2,387.3,391.8,388.1,391.8,388.4z"/>
						</g>
					</g>
				</g>
				<g>
					<g>
						<g>
							<path class="st12" d="M391.1,349.8c0,0.3-36.3,1-81.1,1.7c-44.8,0.7-81.1,1-81.1,0.7c0-0.3,36.3-1,81.1-1.7
								C354.8,349.9,391.1,349.6,391.1,349.8z"/>
						</g>
					</g>
				</g>
				<g>
					<g>
						<g>
							<path class="st12" d="M390.4,387.5c-0.3,0-0.5-8.5-0.5-19c0-10.5,0.2-19,0.5-19s0.5,8.5,0.5,19
								C390.9,379,390.7,387.5,390.4,387.5z"/>
						</g>
					</g>
				</g>
			</g>
		</g>
		<g>
			<g>
				<g>
					<g>
						<path class="st12" d="M229.6,440c-0.1,0-0.3-7.2-0.6-16.1c-0.3-9-0.4-16.2-0.4-16.3c0.1,0,0.3,7.2,0.6,16.2
							C229.5,432.7,229.6,440,229.6,440z"/>
					</g>
				</g>
			</g>
			<g>
				<g>
					<g>
						<path class="st12" d="M262.7,408.5c0,0.3-7.6,0.5-16.9,0.5c-9.3,0-16.9-0.2-16.9-0.5c0-0.3,7.6-0.5,16.9-0.5
							C255.2,408,262.7,408.2,262.7,408.5z"/>
					</g>
				</g>
			</g>
			<g>
				<g>
					<g>
						<path class="st12" d="M263.9,437.9c-0.1,0-0.1-6.2-0.1-13.8c0-7.6,0-13.8,0.1-13.8c0.1,0,0.1,6.2,0.1,13.8
							C264,431.7,264,437.9,263.9,437.9z"/>
					</g>
				</g>
			</g>
			<g>
				<g>
					<g>
						<path class="st12" d="M264.2,439.8c0,0.3-7.7,0.5-17.1,0.5c-9.4,0-17.1-0.2-17.1-0.5s7.7-0.5,17.1-0.5
							C256.6,439.3,264.2,439.5,264.2,439.8z"/>
					</g>
				</g>
			</g>
		</g>
		<g>
			<g>
				<g>
					<g>
						<path class="st12" d="M272.3,440c-0.1,0-0.3-7.2-0.6-16.1c-0.3-9-0.4-16.2-0.4-16.3c0.1,0,0.3,7.2,0.6,16.2
							C272.2,432.7,272.4,440,272.3,440z"/>
					</g>
				</g>
			</g>
			<g>
				<g>
					<g>
						<path class="st12" d="M305.5,408.5c0,0.3-7.6,0.5-16.9,0.5c-9.3,0-16.9-0.2-16.9-0.5c0-0.3,7.5-0.5,16.9-0.5
							C297.9,408,305.5,408.2,305.5,408.5z"/>
					</g>
				</g>
			</g>
			<g>
				<g>
					<g>
						<path class="st12" d="M306.7,437.9c-0.1,0-0.1-6.2-0.1-13.8c0-7.6,0-13.8,0.1-13.8s0.1,6.2,0.1,13.8
							C306.8,431.7,306.7,437.9,306.7,437.9z"/>
					</g>
				</g>
			</g>
			<g>
				<g>
					<g>
						<path class="st12" d="M307,439.8c0,0.3-7.7,0.5-17.1,0.5c-9.4,0-17.1-0.2-17.1-0.5s7.7-0.5,17.1-0.5
							C299.3,439.3,307,439.5,307,439.8z"/>
					</g>
				</g>
			</g>
		</g>
		<g>
			<g>
				<g>
					<g>
						<path class="st12" d="M315,440c-0.1,0-0.3-7.2-0.6-16.1c-0.3-9-0.4-16.2-0.4-16.3c0.1,0,0.3,7.2,0.6,16.2
							C314.9,432.7,315.1,440,315,440z"/>
					</g>
				</g>
			</g>
			<g>
				<g>
					<g>
						<path class="st12" d="M348.2,408.5c0,0.3-7.6,0.5-16.9,0.5c-9.3,0-16.9-0.2-16.9-0.5c0-0.3,7.5-0.5,16.9-0.5
							C340.7,408,348.2,408.2,348.2,408.5z"/>
					</g>
				</g>
			</g>
			<g>
				<g>
					<g>
						<path class="st12" d="M349.4,437.9c-0.1,0-0.1-6.2-0.1-13.8c0-7.6,0-13.8,0.1-13.8s0.1,6.2,0.1,13.8
							C349.5,431.7,349.5,437.9,349.4,437.9z"/>
					</g>
				</g>
			</g>
			<g>
				<g>
					<g>
						<path class="st12" d="M349.7,439.8c0,0.3-7.7,0.5-17.1,0.5c-9.4,0-17.1-0.2-17.1-0.5s7.7-0.5,17.1-0.5
							C342.1,439.3,349.7,439.5,349.7,439.8z"/>
					</g>
				</g>
			</g>
		</g>
		<g>
			<g>
				<g>
					<g>
						<path class="st12" d="M360.1,440c-0.1,0-0.3-7.2-0.6-16.1c-0.3-9-0.4-16.2-0.4-16.3c0.1,0,0.3,7.2,0.6,16.2
							C360,432.7,360.2,440,360.1,440z"/>
					</g>
				</g>
			</g>
			<g>
				<g>
					<g>
						<path class="st12" d="M393.3,408.5c0,0.3-7.6,0.5-16.9,0.5c-9.3,0-16.9-0.2-16.9-0.5c0-0.3,7.6-0.5,16.9-0.5
							C385.8,408,393.3,408.2,393.3,408.5z"/>
					</g>
				</g>
			</g>
			<g>
				<g>
					<g>
						<path class="st12" d="M394.5,437.9c-0.1,0-0.1-6.2-0.1-13.8c0-7.6,0-13.8,0.1-13.8c0.1,0,0.1,6.2,0.1,13.8
							C394.6,431.7,394.6,437.9,394.5,437.9z"/>
					</g>
				</g>
			</g>
			<g>
				<g>
					<g>
						<path class="st12" d="M394.8,439.8c0,0.3-7.7,0.5-17.1,0.5c-9.4,0-17.1-0.2-17.1-0.5s7.7-0.5,17.1-0.5
							C387.2,439.3,394.8,439.5,394.8,439.8z"/>
					</g>
				</g>
			</g>
		</g>
		<g>
			<g>
				<g>
					<g>
						<path class="st14" d="M268.8,505.8c0,0-0.2,0.1-0.6,0.2c-0.4,0-1,0.2-1.7,0.2c-1.5,0.1-3.8-0.1-6.4-1c-2.6-0.9-5.5-2.6-8-5.2
							c-2.5-2.6-4.5-6.3-5-10.6c-0.3-4.3,1-8.3,2.9-11.3c2-3.1,4.5-5.3,6.9-6.6c2.4-1.3,4.6-1.9,6.1-2.1c0.7-0.1,1.4-0.1,1.7-0.1
							c0.4,0,0.6,0,0.6,0c0.1,0.3-3.5,0-8.1,2.8c-2.3,1.4-4.7,3.5-6.5,6.5c-1.9,2.9-3.1,6.8-2.7,10.7c0.4,4,2.3,7.5,4.6,10.1
							c2.4,2.6,5.1,4.3,7.6,5.2C265.4,506.4,268.8,505.5,268.8,505.8z"/>
					</g>
				</g>
			</g>
			<g>
				<g>
					<g>
						<path class="st14" d="M373.1,504.9c0,0.3-21.5,0.5-48,0.5c-26.5,0-48-0.2-48-0.5s21.5-0.5,48-0.5
							C351.7,504.4,373.1,504.6,373.1,504.9z"/>
					</g>
				</g>
			</g>
			<g>
				<g>
					<g>
						<path class="st14" d="M374.1,502.5c-0.1-0.1,2.2-0.5,5.3-2.7c1.6-1.1,3.3-2.8,4.7-5.2c1.4-2.3,2.3-5.4,2.2-8.8
							c-0.1-3.4-1.3-7.2-3.9-10.2c-2.6-3.1-6.5-5.2-10.9-6.3c-4.4-1.1-9.2-1.3-14.2-1.3c-5,0.1-10.2,0.1-15.5,0.2
							c-21.2,0.2-40.4,0.4-54.4,0.5c-6.9,0-12.5,0-16.5,0c-1.9,0-3.4,0-4.5,0c-1,0-1.6,0-1.6-0.1c0,0,0.5-0.1,1.6-0.1
							c1.1,0,2.6-0.1,4.5-0.1c4-0.1,9.6-0.2,16.5-0.3c14-0.2,33.2-0.5,54.4-0.8c5.3-0.1,10.5-0.1,15.5-0.2c5,0,9.9,0.2,14.5,1.4
							c4.5,1.1,8.6,3.4,11.3,6.6c2.7,3.2,3.9,7.2,4,10.7c0.1,3.6-0.9,6.7-2.4,9.1c-1.5,2.4-3.3,4.1-4.9,5.2c-1.6,1.1-3,1.7-4,2
							c-0.5,0.2-0.9,0.3-1.1,0.3C374.3,502.5,374.1,502.5,374.1,502.5z"/>
					</g>
				</g>
			</g>
			<g>
				<g>
					<g>
						<path class="st12" d="M367.8,489.3c0,0-0.4,0.1-1.1,0.2c-0.8,0.1-1.9,0.1-3.2,0.2c-2.9,0.2-7,0.4-11.9,0.7
							c-10.2,0.5-24,1.2-39.3,2c-4.4,0.2-8.9,0.4-13-1c-2-0.7-3.8-1.7-5.6-2.3c-1.8-0.6-3.7-0.8-5.3-0.2c-3.3,1.2-5.7,4.3-9,5.1
							c-3.3,1.1-7-2-5.9-4.9l0.3,0.4c-1.5,0.1-2.6,1-3.3,2.1c-0.7,1-0.8,2.2-0.6,3.1l-0.4,0c0-1.3,0-2.3,0.1-3.2
							c0-0.7,0.1-1.1,0.1-1.1c0,0,0.1,0.4,0.1,1.1c0,0.8,0.1,1.9,0.1,3.2l0.1,1.7l-0.4-1.6c-0.3-1-0.2-2.3,0.5-3.4
							c0.7-1.1,1.9-2.3,3.7-2.4l0.5,0l-0.2,0.5c-0.4,1.1,0.1,2.4,1.2,3.2c1,0.9,2.5,1.1,4,0.7c1.5-0.4,2.9-1.3,4.2-2.3
							c1.4-1,2.8-2.2,4.7-2.9c1.9-0.7,4-0.5,5.9,0.2c1.9,0.6,3.7,1.6,5.6,2.3c3.8,1.4,8.2,1.2,12.6,1c15.3-0.7,29.1-1.3,39.3-1.7
							c4.9-0.2,9-0.3,11.9-0.4c1.3,0,2.4,0,3.2-0.1C367.4,489.3,367.8,489.3,367.8,489.3z"/>
					</g>
				</g>
			</g>
		</g>
		<g>
			<g>
				<g>
					<path class="st14" d="M380.5,520.9c0,0.3-29,0.5-64.7,0.5c-35.7,0-64.7-0.2-64.7-0.5c0-0.3,29-0.5,64.7-0.5
						C351.6,520.4,380.5,520.7,380.5,520.9z"/>
				</g>
			</g>
		</g>
		<g>
			<g>
				<g>
					<g>
						<path class="st12" d="M238,115.3c0.1,0,0.3,1.3,0.5,3.5c0.2,2.2,0.5,5.4,0.7,9.2l0,0.4l-0.4,0c-3.1,0.4-6.5,0.8-10.1,1.2
							c-2.5,0.3-4.9,0.5-7.1,0.8l-0.5,0.1l0-0.5c-0.2-4.6-0.3-8.5-0.3-11.4c0-2.8,0-4.5,0.1-4.5c0.1,0,0.3,1.6,0.5,4.4
							c0.2,2.8,0.4,6.7,0.7,11.3l-0.5-0.4c2.2-0.3,4.6-0.5,7.1-0.8c3.6-0.4,7.1-0.8,10.1-1.1l-0.4,0.5c-0.2-3.8-0.3-7-0.4-9.2
							C237.9,116.6,237.9,115.3,238,115.3z"/>
					</g>
				</g>
			</g>
			<g>
				<g>
					<g>
						<path class="st12" d="M229.2,106.5c0.2,0.2-3.5,3-7.9,6.6c-4.4,3.6-7.9,6.6-8.1,6.4c-0.2-0.2,3-3.6,7.5-7.2
							C225.1,108.7,229.1,106.3,229.2,106.5z"/>
					</g>
				</g>
			</g>
			<g>
				<g>
					<g>
						<path class="st12" d="M244.5,119.1c-0.2,0.2-3.7-2.5-8-5.9c-4.2-3.5-7.5-6.5-7.3-6.7c0.2-0.2,3.7,2.5,8,5.9
							C241.4,115.9,244.7,118.9,244.5,119.1z"/>
					</g>
				</g>
			</g>
		</g>
	</g>
	<g>
		<g>
			<g>
				
					<rect x="286.6" y="7.2" transform="matrix(0.9957 9.257269e-02 -9.257269e-02 0.9957 3.6506 -28.1002)" class="st15" width="36.2" height="36.2"/>
			</g>
		</g>
	</g>
	<g>
		<g>
			
				<rect x="124" y="27.4" transform="matrix(0.9957 9.256773e-02 -9.256773e-02 0.9957 4.7495 -12.89)" class="st16" width="34.7" height="34.7"/>
		</g>
	</g>
	<g>
		<g>
			<g>
				<path class="st6" d="M172.7,126.5c0,0.1-1.2,0.1-3.3,0.2c-2.3,0.1-5.3,0.1-9,0.2c-1.9,0-4,0.3-6.2,0.3c-2.3,0-4.7-0.3-7.2-1.2
					c-2.4-0.9-4.8-2.5-6.3-5c-1.5-2.4-2.2-5.4-2.5-8.2c-1.2-11.6-2.1-22.1-2.7-29.7c-0.3-3.7-0.5-6.7-0.7-9
					c-0.1-2.1-0.2-3.3-0.1-3.3c0.1,0,0.2,1.2,0.5,3.3c0.3,2.3,0.6,5.3,1,9c0.8,7.7,1.8,18.1,3,29.6c0.4,2.8,1,5.6,2.4,7.9
					c1.3,2.3,3.5,3.8,5.8,4.7c2.3,0.9,4.7,1.1,6.9,1.2c2.2,0.1,4.3-0.1,6.2-0.1c3.8,0,6.9,0,9,0.1
					C171.5,126.4,172.7,126.5,172.7,126.5z"/>
			</g>
		</g>
	</g>
	<g>
		<g>
			<g>
				<path class="st6" d="M169.3,131.5c-0.2-0.2,1.8-2.7,5-5.2c0.1-0.1,0.2-0.2,0.3-0.3l0.1,0.8c-3.4-1.8-5.5-4.1-5.3-4.3
					c0.2-0.2,2.4,1.7,5.7,3.4l0.7,0.3l-0.6,0.5c-0.1,0.1-0.2,0.2-0.3,0.3C171.8,129.5,169.5,131.7,169.3,131.5z"/>
			</g>
		</g>
	</g>
	<g>
		<g>
			
				<rect x="102.8" y="317.9" transform="matrix(0.9957 9.257215e-02 -9.257215e-02 0.9957 31.4891 -9.622)" class="st16" width="33.4" height="33.4"/>
		</g>
	</g>
	<g>
		<g>
			<rect x="104.7" y="173.1" class="st17" width="33.4" height="33.4"/>
		</g>
	</g>
	<g>
		<g>
			
				<rect x="104.7" y="217.7" transform="matrix(0.9979 -6.536054e-02 6.536054e-02 0.9979 -15.0602 8.4375)" class="st18" width="33.4" height="33.4"/>
		</g>
	</g>
	<g>
		<g>
			<g>
				<g>
					<path class="st6" d="M144.7,333.1c-0.1-0.1,1.3-1,3.7-2.8c2.4-1.8,5.6-4.6,9.2-8.6c3.5-4,7.2-9.2,10.1-15.6
						c2.9-6.3,5.1-13.9,5.6-21.9c0.5-8.1-0.8-15.8-3.6-22.2c-2.8-6.4-7.2-11.2-11.6-14.2c-4.3-3-8.5-4.3-11.4-4.9
						c-2.9-0.5-4.6-0.5-4.6-0.6c0,0,0.4-0.1,1.2-0.1c0.8,0,2,0,3.4,0.3c3,0.4,7.3,1.7,11.8,4.7c4.5,3,9.1,7.8,12,14.4
						c3,6.5,4.3,14.5,3.8,22.7c-0.5,8.2-2.8,15.8-5.8,22.3c-3,6.4-6.8,11.7-10.4,15.6c-3.6,4-7,6.7-9.5,8.4
						c-1.2,0.9-2.2,1.5-2.9,1.9C145.1,332.9,144.7,333.1,144.7,333.1z"/>
				</g>
			</g>
		</g>
		<g>
			<g>
				<g>
					<path class="st6" d="M155.6,335.8c0,0.3-5.3,0.8-11.9,1.2l0,0l-0.6,0l0.1-0.6c0.8-6.5,1.7-11.8,2-11.8c0.3,0-0.2,5.4-1,11.9
						l-0.5-0.6l0,0C150.2,335.6,155.6,335.5,155.6,335.8z"/>
				</g>
			</g>
		</g>
	</g>
	<g>
		<g>
			<g>
				<g>
					<path class="st6" d="M234.9,199.4c0,0.3-19.3,0.5-43.1,0.5c-23.8,0-43.1-0.2-43.1-0.5c0-0.3,19.3-0.5,43.1-0.5
						C215.6,198.9,234.9,199.1,234.9,199.4z"/>
				</g>
			</g>
		</g>
		<g>
			<g>
				<g>
					<path class="st6" d="M230.7,205.6c-0.2-0.2,2.1-3.2,5.1-6.8c0.1-0.1,0.2-0.2,0.2-0.3l0.1,0.7c-3.9-2.4-6.8-4.4-6.7-4.7
						c0.1-0.2,3.3,1.5,7.2,3.8l0.5,0.3l-0.4,0.4c-0.1,0.1-0.2,0.2-0.2,0.3C233.5,203,230.9,205.8,230.7,205.6z"/>
				</g>
			</g>
		</g>
	</g>
	<g>
		<g>
			<g>
				<g>
					<path class="st6" d="M432.5,426c0,0.3-8,0.5-18,0.5c-9.9,0-18-0.2-18-0.5c0-0.3,8-0.5,18-0.5
						C424.4,425.5,432.5,425.8,432.5,426z"/>
				</g>
			</g>
		</g>
		<g>
			<g>
				<g>
					<path class="st6" d="M430.3,435.1c-0.1,0,0-1,0.5-2.6c0.5-1.6,1.4-3.7,2.9-5.8l0,0.5c-0.1-0.3-0.3-0.6-0.4-0.8
						c-2.5-4.9-5.7-8-5.5-8.2c0.2-0.2,3.8,2.8,6.4,7.8c0.2,0.3,0.3,0.6,0.4,0.9l0.1,0.3l-0.2,0.3
						C431.5,431.3,430.6,435.2,430.3,435.1z"/>
				</g>
			</g>
		</g>
	</g>
	<g>
		<g>
			<g>
				
					<rect x="441.5" y="406.1" transform="matrix(0.9979 -6.535918e-02 6.535918e-02 0.9979 -27.1504 31.3807)" class="st16" width="49.1" height="49.1"/>
			</g>
		</g>
	</g>
	<g>
		<g>
			<g>
				<g>
					<path class="st6" d="M470.9,454.9c0,0,0.1,0.4,0.1,1.2c0.1,0.9,0.1,2.1,0.2,3.5c0.2,3,0.3,7.5,0.5,12.9
						c0.1,5.5,0.2,12,0.2,19.2c0,3.6-0.1,7.4-0.2,11.3c-0.1,2,0,4-0.4,6c-0.4,2-1.3,4.2-3.2,5.5c-1.8,1.3-4,1.8-6,2.1
						c-2,0.3-4,0.5-6,0.7c-3.9,0.4-7.7,0.7-11.3,0.9c-7.2,0.4-13.7,0.4-19.2,0.2c-5.5-0.2-9.9-0.5-12.9-0.8
						c-1.5-0.1-2.7-0.3-3.5-0.4c-0.8-0.1-1.2-0.2-1.2-0.2c0,0,0.4,0,1.2,0c0.9,0.1,2.1,0.1,3.5,0.2c3,0.2,7.4,0.4,12.9,0.5
						c5.4,0.1,11.9,0,19.1-0.4c3.6-0.2,7.4-0.5,11.3-0.9c1.9-0.2,3.9-0.4,5.9-0.7c2-0.3,4-0.8,5.5-1.9c1.6-1.2,2.4-3,2.8-4.9
						c0.4-1.9,0.4-3.9,0.4-5.9c0.1-3.9,0.2-7.7,0.2-11.3c0.1-7.2,0.1-13.7,0.1-19.1c-0.1-5.4-0.1-9.7-0.1-12.9c0-1.4,0-2.6,0-3.5
						C470.8,455.3,470.9,454.9,470.9,454.9z"/>
				</g>
			</g>
		</g>
		<g>
			<g>
				<g>
					<path class="st6" d="M419.2,527.8c-0.1,0.1-1.7-0.9-4.3-2.5c-2.6-1.6-6.4-3.6-10.7-5.6l-0.7-0.3l0.6-0.5c0.3-0.3,0.7-0.6,1-0.9
						c3.8-3.4,7.3-6.4,9.9-8.6c2.6-2.2,4.2-3.4,4.3-3.3c0.1,0.1-1.4,1.6-3.8,3.9c-2.4,2.3-5.9,5.4-9.7,8.8c-0.3,0.3-0.7,0.6-1,0.9
						l-0.1-0.8c4.4,2,8.1,4.2,10.7,5.9C417.8,526.5,419.3,527.7,419.2,527.8z"/>
				</g>
			</g>
		</g>
	</g>
	<g>
		<g>
			<g>
				<g>
					<path class="st14" d="M382.2,101.8c0,0,1.9-0.6,5.3-0.1c3.3,0.6,8.3,2.5,12.2,7.4c1.9,2.4,3.4,5.6,3.8,9.2
						c0.2,1.8,0.1,3.7-0.2,5.6c-0.4,1.9-1,3.8-1.9,5.6c-1.8,3.7-4.7,7-8.6,9.3c-3.9,2.3-8.6,3.2-13.3,2.6c-4.7-0.5-9.1-2.4-12.6-5.2
						c-3.5-2.8-6-6.5-7.3-10.3c-1.4-3.9-1.6-7.9-0.9-11.4c0.7-3.6,2.4-6.7,4.6-8.9c2.2-2.2,4.6-3.7,6.9-4.5c2.3-0.8,4.4-1.1,6.1-1
						c1.7,0,3,0.4,3.9,0.6c0.8,0.3,1.3,0.5,1.3,0.5c0,0.2-1.8-0.8-5.1-0.8c-1.7,0-3.7,0.3-5.9,1.2c-2.2,0.9-4.6,2.3-6.6,4.5
						c-2.1,2.1-3.6,5.1-4.3,8.5c-0.6,3.4-0.3,7.3,1,11c1.3,3.7,3.7,7.2,7.1,9.9c3.3,2.7,7.6,4.5,12.1,5c4.5,0.5,9-0.3,12.7-2.5
						c3.7-2.1,6.5-5.3,8.3-8.9c0.9-1.8,1.5-3.6,1.9-5.4c0.3-1.8,0.4-3.6,0.2-5.4c-0.3-3.5-1.8-6.5-3.6-8.9
						c-3.7-4.8-8.4-6.8-11.7-7.5C384.1,101.5,382.2,101.9,382.2,101.8z"/>
				</g>
			</g>
		</g>
		<g>
			<g>
				<g>
					<path class="st14" d="M431,76.7c0.1,0,0,0.7-0.2,2c-0.2,1.3-0.7,3.1-1.6,5.3c-1.7,4.4-5.2,10.1-11,14.5
						c-5.8,4.4-12.3,6.2-17,6.5c-2.3,0.2-4.2,0.1-5.6,0c-1.3-0.1-2-0.3-2-0.4c0-0.2,2.9,0.2,7.5-0.4c4.5-0.6,10.8-2.4,16.5-6.6
						c5.6-4.2,9.1-9.8,10.9-14C430.5,79.6,430.9,76.7,431,76.7z"/>
				</g>
			</g>
		</g>
		<g>
			<g>
				<g>
					<path class="st14" d="M434.5,80c-0.2,0.1-1.9-2-3.8-4.9l0.8,0.1c-0.1,0.1-0.2,0.2-0.2,0.2c-2.5,2.6-4.7,4.5-4.9,4.3
						c-0.2-0.2,1.7-2.4,4.2-5c0.1-0.1,0.2-0.2,0.2-0.2l0.4-0.4l0.3,0.5C433.4,77.4,434.8,79.8,434.5,80z"/>
				</g>
			</g>
		</g>
	</g>
	<g>
		<g>
			<g>
				<g>
					<g>
						<path class="st14" d="M234.5,105.7c0,0,0.4,0.1,1.2,0.3c0.8,0.3,2,0.7,3.3,1.6c2.6,1.7,6,5.4,7.2,11.2
							c0.6,2.8,0.4,6.1-0.8,9.3c-1.1,3.2-3.2,6.3-6,8.9c-2.8,2.6-6.4,4.6-10.4,5.6c-4,1-8.5,1.1-12.7-0.3c-4.2-1.3-7.9-4.2-10-7.7
							c-2.2-3.6-3.1-7.6-3-11.4c0.1-3.8,1.2-7.4,3-10.3c1.8-2.9,4.2-5.1,6.6-6.6c4.9-3.1,9.6-3.8,12.8-3.9c1.6,0,2.8,0.1,3.6,0.2
							c0.8,0.1,1.3,0.2,1.2,0.3c0,0.1-1.7-0.3-4.9-0.1c-3.1,0.2-7.7,1-12.4,4.1c-2.3,1.5-4.6,3.7-6.3,6.4c-1.7,2.8-2.7,6.2-2.8,9.9
							c0,3.6,0.8,7.5,2.9,10.9c2.1,3.4,5.5,6,9.5,7.3c4,1.3,8.3,1.3,12.1,0.3c3.9-0.9,7.3-2.9,10-5.4c2.7-2.5,4.7-5.4,5.8-8.5
							c1.1-3.1,1.4-6.2,0.8-8.9c-1-5.5-4.2-9.2-6.7-11C236.2,106.1,234.4,105.9,234.5,105.7z"/>
					</g>
				</g>
			</g>
			<g>
				<g>
					<g>
						<path class="st14" d="M306.2,58.4c0,0,0.1,0.3,0.1,1c0,0.6,0.1,1.6,0.1,2.8c0,2.5-0.2,6.1-1,10.4c-0.8,4.4-2.3,9.5-4.9,14.8
							c-2.6,5.3-6.2,10.7-11,15.6c-4.8,4.8-10.3,8.5-15.6,11c-5.3,2.6-10.4,4.1-14.8,4.9c-4.4,0.8-8,1-10.4,1
							c-1.2,0-2.2-0.1-2.8-0.1c-0.6,0-1-0.1-1-0.1c0-0.1,1.4-0.1,3.8-0.1c2.5-0.1,6-0.4,10.3-1.3c8.5-1.7,20.2-6.4,29.8-15.9
							c9.5-9.5,14.2-21.2,15.9-29.8c0.9-4.3,1.2-7.9,1.3-10.3C306.1,59.8,306.1,58.4,306.2,58.4z"/>
					</g>
				</g>
			</g>
		</g>
		<g>
			<g>
				<g>
					<path class="st14" d="M314.5,65.9c-0.2,0.2-3.7-4.2-7.8-9.9l0.8,0c-0.1,0.2-0.2,0.4-0.4,0.7c-3.7,6.4-6.8,11.5-7.1,11.3
						c-0.2-0.1,2.5-5.4,6.2-11.8c0.1-0.2,0.3-0.4,0.4-0.7l0.4-0.7l0.4,0.6C311.6,61.2,314.7,65.8,314.5,65.9z"/>
				</g>
			</g>
		</g>
	</g>
</g>
<g>
	<g>
		<g>
			<polygon class="st4" points="400.6,297.8 398.6,304.2 370.8,306.5 386.2,277.8 393.2,283.1 396,290.8 			"/>
		</g>
	</g>
	<g>
		<g>
			<polygon class="st19" points="382.5,305.6 377.6,293.9 370.8,306.5 			"/>
		</g>
	</g>
	<g>
		<g>
			<polygon class="st20" points="551,217.1 542.3,198.4 386.2,277.8 398.6,304.2 			"/>
		</g>
	</g>
	<g>
		<g>
			<polygon class="st21" points="530.4,225.8 537.1,225.6 551,217.1 542.3,198.4 527.2,206.4 527.8,222 			"/>
		</g>
	</g>
	<g>
		<g>
			<polygon class="st4" points="528.8,223.1 528.5,223.4 396.3,299.2 395.9,298.5 527.9,222.9 524.1,215.5 390.3,286.5 390,285.8 
				524.4,214.4 			"/>
		</g>
	</g>
	<g>
		<g>
			<polygon class="st13" points="537.1,225.8 526.9,206 515.9,211.9 526,231.4 			"/>
		</g>
	</g>
</g>
<g>
	<path class="st22" d="M439.5,31.9c10.4-8.7,5.5-19.6,0.7-23.3c-9.1-7-22.2-5.4-29.2,3.7c-10.5,11.6-28.8,25.4-26.9,34.8
		S433.4,40.6,439.5,31.9z"/>
	<path class="st22" d="M461,47.7c5.8-12.2,17.6-10.2,22.4-6.5c9.1,7,10.8,20.1,3.7,29.2c-8.6,13.1-17.4,34.3-26.9,34.8
		C450.7,105.8,454.1,55.8,461,47.7z"/>
	<circle class="st23" cx="473.8" cy="56.5" r="15.5"/>
	<circle class="st23" cx="427.4" cy="20.6" r="15.5"/>
	<g>
		<path class="st24" d="M445.3,37.2l5.1-2.9c0.4-0.2,0.4-0.8,0.1-1l-3.6-2.8c-0.4-0.3-0.9-0.1-1,0.3l-1.5,5.7
			C444.3,37.1,444.8,37.5,445.3,37.2z"/>
		<path class="st24" d="M448.6,42.5l-1.5,5.7c-0.1,0.4-0.6,0.6-1,0.3l-3.6-2.8c-0.4-0.3-0.3-0.8,0.1-1l5.1-2.9
			C448.2,41.5,448.7,41.9,448.6,42.5z"/>
		<path class="st24" d="M454.4,44.3l5.1-2.9c0.4-0.2,0.4-0.8,0.1-1l-3.6-2.8c-0.4-0.3-0.9-0.1-1,0.3l-1.5,5.7
			C453.4,44.1,454,44.6,454.4,44.3z"/>
	</g>
	<path class="st4" d="M422,13.1l4.8,3.7l3.7-4.8c0.7-0.9,2.1-1.1,3-0.4l0.6,0.5c0.9,0.7,1.1,2.1,0.4,3l-3.7,4.8l4.8,3.7
		c0.9,0.7,1.1,2.1,0.4,3l-0.5,0.6c-0.7,0.9-2.1,1.1-3,0.4l-4.8-3.7l-3.7,4.8c-0.7,0.9-2.1,1.1-3,0.4l-0.6-0.5
		c-0.9-0.7-1.1-2.1-0.4-3l3.7-4.8l-4.8-3.7c-0.9-0.7-1.1-2.1-0.4-3l0.5-0.6C419.8,12.5,421.1,12.3,422,13.1z"/>
	<g class="st25">
		<circle class="st4" cx="480.3" cy="61.5" r="4.1"/>
		<circle class="st4" cx="467.3" cy="51.4" r="4.1"/>
		<circle class="st4" cx="468.8" cy="63" r="4.1"/>
		<circle class="st4" cx="479" cy="50.1" r="4.1"/>
	</g>
</g>
<g class="st26">
	<g>
		<path class="st6" d="M262.8,229c-0.5,0-1.1-0.2-1.5-0.6c-0.9-0.8-1-2.2-0.1-3.2l27.9-30.2c0.4-0.5,1-0.7,1.6-0.7c0,0,0,0,0,0
			c0.6,0,1.2,0.3,1.6,0.7l25.1,27.1l21-13.2c0.7-0.5,1.6-0.5,2.4,0l18.3,11.4c1,0.6,1.4,2,0.7,3.1c-0.7,1-2,1.4-3.1,0.7l-17.2-10.6
			l-21.4,13.4c-0.9,0.6-2.1,0.4-2.8-0.4l-24.7-26.7l-26.3,28.4C264,228.8,263.4,229,262.8,229z"/>
	</g>
	<g>
		<path class="st6" d="M322.6,204.1c-5,0-9-4.2-9-9.3c0-5.1,4.1-9.3,9-9.3c5,0,9,4.2,9,9.3C331.7,199.9,327.6,204.1,322.6,204.1z
			 M322.6,189.9c-2.5,0-4.6,2.2-4.6,4.9c0,2.7,2.1,4.9,4.6,4.9c2.5,0,4.6-2.2,4.6-4.9C327.2,192.1,325.2,189.9,322.6,189.9z"/>
	</g>
</g>
<g>
	<g>
		<g>
			<path class="st27" d="M595.9,449.8l-54,8.6c-3.1,0.5-5.1,3.4-4.7,6.4l8.8,55.4c0.5,3.1,3.4,5.1,6.4,4.7l54-8.6
				c3.1-0.5,5.1-3.4,4.7-6.4l-8.8-55.4C601.9,451.4,599,449.3,595.9,449.8z"/>
		</g>
	</g>
	<g>
		<g>
			<path class="st4" d="M584,467.5c0.5,2.8,3.1,4.8,6,4.3c2.8-0.5,4.8-3.1,4.3-6c-0.5-2.8-3.1-4.8-6-4.3S583.6,464.7,584,467.5z"/>
		</g>
		<g>
			<path class="st4" d="M545.6,473.6c0.5,2.8,3.1,4.8,6,4.3c2.8-0.5,4.8-3.1,4.3-6c-0.5-2.8-3.1-4.8-6-4.3
				C547.1,468.1,545.2,470.8,545.6,473.6z"/>
		</g>
		<g>
			<path class="st4" d="M551.7,511.6c0.5,2.8,3.1,4.8,6,4.3c2.8-0.5,4.8-3.1,4.3-6c-0.5-2.8-3.1-4.8-6-4.3
				C553.2,506.1,551.2,508.8,551.7,511.6z"/>
		</g>
		<g>
			<path class="st4" d="M592.1,505.2c0.5,2.8,3.1,4.8,6,4.3c2.8-0.5,4.8-3.1,4.3-6c-0.5-2.8-3.1-4.8-6-4.3S591.7,502.3,592.1,505.2z
				"/>
		</g>
	</g>
</g>
<g>
	<g>
		<g>
			<path class="st28" d="M547,484.8L494,471.4c-3-0.8-6.1,1.1-6.8,4.1l-13.7,54.4c-0.8,3,1.1,6.1,4.1,6.8l53.1,13.4
				c3,0.8,6.1-1.1,6.8-4.1l13.7-54.4C551.9,488.6,550,485.6,547,484.8z"/>
		</g>
	</g>
	<g>
		<g>
			<path class="st4" d="M505.6,509.1c-0.7,2.8,1,5.6,3.8,6.3c2.8,0.7,5.6-1,6.3-3.8c0.7-2.8-1-5.6-3.8-6.3
				C509.1,504.6,506.3,506.3,505.6,509.1z"/>
		</g>
		<g>
			<path class="st4" d="M529.1,496.4c-0.7,2.8,1,5.6,3.8,6.3c2.8,0.7,5.6-1,6.3-3.8c0.7-2.8-1-5.6-3.8-6.3
				C532.6,491.9,529.8,493.6,529.1,496.4z"/>
		</g>
		<g>
			<path class="st4" d="M491.4,486.9c-0.7,2.8,1,5.6,3.8,6.3c2.8,0.7,5.6-1,6.3-3.8c0.7-2.8-1-5.6-3.8-6.3
				C494.9,482.4,492.1,484.1,491.4,486.9z"/>
		</g>
		<g>
			<path class="st4" d="M482,524.2c-0.7,2.8,1,5.6,3.8,6.3c2.8,0.7,5.6-1,6.3-3.8c0.7-2.8-1-5.6-3.8-6.3
				C485.5,519.7,482.7,521.4,482,524.2z"/>
		</g>
		<g>
			<path class="st4" d="M521.7,534.2c-0.7,2.8,1,5.6,3.8,6.3c2.8,0.7,5.6-1,6.3-3.8c0.7-2.8-1-5.6-3.8-6.3
				C525.2,529.7,522.4,531.4,521.7,534.2z"/>
		</g>
	</g>
</g>
</svg>
