<?xml version="1.0" encoding="utf-8"?>
<!-- Generator: Adobe Illustrator 25.2.0, SVG Export Plug-In . SVG Version: 6.00 Build 0)  -->
<svg version="1.1" id="Layer_1" xmlns="http://www.w3.org/2000/svg" xmlns:xlink="http://www.w3.org/1999/xlink" x="0px" y="0px"
	 viewBox="0 0 2540 1499.6" style="enable-background:new 0 0 2540 1499.6;" xml:space="preserve">
<style type="text/css">
	.st0{fill:#EBF0F2;}
	.st1{fill:#B3BEC6;}
	.st2{fill:#4F3569;}
	.st3{fill:#FFFFFF;}
	.st4{fill:#E3D4EB;}
	.st5{fill:#A4EBEB;}
	.st6{fill:#FFAF3D;}
	.st7{fill:#8D9DAA;}
	.st8{fill:#DDE6ED;}
	.st9{fill:#B1E3E2;}
	.st10{fill:#666666;}
	.st11{fill:#88CFCD;}
	.st12{fill:#5AA6A5;}
	.st13{fill:#FFC1A7;}
	.st14{fill:#EAAD96;}
	.st15{fill:#383838;}
	.st16{fill:#A28EAF;}
	.st17{fill:#81708E;}
	.st18{fill:#2C1D3B;}
	.st19{fill:#342145;}
	.st20{fill:#B3A3C1;}
	.st21{fill:#C6C0CE;}
	.st22{fill:#252228;}
	.st23{fill:#E5E5E5;}
	.st24{fill:#5A5A5A;}
	.st25{fill:#CBCBCB;fill-opacity:0.2;}
	.st26{fill:#80BFBE;}
	.st27{fill:#FFFFFF;stroke:#DDDDDD;stroke-miterlimit:10;}
	.st28{fill:#78B0AF;}
	.st29{fill:#D1EBF2;}
	.st30{fill:#4B7F7D;}
	.st31{fill:#3D3D3D;fill-opacity:0.15;}
	.st32{fill:#5C5263;}
	.st33{fill:#48434C;}
</style>
<path class="st0" d="M47.4,1392.8h2310.2c18.6,0,33.8,15.1,33.8,33.8v22.4c0,18.6-15.1,33.8-33.8,33.8H47.4
	c-18.6,0-33.8-15.1-33.8-33.8v-22.4C13.6,1408,28.7,1392.8,47.4,1392.8z"/>
<ellipse class="st1" cx="574.5" cy="1381" rx="550.1" ry="29.4"/>
<ellipse class="st1" cx="1996.3" cy="1376.8" rx="412.5" ry="45.9"/>
<path class="st2" d="M978.5,1381.9H17.7v-18l123.7-97.9L17.7,1164v-18.6h960.9c65.3,0,118.2,52.9,118.3,118.2l0,0
	C1096.8,1329,1043.9,1381.9,978.5,1381.9C978.5,1381.9,978.5,1381.9,978.5,1381.9z"/>
<path class="st3" d="M978.5,1363.4c55.1-0.1,99.8-44.8,99.7-99.9c0-1.6,0-3.2-0.1-4.8c-2.6-53.6-48.9-94.7-102.5-94.7h-958
	c37.8,56.2,40.5,128.9,6.8,187.7l-6.8,11.8H978.5z"/>
<rect x="76.4" y="1212.4" class="st4" width="563.6" height="7.2"/>
<rect x="76.4" y="1311.3" class="st4" width="412.3" height="7.2"/>
<rect x="60.9" y="1262.2" class="st4" width="808.1" height="7"/>
<path class="st5" d="M2268.9,1390.3h-700.3v-13.2l90.1-71.3l-90.1-74.4v-13.5h700.3c47.6,0,86.2,38.6,86.2,86.2l0,0
	C2355.1,1351.7,2316.5,1390.3,2268.9,1390.3C2268.9,1390.3,2268.9,1390.3,2268.9,1390.3z"/>
<path class="st3" d="M2268.9,1376.8c40.2,0,72.7-32.7,72.7-72.8c0-1.2,0-2.3-0.1-3.5c-1.9-39-35.6-69-74.7-69h-698.2
	c27.6,40.9,29.5,94,4.9,136.8l-4.9,8.6L2268.9,1376.8z"/>
<rect x="1611.5" y="1266.8" class="st4" width="410.7" height="5.3"/>
<rect x="1611.5" y="1338.9" class="st4" width="300.5" height="5.3"/>
<rect x="1600.2" y="1303.1" class="st4" width="588.9" height="5.1"/>
<path class="st6" d="M1827.3,1215.3h601.9v-13.6l-77.5-73.8l77.5-76.9v-14h-601.9c-40.9,0-74.1,39.9-74.1,89.2l0,0
	C1753.2,1175.3,1786.4,1215.3,1827.3,1215.3z"/>
<path class="st3" d="M1827.3,1201.3c-35.5,0-64.2-35.8-62.4-79c1.7-40.4,30.6-71.4,64.2-71.4h600.1c-23.7,42.3-25.4,97.2-4.2,141.5
	l4.2,8.9L1827.3,1201.3z"/>
<rect x="2134.1" y="1087.4" class="st4" width="258.3" height="5.4"/>
<rect x="2134.1" y="1162" class="st4" width="258.3" height="5.4"/>
<rect x="1895.9" y="1125" class="st4" width="506.2" height="5.3"/>
<path class="st7" d="M340.4,658.2c48-5.7,81.7,2.7,97.5,8.2l21.8,7.6l16.3-94.6l-15-5.7c-15.3-5.8-59.1-18.5-134-9.7
	c-83.6,9.8-152.1,46-198.3,104.7C82.5,727.5,63.2,803,73.1,887.1c10.1,85.8,45.6,154.2,102.9,198c54.4,41.6,124.7,58.7,203.3,49.4
	c67.5-7.9,117.2-27.6,141.3-43.4l13.2-8.7l-34.3-88l-20.1,12.9c-23.2,14.9-60.6,26.8-97.5,31.1c-111.5,13.1-186.3-49.1-200.1-166.3
	C167.7,751.5,226.9,671.5,340.4,658.2z"/>
<path class="st7" d="M892.8,889c-15.6-43.8-37.5-74.7-65.6-92.5c44.8-33.9,66.9-85.2,60.1-142.9c-5.3-45.6-26.7-83.5-60-106.5
	c-39.7-28.3-91.3-36.9-167.3-28c-48.3,5.7-96.9,15.6-130,26.5l-15.2,5l63.7,542.4l105.2-12.3l-26.1-222.7l42.7-5
	c44.5-3.4,71.3,7.2,94.3,74.9c26.5,75,40.9,109.8,51.5,124l6.8,9l112.3-13.2l-18.8-26.8C934.7,1003.8,915.2,951,892.8,889z
	 M783,673.5c5.7,48.2-27.8,82.5-87.3,89.5l-48.5,5.7l-17.9-152.2c15.1-3.7,30.3-6.4,45.8-8.1C740.8,601.5,777.1,623.4,783,673.5z"/>
<polygon class="st7" points="1075.2,804 1275,780.6 1264,686.8 1064.2,710.3 1049.7,586.7 1260.9,561.9 1249.8,467.4 933.4,504.5 
	998.3,1057.4 1326.2,1018.9 1315.1,924.4 1092.4,950.5 "/>
<polygon class="st7" points="1676,509.8 1832.4,491.5 1886.1,949 1992.1,936.6 1938.3,479 2095.4,460.6 2084.3,365.3 1664.9,414.5 
	"/>
<polygon class="st7" points="2280.3,806.4 2263.1,659.9 2462.9,636.5 2451.9,542.7 2252.1,566.2 2237.5,442.6 2448.8,417.8 
	2437.7,323.3 2121.3,360.4 2186.2,913.3 2514,874.8 2503,780.3 "/>
<path class="st8" d="M313.8,645.9c48-5.6,81.7,2.7,97.5,8.2l21.8,7.6l16.3-94.6l-15.1-5.7c-15.3-5.8-59.1-18.5-134-9.7
	c-83.6,9.8-152.1,46-198.3,104.8c-46.2,58.8-65.5,134.3-55.6,218.5c10.1,85.8,45.6,154.2,102.9,198c54.4,41.6,124.7,58.7,203.3,49.4
	c67.5-7.9,117.3-27.6,141.3-43.4l13.3-8.7l-34.3-88L452.8,995c-23.2,14.9-60.6,26.8-97.5,31.1C243.8,1039.2,169,977,155.2,859.7
	C141.1,739.1,200.3,659.2,313.8,645.9z"/>
<path class="st8" d="M865.4,887.2c-15.6-43.8-37.5-74.7-65.6-92.5c44.8-33.9,66.9-85.2,60.1-142.9c-5.4-45.6-26.7-83.5-60-106.5
	c-39.7-28.3-91.3-36.9-167.3-28c-48.3,5.7-96.9,15.6-130,26.5l-15.2,5l63.7,542.4l105.2-12.3l-26.2-222.7l42.7-5
	c44.5-3.4,71.3,7.3,94.3,74.9c26.5,75,40.9,109.8,51.5,123.9l6.8,9l112.3-13.2l-18.8-26.8C907.4,1002,887.8,949.2,865.4,887.2z
	 M755.6,671.7c5.7,48.2-27.8,82.5-87.3,89.5l-48.5,5.7L602,614.7c15.1-3.7,30.3-6.4,45.7-8.1C713.4,599.7,749.7,621.6,755.6,671.7
	L755.6,671.7z"/>
<polygon class="st8" points="1050.7,788.2 1250.5,764.7 1239.5,671 1039.7,694.5 1025.2,570.8 1236.4,546 1225.3,451.5 908.9,488.7 
	973.8,1041.6 1301.7,1003.1 1290.6,908.5 1067.9,934.7 "/>
<polygon class="st8" points="1652.3,498 1808.6,479.6 1862.3,937.2 1968.3,924.8 1914.6,467.2 2071.7,448.8 2060.5,353.5 
	1641.1,402.7 "/>
<polygon class="st8" points="2257.3,795.1 2240.1,648.6 2439.9,625.1 2428.9,531.4 2229.1,554.8 2214.6,431.2 2425.8,406.4 
	2414.7,311.9 2098.3,349.1 2163.2,901.9 2491.1,863.4 2480,768.9 "/>
<polygon class="st3" points="1411.6,523 1434.1,515.8 1434.7,517.9 1412.2,525 "/>
<polygon class="st3" points="1404.1,496.9 1426.6,489.8 1427.2,491.8 1404.7,499 "/>
<polygon class="st3" points="1396.3,472.4 1418.8,465.2 1419.4,467.3 1396.9,474.4 "/>
<polygon class="st3" points="1388.5,447.8 1411.5,440.6 1412.1,442.6 1389.1,449.9 "/>
<polygon class="st3" points="1380.7,423.3 1404.1,415.8 1404.7,417.8 1381.3,425.3 "/>
<path class="st7" d="M1372.5,1034.1c-0.7,0.1-1.4,0.1-2.1,0c-4.5-0.5-8.1-4-8.6-8.5l-8.7-74.6c-0.2-1.4,0-2.8,0.4-4.1l128.9-401.5
	c1.7-5.1,7.2-7.8,12.3-6c4.9,1.7,7.6,7,6.1,12l-128.3,399.5l3.4,29l138.3-417.8c1.8-5,7.4-7.6,12.4-5.8c4.8,1.8,7.5,7,6,11.9
	l-152,459.4C1379.4,1031.2,1376.2,1033.7,1372.5,1034.1z"/>
<path class="st7" d="M1834.4,980.6c-3.7,0.4-7.4-1.3-9.4-4.6L1572,563.6c-2.7-4.6-1.1-10.6,3.5-13.3c4.5-2.6,10.2-1.2,13,3.1
	l230.2,375.1l-3.4-29L1599,540c-2.8-4.6-1.3-10.5,3.3-13.3c4.6-2.8,10.5-1.3,13.3,3.3l0,0L1833,891.4c0.7,1.2,1.2,2.5,1.3,3.9
	l8.6,74.6c0.5,4.5-2.2,8.8-6.4,10.3C1835.8,980.4,1835.1,980.5,1834.4,980.6z"/>
<path class="st7" d="M1729.1,808.2L1729.1,808.2l-117.2,13.5c-5,0.6-9.8-4.7-10.6-11.8s2.6-13.3,7.6-13.9l0,0l117.2-13.5
	c5-0.6,9.8,4.7,10.6,11.8S1734.1,807.6,1729.1,808.2z"/>
<path class="st7" d="M1557,828L1557,828l-118.4,13.7c-5,0.6-9.8-4.7-10.6-11.8s2.6-13.3,7.6-13.9l0,0l118.4-13.6
	c5-0.6,9.8,4.7,10.6,11.8S1562,827.4,1557,828z"/>
<path class="st7" d="M1782.1,802.1L1782.1,802.1l-19.4,2.2c-5,0.6-9.8-4.7-10.6-11.8s2.6-13.3,7.6-13.9l0,0l19.4-2.2
	c5-0.6,9.8,4.7,10.6,11.8S1787.2,801.5,1782.1,802.1z"/>
<path class="st7" d="M1404.9,845.5L1404.9,845.5l-19.4,2.2c-5,0.6-9.8-4.7-10.6-11.8s2.6-13.3,7.6-13.9l0,0l19.4-2.2
	c5-0.6,9.8,4.7,10.6,11.8S1409.9,844.9,1404.9,845.5z"/>
<path class="st7" d="M1566.4,580.3h-0.1c-46.5,0-84.2-37.8-84.2-84.3c0-46.5,37.8-84.2,84.3-84.2c46.5,0,84.2,37.8,84.2,84.3
	C1650.6,542.6,1612.9,580.2,1566.4,580.3z M1550,439.4c-33.9,3.9-58.2,34.6-54.2,68.4c3.9,33.9,34.6,58.2,68.4,54.2l1.2,9.1
	l-1.1-9.1c33.9-4,58.1-34.6,54.2-68.5C1614.5,459.7,1583.9,435.5,1550,439.4L1550,439.4z"/>
<circle class="st7" cx="1547.7" cy="500.9" r="70.9"/>
<path class="st9" d="M1547.8,589.4h-0.1c-46.5,0-84.3-37.8-84.2-84.3c0-46.5,37.8-84.3,84.3-84.2s84.3,37.8,84.2,84.3
	C1632,551.7,1594.3,589.4,1547.8,589.4z M1540.2,448.5c-29.5,3.4-50.7,30.1-47.2,59.6c3.4,29.5,30.1,50.7,59.6,47.2l1,7.9l-0.9-7.9
	c29.5-3.4,50.6-30.1,47.2-59.7C1596.4,466.2,1569.7,445.1,1540.2,448.5z"/>
<path class="st3" d="M1572.9,503.7c1.8,16-9.6,30.4-25.6,32.3c-16,1.8-30.4-9.6-32.3-25.6c-1.8-16,9.6-30.4,25.6-32.3
	C1556.6,476.3,1571.1,487.8,1572.9,503.7C1572.9,503.7,1572.9,503.7,1572.9,503.7z"/>
<path class="st10" d="M1547.4,536L1547.4,536c-21.8,0-39.3-17.6-39.3-39.3s17.6-39.3,39.3-39.3c21.7,0,39.3,17.6,39.3,39.3
	C1586.6,518.4,1569.1,536,1547.4,536z M1540.6,478.2c-11,0.7-19.4,10.2-18.7,21.2s10.2,19.4,21.2,18.7c0.7,0,1.4-0.1,2.1-0.2
	l1.1,9.1l-1.1-9.1c10.9-1.9,18.2-12.2,16.3-23.1C1559.8,484.7,1550.8,477.6,1540.6,478.2z"/>
<path class="st7" d="M1595.7,391L1595.7,391l-105.6,12.2c-5,0.6-9.5-3-10.1-8l-6-51.7c-0.6-5,3-9.5,8-10.1l0,0l105.6-12.2
	c5-0.6,9.5,3,10.1,8l6,51.7C1604.3,385.9,1600.7,390.4,1595.7,391L1595.7,391z"/>
<path class="st7" d="M1567.6,428L1567.6,428l-42.4,4.9c-5,0.6-9.5-3-10.1-8l-4.7-40.6c-0.6-5,3-9.5,8-10.1l0,0l42.4-4.9
	c5-0.6,9.5,3,10.1,8l4.7,40.6C1576.1,422.8,1572.6,427.4,1567.6,428z"/>
<polygon class="st7" points="1610.7,863.1 1560.5,868.9 1552.1,796.4 1602.3,790.5 1606.5,826.8 "/>
<path class="st9" d="M1611.7,872.2L1611.7,872.2l-50.2,5.8c-5,0.6-9.5-3-10.1-8c0,0,0,0,0,0l-8.4-72.6c-0.6-5,3-9.5,8-10.1l0,0
	l50.2-5.8c5-0.6,9.5,3,10.1,8l8.4,72.6C1620.3,867.1,1616.8,871.6,1611.7,872.2z M1568.5,858.8l32-3.7l-6.3-54.4l-32,3.7
	L1568.5,858.8z"/>
<path class="st9" d="M1727.3,818.6L1727.3,818.6l-117.2,13.5c-5,0.6-9.8-4.7-10.6-11.8s2.6-13.3,7.6-13.9l0,0l117.2-13.5
	c5-0.6,9.8,4.7,10.6,11.8S1732.3,818,1727.3,818.6z"/>
<path class="st9" d="M1555.2,838.4L1555.2,838.4l-118.4,13.7c-5,0.6-9.8-4.7-10.6-11.8s2.6-13.3,7.6-13.9l0,0l118.4-13.7
	c5-0.6,9.8,4.7,10.6,11.8S1560.2,837.9,1555.2,838.4z"/>
<path class="st8" d="M1780.4,812.5L1780.4,812.5l-19.4,2.2c-5,0.6-9.8-4.7-10.6-11.8s2.6-13.3,7.6-13.9l0,0l19.4-2.2
	c5-0.6,9.8,4.7,10.6,11.8S1785.4,811.9,1780.4,812.5z"/>
<path class="st9" d="M1403.1,856L1403.1,856l-19.4,2.2c-5,0.6-9.8-4.7-10.6-11.8s2.6-13.3,7.6-13.9l0,0l19.4-2.2
	c5-0.6,9.8,4.7,10.6,11.8S1408.1,855.4,1403.1,856z"/>
<path class="st9" d="M1382.4,1018.9c-0.7,0.1-1.3,0.1-2,0c-4.3-0.4-7.6-3.8-8.2-8l-8.2-70.4c-0.2-1.3,0-2.6,0.4-3.8l121.7-379.1
	c1.6-4.8,6.7-7.5,11.5-5.9c4.8,1.5,25.2,14.2,30.1,15.8c4.8,1.6,7.4,6.8,5.8,11.6L1390,1012.8
	C1388.9,1016.1,1385.9,1018.5,1382.4,1018.9z"/>
<path class="st8" d="M1818.4,968.4c-3.5,0.4-7-1.3-8.9-4.3l-238.9-389.4c-2.6-4.3-1.3-9.9,3-12.6c0,0,0,0,0,0
	c4.3-2.6,21.3-19.7,25.6-22.3c4.3-2.6,9.9-1.2,12.6,3.1L1817,884.2c0.7,1.1,1.1,2.4,1.2,3.7l8.2,70.4c0.5,4.3-2,8.3-6.1,9.7
	C1819.7,968.2,1819.1,968.3,1818.4,968.4z"/>
<path class="st9" d="M1575.9,394.8L1575.9,394.8l-105.6,12.2c-5,0.6-9.5-3-10.1-8l-6-51.7c-0.6-5,3-9.5,8-10.1l0,0l105.6-12.3
	c5-0.6,9.5,3,10.1,8l6,51.7C1584.5,389.7,1580.9,394.2,1575.9,394.8L1575.9,394.8z"/>
<path class="st9" d="M1554.1,439.1L1554.1,439.1L1508,444c-5.5,0.6-10.4-3-11-8l-5.1-40.7c-0.6-5,3.3-9.5,8.7-10.1l0,0l46.2-4.9
	c5.5-0.6,10.4,3,11,8l5.1,40.6C1563.5,433.9,1559.7,438.5,1554.1,439.1C1554.2,439.1,1554.2,439.1,1554.1,439.1z"/>
<g>
	<path class="st9" d="M494.1,527.5L266.2,196.6L24.4,385.7L494.1,527.5z M330.2,409.2l-158.5-45.7l77.7-59.8L330.2,409.2z"/>
	<polygon class="st3" points="364,382.6 384.3,368 385.5,369.8 365.2,384.3 	"/>
	<polygon class="st3" points="349.1,361.6 369.7,346.9 370.9,348.7 350.2,363.3 	"/>
	<polygon class="st3" points="334.1,340.6 355.2,325.7 356.4,327.5 335.3,342.4 	"/>
	<polygon class="st3" points="319.1,319.6 340.6,304.6 341.8,306.4 320.3,321.4 	"/>
	<polygon class="st3" points="304.2,298.6 325.9,283.2 327.1,284.9 305.4,300.4 	"/>
	<polygon class="st3" points="289.2,277.7 311.3,262 312.5,263.8 290.4,279.4 	"/>
	<polygon class="st3" points="274.3,256.7 296.6,240.6 297.8,242.4 275.5,258.4 	"/>
	<polygon class="st3" points="259.3,235.7 282.1,219.6 283.3,221.4 260.5,237.4 	"/>
</g>
<g>
	<polygon class="st11" points="472.2,557.8 458,541.2 460.6,539 472.6,553 486.6,541 488.8,543.6 	"/>
	<path class="st11" d="M438.7,518.5l-19.4-22.7l2.6-2.2l19.3,22.7L438.7,518.5z M400,473.2l-19.4-22.6l2.6-2.2l19.4,22.7L400,473.2z
		"/>
	<polygon class="st11" points="361.3,427.9 347.1,411.2 363.7,397.1 365.9,399.6 351.8,411.6 363.8,425.7 	"/>
	<path class="st11" d="M383,385l-2.2-2.6l17.1-14.6l2.2,2.5L383,385z M417.2,355.8l-2.2-2.5l17.1-14.7l2.2,2.6L417.2,355.8z"/>
	<path class="st11" d="M451.5,326.5l-2.2-2.5l17.1-14.6l2.2,2.5L451.5,326.5z M485.7,297.3l-2.2-2.6l17.1-14.6l2.2,2.5L485.7,297.3z
		 M519.9,268.1l-2.2-2.5l17.1-14.6l2.2,2.6L519.9,268.1z"/>
	<polygon class="st11" points="580.2,240.9 568.2,226.8 554.1,238.8 552,236.3 568.6,222.1 582.8,238.7 	"/>
	<path class="st11" d="M657.6,331.5l-19.3-22.7l2.6-2.2l19.3,22.7L657.6,331.5z M618.9,286.2l-19.3-22.7l2.6-2.2l19.3,22.7
		L618.9,286.2z"/>
	<polygon class="st11" points="677.1,382.8 674.9,380.2 689,368.2 677,354.2 679.5,352 693.7,368.6 	"/>
	<path class="st11" d="M608.6,441.3l-2.2-2.5l17.1-14.6l2.2,2.6L608.6,441.3z M642.9,412l-2.2-2.5l17.1-14.6l2.2,2.5L642.9,412z"/>
	<path class="st11" d="M505.9,529l-2.2-2.5l17.1-14.6l2.2,2.6L505.9,529z M540.2,499.7l-2.2-2.5l17.1-14.6l2.2,2.5L540.2,499.7z
		 M574.4,470.5l-2.2-2.6l17.1-14.6l2.2,2.5L574.4,470.5z"/>
	
		<rect x="557.5" y="213.5" transform="matrix(0.7604 -0.6494 0.6494 0.7604 -9.5788 422.9294)" class="st12" width="21.8" height="21.8"/>
	
		<rect x="680.4" y="357.5" transform="matrix(0.7604 -0.6494 0.6494 0.7604 -73.6166 537.28)" class="st12" width="21.8" height="21.8"/>
	
		<rect x="461.5" y="544.5" transform="matrix(0.7604 -0.6494 0.6494 0.7604 -247.5135 439.8882)" class="st12" width="21.8" height="21.8"/>
	
		<rect x="338.6" y="400.5" transform="matrix(0.7604 -0.6494 0.6494 0.7604 -183.4614 325.5479)" class="st12" width="21.8" height="21.8"/>
	<path class="st8" d="M458,425.4l-0.5-0.4l-0.2-2.7l0.4-0.5c1.7-0.1,3.3-0.3,4.9-0.7c0.8-0.3,1.4-0.8,1.9-1.5c1.2-2.2,2.2-4.5,3-6.9
		l4.7-12.3l12.2-33.2c2.3-6.5,4.5-13,6.8-19.5l3.4-0.2l25.8,51.2l3.4,6.8c1,1.9,2.2,4,3.4,6.3c0.7,1.4,1.6,2.8,2.6,4
		c0.5,0.4,1.1,0.7,1.7,0.9c1.4,0.2,2.9,0.3,4.3,0.1l0.4,0.4l0.2,2.7l-0.4,0.5c-3.7-0.1-7.1,0-10,0.2c-5.8,0.5-11.6,1.1-17.4,1.6
		l-0.4-0.4l-0.2-2.7l0.4-0.4c2.5-0.1,4.9-0.5,7.3-1c0.9-0.2,1.4-1,1.3-1.9c-0.1-1-0.4-2.1-0.9-3l-7.5-15.6l-30.3,2l-4.8,13.8
		c-0.7,1.7-1.1,3.5-1.2,5.4c0.1,0.9,0.7,1.6,1.5,1.8c1,0.4,3.4,0.4,7.2,0.2l0.5,0.4l0.2,2.7l-0.4,0.4c-4.5,0-8.5,0.1-11.9,0.3
		C465.8,424.5,461.9,424.9,458,425.4z M480,394.5l26.5-1.7L491.3,362L480,394.5z"/>
	<path class="st8" d="M548,383.5l-2.1-0.4l-0.4-0.5c0-0.6,0-1.3-0.1-2.2l-0.3-4.3c2.9-2.2,6-4.2,9.2-5.9c2.6-1.3,5.5-2,8.4-2.2
		c5.4-0.4,9.8,0.8,13.1,3.4c3.3,2.6,5.1,6.4,5.5,11.2l0.4,10.5l1,15.6c0,1.3,0.2,2.5,0.7,3.7c0.3,0.5,0.8,0.9,1.4,1.1
		c1.1,0.2,2.3,0.3,3.4,0.3l0.4,0.4l0.1,2.1l-0.4,0.4c-2.7-0.1-4.9,0-6.4,0c-1.5,0.1-3.7,0.4-6.8,0.8l-0.8-0.7l-0.3-8.5l-6.4,5.7
		c-2.2,2-3.7,3.3-4.5,4c-1.9,0.9-4.1,1.5-6.2,1.6c-4.2,0.3-7.5-0.6-10-2.7c-2.6-2.2-4.1-5.4-4.2-8.8c-0.4-3.5,0.5-7,2.5-9.9
		c1.9-2.6,4.9-4.8,9-6.5c4.1-1.7,10.2-3.4,18.4-5c-0.1-1.9-0.4-3.7-0.8-5.5c-0.4-1.6-1.3-3.1-2.4-4.2c-1.2-1.3-2.8-2.3-4.5-2.8
		c-1.9-0.6-3.9-0.8-5.9-0.7c-1.1,0.1-2.2,0.2-3.3,0.5c-1,0.2-2,0.6-3,1.1c-0.6,0.3-1.1,0.6-1.7,1c-0.3,0.3-0.4,0.6-0.5,1
		c-0.1,0.2-0.4,1.1-1,2.6c-0.4,1.1-0.8,2.2-1.1,3.3L548,383.5z M572.8,390.1c-8,1.8-13.6,3.8-16.7,5.9c-3.1,2.1-4.6,5.3-4.3,9.5
		c0,2.3,0.9,4.5,2.6,6.1c1.7,1.4,3.9,2,6.1,1.8c4.7-0.3,9.1-3.3,13.3-9L572.8,390.1z"/>
</g>
<polygon class="st9" points="1050.7,788.2 1250.5,764.7 1239.5,671 1039.7,694.5 908.9,488.7 973.8,1041.6 1301.7,1003.1 
	1290.6,908.5 1067.9,934.7 "/>
<g>
	<path class="st13" d="M934.8,524.4c2.8-5.5,15.7-5.2,19-15.4c3.3-10.2,1.1-23.5,1.3-29.8c0.1-6.4-2.1-10.3-6.2-13.1
		s-6.7,11.3-12.7,10c-6-1.4-13.2-0.3-15.4,5.5c-2.2,5.8-3.1,19.4-5,30.6C915.8,512.1,932.1,529.9,934.8,524.4z"/>
	
		<rect x="652.2" y="634.6" transform="matrix(4.482673e-02 -0.999 0.999 4.482673e-02 -103.2786 1355.0394)" class="st2" width="9.5" height="193.8"/>
	<path class="st13" d="M500.3,874.2c0,0-9.6,19.5-17.1,81c-7.5,61.5,22,167,22.4,177.8s-11.5,9-10.4,23.6c0,0,80.4-0.8,79.7-2
		c-3.4-6.9-24.2-16.4-40.9-20.3s42.2-119.2,45.6-246.9L500.3,874.2z"/>
	<path class="st13" d="M603.8,870.8c0,0-9.6,19.5-17.1,81s22.1,167,22.4,177.8s-11.5,9-10.4,23.6c0,0,80.4-0.8,79.7-2
		c-3.4-6.9-24.2-16.4-40.9-20.3c-16.7-3.9,42.2-119.2,45.6-247L603.8,870.8z"/>
	<path class="st14" d="M682.7,893l-84.9-3.9c-3.3,12.6-7.5,32.6-11.1,62.7c-7.5,61.5,22,167,22.4,177.8c0.3,7.7-5.7,9-8.7,14.5
		c1.7-0.6,3.5-1.2,5.6-2c21-8.3,1.7-54.2-5.9-88c-7.6-33.8-7.8-98.9,13.4-110.2c20.6-11,59.2-20.9,69.4-48.5
		C682.7,894.5,682.7,893.8,682.7,893z"/>
	<path class="st14" d="M579.2,898.1c-6.7-3.3-18.6-9.3-32-16.1l-46.9-7.7c0,0-9.6,19.5-17.1,81c-7.5,61.5,22,167,22.4,177.8
		c0.3,8.1-6.3,9.1-9.2,15.3c2.8-0.8,5.6-1.4,8.5-1.8c14.7-2,6.8-34.3-3.2-84.7c-10-50.4-13.1-133.2,5.8-145.2
		c17.3-11,48.1,0.4,71.3-11.9C578.9,902.5,579,900.3,579.2,898.1z"/>
	<path class="st15" d="M598.7,1153.2c0,0,80.4-0.8,79.7-2c-2.7-5.4-15.7-12.3-29.3-16.9l0,0c1.4,11.1-24.2,9.2-45.2,5.4
		C601,1142.4,598.1,1145.6,598.7,1153.2z"/>
	<path class="st16" d="M732.1,430.2c0,0-197.6,107.3-303.9,372.9c39.4,80.5,191.7,143.8,273.1,131.1c0,0-13.7-61.3,31.1-169.6
		s51.5-224.3,45.3-286.5L732.1,430.2z"/>
	<path class="st17" d="M762.6,470.6l6.3-1.7l8.7,9.2c6.3,62.2-0.5,178.1-45.3,286.5c-44.7,108.3-31.1,169.6-31.1,169.6
		c-16.9,2.6-36.9,2-58.3-1.5c0.2-28.8,4.7-67.9,20.2-115.8C698.7,707.3,761,598.4,762.6,470.6z"/>
	<path class="st17" d="M761,434.2c0,0-12.7-10.4-28.9-4c-8.6,11.2,22.5,47.6,45.5,48c1.2-0.8,7.9-9,0.1-23.7L761,434.2z"/>
	<path class="st18" d="M870.8,399.1c0,0-16.5,12.2-19.5,15c-3,2.8-29,20.1-32.3,23.2s-16.7,6.9-20.7,9.2c-4,2.3-30.8-9.1-33.2-9.5
		s-2.2-1.6,0.1-15c-38.5-18.3-30.2-76.1,9-97.1c39.2-21,50.5,5,64.6-0.6c14.1-5.6,31.3-10.5,48.3-0.8c17,9.8,22.2,25.8,14.1,22
		c4.2,17-3.9,40.3-23,41.2L870.8,399.1z"/>
	<path class="st18" d="M777.7,323c-1.2,0.6-2.4,1.2-3.6,1.8c-39.2,21-47.4,78.9-9,97.1c-2.3,13.4-2.5,14.6-0.1,15
		c1.5,0.2,12.1,4.6,21,7.4c1-0.9,2.2-2,3.7-3.4c8.6-8.6,19-15,20.6-16.8c1.7-1.8,4-10.2,4-10.2l-14.8-3.2
		c-37.8-7-38.2-48.3-15.7-62.3C796.2,340.7,788.4,330.4,777.7,323z"/>
	<path class="st13" d="M805.1,416.5c-11.8-5.4-6.9-15.4-0.2-19.2c6.6-3.8,13,2,10,7.6c-1.2,5.8,5.8,6.4,13.5-1
		c16.1,9.3,42.2-4.2,46.7-19.6c0,0,2.6-0.8,5.2-4.6c-3.6,17.2-16.7,28.7-28.6,40c-11.8,11.4-9.9,20-26.2,32.9
		c-16.3,12.8-32.9,9.2-36.8-1.9c-3.9-11.1-13.8,11.4-13.8,11.4c-15.5-1.4-34.1-24.3-27.6-31.9c14.4-4.1,17.8-8.4,17.8-8.4
		C771.9,440.4,805.5,434.7,805.1,416.5z"/>
	<path class="st4" d="M807.6,405.1c-2.6-0.1-4.8,1.9-4.9,4.5c0.8-2,3-3.1,5.1-2.6c-0.2,1.5-0.8,3-1.9,4.1c4.7-2.4,4.9-7.8,0.3-10
		C807,402.2,807.5,403.6,807.6,405.1C807.6,405.1,807.6,405.1,807.6,405.1z"/>
	
		<ellipse transform="matrix(0.9851 -0.1719 0.1719 0.9851 -43.2659 137.2126)" class="st19" cx="770.4" cy="318.4" rx="39.7" ry="39.7"/>
	<path class="st18" d="M768.7,315.8c15.9-7.7,11.3-14.4,1.3-13c-0.8-5.4,16.4-17.2,31.6-8.4c0.3,0.1,0.5,0.2,0.8,0.3
		c-1.4-1.9-3-3.8-4.8-5.4c-15.5-14.5-39.6-14.2-54.8,0.7c-15.6,15.3-15.9,40.4-0.5,56c15.3,15.6,40.4,15.9,56,0.5
		C775.4,360.2,753,323.3,768.7,315.8z"/>
	<path class="st20" d="M727.8,628.8c-73.2-56.9-23.8-143.4,12.7-142.2C777,488,758.1,546.1,804,574s81.9-26.3,108.6-64.2
		c0,0,10.7-2.2,26.6,13.4C896.5,641.7,800.9,685.8,727.8,628.8z"/>
	<path class="st21" d="M790.3,585.5c46.5,32.3,101-2.9,131.7-74.2c-5.9-2.2-9.4-1.5-9.4-1.5C885.9,547.7,849.9,602,804,574
		c-38.6-23.5-31.4-68.3-49.8-82.7C772.4,518,747.4,555.7,790.3,585.5z"/>
	<path class="st22" d="M495.2,1156.6c0,0,80.4-0.8,79.7-2c-2.3-4.7-12.6-10.6-24.3-15.1c-2,9.5-29,6.7-49.2,2.6
		C498.3,1145.2,494.5,1148.2,495.2,1156.6z"/>
</g>
<g>
	<g>
		<path class="st2" d="M754.2,113.9c50,189.1,150,454.6,214.4,584.1l51.9-14.6c-53.1-132.2-160-403-254.5-574.3
			c-1.6-2.7-5-3.8-7.9-2.5l0,0C755.1,107.7,753.4,110.9,754.2,113.9z"/>
		<polygon class="st23" points="1038.6,846.4 1052.7,840.8 1066.8,835.1 1020.4,683.5 986.2,675.2 968.6,698.1 		"/>
		<path class="st24" d="M1112.4,989.5c2-34.3-7.8-115.8-45.6-154.4l-14.1,5.6l-14.1,5.7C1037.9,900.4,1087.2,966.2,1112.4,989.5z"/>
		<path class="st25" d="M760.9,126.9c41.1,166.3,127.6,386.1,174,501.6l104.4,219.7c3.6,64.3,51.7,123.1,79.3,153L765,120.2
			C762.2,121.2,760.4,124,760.9,126.9z"/>
	</g>
	<path class="st26" d="M1109,949.4l-3.5,3.8c-3.1,3.3-8,4.6-12.6,3.3l-9.5-2.6c-2.9,0.5,28.4,32.2,28.4,32.2
		C1113.9,987.8,1111.3,949,1109,949.4z"/>
</g>
<path class="st9" d="M1570.9,575c-0.1-0.2-0.3-0.3-0.4-0.5c-2.4-4.3-1.1-9.7,3.2-12.3c0,0,0,0,0,0c4.3-2.6,21.3-19.7,25.6-22.3
	c4.3-2.6,9.9-1.2,12.6,3.1c0,0,73.3,115.8,129.1,215.2c0.9,1.6-6.9,50.1-14.9,56.5c-10.6,8.5-22.7-25.3-27.1-30.8L1570.9,575z"/>
<g>
	<g>
		<path class="st27" d="M1816.3,743l0.7,15.7l-74.6,37.9c-4.2,2.1-9-1.4-8.3-6l16.4-101.2l27.2,15.7l16.8,20.9L1816.3,743z"/>
		<path class="st26" d="M1768.1,783.5l-28.9-24.8c-2.4-2.7,0.1,1.7-0.5,5.3l-5.1,29.8c-0.6,3.4,2.8,6.1,6,4.7l22.8-9.8
			C1765.1,787.5,1770,785.7,1768.1,783.5z"/>
		<polygon class="st28" points="2195.1,331.7 2148.2,283.5 1750.4,689.3 1817,758.7 		"/>
		<path class="st29" d="M2144,379.4l15.8-5.8c1.2-0.4,2.3-1.2,3.1-2.2l30.4-35.6c2.5-3,2.4-7.4-0.3-10.1l-38.6-39.9
			c-3-3.1-7.9-3.1-10.8,0l-31.8,32.8c-2.1,2.1-2.7,5.2-1.6,8l16.6,43c0.5,1.4,1.4,2.5,2.6,3.4l7.6,5.5
			C2139,379.9,2141.7,380.2,2144,379.4z"/>
		<polygon class="st3" points="2138.4,374.7 2137.7,375.7 1804.4,751.9 1802.6,750.1 2135.2,374.9 2115.8,355.8 1772.4,718.6 
			1770.6,716.7 2115.5,352.1 		"/>
		<polygon class="st30" points="2163.4,372.3 2110.7,321.1 2082.5,351.1 2134.6,401.4 		"/>
	</g>
	<path class="st31" d="M2194.4,332.5l-380.8,425.3c-0.1,0.1,3.5,0.8,3.4,0.9l-77.4,39.8c-1.2,0.6-4.8-3.5-3.8-4.5l437.9-483.6
		c0.5-0.5,1.3-0.5,1.8,0l18.9,20.4C2194.8,331.3,2194.8,332,2194.4,332.5z"/>
</g>
<g>
	<path class="st16" d="M2046.2,606.1c0-2.6,0.3-5.2,0.9-7.8c6.2,77.1-7.9,111.8-17.1,124.4l-27.5-54.4
		C2021.1,653.4,2046.2,633.9,2046.2,606.1z"/>
	<path class="st15" d="M2221.4,1193.8c0,0,13.3,10.8-2.4,9.6c-15.7-1.2-30.5,2.1-38.3,16h66.1c0,0-7.1-15.4-4.7-22.6L2221.4,1193.8z
		"/>
	<path class="st32" d="M2235.4,971.6c0,0-19.9,42.6,1.3,110.4c21.3,67.8,22.6,100.4,12,121c0,0-22.6,0.7-28.6-5.3
		c0,0-56.6-59.2-83.2-162.9L2235.4,971.6z"/>
	<path class="st33" d="M2136.9,1034.8c26.6,103.8,83.2,162.9,83.2,162.9c2.2,2.2,6.6,3.5,11.3,4.2c-17.6-25.4-54-110.6-49.2-138.1
		c5.3-30.6,35.9-39.9,43.9-77.8l-17.6,2.9L2136.9,1034.8z"/>
	<path class="st15" d="M2020.7,1192.5c0,0-1.5,12.1-17.2,10.9c-15.7-1.2-30.5,2.1-38.3,16h66.1c0,0-0.3-11.2,2.1-18.4L2020.7,1192.5
		z"/>
	<path class="st32" d="M2096.4,1039c3,44.4-29.7,149.6-60.6,172.6c0,0-18-2.7-23.9-10.7c0,0-14.2-72.1-5.2-170.3
		C2006.6,1030.5,2093.4,994.6,2096.4,1039z"/>
	<path class="st33" d="M2020.1,1207c-1.1-20.2-3.7-86.3,6.3-120.4c11.4-38.5,52.8-9.3,70-35.9c0.1-1.8,0.1-3.5,0.1-5.2l-77.8-19.3
		c-7.4,2.4-12.2,4.4-12.2,4.4c-9,98.3,5.2,170.3,5.2,170.3C2014.1,1203.5,2016.9,1205.6,2020.1,1207z"/>
	<path class="st16" d="M2110.3,541.4c0,0,54.5,29.3,75.8,121c21.3,91.8,22.6,220.8,86.5,297.9c-85.1,106.4-248.7,101.1-292.6,66.5
		c0,0,13.3-16,34.6-139.7c21.3-123.7,17.5-249.2,56.4-315.1L2110.3,541.4z"/>
	<path class="st17" d="M2070.9,572.1c-38.9,65.8-41.5,188.9-62.7,312.6s-41.3,139.5-41.3,139.5c12,9.5,46.3,19.4,72.2,22.7
		C2117.3,966.2,2053.7,650.9,2070.9,572.1z"/>
	<path class="st13" d="M1893.6,544.2c-9.1-8.8-7.4-29.4,1.5-36.4c9-7,15.6-14,20.1-15.5c4.5-1.5,5.9,7.3,5.9,12.2s11.9-8.8,15.7-5.1
		s-4.3,1.3-6.8,12.2s-4.8,9.5-13.6,18.6C1916.4,530.2,1902.7,553,1893.6,544.2z"/>
	<path class="st32" d="M2079.9,553.2c0,0-5.7,2.5-10.9,19.2c14.7,14,60.6,2.7,66.3-11.2c-2.7-8-7.8-18-16.7-20.9
		C2117.8,539.9,2079.9,553.2,2079.9,553.2z"/>
	<path class="st13" d="M2090.4,512.1c-0.7,1.3-14.3,36.6-14.3,37.6c0,3,30.3,20.3,46.9-5c0,0-12-11.6-9-35.3
		C2114,509.4,2091.1,510.7,2090.4,512.1z"/>
	<path class="st13" d="M2087.4,468.8c2,5.7-2.9,18-3.3,23c-0.4,5-10.6,19-11.3,22.6c-0.7,3.7-8,2-8,2s-17.3-8.3-18.3-9
		s-5.3-14-5.3-14s-0.6-7,5-20.3c5.6-13.3,3.9-19.6,3.3-28.3C2049.5,444.9,2085.3,463.1,2087.4,468.8z"/>
	<path class="st18" d="M2093.7,391.4c-12.5-14.7-39.4-12.2-37.2,7.7c0,0-12.5,3.7-14.7,23.9c-2.2,20.2,20.7,42.6,29.4,47.9
		c-3.5,14.2,3.8,13.2,2.2,24.2c-1.6,11-12.3,62.6,2.2,58.4c14.5-4.2,5.5-27.2,23.7-33.9c18.2-6.7,52.9-8.7,72.1-36.9
		c19.2-28.2,12.2-67-13.7-70.3c0,0-2.7-6-9.7-3.3c3.5-7.5-8.2-19-21.2-5.2C2126.8,403.8,2106.3,406.1,2093.7,391.4z"/>
	<path class="st18" d="M2075.9,497.8c0-5,4-9,9-9c0,0,0,0,0,0c5,0,9,4,9,9s-4,9-9,9S2075.9,502.8,2075.9,497.8
		C2075.9,497.8,2075.9,497.8,2075.9,497.8z"/>
	<path class="st18" d="M2083.1,496.5c1.9,0.9,2.6,3.1,1.7,5c0.3-1.7-0.9-3.4-2.6-3.7c-0.5,1.1-0.5,2.4-0.2,3.6
		c-2.4-3.4-0.6-7.3,3.5-7.2c-1,0.5-1.9,1.3-2.6,2.3C2083.1,496.5,2083.1,496.5,2083.1,496.5z"/>
	<path class="st18" d="M2099.4,519.6c18.2-6.7,52.9-8.7,72.1-36.9c19.2-28.2,12.2-67-13.7-70.3c0,0-2.7-6-9.7-3.3
		c3.5-7.5-8.2-19-21.2-5.2c19.1,6.2,17.8,33.2-1.8,31.2c5.6,10.3,0.9,14.3-4.4,13.3c4.3,7.3,7,36.9-20.6,59.5
		c-24.8,20.2-34.6,48.6-24.4,45.6C2090.1,549.2,2081.2,526.3,2099.4,519.6z"/>
	<path class="st16" d="M1989.2,690.3c-71.8-33.9-101.2-123.2-98.1-141.1c1.6-4.9,13-18.3,26.9-20.9c13.5,46.7,70.9,71.6,117.8,62.7
		c46.9-8.9,86.4,7,92.3,36.1C2136.7,670.1,2061,724.2,1989.2,690.3z"/>
	<path class="st17" d="M1989.2,690.3c29.6,14.1,64,14.2,93.7,0.2c-89-4.3-180.8-105.8-184.3-151.3c-4,3.9-6.7,7.8-7.4,10
		C1888,567.2,1917.3,656.4,1989.2,690.3z"/>
</g>
</svg>
