<?xml version="1.0" encoding="utf-8"?>
<!-- Generator: Adobe Illustrator 25.2.1, SVG Export Plug-In . SVG Version: 6.00 Build 0)  -->
<svg version="1.1" id="Layer_1" xmlns="http://www.w3.org/2000/svg" xmlns:xlink="http://www.w3.org/1999/xlink" x="0px" y="0px"
	 viewBox="0 0 675.7 698" style="enable-background:new 0 0 675.7 698;" xml:space="preserve">
<style type="text/css">
	.st0{fill:#EBF0F2;}
	.st1{fill:#DCE3E5;}
	.st2{fill:url(#SVGID_1_);}
	.st3{fill:url(#SVGID_2_);}
	.st4{fill:#FFFFFF;}
	.st5{opacity:0.48;fill:#DEDFE0;}
	.st6{fill:#95A4AD;}
	.st7{opacity:0.45;}
	.st8{fill:none;stroke:#AFAFAF;stroke-width:2.5111;stroke-miterlimit:10;}
	.st9{fill:#666666;}
	.st10{fill:#FFFFFF;stroke:#AAB5BA;stroke-width:1.4562;stroke-miterlimit:10;}
	.st11{fill:#1A2E35;stroke:#AAB5BA;stroke-width:1.4562;stroke-miterlimit:10;}
	.st12{fill:#4B7F7D;}
	.st13{fill:#1A2E35;}
	.st14{fill:#FF4F5B;}
	.st15{fill:#ACC1C6;}
	.st16{fill:#FCC302;}
	.st17{fill:#E1E1E1;}
	.st18{fill:#558489;}
	.st19{fill:#80BFBE;}
	.st20{fill:#78B0AF;}
	.st21{fill:#FBC9CC;}
	.st22{fill:#DDE6ED;}
	.st23{fill:#C2C9CE;}
	.st24{fill:#D3EAE9;}
	.st25{opacity:0.9;}
	.st26{opacity:0.5;}
	.st27{fill:#DCEFFE;}
	.st28{fill:#C6CECD;}
	.st29{fill:#D5DBDA;}
</style>
<path class="st0" d="M595.7,692.8H31.6c-14.9,0-27-12.1-27-27V527.4c0-14.9,12.1-27,27-27h564.1c14.9,0,27,12.1,27,27v138.4
	C622.7,680.7,610.6,692.8,595.7,692.8z"/>
<path class="st1" d="M423.4,680.3c-7.9,0-390.6-44.4-390.6-51.3l156.5-103c0-6.9,6.4-12.5,14.4-12.5l345,4.9
	C556.6,518.5,423.4,680.3,423.4,680.3z"/>
<g>
	<g>
		
			<linearGradient id="SVGID_1_" gradientUnits="userSpaceOnUse" x1="-494.2346" y1="168.403" x2="-510.8615" y2="17.7844" gradientTransform="matrix(-0.9943 0.1065 0.1065 0.9943 -236.9927 528.1607)">
			<stop  offset="0" style="stop-color:#FFFFFF"/>
			<stop  offset="1" style="stop-color:#E0E0E0"/>
		</linearGradient>
		<polygon class="st2" points="448.5,672.1 20.8,614 259.2,512.6 524.2,564.5 		"/>
	</g>
	<g>
		<g>
			
				<linearGradient id="SVGID_2_" gradientUnits="userSpaceOnUse" x1="-832.6524" y1="437.787" x2="-796.8764" y2="165.7004" gradientTransform="matrix(-0.9922 0.1247 0.1247 0.9922 -526.8217 430.3947)">
				<stop  offset="0" style="stop-color:#FFFFFF"/>
				<stop  offset="1" style="stop-color:#E0E0E0"/>
			</linearGradient>
			<path class="st3" d="M46.2,601.9C114,575.1,294.1,517,294.1,517l263.8,6c0,0-32.8,58.9-82,100.2c-12.4,10.4-23.6,15.1-33.7,14.8
				c-28.7-0.9-79.1-19.4-82.2-59.4L46.2,601.9z"/>
		</g>
	</g>
	<path class="st4" d="M404.4,611.3c-7.5-25.4,3.7-48,3.7-48L42.9,576.8c0,0-10.1,5.7-10,17.7c0.1,11.4,13.5,13.2,13.5,13.2
		l388.4,32.6C434.8,640.2,413.5,641.9,404.4,611.3z"/>
	<path class="st5" d="M384.6,615.4c-356-10.1-354.8-29.7-354.7-17.6c0.1,11.4,13,13.2,13,13.2l386,34.7c2.4,0.2,3.8-2.1,2.1-3.5
		C419.9,633.8,394.7,615.7,384.6,615.4z"/>
</g>
<path class="st6" d="M265,270.2l-1.4,1.6c2.5,2.4,5.3,4.7,8.2,7l1.3-1.7C270.3,274.8,267.6,272.5,265,270.2z"/>
<path class="st6" d="M251.4,253.8l-1.6,1.3c0.7,1.2,1.5,2.4,2.3,3.5c1.2,1.8,2.6,3.6,4.1,5.4l1.5-1.5c-1.5-1.7-2.8-3.5-4.1-5.2
	C252.9,256.1,252.1,254.9,251.4,253.8z"/>
<path class="st6" d="M320.1,302c3.6,0.9,7.2,1.6,10.8,2.1l0.6-2c-3.5-0.5-7.1-1.2-10.6-2.1L320.1,302z"/>
<path class="st6" d="M299.6,295.1c3.3,1.4,6.7,2.7,10.1,3.9l0.8-2c-3.3-1.1-6.7-2.4-10-3.9L299.6,295.1z"/>
<path class="st6" d="M280.6,284.9c3,1.9,6.1,3.7,9.3,5.4l1.1-1.9c-3.1-1.7-6.2-3.5-9.2-5.4L280.6,284.9z"/>
<path class="st6" d="M240.9,234.2c1,3.8,2.2,7.4,3.7,10.9l1.7-1.1c-1.4-3.4-2.6-7-3.6-10.7L240.9,234.2z"/>
<path class="st6" d="M426.3,258.8c-0.6,1-1.3,1.9-1.9,2.8l1.4,1c0.7-0.9,1.3-1.9,2-2.9c1.7-2.6,3.4-5.4,5-8.2l-1.6-0.8
	C429.6,253.5,428,256.2,426.3,258.8z"/>
<g>
	<path class="st6" d="M381.7,201.3c-1.6,2.5-3.3,5.1-4.8,7.7l1.5,0.9c1.5-2.6,3.1-5.1,4.7-7.6c0.7-1.1,1.5-2.2,2.2-3.3l-1.4-1
		C383.2,199.1,382.5,200.2,381.7,201.3z"/>
	<path class="st6" d="M391.7,187.4l1.3,1.2c2.7-3.4,5.5-6.7,8.3-9.8l-1.2-1.3C397.3,180.6,394.5,184,391.7,187.4z"/>
	<path class="st6" d="M364.8,232.1l1.7,0.6c1.8-3.9,3.7-7.8,5.7-11.6l-1.6-0.7C368.6,224.2,366.6,228.1,364.8,232.1z"/>
	<path class="st6" d="M409.4,168.3l1.1,1.5c3.2-2.9,6.4-5.6,9.7-8.1l-0.9-1.6C415.9,162.6,412.6,165.4,409.4,168.3z"/>
</g>
<path class="st6" d="M364.8,301.8l0,2c3.9-0.7,7.8-1.7,11.5-2.9L376,299C372.4,300.2,368.6,301.1,364.8,301.8z"/>
<path class="st6" d="M387.1,294.5l0.5,1.8c3.7-1.8,7.4-3.9,10.9-6.3l-0.8-1.7C394.3,290.7,390.7,292.7,387.1,294.5z"/>
<path class="st6" d="M341.9,305.3c3.8,0.2,7.6,0.2,11.3-0.1l0.2-2c-3.6,0.2-7.4,0.2-11.1,0.1L341.9,305.3z"/>
<path class="st6" d="M407.6,280.7l1,1.5c3.2-2.8,6.2-5.9,9.1-9.3l-1.3-1.3C413.6,274.9,410.6,278,407.6,280.7z"/>
<path class="st6" d="M440.9,230c-1.2,3.2-2.6,6.3-3.9,9.2l1.7,0.6c1.4-3,2.7-6.1,4-9.4c0.3-0.9,0.7-1.7,1-2.6l-1.7-0.5
	C441.6,228.2,441.3,229.1,440.9,230z"/>
<g class="st7">
	<path class="st8" d="M586.6,155.1l-49.3-15c-3.4-1-7,0.9-8,4.3l-16.9,55.5l16.1-8.6l43.2,13.1c3.4,1,7-0.9,8-4.3l11.2-37
		C591.9,159.8,590,156.1,586.6,155.1z"/>
	<path class="st6" d="M548.9,190l-1.9-3.1c-6.9-11-11.5-18.2-9.6-25c1.5-5.5,7.1-8.7,12.7-7.1c3.1,0.9,5.7,3.2,7,6
		c2.6-1.8,6-2.4,9.1-1.5c5.5,1.5,8.7,7.1,7.1,12.7c-1.9,6.8-9.6,10.6-21.2,16.5L548.9,190z"/>
</g>
<g class="st7">
	<g>
		
			<rect x="397.4" y="109" transform="matrix(0.8568 0.5156 -0.5156 0.8568 132.9336 -207.1078)" class="st4" width="84" height="53.7"/>
		<path class="st6" d="M455.7,179.1l-62.2-37.4c-3.5-2.1-4.7-6.7-2.6-10.3l21.8-36.2c2.1-3.5,6.7-4.7,10.3-2.6l62.2,37.4
			c3.5,2.1,4.7,6.7,2.6,10.3L466,176.5C463.9,180.1,459.3,181.2,455.7,179.1z M395.6,138.7l61.8,37.2c2,1.2,4.6,0.6,5.7-1.4
			l21.5-35.8c1.2-2,0.6-4.6-1.4-5.7l-61.8-37.2c-2-1.2-4.6-0.6-5.7,1.4L394.2,133C393,135,393.6,137.5,395.6,138.7z"/>
	</g>
	<g>
		<path class="st6" d="M479.4,136.5l-7.2-4.3c-0.8-0.5-1.1-1.6-0.6-2.4c0.5-0.8,1.6-1.1,2.4-0.6l7.2,4.3c0.8,0.5,1.1,1.6,0.6,2.4
			C481.3,136.7,480.2,137,479.4,136.5z"/>
	</g>
	<g>
		
			<ellipse transform="matrix(0.5156 -0.8568 0.8568 0.5156 96.4804 442.3009)" class="st4" cx="439.4" cy="135.8" rx="20.6" ry="20.6"/>
		<path class="st6" d="M427.9,155c-10.6-6.4-14-20.1-7.6-30.7c6.4-10.6,20.1-14,30.7-7.6c10.6,6.4,14,20.1,7.6,30.7
			S438.4,161.4,427.9,155z M449.1,119.7c-8.9-5.4-20.5-2.5-25.8,6.4c-5.4,8.9-2.5,20.5,6.4,25.8c8.9,5.4,20.5,2.5,25.8-6.4
			C460.9,136.6,458,125,449.1,119.7z"/>
	</g>
	<g>
		
			<ellipse transform="matrix(0.3033 -0.9529 0.9529 0.3033 176.7121 513.3405)" class="st4" cx="439.4" cy="135.8" rx="14.9" ry="14.9"/>
		<path class="st6" d="M430.8,150.1c-7.9-4.7-10.4-15-5.7-22.9c4.7-7.9,15-10.4,22.9-5.7c7.9,4.7,10.4,15,5.7,22.9
			C449,152.3,438.7,154.8,430.8,150.1z M446.2,124.6c-6.2-3.7-14.3-1.7-18,4.5c-3.7,6.2-1.7,14.3,4.5,18c6.2,3.7,14.3,1.7,18-4.5
			C454.4,136.4,452.4,128.3,446.2,124.6z"/>
	</g>
	<g>
		<path class="st9" d="M431.9,130c-0.1-0.1-0.3-0.2-0.4-0.3c-0.7-0.7-0.6-1.9,0.1-2.5c3-2.7,7.2-3.6,11.1-2.5
			c0.9,0.3,1.5,1.3,1.2,2.2c-0.3,0.9-1.3,1.5-2.2,1.2c-2.7-0.8-5.6-0.1-7.7,1.7C433.4,130.3,432.5,130.4,431.9,130z"/>
	</g>
</g>
<g>
	<g>
		<g>
			<g>
				<g>
					<g>
						<g>
							<g>
								<g>
									<path class="st10" d="M566.3,500.8l0-46.6c0-6.3-3.9-11.3-8.7-11.3l-6.2,0c-4.8,0-8.7-5.1-8.7-11.3l0-90.9
										c0-6.3,3.9-11.3,8.7-11.3l6.2,0c4.8,0,8.7-5.1,8.7-11.3l0-16.4l0-40.8c0-20.3-12.1-36.7-27-36.7L105.6,224
										c-14.9,0-27,16.4-27,36.7l-0.1,239.9c0,20.3,12.1,36.7,27,36.7l433.7,0.1C554.2,537.4,566.3,521,566.3,500.8z"/>
								</g>
							</g>
						</g>
						<g>
							<g>
								<g>
									<g>
										<path class="st11" d="M566.3,500.8c0,0,0,0.4,0,1.3c-0.1,0.8,0,2.1-0.2,3.7c-0.3,3.3-1.1,8.2-3.5,13.8
											c-1.2,2.8-2.8,5.7-5,8.4c-2.2,2.7-4.8,5.2-8.1,7c-3.2,1.8-7,2.8-11,2.7c-4,0-8.2,0-12.7,0c-36,0-88.2,0.1-152.6,0.1
											c-64.4,0-141.1,0-226.3,0.1c-10.6,0-21.4,0-32.3,0c-2.7,0-5.5,0-8.2,0c-2.7,0-5.6-0.3-8.2-1.4c-2.7-1.1-5.3-2.6-7.6-4.7
											c-2.3-2.1-4.4-4.7-6.3-7.6c-3.5-6-5.8-13.4-6.1-21.2c-0.2-7.7,0-15.3-0.1-23.1c0-15.4,0-31,0-46.7c0-31.4,0-63.4,0-95.9
											c0-16.2,0-32.6,0-49c0-8.2,0-16.5,0-24.8c-0.3-8.3,1.3-16.9,4.9-23.9c3.5-7,8.9-12.1,14.8-14.5c3-1.3,6.1-1.5,9.1-1.5
											c3,0,6.1,0,9.1,0c12.1,0,24.2,0,36.2,0c23.9,0,47.5,0,70.7,0c46.3,0,91.1,0,133.6,0.1c42.6,0,83.1,0.1,120.9,0.1
											c18.9,0,37.2,0,54.8,0c2.2,0,4.4,0,6.6,0c1.1,0,2.2,0.1,3.3,0.2c1.1,0.3,2.2,0.4,3.2,0.8c4.2,1.3,8.2,4,11.5,7.7
											c3.2,3.7,5.8,8.4,7.5,13.6c1.7,5.2,2.3,10.8,2.3,16.3c0,10.9,0,21.6,0,32c0,5.2,0,10.3,0,15.4c0,2.5,0,5,0,7.5
											c0.1,2.5-0.4,5.1-1.5,7.2c-1.1,2.1-2.6,3.7-4.3,4.5c-1.7,0.9-3.6,0.7-5.3,0.7c-0.9,0-1.8,0-2.6,0c-0.9,0-1.7,0-2.6,0.1
											c-1.7,0.3-3.3,1.3-4.5,2.7c-1.3,1.5-2.2,3.5-2.6,5.6c-0.2,1.1-0.3,2.2-0.2,3.3c0,1.1,0,2.3,0,3.4c0,4.5,0,8.9,0,13.2
											c0,17.4,0,33.5-0.1,48.4c0,7.4,0,14.5,0,21.3c0,1.7-0.1,3.4,0,5c0.1,1.6,0.5,3.2,1.2,4.5c1.2,2.7,3.3,4.5,5.4,5.1
											c1.1,0.3,2.2,0.3,3.3,0.3c1.1,0,2.2,0,3.2,0c1.1,0,2.1-0.1,3.2,0.2c1,0.2,2,0.7,2.9,1.4c1.8,1.3,3.1,3.5,3.8,5.9
											c0.8,2.4,0.5,5,0.6,7.3c0,9.4,0,17.4,0,23.8c0,6.4,0,11.3,0,14.6C566.3,499.1,566.3,500.8,566.3,500.8s0-1.7,0-5
											c0-3.3,0-8.2,0-14.6c0-6.4,0-14.4,0-23.8c0-2.3,0.2-4.8-0.6-7.2c-0.7-2.3-2-4.4-3.7-5.7c-0.9-0.6-1.8-1.1-2.8-1.3
											c-1-0.3-2-0.2-3.1-0.2c-1.1,0-2.1,0-3.2,0c-1.1,0-2.2,0.1-3.3-0.3c-2.2-0.6-4.4-2.5-5.7-5.3c-0.6-1.4-1.1-3-1.2-4.7
											c-0.1-1.7,0-3.3-0.1-5c0-6.8,0-13.9,0-21.3c0-14.9,0-31,0-48.4c0-4.3,0-8.8,0-13.2c0-1.1,0-2.2,0-3.4c0-1.1,0-2.3,0.2-3.5
											c0.4-2.3,1.4-4.4,2.7-5.9c1.3-1.6,3-2.6,4.8-2.9c0.9-0.2,1.8-0.1,2.6-0.1c0.9,0,1.8,0,2.6,0c1.8,0,3.5,0.2,5.2-0.7
											c1.6-0.8,3.1-2.3,4.1-4.3c1-2,1.5-4.4,1.4-6.8c0-2.5,0-5,0-7.5c0-5.1,0-10.2,0-15.4c0-10.4,0-21.1,0-32
											c0-5.4-0.6-10.9-2.2-16c-1.7-5.1-4.2-9.7-7.4-13.3c-3.2-3.6-7.1-6.2-11.2-7.5c-1-0.4-2.1-0.5-3.2-0.7
											c-1.1-0.1-2.1-0.2-3.2-0.2c-2.2,0-4.4,0-6.6,0c-17.6,0-35.9,0-54.8,0c-37.9,0-78.3,0-120.9,0c-42.6,0-87.3,0-133.6,0
											c-23.2,0-46.8,0-70.7,0c-12,0-24,0-36.2,0c-3,0-6.1,0-9.1,0c-3,0-6,0.2-8.9,1.5c-5.8,2.3-11,7.3-14.4,14.1
											c-3.5,6.8-5,15.1-4.7,23.3c0,8.3,0,16.5,0,24.8c0,16.5,0,32.8,0,49c0,32.5,0,64.4,0,95.9c0,15.7,0,31.3,0,46.7
											c0,7.7-0.1,15.4,0.1,23c0.3,7.5,2.5,14.8,5.9,20.6c1.8,2.9,3.8,5.4,6.1,7.4c2.3,2.1,4.8,3.5,7.4,4.6
											c2.6,1.1,5.3,1.3,8.1,1.4c2.7,0,5.5,0,8.2,0c10.9,0,21.7,0,32.3,0c85.2,0.1,161.9,0.1,226.3,0.2
											c64.4,0.1,116.5,0.2,152.6,0.2c4.5,0,8.8,0,12.7,0c4,0.1,7.7-0.9,10.9-2.7c3.2-1.8,5.9-4.2,8-6.9c2.1-2.7,3.8-5.5,5-8.3
											c2.5-5.5,3.3-10.4,3.6-13.7c0.2-1.6,0.2-2.9,0.3-3.7C566.2,501.2,566.3,500.8,566.3,500.8z"/>
									</g>
								</g>
							</g>
						</g>
					</g>
				</g>
			</g>
		</g>
	</g>
</g>
<g>
	<g>
		<g>
			<g>
				<path class="st12" d="M531.4,500.4c0,0-0.4-0.1-1.3-0.4c-0.8-0.3-2-0.7-3.6-1.2c-3.2-0.8-8-1.6-13.8-0.8c-2.9,0.4-6,1.2-9.2,2.7
					c-1.6,0.7-3.2,1.6-4.9,2.3c-1.7,0.7-3.8,1.2-5.9,0.7c-4.4-1.1-5.1-7-9.1-7.7c-1.9-0.4-3.7,1-5.2,2.6c-1.5,1.5-2.9,3.4-4.9,4.7
					c-1,0.7-2.1,1.1-3.3,1.3c-1.2,0.1-2.4-0.1-3.5-0.5c-2.2-0.8-3.9-2.2-5.6-3.5c-1.7-1.3-3.3-2.7-5-3.7c-1.7-1-3.6-1.6-5.4-1.3
					c-1.8,0.2-3.3,1.5-4.5,2.8c-1.2,1.4-2.2,2.9-3.3,4.2c-1.1,1.4-2.4,2.6-3.9,3.3c-1.5,0.7-3.1,1-4.7,1c-3.1-0.1-5.7-1.5-7.3-3.4
					c-1.5-1.9-2.1-4-2.2-5.7c-0.1-1.7,0.2-3,0.5-3.8c0.3-0.8,0.6-1.2,0.6-1.2c0.2,0-1,1.7-0.7,5c0.2,1.6,0.8,3.6,2.3,5.3
					c1.5,1.7,4,3,6.9,3c1.4,0,2.9-0.3,4.3-1c1.4-0.7,2.6-1.8,3.7-3.2c1.1-1.3,2.1-2.9,3.3-4.3c1.2-1.4,2.9-2.8,5-3.1
					c2.1-0.4,4.2,0.3,6,1.4c1.8,1.1,3.5,2.4,5.1,3.7c1.7,1.3,3.4,2.6,5.3,3.4c1,0.4,2,0.5,3,0.5c1-0.2,2-0.5,2.9-1.1
					c1.8-1.2,3.2-3,4.7-4.6c0.8-0.8,1.6-1.6,2.6-2.2c1-0.6,2.3-0.9,3.4-0.6c1.2,0.2,2.2,0.8,3,1.6c0.8,0.8,1.4,1.7,2,2.5
					c1.2,1.7,2.4,3.2,4.2,3.7c1.8,0.5,3.6,0,5.3-0.6c1.7-0.6,3.3-1.5,4.9-2.2c3.2-1.4,6.4-2.3,9.4-2.6c6-0.8,10.8,0.2,14,1.1
					c1.6,0.5,2.8,1,3.6,1.3C531,500.2,531.4,500.4,531.4,500.4z"/>
			</g>
		</g>
	</g>
	<g>
		<g>
			<g>
				<path class="st12" d="M503.8,516.6c0,0.3-11.6,0.5-26,0.5c-14.4,0-26-0.2-26-0.5c0-0.3,11.6-0.5,26-0.5
					C492.2,516.1,503.8,516.4,503.8,516.6z"/>
			</g>
		</g>
	</g>
</g>
<g>
	<g>
		<g>
			<g>
				<path class="st12" d="M198.7,500.4c0,0-0.4-0.1-1.3-0.4c-0.8-0.3-2-0.7-3.6-1.2c-3.2-0.8-8-1.6-13.8-0.8c-2.9,0.4-6,1.2-9.2,2.7
					c-1.6,0.7-3.2,1.6-4.9,2.3c-1.7,0.7-3.8,1.2-5.9,0.7c-4.4-1.1-5.1-7-9.1-7.7c-1.9-0.4-3.7,1-5.2,2.6c-1.5,1.5-2.9,3.4-4.9,4.7
					c-1,0.7-2.1,1.1-3.3,1.3c-1.2,0.1-2.4-0.1-3.5-0.5c-2.2-0.8-3.9-2.2-5.6-3.5c-1.7-1.3-3.3-2.7-5-3.7c-1.7-1-3.6-1.6-5.4-1.3
					c-1.8,0.2-3.3,1.5-4.5,2.8c-1.2,1.4-2.2,2.9-3.3,4.2c-1.1,1.4-2.4,2.6-3.9,3.3c-1.5,0.7-3.1,1-4.7,1c-3.1-0.1-5.7-1.5-7.3-3.4
					c-1.5-1.9-2.1-4-2.2-5.7c-0.1-1.7,0.2-3,0.5-3.8c0.3-0.8,0.6-1.2,0.6-1.2c0.2,0-1,1.7-0.7,5c0.2,1.6,0.8,3.6,2.3,5.3
					c1.5,1.7,4,3,6.9,3c1.4,0,2.9-0.3,4.3-1c1.4-0.7,2.6-1.8,3.7-3.2c1.1-1.3,2.1-2.9,3.3-4.3c1.2-1.4,2.9-2.8,5-3.1
					c2.1-0.4,4.2,0.3,6,1.4c1.8,1.1,3.5,2.4,5.1,3.7c1.7,1.3,3.4,2.6,5.3,3.4c1,0.4,2,0.5,3,0.5c1-0.2,2-0.5,2.9-1.1
					c1.8-1.2,3.2-3,4.7-4.6c0.8-0.8,1.6-1.6,2.6-2.2c1-0.6,2.3-0.9,3.4-0.6c1.2,0.2,2.2,0.8,3,1.6c0.8,0.8,1.4,1.7,2,2.5
					c1.2,1.7,2.4,3.2,4.2,3.7c1.8,0.5,3.6,0,5.3-0.6c1.7-0.6,3.3-1.5,4.9-2.2c3.2-1.4,6.4-2.3,9.4-2.6c6-0.8,10.8,0.2,14,1.1
					c1.6,0.5,2.8,1,3.6,1.3C198.3,500.2,198.7,500.4,198.7,500.4z"/>
			</g>
		</g>
	</g>
	<g>
		<g>
			<g>
				<path class="st12" d="M171.1,516.6c0,0.3-11.6,0.5-26,0.5c-14.4,0-26-0.2-26-0.5c0-0.3,11.6-0.5,26-0.5
					C159.5,516.1,171.1,516.4,171.1,516.6z"/>
			</g>
		</g>
	</g>
</g>
<g>
	<g>
		<g>
			<g>
				<g>
					<path class="st13" d="M223.2,371.2c-0.1,0-0.4-5.4-0.7-12.1c-0.3-6.7-0.5-12.1-0.4-12.2c0.1,0,0.4,5.4,0.7,12.1
						C223.1,365.7,223.3,371.2,223.2,371.2z"/>
				</g>
			</g>
		</g>
		<g>
			<g>
				<g>
					<path class="st13" d="M263.1,347.6c0,0.2-9.1,0.4-20.3,0.4c-11.2,0-20.3-0.2-20.3-0.4c0-0.2,9.1-0.4,20.3-0.4
						C254.1,347.2,263.1,347.4,263.1,347.6z"/>
				</g>
			</g>
		</g>
		<g>
			<g>
				<g>
					<path class="st13" d="M264.6,369.6c-0.1,0-0.1-4.6-0.1-10.3c0-5.7,0.1-10.3,0.1-10.3c0.1,0,0.1,4.6,0.1,10.3
						C264.7,365,264.7,369.6,264.6,369.6z"/>
				</g>
			</g>
		</g>
		<g>
			<g>
				<g>
					<path class="st13" d="M264.9,371c0,0.2-9.2,0.4-20.6,0.4c-11.4,0-20.6-0.2-20.6-0.4c0-0.2,9.2-0.4,20.6-0.4
						C255.7,370.6,264.9,370.8,264.9,371z"/>
				</g>
			</g>
		</g>
	</g>
	<g>
		<g>
			<g>
				<g>
					<path class="st13" d="M157.3,371.2c-0.1,0-0.4-5.4-0.7-12.1c-0.3-6.7-0.5-12.1-0.4-12.2c0.1,0,0.4,5.4,0.7,12.1
						C157.2,365.7,157.4,371.2,157.3,371.2z"/>
				</g>
			</g>
		</g>
		<g>
			<g>
				<g>
					<path class="st13" d="M197.2,347.6c0,0.2-9.1,0.4-20.3,0.4c-11.2,0-20.3-0.2-20.3-0.4c0-0.2,9.1-0.4,20.3-0.4
						C188.1,347.2,197.2,347.4,197.2,347.6z"/>
				</g>
			</g>
		</g>
		<g>
			<g>
				<g>
					<path class="st13" d="M198.6,369.6c-0.1,0-0.1-4.6-0.1-10.3c0-5.7,0.1-10.3,0.1-10.3s0.1,4.6,0.1,10.3
						C198.7,365,198.7,369.6,198.6,369.6z"/>
				</g>
			</g>
		</g>
		<g>
			<g>
				<g>
					<path class="st13" d="M199,371c0,0.2-9.2,0.4-20.6,0.4c-11.4,0-20.6-0.2-20.6-0.4c0-0.2,9.2-0.4,20.6-0.4
						C189.8,370.6,199,370.8,199,371z"/>
				</g>
			</g>
		</g>
	</g>
	<g>
		<g>
			<g>
				<g>
					<path class="st13" d="M289.2,371.2c-0.1,0-0.4-5.4-0.7-12.1c-0.3-6.7-0.5-12.1-0.4-12.2c0.1,0,0.4,5.4,0.7,12.1
						C289.1,365.7,289.3,371.2,289.2,371.2z"/>
				</g>
			</g>
		</g>
		<g>
			<g>
				<g>
					<path class="st13" d="M329.1,347.6c0,0.2-9.1,0.4-20.3,0.4c-11.2,0-20.3-0.2-20.3-0.4c0-0.2,9.1-0.4,20.3-0.4
						C320,347.2,329.1,347.4,329.1,347.6z"/>
				</g>
			</g>
		</g>
		<g>
			<g>
				<g>
					<path class="st13" d="M330.5,369.6c-0.1,0-0.1-4.6-0.1-10.3c0-5.7,0.1-10.3,0.1-10.3c0.1,0,0.1,4.6,0.1,10.3
						C330.7,365,330.6,369.6,330.5,369.6z"/>
				</g>
			</g>
		</g>
		<g>
			<g>
				<g>
					<path class="st13" d="M330.9,371c0,0.2-9.2,0.4-20.6,0.4c-11.4,0-20.6-0.2-20.6-0.4c0-0.2,9.2-0.4,20.6-0.4
						C321.7,370.6,330.9,370.8,330.9,371z"/>
				</g>
			</g>
		</g>
	</g>
	<g>
		<g>
			<g>
				<g>
					<path class="st13" d="M355.2,371.2c-0.1,0-0.4-5.4-0.7-12.1c-0.3-6.7-0.5-12.1-0.4-12.2c0.1,0,0.4,5.4,0.7,12.1
						C355.1,365.7,355.2,371.2,355.2,371.2z"/>
				</g>
			</g>
		</g>
		<g>
			<g>
				<g>
					<path class="st13" d="M395.1,347.6c0,0.2-9.1,0.4-20.3,0.4c-11.2,0-20.3-0.2-20.3-0.4c0-0.2,9.1-0.4,20.3-0.4
						C386,347.2,395.1,347.4,395.1,347.6z"/>
				</g>
			</g>
		</g>
		<g>
			<g>
				<g>
					<path class="st13" d="M396.5,369.6c-0.1,0-0.1-4.6-0.1-10.3c0-5.7,0.1-10.3,0.1-10.3c0.1,0,0.1,4.6,0.1,10.3
						C396.6,365,396.6,369.6,396.5,369.6z"/>
				</g>
			</g>
		</g>
		<g>
			<g>
				<g>
					<path class="st13" d="M396.9,371c0,0.2-9.2,0.4-20.6,0.4c-11.4,0-20.6-0.2-20.6-0.4c0-0.2,9.2-0.4,20.6-0.4
						C387.7,370.6,396.9,370.8,396.9,371z"/>
				</g>
			</g>
		</g>
	</g>
	<g>
		<g>
			<g>
				<g>
					<path class="st13" d="M421.1,371.2c-0.1,0-0.4-5.4-0.7-12.1c-0.3-6.7-0.5-12.1-0.4-12.2c0.1,0,0.4,5.4,0.7,12.1
						C421,365.7,421.2,371.2,421.1,371.2z"/>
				</g>
			</g>
		</g>
		<g>
			<g>
				<g>
					<path class="st13" d="M461,347.6c0,0.2-9.1,0.4-20.3,0.4c-11.2,0-20.3-0.2-20.3-0.4c0-0.2,9.1-0.4,20.3-0.4
						C452,347.2,461,347.4,461,347.6z"/>
				</g>
			</g>
		</g>
		<g>
			<g>
				<g>
					<path class="st13" d="M462.5,369.6c-0.1,0-0.1-4.6-0.1-10.3c0-5.7,0.1-10.3,0.1-10.3c0.1,0,0.1,4.6,0.1,10.3
						C462.6,365,462.5,369.6,462.5,369.6z"/>
				</g>
			</g>
		</g>
		<g>
			<g>
				<g>
					<path class="st13" d="M462.8,371c0,0.2-9.2,0.4-20.6,0.4c-11.4,0-20.6-0.2-20.6-0.4c0-0.2,9.2-0.4,20.6-0.4
						C453.6,370.6,462.8,370.8,462.8,371z"/>
				</g>
			</g>
		</g>
	</g>
</g>
<g>
	<g>
		<g>
			<g>
				<g>
					<path class="st13" d="M223.2,408c-0.1,0-0.4-5.2-0.7-11.7c-0.3-6.5-0.5-11.7-0.4-11.8c0.1,0,0.4,5.2,0.7,11.7
						C223.1,402.7,223.3,408,223.2,408z"/>
				</g>
			</g>
		</g>
		<g>
			<g>
				<g>
					<path class="st13" d="M263.1,385.2c0,0.2-9.1,0.4-20.3,0.4c-11.2,0-20.3-0.2-20.3-0.4c0-0.2,9.1-0.4,20.3-0.4
						C254.1,384.9,263.1,385,263.1,385.2z"/>
				</g>
			</g>
		</g>
		<g>
			<g>
				<g>
					<path class="st13" d="M264.6,406.5c-0.1,0-0.1-4.5-0.1-10c0-5.5,0.1-10,0.1-10c0.1,0,0.1,4.5,0.1,10
						C264.7,402.1,264.7,406.5,264.6,406.5z"/>
				</g>
			</g>
		</g>
		<g>
			<g>
				<g>
					<path class="st13" d="M264.9,407.9c0,0.2-9.2,0.4-20.6,0.4c-11.4,0-20.6-0.2-20.6-0.4s9.2-0.4,20.6-0.4
						C255.7,407.5,264.9,407.7,264.9,407.9z"/>
				</g>
			</g>
		</g>
	</g>
	<g>
		<g>
			<g>
				<g>
					<path class="st13" d="M157.3,408c-0.1,0-0.4-5.2-0.7-11.7c-0.3-6.5-0.5-11.7-0.4-11.8c0.1,0,0.4,5.2,0.7,11.7
						C157.2,402.7,157.4,408,157.3,408z"/>
				</g>
			</g>
		</g>
		<g>
			<g>
				<g>
					<path class="st13" d="M197.2,385.2c0,0.2-9.1,0.4-20.3,0.4c-11.2,0-20.3-0.2-20.3-0.4c0-0.2,9.1-0.4,20.3-0.4
						C188.1,384.9,197.2,385,197.2,385.2z"/>
				</g>
			</g>
		</g>
		<g>
			<g>
				<g>
					<path class="st13" d="M198.6,406.5c-0.1,0-0.1-4.5-0.1-10c0-5.5,0.1-10,0.1-10s0.1,4.5,0.1,10
						C198.7,402.1,198.7,406.5,198.6,406.5z"/>
				</g>
			</g>
		</g>
		<g>
			<g>
				<g>
					<path class="st13" d="M199,407.9c0,0.2-9.2,0.4-20.6,0.4c-11.4,0-20.6-0.2-20.6-0.4s9.2-0.4,20.6-0.4
						C189.8,407.5,199,407.7,199,407.9z"/>
				</g>
			</g>
		</g>
	</g>
	<g>
		<g>
			<g>
				<g>
					<path class="st13" d="M289.2,408c-0.1,0-0.4-5.2-0.7-11.7c-0.3-6.5-0.5-11.7-0.4-11.8c0.1,0,0.4,5.2,0.7,11.7
						C289.1,402.7,289.3,408,289.2,408z"/>
				</g>
			</g>
		</g>
		<g>
			<g>
				<g>
					<path class="st13" d="M329.1,385.2c0,0.2-9.1,0.4-20.3,0.4c-11.2,0-20.3-0.2-20.3-0.4c0-0.2,9.1-0.4,20.3-0.4
						C320,384.9,329.1,385,329.1,385.2z"/>
				</g>
			</g>
		</g>
		<g>
			<g>
				<g>
					<path class="st13" d="M330.5,406.5c-0.1,0-0.1-4.5-0.1-10c0-5.5,0.1-10,0.1-10c0.1,0,0.1,4.5,0.1,10
						C330.7,402.1,330.6,406.5,330.5,406.5z"/>
				</g>
			</g>
		</g>
		<g>
			<g>
				<g>
					<path class="st13" d="M330.9,407.9c0,0.2-9.2,0.4-20.6,0.4c-11.4,0-20.6-0.2-20.6-0.4s9.2-0.4,20.6-0.4
						C321.7,407.5,330.9,407.7,330.9,407.9z"/>
				</g>
			</g>
		</g>
	</g>
	<g>
		<g>
			<g>
				<g>
					<path class="st13" d="M355.2,408c-0.1,0-0.4-5.2-0.7-11.7c-0.3-6.5-0.5-11.7-0.4-11.8c0.1,0,0.4,5.2,0.7,11.7
						C355.1,402.7,355.2,408,355.2,408z"/>
				</g>
			</g>
		</g>
		<g>
			<g>
				<g>
					<path class="st13" d="M395.1,385.2c0,0.2-9.1,0.4-20.3,0.4c-11.2,0-20.3-0.2-20.3-0.4c0-0.2,9.1-0.4,20.3-0.4
						C386,384.9,395.1,385,395.1,385.2z"/>
				</g>
			</g>
		</g>
		<g>
			<g>
				<g>
					<path class="st13" d="M396.5,406.5c-0.1,0-0.1-4.5-0.1-10c0-5.5,0.1-10,0.1-10c0.1,0,0.1,4.5,0.1,10
						C396.6,402.1,396.6,406.5,396.5,406.5z"/>
				</g>
			</g>
		</g>
		<g>
			<g>
				<g>
					<path class="st13" d="M396.9,407.9c0,0.2-9.2,0.4-20.6,0.4c-11.4,0-20.6-0.2-20.6-0.4s9.2-0.4,20.6-0.4
						C387.7,407.5,396.9,407.7,396.9,407.9z"/>
				</g>
			</g>
		</g>
	</g>
	<g>
		<g>
			<g>
				<g>
					<path class="st13" d="M421.1,408c-0.1,0-0.4-5.2-0.7-11.7c-0.3-6.5-0.5-11.7-0.4-11.8c0.1,0,0.4,5.2,0.7,11.7
						C421,402.7,421.2,408,421.1,408z"/>
				</g>
			</g>
		</g>
		<g>
			<g>
				<g>
					<path class="st13" d="M461,385.2c0,0.2-9.1,0.4-20.3,0.4c-11.2,0-20.3-0.2-20.3-0.4c0-0.2,9.1-0.4,20.3-0.4
						C452,384.9,461,385,461,385.2z"/>
				</g>
			</g>
		</g>
		<g>
			<g>
				<g>
					<path class="st13" d="M462.5,406.5c-0.1,0-0.1-4.5-0.1-10c0-5.5,0.1-10,0.1-10c0.1,0,0.1,4.5,0.1,10
						C462.6,402.1,462.5,406.5,462.5,406.5z"/>
				</g>
			</g>
		</g>
		<g>
			<g>
				<g>
					<path class="st13" d="M462.8,407.9c0,0.2-9.2,0.4-20.6,0.4c-11.4,0-20.6-0.2-20.6-0.4s9.2-0.4,20.6-0.4
						C453.6,407.5,462.8,407.7,462.8,407.9z"/>
				</g>
			</g>
		</g>
	</g>
</g>
<g>
	<g>
		<g>
			<g>
				<path class="st14" d="M265.7,515.3c0,0-0.2,0.1-0.6,0.2c-0.4,0-0.9,0.2-1.7,0.2c-1.4,0.1-3.6-0.1-6.1-0.9
					c-2.5-0.8-5.2-2.4-7.6-5c-2.4-2.5-4.3-6-4.7-10.1c-0.3-4.1,0.9-7.9,2.8-10.8c1.9-2.9,4.3-5,6.6-6.3c2.3-1.3,4.4-1.9,5.8-2
					c0.7-0.1,1.3-0.1,1.7-0.1c0.4,0,0.6,0,0.6,0c0.1,0.2-3.3,0-7.7,2.6c-2.2,1.3-4.4,3.4-6.2,6.2c-1.8,2.8-2.9,6.4-2.6,10.2
					c0.4,3.8,2.2,7.2,4.4,9.6c2.3,2.5,4.9,4.1,7.2,4.9C262.4,515.9,265.7,515,265.7,515.3z"/>
			</g>
		</g>
	</g>
	<g>
		<g>
			<g>
				<path class="st14" d="M365.1,514.4c0,0.3-20.5,0.5-45.7,0.5c-25.3,0-45.8-0.2-45.8-0.5s20.5-0.5,45.8-0.5
					C344.6,513.9,365.1,514.2,365.1,514.4z"/>
			</g>
		</g>
	</g>
	<g>
		<g>
			<g>
				<path class="st14" d="M366.1,512.1c-0.1-0.1,2.1-0.4,5.1-2.6c1.5-1.1,3.1-2.7,4.4-4.9c1.3-2.2,2.2-5.1,2.1-8.4
					c-0.1-3.2-1.3-6.8-3.7-9.7c-2.5-2.9-6.2-5-10.4-6c-4.2-1.1-8.8-1.3-13.6-1.2c-4.8,0.1-9.7,0.1-14.8,0.2
					c-20.2,0.2-38.5,0.3-51.9,0.5c-6.6,0-11.9,0-15.7,0c-1.8,0-3.2,0-4.3,0c-1,0-1.5,0-1.5-0.1c0,0,0.5-0.1,1.5-0.1
					c1.1,0,2.5-0.1,4.3-0.1c3.8-0.1,9.2-0.2,15.7-0.3c13.4-0.2,31.7-0.4,51.9-0.7c5.1-0.1,10-0.1,14.8-0.2c4.8,0,9.5,0.2,13.8,1.3
					c4.3,1.1,8.2,3.2,10.8,6.3c2.6,3.1,3.7,6.8,3.8,10.2c0.1,3.4-0.9,6.4-2.3,8.7c-1.4,2.3-3.1,3.9-4.7,4.9
					c-1.5,1.1-2.9,1.6-3.8,1.9c-0.5,0.2-0.8,0.2-1.1,0.3C366.2,512.1,366.1,512.2,366.1,512.1z"/>
			</g>
		</g>
	</g>
	<g>
		<g>
			<g>
				<path class="st12" d="M360.1,499.6c0,0-0.4,0.1-1.1,0.1c-0.8,0.1-1.8,0.1-3.1,0.2c-2.8,0.2-6.7,0.4-11.4,0.7
					c-9.7,0.5-22.9,1.2-37.5,1.9c-4.2,0.2-8.5,0.4-12.4-1c-1.9-0.7-3.6-1.6-5.3-2.2c-1.7-0.6-3.5-0.8-5.1-0.2
					c-3.2,1.2-5.4,4.1-8.6,4.8c-3.1,1.1-6.7-1.9-5.6-4.7l0.3,0.4c-1.4,0.1-2.5,1-3.1,2c-0.6,1-0.7,2.1-0.6,2.9l-0.4,0
					c0-1.2,0-2.2,0.1-3c0-0.7,0.1-1,0.1-1c0,0,0.1,0.4,0.1,1c0,0.8,0.1,1.8,0.1,3l0.1,1.6l-0.4-1.6c-0.3-0.9-0.2-2.2,0.5-3.3
					c0.6-1.1,1.8-2.2,3.5-2.3l0.5,0l-0.2,0.4c-0.4,1,0.1,2.3,1.1,3.1c1,0.8,2.4,1.1,3.8,0.7c1.4-0.4,2.7-1.2,4-2.2
					c1.3-1,2.7-2.1,4.5-2.7c1.8-0.7,3.8-0.5,5.7,0.1c1.8,0.6,3.6,1.5,5.4,2.2c3.6,1.3,7.8,1.1,12,0.9c14.6-0.6,27.8-1.2,37.5-1.6
					c4.7-0.2,8.6-0.3,11.4-0.4c1.3,0,2.3,0,3.1-0.1C359.7,499.5,360.1,499.5,360.1,499.6z"/>
			</g>
		</g>
	</g>
</g>
<g>
	<g>
		<g>
			<path class="st14" d="M372.2,529.7c0,0.3-27.6,0.5-61.7,0.5c-34.1,0-61.7-0.2-61.7-0.5c0-0.3,27.6-0.5,61.7-0.5
				C344.5,529.3,372.2,529.5,372.2,529.7z"/>
		</g>
	</g>
</g>
<g>
	<g>
		<g>
			<g>
				<path class="st13" d="M126,249.8c0.1,0,0.3,1.2,0.4,3.3c0.2,2.1,0.4,5.2,0.7,8.8l0,0.4l-0.4,0c-2.9,0.3-6.2,0.7-9.6,1.1
					c-2.4,0.3-4.6,0.5-6.8,0.7l-0.5,0.1l0-0.5c-0.2-4.4-0.3-8.2-0.3-10.8c0-2.7,0-4.3,0.1-4.3c0.1,0,0.3,1.6,0.5,4.2
					c0.2,2.7,0.4,6.4,0.6,10.8l-0.5-0.4c2.1-0.2,4.4-0.5,6.7-0.8c3.5-0.4,6.7-0.7,9.6-1l-0.4,0.4c-0.2-3.6-0.3-6.6-0.3-8.8
					C125.9,251,125.9,249.8,126,249.8z"/>
			</g>
		</g>
	</g>
	<g>
		<g>
			<g>
				<path class="st13" d="M117.6,241.3c0.1,0.2-3.4,2.9-7.6,6.3c-4.2,3.4-7.5,6.3-7.7,6.1c-0.2-0.2,2.9-3.4,7.1-6.9
					C113.7,243.5,117.4,241.1,117.6,241.3z"/>
			</g>
		</g>
	</g>
	<g>
		<g>
			<g>
				<path class="st13" d="M132.2,253.4c-0.2,0.2-3.6-2.3-7.6-5.7c-4-3.3-7.2-6.2-7-6.4c0.2-0.2,3.6,2.3,7.6,5.7
					C129.2,250.3,132.3,253.2,132.2,253.4z"/>
			</g>
		</g>
	</g>
</g>
<g>
	<g>
		<g>
			
				<rect x="137.3" y="159.8" transform="matrix(0.9957 9.257269e-02 -9.257269e-02 0.9957 17.0551 -13.5472)" class="st15" width="34.5" height="34.5"/>
		</g>
	</g>
</g>
<g>
	<g>
		<g>
			
				<rect x="77.2" y="108.6" transform="matrix(0.9957 9.256773e-02 -9.256773e-02 0.9957 11.986 -8.1406)" class="st16" width="33.1" height="33.1"/>
		</g>
	</g>
	<g>
		<g>
			
				<rect x="136.1" y="104.8" transform="matrix(0.9957 9.257314e-02 -9.257314e-02 0.9957 11.8824 -13.6038)" class="st17" width="33.1" height="33.1"/>
		</g>
	</g>
	<g>
		<g>
			<g>
				<g>
					<path class="st6" d="M128.9,130.9c0,0.3-3.2,0.5-7.2,0.5c-4,0-7.2-0.2-7.2-0.5c0-0.3,3.2-0.5,7.2-0.5
						C125.7,130.4,128.9,130.6,128.9,130.9z"/>
				</g>
			</g>
		</g>
		<g>
			<g>
				<g>
					<path class="st6" d="M123.6,127.5c0.2-0.2,2.4,1.3,5.6,2.3l0.8,0.2l-0.6,0.6c-0.1,0.1-0.2,0.1-0.2,0.2
						c-2.6,2.4-4.9,4.1-5.1,3.9c-0.2-0.2,1.8-2.3,4.5-4.6c0.1-0.1,0.2-0.1,0.2-0.2l0.2,0.8C125.5,129.7,123.4,127.7,123.6,127.5z"/>
				</g>
			</g>
		</g>
	</g>
	<g>
		<g>
			<g>
				<path class="st6" d="M123.6,185.6c0,0.1-1.1,0.1-3.2,0.1c-2.2,0.1-5.1,0.1-8.6,0.2c-1.8,0-3.8,0.3-6,0.2c-2.2,0-4.5-0.3-6.8-1.1
					c-2.3-0.8-4.6-2.4-6-4.8c-1.4-2.3-2.1-5.1-2.4-7.9c-1.1-11.1-2-21.1-2.6-28.3c-0.3-3.5-0.5-6.4-0.7-8.6c-0.1-2-0.2-3.2-0.1-3.2
					c0.1,0,0.2,1.1,0.5,3.1c0.2,2.2,0.6,5.1,1,8.6c0.8,7.4,1.8,17.3,2.9,28.2c0.4,2.7,0.9,5.4,2.3,7.5c1.3,2.2,3.4,3.6,5.5,4.4
					c2.2,0.8,4.5,1.1,6.6,1.2c2.1,0.1,4.1-0.1,5.9-0.1c3.6,0,6.6,0,8.6,0.1C122.5,185.5,123.6,185.6,123.6,185.6z"/>
			</g>
		</g>
	</g>
	<g>
		<g>
			<g>
				<path class="st6" d="M120.4,190.3c-0.2-0.2,1.8-2.6,4.8-4.9c0.1-0.1,0.2-0.2,0.3-0.2l0.1,0.8c-3.3-1.7-5.2-3.9-5-4.1
					c0.2-0.2,2.3,1.7,5.5,3.2l0.7,0.3l-0.6,0.5c-0.1,0.1-0.2,0.2-0.3,0.2C122.8,188.4,120.6,190.5,120.4,190.3z"/>
			</g>
		</g>
	</g>
</g>
<g>
	<g>
		<g>
			
				<rect x="584.5" y="386" transform="matrix(0.9957 9.257215e-02 -9.257215e-02 0.9957 39.7886 -53.854)" class="st16" width="31.8" height="31.8"/>
		</g>
	</g>
	<g>
		<g>
			<rect x="586.3" y="248" class="st16" width="31.8" height="31.8"/>
		</g>
	</g>
	<g>
		<g>
			
				<rect x="586.3" y="290.5" transform="matrix(0.9979 -6.536054e-02 6.536054e-02 0.9979 -18.7383 40.0197)" class="st17" width="31.8" height="31.8"/>
		</g>
	</g>
	<g>
		<g>
			
				<rect x="586.3" y="336" transform="matrix(0.9957 9.257267e-02 -9.257267e-02 0.9957 35.1621 -54.2425)" class="st18" width="31.8" height="31.8"/>
		</g>
	</g>
	<g>
		<g>
			<g>
				<g>
					<path class="st6" d="M624.5,400.5c-0.1-0.1,1.3-0.9,3.5-2.7c2.3-1.7,5.4-4.4,8.7-8.2c3.3-3.8,6.8-8.8,9.6-14.8
						c2.8-6,4.9-13.2,5.4-20.9c0.5-7.7-0.7-15.1-3.5-21.2c-2.7-6.1-6.9-10.7-11-13.5c-4.1-2.9-8.1-4.1-10.9-4.7
						c-2.8-0.5-4.4-0.4-4.4-0.5c0,0,0.4-0.1,1.1-0.1c0.8,0,1.9,0,3.3,0.3c2.8,0.4,6.9,1.6,11.2,4.5c4.2,2.9,8.7,7.5,11.4,13.7
						c2.8,6.2,4.1,13.8,3.6,21.6c-0.5,7.8-2.6,15.1-5.5,21.2c-2.9,6.1-6.5,11.1-9.9,14.9c-3.5,3.8-6.7,6.4-9,8
						c-1.1,0.9-2.1,1.4-2.7,1.8C624.8,400.4,624.5,400.6,624.5,400.5z"/>
				</g>
			</g>
		</g>
		<g>
			<g>
				<g>
					<path class="st6" d="M634.9,403.1c0,0.3-5.1,0.8-11.4,1.1l0,0l-0.6,0l0.1-0.6c0.8-6.2,1.6-11.3,1.9-11.2
						c0.3,0-0.2,5.1-0.9,11.4l-0.5-0.5l0,0C629.7,402.9,634.9,402.8,634.9,403.1z"/>
				</g>
			</g>
		</g>
	</g>
</g>
<g>
	<g>
		<g>
			<g>
				<path class="st6" d="M285,186.3c0.2-0.1,5.5,17.6,11.7,39.4c6.2,21.8,11.1,39.6,10.8,39.7s-5.5-17.6-11.7-39.4
					C289.6,204.2,284.7,186.4,285,186.3z"/>
			</g>
		</g>
	</g>
	<g>
		<g>
			<g>
				<path class="st6" d="M291.8,188.6c-0.1,0.2-3.5-1-7.6-2.9c-0.1,0-0.2-0.1-0.3-0.1l0.6-0.3c-1.2,4.1-2.3,7.4-2.5,7.3
					c-0.2-0.1,0.5-3.4,1.6-7.6l0.1-0.5l0.5,0.2c0.1,0,0.2,0.1,0.3,0.1C288.7,186.7,291.9,188.3,291.8,188.6z"/>
			</g>
		</g>
	</g>
</g>
<g>
	<g>
		<g>
			<g>
				<path class="st6" d="M561.8,398c0,0.2-13.5,0.4-30.2,0.4c-16.7,0-29.8-0.4-30.2-0.4c-70,0,13.5-0.4,30.2-0.4
					C548.3,397.6,561.8,397.8,561.8,398z"/>
			</g>
		</g>
	</g>
	<g>
		<g>
			<g>
				<path class="st6" d="M559.7,406.7c-0.1,0,0-1,0.5-2.5c0.5-1.5,1.3-3.6,2.8-5.6l0,0.5c-0.1-0.3-0.3-0.5-0.4-0.8
					c-2.4-4.6-5.4-7.7-5.2-7.8c0.2-0.2,3.6,2.6,6.1,7.4c0.1,0.3,0.3,0.6,0.4,0.8l0.1,0.3l-0.2,0.2
					C560.9,403.1,560,406.9,559.7,406.7z"/>
			</g>
		</g>
	</g>
</g>
<g>
	<g>
		<g>
			<g>
				
					<rect x="19.9" y="181.2" transform="matrix(-0.9979 -6.535918e-02 6.535918e-02 -0.9979 73.2571 411.6209)" class="st16" width="46.9" height="46.9"/>
			</g>
		</g>
	</g>
	<g>
		<g>
			<g>
				<g>
					<path class="st6" d="M38.7,227.7c0,0-0.1,0.4-0.1,1.2c-0.1,0.9-0.1,2-0.2,3.3c-0.1,2.9-0.3,7.1-0.4,12.3
						c-0.1,5.2-0.2,11.4-0.1,18.3c0,3.4,0.1,7.1,0.2,10.8c0.1,1.9,0,3.8,0.4,5.8c0.4,1.9,1.3,4,3,5.3c1.7,1.3,3.8,1.7,5.7,2
						c1.9,0.3,3.8,0.5,5.7,0.7c3.7,0.4,7.3,0.7,10.8,0.8c6.9,0.4,13.1,0.4,18.3,0.2c5.2-0.2,9.4-0.5,12.3-0.8
						c1.4-0.1,2.6-0.3,3.3-0.4c0.8-0.1,1.2-0.2,1.2-0.2c0,0-0.4,0-1.2,0c-0.9,0.1-2,0.1-3.3,0.2c-2.9,0.2-7.1,0.4-12.3,0.5
						c-5.2,0.1-11.4,0-18.2-0.4c-3.4-0.2-7-0.5-10.7-0.9c-1.9-0.2-3.8-0.4-5.6-0.7c-1.9-0.3-3.8-0.7-5.3-1.9
						c-1.5-1.1-2.3-2.9-2.7-4.7c-0.4-1.8-0.4-3.7-0.4-5.6c-0.1-3.7-0.1-7.3-0.2-10.8c-0.1-6.9-0.1-13.1-0.1-18.3
						c0.1-5.1,0.1-9.3,0.1-12.3c0-1.4,0-2.5,0-3.3C38.8,228.1,38.8,227.7,38.7,227.7z"/>
				</g>
			</g>
		</g>
		<g>
			<g>
				<g>
					<path class="st6" d="M88,297.3c0.1,0.1,1.6-0.9,4.1-2.4c2.5-1.5,6.1-3.5,10.2-5.3l0.7-0.3l-0.5-0.5c-0.3-0.3-0.6-0.6-1-0.9
						c-3.6-3.2-7-6.1-9.4-8.2c-2.4-2.1-4-3.3-4.1-3.2c-0.1,0.1,1.3,1.5,3.6,3.7c2.3,2.2,5.6,5.1,9.2,8.4c0.3,0.3,0.7,0.6,1,0.9
						l0.1-0.8c-4.2,1.9-7.7,4-10.2,5.6C89.3,296,88,297.2,88,297.3z"/>
				</g>
			</g>
		</g>
	</g>
</g>
<g>
	<g>
		<g>
			<g>
				<g>
					<path class="st14" d="M122.6,240.6c0,0,0.4,0.1,1.2,0.3c0.8,0.3,1.9,0.7,3.1,1.6c2.5,1.6,5.8,5.2,6.8,10.6
						c0.6,2.7,0.4,5.8-0.7,8.9c-1.1,3-3,6-5.7,8.5c-2.7,2.4-6.1,4.4-9.9,5.4c-3.8,0.9-8.1,1-12.1-0.3c-4-1.3-7.5-4-9.5-7.4
						c-2.1-3.4-2.9-7.3-2.8-10.9c0.1-3.6,1.2-7.1,2.9-9.8c1.7-2.7,4-4.8,6.3-6.3c4.6-3,9.2-3.6,12.2-3.7c1.5,0,2.7,0.1,3.5,0.2
						c0.8,0.1,1.2,0.2,1.2,0.3c0,0.1-1.7-0.3-4.7-0.1c-2.9,0.2-7.4,0.9-11.8,3.9c-2.2,1.5-4.4,3.5-6,6.1c-1.6,2.6-2.6,5.9-2.7,9.4
						c0,3.5,0.7,7.2,2.8,10.4c2,3.2,5.2,5.8,9,7c3.8,1.2,7.9,1.2,11.6,0.3c3.7-0.9,7-2.8,9.6-5.1c2.6-2.3,4.5-5.2,5.6-8.1
						c1.1-2.9,1.3-5.9,0.8-8.5c-0.9-5.3-4-8.8-6.4-10.5C124.3,241,122.5,240.8,122.6,240.6z"/>
				</g>
			</g>
		</g>
		<g>
			<g>
				<g>
					<path class="st14" d="M191,195.5c0,0,0.1,0.3,0.1,0.9c0,0.6,0.1,1.5,0.1,2.7c0,2.4-0.2,5.8-0.9,10c-0.8,4.2-2.2,9-4.7,14.1
						c-2.4,5-5.9,10.2-10.5,14.8c-4.6,4.6-9.8,8.1-14.8,10.5c-5,2.5-9.9,3.9-14.1,4.7c-4.2,0.8-7.6,1-10,0.9c-1.2,0-2.1-0.1-2.7-0.1
						c-0.6,0-0.9-0.1-0.9-0.1c0-0.1,1.3-0.1,3.7-0.1c2.3-0.1,5.7-0.4,9.8-1.2c8.1-1.6,19.3-6.1,28.4-15.2
						c9.1-9.1,13.6-20.2,15.2-28.4c0.8-4.1,1.1-7.5,1.2-9.8C190.9,196.8,190.9,195.5,191,195.5z"/>
				</g>
			</g>
		</g>
	</g>
	<g>
		<g>
			<g>
				<path class="st14" d="M198.9,198.3c-0.2,0.1-3.5-4-7.5-9.4l0.8,0c-0.1,0.2-0.2,0.4-0.4,0.6c-3.5,6.1-6.5,10.9-6.7,10.8
					c-0.2-0.1,2.4-5.2,5.9-11.3c0.1-0.2,0.2-0.4,0.4-0.6l0.4-0.6l0.4,0.6C196.1,193.7,199.1,198.1,198.9,198.3z"/>
			</g>
		</g>
	</g>
</g>
<g>
	<g>
		<g>
			<polygon class="st4" points="544.5,493.1 542.9,498.4 519.6,500.4 532.5,476.4 538.3,480.8 540.7,487.2 			"/>
		</g>
	</g>
	<g>
		<g>
			<polygon class="st19" points="529.4,499.6 525.3,489.8 519.6,500.4 			"/>
		</g>
	</g>
	<g>
		<g>
			<polygon class="st20" points="670.3,425.6 663.1,410 532.5,476.4 542.9,498.4 			"/>
		</g>
	</g>
	<g>
		<g>
			<polygon class="st21" points="653.1,432.8 658.7,432.7 670.3,425.6 663.1,410 650.4,416.6 650.9,429.7 			"/>
		</g>
	</g>
	<g>
		<g>
			<polygon class="st4" points="651.8,430.6 651.5,430.8 540.9,494.3 540.6,493.7 651,430.4 647.9,424.3 535.9,483.7 535.7,483.1 
				648.1,423.3 			"/>
		</g>
	</g>
	<g>
		<g>
			<polygon class="st12" points="658.7,432.9 650.2,416.3 641,421.2 649.4,437.5 			"/>
		</g>
	</g>
</g>
<g>
	<path class="st22" d="M262.7,155.7c-2-12.7-13.4-14.1-18.7-12c-10.2,4-15.3,15.5-11.3,25.7c4.3,14.3,6.6,36.1,15.2,39.1
		C256.4,211.5,266.8,164.9,262.7,155.7z"/>
	<path class="st22" d="M286.2,145.9c-7.2-10.7,0.3-19.4,5.7-21.5c10.2-4,21.7,1.1,25.7,11.3c6.4,13.4,19.5,31.1,15.2,39.1
		S289.4,155.5,286.2,145.9z"/>
	<circle class="st23" cx="299.6" cy="139.7" r="14.8"/>
	<circle class="st23" cx="247.5" cy="160" r="14.8"/>
	<g>
		<path class="st24" d="M269.9,153.5l0.1-5.6c0-0.4-0.4-0.7-0.8-0.6l-4,1.6c-0.4,0.2-0.5,0.7-0.2,1l3.9,4
			C269.3,154.3,269.9,154.1,269.9,153.5z"/>
		<path class="st24" d="M275.8,153.4l3.9,4c0.3,0.3,0.2,0.8-0.2,1l-4,1.6c-0.4,0.2-0.8-0.1-0.8-0.6l0.1-5.6
			C274.8,153.3,275.4,153.1,275.8,153.4z"/>
		<path class="st24" d="M280.2,149.6l0.1-5.6c0-0.4-0.4-0.7-0.8-0.6l-4,1.6c-0.4,0.2-0.5,0.7-0.2,1l3.9,4
			C279.5,150.3,280.2,150.1,280.2,149.6z"/>
	</g>
	<path class="st4" d="M238.7,160.7l5.4-2.1l-2.1-5.4c-0.4-1,0.1-2.2,1.2-2.6l0.7-0.3c1-0.4,2.2,0.1,2.6,1.2l2.1,5.4l5.4-2.1
		c1-0.4,2.2,0.1,2.6,1.2l0.3,0.7c0.4,1-0.1,2.2-1.2,2.6l-5.4,2.1l2.1,5.4c0.4,1-0.1,2.2-1.2,2.6l-0.7,0.3c-1,0.4-2.2-0.1-2.6-1.2
		l-2.1-5.4l-5.4,2.1c-1,0.4-2.2-0.1-2.6-1.2l-0.3-0.7C237.1,162.3,237.7,161.1,238.7,160.7z"/>
	<g class="st25">
		<circle class="st4" cx="306.9" cy="136.9" r="3.9"/>
		<circle class="st4" cx="292.3" cy="142.5" r="3.9"/>
		<circle class="st4" cx="302.5" cy="147" r="3.9"/>
		<circle class="st4" cx="297" cy="132.4" r="3.9"/>
	</g>
</g>
<g>
	<g>
		<g>
			<g>
				<g>
					<g>
						<path class="st13" d="M448.3,282.3c0,0,0.1,0,0.4,0.1c0.3,0.1,0.6,0.2,1.1,0.4c0.5,0.2,1.1,0.5,1.8,0.8
							c0.7,0.4,1.5,0.8,2.3,1.3c1.7,1.1,3.6,2.6,5.4,4.8c0.9,1.1,1.8,2.3,2.6,3.7c0.4,0.7,0.8,1.4,1.1,2.2c0.3,0.8,0.7,1.6,0.9,2.4
							c1.1,3.4,1.5,7.4,0.7,11.5c-0.8,4.1-2.6,8.4-5.7,12c-1.5,1.8-3.3,3.4-5.4,4.8c-2.1,1.3-4.4,2.4-6.9,3
							c-5,1.3-10.5,1.2-15.7-0.6c-5.2-1.8-9.5-5.4-12.4-9.6c-2.9-4.2-4.6-9.1-4.8-13.8c-0.2-4.7,0.9-9.3,3-12.9
							c2.1-3.7,5.3-6.2,8.4-7.9c3.2-1.7,6.3-2.5,9.1-2.9c2.8-0.4,5.2-0.4,7.2-0.3c4,0.2,6.1,0.7,6.1,0.7s-0.1,0-0.4,0
							c-0.3,0-0.7-0.1-1.2-0.1c-1-0.1-2.6-0.3-4.5-0.4c-2-0.1-4.4,0-7.2,0.4c-2.8,0.4-5.9,1.3-9,2.9c-3.1,1.7-6.2,4.2-8.3,7.8
							c-2.1,3.6-3.2,8-2.9,12.7c0.2,4.6,1.9,9.5,4.8,13.6c2.9,4.2,7.1,7.6,12.2,9.5c5.1,1.8,10.5,1.9,15.4,0.6
							c4.9-1.3,9.2-4.1,12.2-7.7c3-3.6,4.9-7.7,5.6-11.8c0.8-4.1,0.4-8-0.7-11.4c-0.2-0.8-0.6-1.6-0.9-2.4c-0.4-0.8-0.7-1.5-1.1-2.2
							c-0.8-1.4-1.7-2.6-2.5-3.7c-1.8-2.2-3.7-3.7-5.3-4.8c-0.8-0.6-1.6-1-2.3-1.3c-0.7-0.3-1.3-0.6-1.7-0.8
							c-0.5-0.2-0.8-0.3-1.1-0.4C448.4,282.3,448.3,282.3,448.3,282.3z"/>
					</g>
				</g>
			</g>
		</g>
		<g class="st26">
			<g>
				<path class="st6" d="M419.4,313.9c-0.2,0-0.5-0.1-0.6-0.3c-0.4-0.4-0.4-1-0.1-1.3l12-12.9c0.2-0.2,0.4-0.3,0.7-0.3c0,0,0,0,0,0
					c0.3,0,0.5,0.1,0.7,0.3l10.8,11.6l9-5.6c0.3-0.2,0.7-0.2,1,0l7.9,4.9c0.4,0.3,0.6,0.9,0.3,1.3c-0.3,0.4-0.9,0.6-1.3,0.3
					l-7.3-4.6l-9.2,5.7c-0.4,0.2-0.9,0.2-1.2-0.2l-10.6-11.4l-11.3,12.2C419.9,313.8,419.7,313.9,419.4,313.9z"/>
			</g>
			<g>
				<path class="st6" d="M445,303.2c-2.1,0-3.9-1.8-3.9-4c0-2.2,1.7-4,3.9-4c2.1,0,3.9,1.8,3.9,4C448.9,301.4,447.2,303.2,445,303.2
					z M445,297.1c-1.1,0-2,0.9-2,2.1c0,1.2,0.9,2.1,2,2.1c1.1,0,2-0.9,2-2.1C447,298.1,446.1,297.1,445,297.1z"/>
			</g>
		</g>
	</g>
	<g>
		<g>
			<g>
				<g>
					<g>
						<path class="st13" d="M383.5,282.3c0,0,0.1,0,0.4,0.1c0.3,0.1,0.6,0.2,1.1,0.4c0.5,0.2,1.1,0.5,1.8,0.8
							c0.7,0.4,1.5,0.8,2.3,1.3c1.7,1.1,3.6,2.6,5.4,4.8c0.9,1.1,1.8,2.3,2.6,3.7c0.4,0.7,0.8,1.4,1.1,2.2c0.3,0.8,0.7,1.6,0.9,2.4
							c1.1,3.4,1.5,7.4,0.7,11.5c-0.8,4.1-2.6,8.4-5.7,12c-1.5,1.8-3.3,3.4-5.4,4.8c-2.1,1.3-4.4,2.4-6.9,3
							c-5,1.3-10.5,1.2-15.7-0.6c-5.2-1.8-9.5-5.4-12.4-9.6c-2.9-4.2-4.6-9.1-4.8-13.8c-0.2-4.7,0.9-9.3,3-12.9
							c2.1-3.7,5.3-6.2,8.4-7.9c3.2-1.7,6.3-2.5,9.1-2.9c2.8-0.4,5.2-0.4,7.2-0.3c4,0.2,6.1,0.7,6.1,0.7s-0.1,0-0.4,0
							c-0.3,0-0.7-0.1-1.2-0.1c-1-0.1-2.6-0.3-4.5-0.4c-2-0.1-4.4,0-7.2,0.4c-2.8,0.4-5.9,1.3-9,2.9c-3.1,1.7-6.2,4.2-8.3,7.8
							c-2.1,3.6-3.2,8-2.9,12.7c0.2,4.6,1.9,9.5,4.8,13.6c2.9,4.2,7.1,7.6,12.2,9.5c5.1,1.8,10.5,1.9,15.4,0.6
							c4.9-1.3,9.2-4.1,12.2-7.7c3-3.6,4.9-7.7,5.6-11.8c0.8-4.1,0.4-8-0.7-11.4c-0.2-0.8-0.6-1.6-0.9-2.4c-0.4-0.8-0.7-1.5-1.1-2.2
							c-0.8-1.4-1.7-2.6-2.5-3.7c-1.8-2.2-3.7-3.7-5.3-4.8c-0.8-0.6-1.6-1-2.3-1.3c-0.7-0.3-1.3-0.6-1.7-0.8
							c-0.5-0.2-0.8-0.3-1.1-0.4C383.6,282.3,383.5,282.3,383.5,282.3z"/>
					</g>
				</g>
			</g>
		</g>
		<g class="st26">
			<g>
				<path class="st6" d="M354.6,313.9c-0.2,0-0.5-0.1-0.6-0.3c-0.4-0.4-0.4-1-0.1-1.3l12-12.9c0.2-0.2,0.4-0.3,0.7-0.3c0,0,0,0,0,0
					c0.3,0,0.5,0.1,0.7,0.3l10.8,11.6l9-5.6c0.3-0.2,0.7-0.2,1,0l7.9,4.9c0.4,0.3,0.6,0.9,0.3,1.3c-0.3,0.4-0.9,0.6-1.3,0.3
					l-7.3-4.6l-9.2,5.7c-0.4,0.2-0.9,0.2-1.2-0.2l-10.6-11.4l-11.3,12.2C355.1,313.8,354.9,313.9,354.6,313.9z"/>
			</g>
			<g>
				<path class="st6" d="M380.2,303.2c-2.1,0-3.9-1.8-3.9-4c0-2.2,1.7-4,3.9-4c2.1,0,3.9,1.8,3.9,4
					C384.1,301.4,382.4,303.2,380.2,303.2z M380.2,297.1c-1.1,0-2,0.9-2,2.1c0,1.2,0.9,2.1,2,2.1c1.1,0,2-0.9,2-2.1
					C382.2,298.1,381.3,297.1,380.2,297.1z"/>
			</g>
		</g>
	</g>
	<g>
		<g>
			<g>
				<g>
					<g>
						<path class="st13" d="M317,282.3c0,0,0.1,0,0.4,0.1c0.3,0.1,0.6,0.2,1.1,0.4c0.5,0.2,1.1,0.5,1.8,0.8c0.7,0.4,1.5,0.8,2.3,1.3
							c1.7,1.1,3.6,2.6,5.4,4.8c0.9,1.1,1.8,2.3,2.6,3.7c0.4,0.7,0.8,1.4,1.1,2.2c0.3,0.8,0.7,1.6,0.9,2.4c1.1,3.4,1.5,7.4,0.7,11.5
							c-0.8,4.1-2.6,8.4-5.7,12c-1.5,1.8-3.3,3.4-5.4,4.8c-2.1,1.3-4.4,2.4-6.9,3c-5,1.3-10.5,1.2-15.7-0.6
							c-5.2-1.8-9.5-5.4-12.4-9.6c-2.9-4.2-4.6-9.1-4.8-13.8c-0.2-4.7,0.9-9.3,3-12.9c2.1-3.7,5.3-6.2,8.4-7.9
							c3.2-1.7,6.3-2.5,9.1-2.9c2.8-0.4,5.2-0.4,7.2-0.3c4,0.2,6.1,0.7,6.1,0.7s-0.1,0-0.4,0c-0.3,0-0.7-0.1-1.2-0.1
							c-1-0.1-2.6-0.3-4.5-0.4c-2-0.1-4.4,0-7.2,0.4c-2.8,0.4-5.9,1.3-9,2.9c-3.1,1.7-6.2,4.2-8.3,7.8c-2.1,3.6-3.2,8-2.9,12.7
							c0.2,4.6,1.9,9.5,4.8,13.6c2.9,4.2,7.1,7.6,12.2,9.5c5.1,1.8,10.5,1.9,15.4,0.6c4.9-1.3,9.2-4.1,12.2-7.7
							c3-3.6,4.9-7.7,5.6-11.8c0.8-4.1,0.4-8-0.7-11.4c-0.2-0.8-0.6-1.6-0.9-2.4c-0.4-0.8-0.7-1.5-1.1-2.2c-0.8-1.4-1.7-2.6-2.5-3.7
							c-1.8-2.2-3.7-3.7-5.3-4.8c-0.8-0.6-1.6-1-2.3-1.3c-0.7-0.3-1.3-0.6-1.7-0.8c-0.5-0.2-0.8-0.3-1.1-0.4
							C317.1,282.3,317,282.3,317,282.3z"/>
					</g>
				</g>
			</g>
		</g>
		<g class="st26">
			<g>
				<path class="st6" d="M288.1,313.9c-0.2,0-0.5-0.1-0.6-0.3c-0.4-0.4-0.4-1-0.1-1.3l12-12.9c0.2-0.2,0.4-0.3,0.7-0.3c0,0,0,0,0,0
					c0.3,0,0.5,0.1,0.7,0.3l10.8,11.6l9-5.6c0.3-0.2,0.7-0.2,1,0l7.9,4.9c0.4,0.3,0.6,0.9,0.3,1.3c-0.3,0.4-0.9,0.6-1.3,0.3
					l-7.3-4.6l-9.2,5.7c-0.4,0.2-0.9,0.2-1.2-0.2L300,301.4l-11.3,12.2C288.6,313.8,288.3,313.9,288.1,313.9z"/>
			</g>
			<g>
				<path class="st6" d="M313.7,303.2c-2.1,0-3.9-1.8-3.9-4c0-2.2,1.7-4,3.9-4c2.1,0,3.9,1.8,3.9,4
					C317.6,301.4,315.8,303.2,313.7,303.2z M313.7,297.1c-1.1,0-2,0.9-2,2.1c0,1.2,0.9,2.1,2,2.1c1.1,0,2-0.9,2-2.1
					C315.7,298.1,314.8,297.1,313.7,297.1z"/>
			</g>
		</g>
	</g>
	<g>
		<g>
			<g>
				<g>
					<g>
						<path class="st13" d="M249.6,282.3c0,0,0.1,0,0.4,0.1c0.3,0.1,0.6,0.2,1.1,0.4c0.5,0.2,1.1,0.5,1.8,0.8
							c0.7,0.4,1.5,0.8,2.3,1.3c1.7,1.1,3.6,2.6,5.4,4.8c0.9,1.1,1.8,2.3,2.6,3.7c0.4,0.7,0.8,1.4,1.1,2.2c0.3,0.8,0.7,1.6,0.9,2.4
							c1.1,3.4,1.5,7.4,0.7,11.5c-0.8,4.1-2.6,8.4-5.7,12c-1.5,1.8-3.3,3.4-5.4,4.8c-2.1,1.3-4.4,2.4-6.9,3
							c-5,1.3-10.5,1.2-15.7-0.6c-5.2-1.8-9.5-5.4-12.4-9.6c-2.9-4.2-4.6-9.1-4.8-13.8c-0.2-4.7,0.9-9.3,3-12.9
							c2.1-3.7,5.3-6.2,8.4-7.9c3.2-1.7,6.3-2.5,9.1-2.9c2.8-0.4,5.2-0.4,7.2-0.3c4,0.2,6.1,0.7,6.1,0.7s-0.1,0-0.4,0
							c-0.3,0-0.7-0.1-1.2-0.1c-1-0.1-2.6-0.3-4.5-0.4c-2-0.1-4.4,0-7.2,0.4c-2.8,0.4-5.9,1.3-9,2.9c-3.1,1.7-6.2,4.2-8.3,7.8
							c-2.1,3.6-3.2,8-2.9,12.7c0.2,4.6,1.9,9.5,4.8,13.6c2.9,4.2,7.1,7.6,12.2,9.5c5.1,1.8,10.5,1.9,15.4,0.6
							c4.9-1.3,9.2-4.1,12.2-7.7c3-3.6,4.9-7.7,5.6-11.8c0.8-4.1,0.4-8-0.7-11.4c-0.2-0.8-0.6-1.6-0.9-2.4c-0.4-0.8-0.7-1.5-1.1-2.2
							c-0.8-1.4-1.7-2.6-2.5-3.7c-1.8-2.2-3.7-3.7-5.3-4.8c-0.8-0.6-1.6-1-2.3-1.3c-0.7-0.3-1.3-0.6-1.7-0.8
							c-0.5-0.2-0.8-0.3-1.1-0.4C249.7,282.3,249.6,282.3,249.6,282.3z"/>
					</g>
				</g>
			</g>
		</g>
		<g class="st26">
			<g>
				<path class="st6" d="M220.7,313.9c-0.2,0-0.5-0.1-0.6-0.3c-0.4-0.4-0.4-1-0.1-1.3l12-12.9c0.2-0.2,0.4-0.3,0.7-0.3c0,0,0,0,0,0
					c0.3,0,0.5,0.1,0.7,0.3l10.8,11.6l9-5.6c0.3-0.2,0.7-0.2,1,0l7.9,4.9c0.4,0.3,0.6,0.9,0.3,1.3c-0.3,0.4-0.9,0.6-1.3,0.3
					l-7.3-4.6l-9.2,5.7c-0.4,0.2-0.9,0.2-1.2-0.2l-10.6-11.4l-11.3,12.2C221.2,313.8,220.9,313.9,220.7,313.9z"/>
			</g>
			<g>
				<path class="st6" d="M246.3,303.2c-2.1,0-3.9-1.8-3.9-4c0-2.2,1.7-4,3.9-4c2.1,0,3.9,1.8,3.9,4
					C250.2,301.4,248.4,303.2,246.3,303.2z M246.3,297.1c-1.1,0-2,0.9-2,2.1c0,1.2,0.9,2.1,2,2.1c1.1,0,2-0.9,2-2.1
					C248.3,298.1,247.4,297.1,246.3,297.1z"/>
			</g>
		</g>
	</g>
	<g>
		<g>
			<g>
				<g>
					<g>
						<path class="st13" d="M185.6,282.3c0,0,0.1,0,0.4,0.1c0.3,0.1,0.6,0.2,1.1,0.4c0.5,0.2,1.1,0.5,1.8,0.8
							c0.7,0.4,1.5,0.8,2.3,1.3c1.7,1.1,3.6,2.6,5.4,4.8c0.9,1.1,1.8,2.3,2.6,3.7c0.4,0.7,0.8,1.4,1.1,2.2c0.3,0.8,0.7,1.6,0.9,2.4
							c1.1,3.4,1.5,7.4,0.7,11.5c-0.8,4.1-2.6,8.4-5.7,12c-1.5,1.8-3.3,3.4-5.4,4.8c-2.1,1.3-4.4,2.4-6.9,3
							c-5,1.3-10.5,1.2-15.7-0.6c-5.2-1.8-9.5-5.4-12.4-9.6c-2.9-4.2-4.6-9.1-4.8-13.8c-0.2-4.7,0.9-9.3,3-12.9
							c2.1-3.7,5.3-6.2,8.4-7.9c3.2-1.7,6.3-2.5,9.1-2.9c2.8-0.4,5.2-0.4,7.2-0.3c4,0.2,6.1,0.7,6.1,0.7s-0.1,0-0.4,0
							c-0.3,0-0.7-0.1-1.2-0.1c-1-0.1-2.6-0.3-4.5-0.4c-2-0.1-4.4,0-7.2,0.4c-2.8,0.4-5.9,1.3-9,2.9c-3.1,1.7-6.2,4.2-8.3,7.8
							c-2.1,3.6-3.2,8-2.9,12.7c0.2,4.6,1.9,9.5,4.8,13.6c2.9,4.2,7.1,7.6,12.2,9.5c5.1,1.8,10.5,1.9,15.4,0.6
							c4.9-1.3,9.2-4.1,12.2-7.7c3-3.6,4.9-7.7,5.6-11.8c0.8-4.1,0.4-8-0.7-11.4c-0.2-0.8-0.6-1.6-0.9-2.4c-0.4-0.8-0.7-1.5-1.1-2.2
							c-0.8-1.4-1.7-2.6-2.5-3.7c-1.8-2.2-3.7-3.7-5.3-4.8c-0.8-0.6-1.6-1-2.3-1.3c-0.7-0.3-1.3-0.6-1.7-0.8
							c-0.5-0.2-0.8-0.3-1.1-0.4C185.8,282.3,185.6,282.3,185.6,282.3z"/>
					</g>
				</g>
			</g>
		</g>
		<g class="st26">
			<g>
				<path class="st6" d="M156.7,313.9c-0.2,0-0.5-0.1-0.6-0.3c-0.4-0.4-0.4-1-0.1-1.3l12-12.9c0.2-0.2,0.4-0.3,0.7-0.3c0,0,0,0,0,0
					c0.3,0,0.5,0.1,0.7,0.3l10.8,11.6l9-5.6c0.3-0.2,0.7-0.2,1,0l7.9,4.9c0.4,0.3,0.6,0.9,0.3,1.3c-0.3,0.4-0.9,0.6-1.3,0.3
					l-7.3-4.6l-9.2,5.7c-0.4,0.2-0.9,0.2-1.2-0.2l-10.6-11.4l-11.3,12.2C157.3,313.8,157,313.9,156.7,313.9z"/>
			</g>
			<g>
				<path class="st6" d="M182.4,303.2c-2.1,0-3.9-1.8-3.9-4c0-2.2,1.7-4,3.9-4c2.1,0,3.9,1.8,3.9,4
					C186.3,301.4,184.5,303.2,182.4,303.2z M182.4,297.1c-1.1,0-2,0.9-2,2.1c0,1.2,0.9,2.1,2,2.1c1.1,0,2-0.9,2-2.1
					C184.3,298.1,183.5,297.1,182.4,297.1z"/>
			</g>
		</g>
	</g>
</g>
<g>
	<g>
		<g>
			<g>
				<g>
					<path class="st13" d="M507.2,249.6c0,0.3-5.2,0.5-11.5,0.5c-6.4,0-11.5-0.2-11.5-0.5c0-0.3,5.2-0.5,11.5-0.5
						C502,249.1,507.2,249.3,507.2,249.6z"/>
				</g>
			</g>
		</g>
		<g>
			<g>
				<g>
					<path class="st13" d="M504.8,253.4c0,0.3-5.2,0.5-11.5,0.5c-6.4,0-11.5-0.2-11.5-0.5c0-0.3,5.2-0.5,11.5-0.5
						C499.7,252.9,504.8,253.2,504.8,253.4z"/>
				</g>
			</g>
		</g>
		<g>
			<g>
				<g>
					<path class="st13" d="M506,257c0,0.3-5.2,0.5-11.5,0.5c-6.4,0-11.5-0.2-11.5-0.5c0-0.3,5.2-0.5,11.5-0.5
						C500.8,256.5,506,256.7,506,257z"/>
				</g>
			</g>
		</g>
	</g>
	<g>
		<g>
			<g>
				<g>
					<path class="st14" d="M491.9,235.7c0,0,1.8-0.5,5-0.1c3.2,0.5,7.9,2.4,11.6,7.1c1.8,2.3,3.3,5.3,3.7,8.8
						c0.2,1.7,0.1,3.5-0.2,5.4c-0.3,1.8-1,3.6-1.8,5.4c-1.7,3.5-4.5,6.7-8.2,8.9c-3.7,2.2-8.2,3-12.7,2.5c-4.5-0.5-8.7-2.3-12-4.9
						c-3.3-2.6-5.7-6.2-7-9.9c-1.3-3.7-1.6-7.5-0.9-10.9c0.7-3.4,2.3-6.4,4.4-8.5c2.1-2.1,4.4-3.5,6.6-4.3c2.2-0.8,4.2-1,5.9-1
						c1.6,0,2.9,0.3,3.7,0.6c0.8,0.3,1.2,0.5,1.2,0.5c0,0.2-1.7-0.8-4.9-0.7c-1.6,0-3.6,0.3-5.7,1.1c-2.1,0.8-4.4,2.2-6.3,4.2
						c-2,2-3.5,4.9-4.1,8.1c-0.6,3.3-0.3,6.9,0.9,10.5c1.2,3.5,3.5,6.9,6.7,9.4c3.2,2.5,7.2,4.2,11.5,4.7c4.3,0.5,8.6-0.3,12.1-2.4
						c3.5-2,6.2-5.1,7.9-8.4c0.8-1.7,1.4-3.4,1.8-5.2c0.3-1.7,0.4-3.5,0.2-5.1c-0.3-3.3-1.7-6.2-3.4-8.5c-3.5-4.6-8.1-6.5-11.1-7.1
						C493.7,235.4,491.9,235.8,491.9,235.7z"/>
				</g>
			</g>
		</g>
		<g>
			<g>
				<g>
					<path class="st14" d="M538.4,211.8c0.1,0,0,0.7-0.2,1.9c-0.2,1.2-0.7,3-1.5,5.1c-1.6,4.2-5,9.7-10.5,13.8
						c-5.5,4.2-11.8,5.9-16.2,6.2c-2.2,0.2-4.1,0.1-5.3,0c-1.2-0.1-1.9-0.3-1.9-0.3c0-0.2,2.8,0.2,7.1-0.3
						c4.3-0.5,10.3-2.3,15.7-6.3c5.4-4,8.7-9.3,10.4-13.3C537.8,214.5,538.2,211.8,538.4,211.8z"/>
				</g>
			</g>
		</g>
		<g>
			<g>
				<g>
					<path class="st14" d="M541.7,214.9c-0.2,0.1-1.8-1.9-3.6-4.7l0.7,0.1c-0.1,0.1-0.1,0.1-0.2,0.2c-2.4,2.5-4.5,4.3-4.6,4.1
						s1.6-2.3,4-4.8c0.1-0.1,0.1-0.2,0.2-0.2l0.4-0.4l0.3,0.5C540.7,212.5,541.9,214.8,541.7,214.9z"/>
				</g>
			</g>
		</g>
	</g>
</g>
<g>
	<g>
		<g>
			<path class="st6" d="M489.9,386c-0.1,0,0-1,0.5-2.5c0.5-1.5,1.3-3.6,2.8-5.6l0,0.5c-0.1-0.3-0.3-0.5-0.4-0.8
				c-2.4-4.6-5.4-7.7-5.2-7.8c0.2-0.2,3.6,2.6,6.1,7.4c0.1,0.3,0.3,0.6,0.4,0.8l0.1,0.3l-0.2,0.2C491.1,382.3,490.2,386.1,489.9,386
				z"/>
		</g>
	</g>
</g>
<g>
	<g>
		<g>
			<path class="st6" d="M121.3,369.8c0.1,0,0,1-0.5,2.5c-0.5,1.5-1.3,3.6-2.8,5.6l0-0.5c0.1,0.3,0.3,0.5,0.4,0.8
				c2.4,4.6,5.4,7.7,5.2,7.8c-0.2,0.2-3.6-2.6-6.1-7.4c-0.1-0.3-0.3-0.6-0.4-0.8l-0.1-0.3l0.2-0.2
				C120.1,373.4,121,369.7,121.3,369.8z"/>
		</g>
	</g>
</g>
<g>
	<g>
		<circle class="st27" cx="383.1" cy="442.1" r="2.3"/>
	</g>
	<g>
		<circle class="st27" cx="367.1" cy="442.1" r="2.3"/>
	</g>
	<g>
		<circle class="st27" cx="351" cy="442.1" r="2.3"/>
	</g>
	<g>
		<circle class="st27" cx="335" cy="442.1" r="2.3"/>
	</g>
	<g>
		<circle class="st27" cx="319" cy="442.1" r="2.3"/>
	</g>
	<g>
		<circle class="st27" cx="302.9" cy="442.1" r="2.3"/>
	</g>
	<g>
		<circle class="st27" cx="286.9" cy="442.1" r="2.3"/>
	</g>
	<g>
		<circle class="st27" cx="270.9" cy="442.1" r="2.3"/>
	</g>
	<g>
		<circle class="st27" cx="254.9" cy="442.1" r="2.3"/>
	</g>
</g>
<g>
	<g>
		<g>
			<path class="st28" d="M577.7,523.6l-34.4,5.5c-1.9,0.3-3.3,2.1-3,4.1l5.6,35.2c0.3,1.9,2.1,3.3,4.1,3l34.4-5.5
				c1.9-0.3,3.3-2.1,3-4.1l-5.6-35.2C581.5,524.6,579.6,523.3,577.7,523.6z"/>
		</g>
	</g>
	<g>
		<g>
			<path class="st4" d="M570.1,534.9c0.3,1.8,2,3,3.8,2.7c1.8-0.3,3-2,2.7-3.8c-0.3-1.8-2-3-3.8-2.7
				C571.1,531.4,569.8,533,570.1,534.9z"/>
		</g>
		<g>
			<path class="st4" d="M545.7,538.8c0.3,1.8,2,3,3.8,2.7c1.8-0.3,3-2,2.7-3.8c-0.3-1.8-2-3-3.8-2.7
				C546.6,535.3,545.4,536.9,545.7,538.8z"/>
		</g>
		<g>
			<path class="st4" d="M549.6,562.9c0.3,1.8,2,3,3.8,2.7s3-2,2.7-3.8c-0.3-1.8-2-3-3.8-2.7C550.5,559.4,549.3,561.1,549.6,562.9z"
				/>
		</g>
		<g>
			<path class="st4" d="M575.3,558.8c0.3,1.8,2,3,3.8,2.7c1.8-0.3,3-2,2.7-3.8c-0.3-1.8-2-3-3.8-2.7S575,557,575.3,558.8z"/>
		</g>
	</g>
</g>
<g>
	<g>
		<g>
			<path class="st29" d="M546.6,545.9l-33.7-8.5c-1.9-0.5-3.9,0.7-4.3,2.6l-8.7,34.6c-0.5,1.9,0.7,3.9,2.6,4.3l33.7,8.5
				c1.9,0.5,3.9-0.7,4.3-2.6l8.7-34.6C549.7,548.3,548.5,546.4,546.6,545.9z"/>
		</g>
	</g>
	<g>
		<g>
			<path class="st4" d="M520.3,561.3c-0.4,1.8,0.6,3.6,2.4,4c1.8,0.4,3.6-0.6,4-2.4c0.4-1.8-0.6-3.6-2.4-4
				C522.5,558.5,520.7,559.5,520.3,561.3z"/>
		</g>
		<g>
			<path class="st4" d="M535.2,553.2c-0.4,1.8,0.6,3.6,2.4,4c1.8,0.4,3.6-0.6,4-2.4c0.4-1.8-0.6-3.6-2.4-4
				C537.5,550.4,535.7,551.5,535.2,553.2z"/>
		</g>
		<g>
			<path class="st4" d="M511.2,547.2c-0.4,1.8,0.6,3.6,2.4,4c1.8,0.4,3.6-0.6,4-2.4c0.4-1.8-0.6-3.6-2.4-4
				C513.5,544.3,511.7,545.4,511.2,547.2z"/>
		</g>
		<g>
			<path class="st4" d="M505.2,570.9c-0.4,1.8,0.6,3.6,2.4,4c1.8,0.4,3.6-0.6,4-2.4c0.4-1.8-0.6-3.6-2.4-4
				C507.5,568,505.7,569.1,505.2,570.9z"/>
		</g>
		<g>
			<path class="st4" d="M530.5,577.3c-0.4,1.8,0.6,3.6,2.4,4c1.8,0.4,3.6-0.6,4-2.4c0.4-1.8-0.6-3.6-2.4-4
				C532.7,574.4,530.9,575.5,530.5,577.3z"/>
		</g>
	</g>
</g>
</svg>
