<svg id="Layer_1" data-name="Layer 1" xmlns="http://www.w3.org/2000/svg" viewBox="0 0 675.7 698"><defs><style>.cls-1{fill:#eaeaea;}.cls-15,.cls-2,.cls-4{fill:#fff;}.cls-2{stroke:#c6c6c6;stroke-width:0.42px;}.cls-2,.cls-4,.cls-5{stroke-miterlimit:10;}.cls-3{fill:#d0e6ea;}.cls-4,.cls-5{stroke:#aab5ba;stroke-width:0.83px;}.cls-5,.cls-6{fill:#1a2e35;}.cls-7{fill:#4b7f7d;}.cls-8{fill:#ff4f5b;}.cls-9{fill:#acc1c6;}.cls-10{fill:#fcc302;}.cls-11{fill:#95a4ad;}.cls-12{fill:#558489;}.cls-13{fill:#e1e1e1;}.cls-14{opacity:0.5;}.cls-16{fill:#519dae;}</style></defs><rect class="cls-1" x="72.96" y="272.61" width="444.87" height="231.25" rx="20.93" transform="translate(538.7 -34.6) rotate(67.18)"/><rect class="cls-2" x="213.05" y="148.61" width="351.06" height="431.75" transform="translate(-6.32 6.86) rotate(-1)"/><path class="cls-3" d="M560.29,145.19l.22,12.15-351,6.15-.2-11.77c-.09-5.13,2.2-9.34,5.12-9.4L554.83,136C557.76,135.94,560.2,140.06,560.29,145.19Z"/><path class="cls-4" d="M455,230.94l-22.88.2a5.64,5.64,0,0,0-5.5,5.8l0,4.09a5.61,5.61,0,0,1-5.49,5.79l-44.64.4a5.61,5.61,0,0,1-5.59-5.7l0-4.08a5.63,5.63,0,0,0-5.6-5.7l-8.07.07-20.07.18a17.92,17.92,0,0,0-17.88,18l2.48,285.18a17.9,17.9,0,0,0,18.19,17.63l117.84-1a17.91,17.91,0,0,0,17.87-18l-2.47-285.18A17.92,17.92,0,0,0,455,230.94Z"/><path class="cls-5" d="M455,230.94h.63c.42.07,1.05,0,1.82.13A17.76,17.76,0,0,1,473.26,249l.07,8.38c.21,23.68.59,58,1,100.34l1.33,148.76.19,21.26.05,5.4a17.69,17.69,0,0,1-.66,5.41,16.82,16.82,0,0,1-2.27,5,20.68,20.68,0,0,1-3.68,4.12,18.36,18.36,0,0,1-10.35,4.11c-3.79.17-7.51.07-11.3.17l-23,.21-47.09.42-24.07.21-12.14.11a19.06,19.06,0,0,1-11.75-3.08,18.33,18.33,0,0,1-7.25-9.7,19.24,19.24,0,0,1-.82-6l-.06-6-.21-23.75-.41-46.47L320.06,370c-.25-28-.48-54.64-.64-79.5l-.32-36,0-4.29c0-.7.05-1.46.05-2.15s.19-1.46.33-2.15a17.74,17.74,0,0,1,3.72-7.58,18.51,18.51,0,0,1,6.62-5,20,20,0,0,1,8-1.59l15.72-.14,7.58-.07,3.72,0a5.91,5.91,0,0,1,3.59.93,5.45,5.45,0,0,1,2.2,2.82,8.59,8.59,0,0,1,.38,3.53l0,1.73a12.48,12.48,0,0,0,.08,1.66,5.76,5.76,0,0,0,1.36,3,4.91,4.91,0,0,0,2.75,1.64,6.36,6.36,0,0,0,1.62.12h1.68l6.53-.06,23.79-.21,10.46-.1c.84,0,1.68.06,2.46,0a4.7,4.7,0,0,0,2.16-.78,5.52,5.52,0,0,0,2.5-3.62,11.13,11.13,0,0,0,.12-2.15l0-2.15a20.7,20.7,0,0,1,0-2.08,6.43,6.43,0,0,1,.69-1.94,5.31,5.31,0,0,1,2.85-2.52,9.09,9.09,0,0,1,3.58-.38l11.72-.1,7.16-.07a15.56,15.56,0,0,0,2.46.26l-2.46,0-7.16.06-11.72.11a8.62,8.62,0,0,0-3.51.38,5.55,5.55,0,0,0-2.78,2.45,4.23,4.23,0,0,0-.62,1.87,10.84,10.84,0,0,0-.05,2.08l0,2.15a12,12,0,0,1-.12,2.21A6.12,6.12,0,0,1,424,246a6.75,6.75,0,0,1-2.31.85c-.84.07-1.62,0-2.46.09l-10.45.09-23.8.21-6.52.06-1.69,0a6.81,6.81,0,0,1-1.68-.13,5.23,5.23,0,0,1-2.9-1.77,5.87,5.87,0,0,1-1.43-3.11,14.22,14.22,0,0,1-.08-1.73l0-1.73a9.06,9.06,0,0,0-.38-3.39A5.43,5.43,0,0,0,364.8,232l-3.71,0-7.58.07-15.72.14a19,19,0,0,0-7.85,1.53,18.69,18.69,0,0,0-6.49,4.9,17.78,17.78,0,0,0-3.65,7.44c-.2.7-.2,1.39-.33,2.09a18.72,18.72,0,0,0-.05,2.14l0,4.3.32,36,.71,79.5.78,87.88.41,46.47.21,23.75.06,6a20.81,20.81,0,0,0,.75,5.88,17.55,17.55,0,0,0,7,9.43,18.53,18.53,0,0,0,11.46,3l12.14-.1,24.08-.22,47.09-.42,22.95-.2c3.79,0,7.58,0,11.3-.17a17.68,17.68,0,0,0,10.07-4,18.28,18.28,0,0,0,3.61-4.05,16.6,16.6,0,0,0,2.2-4.87,19.43,19.43,0,0,0,.66-5.27l-.05-5.4-.19-21.26c-.5-56-.88-106.44-1.26-148.75s-.61-76.6-.82-100.35l-.07-8.38a17.65,17.65,0,0,0-4.82-12.35,16.88,16.88,0,0,0-4.1-3.22,17.94,17.94,0,0,0-6.76-2.3,10.19,10.19,0,0,0-1.82-.12A.67.67,0,0,0,455,230.94Z"/><path class="cls-6" d="M457.54,257.65c0,.21-3.79.38-8.49.42s-8.49-.06-8.49-.27,3.78-.38,8.49-.42S457.54,257.44,457.54,257.65Z"/><path class="cls-6" d="M455.81,260.43c0,.21-3.79.38-8.49.43s-8.49-.07-8.49-.27,3.78-.38,8.49-.43S455.81,260.23,455.81,260.43Z"/><path class="cls-6" d="M456.75,263c0,.21-3.79.38-8.49.42s-8.5-.06-8.5-.27,3.79-.38,8.49-.42S456.74,262.78,456.75,263Z"/><path class="cls-6" d="M410.06,284.94l.63.21c.42.13,1.06.33,1.83.6s1.76.75,2.89,1.22a32,32,0,0,1,3.74,2.12,37.73,37.73,0,0,1,8.91,7.68,45.37,45.37,0,0,1,4.33,6c.72,1.1,1.29,2.35,1.93,3.52s1.15,2.55,1.58,3.93a36.63,36.63,0,0,1,1.36,18.62,42.37,42.37,0,0,1-9.09,19.47,39.71,39.71,0,0,1-8.85,7.77,42.33,42.33,0,0,1-11.25,5,44.09,44.09,0,0,1-25.7-.75A42.1,42.1,0,0,1,362,344.93a43,43,0,0,1-8.06-22.29,37.5,37.5,0,0,1,4.73-20.89,34.92,34.92,0,0,1,13.71-12.87A45.7,45.7,0,0,1,387.24,284a66.08,66.08,0,0,1,11.85-.59,70.3,70.3,0,0,1,10.05,1,4.32,4.32,0,0,1-.63-.07c-.49-.06-1.13-.12-2-.19a72.75,72.75,0,0,0-7.44-.48,67.26,67.26,0,0,0-11.79.72,46,46,0,0,0-14.69,4.91,34.4,34.4,0,0,0-13.44,12.73,36.43,36.43,0,0,0-4.59,20.54,42,42,0,0,0,8,21.95,41.44,41.44,0,0,0,20.07,15.13,43.22,43.22,0,0,0,25.27.74,39.11,39.11,0,0,0,19.82-12.57,41.23,41.23,0,0,0,9-19.13,36.62,36.62,0,0,0-1.29-18.41c-.43-1.38-1-2.62-1.51-3.86s-1.14-2.42-1.85-3.52a41.41,41.41,0,0,0-4.2-5.92,43.29,43.29,0,0,0-8.77-7.68,33.28,33.28,0,0,0-3.74-2.11c-1.13-.54-2.11-.95-2.89-1.29s-1.41-.54-1.83-.68A5.56,5.56,0,0,1,410.06,284.94Z"/><path class="cls-7" d="M439,387a4.28,4.28,0,0,1-.91-.34,26.91,26.91,0,0,0-2.68-.81,25.45,25.45,0,0,0-10.18-.46,24.59,24.59,0,0,0-6.72,2c-1.12.49-2.31,1.2-3.63,1.69a6.91,6.91,0,0,1-4.28.53c-3.31-.81-3.77-5-6.72-5.55-1.4-.27-2.73.78-3.77,1.9a28,28,0,0,1-3.55,3.49,5.3,5.3,0,0,1-5,.6,16.49,16.49,0,0,1-4.16-2.52,40.55,40.55,0,0,0-3.68-2.67,6,6,0,0,0-4-.93,5.13,5.13,0,0,0-3.28,2.1c-.91,1-1.6,2.09-2.43,3.07a9.53,9.53,0,0,1-2.86,2.45,7.8,7.8,0,0,1-3.43.79,7.46,7.46,0,0,1-5.36-2.37,8,8,0,0,1-1.72-4.07,6,6,0,0,1,.33-2.78,3.32,3.32,0,0,1,.41-.9,8.85,8.85,0,0,0-.46,3.6,7,7,0,0,0,1.72,3.87,6.79,6.79,0,0,0,5.07,2.17,7.3,7.3,0,0,0,3.16-.72,7.62,7.62,0,0,0,2.64-2.31c.77-1,1.53-2.09,2.43-3.14a6.12,6.12,0,0,1,3.63-2.32,6.65,6.65,0,0,1,4.43.93,34,34,0,0,1,3.81,2.67,14.6,14.6,0,0,0,4,2.46,6,6,0,0,0,2.25.32,4.53,4.53,0,0,0,2.09-.85,25.11,25.11,0,0,0,3.41-3.35,10.73,10.73,0,0,1,1.88-1.61,4,4,0,0,1,2.53-.51,4.14,4.14,0,0,1,2.18,1.16,11.32,11.32,0,0,1,1.49,1.79,6.07,6.07,0,0,0,3.11,2.67,6.88,6.88,0,0,0,3.93-.45c1.26-.5,2.45-1.13,3.57-1.62a25.72,25.72,0,0,1,6.93-2,25.12,25.12,0,0,1,10.32.74,21.8,21.8,0,0,1,2.68.95C438.76,386.77,439,386.91,439,387Z"/><path class="cls-7" d="M418.86,398.93c0,.21-8.56.42-19.15.52s-19.16,0-19.17-.18,8.56-.42,19.16-.51S418.86,398.72,418.86,398.93Z"/><path class="cls-6" d="M339.2,446c-.21,0-.33-5.33-.25-12s.25-12,.46-12,.33,5.33.24,12S339.41,446,339.2,446Z"/><path class="cls-6" d="M454.66,446.05c0,.21-26.39.17-58.89,0s-58.89-.58-58.89-.72,26.39-.16,58.88,0S454.66,445.85,454.66,446.05Z"/><path class="cls-6" d="M453.93,419.33c0,.2-25.47.92-56.91,1.68s-56.91,1.2-56.91,1,25.47-.92,56.91-1.68S453.93,419.19,453.93,419.33Z"/><path class="cls-6" d="M453.67,445.44c-.21,0-.4-5.88-.47-13.16s0-13.15.23-13.16.41,5.89.47,13.16S453.88,445.44,453.67,445.44Z"/><path class="cls-6" d="M341.14,482.8c-.07,0-.25-5-.52-11.14s-.38-11.22-.38-11.29.26,5,.52,11.22S341.14,482.8,341.14,482.8Z"/><path class="cls-6" d="M364.18,460.78c0,.21-5.33.4-11.86.45s-11.86,0-11.86-.24,5.33-.39,11.85-.45S364.18,460.57,364.18,460.78Z"/><path class="cls-6" d="M365.2,481.13c-.07,0-.11-4.29-.15-9.55S365,462,365,462s.11,4.29.16,9.56S365.27,481.13,365.2,481.13Z"/><path class="cls-6" d="M365.42,482.45c0,.21-5.4.39-12,.45s-12,0-12-.24,5.4-.39,12-.45S365.42,482.24,365.42,482.45Z"/><path class="cls-6" d="M371.11,482.54c-.07,0-.26-5-.52-11.15s-.38-11.22-.38-11.29.25,5,.52,11.22S371.18,482.53,371.11,482.54Z"/><path class="cls-6" d="M394.22,460.51c0,.21-5.34.4-11.86.46s-11.86,0-11.87-.25,5.26-.39,11.86-.45S394.21,460.31,394.22,460.51Z"/><path class="cls-6" d="M395.24,480.87c-.07,0-.11-4.3-.16-9.56s-.08-9.56,0-9.56.11,4.3.15,9.56S395.24,480.87,395.24,480.87Z"/><path class="cls-6" d="M395.46,482.18c0,.21-5.4.39-12,.45s-12,0-12-.24,5.4-.39,12-.45S395.46,482,395.46,482.18Z"/><path class="cls-6" d="M401.08,482.27c-.07,0-.26-5-.52-11.15s-.38-11.21-.38-11.28.25,5,.52,11.21S401.15,482.27,401.08,482.27Z"/><path class="cls-6" d="M424.18,460.25c0,.2-5.33.39-11.85.45s-11.87,0-11.87-.24,5.26-.4,11.86-.45S424.18,460,424.18,460.25Z"/><path class="cls-6" d="M425.21,480.6c-.07,0-.11-4.29-.16-9.56s-.08-9.55,0-9.55.1,4.29.15,9.55S425.28,480.6,425.21,480.6Z"/><path class="cls-6" d="M425.43,481.91c0,.21-5.4.4-12,.46s-12,0-12-.24,5.4-.4,12-.46S425.43,481.7,425.43,481.91Z"/><path class="cls-6" d="M432.73,482c-.07,0-.26-5-.52-11.15s-.38-11.22-.38-11.29.25,5,.52,11.22S432.8,482,432.73,482Z"/><path class="cls-6" d="M455.83,460c0,.21-5.33.4-11.85.46s-11.86,0-11.87-.24,5.33-.4,11.86-.46S455.83,459.76,455.83,460Z"/><path class="cls-6" d="M456.86,480.32c-.07,0-.11-4.3-.16-9.56s-.08-9.56,0-9.56.11,4.3.15,9.56S456.93,480.32,456.86,480.32Z"/><path class="cls-6" d="M457.08,481.63c0,.21-5.4.39-12,.45s-12,0-12-.24,5.4-.39,12-.45S457.08,481.42,457.08,481.63Z"/><path class="cls-8" d="M369.06,528.12a1.81,1.81,0,0,1-.42.15c-.28,0-.7.14-1.19.15a12.18,12.18,0,0,1-4.5-.66,14.41,14.41,0,0,1-5.65-3.55,12.74,12.74,0,0,1-3.57-7.31,13,13,0,0,1,2-7.84,13.55,13.55,0,0,1,4.81-4.61,12.91,12.91,0,0,1,4.26-1.5,11.33,11.33,0,0,1,1.2-.08h.42c.07.21-2.46,0-5.67,2a13.23,13.23,0,0,0-4.52,4.54,11.56,11.56,0,0,0-1.83,7.43,12.51,12.51,0,0,0,3.29,7,13.74,13.74,0,0,0,5.37,3.56C366.68,528.56,369.06,527.92,369.06,528.12Z"/><path class="cls-8" d="M442.25,526.85c0,.21-15.08.48-33.68.65s-33.69.16-33.69,0,15.08-.48,33.68-.65S442.25,526.64,442.25,526.85Z"/><path class="cls-8" d="M442.94,525.18a15.47,15.47,0,0,0,3.7-1.9,11.43,11.43,0,0,0,4.76-9.74,11.35,11.35,0,0,0-2.8-7,14.4,14.4,0,0,0-7.69-4.29,41.72,41.72,0,0,0-10-.82c-3.51.1-7.16.14-10.88.24-14.88.27-28.35.53-38.18.69l-11.58.1-3.15,0c-.71,0-1.13,0-1.13-.06a6.91,6.91,0,0,1,1.12-.08c.78,0,1.83-.09,3.16-.1,2.81-.09,6.74-.2,11.58-.31l38.17-.89c3.72-.11,7.37-.14,10.88-.24a41.17,41.17,0,0,1,10.19.88,15.12,15.12,0,0,1,8,4.5,12.08,12.08,0,0,1,2.87,7.38,11.12,11.12,0,0,1-1.63,6.32,12.4,12.4,0,0,1-3.4,3.63,10.35,10.35,0,0,1-2.8,1.41,2.65,2.65,0,0,1-.77.22A2,2,0,0,1,442.94,525.18Z"/><path class="cls-6" d="M438.44,516.08s-.28.07-.77.14-1.34.09-2.25.16c-2,.16-4.91.32-8.35.56-7.15.41-16.83,1-27.56,1.63-3.09.17-6.25.34-9.13-.61-1.41-.47-2.68-1.15-3.95-1.56a5.74,5.74,0,0,0-3.72-.1c-2.31.85-4,3-6.28,3.59-2.31.78-4.93-1.34-4.17-3.36l.21.28a3,3,0,0,0-2.31,1.47,2.78,2.78,0,0,0-.4,2.15h-.28a21.17,21.17,0,0,1,0-2.21,3.5,3.5,0,0,1,.07-.77,3.5,3.5,0,0,1,.07.77c0,.55.09,1.31.09,2.21l.08,1.18-.29-1.11a2.93,2.93,0,0,1,.33-2.36,3.36,3.36,0,0,1,2.58-1.68h.36l-.14.34a2,2,0,0,0,.86,2.21,3,3,0,0,0,2.81.46,8.71,8.71,0,0,0,2.94-1.62,13.53,13.53,0,0,1,3.28-2,6,6,0,0,1,4.14.1c1.34.4,2.6,1.08,3.94,1.55,2.68.95,5.76.78,8.85.62,10.73-.58,20.42-1.08,27.57-1.42,3.44-.17,6.32-.27,8.35-.36a17.77,17.77,0,0,0,2.25-.09A3.13,3.13,0,0,1,438.44,516.08Z"/><path class="cls-8" d="M447.55,537.88c0,.21-20.35.53-45.41.75s-45.41.27-45.41.06,20.35-.53,45.4-.75S447.54,537.74,447.55,537.88Z"/><path class="cls-6" d="M345,257.89a10.73,10.73,0,0,1,.38,2.42c.15,1.52.38,3.74.54,6.37V267h-.28c-2.18.29-4.56.59-7.09.89-1.75.22-3.43.38-5,.6l-.35.07v-.34c-.17-3.19-.26-5.89-.28-7.9a22,22,0,0,1,0-3.11,16.08,16.08,0,0,1,.38,3c.16,1.94.32,4.64.56,7.82l-.35-.27c1.54-.22,3.23-.38,5-.6,2.52-.3,5-.6,7.08-.83l-.28.35c-.16-2.63-.25-4.84-.34-6.37A11.09,11.09,0,0,1,345,257.89Z"/><path class="cls-6" d="M338.8,251.85c.14.14-2.44,2.1-5.5,4.62s-5.5,4.62-5.65,4.48,2.09-2.51,5.22-5A28.94,28.94,0,0,1,338.8,251.85Z"/><path class="cls-6" d="M349.62,260.48c-.14.14-2.61-1.71-5.65-4s-5.31-4.46-5.17-4.6,2.61,1.71,5.65,4S349.76,260.34,349.62,260.48Z"/><polygon class="cls-9" points="379.69 181.61 405.01 183.7 402.88 208.68 377.56 206.59 379.69 181.61"/><polygon class="cls-10" points="265.65 196.66 289.92 198.67 287.88 222.62 263.61 220.61 265.65 196.66"/><path class="cls-11" d="M299.27,266.05a15.13,15.13,0,0,1-2.31.16c-1.61.09-3.72.11-6.32.2-1.33,0-2.8.23-4.35.25a14.92,14.92,0,0,1-5.06-.79,8.58,8.58,0,0,1-4.45-3.42,13.35,13.35,0,0,1-1.8-5.67c-.92-8-1.61-15.29-2.08-20.55-.24-2.56-.39-4.63-.55-6.23a14.47,14.47,0,0,1-.09-2.28,16.43,16.43,0,0,1,.37,2.28c.23,1.59.46,3.67.76,6.23.61,5.33,1.37,12.52,2.29,20.48a14.24,14.24,0,0,0,1.73,5.45,7.79,7.79,0,0,0,4.1,3.22,15.28,15.28,0,0,0,4.85.79c1.54.06,3-.1,4.35-.11,2.67,0,4.84,0,6.32,0A19.35,19.35,0,0,1,299.27,266.05Z"/><path class="cls-11" d="M296.92,269.54c-.14-.14,1.24-1.88,3.48-3.63l.2-.21.08.55c-2.4-1.23-3.89-2.8-3.75-2.94s1.7,1.16,4,2.31l.5.21-.42.35-.21.21C298.66,268.14,297.06,269.68,296.92,269.54Z"/><polygon class="cls-10" points="252.53 398.01 275.88 399.94 273.92 422.99 250.56 421.06 252.53 398.01"/><rect class="cls-12" x="251.94" y="298.65" width="23.44" height="23.13" transform="translate(-2.75 2.36) rotate(-0.51)"/><polygon class="cls-13" points="251.38 330.43 274.76 328.71 276.5 351.78 253.12 353.5 251.38 330.43"/><path class="cls-11" d="M266.79,442.11a23,23,0,0,1,.59,3.18,46.25,46.25,0,0,0,2.49,8.43,43.87,43.87,0,0,0,6.56,11.13,42.52,42.52,0,0,0,11.87,10.23,33.07,33.07,0,0,0,14.91,4.53,23.22,23.22,0,0,0,12.42-3,22,22,0,0,0,6.58-5.67c1.21-1.68,1.73-2.75,1.8-2.72a4.49,4.49,0,0,1-.31.79,10.9,10.9,0,0,1-1.25,2.05,20.22,20.22,0,0,1-6.58,6,23.42,23.42,0,0,1-12.66,3.15,32.83,32.83,0,0,1-15.28-4.56,43.28,43.28,0,0,1-18.52-21.8,37,37,0,0,1-2.27-8.55,20.71,20.71,0,0,1-.29-2.41A7.54,7.54,0,0,1,266.79,442.11Z"/><path class="cls-11" d="M261.73,448.14c-.18-.09,1.15-3.58,2.95-7.86h0l.19-.37.34.24c3.79,2.5,6.8,4.69,6.71,4.87s-3.3-1.77-7.09-4.27l.53-.13h0C263.53,444.81,261.92,448.24,261.73,448.14Z"/><path class="cls-11" d="M343.38,316.15c0,.21-13.55.47-30.25.62s-30.25.13-30.25-.08,13.54-.47,30.25-.62S343.37,315.94,343.38,316.15Z"/><path class="cls-11" d="M340.47,320.47c-.14-.14,1.45-2.23,3.53-4.74.07-.07.14-.14.14-.21l.08.48c-2.75-1.63-4.8-3-4.73-3.21a29.48,29.48,0,0,1,5.07,2.59l.36.2-.28.28c-.07.07-.14.14-.14.21C342.42,318.65,340.61,320.61,340.47,320.47Z"/><path class="cls-11" d="M483.45,471.84c0,.21-5.61.39-12.63.46s-12.63,0-12.63-.24,5.61-.39,12.63-.46S483.45,471.7,483.45,471.84Z"/><path class="cls-11" d="M482,478.15a4.3,4.3,0,0,1,.33-1.8,14.25,14.25,0,0,1,2-4v.34a4,4,0,0,0-.28-.55c-1.79-3.38-4-5.5-3.91-5.64s2.68,1.91,4.54,5.36a2.28,2.28,0,0,1,.28.62l.07.21-.13.2C482.78,475.51,482.18,478.22,482,478.15Z"/><polygon class="cls-10" points="488.58 459.17 522.95 456.64 525.5 490.55 491.13 493.08 488.58 459.17"/><path class="cls-11" d="M510.58,491.61a4.11,4.11,0,0,1,.08.83c.07.62.08,1.46.16,2.42.16,2.08.26,5.2.43,8.93s.22,8.31.26,13.3c0,2.49,0,5.12-.07,7.83a28.89,28.89,0,0,1-.24,4.15A5.86,5.86,0,0,1,509,532.9a9.54,9.54,0,0,1-4.19,1.49c-1.41.22-2.81.38-4.21.53-2.73.3-5.4.53-7.92.69-5.06.32-9.62.36-13.48.26s-6.95-.28-9.06-.47c-1.05-.06-1.89-.19-2.46-.26a6.9,6.9,0,0,1-.84-.13h.84c.64.07,1.48.06,2.46.12,2.11.12,5.2.23,9.06.26s8.35-.07,13.4-.39c2.52-.16,5.19-.39,7.92-.7,1.34-.15,2.74-.3,4.14-.52a8.85,8.85,0,0,0,3.85-1.35,5.47,5.47,0,0,0,1.93-3.41,19.78,19.78,0,0,0,.25-4.09c0-2.7.09-5.33.07-7.82,0-5,0-9.49-.05-13.23s-.13-6.72-.15-8.93l0-2.43A3.91,3.91,0,0,1,510.58,491.61Z"/><path class="cls-11" d="M474.75,542.42a21.2,21.2,0,0,1-3-1.71,78.41,78.41,0,0,0-7.54-3.81l-.49-.2.42-.35c.2-.21.48-.42.69-.63,2.65-2.38,5.09-4.48,6.9-6a17.72,17.72,0,0,1,3-2.31,21.14,21.14,0,0,1-2.64,2.73c-1.67,1.6-4.11,3.77-6.75,6.15-.21.21-.49.42-.7.63l-.07-.55a54.94,54.94,0,0,1,7.54,4A14.68,14.68,0,0,1,474.75,542.42Z"/><path class="cls-8" d="M446.15,247.64a9.14,9.14,0,0,1,3.72-.1,14.37,14.37,0,0,1,8.61,5,12.5,12.5,0,0,1,2.72,6.35,14.91,14.91,0,0,1-.1,3.88,15.9,15.9,0,0,1-1.3,3.89,15.27,15.27,0,0,1-6,6.5,14.91,14.91,0,0,1-9.32,1.88,17.35,17.35,0,0,1-8.87-3.52,15.76,15.76,0,0,1-5.19-7.09,14.66,14.66,0,0,1-.7-7.89,11.91,11.91,0,0,1,3.17-6.19,13.11,13.11,0,0,1,4.81-3.16,11.51,11.51,0,0,1,7-.34l.92.34a15.89,15.89,0,0,0-3.59-.52,11.1,11.1,0,0,0-4.13.86,12.84,12.84,0,0,0-4.61,3.16,11.61,11.61,0,0,0-3,5.91,15.22,15.22,0,0,0,5.81,14.43,16.47,16.47,0,0,0,8.53,3.38,14.35,14.35,0,0,0,14.66-8,15.93,15.93,0,0,0,1.3-3.75,13.42,13.42,0,0,0,.11-3.74,11.86,11.86,0,0,0-2.58-6.14,14.19,14.19,0,0,0-8.26-5.13A22.8,22.8,0,0,0,446.15,247.64Z"/><path class="cls-8" d="M480.24,230c.07,0,0,.49-.12,1.39A17.75,17.75,0,0,1,479,235a23.65,23.65,0,0,1-7.63,10.11,23.06,23.06,0,0,1-11.89,4.61,24.89,24.89,0,0,1-3.94,0c-.91-.06-1.4-.19-1.4-.26s2,.12,5.26-.33A25.86,25.86,0,0,0,471,244.51a24.37,24.37,0,0,0,7.56-9.76A23.23,23.23,0,0,0,480.24,230Z"/><path class="cls-8" d="M482.72,232.21a14.94,14.94,0,0,1-2.7-3.36l.57.06-.14.14c-1.74,1.82-3.27,3.15-3.42,3s1.18-1.67,2.92-3.49l.14-.14.28-.28.21.34C481.93,230.42,482.93,232.07,482.72,232.21Z"/><path class="cls-8" d="M342.52,251.26l.84.2a10.34,10.34,0,0,1,2.33,1.09,12.25,12.25,0,0,1,5.12,7.71,11.52,11.52,0,0,1-.5,6.45,15.55,15.55,0,0,1-4.16,6.2,16.82,16.82,0,0,1-7.26,3.94,16.22,16.22,0,0,1-8.92-.13,12.69,12.69,0,0,1-7.07-5.27,14.44,14.44,0,0,1-.13-15,14.66,14.66,0,0,1,4.59-4.62,17.89,17.89,0,0,1,9-2.78,21.59,21.59,0,0,1,2.53.12c.56.06.91.13.84.2a25.84,25.84,0,0,0-3.44,0,17.84,17.84,0,0,0-8.67,2.92,14.88,14.88,0,0,0-4.39,4.47,13.86,13.86,0,0,0-1.9,6.87,14.23,14.23,0,0,0,2.1,7.53,12.3,12.3,0,0,0,6.72,5,15.43,15.43,0,0,0,8.49.13,15.59,15.59,0,0,0,7-3.8,14.92,14.92,0,0,0,4-5.92,11.2,11.2,0,0,0,.51-6.17,12.19,12.19,0,0,0-4.77-7.58A16.15,16.15,0,0,0,342.52,251.26Z"/><path class="cls-8" d="M392.55,218.06a2.44,2.44,0,0,1,.07.69c0,.42.08,1.11.09,1.94a39.3,39.3,0,0,1-.64,7.21,38.62,38.62,0,0,1-3.35,10.28,41.62,41.62,0,0,1-7.62,10.87,41.56,41.56,0,0,1-21.24,11.2,42.51,42.51,0,0,1-7.29.76c-.84,0-1.54-.06-2-.05a3.22,3.22,0,0,1-.71-.07,17.29,17.29,0,0,1,2.67-.09,43.58,43.58,0,0,0,7.22-1,42.57,42.57,0,0,0,20.82-11.2,41.11,41.11,0,0,0,11-20.74,43.34,43.34,0,0,0,.85-7.14A19.4,19.4,0,0,1,392.55,218.06Z"/><path class="cls-8" d="M398.42,223.2c-.14.14-2.63-2.88-5.54-6.81h.56a5.48,5.48,0,0,1-.27.49c-2.56,4.45-4.7,8-4.92,7.87a64.07,64.07,0,0,1,4.28-8.21,3,3,0,0,0,.28-.49l.27-.49.29.41A67.9,67.9,0,0,1,398.42,223.2Z"/><g class="cls-14"><path class="cls-11" d="M362.57,332.19a1.56,1.56,0,0,1-1.06-.41,1.53,1.53,0,0,1-.09-2.21l19.4-21.09a1.4,1.4,0,0,1,1.11-.5h0a1.67,1.67,0,0,1,1.13.48l17.78,18.61,14.66-9.27a1.47,1.47,0,0,1,1.68,0l12.92,7.78a1.54,1.54,0,0,1,.51,2.14,1.6,1.6,0,0,1-2.17.51L416.3,321l-14.94,9.42a1.51,1.51,0,0,1-2-.26l-17.5-18.34-18.28,19.83A1.12,1.12,0,0,1,362.57,332.19Z"/><path class="cls-11" d="M404.38,314.57a6.44,6.44,0,1,1,6.26-6.5A6.38,6.38,0,0,1,404.38,314.57Zm-.09-9.83a3.39,3.39,0,1,0,3.26,3.36A3.28,3.28,0,0,0,404.29,304.74Z"/></g><path class="cls-12" d="M215.79,260.39l-68.47,10.9a7.23,7.23,0,0,0-6,8.12l11.16,70.25a7.21,7.21,0,0,0,8.11,5.95l68.47-10.9a7.21,7.21,0,0,0,6-8.11L223.9,266.35A7,7,0,0,0,215.79,260.39Z"/><path class="cls-15" d="M200.7,282.83a6.62,6.62,0,1,0,5.45-7.6A6.62,6.62,0,0,0,200.7,282.83Z"/><path class="cls-15" d="M152,290.57a6.62,6.62,0,1,0,5.45-7.61A6.78,6.78,0,0,0,152,290.57Z"/><path class="cls-15" d="M159.74,338.75a6.62,6.62,0,1,0,5.46-7.61A6.7,6.7,0,0,0,159.74,338.75Z"/><path class="cls-15" d="M211,330.64a6.62,6.62,0,1,0,5.45-7.61A6.61,6.61,0,0,0,211,330.64Z"/><path class="cls-16" d="M158.26,304.26l-67.21-17a7.06,7.06,0,0,0-8.62,5.2l-17.37,69a7,7,0,0,0,5.2,8.62l67.33,17a7,7,0,0,0,8.62-5.2l17.37-69A7.3,7.3,0,0,0,158.26,304.26Z"/><path class="cls-15" d="M105.76,335.07a6.6,6.6,0,1,0,8-4.81A6.58,6.58,0,0,0,105.76,335.07Z"/><path class="cls-15" d="M135.56,319a6.59,6.59,0,1,0,8-4.82A6.58,6.58,0,0,0,135.56,319Z"/><path class="cls-15" d="M87.76,306.92a6.59,6.59,0,1,0,8-4.81A6.57,6.57,0,0,0,87.76,306.92Z"/><path class="cls-15" d="M75.84,354.22a6.59,6.59,0,1,0,8-4.82A6.57,6.57,0,0,0,75.84,354.22Z"/><path class="cls-15" d="M126.18,366.9a6.59,6.59,0,1,0,8-4.82A6.57,6.57,0,0,0,126.18,366.9Z"/></svg>