<svg id="Layer_1" data-name="Layer 1" xmlns="http://www.w3.org/2000/svg" viewBox="0 0 675.7 698"><defs><style>.cls-1{fill:#eaeaea;}.cls-2{fill:#edf2f4;}.cls-3{fill:#a1abad;}.cls-4{fill:#fcfcfc;stroke:#c6c6c6;stroke-miterlimit:10;stroke-width:0.35px;}.cls-5{fill:#d0e6ea;}.cls-6{fill:#5b007c;}.cls-7{fill:#8894b5;}.cls-8{fill:#7c8e93;}.cls-9{fill:#edc32b;}.cls-10{fill:#231f20;}.cls-11{opacity:0.14;}.cls-12{fill:#558489;}.cls-13{fill:#9fbfd6;}.cls-14{fill:#5f6470;}.cls-15{fill:#9299a8;}.cls-16{fill:#262e48;}</style></defs><rect class="cls-1" x="213.41" y="136.29" width="267.97" height="192.72" rx="8.77" transform="translate(763.88 195.97) rotate(141.16)"/><rect class="cls-2" x="57.83" y="309.79" width="361.54" height="254.32" rx="9.53" transform="translate(385.97 912.49) rotate(-168.58)"/><path class="cls-3" d="M135.13,480.22l22-108.9c5.34-26.43,32.82-43.26,61.25-37.52l117.14,23.66c28.43,5.74,47.22,31.92,41.88,58.35l-22,108.9c-5.34,26.43-32.81,43.27-61.24,37.52L177,538.57C148.58,532.83,129.79,506.65,135.13,480.22Zm82.29-141.69c-25.63-5.17-50.39,10-55.2,33.82l-22,108.9c-4.81,23.82,12.12,47.41,37.75,52.59L295.1,557.5c25.63,5.17,50.39-10,55.2-33.82l22-108.9c4.81-23.82-12.12-47.41-37.75-52.59Z"/><path class="cls-3" d="M317.92,395.33c1.76-8.73,10.84-14.29,20.23-12.39s15.59,10.54,13.83,19.27-10.84,14.29-20.23,12.39S316.16,404.06,317.92,395.33Zm2.55.52c-1.5,7.42,3.77,14.77,11.76,16.38s15.7-3.11,17.2-10.53-3.78-14.78-11.76-16.39S322,388.42,320.47,395.85Z"/><path class="cls-3" d="M341.16,367.22a.62.62,0,0,0,.75-.46l2.87-14.2a.63.63,0,0,0-.52-.72.62.62,0,0,0-.75.46l-2.87,14.2A.62.62,0,0,0,341.16,367.22Z"/><path class="cls-3" d="M330.4,420.49a.62.62,0,0,0,.75-.47l2.87-14.2a.65.65,0,0,0-1.27-.26l-2.87,14.21A.63.63,0,0,0,330.4,420.49Z"/><path class="cls-3" d="M374.21,405.32l15.28,3.08a.6.6,0,1,0,.24-1.18l-15.28-3.09a.64.64,0,0,0-.76.46A.65.65,0,0,0,374.21,405.32Z"/><path class="cls-3" d="M342,398.8l16.12,3.26a.64.64,0,0,0,.76-.47.63.63,0,0,0-.52-.72l-16.12-3.25a.6.6,0,1,0-.24,1.18Z"/><path class="cls-3" d="M310.55,392.46l15.28,3.08a.6.6,0,1,0,.24-1.18l-15.28-3.09a.61.61,0,1,0-.24,1.19Z"/><path class="cls-3" d="M182.32,367.94c1.77-8.73,10.84-14.29,20.23-12.39s15.59,10.54,13.83,19.27-10.84,14.29-20.23,12.39S180.56,376.67,182.32,367.94Zm2.55.52c-1.5,7.42,3.78,14.77,11.76,16.38s15.7-3.11,17.2-10.53-3.77-14.78-11.76-16.39S186.37,361,184.87,368.46Z"/><path class="cls-3" d="M205.88,339.9a.62.62,0,0,0,.75-.47l2.87-14.2a.65.65,0,0,0-1.27-.26l-2.87,14.21A.63.63,0,0,0,205.88,339.9Z"/><path class="cls-3" d="M195.12,393.16a.62.62,0,0,0,.75-.46l2.87-14.2a.65.65,0,0,0-1.27-.26l-2.87,14.2A.63.63,0,0,0,195.12,393.16Z"/><path class="cls-3" d="M145.35,359.09l15.28,3.08a.6.6,0,1,0,.24-1.18l-15.28-3.09a.61.61,0,1,0-.24,1.19Z"/><path class="cls-3" d="M176.75,365.43l16.13,3.26a.64.64,0,0,0,.76-.47.64.64,0,0,0-.52-.72L177,364.25a.6.6,0,1,0-.24,1.18Z"/><path class="cls-3" d="M209,372,224.29,375a.6.6,0,1,0,.24-1.18l-15.28-3.09A.61.61,0,1,0,209,372Z"/><path class="cls-3" d="M292.76,519.91c1.76-8.73,10.83-14.29,20.22-12.39s15.6,10.54,13.83,19.27S316,541.08,306.59,539.18,291,528.64,292.76,519.91Zm2.54.51c-1.5,7.43,3.78,14.78,11.76,16.39s15.71-3.11,17.21-10.53-3.78-14.78-11.77-16.39S296.8,513,295.3,520.42Z"/><path class="cls-3" d="M300.15,570.22a.64.64,0,0,0,.76-.46l2.87-14.21a.65.65,0,0,0-1.28-.25l-2.87,14.2A.63.63,0,0,0,300.15,570.22Z"/><path class="cls-3" d="M310.91,517a.64.64,0,0,0,.76-.47l2.87-14.2a.66.66,0,0,0-1.28-.26l-2.87,14.21A.64.64,0,0,0,310.91,517Z"/><path class="cls-3" d="M348.27,533.74l15.28,3.09a.62.62,0,0,0,.75-.47.63.63,0,0,0-.51-.72l-15.28-3.08a.6.6,0,1,0-.24,1.18Z"/><path class="cls-3" d="M316,527.23l16.12,3.25a.62.62,0,0,0,.76-.46.63.63,0,0,0-.52-.72L316.25,526a.61.61,0,1,0-.23,1.19Z"/><path class="cls-3" d="M284.61,520.88,299.89,524a.6.6,0,1,0,.24-1.18l-15.28-3.09a.64.64,0,0,0-.76.46A.63.63,0,0,0,284.61,520.88Z"/><path class="cls-3" d="M157.16,492.52c1.76-8.73,10.83-14.29,20.22-12.39s15.6,10.54,13.84,19.27S180.38,513.69,171,511.79,155.39,501.25,157.16,492.52Zm2.54.52c-1.5,7.42,3.78,14.77,11.77,16.38s15.7-3.11,17.2-10.53-3.78-14.78-11.76-16.39S161.2,485.61,159.7,493Z"/><path class="cls-3" d="M164.87,542.9a.64.64,0,0,0,.76-.47l2.87-14.2a.66.66,0,0,0-1.28-.26l-2.86,14.2A.63.63,0,0,0,164.87,542.9Z"/><path class="cls-3" d="M175.63,489.63a.64.64,0,0,0,.76-.46L179.26,475a.65.65,0,0,0-1.28-.25l-2.87,14.2A.63.63,0,0,0,175.63,489.63Z"/><path class="cls-3" d="M119.41,487.51l15.28,3.09a.6.6,0,1,0,.24-1.18l-15.28-3.09a.6.6,0,1,0-.24,1.18Z"/><path class="cls-3" d="M150.81,493.86l16.13,3.25a.62.62,0,0,0,.76-.46.63.63,0,0,0-.52-.72l-16.13-3.26a.61.61,0,1,0-.24,1.19Z"/><path class="cls-3" d="M183.07,500.37l15.28,3.09a.6.6,0,1,0,.24-1.18l-15.28-3.09a.6.6,0,1,0-.24,1.18Z"/><path class="cls-3" d="M192.4,434.5c6.63-32.79,40.72-53.68,76-46.55s58.59,39.6,52,72.4-40.71,53.68-76,46.55S185.78,467.3,192.4,434.5Zm2.75.56c-6.33,31.38,16,62.46,49.73,69.28s66.38-13.17,72.72-44.55-16-62.47-49.72-69.28S201.49,403.67,195.15,435.06Z"/><path class="cls-3" d="M260.26,492.26a1,1,0,0,1,.94-1.11,48.92,48.92,0,0,0,27-11.23,1.15,1.15,0,0,1,1.54.09,1,1,0,0,1,0,1.43,51,51,0,0,1-28.25,11.73,1.27,1.27,0,0,1-.34,0A1.08,1.08,0,0,1,260.26,492.26Zm-29.49-5.35a51.1,51.1,0,0,1-21.39-21.85,1,1,0,0,1,.52-1.34,1.13,1.13,0,0,1,1.44.52,48.88,48.88,0,0,0,20.48,20.91,1,1,0,0,1,.43,1.39,1.08,1.08,0,0,1-1.15.48A1.42,1.42,0,0,1,230.77,486.91Zm71.85-31.17A42.67,42.67,0,0,0,298.81,428a1,1,0,0,1,.52-1.34,1.15,1.15,0,0,1,1.45.52,44.66,44.66,0,0,1,4,29.07,1,1,0,0,1-1.26.74h0A1.06,1.06,0,0,1,302.62,455.74Zm-97.19-19.63a44.62,44.62,0,0,1,15-25.24,1.15,1.15,0,0,1,1.54.09,1,1,0,0,1-.05,1.43,42.69,42.69,0,0,0-14.33,24.15,1.09,1.09,0,0,1-2.13-.43Zm72.88-29a52.48,52.48,0,0,0-29.39-5.95,1.11,1.11,0,0,1-1.22-.91,1,1,0,0,1,.94-1.12,55,55,0,0,1,30.71,6.22,1,1,0,0,1,.43,1.39,1.09,1.09,0,0,1-1.15.49A1.24,1.24,0,0,1,278.31,407.09Z"/><path class="cls-3" d="M241.71,516.74A1.05,1.05,0,0,0,243,516l35.86-177.54a1,1,0,0,0-.86-1.21,1.05,1.05,0,0,0-1.27.78L240.85,515.53A1,1,0,0,0,241.71,516.74Z"/><path class="cls-3" d="M150.75,426.92l225.36,45.52a1,1,0,1,0,.4-2L151.15,424.93a1,1,0,0,0-1.26.78A1.05,1.05,0,0,0,150.75,426.92Z"/><path class="cls-3" d="M374.67,418.35a1.05,1.05,0,0,0,1.27-.78L390,347.74a1.09,1.09,0,0,0-2.13-.43L373.8,417.14A1.06,1.06,0,0,0,374.67,418.35Z"/><path class="cls-3" d="M159.07,374.8a1.05,1.05,0,0,0,1.27-.78l14.1-69.83a1,1,0,0,0-.86-1.21,1.05,1.05,0,0,0-1.27.78L158.2,373.59A1.06,1.06,0,0,0,159.07,374.8Z"/><path class="cls-3" d="M188.75,312.93l183.86,37.14a.91.91,0,1,0,.36-1.78L189.11,311.15a1,1,0,0,0-1.14.7A.94.94,0,0,0,188.75,312.93Z"/><polygon class="cls-3" points="368.93 352.69 386.32 351.91 370.59 344.44 368.93 352.69"/><polygon class="cls-3" points="191.12 316.78 175.39 309.31 192.79 308.53 191.12 316.78"/><path class="cls-3" d="M114.45,474.34a.94.94,0,0,0,1.13-.7L136.32,371a1,1,0,0,0-1.91-.39L113.67,473.26A1,1,0,0,0,114.45,474.34Z"/><polygon class="cls-3" points="139.24 374.5 137.91 358.2 130.36 372.7 139.24 374.5"/><polygon class="cls-3" points="119.64 471.53 112.09 486.04 110.76 469.74 119.64 471.53"/><path class="cls-3" d="M69.34,517.24l54.75,11.06a1.09,1.09,0,0,0,.81-.14l30.25-18.53a1,1,0,0,0,.28-1.4,1.15,1.15,0,0,0-1.51-.31l-29.87,18.3-54.31-11a1,1,0,1,0-.4,2Z"/><path class="cls-3" d="M206.48,458.29a1.18,1.18,0,0,0,.42,0l96.51-20.24a.88.88,0,0,0,.71-1.08,1,1,0,0,0-1.18-.69l-96.52,20.23a.89.89,0,0,0-.71,1.09A1,1,0,0,0,206.48,458.29Z"/><rect class="cls-4" x="236.32" y="172.55" width="388.25" height="271.82" transform="translate(82.58 -90.82) rotate(13.31)"/><path class="cls-5" d="M650.7,220.66l-1.76,7.45L271.12,138.72l1.71-7.22a5.86,5.86,0,0,1,7-4.35l366.48,86.47A5.84,5.84,0,0,1,650.7,220.66Z"/><rect class="cls-6" x="340.58" y="242.04" width="1.08" height="12.69" transform="translate(15.3 516.53) rotate(-75.51)"/><rect class="cls-6" x="336.95" y="189.07" width="1.08" height="39.5" transform="translate(50.89 483.35) rotate(-75.51)"/><rect class="cls-6" x="312.42" y="282.29" width="1.08" height="38.36" transform="translate(-57.2 529.08) rotate(-75.51)"/><rect class="cls-6" x="289.2" y="258.03" width="95.84" height="0.36" transform="translate(2.79 520.03) rotate(-75.51)"/><rect class="cls-6" x="279.77" y="255.6" width="95.84" height="0.36" transform="translate(-1.93 509.07) rotate(-75.51)"/><rect class="cls-6" x="273.83" y="254.06" width="95.84" height="0.36" transform="translate(-4.89 502.17) rotate(-75.51)"/><rect class="cls-6" x="268.94" y="252.8" width="95.84" height="0.36" transform="translate(-7.34 496.49) rotate(-75.51)"/><rect class="cls-6" x="262.48" y="251.13" width="95.84" height="0.36" transform="translate(-10.57 488.98) rotate(-75.51)"/><rect class="cls-6" x="436.16" y="148.76" width="0.36" height="162.51" transform="translate(104.49 594.95) rotate(-75.51)"/><rect class="cls-6" x="456.77" y="128.89" width="0.36" height="203.45" transform="translate(119.36 615.35) rotate(-75.51)"/><rect class="cls-6" x="458.26" y="123.36" width="0.36" height="203.36" transform="translate(125.88 612.61) rotate(-75.51)"/><rect class="cls-6" x="363.96" y="313.79" width="0.36" height="89.22" transform="translate(-73.96 621.32) rotate(-75.51)"/><rect class="cls-6" x="398.67" y="291.01" width="0.36" height="163.66" transform="translate(-61.9 665.75) rotate(-75.51)"/><rect class="cls-6" x="395.96" y="301.49" width="0.36" height="163.66" transform="translate(-74.08 670.98) rotate(-75.51)"/><rect class="cls-6" x="413.03" y="293.02" width="0.36" height="202.07" transform="translate(-71.68 695.56) rotate(-75.51)"/><rect class="cls-6" x="355.55" y="355.72" width="67.28" height="0.36" transform="translate(-52.75 643.7) rotate(-75.51)"/><rect class="cls-6" x="397.62" y="359.49" width="24.53" height="0.36" transform="translate(-40.87 666.56) rotate(-75.51)"/><rect class="cls-6" x="401.25" y="357.84" width="47.08" height="0.36" transform="translate(-28.11 679.75) rotate(-75.51)"/><rect class="cls-6" x="421.99" y="368.09" width="34.45" height="0.36" transform="matrix(0.25, -0.97, 0.97, 0.25, -27.21, 701.4)"/><rect class="cls-6" x="439.92" y="372.72" width="34.45" height="0.36" transform="translate(-18.25 722.24) rotate(-75.51)"/><rect class="cls-6" x="454.4" y="378.86" width="54.71" height="0.36" transform="translate(-5.74 750.68) rotate(-75.51)"/><rect class="cls-6" x="290.7" y="340.23" width="64.03" height="0.36" transform="matrix(0.25, -0.97, 0.97, 0.25, -87.59, 567.71)"/><rect class="cls-6" x="478.91" y="381.17" width="83.87" height="0.36" transform="translate(21.34 790.25) rotate(-75.51)"/><rect class="cls-6" x="472.01" y="222.09" width="7.58" height="1.08" transform="translate(141.23 627.62) rotate(-75.51)"/><rect class="cls-6" x="490.29" y="212.55" width="0.36" height="27.74" transform="translate(148.56 644.67) rotate(-75.51)"/><path class="cls-6" d="M477.18,223a2.64,2.64,0,0,1,.15,1.73,5,5,0,0,0-1.53-2.09,5.21,5.21,0,0,0,2.35-1.08A2.72,2.72,0,0,1,477.18,223Z"/><polygon class="cls-6" points="303.12 332.27 287.37 328.2 287.46 327.85 303.03 331.87 359.01 285.86 359.24 286.14 303.12 332.27"/><rect class="cls-6" x="330.85" y="256.83" width="1.08" height="13.47" transform="translate(-6.69 518.49) rotate(-75.51)"/><rect class="cls-6" x="325.74" y="258.55" width="1.08" height="20.68" transform="translate(-15.67 517.55) rotate(-75.51)"/><rect class="cls-6" x="320.22" y="267.06" width="1.08" height="28.14" transform="translate(-31.66 521.38) rotate(-75.51)"/><rect class="cls-6" x="351.5" y="203.67" width="15.15" height="1.08" transform="translate(71.54 500.8) rotate(-75.51)"/><rect class="cls-6" x="548.14" y="254.83" width="15.15" height="0.36" transform="translate(169.8 729.27) rotate(-75.51)"/><rect class="cls-6" x="510.5" y="248.06" width="10.1" height="0.36" transform="translate(146.24 685.31) rotate(-75.51)"/><rect class="cls-6" x="450.07" y="231.45" width="10.1" height="0.36" transform="translate(117.01 614.34) rotate(-75.51)"/><rect class="cls-6" x="289.49" y="324.34" width="7.4" height="2.34" transform="translate(90.74 -62.99) rotate(14.49)"/><rect class="cls-6" x="487.63" y="221.22" width="17.86" height="2.82" transform="matrix(0.97, 0.25, -0.25, 0.97, 71.47, -117.13)"/><rect class="cls-7" x="440.8" y="417.96" width="57.25" height="3.61" transform="matrix(0.97, 0.25, -0.25, 0.97, 119.92, -104.08)"/><rect class="cls-7" x="460.04" y="426.88" width="30.24" height="2.89" transform="translate(122.24 -105.24) rotate(14.49)"/><path class="cls-8" d="M356.42,211.85,332,306.38l6.05,1.57,1.45-5.59-.47-.12L351.48,254l.64.17,1.45-5.59-.64-.17,7.64-29.57,16.18,4.18-7.64,29.57-8.73-2.25L358.93,256l33.88,8.75-4,15.37,13.45,3.47-8.48,32.83-46.4-12L346,310l84.51,21.84L443.68,350l18.38,4.74,18.65-8,8.83,2.28L513,258.25l34.4,8.89-17.57,68,5.59,1.45,19-73.58Zm55.43,57.79,26.72,6.9-5.14,19.91-26.72-6.91Zm1.44-5.59,7.64-29.57,11.18,2.88-7.64,29.58ZM440,271l-12.75-3.29,7.64-29.57,12.75,3.29Zm-60.46-47.17,35.8,9.25-7.64,29.57-35.8-9.24ZM392.36,278l3.25-12.58,10.65,2.75L403,280.77Zm7,39.82,6.59-25.5,26.71,6.9-6.58,25.5Zm86,24.08-5.15-1.33-18.65,8-14.46-3.74-13.2-18.12-2.22-.58,21.53-83.36,54.14,14Z"/><polygon class="cls-8" points="345.09 326.16 343.64 331.75 412.16 349.45 425.8 367.78 430.43 364.33 415.58 344.37 345.09 326.16"/><circle class="cls-9" cx="576.14" cy="369.75" r="9.9"/><polygon class="cls-10" points="575.9 369.89 566.74 354.34 531.07 345.12 531.21 344.59 567.09 353.86 567.15 353.96 576.38 369.61 575.9 369.89"/><path class="cls-10" d="M536.59,343.28a1.65,1.65,0,1,1,2-1.19A1.65,1.65,0,0,1,536.59,343.28Zm.69-2.67a1.1,1.1,0,1,0-.55,2.13,1.1,1.1,0,0,0,.55-2.13Z"/><path class="cls-10" d="M541.62,344.57a1.65,1.65,0,1,1,2-1.18A1.66,1.66,0,0,1,541.62,344.57Zm.69-2.66a1.1,1.1,0,1,0,.79,1.34A1.1,1.1,0,0,0,542.31,341.91Z"/><polygon class="cls-10" points="318.29 355.23 318.47 354.57 288.38 346.53 270.61 356.8 270.94 357.38 288.48 347.25 318.29 355.23"/><path class="cls-10" d="M277.86,348.09a2,2,0,1,1,2.77.75A2,2,0,0,1,277.86,348.09Zm.58-.33a1.36,1.36,0,0,0,1.85.49,1.35,1.35,0,1,0-1.85-.49Z"/><circle class="cls-10" cx="274.09" cy="350.27" r="1.69"/><circle class="cls-9" cx="263.47" cy="361.94" r="9.9"/><circle class="cls-9" cx="273.81" cy="324.64" r="9.9"/><g class="cls-11"><rect class="cls-12" x="550.15" y="426.11" width="32.17" height="32.17" transform="translate(98.67 -103.28) rotate(11.41)"/></g><polygon class="cls-13" points="437.79 520.02 421.67 544.78 442.99 521.48 437.79 520.02"/><polygon class="cls-13" points="620.65 571.55 621.47 601.09 615.45 570.09 620.65 571.55"/><rect class="cls-14" x="386.28" y="417.22" width="244.01" height="9.6" transform="translate(-125.93 607.03) rotate(-55.96)"/><rect class="cls-14" x="606.9" y="329.16" width="9.6" height="244.01" transform="translate(-19.39 27.55) rotate(-2.54)"/><path class="cls-14" d="M589,329.79a41.2,41.2,0,1,1,50.83-28.48A41.24,41.24,0,0,1,589,329.79Zm20.19-71.64a33.23,33.23,0,1,0,23,41A33.26,33.26,0,0,0,609.16,258.15Z"/><rect class="cls-15" x="613.17" y="184.73" width="14.71" height="66.2" transform="translate(82.36 -160.16) rotate(15.74)"/><rect class="cls-16" x="608.9" y="192.51" width="29.42" height="28.72" rx="4.69" transform="translate(79.5 -161.4) rotate(15.74)"/></svg>