<svg xmlns="http://www.w3.org/2000/svg" xmlns:xlink="http://www.w3.org/1999/xlink" viewBox="0 0 675.73 697.99"><defs><style>.cls-1{isolation:isolate;}.cls-2{fill:#ebf0f2;}.cls-3{fill:#b8c6d1;fill-opacity:0.5;}.cls-4{fill:url(#linear-gradient);}.cls-5{fill:url(#linear-gradient-2);}.cls-6{fill:#e5e9ea;}.cls-7{opacity:0.5;mix-blend-mode:soft-light;}.cls-31,.cls-41,.cls-8{fill:#fff;}.cls-9{fill:#ffc800;}.cls-10{fill:#dcdcdc;}.cls-11{fill:#c8c8c8;}.cls-12{fill:#ececec;}.cls-13,.cls-14{opacity:0.1;}.cls-15{fill:#1a2e35;}.cls-16{fill:#375a64;}.cls-17{fill:#a8a8a8;}.cls-18{fill:#7b9eaa;}.cls-18,.cls-21{stroke:#fff;stroke-miterlimit:10;stroke-width:3.83px;}.cls-19{fill:#333;}.cls-20{fill:#e6ecef;}.cls-21{fill:#3391c4;}.cls-22{fill:#f7f7f7;}.cls-23{fill:#4a808e;}.cls-24{fill:#5a99af;}.cls-25{fill:#55a4c6;}.cls-26{fill:#feb546;}.cls-27{fill:#fcc47a;}.cls-28{fill:#e8a246;}.cls-29{fill:#f4f2ef;}.cls-30{fill:#d8dee8;}.cls-31,.cls-33{mix-blend-mode:multiply;}.cls-32{fill:#e8a55b;}.cls-33{opacity:0.3;}.cls-34{fill:url(#linear-gradient-3);}.cls-35{fill:#fcb45e;}.cls-36{fill:#4288a0;}.cls-37{fill:#d3923c;}.cls-38{fill:#1d3c44;}.cls-39{fill:#255b6d;}.cls-40{fill:#448293;}.cls-41{opacity:0.86;font-size:26.13px;font-family:Parisienne-Regular, Parisienne;}.cls-42{fill:#f4f7fa;}.cls-43{fill:#26264f;}</style><linearGradient id="linear-gradient" x1="271.55" y1="328.18" x2="152.3" y2="341.19" gradientUnits="userSpaceOnUse"><stop offset="0" stop-color="#3b3138"/><stop offset="1" stop-color="#241f21"/></linearGradient><linearGradient id="linear-gradient-2" x1="376.62" y1="27.6" x2="81.76" y2="1031.42" gradientUnits="userSpaceOnUse"><stop offset="0" stop-color="#5d535a"/><stop offset="1" stop-color="#464143"/></linearGradient><linearGradient id="linear-gradient-3" x1="220.28" y1="485.75" x2="176.58" y2="531.2" gradientUnits="userSpaceOnUse"><stop offset="0" stop-color="#ab316d"/><stop offset="1" stop-color="#792d3d"/></linearGradient></defs><g class="cls-1"><g id="Layer_1" data-name="Layer 1"><rect class="cls-2" x="58.93" y="597.38" width="616.8" height="98.32" rx="19.3"/><path class="cls-3" d="M513.75,649.82c1,11.91-80.17,30.39-181.18,41.27s-199-1.75-200-13.66S228.12,658.85,329.13,648,512.79,637.92,513.75,649.82Z" transform="translate(-52.27 -4.62)"/><path class="cls-3" d="M717.75,615.82c1,11.91-80.17,30.39-181.18,41.27s-199-1.75-200-13.66S432.12,624.85,533.13,614,716.79,603.92,717.75,615.82Z" transform="translate(-52.27 -4.62)"/><path class="cls-4" d="M413.93,27.75l72.65,603.82c1.09,9-5.15,17.17-13.89,18L170.11,682.82c-18.54,1.16-28.69-8.31-29.83-17.94L64,22.92C62.87,13.34,72,4.67,90.58,4.67L395.91,11.1C404.75,11.25,412.85,18.74,413.93,27.75Z" transform="translate(-52.27 -4.62)"/><path class="cls-5" d="M427.55,26.71,500.6,633.55c1.09,9.1-5.17,17.25-13.94,18.13L173,682.91a18.34,18.34,0,0,1-20-15.81L76.27,21.82c-1.14-9.63,6.08-17.36,16-17.19L409.46,10C418.33,10.13,426.46,17.66,427.55,26.71Z" transform="translate(-52.27 -4.62)"/><path class="cls-6" d="M421.6,60.18l67.7,562.66c1,8.5-4.84,16.11-13.05,16.91l-295,28.68a17.12,17.12,0,0,1-18.59-14.76L91.76,57.58c-1.06-9,5.64-16.21,14.88-16.12l298,3.18C413,44.73,420.58,51.72,421.6,60.18Z" transform="translate(-52.27 -4.62)"/><g class="cls-7"><path class="cls-8" d="M370.59,437.87C310.2,326.21,220,292.79,192.81,177.7,178.13,115.5,188.13,56,205,6.53L92.29,4.63c-9.94-.17-17.16,7.56-16,17.19L153,667.1a18.34,18.34,0,0,0,20,15.81l246.59-24.55C421.38,558.3,397.52,487.65,370.59,437.87Z" transform="translate(-52.27 -4.62)"/></g><path class="cls-9" d="M439.66,412.61c-2.12,5.75-8.74,10.81-8.74,10.81s-8.4-5.06-12.53-10.81c-4.68-6.49-3.9-13.13,1.18-13.13,5.66,0,8.38,7.07,8.38,7.07s.24-7.07,5.88-7.07C438.91,399.48,442.05,406.12,439.66,412.61Z" transform="translate(-52.27 -4.62)"/><polygon class="cls-10" points="103.08 63.33 73.98 63.33 73.14 58.55 102.23 58.55 103.08 63.33"/><polygon class="cls-10" points="104.77 72.91 75.67 72.91 74.83 68.12 103.92 68.12 104.77 72.91"/><polygon class="cls-10" points="106.45 82.48 77.36 82.48 76.51 77.69 105.61 77.69 106.45 82.48"/><polygon class="cls-10" points="256.5 80.06 253.73 82.48 241.66 69.56 244.43 67.14 256.5 80.06"/><path class="cls-10" d="M299.23,66.29c3.6,3.82,3.85,9.29.54,12.22s-8.9,2.21-12.5-1.61-3.85-9.3-.55-12.23S295.63,62.46,299.23,66.29Z" transform="translate(-52.27 -4.62)"/><path class="cls-6" d="M296.83,68.42c2.15,2.28,2.3,5.56.32,7.31s-5.32,1.32-7.48-1-2.3-5.55-.32-7.31S294.67,66.13,296.83,68.42Z" transform="translate(-52.27 -4.62)"/><path class="cls-10" d="M345.07,76.3C343,82,336.33,87.11,336.33,87.11S327.93,82,323.8,76.3c-4.68-6.49-3.9-13.14,1.18-13.14,5.67,0,8.38,7.07,8.38,7.07s.24-7.07,5.88-7.07C344.32,63.16,347.46,69.81,345.07,76.3Z" transform="translate(-52.27 -4.62)"/><path class="cls-10" d="M379.85,82.3H362.28l-7.56-17.8H353L352.7,63h2.93l1.5,3.52,24.29,0Zm-16.66-1.51h15.25L379.71,68l-21.94,0Z" transform="translate(-52.27 -4.62)"/><polygon class="cls-10" points="325.24 80.54 323.51 77.66 313.55 77.66 313.07 80.49 311.56 80 312.21 76.15 324.25 76.15 326.52 79.96 325.24 80.54"/><polygon class="cls-10" points="327.95 66.89 306.01 66.89 305.75 65.38 327.69 65.38 327.95 66.89"/><polygon class="cls-10" points="327.7 70.67 307.84 70.58 307.58 69.07 327.44 69.16 327.7 70.67"/><polygon class="cls-10" points="327.33 74.45 309.35 74.45 309.08 72.94 327.06 72.94 327.33 74.45"/><polygon class="cls-10" points="319.29 76.92 317.78 76.92 315.28 62.73 316.79 62.73 319.29 76.92"/><polygon class="cls-10" points="322.03 76.98 320.51 76.86 319.14 62.67 320.67 62.79 322.03 76.98"/><polygon class="cls-10" points="324.85 77.06 323.32 76.79 323.43 62.59 324.96 62.87 324.85 77.06"/><polygon class="cls-10" points="315.13 76.98 311.49 62.79 312.97 62.67 316.61 76.86 315.13 76.98"/><polygon class="cls-10" points="312.33 77.06 307.22 62.87 308.65 62.59 313.77 76.79 312.33 77.06"/><path class="cls-10" d="M378.58,87.28a3,3,0,0,1-2.83-2.41,2,2,0,0,1,2-2.4,3,3,0,0,1,2.83,2.4A2,2,0,0,1,378.58,87.28ZM378,84a.72.72,0,0,0-.73.89,1.11,1.11,0,0,0,1.05.9.73.73,0,0,0,.74-.9A1.12,1.12,0,0,0,378,84Z" transform="translate(-52.27 -4.62)"/><path class="cls-10" d="M365.06,87.28a3,3,0,0,1-2.82-2.41,2,2,0,0,1,2-2.4,3,3,0,0,1,2.83,2.4A2,2,0,0,1,365.06,87.28Zm-.58-3.3a.73.73,0,0,0-.74.89,1.12,1.12,0,0,0,1.06.9.73.73,0,0,0,.73-.9A1.11,1.11,0,0,0,364.48,84Z" transform="translate(-52.27 -4.62)"/><ellipse class="cls-9" cx="379.75" cy="62.64" rx="5.89" ry="7.02" transform="translate(24.82 295.77) rotate(-47.52)"/><path class="cls-8" d="M380,59l1.26,7.1a.56.56,0,0,1-.56.67.82.82,0,0,1-.78-.67l-1-5.92-.44.27a.47.47,0,0,1-.32.1.76.76,0,0,1-.62-.34.6.6,0,0,1,.05-.9l1.33-.88,0,0s0,0,.06,0h.11a.15.15,0,0,1,.09,0h.13s0,0,.05,0l.08,0h.05s0,0,.07,0l.06,0,.05,0a.16.16,0,0,1,.06,0l0,0,.05.05,0,0s0,0,0,0,0,0,0,.06,0,0,0,.06,0,0,0,.06a.09.09,0,0,0,0,.08Z" transform="translate(-52.27 -4.62)"/><polygon class="cls-10" points="294.01 404.11 134.07 404.11 133.27 399.59 293.21 399.59 294.01 404.11"/><polygon class="cls-10" points="273.11 412.57 135.56 412.57 134.76 408.04 272.32 408.04 273.11 412.57"/><polygon class="cls-11" points="93.1 262.77 85.62 256.76 90.98 250.74 92.17 251.8 87.75 256.76 93.91 261.71 93.1 262.77"/><path class="cls-11" d="M144.9,272.11a13.36,13.36,0,0,1-12.61-10.73c-1-5.91,2.92-10.72,8.83-10.72a13.36,13.36,0,0,1,12.62,10.72C154.78,267.3,150.82,272.11,144.9,272.11Zm-3.44-19.51a7.17,7.17,0,0,0-7.23,8.78,10.94,10.94,0,0,0,10.33,8.79,7.18,7.18,0,0,0,7.24-8.79A11,11,0,0,0,141.46,252.6Z" transform="translate(-52.27 -4.62)"/><polygon class="cls-11" points="379.63 262.77 378.45 261.71 382.86 256.76 376.7 251.8 377.51 250.74 384.99 256.76 379.63 262.77"/><path class="cls-11" d="M434,272.11a13.38,13.38,0,0,1-12.62-10.73c-1-5.91,2.93-10.72,8.84-10.72a13.38,13.38,0,0,1,12.62,10.72C443.91,267.3,440,272.11,434,272.11Zm-3.44-19.51a7.17,7.17,0,0,0-7.23,8.78,10.93,10.93,0,0,0,10.33,8.79,7.18,7.18,0,0,0,7.24-8.79A11,11,0,0,0,430.59,252.6Z" transform="translate(-52.27 -4.62)"/><path class="cls-9" d="M436.8,605,257,615.6c-8,.36-15.08-7.24-16.78-14.29l-2.57-10.64c-2.19-9,5.22-17.71,15.48-18.17l179.8-7.9c8-.35,15.1,4.53,16.8,11.58l2.57,10.64C454.48,595.84,447.07,604.53,436.8,605Z" transform="translate(-52.27 -4.62)"/><polygon class="cls-12" points="384.95 383.97 130.52 383.97 85.66 129.54 340.09 129.54 384.95 383.97"/><ellipse class="cls-10" cx="304.98" cy="360.08" rx="14.52" ry="104.67" transform="translate(-108.43 659.19) rotate(-89.8)"/><path class="cls-9" d="M368.34,359.2h-127c-34.34,0-33.67-27.46-30.52-56.29s7.65-72.51,38.34-72.51h66c30.69,0,50.59,43.69,63.91,72.51S402.68,359.2,368.34,359.2Z" transform="translate(-52.27 -4.62)"/><g class="cls-13"><path d="M245.78,231.79a1.07,1.07,0,0,1-1.08,1.31,1.63,1.63,0,0,1-1.55-1.31,1.08,1.08,0,0,1,1.08-1.31A1.64,1.64,0,0,1,245.78,231.79Z" transform="translate(-52.27 -4.62)"/><path d="M267.43,231.79a1.06,1.06,0,0,1-1.08,1.31,1.62,1.62,0,0,1-1.54-1.31,1.07,1.07,0,0,1,1.08-1.31A1.64,1.64,0,0,1,267.43,231.79Z" transform="translate(-52.27 -4.62)"/><path d="M289.08,231.79A1.06,1.06,0,0,1,288,233.1a1.63,1.63,0,0,1-1.54-1.31,1.07,1.07,0,0,1,1.08-1.31A1.62,1.62,0,0,1,289.08,231.79Z" transform="translate(-52.27 -4.62)"/><path d="M310.74,231.79a1.07,1.07,0,0,1-1.08,1.31,1.63,1.63,0,0,1-1.55-1.31,1.08,1.08,0,0,1,1.08-1.31A1.64,1.64,0,0,1,310.74,231.79Z" transform="translate(-52.27 -4.62)"/><path d="M229,259.62a1.07,1.07,0,0,1-1.08,1.32,1.64,1.64,0,0,1-1.54-1.32,1.07,1.07,0,0,1,1.08-1.31A1.63,1.63,0,0,1,229,259.62Z" transform="translate(-52.27 -4.62)"/><ellipse cx="249.37" cy="259.62" rx="1.2" ry="1.43" transform="translate(-162.78 263.58) rotate(-47.52)"/><path d="M272.34,259.62a1.08,1.08,0,0,1-1.08,1.32,1.64,1.64,0,0,1-1.55-1.32,1.08,1.08,0,0,1,1.09-1.31A1.64,1.64,0,0,1,272.34,259.62Z" transform="translate(-52.27 -4.62)"/><path d="M294,259.62a1.07,1.07,0,0,1-1.08,1.32,1.64,1.64,0,0,1-1.54-1.32,1.07,1.07,0,0,1,1.08-1.31A1.64,1.64,0,0,1,294,259.62Z" transform="translate(-52.27 -4.62)"/><path d="M315.65,259.62a1.08,1.08,0,0,1-1.09,1.32,1.64,1.64,0,0,1-1.54-1.32,1.07,1.07,0,0,1,1.08-1.31A1.64,1.64,0,0,1,315.65,259.62Z" transform="translate(-52.27 -4.62)"/><path d="M337.3,259.62a1.08,1.08,0,0,1-1.08,1.32,1.64,1.64,0,0,1-1.55-1.32,1.08,1.08,0,0,1,1.09-1.31A1.64,1.64,0,0,1,337.3,259.62Z" transform="translate(-52.27 -4.62)"/><path d="M237.34,245.35a1.07,1.07,0,0,1-1.08,1.32,1.64,1.64,0,0,1-1.54-1.32A1.07,1.07,0,0,1,235.8,244,1.63,1.63,0,0,1,237.34,245.35Z" transform="translate(-52.27 -4.62)"/><path d="M259,245.35a1.08,1.08,0,0,1-1.08,1.32,1.64,1.64,0,0,1-1.55-1.32,1.07,1.07,0,0,1,1.08-1.31A1.64,1.64,0,0,1,259,245.35Z" transform="translate(-52.27 -4.62)"/><path d="M280.65,245.35a1.08,1.08,0,0,1-1.08,1.32,1.64,1.64,0,0,1-1.55-1.32,1.08,1.08,0,0,1,1.09-1.31A1.64,1.64,0,0,1,280.65,245.35Z" transform="translate(-52.27 -4.62)"/><path d="M302.3,245.35a1.07,1.07,0,0,1-1.08,1.32,1.64,1.64,0,0,1-1.54-1.32,1.07,1.07,0,0,1,1.08-1.31A1.64,1.64,0,0,1,302.3,245.35Z" transform="translate(-52.27 -4.62)"/><path d="M324,245.35a1.08,1.08,0,0,1-1.09,1.32,1.64,1.64,0,0,1-1.54-1.32,1.07,1.07,0,0,1,1.08-1.31A1.64,1.64,0,0,1,324,245.35Z" transform="translate(-52.27 -4.62)"/><path d="M345.53,246a1,1,0,0,1-1,.66,1.62,1.62,0,0,1-1.54-1.31,1.08,1.08,0,0,1,.68-1.26C344.3,244.72,344.92,245.34,345.53,246Z" transform="translate(-52.27 -4.62)"/><path d="M233.94,287.46a1.07,1.07,0,0,1-1.08,1.31,1.62,1.62,0,0,1-1.54-1.31,1.07,1.07,0,0,1,1.08-1.32A1.64,1.64,0,0,1,233.94,287.46Z" transform="translate(-52.27 -4.62)"/><ellipse cx="254.28" cy="287.46" rx="1.2" ry="1.43" transform="translate(-181.72 276.23) rotate(-47.52)"/><path d="M277.25,287.46a1.08,1.08,0,0,1-1.08,1.31,1.64,1.64,0,0,1-1.55-1.31,1.08,1.08,0,0,1,1.08-1.32A1.64,1.64,0,0,1,277.25,287.46Z" transform="translate(-52.27 -4.62)"/><path d="M298.9,287.46a1.07,1.07,0,0,1-1.08,1.31,1.62,1.62,0,0,1-1.54-1.31,1.07,1.07,0,0,1,1.08-1.32A1.64,1.64,0,0,1,298.9,287.46Z" transform="translate(-52.27 -4.62)"/><path d="M320.55,287.46a1.07,1.07,0,0,1-1.08,1.31,1.64,1.64,0,0,1-1.54-1.31,1.07,1.07,0,0,1,1.08-1.32A1.63,1.63,0,0,1,320.55,287.46Z" transform="translate(-52.27 -4.62)"/><path d="M342.21,287.46a1.08,1.08,0,0,1-1.08,1.31,1.64,1.64,0,0,1-1.55-1.31,1.08,1.08,0,0,1,1.08-1.32A1.64,1.64,0,0,1,342.21,287.46Z" transform="translate(-52.27 -4.62)"/><ellipse cx="362.55" cy="287.46" rx="1.2" ry="1.43" transform="translate(-146.57 356.08) rotate(-47.52)"/><path d="M220.6,273.18a1.08,1.08,0,0,1-1.08,1.32,1.64,1.64,0,0,1-1.55-1.32,1.07,1.07,0,0,1,1.08-1.31A1.64,1.64,0,0,1,220.6,273.18Z" transform="translate(-52.27 -4.62)"/><path d="M242.25,273.18a1.08,1.08,0,0,1-1.08,1.32,1.62,1.62,0,0,1-1.54-1.32,1.07,1.07,0,0,1,1.08-1.31A1.64,1.64,0,0,1,242.25,273.18Z" transform="translate(-52.27 -4.62)"/><path d="M263.9,273.18a1.07,1.07,0,0,1-1.08,1.32,1.64,1.64,0,0,1-1.54-1.32,1.07,1.07,0,0,1,1.08-1.31A1.63,1.63,0,0,1,263.9,273.18Z" transform="translate(-52.27 -4.62)"/><path d="M285.56,273.18a1.08,1.08,0,0,1-1.08,1.32,1.64,1.64,0,0,1-1.55-1.32,1.07,1.07,0,0,1,1.08-1.31A1.64,1.64,0,0,1,285.56,273.18Z" transform="translate(-52.27 -4.62)"/><path d="M307.21,273.18a1.08,1.08,0,0,1-1.08,1.32,1.62,1.62,0,0,1-1.54-1.32,1.07,1.07,0,0,1,1.08-1.31A1.64,1.64,0,0,1,307.21,273.18Z" transform="translate(-52.27 -4.62)"/><path d="M328.86,273.18a1.07,1.07,0,0,1-1.08,1.32,1.64,1.64,0,0,1-1.54-1.32,1.07,1.07,0,0,1,1.08-1.31A1.63,1.63,0,0,1,328.86,273.18Z" transform="translate(-52.27 -4.62)"/><path d="M350.52,273.18a1.08,1.08,0,0,1-1.08,1.32,1.64,1.64,0,0,1-1.55-1.32,1.07,1.07,0,0,1,1.08-1.31A1.64,1.64,0,0,1,350.52,273.18Z" transform="translate(-52.27 -4.62)"/><path d="M217.19,315.29a1.07,1.07,0,0,1-1.08,1.31,1.64,1.64,0,0,1-1.54-1.31,1.07,1.07,0,0,1,1.08-1.31A1.61,1.61,0,0,1,217.19,315.29Z" transform="translate(-52.27 -4.62)"/><path d="M238.85,315.29a1.07,1.07,0,0,1-1.08,1.31,1.64,1.64,0,0,1-1.55-1.31A1.07,1.07,0,0,1,237.3,314,1.63,1.63,0,0,1,238.85,315.29Z" transform="translate(-52.27 -4.62)"/><ellipse cx="259.19" cy="315.29" rx="1.2" ry="1.43" transform="translate(-200.65 288.89) rotate(-47.52)"/><path d="M282.15,315.29a1.07,1.07,0,0,1-1.08,1.31,1.64,1.64,0,0,1-1.54-1.31,1.07,1.07,0,0,1,1.08-1.31A1.61,1.61,0,0,1,282.15,315.29Z" transform="translate(-52.27 -4.62)"/><path d="M303.81,315.29a1.07,1.07,0,0,1-1.08,1.31,1.64,1.64,0,0,1-1.55-1.31,1.07,1.07,0,0,1,1.08-1.31A1.63,1.63,0,0,1,303.81,315.29Z" transform="translate(-52.27 -4.62)"/><path d="M325.46,315.29a1.07,1.07,0,0,1-1.08,1.31,1.63,1.63,0,0,1-1.54-1.31,1.06,1.06,0,0,1,1.08-1.31A1.63,1.63,0,0,1,325.46,315.29Z" transform="translate(-52.27 -4.62)"/><path d="M347.11,315.29A1.07,1.07,0,0,1,346,316.6a1.64,1.64,0,0,1-1.54-1.31,1.07,1.07,0,0,1,1.08-1.31A1.62,1.62,0,0,1,347.11,315.29Z" transform="translate(-52.27 -4.62)"/><ellipse cx="367.45" cy="315.29" rx="1.2" ry="1.43" transform="translate(-165.5 368.73) rotate(-47.52)"/><path d="M225.5,301a1.07,1.07,0,0,1-1.08,1.31,1.64,1.64,0,0,1-1.54-1.31A1.08,1.08,0,0,1,224,299.7,1.62,1.62,0,0,1,225.5,301Z" transform="translate(-52.27 -4.62)"/><path d="M247.16,301a1.07,1.07,0,0,1-1.08,1.31,1.64,1.64,0,0,1-1.55-1.31,1.08,1.08,0,0,1,1.08-1.32A1.64,1.64,0,0,1,247.16,301Z" transform="translate(-52.27 -4.62)"/><path d="M268.81,301a1.07,1.07,0,0,1-1.08,1.31,1.63,1.63,0,0,1-1.54-1.31,1.07,1.07,0,0,1,1.08-1.32A1.64,1.64,0,0,1,268.81,301Z" transform="translate(-52.27 -4.62)"/><path d="M290.46,301a1.07,1.07,0,0,1-1.08,1.31,1.64,1.64,0,0,1-1.54-1.31,1.08,1.08,0,0,1,1.08-1.32A1.62,1.62,0,0,1,290.46,301Z" transform="translate(-52.27 -4.62)"/><path d="M312.12,301a1.07,1.07,0,0,1-1.08,1.31,1.64,1.64,0,0,1-1.55-1.31,1.08,1.08,0,0,1,1.08-1.32A1.64,1.64,0,0,1,312.12,301Z" transform="translate(-52.27 -4.62)"/><path d="M333.77,301a1.07,1.07,0,0,1-1.08,1.31,1.63,1.63,0,0,1-1.54-1.31,1.07,1.07,0,0,1,1.08-1.32A1.64,1.64,0,0,1,333.77,301Z" transform="translate(-52.27 -4.62)"/><path d="M355.42,301a1.07,1.07,0,0,1-1.08,1.31A1.64,1.64,0,0,1,352.8,301a1.08,1.08,0,0,1,1.08-1.32A1.62,1.62,0,0,1,355.42,301Z" transform="translate(-52.27 -4.62)"/><path d="M377.08,301a1.07,1.07,0,0,1-1.08,1.31,1.64,1.64,0,0,1-1.55-1.31,1.08,1.08,0,0,1,1.08-1.32A1.64,1.64,0,0,1,377.08,301Z" transform="translate(-52.27 -4.62)"/><path d="M222.1,343.12a1.07,1.07,0,0,1-1.08,1.31,1.64,1.64,0,0,1-1.54-1.31,1.07,1.07,0,0,1,1.08-1.31A1.64,1.64,0,0,1,222.1,343.12Z" transform="translate(-52.27 -4.62)"/><path d="M243.76,343.12a1.08,1.08,0,0,1-1.09,1.31,1.64,1.64,0,0,1-1.54-1.31,1.07,1.07,0,0,1,1.08-1.31A1.64,1.64,0,0,1,243.76,343.12Z" transform="translate(-52.27 -4.62)"/><ellipse cx="264.1" cy="343.12" rx="1.2" ry="1.43" transform="translate(-219.58 301.54) rotate(-47.52)"/><path d="M287.06,343.12a1.07,1.07,0,0,1-1.08,1.31,1.64,1.64,0,0,1-1.54-1.31,1.07,1.07,0,0,1,1.08-1.31A1.64,1.64,0,0,1,287.06,343.12Z" transform="translate(-52.27 -4.62)"/><path d="M308.72,343.12a1.08,1.08,0,0,1-1.09,1.31,1.64,1.64,0,0,1-1.54-1.31,1.07,1.07,0,0,1,1.08-1.31A1.64,1.64,0,0,1,308.72,343.12Z" transform="translate(-52.27 -4.62)"/><path d="M330.37,343.12a1.07,1.07,0,0,1-1.08,1.31,1.64,1.64,0,0,1-1.55-1.31,1.08,1.08,0,0,1,1.08-1.31A1.64,1.64,0,0,1,330.37,343.12Z" transform="translate(-52.27 -4.62)"/><path d="M352,343.12a1.07,1.07,0,0,1-1.08,1.31,1.63,1.63,0,0,1-1.54-1.31,1.07,1.07,0,0,1,1.08-1.31A1.64,1.64,0,0,1,352,343.12Z" transform="translate(-52.27 -4.62)"/><ellipse cx="372.36" cy="343.12" rx="1.2" ry="1.43" transform="translate(-184.43 381.39) rotate(-47.52)"/><path d="M230.41,328.85a1.07,1.07,0,0,1-1.08,1.31,1.64,1.64,0,0,1-1.54-1.31,1.06,1.06,0,0,1,1.08-1.31A1.63,1.63,0,0,1,230.41,328.85Z" transform="translate(-52.27 -4.62)"/><path d="M252.07,328.85a1.08,1.08,0,0,1-1.09,1.31,1.64,1.64,0,0,1-1.54-1.31,1.07,1.07,0,0,1,1.08-1.31A1.63,1.63,0,0,1,252.07,328.85Z" transform="translate(-52.27 -4.62)"/><path d="M273.72,328.85a1.07,1.07,0,0,1-1.08,1.31,1.64,1.64,0,0,1-1.55-1.31,1.07,1.07,0,0,1,1.09-1.31A1.63,1.63,0,0,1,273.72,328.85Z" transform="translate(-52.27 -4.62)"/><path d="M295.37,328.85a1.07,1.07,0,0,1-1.08,1.31,1.64,1.64,0,0,1-1.54-1.31,1.06,1.06,0,0,1,1.08-1.31A1.63,1.63,0,0,1,295.37,328.85Z" transform="translate(-52.27 -4.62)"/><path d="M317,328.85a1.08,1.08,0,0,1-1.09,1.31,1.64,1.64,0,0,1-1.54-1.31,1.07,1.07,0,0,1,1.08-1.31A1.63,1.63,0,0,1,317,328.85Z" transform="translate(-52.27 -4.62)"/><path d="M338.68,328.85a1.07,1.07,0,0,1-1.08,1.31,1.64,1.64,0,0,1-1.55-1.31,1.07,1.07,0,0,1,1.08-1.31A1.63,1.63,0,0,1,338.68,328.85Z" transform="translate(-52.27 -4.62)"/><path d="M360.33,328.85a1.07,1.07,0,0,1-1.08,1.31,1.63,1.63,0,0,1-1.54-1.31,1.06,1.06,0,0,1,1.08-1.31A1.63,1.63,0,0,1,360.33,328.85Z" transform="translate(-52.27 -4.62)"/><path d="M382,328.85a1.07,1.07,0,0,1-1.08,1.31,1.64,1.64,0,0,1-1.54-1.31,1.07,1.07,0,0,1,1.08-1.31A1.61,1.61,0,0,1,382,328.85Z" transform="translate(-52.27 -4.62)"/><ellipse cx="234.01" cy="356.68" rx="1.2" ry="1.43" transform="translate(-239.35 283.76) rotate(-47.52)"/><path d="M257,356.68a1.06,1.06,0,0,1-1.08,1.31,1.63,1.63,0,0,1-1.54-1.31,1.07,1.07,0,0,1,1.08-1.31A1.63,1.63,0,0,1,257,356.68Z" transform="translate(-52.27 -4.62)"/><path d="M278.63,356.68a1.07,1.07,0,0,1-1.08,1.31,1.63,1.63,0,0,1-1.55-1.31,1.07,1.07,0,0,1,1.08-1.31A1.64,1.64,0,0,1,278.63,356.68Z" transform="translate(-52.27 -4.62)"/><path d="M300.28,356.68A1.07,1.07,0,0,1,299.2,358a1.63,1.63,0,0,1-1.55-1.31,1.08,1.08,0,0,1,1.09-1.31A1.64,1.64,0,0,1,300.28,356.68Z" transform="translate(-52.27 -4.62)"/><ellipse cx="320.62" cy="356.68" rx="1.2" ry="1.43" transform="translate(-211.23 347.63) rotate(-47.52)"/><ellipse cx="342.27" cy="356.68" rx="1.2" ry="1.43" transform="translate(-204.2 363.6) rotate(-47.52)"/><path d="M365.24,356.68a1.07,1.07,0,0,1-1.08,1.31,1.63,1.63,0,0,1-1.55-1.31,1.08,1.08,0,0,1,1.09-1.31A1.64,1.64,0,0,1,365.24,356.68Z" transform="translate(-52.27 -4.62)"/><path d="M385.09,355.39a2.79,2.79,0,0,1-.63.4A1,1,0,0,1,385.09,355.39Z" transform="translate(-52.27 -4.62)"/></g><ellipse class="cls-14" cx="249.68" cy="245.57" rx="9.64" ry="11.5" transform="translate(-152.32 259.24) rotate(-47.52)"/><ellipse class="cls-14" cx="319.89" cy="245.57" rx="9.64" ry="11.5" transform="translate(-129.52 311.02) rotate(-47.52)"/><ellipse class="cls-15" cx="249.68" cy="245.57" rx="6.53" ry="7.79" transform="translate(-152.32 259.24) rotate(-47.52)"/><ellipse class="cls-15" cx="319.89" cy="245.57" rx="6.53" ry="7.79" transform="translate(-129.52 311.02) rotate(-47.52)"/><path class="cls-9" d="M320.16,247.11a5,5,0,0,1-4.72-4,225.57,225.57,0,0,0-12.68-37.84c-6.69-15.05-17.32-33-29.95-33-23.32,0-21.67,58.83-19.55,70.84a3.28,3.28,0,0,1-3.31,4,5,5,0,0,1-4.73-4c-.13-.78-9-78.87,26.17-78.87,34.12,0,51.94,78.09,52.08,78.87A3.28,3.28,0,0,1,320.16,247.11Z" transform="translate(-52.27 -4.62)"/><polygon class="cls-12" points="249.4 510.6 204.06 510.6 196.07 465.26 241.41 465.26 249.4 510.6"/><path class="cls-16" d="M289.4,510H266.76c-6.12,0-6-4.9-5.44-10S262.69,487,268.15,487h11.76c5.47,0,9,7.79,11.39,12.93S295.52,510,289.4,510Z" transform="translate(-52.27 -4.62)"/><g class="cls-13"><path d="M267.56,487.28a.2.2,0,0,1-.2.24.3.3,0,0,1-.27-.24.19.19,0,0,1,.19-.23A.3.3,0,0,1,267.56,487.28Z" transform="translate(-52.27 -4.62)"/><path d="M271.42,487.28a.2.2,0,0,1-.2.24.29.29,0,0,1-.27-.24.19.19,0,0,1,.19-.23A.3.3,0,0,1,271.42,487.28Z" transform="translate(-52.27 -4.62)"/><path d="M275.28,487.28a.2.2,0,0,1-.2.24.29.29,0,0,1-.27-.24.18.18,0,0,1,.19-.23A.3.3,0,0,1,275.28,487.28Z" transform="translate(-52.27 -4.62)"/><path d="M279.13,487.28a.19.19,0,0,1-.19.24.29.29,0,0,1-.27-.24.18.18,0,0,1,.19-.23A.28.28,0,0,1,279.13,487.28Z" transform="translate(-52.27 -4.62)"/><path d="M264.57,492.24a.19.19,0,0,1-.19.24.29.29,0,0,1-.27-.24.18.18,0,0,1,.19-.23A.28.28,0,0,1,264.57,492.24Z" transform="translate(-52.27 -4.62)"/><path d="M268.43,492.24a.19.19,0,0,1-.19.24.31.31,0,0,1-.28-.24.19.19,0,0,1,.2-.23A.28.28,0,0,1,268.43,492.24Z" transform="translate(-52.27 -4.62)"/><path d="M272.29,492.24a.19.19,0,0,1-.19.24.31.31,0,0,1-.28-.24.19.19,0,0,1,.2-.23A.28.28,0,0,1,272.29,492.24Z" transform="translate(-52.27 -4.62)"/><path d="M276.15,492.24a.19.19,0,0,1-.19.24.3.3,0,0,1-.28-.24.19.19,0,0,1,.19-.23A.29.29,0,0,1,276.15,492.24Z" transform="translate(-52.27 -4.62)"/><path d="M280,492.24a.19.19,0,0,1-.19.24.3.3,0,0,1-.28-.24.19.19,0,0,1,.19-.23A.29.29,0,0,1,280,492.24Z" transform="translate(-52.27 -4.62)"/><path d="M283.87,492.24a.2.2,0,0,1-.19.24.3.3,0,0,1-.28-.24.19.19,0,0,1,.19-.23A.29.29,0,0,1,283.87,492.24Z" transform="translate(-52.27 -4.62)"/><ellipse cx="265.82" cy="489.7" rx="0.21" ry="0.26" transform="translate(-327.13 350.4) rotate(-47.52)"/><ellipse cx="269.68" cy="489.7" rx="0.21" ry="0.26" transform="translate(-325.87 353.25) rotate(-47.52)"/><ellipse cx="273.54" cy="489.7" rx="0.21" ry="0.26" transform="translate(-324.62 356.09) rotate(-47.52)"/><path d="M277.63,489.7a.19.19,0,0,1-.19.23.3.3,0,0,1-.28-.23.2.2,0,0,1,.2-.24A.3.3,0,0,1,277.63,489.7Z" transform="translate(-52.27 -4.62)"/><path d="M281.49,489.7a.19.19,0,0,1-.19.23.29.29,0,0,1-.28-.23.2.2,0,0,1,.19-.24A.3.3,0,0,1,281.49,489.7Z" transform="translate(-52.27 -4.62)"/><path d="M285.34,489.81a.18.18,0,0,1-.18.12.3.3,0,0,1-.28-.23.21.21,0,0,1,.12-.23Z" transform="translate(-52.27 -4.62)"/><path d="M265.45,497.2a.2.2,0,0,1-.19.24.3.3,0,0,1-.28-.24.19.19,0,0,1,.19-.23A.3.3,0,0,1,265.45,497.2Z" transform="translate(-52.27 -4.62)"/><path d="M269.31,497.2a.2.2,0,0,1-.2.24.29.29,0,0,1-.27-.24A.19.19,0,0,1,269,497,.3.3,0,0,1,269.31,497.2Z" transform="translate(-52.27 -4.62)"/><path d="M273.17,497.2a.2.2,0,0,1-.2.24.29.29,0,0,1-.27-.24.18.18,0,0,1,.19-.23A.3.3,0,0,1,273.17,497.2Z" transform="translate(-52.27 -4.62)"/><path d="M277,497.2a.19.19,0,0,1-.19.24.29.29,0,0,1-.27-.24.18.18,0,0,1,.19-.23A.28.28,0,0,1,277,497.2Z" transform="translate(-52.27 -4.62)"/><path d="M280.88,497.2a.19.19,0,0,1-.19.24.29.29,0,0,1-.27-.24.18.18,0,0,1,.19-.23A.28.28,0,0,1,280.88,497.2Z" transform="translate(-52.27 -4.62)"/><path d="M284.74,497.2a.19.19,0,0,1-.19.24.31.31,0,0,1-.28-.24.19.19,0,0,1,.2-.23A.28.28,0,0,1,284.74,497.2Z" transform="translate(-52.27 -4.62)"/><path d="M288.6,497.2a.19.19,0,0,1-.19.24.31.31,0,0,1-.28-.24.19.19,0,0,1,.2-.23A.28.28,0,0,1,288.6,497.2Z" transform="translate(-52.27 -4.62)"/><ellipse cx="262.84" cy="494.66" rx="0.21" ry="0.26" transform="translate(-331.75 349.81) rotate(-47.52)"/><ellipse cx="266.69" cy="494.66" rx="0.21" ry="0.26" transform="translate(-330.5 352.66) rotate(-47.52)"/><ellipse cx="270.55" cy="494.66" rx="0.21" ry="0.26" transform="translate(-329.25 355.5) rotate(-47.52)"/><ellipse cx="274.41" cy="494.66" rx="0.21" ry="0.26" transform="translate(-327.99 358.35) rotate(-47.52)"/><path d="M278.51,494.66a.19.19,0,0,1-.2.23.28.28,0,0,1-.27-.23.19.19,0,0,1,.19-.24A.31.31,0,0,1,278.51,494.66Z" transform="translate(-52.27 -4.62)"/><path d="M282.36,494.66a.18.18,0,0,1-.19.23.28.28,0,0,1-.27-.23.19.19,0,0,1,.19-.24A.29.29,0,0,1,282.36,494.66Z" transform="translate(-52.27 -4.62)"/><path d="M286.22,494.66a.18.18,0,0,1-.19.23.28.28,0,0,1-.27-.23.19.19,0,0,1,.19-.24A.29.29,0,0,1,286.22,494.66Z" transform="translate(-52.27 -4.62)"/><path d="M262.46,502.16a.19.19,0,0,1-.19.24.29.29,0,0,1-.27-.24.18.18,0,0,1,.19-.23A.28.28,0,0,1,262.46,502.16Z" transform="translate(-52.27 -4.62)"/><path d="M266.32,502.16a.19.19,0,0,1-.19.24.31.31,0,0,1-.28-.24.19.19,0,0,1,.2-.23A.28.28,0,0,1,266.32,502.16Z" transform="translate(-52.27 -4.62)"/><path d="M270.18,502.16a.19.19,0,0,1-.19.24.31.31,0,0,1-.28-.24.19.19,0,0,1,.2-.23A.28.28,0,0,1,270.18,502.16Z" transform="translate(-52.27 -4.62)"/><path d="M274,502.16a.19.19,0,0,1-.19.24.31.31,0,0,1-.28-.24.19.19,0,0,1,.19-.23A.29.29,0,0,1,274,502.16Z" transform="translate(-52.27 -4.62)"/><path d="M277.9,502.16a.19.19,0,0,1-.19.24.3.3,0,0,1-.28-.24.19.19,0,0,1,.19-.23A.29.29,0,0,1,277.9,502.16Z" transform="translate(-52.27 -4.62)"/><path d="M281.76,502.16a.2.2,0,0,1-.19.24.3.3,0,0,1-.28-.24.19.19,0,0,1,.19-.23A.29.29,0,0,1,281.76,502.16Z" transform="translate(-52.27 -4.62)"/><path d="M285.62,502.16a.2.2,0,0,1-.2.24.3.3,0,0,1-.27-.24.19.19,0,0,1,.19-.23A.3.3,0,0,1,285.62,502.16Z" transform="translate(-52.27 -4.62)"/><path d="M289.48,502.16a.2.2,0,0,1-.2.24.29.29,0,0,1-.27-.24.19.19,0,0,1,.19-.23A.3.3,0,0,1,289.48,502.16Z" transform="translate(-52.27 -4.62)"/><ellipse cx="263.71" cy="499.62" rx="0.21" ry="0.26" transform="translate(-335.13 352.07) rotate(-47.52)"/><ellipse cx="267.57" cy="499.62" rx="0.21" ry="0.26" transform="translate(-333.87 354.91) rotate(-47.52)"/><ellipse cx="271.43" cy="499.62" rx="0.21" ry="0.26" transform="translate(-332.62 357.76) rotate(-47.52)"/><ellipse cx="275.29" cy="499.62" rx="0.21" ry="0.26" transform="translate(-331.37 360.61) rotate(-47.52)"/><path d="M279.38,499.62a.19.19,0,0,1-.19.23.3.3,0,0,1-.28-.23.2.2,0,0,1,.2-.24A.3.3,0,0,1,279.38,499.62Z" transform="translate(-52.27 -4.62)"/><path d="M283.24,499.62a.19.19,0,0,1-.19.23.29.29,0,0,1-.28-.23.19.19,0,0,1,.19-.24A.3.3,0,0,1,283.24,499.62Z" transform="translate(-52.27 -4.62)"/><path d="M287.1,499.62a.19.19,0,0,1-.19.23.29.29,0,0,1-.28-.23.19.19,0,0,1,.19-.24A.3.3,0,0,1,287.1,499.62Z" transform="translate(-52.27 -4.62)"/><path d="M291,499.62a.19.19,0,0,1-.2.23.29.29,0,0,1-.27-.23.19.19,0,0,1,.19-.24A.31.31,0,0,1,291,499.62Z" transform="translate(-52.27 -4.62)"/><ellipse cx="263.1" cy="507.12" rx="0.21" ry="0.26" transform="translate(-340.86 354.06) rotate(-47.52)"/><ellipse cx="266.96" cy="507.12" rx="0.21" ry="0.26" transform="translate(-339.6 356.9) rotate(-47.52)"/><path d="M271.06,507.12a.2.2,0,0,1-.2.24.29.29,0,0,1-.27-.24.19.19,0,0,1,.19-.23A.3.3,0,0,1,271.06,507.12Z" transform="translate(-52.27 -4.62)"/><path d="M274.91,507.12a.19.19,0,0,1-.19.24.29.29,0,0,1-.27-.24.18.18,0,0,1,.19-.23A.28.28,0,0,1,274.91,507.12Z" transform="translate(-52.27 -4.62)"/><ellipse cx="278.54" cy="507.12" rx="0.21" ry="0.26" transform="translate(-335.85 365.44) rotate(-47.52)"/><ellipse cx="282.4" cy="507.12" rx="0.21" ry="0.26" transform="translate(-334.59 368.29) rotate(-47.52)"/><ellipse cx="286.26" cy="507.12" rx="0.21" ry="0.26" transform="translate(-333.34 371.13) rotate(-47.52)"/><ellipse cx="290.12" cy="507.12" rx="0.21" ry="0.26" transform="translate(-332.09 373.98) rotate(-47.52)"/><ellipse cx="264.59" cy="504.58" rx="0.21" ry="0.26" transform="translate(-338.5 354.32) rotate(-47.52)"/><ellipse cx="268.44" cy="504.58" rx="0.21" ry="0.26" transform="translate(-337.25 357.17) rotate(-47.52)"/><ellipse cx="272.3" cy="504.58" rx="0.21" ry="0.26" transform="translate(-335.99 360.01) rotate(-47.52)"/><ellipse cx="276.16" cy="504.58" rx="0.21" ry="0.26" transform="translate(-334.74 362.86) rotate(-47.52)"/><path d="M280.25,504.58a.18.18,0,0,1-.19.23.28.28,0,0,1-.27-.23.19.19,0,0,1,.19-.24A.29.29,0,0,1,280.25,504.58Z" transform="translate(-52.27 -4.62)"/><path d="M284.11,504.58a.18.18,0,0,1-.19.23.28.28,0,0,1-.27-.23.19.19,0,0,1,.19-.24A.29.29,0,0,1,284.11,504.58Z" transform="translate(-52.27 -4.62)"/><path d="M288,504.58a.18.18,0,0,1-.19.23.3.3,0,0,1-.28-.23.2.2,0,0,1,.2-.24A.29.29,0,0,1,288,504.58Z" transform="translate(-52.27 -4.62)"/><path d="M291.83,504.58a.19.19,0,0,1-.19.23.3.3,0,0,1-.28-.23.2.2,0,0,1,.2-.24A.29.29,0,0,1,291.83,504.58Z" transform="translate(-52.27 -4.62)"/><ellipse cx="265.46" cy="509.54" rx="0.21" ry="0.26" transform="translate(-341.87 356.58) rotate(-47.52)"/><ellipse cx="269.32" cy="509.54" rx="0.21" ry="0.26" transform="translate(-340.62 359.42) rotate(-47.52)"/><ellipse cx="273.18" cy="509.54" rx="0.21" ry="0.26" transform="translate(-339.37 362.27) rotate(-47.52)"/><ellipse cx="277.04" cy="509.54" rx="0.21" ry="0.26" transform="translate(-338.12 365.12) rotate(-47.52)"/><path d="M281.13,509.54a.19.19,0,0,1-.19.23.29.29,0,0,1-.28-.23.2.2,0,0,1,.19-.24A.3.3,0,0,1,281.13,509.54Z" transform="translate(-52.27 -4.62)"/><path d="M285,509.54a.19.19,0,0,1-.19.23.29.29,0,0,1-.28-.23.19.19,0,0,1,.19-.24A.3.3,0,0,1,285,509.54Z" transform="translate(-52.27 -4.62)"/><path d="M288.85,509.54a.19.19,0,0,1-.2.23.29.29,0,0,1-.27-.23.19.19,0,0,1,.19-.24A.31.31,0,0,1,288.85,509.54Z" transform="translate(-52.27 -4.62)"/><path d="M292.38,509.31a.41.41,0,0,1-.11.07A.19.19,0,0,1,292.38,509.31Z" transform="translate(-52.27 -4.62)"/></g><path class="cls-14" d="M270.13,489.74a1.53,1.53,0,0,1-1.55,1.87,2.33,2.33,0,0,1-2.2-1.87,1.53,1.53,0,0,1,1.54-1.88A2.33,2.33,0,0,1,270.13,489.74Z" transform="translate(-52.27 -4.62)"/><path class="cls-14" d="M282.64,489.74a1.53,1.53,0,0,1-1.54,1.87,2.33,2.33,0,0,1-2.21-1.87,1.53,1.53,0,0,1,1.54-1.88A2.33,2.33,0,0,1,282.64,489.74Z" transform="translate(-52.27 -4.62)"/><path class="cls-15" d="M269.52,489.74a1,1,0,0,1-1,1.27,1.59,1.59,0,0,1-1.5-1.27,1,1,0,0,1,1-1.27A1.57,1.57,0,0,1,269.52,489.74Z" transform="translate(-52.27 -4.62)"/><ellipse class="cls-15" cx="280.77" cy="489.74" rx="1.16" ry="1.39" transform="translate(-322.3 361.44) rotate(-47.52)"/><path class="cls-16" d="M280.81,490a.89.89,0,0,1-.84-.71,40.29,40.29,0,0,0-2.26-6.75c-1.19-2.68-3.08-5.88-5.33-5.88-4.16,0-3.87,10.48-3.49,12.63a.58.58,0,0,1-.59.71.89.89,0,0,1-.84-.71c0-.14-1.61-14.06,4.66-14.06,6.08,0,9.26,13.92,9.28,14.06A.58.58,0,0,1,280.81,490Z" transform="translate(-52.27 -4.62)"/><polygon class="cls-12" points="305.43 510.6 260.08 510.6 252.09 465.26 297.43 465.26 305.43 510.6"/><path class="cls-15" d="M358.84,516.2H311.55l-8.33-47.29H350.5Zm-45.69-1.94h43.4l-7.65-43.41H305.5Z" transform="translate(-52.27 -4.62)"/><path class="cls-9" d="M345.42,510H322.78c-6.12,0-6-4.9-5.44-10S318.71,487,324.17,487h11.76c5.47,0,9,7.79,11.39,12.93S351.54,510,345.42,510Z" transform="translate(-52.27 -4.62)"/><g class="cls-13"><path d="M323.58,487.28a.2.2,0,0,1-.19.24.3.3,0,0,1-.28-.24.19.19,0,0,1,.19-.23A.29.29,0,0,1,323.58,487.28Z" transform="translate(-52.27 -4.62)"/><path d="M327.44,487.28a.2.2,0,0,1-.2.24.3.3,0,0,1-.27-.24.19.19,0,0,1,.19-.23A.3.3,0,0,1,327.44,487.28Z" transform="translate(-52.27 -4.62)"/><path d="M331.3,487.28a.2.2,0,0,1-.2.24.29.29,0,0,1-.27-.24.19.19,0,0,1,.19-.23A.3.3,0,0,1,331.3,487.28Z" transform="translate(-52.27 -4.62)"/><path d="M335.16,487.28a.2.2,0,0,1-.2.24.29.29,0,0,1-.27-.24.18.18,0,0,1,.19-.23A.3.3,0,0,1,335.16,487.28Z" transform="translate(-52.27 -4.62)"/><path d="M320.59,492.24a.19.19,0,0,1-.19.24.29.29,0,0,1-.27-.24.18.18,0,0,1,.19-.23A.28.28,0,0,1,320.59,492.24Z" transform="translate(-52.27 -4.62)"/><path d="M324.45,492.24a.19.19,0,0,1-.19.24.29.29,0,0,1-.27-.24.18.18,0,0,1,.19-.23A.28.28,0,0,1,324.45,492.24Z" transform="translate(-52.27 -4.62)"/><path d="M328.31,492.24a.19.19,0,0,1-.19.24.31.31,0,0,1-.28-.24.19.19,0,0,1,.2-.23A.28.28,0,0,1,328.31,492.24Z" transform="translate(-52.27 -4.62)"/><path d="M332.17,492.24a.19.19,0,0,1-.19.24.31.31,0,0,1-.28-.24.19.19,0,0,1,.2-.23A.28.28,0,0,1,332.17,492.24Z" transform="translate(-52.27 -4.62)"/><path d="M336,492.24a.19.19,0,0,1-.19.24.3.3,0,0,1-.28-.24.19.19,0,0,1,.19-.23A.29.29,0,0,1,336,492.24Z" transform="translate(-52.27 -4.62)"/><path d="M339.89,492.24a.19.19,0,0,1-.19.24.3.3,0,0,1-.28-.24.19.19,0,0,1,.19-.23A.29.29,0,0,1,339.89,492.24Z" transform="translate(-52.27 -4.62)"/><path d="M322.08,489.7a.19.19,0,0,1-.2.23.28.28,0,0,1-.27-.23.19.19,0,0,1,.19-.24A.31.31,0,0,1,322.08,489.7Z" transform="translate(-52.27 -4.62)"/><ellipse cx="325.7" cy="489.7" rx="0.21" ry="0.26" transform="translate(-307.68 394.56) rotate(-47.52)"/><ellipse cx="329.56" cy="489.7" rx="0.21" ry="0.26" transform="translate(-306.43 397.41) rotate(-47.52)"/><ellipse cx="333.42" cy="489.7" rx="0.21" ry="0.26" transform="translate(-305.18 400.26) rotate(-47.52)"/><ellipse cx="337.28" cy="489.7" rx="0.21" ry="0.26" transform="translate(-303.93 403.1) rotate(-47.52)"/><path d="M341.36,489.81a.18.18,0,0,1-.18.12.3.3,0,0,1-.28-.23.21.21,0,0,1,.12-.23Z" transform="translate(-52.27 -4.62)"/><path d="M321.47,497.2a.19.19,0,0,1-.19.24.3.3,0,0,1-.28-.24.19.19,0,0,1,.19-.23A.29.29,0,0,1,321.47,497.2Z" transform="translate(-52.27 -4.62)"/><path d="M325.33,497.2a.2.2,0,0,1-.19.24.3.3,0,0,1-.28-.24.19.19,0,0,1,.19-.23A.3.3,0,0,1,325.33,497.2Z" transform="translate(-52.27 -4.62)"/><path d="M329.19,497.2a.2.2,0,0,1-.2.24.29.29,0,0,1-.27-.24.19.19,0,0,1,.19-.23A.3.3,0,0,1,329.19,497.2Z" transform="translate(-52.27 -4.62)"/><path d="M333.05,497.2a.2.2,0,0,1-.2.24.29.29,0,0,1-.27-.24.18.18,0,0,1,.19-.23A.3.3,0,0,1,333.05,497.2Z" transform="translate(-52.27 -4.62)"/><path d="M336.9,497.2a.19.19,0,0,1-.19.24.29.29,0,0,1-.27-.24.18.18,0,0,1,.19-.23A.28.28,0,0,1,336.9,497.2Z" transform="translate(-52.27 -4.62)"/><path d="M340.76,497.2a.19.19,0,0,1-.19.24.29.29,0,0,1-.27-.24.18.18,0,0,1,.19-.23A.28.28,0,0,1,340.76,497.2Z" transform="translate(-52.27 -4.62)"/><path d="M344.62,497.2a.19.19,0,0,1-.19.24.31.31,0,0,1-.28-.24.19.19,0,0,1,.2-.23A.28.28,0,0,1,344.62,497.2Z" transform="translate(-52.27 -4.62)"/><path d="M319.09,494.66a.19.19,0,0,1-.19.23.3.3,0,0,1-.28-.23.2.2,0,0,1,.2-.24A.3.3,0,0,1,319.09,494.66Z" transform="translate(-52.27 -4.62)"/><path d="M323,494.66a.19.19,0,0,1-.19.23.29.29,0,0,1-.28-.23.2.2,0,0,1,.19-.24A.3.3,0,0,1,323,494.66Z" transform="translate(-52.27 -4.62)"/><ellipse cx="326.57" cy="494.66" rx="0.21" ry="0.26" transform="translate(-311.06 396.82) rotate(-47.52)"/><ellipse cx="330.43" cy="494.66" rx="0.21" ry="0.26" transform="translate(-309.81 399.67) rotate(-47.52)"/><ellipse cx="334.29" cy="494.66" rx="0.21" ry="0.26" transform="translate(-308.55 402.51) rotate(-47.52)"/><ellipse cx="338.15" cy="494.66" rx="0.21" ry="0.26" transform="translate(-307.3 405.36) rotate(-47.52)"/><path d="M342.24,494.66a.18.18,0,0,1-.19.23.28.28,0,0,1-.27-.23.19.19,0,0,1,.19-.24A.29.29,0,0,1,342.24,494.66Z" transform="translate(-52.27 -4.62)"/><path d="M318.48,502.16a.19.19,0,0,1-.19.24.29.29,0,0,1-.27-.24.18.18,0,0,1,.19-.23A.28.28,0,0,1,318.48,502.16Z" transform="translate(-52.27 -4.62)"/><path d="M322.34,502.16a.19.19,0,0,1-.19.24.29.29,0,0,1-.27-.24.18.18,0,0,1,.19-.23A.28.28,0,0,1,322.34,502.16Z" transform="translate(-52.27 -4.62)"/><path d="M326.2,502.16a.19.19,0,0,1-.19.24.31.31,0,0,1-.28-.24.19.19,0,0,1,.2-.23A.28.28,0,0,1,326.2,502.16Z" transform="translate(-52.27 -4.62)"/><path d="M330.06,502.16a.19.19,0,0,1-.19.24.31.31,0,0,1-.28-.24.19.19,0,0,1,.2-.23A.28.28,0,0,1,330.06,502.16Z" transform="translate(-52.27 -4.62)"/><path d="M333.92,502.16a.19.19,0,0,1-.19.24.31.31,0,0,1-.28-.24.19.19,0,0,1,.19-.23A.29.29,0,0,1,333.92,502.16Z" transform="translate(-52.27 -4.62)"/><path d="M337.78,502.16a.19.19,0,0,1-.19.24.3.3,0,0,1-.28-.24.19.19,0,0,1,.19-.23A.29.29,0,0,1,337.78,502.16Z" transform="translate(-52.27 -4.62)"/><path d="M341.64,502.16a.2.2,0,0,1-.19.24.3.3,0,0,1-.28-.24.19.19,0,0,1,.19-.23A.29.29,0,0,1,341.64,502.16Z" transform="translate(-52.27 -4.62)"/><path d="M345.5,502.16a.2.2,0,0,1-.2.24.3.3,0,0,1-.27-.24.19.19,0,0,1,.19-.23A.3.3,0,0,1,345.5,502.16Z" transform="translate(-52.27 -4.62)"/><path d="M320,499.62a.19.19,0,0,1-.2.23.28.28,0,0,1-.27-.23.19.19,0,0,1,.19-.24A.31.31,0,0,1,320,499.62Z" transform="translate(-52.27 -4.62)"/><path d="M323.82,499.62a.18.18,0,0,1-.19.23.28.28,0,0,1-.27-.23.19.19,0,0,1,.19-.24A.29.29,0,0,1,323.82,499.62Z" transform="translate(-52.27 -4.62)"/><ellipse cx="327.45" cy="499.62" rx="0.21" ry="0.26" transform="translate(-314.43 399.07) rotate(-47.52)"/><ellipse cx="331.31" cy="499.62" rx="0.21" ry="0.26" transform="translate(-313.18 401.92) rotate(-47.52)"/><ellipse cx="335.17" cy="499.62" rx="0.21" ry="0.26" transform="translate(-311.93 404.77) rotate(-47.52)"/><ellipse cx="339.03" cy="499.62" rx="0.21" ry="0.26" transform="translate(-310.67 407.61) rotate(-47.52)"/><path d="M343.12,499.62a.19.19,0,0,1-.19.23.29.29,0,0,1-.28-.23.19.19,0,0,1,.19-.24A.3.3,0,0,1,343.12,499.62Z" transform="translate(-52.27 -4.62)"/><ellipse cx="346.74" cy="499.62" rx="0.21" ry="0.26" transform="translate(-308.17 413.3) rotate(-47.52)"/><ellipse cx="319.13" cy="507.12" rx="0.21" ry="0.26" transform="translate(-322.67 395.37) rotate(-47.52)"/><ellipse cx="322.98" cy="507.12" rx="0.21" ry="0.26" transform="translate(-321.42 398.22) rotate(-47.52)"/><ellipse cx="326.84" cy="507.12" rx="0.21" ry="0.26" transform="translate(-320.16 401.06) rotate(-47.52)"/><path d="M330.94,507.12a.2.2,0,0,1-.2.24.29.29,0,0,1-.27-.24.19.19,0,0,1,.19-.23A.3.3,0,0,1,330.94,507.12Z" transform="translate(-52.27 -4.62)"/><path d="M334.79,507.12a.19.19,0,0,1-.19.24.29.29,0,0,1-.27-.24.18.18,0,0,1,.19-.23A.28.28,0,0,1,334.79,507.12Z" transform="translate(-52.27 -4.62)"/><path d="M338.65,507.12a.19.19,0,0,1-.19.24.29.29,0,0,1-.27-.24.18.18,0,0,1,.19-.23A.28.28,0,0,1,338.65,507.12Z" transform="translate(-52.27 -4.62)"/><path d="M342.51,507.12a.19.19,0,0,1-.19.24.31.31,0,0,1-.28-.24.19.19,0,0,1,.2-.23A.28.28,0,0,1,342.51,507.12Z" transform="translate(-52.27 -4.62)"/><path d="M346.37,507.12a.19.19,0,0,1-.19.24.31.31,0,0,1-.28-.24.19.19,0,0,1,.2-.23A.28.28,0,0,1,346.37,507.12Z" transform="translate(-52.27 -4.62)"/><path d="M320.84,504.58a.19.19,0,0,1-.19.23.29.29,0,0,1-.28-.23.2.2,0,0,1,.2-.24A.3.3,0,0,1,320.84,504.58Z" transform="translate(-52.27 -4.62)"/><path d="M324.7,504.58a.19.19,0,0,1-.19.23.29.29,0,0,1-.28-.23.19.19,0,0,1,.19-.24A.3.3,0,0,1,324.7,504.58Z" transform="translate(-52.27 -4.62)"/><ellipse cx="328.32" cy="504.58" rx="0.21" ry="0.26" transform="translate(-317.81 401.33) rotate(-47.52)"/><ellipse cx="332.18" cy="504.58" rx="0.21" ry="0.26" transform="translate(-316.55 404.18) rotate(-47.52)"/><ellipse cx="336.04" cy="504.58" rx="0.21" ry="0.26" transform="translate(-315.3 407.02) rotate(-47.52)"/><ellipse cx="339.9" cy="504.58" rx="0.21" ry="0.26" transform="translate(-314.05 409.87) rotate(-47.52)"/><path d="M344,504.58a.18.18,0,0,1-.19.23.28.28,0,0,1-.27-.23.19.19,0,0,1,.19-.24A.29.29,0,0,1,344,504.58Z" transform="translate(-52.27 -4.62)"/><ellipse cx="347.62" cy="504.58" rx="0.21" ry="0.26" transform="translate(-311.54 415.56) rotate(-47.52)"/><path d="M321.71,509.54a.18.18,0,0,1-.19.23.28.28,0,0,1-.27-.23.19.19,0,0,1,.19-.24A.29.29,0,0,1,321.71,509.54Z" transform="translate(-52.27 -4.62)"/><path d="M325.57,509.54a.18.18,0,0,1-.19.23.28.28,0,0,1-.27-.23.19.19,0,0,1,.19-.24A.29.29,0,0,1,325.57,509.54Z" transform="translate(-52.27 -4.62)"/><ellipse cx="329.2" cy="509.54" rx="0.21" ry="0.26" transform="translate(-321.18 403.59) rotate(-47.52)"/><ellipse cx="333.06" cy="509.54" rx="0.21" ry="0.26" transform="matrix(0.68, -0.74, 0.74, 0.68, -319.93, 406.43)"/><ellipse cx="336.92" cy="509.54" rx="0.21" ry="0.26" transform="translate(-318.68 409.28) rotate(-47.52)"/><ellipse cx="340.78" cy="509.54" rx="0.21" ry="0.26" transform="translate(-317.42 412.12) rotate(-47.52)"/><path d="M344.87,509.54a.19.19,0,0,1-.19.23.29.29,0,0,1-.28-.23.19.19,0,0,1,.19-.24A.3.3,0,0,1,344.87,509.54Z" transform="translate(-52.27 -4.62)"/><path d="M348.41,509.31l-.12.07A.19.19,0,0,1,348.41,509.31Z" transform="translate(-52.27 -4.62)"/></g><path class="cls-14" d="M326.15,489.74a1.53,1.53,0,0,1-1.55,1.87,2.33,2.33,0,0,1-2.2-1.87,1.53,1.53,0,0,1,1.54-1.88A2.33,2.33,0,0,1,326.15,489.74Z" transform="translate(-52.27 -4.62)"/><path class="cls-14" d="M338.66,489.74a1.52,1.52,0,0,1-1.54,1.87,2.33,2.33,0,0,1-2.21-1.87,1.54,1.54,0,0,1,1.55-1.88A2.33,2.33,0,0,1,338.66,489.74Z" transform="translate(-52.27 -4.62)"/><ellipse class="cls-15" cx="324.27" cy="489.74" rx="1.16" ry="1.39" transform="translate(-308.18 393.52) rotate(-47.52)"/><ellipse class="cls-15" cx="336.79" cy="489.74" rx="1.16" ry="1.39" transform="translate(-304.11 402.75) rotate(-47.52)"/><path class="cls-9" d="M336.84,490a.9.9,0,0,1-.85-.71,39.29,39.29,0,0,0-2.26-6.75c-1.19-2.68-3.08-5.88-5.33-5.88-4.16,0-3.87,10.48-3.49,12.63a.58.58,0,0,1-.59.71.89.89,0,0,1-.84-.71c0-.14-1.61-14.06,4.66-14.06,6.08,0,9.26,13.92,9.28,14.06A.58.58,0,0,1,336.84,490Z" transform="translate(-52.27 -4.62)"/><polygon class="cls-12" points="361.45 510.6 316.1 510.6 308.11 465.26 353.45 465.26 361.45 510.6"/><path class="cls-17" d="M401.44,510H378.8c-6.12,0-6-4.9-5.44-10S374.73,487,380.2,487H392c5.47,0,9,7.79,11.39,12.93S407.56,510,401.44,510Z" transform="translate(-52.27 -4.62)"/><g class="cls-13"><path d="M379.6,487.28a.19.19,0,0,1-.19.24.3.3,0,0,1-.28-.24.19.19,0,0,1,.19-.23A.29.29,0,0,1,379.6,487.28Z" transform="translate(-52.27 -4.62)"/><path d="M383.46,487.28a.2.2,0,0,1-.19.24.3.3,0,0,1-.28-.24.19.19,0,0,1,.19-.23A.29.29,0,0,1,383.46,487.28Z" transform="translate(-52.27 -4.62)"/><path d="M387.32,487.28a.2.2,0,0,1-.2.24.3.3,0,0,1-.27-.24.19.19,0,0,1,.19-.23A.3.3,0,0,1,387.32,487.28Z" transform="translate(-52.27 -4.62)"/><path d="M391.18,487.28a.2.2,0,0,1-.2.24.29.29,0,0,1-.27-.24.19.19,0,0,1,.19-.23A.3.3,0,0,1,391.18,487.28Z" transform="translate(-52.27 -4.62)"/><path d="M376.62,492.24a.2.2,0,0,1-.2.24.29.29,0,0,1-.27-.24.18.18,0,0,1,.19-.23A.3.3,0,0,1,376.62,492.24Z" transform="translate(-52.27 -4.62)"/><path d="M380.47,492.24a.19.19,0,0,1-.19.24.29.29,0,0,1-.27-.24.18.18,0,0,1,.19-.23A.28.28,0,0,1,380.47,492.24Z" transform="translate(-52.27 -4.62)"/><path d="M384.33,492.24a.19.19,0,0,1-.19.24.29.29,0,0,1-.27-.24.18.18,0,0,1,.19-.23A.28.28,0,0,1,384.33,492.24Z" transform="translate(-52.27 -4.62)"/><path d="M388.19,492.24a.19.19,0,0,1-.19.24.31.31,0,0,1-.28-.24.19.19,0,0,1,.2-.23A.28.28,0,0,1,388.19,492.24Z" transform="translate(-52.27 -4.62)"/><path d="M392.05,492.24a.19.19,0,0,1-.19.24.31.31,0,0,1-.28-.24.19.19,0,0,1,.2-.23A.28.28,0,0,1,392.05,492.24Z" transform="translate(-52.27 -4.62)"/><path d="M395.91,492.24a.19.19,0,0,1-.19.24.3.3,0,0,1-.28-.24.19.19,0,0,1,.19-.23A.29.29,0,0,1,395.91,492.24Z" transform="translate(-52.27 -4.62)"/><path d="M378.1,489.7a.19.19,0,0,1-.2.23.28.28,0,0,1-.27-.23.19.19,0,0,1,.19-.24A.31.31,0,0,1,378.1,489.7Z" transform="translate(-52.27 -4.62)"/><path d="M382,489.7a.19.19,0,0,1-.2.23.28.28,0,0,1-.27-.23.19.19,0,0,1,.19-.24A.31.31,0,0,1,382,489.7Z" transform="translate(-52.27 -4.62)"/><path d="M385.81,489.7a.18.18,0,0,1-.19.23.28.28,0,0,1-.27-.23.19.19,0,0,1,.19-.24A.29.29,0,0,1,385.81,489.7Z" transform="translate(-52.27 -4.62)"/><path d="M389.67,489.7a.18.18,0,0,1-.19.23.28.28,0,0,1-.27-.23.19.19,0,0,1,.19-.24A.29.29,0,0,1,389.67,489.7Z" transform="translate(-52.27 -4.62)"/><path d="M393.53,489.7a.19.19,0,0,1-.19.23.3.3,0,0,1-.28-.23.2.2,0,0,1,.2-.24A.29.29,0,0,1,393.53,489.7Z" transform="translate(-52.27 -4.62)"/><path d="M397.38,489.81a.18.18,0,0,1-.18.12.3.3,0,0,1-.28-.23.21.21,0,0,1,.13-.23Z" transform="translate(-52.27 -4.62)"/><path d="M377.49,497.2a.19.19,0,0,1-.19.24.3.3,0,0,1-.28-.24.19.19,0,0,1,.19-.23A.29.29,0,0,1,377.49,497.2Z" transform="translate(-52.27 -4.62)"/><path d="M381.35,497.2a.19.19,0,0,1-.19.24.3.3,0,0,1-.28-.24.19.19,0,0,1,.19-.23A.29.29,0,0,1,381.35,497.2Z" transform="translate(-52.27 -4.62)"/><path d="M385.21,497.2a.2.2,0,0,1-.19.24.3.3,0,0,1-.28-.24.19.19,0,0,1,.19-.23A.3.3,0,0,1,385.21,497.2Z" transform="translate(-52.27 -4.62)"/><path d="M389.07,497.2a.2.2,0,0,1-.2.24.29.29,0,0,1-.27-.24.19.19,0,0,1,.19-.23A.3.3,0,0,1,389.07,497.2Z" transform="translate(-52.27 -4.62)"/><path d="M392.93,497.2a.2.2,0,0,1-.2.24.29.29,0,0,1-.27-.24.19.19,0,0,1,.19-.23A.3.3,0,0,1,392.93,497.2Z" transform="translate(-52.27 -4.62)"/><path d="M396.78,497.2a.19.19,0,0,1-.19.24.29.29,0,0,1-.27-.24.18.18,0,0,1,.19-.23A.28.28,0,0,1,396.78,497.2Z" transform="translate(-52.27 -4.62)"/><path d="M400.64,497.2a.19.19,0,0,1-.19.24.29.29,0,0,1-.27-.24.18.18,0,0,1,.19-.23A.28.28,0,0,1,400.64,497.2Z" transform="translate(-52.27 -4.62)"/><ellipse cx="374.88" cy="494.66" rx="0.21" ry="0.26" transform="translate(-295.38 432.44) rotate(-47.52)"/><path d="M379,494.66a.19.19,0,0,1-.19.23.3.3,0,0,1-.28-.23.2.2,0,0,1,.2-.24A.3.3,0,0,1,379,494.66Z" transform="translate(-52.27 -4.62)"/><path d="M382.83,494.66a.19.19,0,0,1-.19.23.29.29,0,0,1-.28-.23.2.2,0,0,1,.19-.24A.3.3,0,0,1,382.83,494.66Z" transform="translate(-52.27 -4.62)"/><path d="M386.69,494.66a.19.19,0,0,1-.19.23.29.29,0,0,1-.28-.23.19.19,0,0,1,.19-.24A.3.3,0,0,1,386.69,494.66Z" transform="translate(-52.27 -4.62)"/><path d="M390.55,494.66a.19.19,0,0,1-.19.23.29.29,0,0,1-.28-.23.19.19,0,0,1,.19-.24A.31.31,0,0,1,390.55,494.66Z" transform="translate(-52.27 -4.62)"/><path d="M394.41,494.66a.19.19,0,0,1-.2.23.28.28,0,0,1-.27-.23.19.19,0,0,1,.19-.24A.31.31,0,0,1,394.41,494.66Z" transform="translate(-52.27 -4.62)"/><path d="M398.27,494.66a.19.19,0,0,1-.2.23.28.28,0,0,1-.27-.23.19.19,0,0,1,.19-.24A.31.31,0,0,1,398.27,494.66Z" transform="translate(-52.27 -4.62)"/><path d="M374.51,502.16a.2.2,0,0,1-.2.24.29.29,0,0,1-.27-.24.18.18,0,0,1,.19-.23A.3.3,0,0,1,374.51,502.16Z" transform="translate(-52.27 -4.62)"/><path d="M378.36,502.16a.19.19,0,0,1-.19.24.29.29,0,0,1-.27-.24.18.18,0,0,1,.19-.23A.28.28,0,0,1,378.36,502.16Z" transform="translate(-52.27 -4.62)"/><path d="M382.22,502.16a.19.19,0,0,1-.19.24.29.29,0,0,1-.27-.24.18.18,0,0,1,.19-.23A.28.28,0,0,1,382.22,502.16Z" transform="translate(-52.27 -4.62)"/><path d="M386.08,502.16a.19.19,0,0,1-.19.24.31.31,0,0,1-.28-.24.19.19,0,0,1,.2-.23A.28.28,0,0,1,386.08,502.16Z" transform="translate(-52.27 -4.62)"/><path d="M389.94,502.16a.19.19,0,0,1-.19.24.31.31,0,0,1-.28-.24.19.19,0,0,1,.2-.23A.28.28,0,0,1,389.94,502.16Z" transform="translate(-52.27 -4.62)"/><path d="M393.8,502.16a.19.19,0,0,1-.19.24.31.31,0,0,1-.28-.24.19.19,0,0,1,.2-.23A.29.29,0,0,1,393.8,502.16Z" transform="translate(-52.27 -4.62)"/><path d="M397.66,502.16a.19.19,0,0,1-.19.24.3.3,0,0,1-.28-.24.19.19,0,0,1,.19-.23A.29.29,0,0,1,397.66,502.16Z" transform="translate(-52.27 -4.62)"/><path d="M401.52,502.16a.2.2,0,0,1-.19.24.3.3,0,0,1-.28-.24.19.19,0,0,1,.19-.23A.29.29,0,0,1,401.52,502.16Z" transform="translate(-52.27 -4.62)"/><ellipse cx="375.75" cy="499.62" rx="0.21" ry="0.26" transform="translate(-298.75 434.7) rotate(-47.52)"/><path d="M379.85,499.62a.19.19,0,0,1-.2.23.28.28,0,0,1-.27-.23.19.19,0,0,1,.19-.24A.31.31,0,0,1,379.85,499.62Z" transform="translate(-52.27 -4.62)"/><path d="M383.7,499.62a.18.18,0,0,1-.19.23.28.28,0,0,1-.27-.23.19.19,0,0,1,.19-.24A.29.29,0,0,1,383.7,499.62Z" transform="translate(-52.27 -4.62)"/><path d="M387.56,499.62a.18.18,0,0,1-.19.23.28.28,0,0,1-.27-.23.19.19,0,0,1,.19-.24A.29.29,0,0,1,387.56,499.62Z" transform="translate(-52.27 -4.62)"/><path d="M391.42,499.62a.18.18,0,0,1-.19.23.3.3,0,0,1-.28-.23.2.2,0,0,1,.2-.24A.29.29,0,0,1,391.42,499.62Z" transform="translate(-52.27 -4.62)"/><path d="M395.28,499.62a.19.19,0,0,1-.19.23.3.3,0,0,1-.28-.23.2.2,0,0,1,.2-.24A.29.29,0,0,1,395.28,499.62Z" transform="translate(-52.27 -4.62)"/><path d="M399.14,499.62a.19.19,0,0,1-.19.23.3.3,0,0,1-.28-.23.2.2,0,0,1,.2-.24A.3.3,0,0,1,399.14,499.62Z" transform="translate(-52.27 -4.62)"/><path d="M403,499.62a.19.19,0,0,1-.19.23.29.29,0,0,1-.28-.23.19.19,0,0,1,.19-.24A.3.3,0,0,1,403,499.62Z" transform="translate(-52.27 -4.62)"/><path d="M375.38,507.12a.19.19,0,0,1-.19.24.31.31,0,0,1-.28-.24.19.19,0,0,1,.19-.23A.29.29,0,0,1,375.38,507.12Z" transform="translate(-52.27 -4.62)"/><ellipse cx="379.01" cy="507.12" rx="0.21" ry="0.26" transform="translate(-303.23 439.53) rotate(-47.52)"/><ellipse cx="382.86" cy="507.12" rx="0.21" ry="0.26" transform="translate(-301.98 442.38) rotate(-47.52)"/><ellipse cx="386.72" cy="507.12" rx="0.21" ry="0.26" transform="translate(-300.72 445.23) rotate(-47.52)"/><ellipse cx="390.58" cy="507.12" rx="0.21" ry="0.26" transform="translate(-299.47 448.07) rotate(-47.52)"/><path d="M394.67,507.12a.19.19,0,0,1-.19.24.29.29,0,0,1-.27-.24.18.18,0,0,1,.19-.23A.28.28,0,0,1,394.67,507.12Z" transform="translate(-52.27 -4.62)"/><ellipse cx="398.3" cy="507.12" rx="0.21" ry="0.26" transform="translate(-296.96 453.76) rotate(-47.52)"/><ellipse cx="402.16" cy="507.12" rx="0.21" ry="0.26" transform="translate(-295.71 456.61) rotate(-47.52)"/><ellipse cx="376.63" cy="504.58" rx="0.21" ry="0.26" transform="translate(-302.13 436.95) rotate(-47.52)"/><path d="M380.72,504.58a.19.19,0,0,1-.19.23.29.29,0,0,1-.28-.23.2.2,0,0,1,.2-.24A.3.3,0,0,1,380.72,504.58Z" transform="translate(-52.27 -4.62)"/><path d="M384.58,504.58a.19.19,0,0,1-.19.23.29.29,0,0,1-.28-.23.19.19,0,0,1,.19-.24A.3.3,0,0,1,384.58,504.58Z" transform="translate(-52.27 -4.62)"/><path d="M388.44,504.58a.19.19,0,0,1-.19.23.29.29,0,0,1-.28-.23.19.19,0,0,1,.19-.24A.3.3,0,0,1,388.44,504.58Z" transform="translate(-52.27 -4.62)"/><path d="M392.3,504.58a.19.19,0,0,1-.2.23.29.29,0,0,1-.27-.23.19.19,0,0,1,.19-.24A.31.31,0,0,1,392.3,504.58Z" transform="translate(-52.27 -4.62)"/><path d="M396.16,504.58a.19.19,0,0,1-.2.23.28.28,0,0,1-.27-.23.19.19,0,0,1,.19-.24A.31.31,0,0,1,396.16,504.58Z" transform="translate(-52.27 -4.62)"/><path d="M400,504.58a.18.18,0,0,1-.19.23.28.28,0,0,1-.27-.23.19.19,0,0,1,.19-.24A.29.29,0,0,1,400,504.58Z" transform="translate(-52.27 -4.62)"/><path d="M403.87,504.58a.18.18,0,0,1-.19.23.28.28,0,0,1-.27-.23.19.19,0,0,1,.19-.24A.29.29,0,0,1,403.87,504.58Z" transform="translate(-52.27 -4.62)"/><ellipse cx="377.5" cy="509.54" rx="0.21" ry="0.26" transform="translate(-305.5 439.21) rotate(-47.52)"/><path d="M381.59,509.54a.18.18,0,0,1-.19.23.28.28,0,0,1-.27-.23.19.19,0,0,1,.19-.24A.29.29,0,0,1,381.59,509.54Z" transform="translate(-52.27 -4.62)"/><path d="M385.45,509.54a.18.18,0,0,1-.19.23.28.28,0,0,1-.27-.23.19.19,0,0,1,.19-.24A.29.29,0,0,1,385.45,509.54Z" transform="translate(-52.27 -4.62)"/><path d="M389.31,509.54a.18.18,0,0,1-.19.23.3.3,0,0,1-.28-.23.2.2,0,0,1,.2-.24A.29.29,0,0,1,389.31,509.54Z" transform="translate(-52.27 -4.62)"/><path d="M393.17,509.54a.19.19,0,0,1-.19.23.3.3,0,0,1-.28-.23.2.2,0,0,1,.2-.24A.29.29,0,0,1,393.17,509.54Z" transform="translate(-52.27 -4.62)"/><path d="M397,509.54a.19.19,0,0,1-.19.23.3.3,0,0,1-.28-.23.2.2,0,0,1,.2-.24A.3.3,0,0,1,397,509.54Z" transform="translate(-52.27 -4.62)"/><path d="M400.89,509.54a.19.19,0,0,1-.19.23.29.29,0,0,1-.28-.23.2.2,0,0,1,.19-.24A.3.3,0,0,1,400.89,509.54Z" transform="translate(-52.27 -4.62)"/><path d="M404.43,509.31l-.12.07A.19.19,0,0,1,404.43,509.31Z" transform="translate(-52.27 -4.62)"/></g><path class="cls-14" d="M382.17,489.74a1.53,1.53,0,0,1-1.54,1.87,2.33,2.33,0,0,1-2.21-1.87,1.53,1.53,0,0,1,1.54-1.88A2.33,2.33,0,0,1,382.17,489.74Z" transform="translate(-52.27 -4.62)"/><path class="cls-14" d="M394.68,489.74a1.52,1.52,0,0,1-1.54,1.87,2.33,2.33,0,0,1-2.21-1.87,1.54,1.54,0,0,1,1.55-1.88A2.33,2.33,0,0,1,394.68,489.74Z" transform="translate(-52.27 -4.62)"/><ellipse class="cls-15" cx="380.29" cy="489.74" rx="1.16" ry="1.39" transform="translate(-289.99 434.84) rotate(-47.52)"/><ellipse class="cls-15" cx="392.81" cy="489.74" rx="1.16" ry="1.39" transform="translate(-285.93 444.07) rotate(-47.52)"/><path class="cls-17" d="M392.86,490a.9.9,0,0,1-.85-.71,39.29,39.29,0,0,0-2.26-6.75c-1.19-2.68-3.08-5.88-5.33-5.88-4.16,0-3.87,10.48-3.49,12.63a.58.58,0,0,1-.59.71.89.89,0,0,1-.84-.71c0-.14-1.61-14.06,4.66-14.06,6.09,0,9.26,13.92,9.29,14.06A.58.58,0,0,1,392.86,490Z" transform="translate(-52.27 -4.62)"/><path class="cls-18" d="M512.68,335.87,705.56,248.2a14.29,14.29,0,0,0,7.1-18.93l-49.41-108.7a14.3,14.3,0,0,0-18.94-7.1L451.44,201.14a14.3,14.3,0,0,0-7.1,18.94l49.4,108.69A14.3,14.3,0,0,0,512.68,335.87Z" transform="translate(-52.27 -4.62)"/><rect class="cls-19" x="450.7" y="185.61" width="235.86" height="37.69" transform="translate(1118.63 150.66) rotate(155.56)"/><path class="cls-20" d="M617.74,246.81l74.93-34.06a1.89,1.89,0,0,0,.94-2.51l-.23-.51a1.88,1.88,0,0,0-2.51-.94l-74.93,34.06a1.89,1.89,0,0,0-1,2.51l.24.51A1.9,1.9,0,0,0,617.74,246.81Z" transform="translate(-52.27 -4.62)"/><path class="cls-20" d="M635.29,250.61l61.82-28.1a1.9,1.9,0,0,0,.94-2.51l-.23-.51a1.9,1.9,0,0,0-2.52-.94l-61.81,28.09a1.89,1.89,0,0,0-.94,2.52l.23.51A1.9,1.9,0,0,0,635.29,250.61Z" transform="translate(-52.27 -4.62)"/><path class="cls-20" d="M626.61,266.33l74.93-34.06a1.88,1.88,0,0,0,.94-2.51l-.23-.51a1.89,1.89,0,0,0-2.51-.94l-74.93,34.06a1.89,1.89,0,0,0-.94,2.51l.23.51A1.9,1.9,0,0,0,626.61,266.33Z" transform="translate(-52.27 -4.62)"/><path class="cls-20" d="M522.72,313.55l23.56-10.71a8.32,8.32,0,0,0,4.14-11l-3.78-8.31a8.32,8.32,0,0,0-11-4.14l-23.56,10.71a8.32,8.32,0,0,0-4.14,11l3.78,8.31A8.32,8.32,0,0,0,522.72,313.55Z" transform="translate(-52.27 -4.62)"/><path class="cls-21" d="M567.54,92.19,567.88,222a13.15,13.15,0,0,1-13.1,13.18l-205.84.53a13.14,13.14,0,0,1-13.16-13.11l-.33-129.78a12.22,12.22,0,0,1,12.19-12.25L555.28,80A12.22,12.22,0,0,1,567.54,92.19Z" transform="translate(-52.27 -4.62)"/><path class="cls-17" d="M534.38,203.77a12.09,12.09,0,1,1-12.12-12.05A12.09,12.09,0,0,1,534.38,203.77Z" transform="translate(-52.27 -4.62)"/><path class="cls-9" d="M549.25,203.73a12.08,12.08,0,1,1-12.11-12A12.08,12.08,0,0,1,549.25,203.73Z" transform="translate(-52.27 -4.62)"/><rect class="cls-9" x="355.02" y="102.75" width="43.57" height="30.11" rx="2.68" transform="translate(-52.58 -3.64) rotate(-0.15)"/><path class="cls-8" d="M540.77,118.84l-19.71,0a8.27,8.27,0,0,1-8.28-8.24h0a8.27,8.27,0,0,1,8.24-8.28l19.71-.05a8.26,8.26,0,0,1,8.28,8.24h0A8.27,8.27,0,0,1,540.77,118.84Z" transform="translate(-52.27 -4.62)"/><path class="cls-22" d="M353.53,160.37l-1.79,1a.38.38,0,0,1-.21.07.44.44,0,0,1-.38-.21.42.42,0,0,1,.16-.6l2.43-1.49a.47.47,0,0,1,.6.17.51.51,0,0,1,.05.32l0,11.61a.42.42,0,0,1-.43.43.44.44,0,0,1-.44-.43Z" transform="translate(-52.27 -4.62)"/><path class="cls-22" d="M357.52,170.94l5.89-5.34a3.3,3.3,0,0,0,1.08-2.42,3.18,3.18,0,0,0-.86-2.17,3.22,3.22,0,0,0-2.4-1.06,3.29,3.29,0,0,0-2.2.84l-.61.56a.42.42,0,0,1-.62,0,.41.41,0,0,1,0-.61l.61-.58a4.23,4.23,0,0,1,2.8-1.07,4,4,0,0,1,3,1.34,4.06,4.06,0,0,1,1.1,2.76,4.2,4.2,0,0,1-1.35,3.08l-5,4.58,6,0a.45.45,0,0,1,0,.89h-7.11a.36.36,0,0,1-.32-.12A.47.47,0,0,1,357.52,170.94Z" transform="translate(-52.27 -4.62)"/><path class="cls-22" d="M375.79,159.82l-3.26,3.37a4.27,4.27,0,0,1,2.17,7.22,4.3,4.3,0,0,1-3,1.27,4.23,4.23,0,0,1-3-1.26.45.45,0,0,1,.63-.63,3.39,3.39,0,0,0,5.78-2.42,3.35,3.35,0,0,0-1-2.38,3.31,3.31,0,0,0-2.39-1,.5.5,0,0,1-.36-.18h0a.46.46,0,0,1,0-.65l3.13-3.24h-4.84a.45.45,0,0,1,0-.9l5.9,0a.45.45,0,0,1,.46.45.34.34,0,0,1-.06.2A.26.26,0,0,1,375.79,159.82Z" transform="translate(-52.27 -4.62)"/><path class="cls-22" d="M386.43,169l-6.85,0h-.05a.38.38,0,0,1-.27-.09.42.42,0,0,1-.06-.62l7.29-9.11,0,0a.41.41,0,0,1,.61-.06.62.62,0,0,1,.15.22s0,.05,0,.07v.05l0,8.67h.85a.44.44,0,0,1,.45.43.45.45,0,0,1-.45.44h-.85v2.17a.45.45,0,0,1-.89,0Zm0-.87v-7.4l-6,7.42Z" transform="translate(-52.27 -4.62)"/><path class="cls-22" d="M402.27,170.35a.44.44,0,0,1,0-.63.46.46,0,0,1,.65,0,3.4,3.4,0,0,0,2.39,1,3.4,3.4,0,0,0,3.37-3.39,3.37,3.37,0,0,0-5.77-2.36.43.43,0,0,1-.63,0,.33.33,0,0,1-.11-.15v0s0,0,0-.05a.61.61,0,0,1,0-.14s0-.06,0-.09l.6-5.1a.39.39,0,0,1,.18-.32.44.44,0,0,1,.29-.11l5.89,0a.46.46,0,0,1,0,.91h-5.51l-.44,3.76a4.37,4.37,0,0,1,2.15-.59,4.22,4.22,0,0,1,3,1.24,4.16,4.16,0,0,1,1.25,3,4.26,4.26,0,0,1-1.24,3,4.38,4.38,0,0,1-3,1.25A4.27,4.27,0,0,1,402.27,170.35Z" transform="translate(-52.27 -4.62)"/><path class="cls-22" d="M414.28,161.69a5.12,5.12,0,0,1,4.42-2.75.44.44,0,0,1,.45.41.48.48,0,0,1-.43.47,4.29,4.29,0,0,0-3.68,2.3,8.36,8.36,0,0,0-.9,2.53,4.16,4.16,0,1,1-1,2.89,7.49,7.49,0,0,1,0-.83A10.42,10.42,0,0,1,414.28,161.69Zm-.29,5.78a1.43,1.43,0,0,0,0,.23.45.45,0,0,1,0,.13,3.36,3.36,0,1,0,0-.43Z" transform="translate(-52.27 -4.62)"/><path class="cls-22" d="M426.07,170.92l4.65-11.09h-6.11a.43.43,0,0,1,0-.86l6.68,0a.5.5,0,0,1,.27,0,.57.57,0,0,1,.24.27.44.44,0,0,1,0,.15.32.32,0,0,1-.07.23l-4.86,11.64a.44.44,0,0,1-.4.28.3.3,0,0,1-.18,0A.48.48,0,0,1,426.07,170.92Z" transform="translate(-52.27 -4.62)"/><path class="cls-22" d="M438.52,158.87a2.62,2.62,0,0,1,1.57,4.74,4.09,4.09,0,1,1-3.12,0,2.65,2.65,0,0,1-1.06-2.13A2.61,2.61,0,0,1,438.52,158.87Zm0,11.77a3.24,3.24,0,1,0-3.24-3.23A3.22,3.22,0,0,0,438.55,170.64Zm0-7.37a1.8,1.8,0,0,0,1.76-1.79,1.76,1.76,0,0,0-3.52,0A1.78,1.78,0,0,0,438.54,163.27Z" transform="translate(-52.27 -4.62)"/><path class="cls-22" d="M461,158.81a4.15,4.15,0,0,1,4.16,3.67.32.32,0,0,1,0,.09c0,.34,0,.7,0,1.08a10.45,10.45,0,0,1-1.19,5,5.22,5.22,0,0,1-4.42,2.76h0a.43.43,0,0,1-.45-.41.45.45,0,0,1,.43-.47,4.3,4.3,0,0,0,3.68-2.31,8,8,0,0,0,.9-2.53,4.17,4.17,0,1,1-3.16-6.92ZM464.3,163a3.3,3.3,0,1,0-3.29,3.3A3.28,3.28,0,0,0,464.3,163Z" transform="translate(-52.27 -4.62)"/><path class="cls-22" d="M468.4,165.11a8,8,0,0,1,1.2-4.43,3.57,3.57,0,0,1,6.31,0,8.55,8.55,0,0,1,0,8.82,3.56,3.56,0,0,1-6.32,0A7.88,7.88,0,0,1,468.4,165.11Zm.88,0a7.22,7.22,0,0,0,1.08,3.91,3,3,0,0,0,2.42,1.51A3.07,3.07,0,0,0,475.2,169a7.28,7.28,0,0,0,1.07-3.92,7.2,7.2,0,0,0-1.09-3.92,3,3,0,0,0-2.43-1.51,2.94,2.94,0,0,0-2.41,1.52A7.2,7.2,0,0,0,469.28,165.11Z" transform="translate(-52.27 -4.62)"/><path class="cls-22" d="M483,160l-1.78,1.06a.57.57,0,0,1-.22.07.44.44,0,0,1-.38-.22.41.41,0,0,1,.16-.59l2.44-1.49a.45.45,0,0,1,.59.16.56.56,0,0,1,.06.33l0,11.6a.43.43,0,0,1-.43.44A.44.44,0,0,1,483,171Z" transform="translate(-52.27 -4.62)"/><path class="cls-22" d="M487,170.6l5.89-5.34a3.24,3.24,0,0,0,.22-4.59,3.19,3.19,0,0,0-2.4-1,3.27,3.27,0,0,0-2.2.83l-.62.56a.41.41,0,0,1-.61,0,.42.42,0,0,1,0-.62l.61-.58a4.24,4.24,0,0,1,2.79-1.07,4.16,4.16,0,0,1,4.13,4.11,4.15,4.15,0,0,1-1.34,3.07l-5.05,4.58h6a.44.44,0,0,1,0,.88l-7,0h-.07a.42.42,0,0,1-.33-.13A.48.48,0,0,1,487,170.6Z" transform="translate(-52.27 -4.62)"/><path class="cls-22" d="M516.08,159.46l-3.26,3.37a4.29,4.29,0,0,1-.87,8.48,4.14,4.14,0,0,1-3-1.25.43.43,0,0,1,0-.63.43.43,0,0,1,.63,0,3.39,3.39,0,0,0,2.39,1,3.43,3.43,0,0,0,2.4-1,3.37,3.37,0,0,0,0-4.78,3.32,3.32,0,0,0-2.39-1,.47.47,0,0,1-.36-.18h0a.46.46,0,0,1,0-.65l3.13-3.24h-4.84a.44.44,0,0,1-.45-.45.45.45,0,0,1,.45-.45h5.91a.44.44,0,0,1,.45.45.36.36,0,0,1-.06.2A.39.39,0,0,1,516.08,159.46Z" transform="translate(-52.27 -4.62)"/><path class="cls-22" d="M526.71,168.68h-6.9a.34.34,0,0,1-.27-.09.41.41,0,0,1-.06-.61l7.29-9.12,0,0a.42.42,0,0,1,.61,0,.51.51,0,0,1,.15.21s0,.06,0,.08v0l0,8.67h.85a.43.43,0,0,1,.45.43.44.44,0,0,1-.45.43h-.85v2.17a.45.45,0,0,1-.45.44.44.44,0,0,1-.44-.44Zm0-.87v-7.4l-6,7.41Z" transform="translate(-52.27 -4.62)"/><path class="cls-22" d="M531.72,170a.43.43,0,0,1,0-.63.45.45,0,0,1,.65,0,3.38,3.38,0,0,0,4.77,0,3.32,3.32,0,0,0,1-2.38,3.33,3.33,0,0,0-3.36-3.37,3.32,3.32,0,0,0-2.4,1,.43.43,0,0,1-.63,0,.29.29,0,0,1-.11-.14v0a.06.06,0,0,1,0-.05.36.36,0,0,1,0-.15.64.64,0,0,0,0-.09l.6-5.09a.37.37,0,0,1,.18-.33.42.42,0,0,1,.29-.11h5.88a.44.44,0,0,1,.46.45.44.44,0,0,1-.45.45h-5.51l-.44,3.76a4.24,4.24,0,0,1,2.14-.58,4.15,4.15,0,0,1,3,1.24,4.3,4.3,0,0,1,0,6.06,4.41,4.41,0,0,1-3,1.26A4.29,4.29,0,0,1,531.72,170Z" transform="translate(-52.27 -4.62)"/><path class="cls-22" d="M543.74,161.36a5.12,5.12,0,0,1,4.41-2.76.43.43,0,0,1,.45.41.47.47,0,0,1-.43.48,4.25,4.25,0,0,0-3.67,2.3,8,8,0,0,0-.9,2.53,4.15,4.15,0,1,1-1,2.89,5.63,5.63,0,0,1,0-.83A10.29,10.29,0,0,1,543.74,161.36Zm-.3,5.77a.8.8,0,0,0,0,.24.27.27,0,0,1,0,.13,3.36,3.36,0,1,0,0-.44Z" transform="translate(-52.27 -4.62)"/><rect class="cls-20" x="355.22" y="193.26" width="110.22" height="5.42" transform="translate(-52.78 -3.56) rotate(-0.15)"/><rect class="cls-20" x="355.25" y="205.33" width="78.03" height="5.42" transform="translate(-52.81 -3.6) rotate(-0.15)"/><rect class="cls-22" x="298.81" y="153.88" width="204.07" height="13.35"/><path class="cls-23" d="M162.24,701.92l-7.83.61a24.2,24.2,0,0,1-6.07-.25l-31-5-.5-.08-36.06-5.89h-.22l-28.26-4.58v-159l28.43,0h0l36.06,1.79.53.27L161,531.42Z" transform="translate(-52.27 -4.62)"/><path class="cls-24" d="M272,537.82V686.2a9.92,9.92,0,0,1-9.35,10l-103.48,6.16a7.47,7.47,0,0,1-7.76-7.55V540.19a8,8,0,0,1,7.59-8l104.23-2.9A8.5,8.5,0,0,1,272,537.82Z" transform="translate(-52.27 -4.62)"/><polygon class="cls-25" points="0.22 523.08 99.09 527.76 210.91 524.64 96.27 520.91 0.22 523.08"/><path class="cls-25" d="M261.1,529.27l-99.26,2.27c-5.65.13-10.26,4.05-10.26,8.79a50.27,50.27,0,0,0,5.86,24c14.13,26.32,45.72,27.29,52.29,51.45,5.48,20.13-13.92,28.79-16,54.51a57.16,57.16,0,0,0,2.61,21.82c1.29,4.11,5.93,6.9,11,6.65L262,696.09c5.61-.27,9.94-4.06,9.94-8.7V538C272,533,267.08,529.13,261.1,529.27Z" transform="translate(-52.27 -4.62)"/><polygon class="cls-26" points="135.36 696 173.73 693.71 173.73 525.68 135.36 526.75 135.36 696"/><polygon class="cls-27" points="135.95 695.89 173.73 693.71 173.73 525.68 135.95 526.7 135.95 695.89"/><polygon class="cls-28" points="64.02 525.36 64.02 692.6 28.87 686.64 28.87 524.41 40.07 524.2 64.02 525.36"/><polygon class="cls-28" points="67.62 521.55 174.58 527.63 136.13 527.63 42.62 522.12 67.62 521.55"/><polygon class="cls-28" points="102.05 524.7 64.53 526.12 28.43 524.41 40.1 524.2 91.22 523.29 102.05 524.7"/><path class="cls-29" d="M62.29,592.86l8.15-62a6.74,6.74,0,0,1,7.07-5.77l25.72,1.49,55.58,3.21c-4.84.41-5.46,4.29-5.46,4.29l-8.95,68-5.2-6.28-3.52,2.8-1.47,1.16-4-4.91-4.91,4-4-4.91-4.91,4-4-4.91-4.91,4-4-4.91-4.91,4-4-4.91-4.91,4-4-4.91-4.9,4-4-4.91-4.91,4-4.06-4.92Z" transform="translate(-52.27 -4.62)"/><path class="cls-30" d="M76.3,558.08l10,.86a1.26,1.26,0,0,0,1.36-1.09l.6-4.56a1.26,1.26,0,0,0-1.16-1.43l-10-.74a1.26,1.26,0,0,0-1.34,1.09l-.59,4.45A1.27,1.27,0,0,0,76.3,558.08Z" transform="translate(-52.27 -4.62)"/><path class="cls-30" d="M77.47,549.27l10,.75a1.27,1.27,0,0,0,1.35-1.1l.62-4.76a1.26,1.26,0,0,0-1.16-1.42l-10-.68a1.27,1.27,0,0,0-1.34,1.1l-.62,4.69A1.27,1.27,0,0,0,77.47,549.27Z" transform="translate(-52.27 -4.62)"/><path class="cls-30" d="M73.33,570.55l-1.08,8.16a1.26,1.26,0,0,0,1.13,1.42l10,1A1.27,1.27,0,0,0,84.74,580l1.08-8.25a1.25,1.25,0,0,0-1.14-1.42l-10-.86A1.25,1.25,0,0,0,73.33,570.55Z" transform="translate(-52.27 -4.62)"/><path class="cls-30" d="M97.06,559.87l40.7,3.49a1.26,1.26,0,0,0,1.36-1.09l.68-5.14a1.27,1.27,0,0,0-1.16-1.42l-40.76-3a1.25,1.25,0,0,0-1.34,1.09l-.62,4.68A1.27,1.27,0,0,0,97.06,559.87Z" transform="translate(-52.27 -4.62)"/><path class="cls-30" d="M98.27,550.82l40.76,3a1.26,1.26,0,0,0,1.34-1.09l.68-5.14a1.27,1.27,0,0,0-1.17-1.43l-40.8-2.74a1.27,1.27,0,0,0-1.33,1.1l-.64,4.84A1.26,1.26,0,0,0,98.27,550.82Z" transform="translate(-52.27 -4.62)"/><path class="cls-30" d="M94.09,572.33,93,580.68a1.26,1.26,0,0,0,1.13,1.42L134.78,586a1.27,1.27,0,0,0,1.37-1.09l1.14-8.72a1.25,1.25,0,0,0-1.14-1.42l-40.7-3.5A1.26,1.26,0,0,0,94.09,572.33Z" transform="translate(-52.27 -4.62)"/><path class="cls-31" d="M103.28,526.59l55.56,3.22c-4.85.4-5.49,4.28-5.49,4.28l-8.95,68-5.2-6.28-3.52,2.8c-2.28-2.68-3.86-6.72-3.65-12.75.68-20.07-8.78-20-19.64-22.18S98.15,548.2,103.87,539A10.37,10.37,0,0,0,103.28,526.59Z" transform="translate(-52.27 -4.62)"/><path class="cls-32" d="M152.21,519.74c2.49-15.26,4.31-26.41,14.28-36.71,4.2-4.34,8.79-9.08,16.31-10.34,8.65-1.45,19.7,2,22.72,9,2.88,6.71-3.89,11.08-1,18.79s11.32,7.58,12.24,13.84c.78,5.29-4.39,11.31-9.61,14.12-9,4.87-14.14-2-31.76-.87-12.14.76-19.14,4.61-22.43.73C151.38,526.48,151.53,523.92,152.21,519.74Z" transform="translate(-52.27 -4.62)"/><g class="cls-33"><path class="cls-34" d="M200.42,513.76c-10.87-4.16-16.44-13.21-21.26-11.07-4.28,1.91-1.67,9.85-6.7,16.32-4.6,5.9-13,7.31-20.51,7.31a4.93,4.93,0,0,0,1,2c3.29,3.88,10.29,0,22.43-.73,17.62-1.11,22.74,5.74,31.76.87,4.79-2.58,9.52-7.85,9.67-12.8A35,35,0,0,1,200.42,513.76Z" transform="translate(-52.27 -4.62)"/></g><path class="cls-35" d="M86.52,482c7.32-5.77,15,.67,24-5.68s6.47-16.74,13.54-19.66c8.22-3.4,20.39,7,26.22,13.54,14.8,16.71,21.75,46.37,10.05,56.81-4.39,3.91-16.82,2.3-41.5-1.09-28.21-3.87-32.27-6.64-35-10.27C76.63,505.87,78.24,488.55,86.52,482Z" transform="translate(-52.27 -4.62)"/><path class="cls-28" d="M132.84,494.54c-4.06-1.29-5.92,3.37-14.27,5.24-1.54.34-16.27,3.42-24.18-5.83A20.05,20.05,0,0,1,90,480.12,11.71,11.71,0,0,0,86.52,482c-8.28,6.54-9.89,23.86-2.62,33.65,2.7,3.63,6.76,6.4,35,10.27,24.68,3.39,37.11,5,41.5,1.09a14.84,14.84,0,0,0,1.62-1.74c-5.93-.19-12.14-1.62-16.62-6C136.71,510.89,139.75,496.72,132.84,494.54Z" transform="translate(-52.27 -4.62)"/><rect class="cls-25" x="482.62" y="486.78" width="184.32" height="123.37"/><rect class="cls-36" x="602.86" y="486.78" width="64.08" height="123.37"/><rect class="cls-8" x="629.55" y="486.95" width="14.63" height="25.02"/><rect class="cls-8" x="627.95" y="585.13" width="14.63" height="25.02"/><path class="cls-15" d="M587.65,614.51c-.17,0-.3-27.65-.3-61.75s.13-61.76.3-61.76.3,27.65.3,61.76S587.81,614.51,587.65,614.51Z" transform="translate(-52.27 -4.62)"/><path class="cls-37" d="M587.87,481.22h0a3.64,3.64,0,0,0,3.5-3.82,142,142,0,0,0-6.9-36.34c-9.26-27.17-26.31-42.37-49.32-44a45.23,45.23,0,0,0-33.67,11.08c-21.69,18.61-28.16,54.74-29.72,66.41a3.41,3.41,0,0,0,3.17,3.89h0a3.63,3.63,0,0,0,3.81-3.13c1.5-10.82,7.69-45.11,27.23-61.87a38.29,38.29,0,0,1,28.5-9.33c20.32,1.4,34.9,14.64,43.32,39.36A136.39,136.39,0,0,1,584.33,478,3.41,3.41,0,0,0,587.87,481.22Z" transform="translate(-52.27 -4.62)"/><polygon class="cls-38" points="556.52 459.66 582.59 645.11 564.78 659.87 417.51 459.66 556.52 459.66"/><polygon class="cls-39" points="538.71 462.24 564.78 659.87 371.54 659.87 399.69 462.24 538.71 462.24"/><polygon class="cls-40" points="538.71 462.24 456.73 553.38 371.54 659.87 399.69 462.24 538.71 462.24"/><text class="cls-41" transform="translate(428.41 584.72)">A&amp;Z</text><path class="cls-26" d="M579.87,482.22h0a3.64,3.64,0,0,0,3.5-3.82,142,142,0,0,0-6.9-36.34c-9.26-27.17-26.31-42.37-49.32-44a45.23,45.23,0,0,0-33.67,11.08c-21.69,18.61-28.16,54.74-29.72,66.41a3.41,3.41,0,0,0,3.17,3.89h0a3.63,3.63,0,0,0,3.81-3.13c1.5-10.82,7.69-45.11,27.23-61.87a38.29,38.29,0,0,1,28.5-9.33c20.32,1.4,34.9,14.64,43.32,39.36A136.39,136.39,0,0,1,576.33,479,3.41,3.41,0,0,0,579.87,482.22Z" transform="translate(-52.27 -4.62)"/><path class="cls-42" d="M406.08,562.31l31.75-68.5a3.79,3.79,0,0,1,3.63-2.24l31.44,1.5a4.45,4.45,0,0,1,3.92,5.53l-20,79.74a3.81,3.81,0,0,1-4.82,2.83l-43.19-12.75A4.49,4.49,0,0,1,406.08,562.31Zm45.59-53.94c2.17.58,4.44-1.53,5.07-4.71s-.62-6.23-2.79-6.81-4.44,1.53-5.07,4.71S449.5,507.79,451.67,508.37Z" transform="translate(-52.27 -4.62)"/><path class="cls-43" d="M460.82,478.61c1.88-4.19,10.48-8.53,13.49-11.33l-.88-.4c-3,2.82-11.53,7.18-13.41,11.37A36.2,36.2,0,0,0,457,491.84a.44.44,0,0,0,.42.46.48.48,0,0,0,.18,0,.42.42,0,0,0,.28-.4A35.66,35.66,0,0,1,460.82,478.61Z" transform="translate(-52.27 -4.62)"/><path class="cls-43" d="M456.44,501.43c-.05,0-4.84-2.2-6.6-6.88-1.08-2.87-.82-6.1.79-9.59,2.2-4.8,8.05-11.39,14.79-18.24-.25-.17-.49-.35-.72-.53-6.76,6.88-12.63,13.51-14.88,18.4-1.71,3.72-2,7.18-.81,10.28a14.41,14.41,0,0,0,7.07,7.37.45.45,0,0,0,.34,0,.43.43,0,0,0,.25-.23A.44.44,0,0,0,456.44,501.43Z" transform="translate(-52.27 -4.62)"/><path class="cls-8" d="M406.08,562.31l31.75-68.5a3.79,3.79,0,0,1,3.63-2.24l2.8.14a37.1,37.1,0,0,1-.14,8.63c-2.25,16.53-14.72,20.6-13.93,31.17.7,9.37,10.83,10.68,16.43,22.07,2.8,5.69,4.53,14,1.51,26.45l-39.32-11.61A4.49,4.49,0,0,1,406.08,562.31Z" transform="translate(-52.27 -4.62)"/><path class="cls-30" d="M445,528.28c-1,5.63,1,9.2,3.78,9.9s5.81-1.75,6.73-6.8c.87-4.8-.57-9-3.87-9.79S445.85,523.68,445,528.28Zm7.18,2.1c-.51,2.81-1.56,4.67-2.86,4.34s-1.57-2.29-1-5.32c.49-2.73,1.41-4.7,2.81-4.36S452.69,527.69,452.2,530.38Zm-5.69,19-6-30.59-2.43-.6,6,30.59ZM429.09,536c-1,5.63,1,9.2,3.79,9.9s5.78-1.75,6.73-6.8c.87-4.8-.58-9-3.87-9.79S429.93,531.38,429.09,536Zm7.16,2.09c-.48,2.82-1.53,4.68-2.84,4.35s-1.57-2.29-1-5.31c.5-2.74,1.39-4.72,2.78-4.37S436.74,535.38,436.25,538.07Z" transform="translate(-52.27 -4.62)"/></g></g></svg>