<svg xmlns="http://www.w3.org/2000/svg" viewBox="0 0 291.26 129.78"><defs><style>.cls-1{opacity:0.41;}.cls-13,.cls-2,.cls-3{fill:#c5d9ff;}.cls-3{opacity:0.31;}.cls-4{opacity:0.22;}.cls-5,.cls-6{fill:#c7d7ef;}.cls-6{opacity:0.78;}.cls-15,.cls-7{fill:#243762;}.cls-18,.cls-8{fill:#ecf1f7;}.cls-9{fill:#a3bfce;}.cls-10{fill:#fff;}.cls-11{fill:#af9cda;opacity:0.33;}.cls-12{fill:#8d9daa;opacity:0.5;}.cls-13{opacity:0.8;}.cls-14{fill:#a28eaf;}.cls-15{opacity:0.29;}.cls-16{fill:#f7a9b4;}.cls-17{fill:#81708e;}.cls-18{opacity:0.35;}.cls-19{fill:#e3e4e5;}.cls-20{font-size:20.03px;fill:#240f3a;font-family:Poppins-SemiBold, Poppins;font-weight:600;}.cls-21{font-size:12.93px;fill:#1975ba;font-family:Poppins-Italic, Poppins;font-style:italic;}</style></defs><g id="DESIGNED_BY_FREEPIK" data-name="DESIGNED BY FREEPIK"><g class="cls-1"><path class="cls-2" d="M37.52,52.24a36.34,36.34,0,0,0-.76,7.36c0,11.63,5.61,23.37,15,32.39,3.35,3.22,7.25,6.23,9.18,10.14,3.26,6.58,3.91,12.58,6.24,20.11,1.66,5.35,5.55,9.59,19,15.83,23.64,11,60.2,3.71,60.46-21.45,0-.09,0-.22,0-.38.29-5.2,1.33-85.56-36.2-99.19C91,10,67.62,17.84,52.64,29A39.18,39.18,0,0,0,37.52,52.24Z" transform="translate(-30.41 -13.25)"/></g><circle class="cls-3" cx="151.4" cy="24.62" r="4.9" transform="translate(62.1 153) rotate(-76.66)"/><circle class="cls-3" cx="43.75" cy="18.93" r="5.68" transform="translate(-30.98 23.23) rotate(-45)"/><circle class="cls-3" cx="9.51" cy="96.23" r="9.51"/><g class="cls-4"><path class="cls-5" d="M45.65,56.67A32,32,0,0,0,45,63.28c0,10.45,5,21,13.47,29.11,3,2.89,6.51,5.6,8.24,9.11,2.93,5.91,1.79,12.1,5.61,18.06a39,39,0,0,0,17.06,14.23c21.43,9.45,54.08,3.33,54.32-19.27,0-.08,0-.2,0-.35.26-4.67,1.2-76.87-32.51-89.12-17.45-6.34-38.48.72-51.94,10.75A35.16,35.16,0,0,0,45.65,56.67Z" transform="translate(-30.41 -13.25)"/></g><circle class="cls-3" cx="174.56" cy="126.59" r="5.06" transform="translate(-19.29 253.98) rotate(-76.66)"/><circle class="cls-3" cx="242.97" cy="97.78" r="9.81"/></g><g id="OBJECTS"><path class="cls-6" d="M116.63,121.62l-23.31,9.45a12.21,12.21,0,0,1-10.74-.6c-8.67-5-5.42-17.26-17.9-37a12.13,12.13,0,0,0-1.62-2s-9-19.74-9.59-21.78c-5-17.35-1.87-14.88,1.27-16.18L87.19,38.7c3-1.26-.7-1.05,5.84,6.91C94.39,47.26,102.52,69.2,104.5,70l9-16.48c4.19,1.71,30.16,4.91,30.76,9.4l6.83,51.65c1.4,3.39-16-5.34-32.22,5.83A11.92,11.92,0,0,1,116.63,121.62Z" transform="translate(-30.41 -13.25)"/><rect class="cls-7" x="67.07" y="41.56" width="40.85" height="82.15" rx="5.93" transform="translate(-55.35 26.47) rotate(-22.47)"/><rect class="cls-8" x="69.19" y="48.7" width="35.99" height="66.37" transform="translate(-55.09 26.3) rotate(-22.47)"/><rect class="cls-9" x="57.46" y="51.03" width="35.99" height="4.98" transform="translate(-45.14 19.66) rotate(-22.47)"/><path class="cls-8" d="M102.64,118.35l-.3.16a2.38,2.38,0,0,1-1.78,0,2.32,2.32,0,0,1-1.26-1.26,2.29,2.29,0,0,1,0-1.78,2.36,2.36,0,0,1,1.26-1.26,2.38,2.38,0,0,1,1.78,0,2.33,2.33,0,0,1,.3,4.14Zm-2.19-3.65a1.92,1.92,0,0,0-.79.92,1.9,1.9,0,0,0,0,1.48,1.93,1.93,0,0,0,1,1.05,1.9,1.9,0,0,0,1.48,0,2,2,0,0,0,1-2.53,1.93,1.93,0,0,0-1-1.05,1.9,1.9,0,0,0-1.48,0Z" transform="translate(-30.41 -13.25)"/><path class="cls-8" d="M68.39,51.08l-.1.05a.8.8,0,0,1-.57,0,.73.73,0,0,1-.4-.41.71.71,0,0,1,0-.57.71.71,0,0,1,.4-.4.71.71,0,0,1,.57,0,.73.73,0,0,1,.41.4h0A.76.76,0,0,1,68.39,51.08Zm-.57-.95a.39.39,0,0,0-.14.17.32.32,0,0,0,0,.27.34.34,0,0,0,.19.2.32.32,0,0,0,.27,0,.39.39,0,0,0,.2-.2.32.32,0,0,0,0-.27h0a.35.35,0,0,0-.19-.19.34.34,0,0,0-.28,0Z" transform="translate(-30.41 -13.25)"/><path class="cls-8" d="M79.19,46.61l-.1,0-8.48,3.51a.71.71,0,0,1-.57,0,.75.75,0,0,1-.41-.41.8.8,0,0,1,0-.57.76.76,0,0,1,.41-.4l8.48-3.51a.71.71,0,0,1,.57,0,.76.76,0,0,1,.41.4.78.78,0,0,1,0,.58A.75.75,0,0,1,79.19,46.61Zm-9,2.56a.36.36,0,0,0-.15.45.41.41,0,0,0,.2.19.32.32,0,0,0,.27,0L79,46.3a.36.36,0,0,0,0-.66.34.34,0,0,0-.28,0l-8.48,3.51Z" transform="translate(-30.41 -13.25)"/><rect class="cls-10" x="80.71" y="106.68" width="35.99" height="6.11" transform="translate(-64.86 32.82) rotate(-22.47)"/><path class="cls-2" d="M87.38,114.36a2.17,2.17,0,1,1-2.83-1.17A2.17,2.17,0,0,1,87.38,114.36Z" transform="translate(-30.41 -13.25)"/><path class="cls-11" d="M112.92,105.92a1.23,1.23,0,0,1-.26.12L91.11,115a1.88,1.88,0,0,1-1.47,0,1.93,1.93,0,0,1,0-3.57l21.55-8.91a1.93,1.93,0,0,1,1.73,3.44Zm-.4-.23a1.55,1.55,0,0,0,.83-2,1.54,1.54,0,0,0-2-.83l-21.55,8.91a1.55,1.55,0,0,0-.84,2,1.55,1.55,0,0,0,2,.83Z" transform="translate(-30.41 -13.25)"/><path class="cls-10" d="M61.59,60l-.1,0a.76.76,0,0,1-1-.41.73.73,0,0,1,0-.58.76.76,0,0,1,1.4,0h0A.75.75,0,0,1,61.59,60ZM61,59a.34.34,0,0,0-.15.18.34.34,0,0,0,0,.28.33.33,0,0,0,.2.2.34.34,0,0,0,.28,0,.37.37,0,0,0,.21-.48h0a.38.38,0,0,0-.21-.2.34.34,0,0,0-.28,0Z" transform="translate(-30.41 -13.25)"/><path class="cls-10" d="M63.55,59.19l-.1.05a.76.76,0,1,1-.58-1.4.73.73,0,0,1,.58,0,.77.77,0,0,1,.42.41.83.83,0,0,1,0,.58A.8.8,0,0,1,63.55,59.19Zm-.58-1a.38.38,0,0,0-.15.46.36.36,0,0,0,.2.2.37.37,0,0,0,.29,0,.36.36,0,0,0,.2-.2.45.45,0,0,0,0-.28h0a.36.36,0,0,0-.2-.2.37.37,0,0,0-.29,0Z" transform="translate(-30.41 -13.25)"/><path class="cls-10" d="M65.48,58.4l-.1.05a.76.76,0,1,1,.1-.05Zm-.58-1a.44.44,0,0,0-.16.17.48.48,0,0,0,0,.29.38.38,0,0,0,.21.2.34.34,0,0,0,.28,0,.37.37,0,0,0,.2-.49.36.36,0,0,0-.48-.2Z" transform="translate(-30.41 -13.25)"/><path class="cls-7" d="M93.58,48.93h0L62.77,61.67a.19.19,0,0,1-.25-.1.21.21,0,0,1,.11-.26L93.41,48.58a.2.2,0,0,1,.17.35Z" transform="translate(-30.41 -13.25)"/><path class="cls-12" d="M66.92,69.8l23.2-9.6a.76.76,0,0,1,1,.4l2.49,6a.76.76,0,0,1-.4,1l-19.84,8.2L72,79.25l-1-2.46-1,.39a.74.74,0,0,1-1-.4l-2.49-6A.75.75,0,0,1,66.92,69.8Z" transform="translate(-30.41 -13.25)"/><path class="cls-10" d="M87.59,63.6h0L71.14,70.4a.18.18,0,0,1-.25-.1.19.19,0,0,1,.1-.25l16.43-6.8a.2.2,0,0,1,.25.11A.19.19,0,0,1,87.59,63.6Z" transform="translate(-30.41 -13.25)"/><path class="cls-10" d="M79,69.46h0l-7,2.89A.19.19,0,0,1,71.8,72l7-2.9a.2.2,0,0,1,.18.35Z" transform="translate(-30.41 -13.25)"/><path class="cls-10" d="M87.26,68.18h0L73,74a.19.19,0,0,1-.14-.36l14.23-5.77a.2.2,0,0,1,.17.35Z" transform="translate(-30.41 -13.25)"/><path class="cls-10" d="M88.4,65.56h0l-7.22,3a.19.19,0,0,1-.25-.11.19.19,0,0,1,.1-.25l7.23-3a.2.2,0,0,1,.17.35Z" transform="translate(-30.41 -13.25)"/><path class="cls-13" d="M100.56,76.12l-23.2,9.59a.74.74,0,0,0-.4,1l2.49,6a.76.76,0,0,0,1,.4l19.83-8.21,3.43,1.47-1-2.46,1-.4a.75.75,0,0,0,.41-1l-2.49-6A.74.74,0,0,0,100.56,76.12Z" transform="translate(-30.41 -13.25)"/><path class="cls-10" d="M97.67,79.86h0l-16.42,6.8a.21.21,0,0,1-.26-.11.2.2,0,0,1,.11-.25l16.42-6.79a.2.2,0,0,1,.26.1A.2.2,0,0,1,97.67,79.86Z" transform="translate(-30.41 -13.25)"/><path class="cls-10" d="M89.05,85.72l0,0-7,2.89a.19.19,0,0,1-.25-.11.18.18,0,0,1,.1-.25l7-2.89a.19.19,0,0,1,.18.34Z" transform="translate(-30.41 -13.25)"/><path class="cls-10" d="M87.72,88.42h0l-4.9,2a.2.2,0,1,1-.15-.36l4.91-2a.2.2,0,0,1,.25.11A.19.19,0,0,1,87.72,88.42Z" transform="translate(-30.41 -13.25)"/><path class="cls-10" d="M98.48,81.82h0l-7.22,3a.19.19,0,0,1-.25-.1.19.19,0,0,1,.1-.26l7.22-3a.19.19,0,0,1,.26.1A.19.19,0,0,1,98.48,81.82Z" transform="translate(-30.41 -13.25)"/><path class="cls-14" d="M148.66,110l-43.15-8.78a1.53,1.53,0,0,1-1.19-1.81l5.62-27.64a.08.08,0,0,1,.1-.06l46,9.36a.08.08,0,0,1,.06.09l-5.63,27.65A1.51,1.51,0,0,1,148.66,110Z" transform="translate(-30.41 -13.25)"/><path class="cls-7" d="M105.28,101.41a1.74,1.74,0,0,1-1.17-2l5.62-27.64a.29.29,0,0,1,.35-.23l46,9.36a.29.29,0,0,1,.23.34l-5.63,27.66a1.72,1.72,0,0,1-.74,1.1,1.76,1.76,0,0,1-1.3.25l-43.15-8.78ZM110.13,72l-5.61,27.51a1.33,1.33,0,0,0,1,1.56l43.15,8.78,0,.21,0-.21a1.3,1.3,0,0,0,1-.19,1.27,1.27,0,0,0,.56-.83l5.61-27.52Z" transform="translate(-30.41 -13.25)"/><path class="cls-15" d="M146.71,109.4l-39.16-7.49c-.83-.17,16.81-12.13,17-13L109.94,71.8a.08.08,0,0,1,.1-.06l46,9.36a.08.08,0,0,1,.06.09L136,91.3C135.88,92.12,147.53,109.57,146.71,109.4Z" transform="translate(-30.41 -13.25)"/><path class="cls-16" d="M110,71.74l24.22-12.21a3.5,3.5,0,0,1,4.25.86L155.93,81a0,0,0,0,1-.05.08L110,71.72" transform="translate(-30.41 -13.25)"/><path class="cls-7" d="M109.92,71.93l.06-.31,0-.08.06,0h0l24.15-12.17a3.71,3.71,0,0,1,4.51.91l17.42,20.6a.28.28,0,0,1,0,.3.27.27,0,0,1-.28.13Zm26.93-12.41a3.31,3.31,0,0,0-2.5.2L110.68,71.65l44.78,9.12L138.35,60.53A3.29,3.29,0,0,0,136.85,59.52Z" transform="translate(-30.41 -13.25)"/><path class="cls-17" d="M110,71.74l24.22-12.21a3.5,3.5,0,0,1,4.25.86L155.93,81a0,0,0,0,1-.05.08L110,71.72" transform="translate(-30.41 -13.25)"/><path class="cls-16" d="M127.65,86.88l-20,14.72,39,7.94L134,88.17A4.37,4.37,0,0,0,127.65,86.88Z" transform="translate(-30.41 -13.25)"/><path class="cls-7" d="M107.13,101.71l20.39-15,.13.18-.13-.18a4.59,4.59,0,0,1,6.67,1.36l12.9,21.79Zm24.39-15.27a3,3,0,0,0-.45-.12,4.18,4.18,0,0,0-3.3.73l-19.61,14.44,38.07,7.75-12.4-21A4.17,4.17,0,0,0,131.52,86.44Z" transform="translate(-30.41 -13.25)"/><path class="cls-10" d="M116.53,59.32l30.06,6.11a3.43,3.43,0,0,1,2.93,3.83L146,86.4l-10.46,4.8-11-2.25-8.4-10,3.38-16.61Z" transform="translate(-30.41 -13.25)"/><path class="cls-7" d="M124.41,89.15,115.9,79l3.38-16.6-2-3.17,29.37,6a4.05,4.05,0,0,1,2.46,1.5,3.12,3.12,0,0,1,.64,2.57l-3.51,17.25L135.6,91.43Zm-8-10.24,8.28,9.85L135.54,91l10.31-4.73,3.46-17a2.72,2.72,0,0,0-.55-2.22,3.72,3.72,0,0,0-2.22-1.35l-29.37-6,2.58,2.63Z" transform="translate(-30.41 -13.25)"/><path class="cls-15" d="M128.18,85.22,107.65,101.6l39,7.94-12.11-23A4.38,4.38,0,0,0,128.18,85.22Z" transform="translate(-30.41 -13.25)"/><path class="cls-14" d="M127.65,86.88l-20,14.72,39,7.94L134,88.17A4.37,4.37,0,0,0,127.65,86.88Z" transform="translate(-30.41 -13.25)"/><path class="cls-7" d="M107.13,101.71l20.39-15,.13.18-.13-.18a4.59,4.59,0,0,1,6.67,1.36l12.9,21.79Zm24.39-15.27a3,3,0,0,0-.45-.12,4.18,4.18,0,0,0-3.3.73l-19.61,14.44,38.07,7.75-12.4-21A4.17,4.17,0,0,0,131.52,86.44Z" transform="translate(-30.41 -13.25)"/><path class="cls-18" d="M127.61,91.55l-14.69,10.82,28.65,5.83-9.29-15.69A3.22,3.22,0,0,0,127.61,91.55Z" transform="translate(-30.41 -13.25)"/><line class="cls-16" x1="79.63" y1="58.53" x2="94.12" y2="75.7"/><rect class="cls-7" x="117.07" y="69.13" width="0.43" height="22.47" transform="translate(-54.59 81.27) rotate(-40.14)"/><line class="cls-16" x1="125.68" y1="67.9" x2="105.64" y2="78.05"/><rect class="cls-7" x="134.83" y="86.01" width="22.47" height="0.43" transform="translate(-53.61 62.06) rotate(-26.86)"/><path class="cls-19" d="M117.93,70l-5.25-1.07,1.52-7.48a2.56,2.56,0,0,1,3-2l.24,0a2.56,2.56,0,0,1,2,3Z" transform="translate(-30.41 -13.25)"/><path class="cls-7" d="M112.43,69.1,114,61.41a2.7,2.7,0,0,1,1.18-1.76,2.74,2.74,0,0,1,2.08-.4l.24,0a2.68,2.68,0,0,1,1.75,1.18,2.74,2.74,0,0,1,.41,2.08l-1.57,7.69Zm5.24-9.32-.26-.07-.23-.05a2.37,2.37,0,0,0-2.77,1.83l-1.48,7.28,4.83,1,1.48-7.28a2.3,2.3,0,0,0-.34-1.75A2.34,2.34,0,0,0,117.67,59.78Z" transform="translate(-30.41 -13.25)"/><path class="cls-7" d="M122.58,67.35a.2.2,0,0,1-.14-.24.21.21,0,0,1,.25-.17l21.77,4.44a.21.21,0,1,1-.08.41L122.6,67.36Z" transform="translate(-30.41 -13.25)"/><path class="cls-7" d="M121.07,74.76a.22.22,0,0,1-.14-.25.22.22,0,0,1,.25-.17L143,78.78a.2.2,0,0,1,.16.25.21.21,0,0,1-.25.17L121.1,74.76Z" transform="translate(-30.41 -13.25)"/><path class="cls-7" d="M121.83,71a.21.21,0,0,1-.14-.24.21.21,0,0,1,.25-.17l9.41,1.92a.21.21,0,1,1-.08.41L121.86,71Z" transform="translate(-30.41 -13.25)"/><path class="cls-7" d="M133.71,73.43a.22.22,0,0,1-.15-.25.22.22,0,0,1,.26-.16l9.9,2a.22.22,0,0,1,.16.26.2.2,0,0,1-.25.16l-9.9-2Z" transform="translate(-30.41 -13.25)"/><path class="cls-7" d="M120.22,79a.21.21,0,0,1-.15-.24.22.22,0,0,1,.26-.17l9.41,1.92a.2.2,0,0,1,.16.25.21.21,0,0,1-.25.17L120.24,79Z" transform="translate(-30.41 -13.25)"/></g><g id="typo"><text class="cls-20" transform="translate(139.1 72.19)">LET’S GET <tspan x="0" y="24.03">IN TOUCH!</tspan></text><text class="cls-21" transform="translate(139.1 43.1)">WANT TO KNOW MORE ?</text></g></svg>