<?xml version="1.0" encoding="utf-8"?>
<!-- Generator: Adobe Illustrator 25.2.1, SVG Export Plug-In . SVG Version: 6.00 Build 0)  -->
<svg version="1.1" xmlns="http://www.w3.org/2000/svg" xmlns:xlink="http://www.w3.org/1999/xlink" x="0px" y="0px"
	 viewBox="0 0 217 188" style="enable-background:new 0 0 217 188;" xml:space="preserve">
<style type="text/css">
	.st0{display:none;}
	.st1{display:inline;fill:#C5D9FF;}
	.st2{display:inline;opacity:0.89;}
	.st3{opacity:0.89;}
	.st4{opacity:0.12;clip-path:url(#SVGID_2_);fill:#FFFFFF;}
	.st5{opacity:0.2;clip-path:url(#SVGID_2_);fill:#FFFFFF;}
	.st6{fill:#243762;}
	.st7{fill:#ECF1F7;}
	.st8{fill:#A3BFCE;}
	.st9{fill:#C5D9FF;}
	.st10{fill:#8D9DAA;}
	.st11{fill:#FFFFFF;}
	.st12{opacity:0.33;fill:#AF9CDA;}
	.st13{fill:#A28EAF;}
	.st14{opacity:0.29;fill:#243762;}
	.st15{fill:#F7A9B4;}
	.st16{fill:#81708E;}
	.st17{opacity:0.35;fill:#ECF1F7;}
	.st18{display:inline;}
	.st19{opacity:0.41;}
	.st20{opacity:0.88;}
	.st21{opacity:0.31;fill:#C5D9FF;}
</style>
<g id="BACKGROUND" class="st0">
	<rect x="-83" y="-238" class="st1" width="750" height="500"/>
	<g class="st2">
		<defs>
			<polygon id="SVGID_1_" class="st3" points="668,-237.7 668.1,258.2 -81.9,262 -81.9,109.7 -81.6,-238 			"/>
		</defs>
		<clipPath id="SVGID_2_">
			<use xlink:href="#SVGID_1_"  style="overflow:visible;"/>
		</clipPath>
		<path class="st4" d="M141.9,138.4c0-14.8-2.4-28.7-7.3-40.8c-11.4-28.1-29.3-42.2-42.4-49.2c-22.4-11.9-43.7-14.6-60.1-7.5
			c-17.5,7.5-23.6,23-30.2,39.4c-6,15-12.1,30.4-27.4,40.2c-13.8,8.8-27.3,4-41.6-1.1c-14.2-5.1-28.8-10.3-44.9-2.6
			c-17.2,8.2-31.1,27.2-32.5,44.3c-1,12.4,4.2,27.4,14.9,43.3c10.6,15.7,25.7,30.9,43.5,43.9c48.1,35.1,102.2,45.1,144.7,26.8
			c30.8-13.2,56.9-41.8,71.6-78.4C137.9,177.4,141.9,157.2,141.9,138.4z"/>
		<path class="st4" d="M503-124.6c0-14.8-2.4-28.7-7.3-40.8c-11.4-28.1-29.3-42.2-42.4-49.2c-22.4-11.9-43.7-14.6-60.1-7.5
			c-17.5,7.5-23.6,23-30.2,39.4c-6,15-12.1,30.4-27.4,40.2c-13.8,8.8-27.3,4-41.6-1.1c-14.1-5.1-28.8-10.3-44.9-2.6
			c-17.2,8.2-31.1,27.2-32.5,44.3c-1,12.4,4.2,27.4,14.9,43.3c10.6,15.7,25.7,30.9,43.5,43.9c48.1,35.1,102.2,45.1,144.7,26.8
			c30.8-13.2,56.9-41.8,71.6-78.4C499-85.6,503-105.8,503-124.6z"/>
		<path class="st4" d="M757.1,2.1c0-14.8-2.4-28.7-7.3-40.8c-11.4-28.1-29.3-42.2-42.4-49.2c-22.4-11.9-43.7-14.6-60.1-7.5
			c-17.5,7.5-23.6,23-30.2,39.4c-6,15-12.1,30.4-27.4,40.2c-13.8,8.8-27.3,4-41.6-1.1c-14.2-5.1-28.8-10.3-44.9-2.6
			c-17.2,8.2-31.1,27.2-32.5,44.3c-1,12.4,4.2,27.4,14.9,43.3c10.6,15.7,25.7,30.9,43.5,43.9c48.1,35.1,102.2,45.1,144.7,26.8
			c30.8-13.2,56.9-41.8,71.6-78.4C753.1,41.1,757.1,20.9,757.1,2.1z"/>
		<path class="st4" d="M130-184.5c0-14.8-2.4-28.7-7.3-40.8c-11.4-28.1-29.3-42.2-42.4-49.2C57.9-286.3,36.6-289,20.2-282
			C2.7-274.5-3.4-259-10-242.6c-6,15-12.1,30.4-27.4,40.2c-13.8,8.8-27.3,4-41.6-1.1c-14.2-5.1-28.8-10.3-44.9-2.6
			c-17.2,8.2-31.1,27.2-32.5,44.3c-1,12.4,4.2,27.4,14.9,43.3c10.6,15.7,25.7,30.9,43.5,43.9C-49.9-39.4,4.2-29.4,46.7-47.7
			c30.8-13.2,56.9-41.8,71.6-78.4C126-145.5,130-165.7,130-184.5z"/>
		<path class="st5" d="M125.4,111.1c-1,0-2.1,0-3.1-0.1c-17.1-1.4-36.1-15.7-44.3-33.2c-7.7-16.5-2.5-31.5,2.5-45.9
			c5-14.3,9.8-27.8,1.2-41.5C72.1-24.8,56.9-31,42.2-37C25.8-43.7,10.4-50,2.9-67.8c-7-16.7-4.4-38.4,7.5-61.2
			c6.9-13.3,21-31.5,49-43.1l0,0c27.3-11.3,64.2-9.6,98.6,4.4c36.3,14.8,64.7,41.3,77.9,72.6c9.7,23.1,11.6,48.8,5.5,76.4
			c-5.3,24-16.4,48.3-32.1,70.4C183.5,87.7,150.3,111.1,125.4,111.1z M99.9-179c-14.6,0-28.4,2.4-40.4,7.4
			c-27.8,11.5-41.8,29.6-48.7,42.8C-0.9-106.2-3.5-84.6,3.4-68.1c7.4,17.7,22.8,23.9,39,30.5c14.8,6,30.1,12.2,39.8,27.7
			c8.7,13.9,4,27.6-1.1,42c-5,14.3-10.2,29.1-2.6,45.4c8.1,17.3,27,31.5,43.8,32.8c12.3,1,27.1-4.2,42.9-15.1
			c15.5-10.7,30.6-25.9,43.5-44c34.7-48.6,44.6-103.3,26.6-146.2c-13.1-31.2-41.4-57.5-77.6-72.3C138.5-175,118.5-179,99.9-179z"/>
		<path class="st5" d="M352.7,276c-0.9,0.5-1.8,1-2.8,1.4c-15.6,7.1-39.1,3.8-54.6-7.6c-14.7-10.8-17.2-26.4-19.6-41.5
			c-2.4-15-4.7-29.1-18.7-37c-15.7-8.8-32-6.8-47.8-4.9c-17.5,2.1-34.1,4.1-49.1-7.9c-14.1-11.2-22.1-31.6-22.6-57.3
			c-0.3-15,3.4-37.9,22.4-61.6l0,0c18.6-23.2,51.7-39.6,88.6-44c38.9-4.6,76.4,4.8,102.8,25.9c19.5,15.5,33.4,37.2,41.2,64.4
			c6.8,23.6,8.6,50.3,5.3,77.3C392.4,227.2,374.5,263.9,352.7,276z M192.3,33.9C179.4,41,168.5,49.9,160.4,60
			c-18.9,23.6-22.6,46.3-22.3,61.2c0.4,25.5,8.4,45.7,22.3,56.9c14.9,11.9,31.3,9.9,48.7,7.8c15.8-1.9,32.2-3.9,48.1,5
			c14.3,8,16.6,22.3,19,37.4c2.4,15,4.9,30.5,19.3,41.1c15.4,11.3,38.6,14.5,54,7.5c11.3-5.1,21.8-16.9,30.4-34
			c8.5-16.9,14.5-37.6,17.2-59.7c7.3-59.5-10-112.2-46.3-141.1c-26.3-21-63.6-30.3-102.4-25.7C228,18.7,208.6,24.9,192.3,33.9z"/>
		<path class="st5" d="M628,366.4c-0.9,0.5-1.8,1-2.8,1.4c-15.6,7.1-39.1,3.8-54.6-7.6c-14.7-10.8-17.2-26.4-19.6-41.5
			c-2.4-15-4.7-29.1-18.7-37c-15.7-8.8-32-6.8-47.8-4.9c-17.5,2.1-34.1,4.1-49.1-7.9c-14.1-11.2-22.1-31.6-22.6-57.3
			c-0.3-15,3.4-37.9,22.4-61.6l0,0c18.6-23.2,51.7-39.6,88.6-44c38.9-4.6,76.4,4.8,102.8,25.9c19.5,15.5,33.4,37.2,41.2,64.4
			c6.8,23.6,8.6,50.3,5.3,77.3C667.8,317.7,649.8,354.4,628,366.4z M467.6,124.4c-12.8,7.1-23.8,15.9-31.9,26.1
			c-18.9,23.6-22.6,46.3-22.3,61.2c0.4,25.5,8.4,45.7,22.3,56.9c14.9,11.9,31.3,9.9,48.7,7.8c15.8-1.9,32.2-3.9,48.1,5
			c14.3,8,16.6,22.3,19,37.4c2.4,15,4.9,30.5,19.3,41.1c15.4,11.3,38.6,14.5,54,7.5c11.3-5.1,21.8-16.9,30.4-34
			c8.5-16.9,14.5-37.6,17.2-59.7c7.3-59.5-10-112.2-46.3-141.1c-26.3-21-63.6-30.3-102.4-25.7C503.4,109.1,483.9,115.4,467.6,124.4z
			"/>
		<path class="st5" d="M645.1-21.2c-0.9,0.5-1.8,1-2.8,1.4c-15.6,7.1-39.1,3.8-54.6-7.6c-14.7-10.8-17.2-26.4-19.6-41.5
			c-2.4-15-4.7-29.1-18.7-37c-15.7-8.8-32-6.8-47.8-4.9c-17.5,2.1-34.1,4.1-49.1-7.9c-14.1-11.2-22.1-31.6-22.6-57.3
			c-0.3-15,3.4-37.9,22.4-61.6l0,0c18.6-23.2,51.7-39.6,88.6-44c38.9-4.6,76.4,4.8,102.8,25.9c19.5,15.5,33.4,37.2,41.2,64.4
			c6.8,23.6,8.6,50.3,5.3,77.3C684.9-69.9,666.9-33.3,645.1-21.2z M484.7-263.3c-12.8,7.1-23.8,15.9-31.9,26.1
			c-18.9,23.6-22.6,46.3-22.3,61.2c0.4,25.5,8.4,45.7,22.3,56.9c14.9,11.9,31.3,9.9,48.7,7.8c15.8-1.9,32.2-3.9,48.1,5
			c14.3,8,16.6,22.3,19,37.4c2.4,15,4.9,30.5,19.3,41.1c15.4,11.3,38.6,14.5,54,7.5c11.3-5.1,21.8-16.9,30.4-34
			c8.5-16.9,14.5-37.6,17.2-59.7c7.3-59.5-10-112.2-46.3-141.1c-26.3-21-63.6-30.3-102.4-25.7C520.5-278.5,501-272.3,484.7-263.3z"
			/>
	</g>
</g>
<g id="OBJECTS">
	<g>
		<g>
			<g>
				<path class="st6" d="M148.1,168.4l-44.3-13.1c-5-1.5-7.9-6.7-6.4-11.7l31.8-107.4c1.5-5,6.7-7.9,11.7-6.4l44.3,13.1
					c5,1.5,7.9,6.7,6.4,11.7L159.9,162C158.4,167,153.2,169.9,148.1,168.4z"/>
				
					<rect x="92" y="69.2" transform="matrix(0.2835 -0.959 0.959 0.2835 9.9932 209.0853)" class="st7" width="105.8" height="57.3"/>
				
					<rect x="154.8" y="22.3" transform="matrix(0.2835 -0.959 0.959 0.2835 64.9117 188.7754)" class="st8" width="7.9" height="57.3"/>
				<path class="st7" d="M127.5,158.5c-0.2,0-0.4-0.1-0.5-0.1c-0.9-0.3-1.7-0.9-2.2-1.8c-0.5-0.9-0.6-1.9-0.3-2.8
					c0.3-0.9,0.9-1.7,1.8-2.2c0.9-0.5,1.9-0.6,2.8-0.3c0.9,0.3,1.7,0.9,2.2,1.8c0.5,0.9,0.6,1.9,0.3,2.8
					C131.1,157.7,129.3,158.8,127.5,158.5z M128.5,151.8c-0.7-0.1-1.3,0-1.9,0.3c-0.7,0.4-1.3,1-1.5,1.8c-0.2,0.8-0.1,1.6,0.2,2.3
					c0.4,0.7,1,1.3,1.8,1.5c1.6,0.5,3.4-0.5,3.8-2.1c0.2-0.8,0.1-1.6-0.2-2.3c-0.4-0.7-1-1.3-1.8-1.5
					C128.8,151.9,128.6,151.8,128.5,151.8z"/>
				<path class="st7" d="M152.5,40.8c-0.1,0-0.1,0-0.2,0c-0.3-0.1-0.6-0.3-0.7-0.6c-0.2-0.3-0.2-0.6-0.1-0.9
					c0.1-0.3,0.3-0.6,0.6-0.7c0.3-0.2,0.6-0.2,0.9-0.1c0.3,0.1,0.6,0.3,0.7,0.6c0.2,0.3,0.2,0.6,0.1,0.9l0,0
					C153.6,40.6,153.1,40.9,152.5,40.8z M152.7,39.1c-0.1,0-0.2,0-0.4,0.1c-0.1,0.1-0.2,0.2-0.3,0.3c0,0.1,0,0.3,0,0.4
					c0.1,0.1,0.2,0.2,0.3,0.3c0.1,0,0.3,0,0.4,0c0.1-0.1,0.2-0.2,0.3-0.3l0,0c0-0.1,0-0.3,0-0.4C153.1,39.3,153,39.2,152.7,39.1
					C152.8,39.1,152.8,39.1,152.7,39.1z"/>
				<path class="st7" d="M170.3,46.1c-0.1,0-0.1,0-0.2,0l-14-4.1c-0.3-0.1-0.6-0.3-0.7-0.6c-0.2-0.3-0.2-0.6-0.1-0.9
					c0.1-0.3,0.3-0.6,0.6-0.7c0.3-0.2,0.6-0.2,0.9-0.1l14,4.1c0.3,0.1,0.6,0.3,0.7,0.6c0.2,0.3,0.2,0.6,0.1,0.9
					c-0.1,0.3-0.3,0.6-0.6,0.7C170.9,46.1,170.6,46.2,170.3,46.1z M156.6,40.2c-0.3,0-0.5,0.1-0.6,0.4c0,0.1,0,0.3,0,0.4
					c0.1,0.1,0.2,0.2,0.3,0.3l14,4.1c0.3,0.1,0.6-0.1,0.7-0.4c0-0.1,0-0.3,0-0.4c-0.1-0.1-0.2-0.2-0.3-0.3L156.6,40.2
					C156.6,40.2,156.6,40.2,156.6,40.2z"/>
				<path class="st9" d="M162.1,125l-38.4-11.3c-0.6-0.2-1.3,0.2-1.5,0.8l-2.9,10c-0.2,0.6,0.2,1.3,0.8,1.5l32.8,9.7l2.8,5.2
					l1.2-4.1l1.6,0.5c0.6,0.2,1.3-0.2,1.5-0.8l2.9-10C163.1,125.9,162.8,125.2,162.1,125z"/>
				<path class="st6" d="M152.9,135.9C152.9,135.9,152.9,135.9,152.9,135.9l-32.8-9.7c-0.4-0.1-0.7-0.4-0.9-0.7
					c-0.2-0.3-0.2-0.8-0.1-1.1l2.9-10c0.2-0.8,1.1-1.2,1.8-1l8.9,2.6c0.2,0,0.3,0.2,0.2,0.4c0,0.2-0.2,0.3-0.4,0.2l-8.9-2.6
					c-0.5-0.1-0.9,0.1-1.1,0.6l-2.9,10c-0.1,0.2,0,0.5,0.1,0.7c0.1,0.2,0.3,0.4,0.5,0.4l32.8,9.7c0.2,0,0.3,0.2,0.2,0.4
					C153.2,135.8,153.1,135.9,152.9,135.9z"/>
				<path class="st9" d="M174.3,83.8L136,72.5c-0.6-0.2-1.3,0.2-1.5,0.8l-2.9,10c-0.2,0.6,0.2,1.3,0.8,1.5l32.8,9.7l2.8,5.2l1.2-4.1
					l1.6,0.5c0.6,0.2,1.3-0.2,1.5-0.8l2.9-10C175.3,84.6,175,84,174.3,83.8z"/>
				<path class="st6" d="M168,100.4l-3.1-5.8L132.3,85c-0.8-0.2-1.2-1.1-1-1.8c0-0.2,0.2-0.3,0.4-0.2c0.2,0,0.3,0.2,0.2,0.4
					c-0.1,0.2,0,0.5,0.1,0.7c0.1,0.2,0.3,0.4,0.5,0.4l32.9,9.7l2.5,4.7l1.1-3.6l1.9,0.6c0.2,0.1,0.5,0,0.7-0.1
					c0.2-0.1,0.4-0.3,0.4-0.5l2-6.6c0-0.2,0.2-0.3,0.4-0.2c0.2,0,0.3,0.2,0.2,0.4l-2,6.6c-0.1,0.4-0.4,0.7-0.7,0.9
					c-0.3,0.2-0.8,0.2-1.1,0.1l-1.3-0.4L168,100.4z"/>
				<path class="st10" d="M122.9,89.9l38.4,11.3c0.6,0.2,1,0.8,0.8,1.5l-2.9,10c-0.2,0.6-0.8,1-1.5,0.8l-32.8-9.7l-5.2,2.9l1.2-4.1
					l-1.6-0.5c-0.6-0.2-1-0.8-0.8-1.5l2.9-10C121.6,90,122.3,89.7,122.9,89.9z"/>
				<path class="st6" d="M157.8,113.8c-0.1,0-0.1,0-0.2,0l-20.5-6.1c-0.2,0-0.3-0.2-0.2-0.4c0-0.2,0.2-0.3,0.4-0.2l20.5,6.1
					c0.2,0.1,0.5,0,0.7-0.1c0.2-0.1,0.4-0.3,0.4-0.5l2.9-10c0.1-0.5-0.1-0.9-0.6-1.1c-0.2,0-0.3-0.2-0.2-0.4c0-0.2,0.2-0.3,0.4-0.2
					c0.8,0.2,1.2,1.1,1,1.8l-2.9,10c-0.1,0.4-0.4,0.7-0.7,0.9C158.4,113.8,158.1,113.8,157.8,113.8z"/>
				
					<rect x="126.4" y="115.2" transform="matrix(0.2835 -0.959 0.959 0.2835 -43.9178 229.0226)" class="st11" width="9.7" height="57.3"/>
				<path class="st9" d="M112.6,138.3c-0.5,1.8-2.5,2.9-4.3,2.3c-1.8-0.5-2.9-2.5-2.3-4.3c0.5-1.8,2.5-2.9,4.3-2.3
					C112.1,134.5,113.2,136.5,112.6,138.3z"/>
				<path class="st12" d="M152.7,153.4c-0.1,0-0.3-0.1-0.4-0.1l-35.6-10.5c-0.8-0.2-1.4-0.8-1.8-1.5c-0.4-0.7-0.5-1.6-0.2-2.3
					c0.5-1.6,2.2-2.6,3.8-2.1l35.6,10.5c1.6,0.5,2.6,2.2,2.1,3.8C155.7,152.7,154.2,153.6,152.7,153.4z M152.5,152.7
					c1.3,0.4,2.7-0.4,3.1-1.7c0.2-0.6,0.1-1.3-0.2-1.9c-0.3-0.6-0.8-1-1.5-1.2l-35.6-10.5c-1.3-0.4-2.7,0.4-3.1,1.7
					c-0.2,0.6-0.1,1.3,0.2,1.9c0.3,0.6,0.8,1,1.5,1.2L152.5,152.7z"/>
				<path class="st11" d="M135.1,45.1c-0.1,0-0.1,0-0.2,0c-0.6-0.2-1-0.9-0.8-1.5c0.1-0.3,0.3-0.6,0.6-0.7c0.3-0.2,0.6-0.2,0.9-0.1
					c0.6,0.2,1,0.9,0.8,1.5l0,0C136.3,44.8,135.7,45.2,135.1,45.1z M135.4,43.3c-0.1,0-0.3,0-0.4,0.1c-0.1,0.1-0.2,0.2-0.3,0.4
					c0,0.2,0,0.3,0,0.5c0.1,0.1,0.2,0.2,0.4,0.3c0.3,0.1,0.6-0.1,0.7-0.4l0,0c0-0.2,0-0.3,0-0.5C135.7,43.5,135.6,43.4,135.4,43.3
					C135.4,43.3,135.4,43.3,135.4,43.3z"/>
				<path class="st11" d="M138.4,46.1c-0.1,0-0.1,0-0.2,0c-0.6-0.2-1-0.9-0.8-1.5c0.2-0.6,0.9-1,1.5-0.8c0.3,0.1,0.6,0.3,0.7,0.6
					c0.2,0.3,0.2,0.6,0.1,0.9c-0.1,0.3-0.3,0.6-0.6,0.7C138.9,46,138.6,46.1,138.4,46.1z M138.6,44.3c-0.3,0-0.6,0.1-0.7,0.4
					c0,0.2,0,0.3,0,0.5c0.1,0.1,0.2,0.2,0.4,0.3c0.2,0,0.3,0,0.5,0c0.1-0.1,0.2-0.2,0.3-0.4l0,0c0-0.2,0-0.3,0-0.5
					C139,44.4,138.9,44.3,138.6,44.3C138.7,44.3,138.6,44.3,138.6,44.3z"/>
				<path class="st11" d="M141.5,47c-0.1,0-0.1,0-0.2,0c-0.6-0.2-1-0.9-0.8-1.5c0.2-0.6,0.9-1,1.5-0.8c0.6,0.2,1,0.9,0.8,1.5
					C142.7,46.7,142.1,47.1,141.5,47z M141.8,45.2c-0.1,0-0.3,0-0.4,0.1c-0.1,0.1-0.2,0.2-0.3,0.4c0,0.2,0,0.3,0,0.5
					c0.1,0.1,0.2,0.2,0.4,0.3c0.3,0.1,0.6-0.1,0.7-0.4C142.4,45.7,142.2,45.3,141.8,45.2C141.9,45.2,141.8,45.2,141.8,45.2z"/>
				<path class="st6" d="M185.9,63.4C185.8,63.4,185.8,63.4,185.9,63.4l-51-15.1c-0.2,0-0.3-0.2-0.2-0.4c0-0.2,0.2-0.3,0.4-0.2
					l50.9,15c0.2,0,0.3,0.2,0.2,0.4C186.2,63.3,186,63.4,185.9,63.4z"/>
				<path class="st11" d="M154.8,126.4C154.8,126.4,154.8,126.4,154.8,126.4l-27.2-8c-0.2,0-0.3-0.2-0.2-0.4c0-0.2,0.2-0.3,0.4-0.2
					l27.2,8c0.2,0,0.3,0.2,0.2,0.4C155.1,126.3,155,126.4,154.8,126.4z"/>
				<path class="st11" d="M138.3,125C138.3,125,138.2,125,138.3,125l-11.6-3.4c-0.2,0-0.3-0.2-0.2-0.4c0-0.2,0.2-0.3,0.4-0.2
					l11.6,3.4c0.2,0,0.3,0.2,0.2,0.4C138.6,124.9,138.4,125,138.3,125z"/>
				<path class="st11" d="M133.9,127C133.9,127,133.9,127,133.9,127l-8.2-2.4c-0.2,0-0.3-0.2-0.2-0.4c0-0.2,0.2-0.3,0.4-0.2l8.1,2.4
					c0.2,0,0.3,0.2,0.2,0.4C134.2,127,134.1,127.1,133.9,127z"/>
				<path class="st11" d="M153.9,129.6C153.9,129.6,153.8,129.6,153.9,129.6l-12-3.5c-0.2,0-0.3-0.2-0.2-0.4c0-0.2,0.2-0.3,0.4-0.2
					L154,129c0.2,0,0.3,0.2,0.2,0.4C154.2,129.6,154,129.6,153.9,129.6z"/>
				<g>
					<path class="st11" d="M154.7,102.9C154.7,102.9,154.7,102.9,154.7,102.9l-27.2-8c-0.2,0-0.3-0.2-0.2-0.4c0-0.2,0.2-0.3,0.4-0.2
						l27.2,8c0.2,0,0.3,0.2,0.2,0.4C155,102.8,154.9,102.9,154.7,102.9z"/>
					<path class="st11" d="M138.1,101.5C138.1,101.5,138.1,101.5,138.1,101.5l-11.6-3.4c-0.2,0-0.3-0.2-0.2-0.4
						c0-0.2,0.2-0.3,0.4-0.2l11.6,3.4c0.2,0,0.3,0.2,0.2,0.4C138.4,101.4,138.3,101.5,138.1,101.5z"/>
					<path class="st11" d="M149.7,108.2C149.7,108.2,149.7,108.2,149.7,108.2l-23.5-7.1c-0.2,0-0.3-0.2-0.2-0.4
						c0-0.2,0.2-0.3,0.4-0.2l23.4,7.1c0.2,0,0.3,0.2,0.2,0.4C150,108.2,149.9,108.3,149.7,108.2z"/>
					<path class="st11" d="M153.8,106.1C153.7,106.1,153.7,106.1,153.8,106.1l-12-3.5c-0.2,0-0.3-0.2-0.2-0.4c0-0.2,0.2-0.3,0.4-0.2
						l11.9,3.5c0.2,0,0.3,0.2,0.2,0.4C154,106.1,153.9,106.1,153.8,106.1z"/>
				</g>
				<path class="st10" d="M133.3,52.4l38.4,11.3c0.6,0.2,1,0.8,0.8,1.5l-2.9,10c-0.2,0.6-0.8,1-1.5,0.8l-32.8-9.7l-5.2,2.9l1.2-4.1
					l-1.6-0.5c-0.6-0.2-1-0.8-0.8-1.5l2.9-10C132,52.5,132.7,52.2,133.3,52.4z"/>
				<path class="st6" d="M169.5,75.4C169.5,75.4,169.5,75.4,169.5,75.4c-0.2-0.1-0.3-0.2-0.3-0.4l2.9-10c0.1-0.2,0-0.5-0.1-0.7
					c-0.1-0.2-0.3-0.4-0.5-0.4l-23.8-7c-0.2,0-0.3-0.2-0.2-0.4c0-0.2,0.2-0.3,0.4-0.2l23.8,7c0.4,0.1,0.7,0.4,0.9,0.7
					c0.2,0.3,0.2,0.8,0.1,1.1l-2.9,10C169.8,75.4,169.6,75.5,169.5,75.4z"/>
				<g>
					<path class="st11" d="M165.1,65.4C165.1,65.4,165.1,65.4,165.1,65.4l-27.2-8c-0.2,0-0.3-0.2-0.2-0.4c0-0.2,0.2-0.3,0.4-0.2
						l27.2,8c0.2,0,0.3,0.2,0.2,0.4C165.4,65.3,165.3,65.4,165.1,65.4z"/>
					<path class="st11" d="M148.6,64C148.6,64,148.6,64,148.6,64L137,60.6c-0.2,0-0.3-0.2-0.2-0.4c0-0.2,0.2-0.3,0.4-0.2l11.6,3.4
						c0.2,0,0.3,0.2,0.2,0.4C148.9,63.9,148.7,64,148.6,64z"/>
					<path class="st11" d="M160.2,70.7C160.1,70.7,160.1,70.7,160.2,70.7l-23.5-7.1c-0.2,0-0.3-0.2-0.2-0.4c0-0.2,0.2-0.3,0.4-0.2
						l23.4,7.1c0.2,0,0.3,0.2,0.2,0.4C160.4,70.7,160.3,70.8,160.2,70.7z"/>
					<path class="st11" d="M164.2,68.6C164.2,68.6,164.2,68.6,164.2,68.6l-12-3.5c-0.2,0-0.3-0.2-0.2-0.4c0-0.2,0.2-0.3,0.4-0.2
						l11.9,3.5c0.2,0,0.3,0.2,0.2,0.4C164.5,68.6,164.3,68.6,164.2,68.6z"/>
				</g>
				<path class="st11" d="M167,85.5C167,85.5,167,85.5,167,85.5l-27.2-8c-0.2,0-0.3-0.2-0.2-0.4c0-0.2,0.2-0.3,0.4-0.2l27.2,8
					c0.2,0,0.3,0.2,0.2,0.4C167.3,85.5,167.1,85.6,167,85.5z"/>
				<path class="st11" d="M150.4,84.2C150.4,84.2,150.4,84.2,150.4,84.2l-11.6-3.4c-0.2,0-0.3-0.2-0.2-0.4c0-0.2,0.2-0.3,0.4-0.2
					l11.6,3.4c0.2,0,0.3,0.2,0.2,0.4C150.7,84.1,150.6,84.2,150.4,84.2z"/>
				<path class="st11" d="M146.1,86.2C146.1,86.2,146.1,86.2,146.1,86.2l-8.2-2.4c-0.2,0-0.3-0.2-0.2-0.4c0-0.2,0.2-0.3,0.4-0.2
					l8.1,2.4c0.2,0,0.3,0.2,0.2,0.4C146.4,86.1,146.2,86.2,146.1,86.2z"/>
				<path class="st11" d="M166,88.8C166,88.8,166,88.8,166,88.8l-12-3.5c-0.2,0-0.3-0.2-0.2-0.4c0-0.2,0.2-0.3,0.4-0.2l11.9,3.5
					c0.2,0,0.3,0.2,0.2,0.4C166.3,88.7,166.2,88.8,166,88.8z"/>
			</g>
			<g>
				<g>
					<path class="st13" d="M117.2,125.9l-71.9,15.9c-1.4,0.3-2.7-0.6-3.1-1.9l-10.2-46c0-0.1,0-0.1,0.1-0.2l76.6-16.9
						c0.1,0,0.1,0,0.2,0.1l10.2,46.1C119.4,124.2,118.6,125.6,117.2,125.9z"/>
					<path class="st6" d="M45.1,142.2c-1.5,0.2-2.8-0.8-3.2-2.3l-10.2-46c-0.1-0.3,0.1-0.5,0.4-0.6l76.6-16.9
						c0.3-0.1,0.5,0.1,0.6,0.4l10.2,46.1c0.2,0.8,0,1.5-0.4,2.2c-0.4,0.7-1.1,1.1-1.8,1.3l-71.9,15.9
						C45.3,142.1,45.2,142.2,45.1,142.2z M32.5,93.9l10.1,45.8c0.3,1.2,1.4,1.9,2.6,1.7l71.9-15.9l0.1,0.3l-0.1-0.3
						c0.6-0.1,1.1-0.5,1.4-1c0.3-0.5,0.4-1.1,0.3-1.6l-10.1-45.8L32.5,93.9z"/>
				</g>
				<path class="st14" d="M113.8,126.2l-64.9,15.1c-1.4,0.3,17.4-29.9,17.1-31.3L32.1,93.8c0-0.1,0-0.1,0.1-0.2l76.6-16.9
					c0.1,0,0.1,0,0.2,0.1l-23.7,29C85.5,107.2,115.2,125.9,113.8,126.2z"/>
				<g>
					<path class="st15" d="M32.2,93.6l28.7-35.1c1.7-2.1,4.6-2.7,7.1-1.6l40.6,19.6c0.1,0,0.1,0.1,0,0.2L32.1,93.6"/>
					<path class="st6" d="M32.1,94L32,93.5l-0.1-0.1l0.1-0.1l0,0l0,0l28.6-35c1.8-2.2,4.9-2.9,7.5-1.7l40.6,19.6
						c0.2,0.1,0.3,0.3,0.2,0.4c0,0.2-0.2,0.3-0.3,0.4L32.1,94z M64.9,56.7c-1.4,0.1-2.7,0.8-3.7,2L33.1,93l74.6-16.5L67.8,57.3
						C66.9,56.8,65.8,56.6,64.9,56.7z"/>
				</g>
				<path class="st16" d="M32.2,93.6l28.7-35.1c1.7-2.1,4.6-2.7,7.1-1.6l40.6,19.6c0.1,0,0.1,0.1,0,0.2L32.1,93.6"/>
				<g>
					<path class="st15" d="M69.4,104.8l-20.6,36.1l65-14.4L80,102.4C76.4,99.9,71.5,101,69.4,104.8z"/>
					<path class="st6" d="M48.1,141.4l21-36.8l0.3,0.2l-0.3-0.2c1.1-1.9,2.9-3.2,5-3.7c2.1-0.5,4.3,0,6.1,1.2l34.5,24.5L48.1,141.4z
						 M75,101.5c-0.3,0-0.5,0.1-0.8,0.1c-1.9,0.4-3.6,1.6-4.5,3.4l-20.2,35.4l63.4-14l-33.2-23.6C78.4,101.7,76.7,101.3,75,101.5z"
						/>
				</g>
				<g>
					<path class="st11" d="M33.7,70.2l50.1-11.1c3.3-0.7,6.5,1,7.1,3.8l6.3,28.6L84.4,106L66,110.1l-19.6-9.6l-6.1-27.7L33.7,70.2z"
						/>
					<path class="st6" d="M66,110.5l-19.9-9.7L40,73.1l-5.2-3.5l48.9-10.8c1.7-0.4,3.4-0.2,4.8,0.6c1.4,0.8,2.4,2,2.7,3.5l6.4,28.7
						l-12.9,14.7L66,110.5z M46.7,100.3l19.3,9.4l18.2-4l12.5-14.2l-6.3-28.4c-0.3-1.3-1.1-2.4-2.4-3c-1.3-0.7-2.8-0.9-4.3-0.5
						L34.9,70.3l5.7,2.3L46.7,100.3z"/>
				</g>
				<path class="st14" d="M69.1,101.9l-20.2,39l65-14.4L79.7,99.5C76.1,97,71.2,98.1,69.1,101.9z"/>
				<g>
					<path class="st13" d="M69.4,104.8l-20.6,36.1l65-14.4L80,102.4C76.4,99.9,71.5,101,69.4,104.8z"/>
					<path class="st6" d="M48.1,141.4l21-36.8l0.3,0.2l-0.3-0.2c1.1-1.9,2.9-3.2,5-3.7c2.1-0.5,4.3,0,6.1,1.2l34.5,24.5L48.1,141.4z
						 M75,101.5c-0.3,0-0.5,0.1-0.8,0.1c-1.9,0.4-3.6,1.6-4.5,3.4l-20.2,35.4l63.4-14l-33.2-23.6C78.4,101.7,76.7,101.3,75,101.5z"
						/>
				</g>
				<path class="st17" d="M72.5,112l-15.1,26.5l47.7-10.5l-24.9-17.7C77.7,108.4,74.1,109.2,72.5,112z"/>
				<g>
					<line class="st15" x1="32.2" y1="93.7" x2="66" y2="110.1"/>
					
						<rect x="48.8" y="83.1" transform="matrix(0.4367 -0.8996 0.8996 0.4367 -63.9742 101.5759)" class="st6" width="0.7" height="37.6"/>
				</g>
				<g>
					<line class="st15" x1="108.9" y1="76.7" x2="85.2" y2="105.8"/>
					
						<rect x="78.3" y="90.9" transform="matrix(0.6316 -0.7753 0.7753 0.6316 -35.0041 108.8942)" class="st6" width="37.6" height="0.7"/>
				</g>
				<g>
					<path class="st7" d="M43.1,85.6l-8.7,1.9l-2.8-12.5c-0.5-2.3,0.9-4.6,3.2-5.1l0.4-0.1c2.3-0.5,4.6,0.9,5.1,3.2L43.1,85.6z"/>
					<path class="st6" d="M34.1,88l-2.8-12.8c-0.3-1.2,0-2.4,0.6-3.5c0.7-1,1.7-1.8,2.9-2l0.4-0.1c1.2-0.3,2.4,0,3.5,0.6
						c1,0.7,1.8,1.7,2,2.9l2.8,12.8L34.1,88z M35.7,70.2c-0.1,0-0.3,0-0.4,0.1l-0.4,0.1c-1,0.2-1.9,0.8-2.5,1.7
						c-0.6,0.9-0.7,1.9-0.5,3l2.7,12.1l8-1.8L40,73.2c-0.2-1-0.8-1.9-1.7-2.5C37.5,70.3,36.6,70.1,35.7,70.2z"/>
				</g>
				<path class="st6" d="M48.4,78.4c-0.2,0-0.3-0.1-0.4-0.3c0-0.2,0.1-0.4,0.3-0.4l36.3-8c0.2,0,0.4,0.1,0.4,0.3
					c0,0.2-0.1,0.4-0.3,0.4L48.4,78.4C48.4,78.4,48.4,78.4,48.4,78.4z"/>
				<path class="st6" d="M51.1,90.7c-0.2,0-0.3-0.1-0.4-0.3c0-0.2,0.1-0.4,0.3-0.4l36.3-8c0.2,0,0.4,0.1,0.4,0.3
					c0,0.2-0.1,0.4-0.3,0.4L51.1,90.7C51.1,90.7,51.1,90.7,51.1,90.7z"/>
				<path class="st6" d="M49.7,84.5c-0.2,0-0.3-0.1-0.4-0.3c0-0.2,0.1-0.4,0.3-0.4l15.7-3.5c0.2,0,0.4,0.1,0.4,0.3
					c0,0.2-0.1,0.4-0.3,0.4L49.7,84.5C49.7,84.5,49.7,84.5,49.7,84.5z"/>
				<path class="st6" d="M69.5,80.1c-0.2,0-0.3-0.1-0.4-0.3c0-0.2,0.1-0.4,0.3-0.4l16.5-3.6c0.2,0,0.4,0.1,0.4,0.3
					c0,0.2-0.1,0.4-0.3,0.4L69.5,80.1C69.5,80.1,69.5,80.1,69.5,80.1z"/>
				<path class="st6" d="M52.6,97.7c-0.2,0-0.3-0.1-0.4-0.3c0-0.2,0.1-0.4,0.3-0.4l15.7-3.5c0.2,0,0.4,0.1,0.4,0.3
					c0,0.2-0.1,0.4-0.3,0.4L52.6,97.7C52.7,97.7,52.7,97.7,52.6,97.7z"/>
			</g>
		</g>
	</g>
</g>
<g id="DESIGNED_BY_FREEPIK" class="st0">
	<g class="st18">
		<g class="st19">
			<g>
				<path class="st9" d="M209.3,118.2c0.2-3.2,0.1-6.4-0.3-9.6c-1.7-15-9.4-29.2-20.8-39.2c-4-3.6-8.7-6.8-11.3-11.5
					c-4.4-7.9-4.1-17-9.6-24.9c-5.5-7.8-13.5-14-22.6-17.1c-27-9.4-64.8,5.9-61.4,38.4c0,0.1,0,0.3,0,0.5
					c0.5,6.8-4.9,12.4-11.6,12.6c-24.9,0.6-46.4,19.8-51,44.2c-3,15.7,1.9,32.8,13.3,43.9c8.5,8.3,20,12.8,31.5,15.9
					c23,6.3,47.2,7.6,70.9,5.2c22.2-2.2,45.6-8.6,60-25.7C204.2,141.8,208.6,130.1,209.3,118.2z"/>
			</g>
		</g>
		<g class="st20">
			<g>
				<path class="st9" d="M188.8,119.7c0.1-2.5,0.1-5-0.2-7.6c-1.3-11.8-7.4-22.9-16.3-30.7c-3.2-2.8-6.8-5.3-8.8-9
					c-3.5-6.2-3.2-13.4-7.5-19.5c-4.3-6.1-10.6-10.9-17.7-13.4c-21.2-7.3-50.8,4.6-48.1,30.1c0,0.1,0,0.2,0,0.4
					c0.4,5.3-3.8,9.7-9.1,9.9c-19.5,0.5-36.3,15.5-39.9,34.6c-2.3,12.3,1.5,25.7,10.4,34.4c6.7,6.5,15.7,10,24.7,12.5
					c18,4.9,37,5.9,55.6,4.1c17.4-1.8,35.7-6.8,47-20.1C184.8,138.2,188.3,129,188.8,119.7z"/>
			</g>
		</g>
		
			<ellipse transform="matrix(0.2307 -0.973 0.973 0.2307 115.7749 221.3546)" class="st21" cx="197.9" cy="37.5" rx="6.1" ry="6.1"/>
		<ellipse transform="matrix(0.7071 -0.7071 0.7071 0.7071 -2.746 54.1491)" class="st21" cx="64" cy="30.4" rx="7.1" ry="7.1"/>
		<circle class="st21" cx="21.7" cy="166.2" r="9.1"/>
	</g>
</g>
</svg>
