<svg width="845" height="393" viewBox="0 0 845 393" fill="none" xmlns="http://www.w3.org/2000/svg">
<g clip-path="url(#clip0_94_5472)">
<rect width="845" height="393" fill="white"/>
<rect x="845" y="364" width="28" height="844" transform="rotate(90 845 364)" fill="#D9D9D9"/>
<rect x="333" y="374" width="134" height="5" rx="2.5" fill="white"/>
<g opacity="0.5">
<rect x="1" y="271" width="175" height="45" transform="rotate(-90 1 271)" fill="#D9D9D9"/>
<rect x="19" y="203" width="39" height="8" rx="4" transform="rotate(-90 19 203)" fill="#BDBDBD"/>
<circle cx="22" cy="222" r="8" transform="rotate(-90 22 222)" fill="#CDCDCD"/>
<circle cx="22" cy="249" r="13" transform="rotate(-90 22 249)" fill="#CDCDCD"/>
<circle cx="22" cy="144" r="8" transform="rotate(-90 22 144)" fill="#CDCDCD"/>
<circle cx="22" cy="117" r="13" transform="rotate(-90 22 117)" fill="#CDCDCD"/>
</g>
<rect x="0.5" y="0.5" width="844" height="392" stroke="#B4B4B4"/>
<line x1="45.5" y1="2.18557e-08" x2="45.5" y2="392" stroke="#DB1313"/>
<line x1="845" y1="12.5" x2="1" y2="12.5" stroke="#DB1313"/>
<line x1="845" y1="364.5" x2="1" y2="364.5" stroke="#DB1313"/>
<line x1="832.5" y1="2.18557e-08" x2="832.5" y2="392" stroke="#DB1313"/>
<path d="M360.515 141.297L319.703 155.637V185.799L359.964 199.206L404.085 185.799V155.637L360.515 141.297Z" fill="#FBFBFB" stroke="black" stroke-opacity="0.15"/>
<path d="M319.152 185.97L273.376 195.345L264 226.23L307.57 244.982L355.552 229.368L359.964 199.206L319.152 185.97Z" fill="#FBFBFB" stroke="black" stroke-opacity="0.15"/>
<path d="M529.83 140.746L489.57 154.533V185.97L534.243 199.206L572.849 185.97V153.43L529.83 140.746Z" fill="#FBFBFB" stroke="black" stroke-opacity="0.15"/>
<path d="M484.606 95.5215L443.794 109.309V141.849L489.018 153.982L529.83 140.746V108.206L484.606 95.5215Z" fill="#FBFBFB" stroke="black" stroke-opacity="0.15"/>
<path d="M571.5 93L530 107.788V140.327L573.5 155L616.036 139.224V106.685L571.5 93Z" fill="#FBFBFB" stroke="black" stroke-opacity="0.15"/>
<path d="M613.812 141L573 154.788V187.327L618.224 199.461L659.036 186.224V153.685L613.812 141Z" fill="#FBFBFB" stroke="black" stroke-opacity="0.15"/>
<path d="M656.812 93L616 106.788L615 140.5L659.5 153.5L702.036 138.224V105.685L656.812 93Z" fill="#FBFBFB" stroke="black" stroke-opacity="0.15"/>
<path opacity="0.4" d="M699.812 139L659 152.788L658 186.5L702.5 199.5L745.036 184.224V151.685L699.812 139Z" fill="#FBFBFB" stroke="black" stroke-opacity="0.15"/>
<path opacity="0.4" d="M657.812 187L620 199.685L628 229L669.5 242.5L709.5 231.5L703.036 199.685L657.812 187Z" fill="#FBFBFB" stroke="black" stroke-opacity="0.15"/>
<path opacity="0.4" d="M627.5 229.5L586.5 244.5L594 279.5L638.5 300.5L682.5 279.5L671.5 242L627.5 229.5Z" fill="#FBFBFB" stroke="black" stroke-opacity="0.15"/>
<path d="M401.879 96.6245L361.067 109.309V141.297L404.085 155.085L444.345 141.849V109.309L401.879 96.6245Z" fill="#FBFBFB" stroke="black" stroke-opacity="0.15"/>
<path d="M443.794 141.849L404.636 155.637V185.799L447.103 200.309L489.018 185.799V154.533L443.794 141.849Z" fill="#BEBEBE" stroke="#1B311C" stroke-width="4" stroke-dasharray="8 8"/>
<path d="M489.018 185.97L447.655 200.427V229.92L493.43 245.533L537 228.988L533.691 199.206L489.018 185.97Z" fill="#EEEEEE" stroke="black" stroke-opacity="0.31"/>
<path d="M537 228.988L493.982 245.651L495.085 279.727L548.582 298.479L593.806 279.727L586.636 244.43L537 228.988Z" fill="#EEEEEE" stroke="black" stroke-opacity="0.31"/>
<path d="M572.848 186.521L533.691 199.758L537 228.988L586.636 244.43L628 228.988L619.176 199.206L572.848 186.521Z" fill="#EEEEEE" stroke="black" stroke-opacity="0.31"/>
<path d="M357.206 229.539L307.57 244.982L299.848 279.727L346.176 297.927L398.57 279.727L400.776 246.085L357.206 229.539Z" fill="#FDFFF5" stroke="#AABE38"/>
<path d="M448.044 230.091L400.776 246.422L399.121 279.738L447.103 297.376L495.085 279.738L493.43 245.533L448.044 230.091Z" fill="#FDFFF5" stroke="#AABE38"/>
<path d="M404.636 185.97L360.515 199.206L356.103 228.988L400.224 246.085L447.103 230.091V200.695L404.636 185.97Z" fill="#FDFFF5" stroke="#AABE38"/>
<g filter="url(#filter0_d_94_5472)">
<path d="M399 171.331L391.267 178.288L391.267 164.373L399 171.331Z" fill="#858585"/>
<g filter="url(#filter1_b_94_5472)">
<rect x="209" y="93" width="184.109" height="158" rx="10" fill="#858585"/>
</g>
</g>
<g filter="url(#filter2_d_94_5472)">
<rect x="503" y="149" width="82" height="39" rx="10" fill="#615757"/>
</g>
<path d="M228.89 166.091V177H227.244V166.091H228.89ZM232.752 172.142V177H231.159V168.818H232.688V170.15H232.789C232.977 169.717 233.272 169.369 233.673 169.106C234.078 168.843 234.588 168.712 235.202 168.712C235.76 168.712 236.248 168.829 236.667 169.063C237.086 169.294 237.411 169.638 237.642 170.097C237.872 170.555 237.988 171.121 237.988 171.796V177H236.395V171.988C236.395 171.395 236.241 170.931 235.932 170.597C235.623 170.26 235.198 170.091 234.659 170.091C234.289 170.091 233.961 170.171 233.673 170.331C233.389 170.491 233.164 170.725 232.997 171.034C232.833 171.339 232.752 171.709 232.752 172.142ZM244.018 168.818V170.097H239.394V168.818H244.018ZM240.662 177V167.87C240.662 167.359 240.774 166.934 240.997 166.597C241.221 166.256 241.518 166.002 241.887 165.835C242.256 165.665 242.658 165.58 243.091 165.58C243.41 165.58 243.684 165.606 243.911 165.659C244.138 165.709 244.307 165.755 244.417 165.798L244.044 167.087C243.97 167.066 243.874 167.041 243.757 167.012C243.64 166.98 243.497 166.964 243.331 166.964C242.943 166.964 242.667 167.06 242.5 167.252C242.336 167.444 242.255 167.721 242.255 168.083V177H240.662ZM248.785 177.165C248.018 177.165 247.349 176.989 246.777 176.638C246.205 176.286 245.761 175.794 245.445 175.162C245.129 174.53 244.971 173.792 244.971 172.946C244.971 172.098 245.129 171.355 245.445 170.72C245.761 170.084 246.205 169.591 246.777 169.239C247.349 168.887 248.018 168.712 248.785 168.712C249.552 168.712 250.222 168.887 250.793 169.239C251.365 169.591 251.809 170.084 252.125 170.72C252.441 171.355 252.599 172.098 252.599 172.946C252.599 173.792 252.441 174.53 252.125 175.162C251.809 175.794 251.365 176.286 250.793 176.638C250.222 176.989 249.552 177.165 248.785 177.165ZM248.79 175.828C249.288 175.828 249.7 175.697 250.026 175.434C250.353 175.171 250.594 174.821 250.751 174.385C250.91 173.948 250.99 173.467 250.99 172.941C250.99 172.419 250.91 171.94 250.751 171.503C250.594 171.062 250.353 170.709 250.026 170.443C249.7 170.176 249.288 170.043 248.79 170.043C248.29 170.043 247.874 170.176 247.544 170.443C247.217 170.709 246.974 171.062 246.814 171.503C246.658 171.94 246.58 172.419 246.58 172.941C246.58 173.467 246.658 173.948 246.814 174.385C246.974 174.821 247.217 175.171 247.544 175.434C247.874 175.697 248.29 175.828 248.79 175.828ZM254.377 177V168.818H255.916V170.118H256.001C256.151 169.678 256.413 169.331 256.79 169.079C257.17 168.824 257.599 168.696 258.079 168.696C258.178 168.696 258.295 168.699 258.43 168.706C258.569 168.713 258.677 168.722 258.755 168.733V170.256C258.691 170.239 258.578 170.219 258.414 170.198C258.251 170.173 258.088 170.161 257.924 170.161C257.548 170.161 257.212 170.24 256.918 170.4C256.626 170.556 256.396 170.775 256.225 171.055C256.055 171.332 255.97 171.648 255.97 172.004V177H254.377ZM260.134 177V168.818H261.662V170.15H261.764C261.934 169.699 262.213 169.347 262.6 169.095C262.987 168.839 263.45 168.712 263.99 168.712C264.537 168.712 264.995 168.839 265.364 169.095C265.737 169.351 266.013 169.702 266.19 170.15H266.275C266.471 169.713 266.781 169.365 267.208 169.106C267.634 168.843 268.141 168.712 268.731 168.712C269.473 168.712 270.079 168.944 270.547 169.409C271.02 169.875 271.256 170.576 271.256 171.513V177H269.663V171.663C269.663 171.109 269.512 170.707 269.21 170.459C268.909 170.21 268.548 170.086 268.129 170.086C267.611 170.086 267.208 170.246 266.92 170.565C266.632 170.881 266.488 171.288 266.488 171.785V177H264.901V171.561C264.901 171.118 264.763 170.761 264.486 170.491C264.209 170.221 263.848 170.086 263.404 170.086C263.102 170.086 262.824 170.166 262.568 170.326C262.316 170.482 262.112 170.7 261.955 170.981C261.803 171.261 261.726 171.586 261.726 171.956V177H260.134ZM275.772 177.181C275.253 177.181 274.784 177.085 274.365 176.893C273.946 176.698 273.614 176.416 273.369 176.047C273.128 175.677 273.007 175.224 273.007 174.688C273.007 174.227 273.096 173.847 273.273 173.548C273.451 173.25 273.691 173.014 273.992 172.84C274.294 172.666 274.632 172.534 275.004 172.446C275.377 172.357 275.757 172.289 276.144 172.243C276.634 172.186 277.032 172.14 277.338 172.105C277.643 172.066 277.865 172.004 278.003 171.918C278.142 171.833 278.211 171.695 278.211 171.503V171.466C278.211 171 278.08 170.64 277.817 170.384C277.558 170.129 277.171 170.001 276.656 170.001C276.12 170.001 275.697 170.12 275.388 170.358C275.083 170.592 274.871 170.853 274.754 171.141L273.257 170.8C273.435 170.303 273.694 169.901 274.035 169.596C274.379 169.287 274.775 169.063 275.223 168.925C275.67 168.783 276.141 168.712 276.634 168.712C276.961 168.712 277.307 168.751 277.673 168.829C278.042 168.903 278.387 169.042 278.707 169.244C279.03 169.447 279.294 169.736 279.5 170.113C279.706 170.485 279.809 170.97 279.809 171.567V177H278.254V175.881H278.19C278.087 176.087 277.932 176.29 277.726 176.489C277.52 176.687 277.256 176.853 276.933 176.984C276.61 177.115 276.223 177.181 275.772 177.181ZM276.118 175.903C276.558 175.903 276.935 175.816 277.247 175.642C277.563 175.468 277.803 175.24 277.966 174.96C278.133 174.676 278.216 174.372 278.216 174.049V172.994C278.16 173.051 278.05 173.104 277.886 173.154C277.726 173.2 277.544 173.241 277.338 173.277C277.132 173.309 276.931 173.339 276.736 173.367C276.54 173.392 276.377 173.413 276.246 173.431C275.937 173.47 275.654 173.536 275.399 173.628C275.147 173.721 274.944 173.854 274.791 174.028C274.642 174.198 274.568 174.425 274.568 174.71C274.568 175.104 274.713 175.402 275.004 175.604C275.296 175.803 275.667 175.903 276.118 175.903ZM285.75 168.818V170.097H281.281V168.818H285.75ZM282.479 166.858H284.072V174.598C284.072 174.907 284.118 175.139 284.21 175.295C284.303 175.448 284.422 175.553 284.567 175.61C284.716 175.663 284.878 175.69 285.052 175.69C285.18 175.69 285.292 175.681 285.388 175.663C285.483 175.645 285.558 175.631 285.611 175.62L285.899 176.936C285.807 176.972 285.675 177.007 285.505 177.043C285.334 177.082 285.121 177.103 284.866 177.107C284.447 177.114 284.056 177.039 283.694 176.883C283.331 176.727 283.038 176.485 282.815 176.158C282.591 175.832 282.479 175.422 282.479 174.928V166.858ZM287.512 177V168.818H289.104V177H287.512ZM288.316 167.556C288.039 167.556 287.801 167.463 287.602 167.279C287.407 167.091 287.309 166.867 287.309 166.608C287.309 166.345 287.407 166.121 287.602 165.936C287.801 165.748 288.039 165.654 288.316 165.654C288.593 165.654 288.829 165.748 289.024 165.936C289.223 166.121 289.323 166.345 289.323 166.608C289.323 166.867 289.223 167.091 289.024 167.279C288.829 167.463 288.593 167.556 288.316 167.556ZM294.693 177.165C293.926 177.165 293.257 176.989 292.685 176.638C292.113 176.286 291.67 175.794 291.353 175.162C291.037 174.53 290.879 173.792 290.879 172.946C290.879 172.098 291.037 171.355 291.353 170.72C291.67 170.084 292.113 169.591 292.685 169.239C293.257 168.887 293.926 168.712 294.693 168.712C295.46 168.712 296.13 168.887 296.701 169.239C297.273 169.591 297.717 170.084 298.033 170.72C298.349 171.355 298.507 172.098 298.507 172.946C298.507 173.792 298.349 174.53 298.033 175.162C297.717 175.794 297.273 176.286 296.701 176.638C296.13 176.989 295.46 177.165 294.693 177.165ZM294.699 175.828C295.196 175.828 295.608 175.697 295.934 175.434C296.261 175.171 296.503 174.821 296.659 174.385C296.819 173.948 296.899 173.467 296.899 172.941C296.899 172.419 296.819 171.94 296.659 171.503C296.503 171.062 296.261 170.709 295.934 170.443C295.608 170.176 295.196 170.043 294.699 170.043C294.198 170.043 293.782 170.176 293.452 170.443C293.125 170.709 292.882 171.062 292.722 171.503C292.566 171.94 292.488 172.419 292.488 172.941C292.488 173.467 292.566 173.948 292.722 174.385C292.882 174.821 293.125 175.171 293.452 175.434C293.782 175.697 294.198 175.828 294.699 175.828ZM301.878 172.142V177H300.285V168.818H301.814V170.15H301.915C302.103 169.717 302.398 169.369 302.799 169.106C303.204 168.843 303.714 168.712 304.328 168.712C304.886 168.712 305.374 168.829 305.793 169.063C306.212 169.294 306.537 169.638 306.768 170.097C306.998 170.555 307.114 171.121 307.114 171.796V177H305.521V171.988C305.521 171.395 305.367 170.931 305.058 170.597C304.749 170.26 304.324 170.091 303.785 170.091C303.415 170.091 303.087 170.171 302.799 170.331C302.515 170.491 302.29 170.725 302.123 171.034C301.959 171.339 301.878 171.709 301.878 172.142ZM311.631 177.181C311.112 177.181 310.644 177.085 310.225 176.893C309.806 176.698 309.474 176.416 309.229 176.047C308.987 175.677 308.866 175.224 308.866 174.688C308.866 174.227 308.955 173.847 309.133 173.548C309.31 173.25 309.55 173.014 309.852 172.84C310.154 172.666 310.491 172.534 310.864 172.446C311.237 172.357 311.617 172.289 312.004 172.243C312.494 172.186 312.892 172.14 313.197 172.105C313.502 172.066 313.724 172.004 313.863 171.918C314.001 171.833 314.071 171.695 314.071 171.503V171.466C314.071 171 313.939 170.64 313.676 170.384C313.417 170.129 313.03 170.001 312.515 170.001C311.979 170.001 311.556 170.12 311.247 170.358C310.942 170.592 310.731 170.853 310.614 171.141L309.117 170.8C309.294 170.303 309.553 169.901 309.894 169.596C310.239 169.287 310.635 169.063 311.082 168.925C311.53 168.783 312 168.712 312.494 168.712C312.821 168.712 313.167 168.751 313.533 168.829C313.902 168.903 314.246 169.042 314.566 169.244C314.889 169.447 315.154 169.736 315.36 170.113C315.566 170.485 315.669 170.97 315.669 171.567V177H314.113V175.881H314.049C313.946 176.087 313.792 176.29 313.586 176.489C313.38 176.687 313.115 176.853 312.792 176.984C312.469 177.115 312.082 177.181 311.631 177.181ZM311.977 175.903C312.417 175.903 312.794 175.816 313.106 175.642C313.422 175.468 313.662 175.24 313.826 174.96C313.992 174.676 314.076 174.372 314.076 174.049V172.994C314.019 173.051 313.909 173.104 313.746 173.154C313.586 173.2 313.403 173.241 313.197 173.277C312.991 173.309 312.79 173.339 312.595 173.367C312.4 173.392 312.236 173.413 312.105 173.431C311.796 173.47 311.514 173.536 311.258 173.628C311.006 173.721 310.803 173.854 310.651 174.028C310.502 174.198 310.427 174.425 310.427 174.71C310.427 175.104 310.573 175.402 310.864 175.604C311.155 175.803 311.526 175.903 311.977 175.903ZM319.383 166.091V177H317.79V166.091H319.383ZM325.623 177V166.091H329.511C330.36 166.091 331.063 166.245 331.621 166.554C332.178 166.863 332.595 167.286 332.872 167.822C333.149 168.355 333.288 168.955 333.288 169.623C333.288 170.294 333.148 170.897 332.867 171.434C332.59 171.966 332.171 172.389 331.61 172.701C331.053 173.01 330.351 173.165 329.506 173.165H326.832V171.769H329.357C329.893 171.769 330.328 171.677 330.662 171.492C330.996 171.304 331.241 171.048 331.397 170.725C331.553 170.402 331.631 170.034 331.631 169.623C331.631 169.211 331.553 168.845 331.397 168.525C331.241 168.206 330.994 167.955 330.657 167.774C330.323 167.593 329.882 167.502 329.336 167.502H327.269V177H325.623ZM337.398 177.181C336.879 177.181 336.41 177.085 335.991 176.893C335.572 176.698 335.24 176.416 334.995 176.047C334.754 175.677 334.633 175.224 334.633 174.688C334.633 174.227 334.722 173.847 334.899 173.548C335.077 173.25 335.317 173.014 335.618 172.84C335.92 172.666 336.258 172.534 336.63 172.446C337.003 172.357 337.383 172.289 337.77 172.243C338.26 172.186 338.658 172.14 338.964 172.105C339.269 172.066 339.491 172.004 339.629 171.918C339.768 171.833 339.837 171.695 339.837 171.503V171.466C339.837 171 339.706 170.64 339.443 170.384C339.184 170.129 338.797 170.001 338.282 170.001C337.746 170.001 337.323 170.12 337.014 170.358C336.709 170.592 336.497 170.853 336.38 171.141L334.883 170.8C335.061 170.303 335.32 169.901 335.661 169.596C336.005 169.287 336.401 169.063 336.849 168.925C337.296 168.783 337.767 168.712 338.26 168.712C338.587 168.712 338.933 168.751 339.299 168.829C339.668 168.903 340.013 169.042 340.333 169.244C340.656 169.447 340.92 169.736 341.126 170.113C341.332 170.485 341.435 170.97 341.435 171.567V177H339.88V175.881H339.816C339.713 176.087 339.558 176.29 339.352 176.489C339.146 176.687 338.882 176.853 338.559 176.984C338.236 177.115 337.848 177.181 337.398 177.181ZM337.744 175.903C338.184 175.903 338.561 175.816 338.873 175.642C339.189 175.468 339.429 175.24 339.592 174.96C339.759 174.676 339.842 174.372 339.842 174.049V172.994C339.786 173.051 339.676 173.104 339.512 173.154C339.352 173.2 339.17 173.241 338.964 173.277C338.758 173.309 338.557 173.339 338.362 173.367C338.166 173.392 338.003 173.413 337.872 173.431C337.563 173.47 337.28 173.536 337.025 173.628C336.773 173.721 336.57 173.854 336.417 174.028C336.268 174.198 336.194 174.425 336.194 174.71C336.194 175.104 336.339 175.402 336.63 175.604C336.922 175.803 337.293 175.903 337.744 175.903ZM345.149 172.142V177H343.557V168.818H345.085V170.15H345.186C345.375 169.717 345.669 169.369 346.071 169.106C346.476 168.843 346.985 168.712 347.599 168.712C348.157 168.712 348.645 168.829 349.064 169.063C349.483 169.294 349.808 169.638 350.039 170.097C350.27 170.555 350.385 171.121 350.385 171.796V177H348.793V171.988C348.793 171.395 348.638 170.931 348.329 170.597C348.02 170.26 347.596 170.091 347.056 170.091C346.687 170.091 346.358 170.171 346.071 170.331C345.787 170.491 345.561 170.725 345.394 171.034C345.231 171.339 345.149 171.709 345.149 172.142ZM354.114 172.142V177H352.521V168.818H354.05V170.15H354.151C354.34 169.717 354.634 169.369 355.036 169.106C355.44 168.843 355.95 168.712 356.564 168.712C357.122 168.712 357.61 168.829 358.029 169.063C358.448 169.294 358.773 169.638 359.004 170.097C359.235 170.555 359.35 171.121 359.35 171.796V177H357.758V171.988C357.758 171.395 357.603 170.931 357.294 170.597C356.985 170.26 356.561 170.091 356.021 170.091C355.652 170.091 355.323 170.171 355.036 170.331C354.751 170.491 354.526 170.725 354.359 171.034C354.196 171.339 354.114 171.709 354.114 172.142ZM365.012 177.165C364.206 177.165 363.512 176.993 362.93 176.648C362.351 176.3 361.903 175.812 361.587 175.184C361.275 174.551 361.119 173.811 361.119 172.962C361.119 172.124 361.275 171.386 361.587 170.746C361.903 170.107 362.344 169.608 362.908 169.25C363.477 168.891 364.141 168.712 364.901 168.712C365.362 168.712 365.81 168.788 366.243 168.941C366.676 169.093 367.065 169.333 367.409 169.66C367.754 169.987 368.026 170.411 368.224 170.933C368.423 171.451 368.523 172.082 368.523 172.824V173.388H362.019V172.195H366.962C366.962 171.776 366.877 171.405 366.706 171.082C366.536 170.755 366.296 170.498 365.987 170.31C365.682 170.121 365.323 170.027 364.911 170.027C364.464 170.027 364.073 170.137 363.739 170.358C363.409 170.574 363.153 170.858 362.972 171.21C362.795 171.558 362.706 171.936 362.706 172.344V173.277C362.706 173.824 362.802 174.289 362.994 174.672C363.189 175.056 363.461 175.349 363.809 175.551C364.157 175.75 364.563 175.849 365.028 175.849C365.33 175.849 365.606 175.807 365.854 175.722C366.103 175.633 366.318 175.501 366.499 175.327C366.68 175.153 366.818 174.939 366.914 174.683L368.422 174.955C368.301 175.398 368.084 175.787 367.772 176.121C367.463 176.451 367.074 176.709 366.605 176.893C366.14 177.075 365.609 177.165 365.012 177.165ZM371.883 166.091V177H370.29V166.091H371.883Z" fill="white"/>
<path d="M533.679 166.185H531.463C531.378 165.711 531.219 165.295 530.987 164.935C530.755 164.575 530.471 164.269 530.135 164.018C529.799 163.768 529.422 163.578 529.006 163.45C528.594 163.322 528.156 163.259 527.692 163.259C526.854 163.259 526.103 163.469 525.44 163.891C524.782 164.312 524.261 164.93 523.878 165.744C523.499 166.559 523.31 167.553 523.31 168.727C523.31 169.911 523.499 170.91 523.878 171.724C524.261 172.539 524.785 173.154 525.447 173.571C526.11 173.988 526.856 174.196 527.685 174.196C528.144 174.196 528.58 174.134 528.991 174.011C529.408 173.884 529.785 173.696 530.121 173.45C530.457 173.204 530.741 172.903 530.973 172.548C531.21 172.188 531.373 171.777 531.463 171.312L533.679 171.32C533.561 172.035 533.331 172.693 532.99 173.294C532.654 173.891 532.221 174.407 531.69 174.842C531.165 175.273 530.563 175.607 529.886 175.844C529.209 176.08 528.471 176.199 527.67 176.199C526.411 176.199 525.289 175.901 524.304 175.304C523.319 174.703 522.543 173.843 521.974 172.726C521.411 171.608 521.129 170.276 521.129 168.727C521.129 167.174 521.413 165.841 521.982 164.729C522.55 163.611 523.326 162.754 524.311 162.158C525.296 161.556 526.416 161.256 527.67 161.256C528.442 161.256 529.162 161.367 529.83 161.589C530.502 161.807 531.106 162.129 531.641 162.555C532.176 162.977 532.618 163.493 532.969 164.104C533.319 164.71 533.556 165.403 533.679 166.185ZM535.588 163.344V161.455H546.845V163.344H542.306V176H540.119V163.344H535.588ZM548.842 176H546.513L551.747 161.455H554.283L559.517 176H557.188L553.075 164.097H552.962L548.842 176ZM549.233 170.304H556.79V172.151H549.233V170.304Z" fill="white"/>
<path d="M422.605 164.455C422.556 163.969 422.342 163.582 421.961 163.295C421.581 163.009 421.102 162.865 420.525 162.865C420.119 162.865 419.761 162.935 419.451 163.074C419.145 163.213 418.903 163.406 418.727 163.653C418.554 163.898 418.467 164.176 418.467 164.489C418.467 164.719 418.517 164.92 418.616 165.094C418.716 165.267 418.849 165.416 419.017 165.541C419.187 165.663 419.375 165.768 419.579 165.857C419.787 165.945 419.995 166.018 420.206 166.078L421.126 166.342C421.404 166.419 421.683 166.517 421.961 166.636C422.24 166.756 422.494 166.906 422.724 167.088C422.957 167.267 423.143 167.487 423.282 167.749C423.424 168.007 423.495 168.318 423.495 168.682C423.495 169.148 423.375 169.567 423.133 169.939C422.892 170.311 422.545 170.607 422.093 170.825C421.642 171.041 421.1 171.149 420.47 171.149C419.876 171.149 419.36 171.051 418.923 170.855C418.485 170.656 418.142 170.382 417.892 170.033C417.642 169.683 417.501 169.278 417.47 168.818H418.288C418.316 169.162 418.43 169.453 418.629 169.692C418.828 169.93 419.086 170.112 419.404 170.237C419.723 170.359 420.078 170.42 420.47 170.42C420.904 170.42 421.291 170.348 421.629 170.203C421.97 170.055 422.237 169.851 422.43 169.589C422.626 169.325 422.724 169.018 422.724 168.669C422.724 168.374 422.647 168.126 422.494 167.928C422.341 167.726 422.126 167.557 421.85 167.42C421.578 167.284 421.261 167.163 420.9 167.058L419.856 166.751C419.172 166.547 418.64 166.264 418.262 165.903C417.885 165.543 417.696 165.082 417.696 164.523C417.696 164.054 417.821 163.642 418.071 163.287C418.324 162.929 418.664 162.651 419.093 162.452C419.525 162.25 420.01 162.149 420.547 162.149C421.089 162.149 421.569 162.249 421.987 162.447C422.404 162.646 422.735 162.92 422.98 163.27C423.227 163.616 423.359 164.011 423.376 164.455H422.605ZM425.413 171V162.273H430.475V162.989H426.21V166.274H430.207V166.99H426.21V170.284H430.561V171H425.413ZM432.538 171V162.273H433.335V170.284H437.494V171H432.538ZM439.288 171V162.273H444.35V162.989H440.085V166.274H444.082V166.99H440.085V170.284H444.436V171H439.288ZM453.248 165H452.447C452.387 164.702 452.279 164.426 452.123 164.173C451.97 163.918 451.777 163.695 451.544 163.504C451.311 163.314 451.047 163.166 450.751 163.061C450.456 162.956 450.136 162.903 449.792 162.903C449.241 162.903 448.738 163.047 448.284 163.334C447.832 163.621 447.47 164.043 447.197 164.599C446.927 165.153 446.792 165.832 446.792 166.636C446.792 167.446 446.927 168.128 447.197 168.682C447.47 169.236 447.832 169.656 448.284 169.943C448.738 170.227 449.241 170.369 449.792 170.369C450.136 170.369 450.456 170.317 450.751 170.212C451.047 170.107 451.311 169.96 451.544 169.773C451.777 169.582 451.97 169.359 452.123 169.104C452.279 168.848 452.387 168.571 452.447 168.273H453.248C453.177 168.673 453.044 169.047 452.848 169.393C452.654 169.737 452.407 170.038 452.106 170.297C451.808 170.555 451.464 170.757 451.075 170.902C450.686 171.047 450.258 171.119 449.792 171.119C449.059 171.119 448.409 170.936 447.841 170.57C447.272 170.2 446.826 169.68 446.502 169.01C446.181 168.339 446.021 167.548 446.021 166.636C446.021 165.724 446.181 164.933 446.502 164.263C446.826 163.592 447.272 163.074 447.841 162.707C448.409 162.338 449.059 162.153 449.792 162.153C450.258 162.153 450.686 162.226 451.075 162.371C451.464 162.513 451.808 162.714 452.106 162.976C452.407 163.234 452.654 163.536 452.848 163.879C453.044 164.223 453.177 164.597 453.248 165ZM454.592 162.989V162.273H460.92V162.989H458.154V171H457.357V162.989H454.592ZM462.714 171V162.273H467.776V162.989H463.511V166.274H467.508V166.99H463.511V170.284H467.862V171H462.714ZM472.396 171H469.839V162.273H472.549C473.381 162.273 474.093 162.446 474.684 162.793C475.278 163.139 475.732 163.636 476.048 164.284C476.363 164.932 476.521 165.709 476.521 166.615C476.521 167.53 476.359 168.315 476.035 168.972C475.714 169.625 475.245 170.126 474.629 170.476C474.015 170.825 473.271 171 472.396 171ZM470.636 170.284H472.349C473.099 170.284 473.727 170.136 474.232 169.841C474.738 169.545 475.117 169.124 475.37 168.575C475.623 168.027 475.749 167.374 475.749 166.615C475.746 165.862 475.621 165.214 475.374 164.672C475.13 164.129 474.766 163.713 474.283 163.423C473.803 163.134 473.21 162.989 472.502 162.989H470.636V170.284ZM435.338 177.989V177.273H441.666V177.989H438.9V186H438.103V177.989H435.338ZM444.257 177.273V186H443.46V177.273H444.257ZM446.577 186V177.273H447.374V185.284H451.533V186H446.577ZM453.327 186V177.273H458.39V177.989H454.124V181.274H458.121V181.99H454.124V185.284H458.475V186H453.327Z" fill="black"/>
</g>
<defs>
<filter id="filter0_d_94_5472" x="205" y="93" width="198" height="166" filterUnits="userSpaceOnUse" color-interpolation-filters="sRGB">
<feFlood flood-opacity="0" result="BackgroundImageFix"/>
<feColorMatrix in="SourceAlpha" type="matrix" values="0 0 0 0 0 0 0 0 0 0 0 0 0 0 0 0 0 0 127 0" result="hardAlpha"/>
<feOffset dy="4"/>
<feGaussianBlur stdDeviation="2"/>
<feComposite in2="hardAlpha" operator="out"/>
<feColorMatrix type="matrix" values="0 0 0 0 0 0 0 0 0 0 0 0 0 0 0 0 0 0 0.25 0"/>
<feBlend mode="normal" in2="BackgroundImageFix" result="effect1_dropShadow_94_5472"/>
<feBlend mode="normal" in="SourceGraphic" in2="effect1_dropShadow_94_5472" result="shape"/>
</filter>
<filter id="filter1_b_94_5472" x="205" y="89" width="192.108" height="166" filterUnits="userSpaceOnUse" color-interpolation-filters="sRGB">
<feFlood flood-opacity="0" result="BackgroundImageFix"/>
<feGaussianBlur in="BackgroundImageFix" stdDeviation="2"/>
<feComposite in2="SourceAlpha" operator="in" result="effect1_backgroundBlur_94_5472"/>
<feBlend mode="normal" in="SourceGraphic" in2="effect1_backgroundBlur_94_5472" result="shape"/>
</filter>
<filter id="filter2_d_94_5472" x="499" y="149" width="90" height="47" filterUnits="userSpaceOnUse" color-interpolation-filters="sRGB">
<feFlood flood-opacity="0" result="BackgroundImageFix"/>
<feColorMatrix in="SourceAlpha" type="matrix" values="0 0 0 0 0 0 0 0 0 0 0 0 0 0 0 0 0 0 127 0" result="hardAlpha"/>
<feOffset dy="4"/>
<feGaussianBlur stdDeviation="2"/>
<feComposite in2="hardAlpha" operator="out"/>
<feColorMatrix type="matrix" values="0 0 0 0 0 0 0 0 0 0 0 0 0 0 0 0 0 0 0.25 0"/>
<feBlend mode="normal" in2="BackgroundImageFix" result="effect1_dropShadow_94_5472"/>
<feBlend mode="normal" in="SourceGraphic" in2="effect1_dropShadow_94_5472" result="shape"/>
</filter>
<clipPath id="clip0_94_5472">
<rect width="845" height="393" fill="white"/>
</clipPath>
</defs>
</svg>
